<svg width="297" height="264" viewBox="0 0 297 264" fill="none" xmlns="http://www.w3.org/2000/svg">
<path d="M338.118 259.063C225.878 261.173 114.146 260.756 1.966 260.884C-0.302574 260.884 -0.815084 264.43 1.53153 264.471C113.459 266.54 226.721 264.104 338.63 262.733C341.021 262.713 340.496 259.018 338.118 259.063Z" fill="#FFE100"/>
<path d="M124.105 161.215C166.675 159.056 190.234 160.192 196.522 163.717C199.761 165.539 204.801 189.473 207.116 205.48C220.192 203.92 236.623 202.483 253.039 201.365C250.601 189.049 249.098 181.333 243.567 169.433C242.729 167.63 245.024 166.902 245.958 168.549C251.499 178.694 255.221 189.732 256.954 201.162C279.18 199.702 301.108 198.82 314.852 198.82C313.291 185.37 304.646 154.375 289.149 138.482C277.202 126.231 252.727 116.629 232.216 114.048C231.896 116.891 231.569 118.976 230.348 120.55C228.595 122.81 226.253 124.544 223.579 125.56C212.621 129.866 196.522 130.997 178.681 121.197C146.452 125.56 130.064 149.297 124.105 161.215Z" fill="#FFE100"/>
<path fill-rule="evenodd" clip-rule="evenodd" d="M310.551 202.964C310.151 200.773 307.198 201.546 307.567 203.724C308.838 211.54 308.334 219.543 306.092 227.138C300.782 245.643 285.157 242.674 269.517 241.954C253.101 241.199 230.493 239.625 216.309 238.972C215.996 238.931 215.679 239.013 215.426 239.202C215.172 239.391 215.003 239.671 214.953 239.983C214.903 240.295 214.977 240.614 215.159 240.872C215.341 241.131 215.616 241.308 215.927 241.366C229.572 243.533 258.72 244.815 270.076 245.354C285.607 246.093 302.934 248.164 308.717 230.182C311.563 221.399 312.193 212.049 310.551 202.964Z" fill="#1A1A1A"/>
<path fill-rule="evenodd" clip-rule="evenodd" d="M208.744 212.237C228.844 209.04 249.091 206.858 269.41 205.699C269.739 205.669 270.043 205.514 270.259 205.265C270.476 205.016 270.588 204.693 270.571 204.364C270.555 204.035 270.413 203.725 270.173 203.498C269.933 203.272 269.615 203.147 269.286 203.149C248.828 203.989 228.439 206.064 208.232 209.362C207.851 209.431 207.512 209.649 207.292 209.967C207.071 210.285 206.986 210.678 207.055 211.059C207.124 211.441 207.341 211.779 207.66 212C207.978 212.22 208.371 212.306 208.752 212.237H208.744Z" fill="#1A1A1A"/>
<path fill-rule="evenodd" clip-rule="evenodd" d="M274.537 248.128C269.877 247.522 215.83 248.718 213.327 247.693C210.824 246.668 197.879 172.942 194.497 168.098C191.115 163.254 73.7564 166.327 68.9122 169.123C64.0681 171.92 80.0652 256.133 84.2095 257.837C87.9063 259.354 268.983 257.246 274.545 256.952C280.107 256.658 279.196 248.734 274.537 248.128ZM136.38 223.899C121.845 225.109 117.289 201.266 131.814 198.896C138.708 197.769 144.783 203.883 146.07 211.412C146.338 212.879 146.294 214.386 145.939 215.835C145.585 217.284 144.93 218.642 144.015 219.821C143.101 220.999 141.948 221.971 140.632 222.674C139.317 223.377 137.867 223.794 136.38 223.899Z" fill="#1A1A1A"/>
<path fill-rule="evenodd" clip-rule="evenodd" d="M189.261 70.5964C187.397 72.183 180.984 73.6009 180.068 68.6035C179.77 67.0246 178.051 66.994 177.841 68.6035C177.043 75.9846 188.608 77.0845 191.514 72.6198C192.373 71.3092 190.903 69.2052 189.261 70.5964ZM185.021 43.425C183.147 42.6818 181.111 42.4452 179.117 42.739C175.913 43.3637 175.706 46.8166 179.499 46.8473C180.931 46.9099 182.352 47.1192 183.742 47.472C186.702 48.066 186.431 43.9615 185.021 43.425ZM205.573 48.066C203.082 46.5029 200.102 45.92 197.208 46.4296C194.917 46.9661 194.955 50.032 197.686 50.3309C199.882 50.4829 202.032 51.0375 204.03 51.9673C206.76 53.0672 207.738 49.825 205.573 48.066ZM197.934 56.3707C195.562 55.9874 194.585 62.3223 196.838 62.6212C199.091 62.9202 199.817 56.6734 197.949 56.3707H197.934ZM179.961 53.3968C177.799 53.232 176.997 59.6167 179.163 59.8543C181.328 60.0919 182.145 53.5577 179.976 53.3968H179.961ZM201.242 79.2651C203.587 77.1535 205.13 80.3344 204.209 81.4381C202.48 83.5227 200.172 85.0434 197.578 85.8065C194.985 86.5696 192.223 86.5404 189.646 85.7226C186.92 85.0366 186.679 82.4498 189.646 82.7449C191.72 83.1315 193.857 83.0116 195.875 82.3953C197.893 81.7789 199.734 80.6843 201.242 79.2038V79.2651Z" fill="#1A1A1A"/>
<path fill-rule="evenodd" clip-rule="evenodd" d="M207.086 96.3824C197.929 102.352 188.296 104.862 178.253 99.6958C173.376 97.2203 173.083 95.7558 173.083 90.2629C173.314 72.1632 174.94 54.1092 177.945 36.2644C178.325 33.8774 174.696 32.9818 174.312 35.3688C173.071 43.5178 167.163 88.7715 169.879 96.8321C172.482 104.412 182.966 106.861 190.043 106.861C189.217 110.743 188.388 114.621 187.593 118.531C187.383 119.488 189.985 123.608 191.933 116.174C192.763 113.011 193.352 109.786 194.09 106.592C199.857 106.019 205.242 103.421 209.308 99.2499C210.605 97.7546 208.863 95.2484 207.09 96.2632L207.086 96.3824ZM244.43 40.9808C250.604 45.2783 246.674 56.264 242.067 57.5094C245.757 62.6141 238.137 80.7648 228.299 80.315C228.094 84.6163 226.705 100.076 226.203 115.359C226.203 117.093 223.247 116.705 222.95 115.121C221.946 110.762 224.339 79.7192 225.02 76.9747C226.055 72.8848 229.273 74.6684 232.522 70.2557C240.382 59.4929 229.243 52.9583 224.723 61.5109C222.657 65.4201 214.234 54.7342 212.907 38.4477C200.588 37.1639 178.842 34.4194 172.166 29.4915C170.489 28.22 169.291 26.4089 168.77 24.3569C168.249 22.3049 168.435 20.1347 169.299 18.2044C170.163 16.2742 171.653 14.6991 173.522 13.7392C175.391 12.7794 177.528 12.492 179.581 12.9245C178.553 -0.571266 196.053 1.25072 199.66 7.18948C200.132 -2.68923 227.55 -2.83914 226.838 11.9982C237.49 5.4905 249.234 21.3387 241.139 27.1314C249.314 26.7124 252.544 38.4439 244.418 40.9808H244.43Z" fill="#1A1A1A"/>
</svg>
