<svg width="48" height="48" viewBox="0 0 48 48" fill="none" xmlns="http://www.w3.org/2000/svg">
<circle cx="24" cy="24" r="24" fill="#F46666"/>
<path d="M20 35L13.5 28.5C11.567 26.567 11.567 23.433 13.5 21.5V21.5C15.433 19.567 18.567 19.567 20.5 21.5L26.5 27.5C28.433 29.433 31.567 29.433 33.5 27.5V27.5C35.433 25.567 35.433 22.433 33.5 20.5L26 13" stroke="#1A1A1A" stroke-width="3.5"/>
<path d="M21.9213 30.6854L23.8383 38.3532C23.9115 38.6462 23.6462 38.9115 23.3532 38.8383L15.6854 36.9213C15.3837 36.8459 15.2797 36.4703 15.4996 36.2504L21.2504 30.4996C21.4703 30.2797 21.8459 30.3837 21.9213 30.6854Z" fill="#1A1A1A"/>
<path d="M24.0787 17.3146L22.1617 9.64676C22.0885 9.35381 22.3538 9.08845 22.6468 9.16169L30.3146 11.0787C30.6163 11.1541 30.7203 11.5297 30.5004 11.7496L24.7496 17.5004C24.5297 17.7203 24.1541 17.6163 24.0787 17.3146Z" fill="#1A1A1A"/>
</svg>
