<svg width="48" height="48" viewBox="0 0 48 48" fill="none" xmlns="http://www.w3.org/2000/svg">
<circle cx="24" cy="24" r="24" fill="#52CB52"/>
<path d="M10.256 31C7.5123 25.3182 8.49722 18.2879 13.2108 13.5743C19.1695 7.61563 28.8305 7.61563 34.7892 13.5743C39.5028 18.2879 40.4877 25.3182 37.744 31" stroke="#1A1A1A" stroke-width="3.5" stroke-linecap="round" stroke-linejoin="round"/>
<mask id="path-3-outside-1_2045_30563" maskUnits="userSpaceOnUse" x="16" y="8.23474" width="24" height="24" fill="black">
<rect fill="white" x="16" y="8.23474" width="24" height="24"/>
<path fill-rule="evenodd" clip-rule="evenodd" d="M21.8922 19.4647L35.3937 11.3638C35.75 11.15 36.2061 11.2062 36.5 11.5C36.7939 11.7939 36.85 12.25 36.6362 12.6064L28.5353 26.1078C27.7401 27.8159 26.0083 29 24 29C21.2386 29 19 26.7614 19 24C19 21.9917 20.1841 20.2599 21.8922 19.4647Z"/>
</mask>
<path fill-rule="evenodd" clip-rule="evenodd" d="M21.8922 19.4647L35.3937 11.3638C35.75 11.15 36.2061 11.2062 36.5 11.5C36.7939 11.7939 36.85 12.25 36.6362 12.6064L28.5353 26.1078C27.7401 27.8159 26.0083 29 24 29C21.2386 29 19 26.7614 19 24C19 21.9917 20.1841 20.2599 21.8922 19.4647Z" fill="#1A1A1A"/>
<path d="M21.8922 19.4647L23.1583 22.1844L23.3009 22.1181L23.4357 22.0372L21.8922 19.4647ZM35.3937 11.3638L33.8502 8.79134L33.8502 8.79134L35.3937 11.3638ZM36.5 11.5L34.3787 13.6213H34.3787L36.5 11.5ZM36.6362 12.6064L34.0637 11.0629V11.0629L36.6362 12.6064ZM28.5353 26.1078L25.9629 24.5643L25.882 24.6991L25.8156 24.8417L28.5353 26.1078ZM23.4357 22.0372L36.9371 13.9363L33.8502 8.79134L20.3487 16.8922L23.4357 22.0372ZM36.9371 13.9363C36.1131 14.4307 35.0582 14.3009 34.3787 13.6213L38.6213 9.3787C37.3541 8.11144 35.387 7.86928 33.8502 8.79134L36.9371 13.9363ZM34.3787 13.6213C33.6991 12.9418 33.5693 11.8869 34.0637 11.0629L39.2087 14.1498C40.1307 12.6131 39.8886 10.646 38.6213 9.3787L34.3787 13.6213ZM34.0637 11.0629L25.9629 24.5643L31.1078 27.6513L39.2087 14.1498L34.0637 11.0629ZM25.8156 24.8417C25.4943 25.5317 24.7988 26 24 26V32C27.2179 32 29.9859 30.1001 31.2551 27.3739L25.8156 24.8417ZM24 26C22.8954 26 22 25.1046 22 24H16C16 28.4183 19.5817 32 24 32V26ZM22 24C22 23.2012 22.4683 22.5057 23.1583 22.1844L20.6261 16.745C17.8999 18.0141 16 20.7821 16 24H22Z" fill="#56CB4D" mask="url(#path-3-outside-1_2045_30563)"/>
</svg>
