<svg width="48" height="48" viewBox="0 0 48 48" fill="none" xmlns="http://www.w3.org/2000/svg">
<circle cx="24" cy="24" r="24" fill="#00ACE5"/>
<path d="M29 19V16C29 13.2386 26.7614 11 24 11V11C21.2386 11 19 13.2386 19 16V19" stroke="#1A1A1A" stroke-width="3"/>
<path fill-rule="evenodd" clip-rule="evenodd" d="M16.75 19H31.25C32.7688 19 34 20.2312 34 21.75V31.25C34 32.7688 32.7688 34 31.25 34H16.75C15.2312 34 14 32.7688 14 31.25V21.75C14 20.2312 15.2312 19 16.75 19ZM26 25C26 25.7403 25.5978 26.3866 25 26.7324V29C25 29.5523 24.5523 30 24 30C23.4477 30 23 29.5523 23 29V26.7324C22.4022 26.3866 22 25.7403 22 25C22 23.8954 22.8954 23 24 23C25.1046 23 26 23.8954 26 25Z" fill="#1A1A1A"/>
</svg>
