<svg width="260" height="80" viewBox="0 0 260 80" fill="none" xmlns="http://www.w3.org/2000/svg">
<path fill-rule="evenodd" clip-rule="evenodd" d="M0 10H11.6933V31.7742C13.155 29.8387 17.7349 25.9678 24.361 25.9678C32.6438 25.9678 37.2724 33.2258 38.2468 37.5807H25.3355C25.0919 36.7742 23.7276 35.1613 20.2196 35.1613C15.8434 35.1613 11.7098 38.2939 11.6933 42.3948V53.5723C11.7103 57.6735 16.0858 60.8064 19.976 60.8064C25.4121 60.8064 27.4085 54.0506 27.7452 52.9113C27.7555 52.8763 27.7643 52.8466 27.7716 52.8226H39.4649C37.2724 63.7097 32.6438 70 24.361 70C17.7349 70 13.155 66.1291 11.6933 64.1936H10.7189L8.76999 69.0323H0V10Z" fill="#5A2A7A"/>
<path fill-rule="evenodd" clip-rule="evenodd" d="M56.517 21.1292H61.3892L62.2744 27.7224C64.846 28.1979 67.2256 29.2155 69.2886 30.6514L74.5547 26.652L77.9999 30.0735L73.9321 35.3563C74.5091 36.2099 75.0141 37.1155 75.4384 38.0646H58.4164C54.4079 38.0646 51.1583 41.3141 51.1583 45.3226C51.1583 49.3312 54.4079 52.5807 58.4164 52.5807H75.4384C74.9925 53.5781 74.4575 54.5274 73.8435 55.4188L77.9999 60.8167L74.5547 64.2382L69.1193 60.1103C67.0959 61.4847 64.7761 62.4602 62.2747 62.9228L61.3894 69.5162H56.5172L55.632 62.9225C53.1847 62.4697 50.9112 61.5259 48.9193 60.1979L43.5992 64.2382L40.1541 60.8167L44.1815 55.5862C42.7358 53.5377 41.7112 51.1747 41.2323 48.6211L34.5933 47.742V42.9033L41.2323 42.0242C41.7012 39.5237 42.6934 37.2061 44.0918 35.1874L40.1541 30.0735L43.5992 26.652L48.7485 30.5626C50.7809 29.174 53.1143 28.1886 55.6318 27.7228L56.517 21.1292Z" fill="#4D4D4D"/>
<path d="M90 59.7563V58.5784C91.1112 58.064 92.2501 57.739 93.4168 57.6036V33.5182C92.8612 33.4099 92.2918 33.2745 91.7084 33.112C91.125 32.9225 90.5556 32.7194 90 32.5028V31.3249H94.4168C94.9446 31.3249 95.4446 31.3114 95.9169 31.2843C96.4169 31.2572 96.9308 31.2302 97.4586 31.2031C97.9864 31.176 98.5559 31.1489 99.167 31.1218C99.7781 31.0948 100.473 31.0812 101.25 31.0812C102.362 31.0812 103.487 31.176 104.626 31.3655C105.792 31.528 106.834 31.8529 107.751 32.3403C108.695 32.8277 109.459 33.5182 110.042 34.4118C110.626 35.2782 110.917 36.4155 110.917 37.8235C110.917 38.5275 110.806 39.2316 110.584 39.9356C110.362 40.6396 110.015 41.303 109.542 41.9258C109.098 42.5215 108.528 43.0495 107.834 43.5098C107.14 43.9701 106.32 44.3086 105.376 44.5252V44.6877C106.209 44.8231 107.028 45.0532 107.834 45.3782C108.667 45.7031 109.404 46.1499 110.042 46.7185C110.681 47.26 111.195 47.937 111.584 48.7493C112.001 49.5616 112.209 50.5364 112.209 51.6737C112.209 53.1359 111.876 54.395 111.209 55.451C110.542 56.507 109.667 57.3735 108.584 58.0504C107.528 58.7274 106.32 59.2283 104.959 59.5532C103.598 59.8511 102.223 60 100.834 60C99.8615 60 98.7642 59.9594 97.5419 59.8782C96.3197 59.7969 95.1391 59.7563 94.0001 59.7563H90ZM101.125 57.888C102.125 57.888 103.056 57.739 103.917 57.4412C104.806 57.1433 105.556 56.7372 106.167 56.2227C106.806 55.6811 107.306 55.0448 107.667 54.3137C108.028 53.5556 108.209 52.7432 108.209 51.8768C108.209 50.7937 107.987 49.9001 107.542 49.1961C107.126 48.465 106.542 47.8964 105.792 47.4902C105.07 47.057 104.223 46.7591 103.25 46.5966C102.306 46.4342 101.32 46.3529 100.292 46.3529H97.1669V57.563C97.5558 57.6713 98.0142 57.7526 98.542 57.8067C99.0976 57.8609 99.9587 57.888 101.125 57.888ZM99.2503 44.2409C99.7226 44.2409 100.278 44.2274 100.917 44.2003C101.584 44.1461 102.125 44.092 102.542 44.0378C103.82 43.6046 104.862 42.9141 105.667 41.9664C106.501 40.9916 106.917 39.8543 106.917 38.5546C106.917 36.7675 106.362 35.4272 105.251 34.5336C104.167 33.6401 102.709 33.1933 100.875 33.1933C100.014 33.1933 99.2781 33.2068 98.667 33.2339C98.0559 33.261 97.5558 33.3016 97.1669 33.3557V44.2409H99.2503Z" fill="#542D76"/>
<path d="M123.053 57.6036C123.803 57.6849 124.511 57.8203 125.178 58.0098C125.844 58.1723 126.469 58.3618 127.053 58.5784V59.7563H115.636V58.5784C116.191 58.3077 116.761 58.1046 117.344 57.9692C117.927 57.8338 118.497 57.712 119.053 57.6036V33.5182C118.414 33.4099 117.816 33.2745 117.261 33.112C116.705 32.9225 116.164 32.7194 115.636 32.5028V31.3249H119.386C120.497 31.3249 121.705 31.2708 123.011 31.1625C124.317 31.0542 125.567 31 126.761 31C128.122 31 129.456 31.1489 130.761 31.4468C132.067 31.7176 133.22 32.1914 134.22 32.8683C135.248 33.5453 136.067 34.4524 136.678 35.5896C137.317 36.6998 137.637 38.0943 137.637 39.7731C137.637 41.3707 137.317 42.7381 136.678 43.8753C136.039 45.0126 135.178 45.9468 134.095 46.6779C133.039 47.409 131.831 47.9505 130.47 48.3025C129.108 48.6275 127.706 48.7899 126.261 48.7899C126.122 48.7899 125.9 48.7899 125.594 48.7899C125.317 48.7899 125.011 48.7899 124.678 48.7899C124.344 48.7628 124.025 48.7358 123.719 48.7087C123.414 48.6816 123.192 48.6545 123.053 48.6275V57.6036ZM125.886 33.112C125.219 33.112 124.678 33.1256 124.261 33.1527C123.844 33.1797 123.442 33.2339 123.053 33.3151V46.4748C123.192 46.5289 123.386 46.5696 123.636 46.5966C123.914 46.5966 124.192 46.6102 124.469 46.6373C124.775 46.6643 125.067 46.6779 125.344 46.6779C125.622 46.6779 125.844 46.6779 126.011 46.6779C126.983 46.6779 127.9 46.556 128.761 46.3123C129.622 46.0415 130.372 45.6218 131.011 45.0532C131.678 44.4846 132.206 43.767 132.595 42.9006C132.984 42.0341 133.178 40.9916 133.178 39.7731C133.178 37.5528 132.525 35.8875 131.22 34.7773C129.942 33.6671 128.164 33.112 125.886 33.112Z" fill="#542D76"/>
<path d="M147.458 57.6036C148.68 57.7661 149.875 58.091 151.041 58.5784V59.7563H140.458V58.5784C140.93 58.3618 141.416 58.1723 141.916 58.0098C142.416 57.8473 142.93 57.712 143.458 57.6036V33.5182C142.847 33.3828 142.291 33.2339 141.791 33.0714C141.291 32.8819 140.847 32.6923 140.458 32.5028V31.3249H160C159.972 32.381 159.917 33.4641 159.833 34.5742C159.778 35.6844 159.681 36.7946 159.542 37.9048H158.458L156.75 33.437H147.458V44.972H154.875L156.375 42.4132H157.375C157.514 43.6317 157.569 44.8637 157.542 46.1092C157.542 47.3277 157.486 48.5598 157.375 49.8053H156.375L154.875 47.084H147.458V57.6036Z" fill="#542D76"/>
<path d="M181.765 40.5166H182.227C182.286 40.8517 182.339 41.2767 182.387 41.7914C182.434 42.2942 182.446 42.785 182.422 43.2638C182.245 43.4075 182.032 43.5272 181.783 43.6229C181.535 43.7067 181.269 43.7785 180.985 43.8384C180.713 43.8983 180.429 43.9401 180.133 43.9641C179.849 43.988 179.577 44 179.317 44C178.323 44 177.436 43.8743 176.655 43.6229C175.875 43.3596 175.212 42.9645 174.668 42.4378C174.136 41.9111 173.722 41.2408 173.426 40.4268C173.142 39.6008 173 38.6252 173 37.5C173 36.3269 173.16 35.3333 173.479 34.5193C173.798 33.6934 174.23 33.023 174.774 32.5083C175.319 31.9816 175.951 31.5985 176.673 31.3591C177.395 31.1197 178.152 31 178.944 31C179.725 31 180.381 31.0539 180.914 31.1616C181.446 31.2574 181.913 31.407 182.316 31.6105C182.316 31.802 182.31 32.0295 182.298 32.2928C182.286 32.5442 182.268 32.8135 182.245 33.1008C182.221 33.3881 182.191 33.6694 182.156 33.9448C182.12 34.2201 182.085 34.4715 182.049 34.6989H181.588L180.665 32.1133C180.535 32.0414 180.316 31.9936 180.009 31.9696C179.713 31.9457 179.417 31.9337 179.122 31.9337C178.53 31.9337 177.968 32.0474 177.436 32.2749C176.915 32.4903 176.454 32.8315 176.052 33.2983C175.662 33.7532 175.348 34.3338 175.112 35.0401C174.875 35.7343 174.757 36.5543 174.757 37.5C174.757 38.3499 174.863 39.122 175.076 39.8163C175.289 40.4986 175.597 41.0852 175.999 41.576C176.401 42.0548 176.892 42.4259 177.471 42.6892C178.051 42.9406 178.708 43.0663 179.441 43.0663C179.831 43.0663 180.157 43.0364 180.417 42.9765C180.677 42.9167 180.849 42.8389 180.932 42.7431L181.765 40.5166Z" fill="#4D4D4D"/>
<path d="M184.419 37.5C184.419 36.5663 184.543 35.7044 184.792 34.9144C185.052 34.1123 185.419 33.424 185.892 32.8494C186.377 32.2629 186.968 31.808 187.666 31.4848C188.364 31.1616 189.157 31 190.044 31C190.931 31 191.724 31.1616 192.422 31.4848C193.12 31.808 193.705 32.2629 194.178 32.8494C194.663 33.424 195.03 34.1123 195.278 34.9144C195.539 35.7044 195.669 36.5663 195.669 37.5C195.669 38.4337 195.539 39.3016 195.278 40.1036C195.03 40.8936 194.663 41.582 194.178 42.1685C193.705 42.7431 193.12 43.192 192.422 43.5152C191.724 43.8384 190.931 44 190.044 44C189.157 44 188.364 43.8384 187.666 43.5152C186.968 43.192 186.377 42.7431 185.892 42.1685C185.419 41.582 185.052 40.8936 184.792 40.1036C184.543 39.3016 184.419 38.4337 184.419 37.5ZM186.318 37.5C186.318 38.2661 186.395 38.9903 186.548 39.6727C186.714 40.343 186.957 40.9296 187.276 41.4323C187.595 41.9351 187.997 42.3361 188.482 42.6354C188.967 42.9227 189.541 43.0663 190.204 43.0663C190.807 43.0663 191.333 42.9227 191.783 42.6354C192.232 42.3361 192.599 41.9351 192.883 41.4323C193.179 40.9296 193.398 40.343 193.54 39.6727C193.693 38.9903 193.77 38.2661 193.77 37.5C193.77 36.7339 193.693 36.0157 193.54 35.3453C193.386 34.663 193.149 34.0704 192.83 33.5677C192.51 33.0649 192.108 32.6699 191.623 32.3826C191.138 32.0833 190.564 31.9337 189.902 31.9337C189.251 31.9337 188.695 32.0833 188.234 32.3826C187.785 32.6699 187.418 33.0649 187.134 33.5677C186.85 34.0704 186.643 34.663 186.513 35.3453C186.383 36.0157 186.318 36.7339 186.318 37.5Z" fill="#4D4D4D"/>
<path d="M211.465 43.7845H207.064V43.2638C207.301 43.168 207.538 43.0902 207.774 43.0304C208.011 42.9586 208.253 42.8927 208.502 42.8329V34.7528L208.573 32.6519H208.431L207.845 34.5732L204.208 43.7845H203.746L200.286 34.5732L199.648 32.4724H199.488L199.506 34.7528V42.8329C199.73 42.8808 199.955 42.9406 200.18 43.0124C200.405 43.0843 200.629 43.168 200.854 43.2638V43.7845H197.146V43.2638C197.37 43.168 197.601 43.0843 197.838 43.0124C198.086 42.9286 198.335 42.8628 198.583 42.8149V32.1851C198.335 32.1372 198.086 32.0773 197.838 32.0055C197.601 31.9217 197.365 31.832 197.128 31.7362V31.2155H200.765L203.853 39.4213L204.456 41.2707H204.474L205.077 39.3854L208.271 31.2155H211.483V31.7362C211.27 31.832 211.051 31.9217 210.826 32.0055C210.601 32.0773 210.371 32.1372 210.134 32.1851V42.8508C210.383 42.8987 210.613 42.9586 210.826 43.0304C211.051 43.0902 211.264 43.168 211.465 43.2638V43.7845Z" fill="#4D4D4D"/>
<path d="M215.674 42.8329C215.993 42.8688 216.295 42.9286 216.579 43.0124C216.862 43.0843 217.129 43.168 217.377 43.2638V43.7845H212.515V43.2638C212.752 43.1441 212.994 43.0543 213.243 42.9945C213.491 42.9346 213.734 42.8808 213.97 42.8329V32.1851C213.698 32.1372 213.444 32.0773 213.207 32.0055C212.971 31.9217 212.74 31.832 212.515 31.7362V31.2155H214.112C214.585 31.2155 215.1 31.1915 215.656 31.1436C216.212 31.0958 216.744 31.0718 217.253 31.0718C217.832 31.0718 218.4 31.1377 218.956 31.2693C219.512 31.389 220.003 31.5985 220.429 31.8978C220.867 32.1971 221.216 32.5981 221.476 33.1008C221.748 33.5916 221.884 34.2081 221.884 34.9503C221.884 35.6565 221.748 36.261 221.476 36.7638C221.204 37.2666 220.837 37.6796 220.376 38.0028C219.926 38.326 219.412 38.5654 218.832 38.721C218.252 38.8646 217.655 38.9365 217.04 38.9365C216.981 38.9365 216.886 38.9365 216.756 38.9365C216.638 38.9365 216.508 38.9365 216.366 38.9365C216.224 38.9245 216.088 38.9125 215.958 38.9006C215.827 38.8886 215.733 38.8766 215.674 38.8646V42.8329ZM216.88 32.0055C216.596 32.0055 216.366 32.0115 216.188 32.0235C216.011 32.0355 215.839 32.0594 215.674 32.0953V37.913C215.733 37.9369 215.816 37.9549 215.922 37.9669C216.04 37.9669 216.159 37.9728 216.277 37.9848C216.407 37.9968 216.531 38.0028 216.65 38.0028C216.768 38.0028 216.862 38.0028 216.933 38.0028C217.347 38.0028 217.738 37.9489 218.105 37.8412C218.471 37.7215 218.791 37.5359 219.063 37.2845C219.347 37.0331 219.571 36.7159 219.737 36.3329C219.903 35.9498 219.985 35.489 219.985 34.9503C219.985 33.9687 219.707 33.2325 219.151 32.7417C218.607 32.2509 217.85 32.0055 216.88 32.0055Z" fill="#4D4D4D"/>
<path d="M227.965 43.7845H223.422V43.2638C223.884 43.0483 224.357 42.9047 224.842 42.8329V32.1851C224.605 32.1372 224.369 32.0773 224.132 32.0055C223.896 31.9217 223.659 31.832 223.422 31.7362V31.2155H227.965V31.7362C227.752 31.832 227.521 31.9217 227.273 32.0055C227.024 32.0773 226.782 32.1372 226.545 32.1851V42.8329C226.794 42.8808 227.042 42.9406 227.291 43.0124C227.539 43.0843 227.764 43.168 227.965 43.2638V43.7845Z" fill="#4D4D4D"/>
<path d="M229.323 31.2155H234.185V31.7362C233.901 31.8439 233.617 31.9397 233.333 32.0235C233.05 32.0953 232.766 32.1492 232.482 32.1851V42.8508H236.563L237.61 39.9599H238.071C238.107 40.2113 238.136 40.5046 238.16 40.8398C238.195 41.163 238.219 41.5041 238.231 41.8633C238.254 42.2104 238.266 42.5516 238.266 42.8867C238.266 43.2219 238.26 43.5212 238.249 43.7845H229.323V43.2638C229.607 43.1321 229.867 43.0364 230.104 42.9765C230.341 42.9167 230.565 42.8688 230.778 42.8329V32.1851C230.506 32.1372 230.246 32.0773 229.998 32.0055C229.749 31.9217 229.524 31.832 229.323 31.7362V31.2155Z" fill="#4D4D4D"/>
<path d="M247.472 31.2155C247.46 31.6943 247.437 32.1791 247.401 32.6699C247.378 33.1487 247.336 33.6335 247.277 34.1243H246.816L246.088 32.1492H242.22V36.9075H245.112L245.804 35.5787H246.248C246.319 36.7638 246.319 37.9728 246.248 39.2058H245.804L245.112 37.8412H242.22V42.8508H246.301L247.171 40.6961H247.614C247.697 41.1989 247.756 41.7076 247.792 42.2224C247.827 42.7371 247.833 43.2578 247.809 43.7845H239.062V43.2638C239.476 43.0723 239.961 42.9286 240.517 42.8329V32.1851C240.28 32.1372 240.038 32.0773 239.789 32.0055C239.541 31.9217 239.298 31.832 239.062 31.7362V31.2155H247.472Z" fill="#4D4D4D"/>
<path d="M252.548 42.8329C252.82 42.8927 253.08 42.9586 253.328 43.0304C253.577 43.0902 253.819 43.168 254.056 43.2638V43.7845H249.389V43.2638C249.649 43.1441 249.898 43.0543 250.134 42.9945C250.371 42.9346 250.608 42.8808 250.844 42.8329V32.1851C250.537 32.1252 250.265 32.0594 250.028 31.9876C249.791 31.9038 249.578 31.82 249.389 31.7362V31.2155H250.951C251.424 31.2155 251.938 31.1915 252.494 31.1436C253.062 31.0958 253.612 31.0718 254.145 31.0718C254.724 31.0718 255.262 31.1377 255.759 31.2693C256.268 31.401 256.706 31.6105 257.072 31.8978C257.439 32.1851 257.723 32.5502 257.924 32.9931C258.137 33.436 258.243 33.9687 258.243 34.5912C258.243 35.465 258.013 36.1892 257.551 36.7638C257.102 37.3384 256.487 37.7514 255.706 38.0028C256.215 38.8168 256.747 39.6248 257.303 40.4268C257.859 41.2288 258.439 42.0249 259.042 42.8149L260 43.3356V43.7845H257.853L257.179 43.2818C256.848 42.8628 256.546 42.4558 256.274 42.0608C256.002 41.6538 255.747 41.2468 255.511 40.8398C255.274 40.4208 255.049 40.0018 254.837 39.5829C254.635 39.1519 254.428 38.6971 254.216 38.2182H252.548V42.8329ZM253.754 32.0055C253.47 32.0055 253.234 32.0115 253.044 32.0235C252.867 32.0355 252.701 32.0594 252.548 32.0953V37.4641H253.825C254.641 37.4641 255.286 37.2007 255.759 36.674C256.244 36.1473 256.487 35.453 256.487 34.5912C256.487 33.7053 256.232 33.0529 255.724 32.634C255.215 32.215 254.559 32.0055 253.754 32.0055Z" fill="#4D4D4D"/>
<path d="M180.083 57.3204H180.456C180.503 57.5783 180.546 57.9052 180.585 58.3011C180.623 58.6878 180.632 59.0654 180.613 59.4337C180.47 59.5442 180.298 59.6363 180.097 59.7099C179.896 59.7744 179.681 59.8297 179.452 59.8757C179.232 59.9217 179.003 59.954 178.764 59.9724C178.534 59.9908 178.314 60 178.104 60C177.301 60 176.584 59.9033 175.954 59.7099C175.323 59.5074 174.787 59.2035 174.348 58.7983C173.918 58.3932 173.583 57.8775 173.344 57.2514C173.115 56.616 173 55.8656 173 55C173 54.0976 173.129 53.3333 173.387 52.7072C173.645 52.0718 173.994 51.5562 174.434 51.1602C174.873 50.7551 175.385 50.4604 175.968 50.2762C176.551 50.0921 177.163 50 177.803 50C178.434 50 178.964 50.0414 179.395 50.1243C179.825 50.198 180.202 50.3131 180.527 50.4696C180.527 50.6169 180.522 50.7919 180.513 50.9945C180.503 51.1878 180.489 51.395 180.47 51.616C180.451 51.837 180.427 52.0534 180.398 52.2652C180.37 52.477 180.341 52.6703 180.312 52.8453H179.939L179.194 50.8564C179.089 50.8011 178.912 50.7643 178.663 50.7459C178.424 50.7274 178.185 50.7182 177.946 50.7182C177.469 50.7182 177.015 50.8057 176.584 50.9807C176.164 51.1464 175.791 51.4088 175.466 51.768C175.151 52.1179 174.897 52.5645 174.706 53.1077C174.515 53.6418 174.419 54.2726 174.419 55C174.419 55.6538 174.505 56.2477 174.677 56.7818C174.85 57.3066 175.098 57.7578 175.423 58.1354C175.748 58.5037 176.145 58.7891 176.613 58.9917C177.081 59.1851 177.612 59.2818 178.205 59.2818C178.52 59.2818 178.783 59.2587 178.993 59.2127C179.203 59.1667 179.342 59.1068 179.409 59.0331L180.083 57.3204Z" fill="#4D4D4D"/>
<path d="M182.227 55C182.227 54.2818 182.327 53.6188 182.528 53.011C182.738 52.3941 183.035 51.8646 183.417 51.4227C183.809 50.9715 184.287 50.6215 184.851 50.3729C185.415 50.1243 186.055 50 186.772 50C187.489 50 188.129 50.1243 188.693 50.3729C189.257 50.6215 189.73 50.9715 190.113 51.4227C190.505 51.8646 190.801 52.3941 191.002 53.011C191.212 53.6188 191.317 54.2818 191.317 55C191.317 55.7182 191.212 56.3858 191.002 57.0028C190.801 57.6105 190.505 58.14 190.113 58.5912C189.73 59.0331 189.257 59.3785 188.693 59.6271C188.129 59.8757 187.489 60 186.772 60C186.055 60 185.415 59.8757 184.851 59.6271C184.287 59.3785 183.809 59.0331 183.417 58.5912C183.035 58.14 182.738 57.6105 182.528 57.0028C182.327 56.3858 182.227 55.7182 182.227 55ZM183.761 55C183.761 55.5893 183.823 56.1464 183.948 56.6713C184.081 57.1869 184.277 57.6381 184.535 58.0249C184.793 58.4116 185.118 58.7201 185.51 58.9503C185.902 59.1713 186.366 59.2818 186.901 59.2818C187.389 59.2818 187.814 59.1713 188.177 58.9503C188.54 58.7201 188.837 58.4116 189.066 58.0249C189.305 57.6381 189.482 57.1869 189.597 56.6713C189.721 56.1464 189.783 55.5893 189.783 55C189.783 54.4107 189.721 53.8582 189.597 53.3425C189.472 52.8177 189.281 52.3619 189.023 51.9751C188.765 51.5884 188.44 51.2845 188.048 51.0635C187.656 50.8333 187.193 50.7182 186.657 50.7182C186.132 50.7182 185.682 50.8333 185.31 51.0635C184.946 51.2845 184.65 51.5884 184.421 51.9751C184.191 52.3619 184.024 52.8177 183.919 53.3425C183.814 53.8582 183.761 54.4107 183.761 55Z" fill="#4D4D4D"/>
<path d="M192.496 50.1657H196.425V50.5663C196.195 50.6492 195.966 50.7228 195.736 50.7873C195.507 50.8425 195.278 50.884 195.048 50.9116V59.116H198.346L199.192 56.8923H199.565C199.593 57.0856 199.617 57.3112 199.636 57.5691C199.665 57.8177 199.684 58.0801 199.694 58.3564C199.713 58.6234 199.722 58.8858 199.722 59.1436C199.722 59.4015 199.717 59.6317 199.708 59.8343H192.496V59.4337C192.725 59.3324 192.936 59.2587 193.127 59.2127C193.318 59.1667 193.5 59.1298 193.672 59.1022V50.9116C193.452 50.8748 193.242 50.8287 193.041 50.7735C192.84 50.709 192.659 50.64 192.496 50.5663V50.1657Z" fill="#4D4D4D"/>
<path d="M200.365 50.1657H204.293V50.5663C204.064 50.6492 203.835 50.7228 203.605 50.7873C203.376 50.8425 203.146 50.884 202.917 50.9116V59.116H206.215L207.061 56.8923H207.433C207.462 57.0856 207.486 57.3112 207.505 57.5691C207.534 57.8177 207.553 58.0801 207.562 58.3564C207.582 58.6234 207.591 58.8858 207.591 59.1436C207.591 59.4015 207.586 59.6317 207.577 59.8343H200.365V59.4337C200.594 59.3324 200.805 59.2587 200.996 59.2127C201.187 59.1667 201.369 59.1298 201.541 59.1022V50.9116C201.321 50.8748 201.111 50.8287 200.91 50.7735C200.709 50.709 200.527 50.64 200.365 50.5663V50.1657Z" fill="#4D4D4D"/>
<path d="M215.03 50.1657C215.02 50.5341 215.001 50.907 214.972 51.2845C214.953 51.6529 214.92 52.0258 214.872 52.4033H214.499L213.912 50.884H210.786V54.5442H213.123L213.682 53.5221H214.041C214.098 54.4337 214.098 55.3637 214.041 56.3122H213.682L213.123 55.2624H210.786V59.116H214.084L214.786 57.4586H215.145C215.211 57.8453 215.259 58.2366 215.288 58.6326C215.317 59.0285 215.321 59.4291 215.302 59.8343H208.234V59.4337C208.568 59.2864 208.96 59.1759 209.41 59.1022V50.9116C209.218 50.8748 209.022 50.8287 208.822 50.7735C208.621 50.709 208.425 50.64 208.234 50.5663V50.1657H215.03Z" fill="#4D4D4D"/>
<path d="M224.006 57.3204H224.378C224.426 57.5783 224.469 57.9052 224.507 58.3011C224.546 58.6878 224.555 59.0654 224.536 59.4337C224.393 59.5442 224.221 59.6363 224.02 59.7099C223.819 59.7744 223.604 59.8297 223.375 59.8757C223.155 59.9217 222.926 59.954 222.687 59.9724C222.457 59.9908 222.237 60 222.027 60C221.224 60 220.507 59.9033 219.876 59.7099C219.246 59.5074 218.71 59.2035 218.271 58.7983C217.84 58.3932 217.506 57.8775 217.267 57.2514C217.038 56.616 216.923 55.8656 216.923 55C216.923 54.0976 217.052 53.3333 217.31 52.7072C217.568 52.0718 217.917 51.5562 218.357 51.1602C218.796 50.7551 219.308 50.4604 219.891 50.2762C220.474 50.0921 221.086 50 221.726 50C222.357 50 222.887 50.0414 223.317 50.1243C223.748 50.198 224.125 50.3131 224.45 50.4696C224.45 50.6169 224.445 50.7919 224.436 50.9945C224.426 51.1878 224.412 51.395 224.393 51.616C224.374 51.837 224.35 52.0534 224.321 52.2652C224.292 52.477 224.264 52.6703 224.235 52.8453H223.862L223.117 50.8564C223.012 50.8011 222.835 50.7643 222.586 50.7459C222.347 50.7274 222.108 50.7182 221.869 50.7182C221.391 50.7182 220.937 50.8057 220.507 50.9807C220.087 51.1464 219.714 51.4088 219.389 51.768C219.073 52.1179 218.82 52.5645 218.629 53.1077C218.438 53.6418 218.342 54.2726 218.342 55C218.342 55.6538 218.428 56.2477 218.6 56.7818C218.772 57.3066 219.021 57.7578 219.346 58.1354C219.671 58.5037 220.068 58.7891 220.536 58.9917C221.004 59.1851 221.535 59.2818 222.127 59.2818C222.443 59.2818 222.706 59.2587 222.916 59.2127C223.126 59.1667 223.265 59.1068 223.332 59.0331L224.006 57.3204Z" fill="#4D4D4D"/>
<path d="M231.842 59.8343H227.813V59.4337C228.023 59.36 228.234 59.2956 228.444 59.2403C228.664 59.1851 228.898 59.139 229.146 59.1022V50.884H226.953L226.193 52.8591H225.834C225.806 52.675 225.782 52.4678 225.763 52.2376C225.744 51.9982 225.725 51.7587 225.705 51.5193C225.696 51.2707 225.686 51.0313 225.677 50.8011C225.667 50.5617 225.662 50.3499 225.662 50.1657H233.993C233.993 50.3499 233.988 50.5571 233.978 50.7873C233.969 51.0175 233.954 51.2569 233.935 51.5055C233.926 51.7449 233.911 51.9843 233.892 52.2238C233.883 52.454 233.863 52.6657 233.835 52.8591H233.462L232.716 50.884H230.523V59.1022C230.771 59.1483 231.001 59.1943 231.211 59.2403C231.431 59.2864 231.641 59.3508 231.842 59.4337V59.8343Z" fill="#4D4D4D"/>
<path d="M238.626 59.8343H234.955V59.4337C235.328 59.268 235.71 59.1575 236.102 59.1022V50.9116C235.911 50.8748 235.72 50.8287 235.529 50.7735C235.337 50.709 235.146 50.64 234.955 50.5663V50.1657H238.626V50.5663C238.454 50.64 238.267 50.709 238.066 50.7735C237.866 50.8287 237.67 50.8748 237.479 50.9116V59.1022C237.679 59.139 237.88 59.1851 238.081 59.2403C238.281 59.2956 238.463 59.36 238.626 59.4337V59.8343Z" fill="#4D4D4D"/>
<path d="M240.067 55C240.067 54.2818 240.168 53.6188 240.368 53.011C240.579 52.3941 240.875 51.8646 241.257 51.4227C241.649 50.9715 242.127 50.6215 242.691 50.3729C243.255 50.1243 243.896 50 244.612 50C245.329 50 245.97 50.1243 246.534 50.3729C247.098 50.6215 247.571 50.9715 247.953 51.4227C248.345 51.8646 248.641 52.3941 248.842 53.011C249.052 53.6188 249.157 54.2818 249.157 55C249.157 55.7182 249.052 56.3858 248.842 57.0028C248.641 57.6105 248.345 58.14 247.953 58.5912C247.571 59.0331 247.098 59.3785 246.534 59.6271C245.97 59.8757 245.329 60 244.612 60C243.896 60 243.255 59.8757 242.691 59.6271C242.127 59.3785 241.649 59.0331 241.257 58.5912C240.875 58.14 240.579 57.6105 240.368 57.0028C240.168 56.3858 240.067 55.7182 240.067 55ZM241.602 55C241.602 55.5893 241.664 56.1464 241.788 56.6713C241.922 57.1869 242.118 57.6381 242.376 58.0249C242.634 58.4116 242.959 58.7201 243.351 58.9503C243.743 59.1713 244.206 59.2818 244.741 59.2818C245.229 59.2818 245.654 59.1713 246.017 58.9503C246.381 58.7201 246.677 58.4116 246.906 58.0249C247.145 57.6381 247.322 57.1869 247.437 56.6713C247.561 56.1464 247.623 55.5893 247.623 55C247.623 54.4107 247.561 53.8582 247.437 53.3425C247.313 52.8177 247.121 52.3619 246.863 51.9751C246.605 51.5884 246.28 51.2845 245.888 51.0635C245.497 50.8333 245.033 50.7182 244.498 50.7182C243.972 50.7182 243.523 50.8333 243.15 51.0635C242.787 51.2845 242.49 51.5884 242.261 51.9751C242.032 52.3619 241.864 52.8177 241.759 53.3425C241.654 53.8582 241.602 54.4107 241.602 55Z" fill="#4D4D4D"/>
<path d="M256.903 50.1657H260V50.5663C259.599 50.8241 259.207 51.0083 258.824 51.1188V60H258.007L252.803 52.3895L252.243 51.3122H252.2L252.329 52.3895V58.9503C252.721 59.0516 253.089 59.2127 253.433 59.4337V59.8343H250.336V59.4337C250.509 59.3324 250.69 59.2449 250.881 59.1713C251.082 59.0884 251.292 59.0147 251.512 58.9503V51.0359C251.321 50.9622 251.13 50.884 250.939 50.8011C250.757 50.7182 250.585 50.6354 250.422 50.5525V50.1657H252.846L257.362 56.7265L258.021 57.9144H258.079L258.007 56.7265V51.1188C257.806 51.0359 257.61 50.9484 257.419 50.8564C257.238 50.7643 257.066 50.6676 256.903 50.5663V50.1657Z" fill="#4D4D4D"/>
<path d="M163 38.814C163 37.9612 163.231 37.2791 163.693 36.7674C164.156 36.2558 164.752 36 165.482 36C166.236 36 166.844 36.2558 167.307 36.7674C167.769 37.2791 168 37.9612 168 38.814C168 39.6382 167.769 40.3062 167.307 40.8178C166.844 41.3295 166.236 41.5853 165.482 41.5853C164.752 41.5853 164.156 41.3295 163.693 40.8178C163.231 40.3062 163 39.6382 163 38.814ZM163 55.2287C163 54.376 163.231 53.6938 163.693 53.1822C164.156 52.6705 164.752 52.4147 165.482 52.4147C166.236 52.4147 166.844 52.6705 167.307 53.1822C167.769 53.6938 168 54.376 168 55.2287C168 56.053 167.769 56.7209 167.307 57.2326C166.844 57.7442 166.236 58 165.482 58C164.752 58 164.156 57.7442 163.693 57.2326C163.231 56.7209 163 56.053 163 55.2287Z" fill="#CCCCCC"/>
</svg>
