<svg width="128" height="128" viewBox="0 0 128 128" fill="none" xmlns="http://www.w3.org/2000/svg">
<path fill-rule="evenodd" clip-rule="evenodd" d="M6.3999 19.2H23.67V100.129H22.2308L19.3525 107.355H6.3999V19.2ZM42.3795 43.0452C32.5931 43.0452 25.829 48.8258 23.6702 51.7161V67.6129C23.6702 61.471 29.7867 56.7742 36.263 56.7742C41.444 56.7742 43.4589 59.1828 43.8187 60.3871H62.8877C61.4486 53.8839 54.6125 43.0452 42.3795 43.0452ZM23.6702 100.129C25.829 103.019 32.5931 108.8 42.3795 108.8C54.6125 108.8 61.4486 99.4064 64.6867 83.1484H47.4166C47.4059 83.1843 47.3929 83.2286 47.3776 83.2809C46.8804 84.9821 43.9318 95.071 35.9032 95.071C30.1465 95.071 23.6702 90.3742 23.6702 84.2322V100.129Z" fill="#5A2A7A"/>
<path fill-rule="evenodd" clip-rule="evenodd" d="M89.8724 35.8196H97.0683L98.3756 45.6656C102.173 46.3756 105.688 47.8953 108.735 50.0394L116.512 44.0671L121.6 49.1765L115.593 57.0653C116.445 58.34 117.191 59.6925 117.818 61.1098H92.7957C86.8097 61.1098 81.957 65.9625 81.957 71.9486C81.957 77.9346 86.8097 82.7873 92.7958 82.7873H117.818C117.159 84.2767 116.369 85.6945 115.462 87.0257L121.6 95.0863L116.512 100.196L108.485 94.0315C105.496 96.0839 102.07 97.5406 98.376 98.2314L97.0686 108.078H89.8728L88.5653 98.231C84.9505 97.5549 81.5925 96.1453 78.6503 94.1619L70.7926 100.196L65.7044 95.0863L71.6531 87.2748C69.5182 84.2159 68.005 80.6874 67.2978 76.8743L57.4922 75.5615V68.3357L67.2978 67.0228C67.9903 63.2891 69.4555 59.8283 71.5206 56.814L65.7044 49.1765L70.7926 44.0671L78.3981 49.9073C81.4 47.8333 84.8466 46.3617 88.565 45.6661L89.8724 35.8196Z" fill="#4D4D4D"/>
</svg>
