<svg width="128" height="128" viewBox="0 0 128 128" fill="none" xmlns="http://www.w3.org/2000/svg">
<path d="M63.9243 29.6821H64.4709C71.4688 29.6821 78.18 32.4746 83.1282 37.4453C88.0764 42.4159 90.8562 49.1575 90.8562 56.1871V82.9666H37.5142V56.2121C37.5109 52.7272 38.1918 49.2759 39.5179 46.0556C40.8439 42.8354 42.7892 39.9094 45.2422 37.4453C47.6953 34.9811 50.608 33.027 53.8137 31.6949C57.0194 30.3628 60.4552 29.6789 63.9243 29.6821Z" fill="#FFB831"/>
<path d="M41.2916 98.1396H86.7579V98.6638C86.7742 100.386 86.4511 102.095 85.807 103.691C85.1629 105.288 84.2106 106.74 83.005 107.965C81.7994 109.19 80.3643 110.164 78.7826 110.829C77.2008 111.494 75.5036 111.838 73.7888 111.841H54.1861C52.4776 111.828 50.7884 111.477 49.2153 110.807C47.6421 110.138 46.2159 109.163 45.0182 107.939C43.8205 106.715 42.8749 105.266 42.2354 103.674C41.596 102.083 41.2752 100.38 41.2916 98.6638V98.1396Z" fill="#FFB831"/>
<path d="M105.888 121.6C103.186 121.587 100.533 120.873 98.1861 119.528C95.6373 118.055 93.4742 115.993 91.8754 113.514C90.6311 111.6 89.6295 109.537 88.8941 107.374C86.0067 110.652 82.4623 113.281 78.4933 115.087C74.5243 116.894 70.2201 117.837 65.8628 117.856H61.8379C57.4809 117.85 53.1749 116.914 49.2046 115.112C45.2343 113.309 41.6902 110.68 38.8067 107.399C38.583 108.023 38.3346 108.622 38.0861 109.221C37.8377 109.82 37.8377 109.795 37.6886 110.094C36.0339 114.018 33.1914 117.319 29.5643 119.528C27.2263 120.873 24.5814 121.587 21.8873 121.6C19.3373 121.54 16.8311 120.922 14.5438 119.788C12.2565 118.655 10.2433 117.033 8.6449 115.036C5.02278 110.488 3.09798 104.811 3.20385 98.9883C3.45044 91.3504 5.81688 83.9336 10.0362 77.5747C15.6931 69.0031 22.8278 61.5148 31.1047 55.4623V55.2377C31.1556 48.6964 33.257 42.3375 37.1104 37.0642C40.9639 31.791 46.3735 27.8715 52.5708 25.8626C52.4702 25.3824 52.3204 24.914 52.1235 24.465C51.7488 23.7796 51.153 23.2427 50.4341 22.9426C50.285 22.9426 50.1608 23.2171 50.0366 23.3419C48.8795 24.7967 47.3085 25.8626 45.533 26.3977C43.7575 26.9328 41.8618 26.9115 40.0986 26.3368C38.7279 25.9481 37.4504 25.2828 36.344 24.3818C35.2377 23.4806 34.3257 22.3626 33.6638 21.0957C33.0653 19.8927 32.7151 18.5806 32.6339 17.2382C32.5528 15.8959 32.7425 14.5509 33.1917 13.284C34.2719 10.6552 36.3127 8.54149 38.8954 7.37658C41.478 6.21167 44.4066 6.08395 47.08 7.01962C48.7389 7.53482 50.2037 8.5426 51.2813 9.91027C52.359 11.2779 52.9991 12.9414 53.1173 14.6816C53.5397 14.8313 54.0863 15.0061 54.7571 15.2806L55.7757 15.7548C58.1957 17.1961 60.0868 19.3847 61.1671 21.9942C61.4487 22.7928 61.6971 23.6247 61.9125 24.4899H66.8814C67.4533 22.9848 68.1688 21.5388 69.0181 20.1723C70.5735 17.8777 72.807 16.1317 75.4033 15.1808C75.794 15.0619 76.1925 14.9701 76.5958 14.9062C77.1687 14.7805 77.75 14.6971 78.335 14.6566C78.8001 12.9773 79.7617 11.4794 81.0925 10.3608C82.4234 9.2423 84.0609 8.55586 85.7884 8.39229C88.6157 7.99773 91.4854 8.71434 93.7996 10.3928C96.1139 12.0712 97.6941 14.5821 98.2109 17.402C98.3827 18.7251 98.2888 20.0694 97.9346 21.3554C97.5804 22.6414 96.9732 23.843 96.1488 24.8893C95.2267 25.9955 94.0907 26.9021 92.8095 27.5542C91.5283 28.2063 90.1286 28.5902 88.6953 28.6828C86.8306 28.9083 84.942 28.5499 83.2877 27.6564C81.6334 26.763 80.2942 25.3782 79.453 23.6913L79.1548 23.2171C78.3853 23.3527 77.6893 23.7598 77.1921 24.3651C76.7688 24.9313 76.4415 25.5638 76.2231 26.237C82.1665 28.3785 87.3098 32.3056 90.9545 37.485C94.5993 42.6643 96.5689 48.845 96.596 55.1878C104.978 61.2852 112.212 68.8318 117.963 77.4749C122.206 83.794 124.576 91.1941 124.795 98.8136C124.909 104.689 122.956 110.416 119.279 114.986C117.663 117.003 115.626 118.641 113.313 119.783C111 120.926 108.465 121.546 105.888 121.6ZM41.2911 99.1381C43.2291 105.078 53.7136 111.866 61.1671 111.866H66.7572C74.2107 111.866 83.8008 104.778 86.6332 99.1381H41.2911ZM37.8129 82.4165H89.9872V71.6099H37.8129V82.4165ZM37.8129 68.3155H90.509L90.3599 54.1645C90.0932 47.8968 87.4221 41.976 82.9064 37.6426C78.4329 33.18 72.4379 30.5926 66.1361 30.4049H61.7882C55.4493 30.6345 49.4315 33.2647 44.9434 37.7674C40.5061 42.1912 37.9348 48.1614 37.7632 54.439L37.8129 68.3155ZM82.2604 18.575C82.9627 19.2065 83.5584 19.9482 84.0244 20.7713C85.0679 22.4185 85.7387 23.4916 88.2729 23.267C88.9704 23.2284 89.6531 23.0494 90.2805 22.7407C90.9079 22.432 91.4671 21.9999 91.9251 21.4701C92.3095 20.9826 92.5896 20.4206 92.7478 19.8194C92.9059 19.2182 92.9388 18.5906 92.8444 17.976C92.522 16.5459 91.6626 15.296 90.4452 14.4869C89.2278 13.6779 87.7465 13.3721 86.3102 13.6334C85.6199 13.6791 84.9624 13.9463 84.4346 14.3956C83.9068 14.8449 83.5366 15.4526 83.3785 16.1291C83.1717 17.0355 82.7735 17.8866 82.2108 18.6249L82.2604 18.575ZM39.229 13.3838C38.7664 13.8359 38.4172 14.3919 38.2104 15.0061C37.9945 15.5907 37.9007 16.2137 37.9349 16.8363C37.9691 17.4588 38.1305 18.0677 38.4091 18.6249C38.7359 19.2412 39.1878 19.7818 39.7356 20.2117C40.2834 20.6416 40.9149 20.9513 41.5893 21.1207C44.0738 21.8444 44.9185 20.946 46.2601 19.5483C46.8878 18.8349 47.6261 18.2281 48.4465 17.7514V17.5517C47.3494 18.178 46.0992 18.482 44.8385 18.4291C43.5777 18.3761 42.3572 17.9683 41.316 17.2522C40.7019 16.8131 40.1919 16.2431 39.8226 15.583C39.4532 14.9229 39.2336 14.189 39.1793 13.4337L39.229 13.3838ZM44.6949 13.1093H45.0427C44.9087 13.0748 44.7667 13.0926 44.6452 13.1592L44.6949 13.1093Z" fill="white"/>
<path d="M115.826 78.9236C109.996 70.1566 102.61 62.5425 94.0366 56.4618V55.1889C94.009 48.9582 91.9334 42.9111 88.1325 37.9872C84.3316 33.0634 79.0182 29.5385 73.0178 27.9602C73.368 26.0617 74.113 24.2588 75.2041 22.6692C76.221 21.4221 77.6837 20.6247 79.2787 20.448C82.2104 19.4497 81.5644 26.5626 88.5707 25.9636C89.5932 25.9347 90.5982 25.6896 91.5201 25.2444C92.442 24.7992 93.2601 24.1638 93.9212 23.3797C94.5822 22.5955 95.0714 21.6802 95.3567 20.6934C95.642 19.7067 95.717 18.6706 95.577 17.6527C95.1599 15.5297 93.942 13.6508 92.1778 12.4089C90.4137 11.167 88.24 10.6583 86.1111 10.989C84.8913 11.0864 83.7324 11.5647 82.7968 12.3569C81.8612 13.149 81.1957 14.2154 80.8936 15.4065C80.198 17.7525 80.1234 16.879 77.1172 17.4281L76.0986 17.6777C74.1877 18.4588 72.5344 19.7649 71.3283 21.4463C70.2349 23.2324 69.3984 25.165 68.8438 27.1865H68.5208C67.7258 27.1865 66.9059 27.1865 66.0364 27.1865H62.0115C61.291 27.1865 60.5705 27.1865 59.8748 27.1865C59.6358 25.7238 59.2615 24.2867 58.7568 22.8938C57.9244 20.9974 56.5714 19.3785 54.8561 18.2267C54.5331 18.077 54.235 17.9023 53.912 17.7775C51.0797 16.5795 50.8313 17.4531 50.6325 15.0072C50.5902 13.7628 50.1597 12.5632 49.4018 11.5779C48.6439 10.5927 47.5969 9.87157 46.4089 9.51654C44.3892 8.75291 42.1536 8.80459 40.1711 9.66076C38.1886 10.5169 36.6131 12.1111 35.7752 14.1087C35.4292 15.0736 35.2898 16.101 35.3662 17.1237C35.4426 18.1464 35.733 19.1414 36.2184 20.0436C36.7038 20.9458 37.3734 21.735 38.1832 22.3594C38.9931 22.9839 39.925 23.4296 40.9181 23.6675C47.6759 25.714 48.4958 18.676 51.1542 20.1734C52.672 20.7023 53.9331 21.7907 54.6822 23.2183C55.3075 24.652 55.6453 26.1955 55.676 27.7605C49.5209 29.2288 44.0368 32.7352 40.1068 37.7152C36.1769 42.6952 34.0298 48.8589 34.0112 55.2139V56.936C25.5539 62.9454 18.2691 70.4663 12.5204 79.1232C8.55874 85.0431 6.32938 91.9604 6.08553 99.0893C5.99261 104.299 7.75476 109.37 11.0545 113.39C12.3943 115.092 14.0903 116.477 16.0224 117.448C17.9545 118.418 20.0753 118.95 22.2347 119.005C24.4602 118.998 26.6447 118.404 28.5702 117.283C31.7419 115.348 34.2144 112.445 35.6262 108.997C35.7569 108.764 35.8731 108.522 35.974 108.274C36.915 106.038 37.5985 103.702 38.0113 101.311C40.6366 105.761 44.4261 109.404 48.9679 111.843C52.9859 113.98 57.4648 115.094 62.0115 115.087H66.1357C70.6409 115.078 75.0757 113.964 79.0551 111.843C83.6905 109.383 87.5531 105.675 90.2105 101.136C90.4092 102.259 90.6577 103.332 90.931 104.33C91.6497 106.988 92.7816 109.515 94.2851 111.818C95.6458 113.947 97.4944 115.719 99.6764 116.984C101.62 118.106 103.82 118.699 106.062 118.706C108.242 118.654 110.384 118.122 112.337 117.147C114.291 116.172 116.007 114.779 117.366 113.066C120.678 109.004 122.44 103.889 122.335 98.6401C122.039 91.5866 119.784 84.757 115.826 78.9236ZM41.9865 13.0605C41.9937 12.6815 42.0806 12.3082 42.2412 11.9651C42.4019 11.6221 42.6328 11.3169 42.9189 11.0696C43.2049 10.8223 43.5397 10.6384 43.9013 10.5299C44.263 10.4214 44.6433 10.3908 45.0175 10.44C45.828 10.44 46.6053 10.7634 47.1784 11.3391C47.7515 11.9148 48.0735 12.6956 48.0735 13.5098C48.0735 16.6045 41.9865 16.7542 41.9865 13.0605ZM89.7633 82.0682H38.2846V71.9105H89.7633V82.0682ZM39.825 95.4455C38.8042 92.7514 38.2822 89.8925 38.2846 87.0098V86.4109H89.7633V87.0098C89.7577 89.8941 89.2273 92.753 88.198 95.4455H39.825ZM45.2411 38.4174C47.4421 36.2026 50.0562 34.4455 52.9338 33.2464C55.8114 32.0473 58.8961 31.4298 62.0115 31.4293H66.1357C72.4162 31.4555 78.4323 33.9717 82.8756 38.4304C87.3189 42.8892 89.83 48.93 89.8627 55.2388V67.7176H38.2846V55.2388C38.2856 52.1131 38.9007 49.0184 40.0944 46.1319C41.2881 43.2453 43.0371 40.6238 45.2411 38.4174ZM30.1851 109.621C29.2352 111.171 27.9323 112.471 26.3838 113.415C25.1147 114.175 23.6627 114.572 22.185 114.563C20.6524 114.505 19.1509 114.111 17.7861 113.408C16.4212 112.705 15.226 111.711 14.2843 110.495C11.6908 107.238 10.3425 103.157 10.4831 98.9895C10.7138 92.661 12.7205 86.5268 16.2719 81.2945C21.1071 73.9902 27.1287 67.5532 34.0858 62.2519V87.0098C34.0967 88.5229 34.2213 90.033 34.4584 91.5272C34.3094 100.162 32.5454 106.052 30.1851 109.621ZM82.757 103.831C80.5693 106.05 77.9647 107.81 75.0944 109.01C72.2241 110.21 69.1452 110.825 66.0364 110.819H62.0115C58.8953 110.824 55.809 110.209 52.9306 109.01C50.0523 107.811 47.4389 106.05 45.2411 103.831C44.0167 102.61 42.9332 101.253 42.0113 99.7881H86.0117C85.0811 101.254 83.9894 102.61 82.757 103.831ZM114.086 110.47C113.124 111.695 111.907 112.696 110.522 113.402C109.136 114.109 107.614 114.505 106.062 114.563C104.569 114.569 103.102 114.172 101.813 113.415C99.2268 111.792 97.2514 109.351 96.1981 106.477C94.3871 101.701 93.5424 96.61 93.7136 91.5022C93.9631 89.9843 94.0877 88.4484 94.0863 86.91V61.9275C101.188 67.2591 107.315 73.7863 112.198 81.2197C115.727 86.3794 117.733 92.4352 117.987 98.69C118.137 102.96 116.752 107.141 114.086 110.47Z" fill="#353A3B"/>
<path d="M90.9806 16.4036C91.3492 16.3166 91.7318 16.3083 92.1038 16.3791C92.4758 16.4499 92.8289 16.5983 93.1402 16.8146C93.4516 17.031 93.7144 17.3106 93.9116 17.6352C94.1087 17.9599 94.2359 18.3225 94.2849 18.6997C94.6576 22.3684 88.5955 22.8676 88.2725 19.7978C88.2276 19.3962 88.2621 18.9896 88.3741 18.6014C88.486 18.2132 88.6732 17.8511 88.9248 17.5357C89.1764 17.2204 89.4875 16.958 89.8403 16.7637C90.1931 16.5695 90.5806 16.4471 90.9806 16.4036Z" fill="#FFF6E5"/>
<path fill-rule="evenodd" clip-rule="evenodd" d="M64.0748 56.237C68.3232 56.237 69.8885 54.7396 71.7518 56.3868C73.6152 58.034 70.0872 63.5247 64.0251 63.5247C57.9629 63.5247 54.584 58.1089 56.3231 56.3868C58.0623 54.6647 59.8263 56.237 64.0748 56.237Z" fill="#2F3234"/>
<path fill-rule="evenodd" clip-rule="evenodd" d="M68.1235 61.6524C66.8792 62.4206 65.4473 62.8272 63.9868 62.8272C62.5263 62.8272 61.0944 62.4206 59.8501 61.6524C59.8501 60.3546 62.3346 59.6558 63.9743 60.5043C65.788 59.6558 68.0738 60.3796 68.1235 61.7023" fill="#A04339"/>
<path fill-rule="evenodd" clip-rule="evenodd" d="M64.0737 56.7103C66.8563 56.7103 68.3967 56.1113 69.6638 56.1113C69.6773 56.5639 69.5128 57.0037 69.2059 57.3353C68.899 57.667 68.4744 57.8638 68.024 57.8833C67.7427 57.8895 67.4659 57.8113 67.229 57.6587C67.0702 57.9559 66.8334 58.2037 66.5444 58.3753C66.2553 58.5469 65.925 58.6357 65.5892 58.632C65.2949 58.6304 65.0054 58.5569 64.7457 58.4177C64.486 58.2786 64.2638 58.078 64.0985 57.8334C63.9264 58.077 63.6994 58.2763 63.436 58.4151C63.1727 58.5539 62.8804 58.6282 62.583 58.632C62.2415 58.6339 61.9064 58.5388 61.6163 58.3578C61.3262 58.1767 61.0929 57.9171 60.9432 57.6088C60.6883 57.7878 60.3847 57.8836 60.0737 57.8833C59.8517 57.8737 59.6339 57.8202 59.4325 57.7259C59.2312 57.6316 59.0504 57.4984 58.9004 57.3338C58.7504 57.1692 58.6341 56.9765 58.5584 56.7667C58.4826 56.557 58.4487 56.3342 58.4587 56.1113C60.319 56.407 62.1931 56.6069 64.0737 56.7103Z" fill="white"/>
<path fill-rule="evenodd" clip-rule="evenodd" d="M78.8809 49.0743C79.7675 49.0694 80.6356 49.3293 81.3748 49.821C82.114 50.3127 82.691 51.0141 83.0326 51.8359C83.3742 52.6578 83.4648 53.5631 83.293 54.4369C83.1213 55.3107 82.6949 56.1134 82.0679 56.7432C81.441 57.3729 80.6419 57.8013 79.7721 57.9738C78.9023 58.1464 78.001 58.0553 77.1829 57.7122C76.3647 57.3691 75.6665 56.7894 75.177 56.0469C74.6875 55.3043 74.4288 54.4323 74.4337 53.5417C74.4337 52.3569 74.9022 51.2206 75.7362 50.3828C76.5703 49.545 77.7014 49.0743 78.8809 49.0743Z" fill="#2F3234"/>
<path fill-rule="evenodd" clip-rule="evenodd" d="M81.0425 50.4961C81.37 50.5025 81.6823 50.636 81.9139 50.8687C82.1455 51.1013 82.2784 51.415 82.2848 51.744C82.2848 52.0749 82.1539 52.3923 81.9209 52.6264C81.688 52.8604 81.372 52.9919 81.0425 52.9919C80.7131 52.9919 80.3971 52.8604 80.1641 52.6264C79.9312 52.3923 79.8003 52.0749 79.8003 51.744C79.8003 51.413 79.9312 51.0956 80.1641 50.8616C80.3971 50.6276 80.7131 50.4961 81.0425 50.4961Z" fill="#F2F8FA"/>
<path fill-rule="evenodd" clip-rule="evenodd" d="M49.2164 49.0743C50.103 49.0694 50.971 49.3293 51.7102 49.821C52.4494 50.3127 53.0265 51.0141 53.368 51.8359C53.7096 52.6578 53.8003 53.5631 53.6285 54.4369C53.4567 55.3107 53.0303 56.1134 52.4034 56.7432C51.7764 57.3729 50.9773 57.8013 50.1075 57.9738C49.2377 58.1464 48.3365 58.0553 47.5183 57.7122C46.7001 57.3691 46.0019 56.7894 45.5124 56.0469C45.0229 55.3043 44.7642 54.4323 44.7691 53.5417C44.7756 52.3589 45.2463 51.2264 46.0789 50.39C46.9115 49.5536 48.0389 49.0808 49.2164 49.0743Z" fill="#2F3234"/>
<path fill-rule="evenodd" clip-rule="evenodd" d="M51.2286 50.4961C51.556 50.5025 51.8683 50.636 52.0999 50.8687C52.3315 51.1013 52.4645 51.415 52.4708 51.744C52.4708 52.0749 52.3399 52.3923 52.107 52.6264C51.874 52.8604 51.558 52.9919 51.2286 52.9919C50.8991 52.9919 50.5831 52.8604 50.3502 52.6264C50.1172 52.3923 49.9863 52.0749 49.9863 51.744C49.9863 51.413 50.1172 51.0956 50.3502 50.8616C50.5831 50.6276 50.8991 50.4961 51.2286 50.4961Z" fill="#F2F8FA"/>
<path fill-rule="evenodd" clip-rule="evenodd" d="M83.0306 45.2801C83.2863 45.2676 83.5384 45.3457 83.7427 45.5008C83.947 45.6559 84.0907 45.8781 84.1486 46.1287C84.1911 46.2364 84.2105 46.3519 84.2055 46.4677C84.2005 46.5835 84.1713 46.6969 84.1197 46.8005C84.0681 46.9042 83.9954 46.9957 83.9061 47.0692C83.8169 47.1426 83.7133 47.1963 83.602 47.2268C83.3504 47.2334 83.1042 47.1526 82.905 46.998C82.7059 46.8434 82.5659 46.6245 82.5088 46.3782C82.3597 45.8292 82.5088 45.355 83.0306 45.2801ZM64.8938 38.6664C60.8689 39.4151 59.6763 35.4967 64.8938 34.3487C71.2789 32.9012 80.2479 37.2188 82.8815 42.984C83.5771 44.5314 82.4343 45.0805 81.2417 43.5331C77.8877 39.2404 71.7758 37.3686 64.9931 38.6664" fill="#FFF6E5"/>
<path fill-rule="evenodd" clip-rule="evenodd" d="M102.931 79.5219C101.44 80.8197 104.496 84.5135 106.211 90.4534C107.925 96.3933 110.459 98.4647 111.95 97.1919C113.44 95.9191 113.142 92.0756 110.707 87.6082C108.273 83.1408 104.422 78.2491 102.931 79.5219Z" fill="#D6DEE6"/>
<path fill-rule="evenodd" clip-rule="evenodd" d="M18.359 99.3632C18.8686 99.5412 19.3067 99.881 19.607 100.331C19.9073 100.782 20.0536 101.318 20.0236 101.859C20.0298 102.12 19.9794 102.378 19.8759 102.617C19.7725 102.857 19.6186 103.07 19.4247 103.244C19.2309 103.417 19.0018 103.546 18.7535 103.621C18.5051 103.697 18.2433 103.717 17.9863 103.681C17.4767 103.503 17.0387 103.163 16.7383 102.713C16.438 102.262 16.2918 101.726 16.3217 101.185C16.3112 100.923 16.3586 100.662 16.4606 100.421C16.5625 100.18 16.7165 99.9643 16.9114 99.79C17.1062 99.6158 17.3371 99.4871 17.5874 99.4133C17.8378 99.3395 18.1013 99.3223 18.359 99.3632ZM25.8125 79.0477C27.6758 79.2973 22.682 81.8679 20.3714 92.425C19.5267 96.1936 19.6509 98.0903 17.887 98.1902C17.1416 98.1902 15.2534 97.7908 16.4956 92.5497C17.7379 87.3087 23.7255 78.7482 25.7876 79.0477" fill="#D6DEE6"/>
<path d="M45.0179 10.4393C44.6437 10.3901 44.2633 10.4207 43.9017 10.5292C43.5401 10.6377 43.2053 10.8216 42.9192 11.069C42.6332 11.3163 42.4023 11.6214 42.2416 11.9645C42.0809 12.3076 41.9941 12.6808 41.9868 13.0599C41.9868 16.7536 48.0738 16.6038 48.0738 13.5091C48.0738 12.6949 47.7519 11.9141 47.1788 11.3384C46.6057 10.7627 45.8284 10.4393 45.0179 10.4393Z" fill="#FFF6E5"/>
</svg>
