<svg width="260" height="80" viewBox="0 0 260 80" fill="none" xmlns="http://www.w3.org/2000/svg">
<path d="M32.9595 21.5298H33.2561C37.0543 21.5298 40.6969 23.0327 43.3826 25.7079C46.0683 28.383 47.5771 32.0113 47.5771 35.7946V50.2072H18.625V35.808C18.6232 33.9325 18.9928 32.075 19.7125 30.3419C20.4323 28.6088 21.4881 27.0341 22.8195 25.7079C24.1509 24.3816 25.7319 23.33 27.4718 22.6131C29.2117 21.8961 31.0765 21.528 32.9595 21.5298Z" fill="#FFB831"/>
<path d="M20.6746 58.3738H45.352V58.6559C45.3609 59.5829 45.1855 60.5025 44.8359 61.3617C44.4863 62.2209 43.9695 63.0027 43.3151 63.662C42.6608 64.3212 41.8819 64.845 41.0233 65.203C40.1648 65.561 39.2436 65.7462 38.3129 65.748H27.6733C26.746 65.7409 25.8292 65.5518 24.9753 65.1914C24.1215 64.8311 23.3474 64.3065 22.6973 63.6477C22.0472 62.989 21.534 62.209 21.1869 61.3524C20.8398 60.4959 20.6657 59.5795 20.6746 58.6559V58.3738Z" fill="#FFB831"/>
<path d="M55.7354 71C54.2689 70.9928 52.829 70.6088 51.5551 69.8851C50.1717 69.092 48.9977 67.9824 48.1299 66.648C47.4545 65.618 46.9109 64.508 46.5117 63.3437C44.9446 65.1081 43.0208 66.5227 40.8666 67.4949C38.7124 68.4671 36.3762 68.9749 34.0112 68.9852H31.8267C29.4618 68.9817 27.1247 68.4782 24.9698 67.508C22.8148 66.5378 20.8912 65.123 19.3261 63.3572C19.2048 63.693 19.0699 64.0153 18.9351 64.3377C18.8002 64.6601 18.8002 64.6466 18.7193 64.8078C17.8212 66.9195 16.2784 68.6959 14.3097 69.8851C13.0407 70.6089 11.6052 70.993 10.1429 71C8.75891 70.9679 7.39864 70.6352 6.15717 70.025C4.91571 69.4148 3.82301 68.542 2.95545 67.4674C0.989498 65.0199 -0.0552127 61.9645 0.00225013 58.8306C0.136087 54.7199 1.4205 50.7282 3.7106 47.3059C6.78093 42.6927 10.6534 38.6626 15.1458 35.4051V35.2842C15.1734 31.7637 16.314 28.3414 18.4055 25.5034C20.497 22.6653 23.4331 20.5559 26.7968 19.4747C26.7422 19.2163 26.6609 18.9642 26.5541 18.7225C26.3506 18.3536 26.0273 18.0647 25.6371 17.9032C25.5562 17.9032 25.4887 18.0509 25.4213 18.1181C24.7933 18.901 23.9406 19.4747 22.9769 19.7627C22.0133 20.0507 20.9843 20.0392 20.0273 19.7299C19.2834 19.5207 18.59 19.1627 17.9895 18.6777C17.389 18.1928 16.894 17.591 16.5348 16.9092C16.21 16.2617 16.0198 15.5556 15.9758 14.8331C15.9318 14.1107 16.0348 13.3868 16.2785 12.705C16.8648 11.2902 17.9725 10.1526 19.3743 9.52564C20.7761 8.89869 22.3656 8.82995 23.8166 9.33353C24.717 9.61081 25.512 10.1532 26.0969 10.8893C26.6819 11.6253 27.0293 12.5206 27.0935 13.4572C27.3227 13.5378 27.6194 13.6318 27.9835 13.7795L28.5363 14.0347C29.8498 14.8105 30.8762 15.9884 31.4626 17.3928C31.6154 17.8226 31.7502 18.2703 31.8671 18.736H34.5641C34.8745 17.9259 35.2628 17.1477 35.7238 16.4122C36.568 15.1773 37.7803 14.2376 39.1894 13.7258C39.4015 13.6618 39.6178 13.6124 39.8367 13.5781C40.1476 13.5104 40.4631 13.4655 40.7806 13.4437C41.0331 12.5399 41.555 11.7337 42.2773 11.1318C42.9997 10.5298 43.8885 10.1603 44.8261 10.0723C46.3606 9.85994 47.9182 10.2456 49.1743 11.149C50.4304 12.0523 51.2881 13.4036 51.5686 14.9213C51.6618 15.6333 51.6108 16.3568 51.4186 17.049C51.2264 17.7411 50.8968 18.3878 50.4493 18.9509C49.9489 19.5462 49.3323 20.0342 48.6369 20.3851C47.9415 20.7361 47.1818 20.9427 46.4039 20.9925C45.3917 21.1139 44.3667 20.921 43.4688 20.4402C42.5709 19.9593 41.844 19.214 41.3875 18.3061L41.2256 18.0509C40.808 18.1239 40.4302 18.343 40.1603 18.6688C39.9306 18.9735 39.7529 19.3139 39.6344 19.6762C42.8603 20.8288 45.6518 22.9423 47.6301 25.7298C49.6083 28.5173 50.6774 31.8437 50.6921 35.2574C55.2412 38.539 59.1681 42.6005 62.2891 47.2522C64.5925 50.6531 65.8785 54.6358 65.9974 58.7366C66.0593 61.8984 64.9992 64.9807 63.0038 67.4405C62.1264 68.5261 61.0211 69.4074 59.7655 70.0223C58.5098 70.6372 57.1343 70.9709 55.7354 71ZM20.6746 58.9112C21.7265 62.108 27.4171 65.7615 31.4626 65.7615H34.4967C38.5421 65.7615 43.7473 61.9468 45.2846 58.9112H20.6746ZM18.7867 49.9117H47.1051V44.0956H18.7867V49.9117ZM18.7867 42.3226H47.3882L47.3073 34.7066C47.1626 31.3334 45.7128 28.1469 43.2619 25.8146C40.8338 23.4129 37.5799 22.0204 34.1595 21.9193H31.7997C28.3591 22.0429 25.0929 23.4585 22.6569 25.8818C20.2485 28.2627 18.8529 31.4758 18.7598 34.8544L18.7867 42.3226ZM42.9113 15.5526C43.2924 15.8924 43.6158 16.2916 43.8687 16.7346C44.435 17.6211 44.7991 18.1987 46.1746 18.0778C46.5532 18.057 46.9237 17.9607 47.2642 17.7945C47.6048 17.6284 47.9083 17.3959 48.1569 17.1107C48.3655 16.8483 48.5175 16.5459 48.6034 16.2223C48.6892 15.8987 48.7071 15.561 48.6558 15.2302C48.4809 14.4605 48.0144 13.7878 47.3536 13.3524C46.6929 12.917 45.8889 12.7524 45.1093 12.893C44.7346 12.9176 44.3778 13.0614 44.0913 13.3033C43.8049 13.5451 43.6039 13.8721 43.5181 14.2362C43.4059 14.724 43.1897 15.1821 42.8843 15.5794L42.9113 15.5526ZM19.5554 12.7587C19.3043 13.002 19.1148 13.3012 19.0025 13.6318C18.8853 13.9464 18.8344 14.2817 18.853 14.6168C18.8715 14.9519 18.9591 15.2795 19.1104 15.5794C19.2878 15.9111 19.533 16.2021 19.8304 16.4334C20.1277 16.6648 20.4704 16.8315 20.8365 16.9226C22.1849 17.3122 22.6434 16.8286 23.3716 16.0764C23.7123 15.6925 24.113 15.3659 24.5583 15.1093V15.0018C23.9628 15.3389 23.2843 15.5025 22.6 15.474C21.9157 15.4455 21.2532 15.2261 20.6881 14.8407C20.3548 14.6043 20.078 14.2976 19.8775 13.9423C19.6771 13.587 19.5578 13.192 19.5284 12.7856L19.5554 12.7587ZM22.5221 12.6109H22.7109C22.6381 12.5924 22.561 12.602 22.4951 12.6378L22.5221 12.6109Z" fill="white"/>
<path d="M61.1292 48.0312C57.9653 43.3129 53.9564 39.215 49.303 35.9424V35.2574C49.288 31.904 48.1614 28.6495 46.0984 25.9995C44.0354 23.3495 41.1515 21.4524 37.8947 20.603C38.0848 19.5813 38.4892 18.6109 39.0814 17.7554C39.6333 17.0843 40.4272 16.6551 41.2929 16.56C42.8841 16.0227 42.5335 19.8508 46.3363 19.5285C46.8913 19.5129 47.4367 19.381 47.9371 19.1414C48.4375 18.9018 48.8815 18.5598 49.2403 18.1378C49.5991 17.7158 49.8646 17.2232 50.0194 16.6921C50.1743 16.161 50.215 15.6034 50.139 15.0556C49.9127 13.913 49.2516 12.9018 48.2941 12.2334C47.3366 11.565 46.1568 11.2912 45.0013 11.4692C44.3392 11.5216 43.7102 11.7791 43.2024 12.2054C42.6946 12.6317 42.3334 13.2056 42.1694 13.8467C41.7919 15.1093 41.7514 14.6392 40.1197 14.9347L39.5668 15.069C38.5297 15.4894 37.6324 16.1924 36.9777 17.0973C36.3843 18.0586 35.9303 19.0987 35.6292 20.1866H35.4539C35.0224 20.1866 34.5774 20.1866 34.1055 20.1866H31.9209C31.5298 20.1866 31.1388 20.1866 30.7612 20.1866C30.6315 19.3994 30.4283 18.626 30.1544 17.8763C29.7026 16.8557 28.9682 15.9844 28.0372 15.3645C27.8619 15.2839 27.7001 15.1899 27.5248 15.1228C25.9875 14.478 25.8527 14.9481 25.7448 13.6318C25.7219 12.9621 25.4882 12.3164 25.0768 11.7862C24.6655 11.2559 24.0972 10.8678 23.4524 10.6767C22.3562 10.2658 21.1428 10.2936 20.0668 10.7544C18.9907 11.2152 18.1356 12.0731 17.6808 13.1482C17.493 13.6675 17.4174 14.2205 17.4588 14.7709C17.5003 15.3213 17.6579 15.8568 17.9214 16.3424C18.1848 16.8279 18.5482 17.2526 18.9878 17.5887C19.4274 17.9248 19.9332 18.1647 20.4722 18.2927C24.1401 19.3941 24.5851 15.6063 26.028 16.4122C26.8518 16.6969 27.5362 17.2826 27.9428 18.0509C28.2822 18.8226 28.4655 19.6533 28.4822 20.4956C25.1415 21.2858 22.1649 23.1729 20.0319 25.8531C17.8988 28.5333 16.7334 31.8506 16.7234 35.2708V36.1976C12.1331 39.4319 8.17912 43.4796 5.05894 48.1387C2.90872 51.3247 1.6987 55.0476 1.56635 58.8843C1.51592 61.688 2.47235 64.4174 4.26333 66.5809C4.99053 67.4969 5.91106 68.2425 6.95971 68.7648C8.00837 69.287 9.1595 69.5732 10.3315 69.6031C11.5394 69.5991 12.7251 69.2795 13.7702 68.6763C15.4917 67.6348 16.8337 66.0722 17.5999 64.2168C17.6709 64.091 17.7339 63.9609 17.7887 63.8273C18.2995 62.6242 18.6705 61.3668 18.8945 60.0798C20.3194 62.4751 22.3762 64.4355 24.8413 65.7481C27.0221 66.8985 29.4531 67.4981 31.9209 67.4943H34.1594C36.6046 67.4893 39.0117 66.8899 41.1715 65.7481C43.6875 64.4242 45.784 62.4289 47.2263 59.9857C47.3342 60.5902 47.469 61.1678 47.6173 61.7051C48.0074 63.1353 48.6218 64.4953 49.4378 65.7347C50.1764 66.8809 51.1797 67.8343 52.364 68.5151C53.4188 69.1188 54.6132 69.4382 55.8297 69.4419C57.013 69.4138 58.1758 69.1274 59.236 68.6029C60.2961 68.0783 61.2278 67.3285 61.9653 66.4063C63.7631 64.2204 64.7193 61.4677 64.6623 58.6425C64.5015 54.8464 63.2777 51.1707 61.1292 48.0312ZM21.0521 12.5841C21.056 12.3801 21.1031 12.1792 21.1903 11.9946C21.2775 11.8099 21.4029 11.6457 21.5581 11.5126C21.7134 11.3795 21.8951 11.2805 22.0914 11.2221C22.2877 11.1637 22.4941 11.1472 22.6972 11.1737C23.1371 11.1737 23.559 11.3478 23.8701 11.6576C24.1811 11.9675 24.3559 12.3877 24.3559 12.8259C24.3559 14.4914 21.0521 14.572 21.0521 12.5841ZM46.9836 49.7237H19.0428V44.2568H46.9836V49.7237ZM19.8789 56.9232C19.3248 55.4733 19.0415 53.9347 19.0428 52.3832V52.0609H46.9836V52.3832C46.9806 53.9355 46.6926 55.4741 46.134 56.9232H19.8789ZM22.8186 26.231C24.0132 25.0391 25.432 24.0934 26.9939 23.448C28.5557 22.8027 30.23 22.4704 31.9209 22.4701H34.1594C37.5682 22.4842 40.8335 23.8384 43.2452 26.238C45.6568 28.6377 47.0198 31.8888 47.0375 35.2842V42.0003H19.0428V35.2842C19.0434 33.602 19.3772 31.9364 20.0251 30.3829C20.673 28.8294 21.6223 27.4185 22.8186 26.231ZM14.6467 64.5526C14.1311 65.3864 13.424 66.0862 12.5835 66.5943C11.8947 67.0035 11.1066 67.2172 10.3046 67.2122C9.47271 67.181 8.65778 66.9689 7.91697 66.5907C7.17617 66.2124 6.52745 65.6773 6.01637 65.0228C4.6087 63.2702 3.87688 61.0738 3.95318 58.8306C4.07839 55.4246 5.1676 52.1233 7.09516 49.3073C9.71951 45.3761 12.9878 41.9118 16.7638 39.0586V52.3832C16.7698 53.1975 16.8374 54.0102 16.9661 54.8144C16.8852 59.4619 15.9278 62.6319 14.6467 64.5526ZM43.1808 61.4364C41.9934 62.6306 40.5797 63.5779 39.0218 64.2236C37.4639 64.8692 35.7928 65.2002 34.1055 65.1974H31.9209C30.2296 65.2 28.5544 64.8691 26.9922 64.2236C25.4299 63.578 24.0114 62.6308 22.8186 61.4364C22.154 60.779 21.5659 60.0491 21.0655 59.2604H44.9473C44.4423 60.0494 43.8497 60.7794 43.1808 61.4364ZM60.1853 65.0093C59.6626 65.6687 59.0025 66.2071 58.2505 66.5875C57.4985 66.9678 56.6725 67.181 55.8297 67.2122C55.0194 67.2153 54.2231 67.0019 53.5237 66.5943C52.12 65.721 51.0479 64.4073 50.4761 62.8602C49.4932 60.2898 49.0347 57.55 49.1277 54.801C49.2631 53.9841 49.3307 53.1575 49.3299 52.3295V38.884C53.1842 41.7535 56.5103 45.2664 59.1604 49.267C61.0756 52.0439 62.1647 55.3031 62.3024 58.6694C62.3837 60.9674 61.6322 63.2177 60.1853 65.0093Z" fill="#353A3B"/>
<path d="M47.6443 14.384C47.8443 14.3372 48.052 14.3327 48.2539 14.3708C48.4558 14.4089 48.6474 14.4888 48.8165 14.6052C48.9855 14.7217 49.1281 14.8721 49.2351 15.0469C49.3421 15.2216 49.4111 15.4168 49.4378 15.6197C49.64 17.5942 46.3497 17.8629 46.1744 16.2107C46.1501 15.9946 46.1688 15.7758 46.2296 15.5669C46.2903 15.3579 46.3919 15.163 46.5285 14.9933C46.665 14.8236 46.8339 14.6824 47.0254 14.5778C47.2168 14.4733 47.4272 14.4074 47.6443 14.384Z" fill="#FFF6E5"/>
<path fill-rule="evenodd" clip-rule="evenodd" d="M33.0402 35.8213C35.3461 35.8213 36.1957 35.0154 37.2071 35.9019C38.2184 36.7884 36.3036 39.7435 33.0132 39.7435C29.7229 39.7435 27.889 36.8287 28.8329 35.9019C29.7769 34.9751 30.7343 35.8213 33.0402 35.8213Z" fill="#2F3234"/>
<path fill-rule="evenodd" clip-rule="evenodd" d="M35.2385 38.7363C34.5632 39.1497 33.786 39.3686 32.9933 39.3686C32.2006 39.3686 31.4234 39.1497 30.748 38.7363C30.748 38.0378 32.0965 37.6617 32.9865 38.1184C33.9709 37.6617 35.2116 38.0513 35.2385 38.7632" fill="#A04339"/>
<path fill-rule="evenodd" clip-rule="evenodd" d="M33.0402 36.0771C34.5505 36.0771 35.3866 35.7544 36.0743 35.7544C36.0816 35.9982 35.9923 36.2352 35.8258 36.4138C35.6592 36.5925 35.4288 36.6986 35.1843 36.7091C35.0316 36.7124 34.8814 36.6703 34.7528 36.5881C34.6666 36.7482 34.5381 36.8817 34.3812 36.9742C34.2243 37.0666 34.045 37.1145 33.8628 37.1125C33.703 37.1116 33.5459 37.072 33.4049 36.997C33.264 36.9221 33.1434 36.814 33.0537 36.6822C32.9603 36.8135 32.8371 36.9208 32.6941 36.9956C32.5512 37.0704 32.3925 37.1104 32.2311 37.1125C32.0458 37.1135 31.8639 37.0623 31.7065 36.9647C31.549 36.8672 31.4224 36.7273 31.3411 36.5612C31.2027 36.6576 31.038 36.7093 30.8691 36.7091C30.7487 36.7039 30.6304 36.6751 30.5212 36.6243C30.4119 36.5735 30.3137 36.5017 30.2323 36.413C30.1509 36.3243 30.0878 36.2205 30.0467 36.1075C30.0056 35.9945 29.9872 35.8745 29.9926 35.7544C31.0023 35.9137 32.0195 36.0214 33.0402 36.0771Z" fill="white"/>
<path fill-rule="evenodd" clip-rule="evenodd" d="M41.0774 31.9663C41.5586 31.9637 42.0298 32.1036 42.431 32.3682C42.8322 32.6329 43.1454 33.0103 43.3308 33.4526C43.5162 33.895 43.5654 34.3822 43.4722 34.8525C43.3789 35.3227 43.1475 35.7548 42.8072 36.0937C42.4669 36.4326 42.0332 36.6632 41.5611 36.756C41.089 36.8489 40.5999 36.7999 40.1558 36.6152C39.7117 36.4306 39.3327 36.1186 39.0671 35.7189C38.8014 35.3193 38.6609 34.85 38.6636 34.3707C38.6636 33.733 38.9179 33.1215 39.3706 32.6706C39.8233 32.2197 40.4372 31.9663 41.0774 31.9663Z" fill="#2F3234"/>
<path fill-rule="evenodd" clip-rule="evenodd" d="M42.2504 32.7322C42.4282 32.7356 42.5977 32.8076 42.7234 32.9329C42.8491 33.0583 42.9212 33.2273 42.9247 33.4045C42.9247 33.5828 42.8536 33.7538 42.7272 33.8799C42.6007 34.006 42.4292 34.0768 42.2504 34.0768C42.0716 34.0768 41.9001 34.006 41.7737 33.8799C41.6472 33.7538 41.5762 33.5828 41.5762 33.4045C41.5762 33.2262 41.6472 33.0552 41.7737 32.9291C41.9001 32.803 42.0716 32.7322 42.2504 32.7322Z" fill="#F2F8FA"/>
<path fill-rule="evenodd" clip-rule="evenodd" d="M24.9763 31.9663C25.4575 31.9637 25.9287 32.1036 26.3299 32.3682C26.7311 32.6329 27.0443 33.0103 27.2297 33.4526C27.4151 33.895 27.4643 34.3822 27.3711 34.8525C27.2779 35.3227 27.0464 35.7548 26.7061 36.0937C26.3659 36.4326 25.9321 36.6632 25.46 36.756C24.9879 36.8489 24.4988 36.7999 24.0547 36.6152C23.6106 36.4306 23.2317 36.1186 22.966 35.7189C22.7003 35.3193 22.5599 34.85 22.5625 34.3707C22.5661 33.7341 22.8215 33.1246 23.2734 32.6745C23.7253 32.2243 24.3373 31.9699 24.9763 31.9663Z" fill="#2F3234"/>
<path fill-rule="evenodd" clip-rule="evenodd" d="M26.0688 32.7322C26.2465 32.7356 26.416 32.8076 26.5417 32.9329C26.6674 33.0583 26.7396 33.2273 26.743 33.4045C26.743 33.5828 26.672 33.7538 26.5455 33.8799C26.4191 34.006 26.2476 34.0768 26.0688 34.0768C25.89 34.0768 25.7185 34.006 25.592 33.8799C25.4656 33.7538 25.3945 33.5828 25.3945 33.4045C25.3945 33.2262 25.4656 33.0552 25.592 32.9291C25.7185 32.803 25.89 32.7322 26.0688 32.7322Z" fill="#F2F8FA"/>
<path fill-rule="evenodd" clip-rule="evenodd" d="M43.3291 29.9248C43.4679 29.9181 43.6047 29.9601 43.7156 30.0435C43.8265 30.127 43.9045 30.2466 43.9359 30.3815C43.959 30.4394 43.9695 30.5016 43.9668 30.5639C43.9641 30.6262 43.9483 30.6873 43.9203 30.7431C43.8923 30.7988 43.8528 30.8481 43.8043 30.8876C43.7559 30.9272 43.6997 30.9561 43.6392 30.9725C43.5027 30.976 43.3691 30.9325 43.261 30.8493C43.1529 30.7661 43.0769 30.6483 43.0459 30.5158C42.965 30.2203 43.0459 29.9651 43.3291 29.9248ZM33.4851 26.3653C31.3005 26.7683 30.6533 24.6594 33.4851 24.0416C36.9507 23.2625 41.8188 25.5862 43.2482 28.689C43.6258 29.5218 43.0055 29.8173 42.3582 28.9845C40.5377 26.6742 37.2204 25.6668 33.539 26.3653" fill="#FFF6E5"/>
<path fill-rule="evenodd" clip-rule="evenodd" d="M54.1305 48.3535C53.3214 49.052 54.98 51.0399 55.9105 54.2367C56.8409 57.4336 58.2164 58.5484 59.0255 57.8634C59.8346 57.1784 59.6728 55.1098 58.3513 52.7055C57.0297 50.3012 54.9396 47.6685 54.1305 48.3535Z" fill="#D6DEE6"/>
<path fill-rule="evenodd" clip-rule="evenodd" d="M8.228 59.032C8.50459 59.1278 8.74236 59.3107 8.90536 59.5531C9.06836 59.7954 9.14774 60.084 9.1315 60.3752C9.13482 60.5155 9.10747 60.6548 9.05134 60.7835C8.99521 60.9122 8.91164 61.0271 8.80644 61.1204C8.70124 61.2137 8.57691 61.2831 8.4421 61.3237C8.30728 61.3644 8.16521 61.3753 8.02573 61.3558C7.74914 61.26 7.51137 61.0771 7.34837 60.8347C7.18537 60.5924 7.10599 60.3038 7.12224 60.0126C7.11652 59.8716 7.14226 59.7312 7.1976 59.6014C7.25294 59.4715 7.33651 59.3555 7.44227 59.2618C7.54803 59.168 7.67336 59.0987 7.80923 59.059C7.9451 59.0193 8.08812 59.0101 8.228 59.032ZM12.2735 48.0984C13.2848 48.2327 10.5744 49.6162 9.32028 55.2979C8.8618 57.3262 8.92922 58.347 7.97179 58.4007C7.56724 58.4007 6.54238 58.1858 7.21663 55.3651C7.89088 52.5444 11.1407 47.9372 12.26 48.0984" fill="#D6DEE6"/>
<path d="M22.6974 11.1737C22.4943 11.1472 22.2878 11.1637 22.0916 11.222C21.8953 11.2804 21.7136 11.3794 21.5583 11.5125C21.4031 11.6456 21.2777 11.8099 21.1905 11.9945C21.1033 12.1791 21.0562 12.38 21.0522 12.584C21.0522 14.572 24.3561 14.4914 24.3561 12.8258C24.3561 12.3876 24.1813 11.9674 23.8702 11.6576C23.5592 11.3477 23.1373 11.1737 22.6974 11.1737Z" fill="#FFF6E5"/>
<path d="M82.4257 35.0559C84.0431 33.9918 85.9444 33.4272 87.8876 33.4341C88.7751 33.4328 89.6591 33.5443 90.5177 33.7661C91.3311 33.9883 92.1143 34.3067 92.8503 34.7145C94.3125 35.5683 95.5339 36.7718 96.402 38.2142C96.8167 38.9438 97.1391 39.721 97.3619 40.5284C97.81 42.2229 97.81 44.0028 97.3619 45.6973C96.6612 48.1448 95.0358 50.2328 92.8215 51.5301C91.3172 52.4034 89.6034 52.8619 87.8588 52.8579C86.8556 52.8629 85.86 52.6861 84.9214 52.3363C84.0155 52.0133 83.157 51.5732 82.3681 51.0275C82.3191 51.3044 82.2217 51.5708 82.0801 51.8147C81.9437 52.0366 81.7681 52.2325 81.5617 52.3932C81.3684 52.5444 81.1511 52.663 80.9186 52.7441C80.6861 52.8188 80.4432 52.8572 80.1987 52.8579C79.9256 52.859 79.655 52.8074 79.4019 52.7062C79.1328 52.614 78.8872 52.4651 78.682 52.2699C78.4697 52.066 78.3029 51.8205 78.1924 51.5491C78.0591 51.2207 77.9938 50.8691 78.0005 50.5153V29.3559C77.9966 29.0023 78.0618 28.6513 78.1924 28.3221C78.3053 28.0519 78.4718 27.8069 78.682 27.6013C79.0987 27.23 79.6377 27.0211 80.1987 27.0132C80.4811 27.0112 80.7614 27.0627 81.0242 27.165C81.2804 27.2659 81.515 27.4139 81.7153 27.6013C81.9315 27.8039 82.1017 28.0496 82.2145 28.3221C82.3419 28.6519 82.4038 29.0029 82.3969 29.3559L82.4257 35.0559ZM87.8876 37.7779C87.1675 37.7736 86.4545 37.9191 85.795 38.2047C84.4957 38.745 83.462 39.7662 82.9152 41.05C82.6179 41.7081 82.4643 42.4206 82.4643 43.1413C82.4643 43.8619 82.6179 44.5745 82.9152 45.2326C83.1704 45.8863 83.5555 46.4829 84.0479 46.9872C84.5471 47.4856 85.1407 47.882 85.795 48.1537C86.4539 48.4424 87.1668 48.591 87.8876 48.59C88.6146 48.592 89.334 48.4434 89.9994 48.1537C91.2918 47.6035 92.3222 46.5854 92.8791 45.3084C93.1577 44.6456 93.3011 43.9349 93.3011 43.2172C93.3011 42.4994 93.1577 41.7887 92.8791 41.1259C92.6124 40.4865 92.2284 39.9013 91.7464 39.3997C91.2431 38.9111 90.6502 38.5216 89.9994 38.2521L87.8876 37.7779Z" fill="#353A3B"/>
<path d="M112.509 51.729C111.872 52.1117 111.184 52.4053 110.465 52.6016C109.721 52.8072 108.952 52.9093 108.18 52.9051C107.058 52.9126 105.947 52.6897 104.916 52.2506C102.9 51.3843 101.291 49.7947 100.414 47.8025C99.9698 46.7845 99.7443 45.6864 99.7519 44.5778V35.6057C99.7358 35.2577 99.7879 34.9099 99.9055 34.5814C100.019 34.3066 100.189 34.0579 100.405 33.8511C100.817 33.4725 101.359 33.262 101.921 33.262C102.484 33.262 103.026 33.4725 103.438 33.8511C103.656 34.0555 103.827 34.3048 103.937 34.5814C104.074 34.906 104.146 35.2539 104.148 35.6057V44.5684C104.149 45.0972 104.26 45.6203 104.475 46.1048C104.672 46.5815 104.97 47.0113 105.348 47.3662C105.706 47.7408 106.142 48.0351 106.625 48.2293C107.114 48.4458 107.644 48.5557 108.18 48.5518C108.725 48.5566 109.265 48.4467 109.764 48.2293C110.251 48.0324 110.692 47.7386 111.06 47.3662C111.429 47.0039 111.725 46.5759 111.933 46.1048C112.146 45.62 112.254 45.0967 112.25 44.5684V35.6057C112.246 35.2552 112.311 34.9073 112.442 34.5814C112.552 34.3048 112.723 34.0555 112.941 33.8511C113.141 33.6638 113.376 33.5157 113.632 33.4148C113.882 33.3127 114.149 33.2611 114.419 33.2631C114.705 33.261 114.988 33.3125 115.254 33.4148C115.517 33.5198 115.761 33.6672 115.974 33.8511C116.187 34.0585 116.354 34.3071 116.464 34.5814C116.595 34.9073 116.66 35.2552 116.656 35.6057V50.5529C116.663 50.9068 116.597 51.2583 116.464 51.5867C116.353 51.8581 116.187 52.1037 115.974 52.3075C115.763 52.4947 115.519 52.6425 115.254 52.7438C114.988 52.8462 114.705 52.8977 114.419 52.8956C114.04 52.8931 113.668 52.7882 113.344 52.5921L112.509 51.729Z" fill="#353A3B"/>
<path d="M132.456 35.7101C133.207 34.9604 134.11 34.3755 135.105 33.9935C136.088 33.6183 137.133 33.4285 138.187 33.4339C139.213 33.4209 140.231 33.6111 141.182 33.9935C142.079 34.333 142.895 34.8543 143.576 35.5241C144.257 36.1938 144.789 36.997 145.136 37.8821C145.525 38.8241 145.717 39.8336 145.703 40.8506V50.5531C145.712 50.9062 145.65 51.2577 145.52 51.5869C145.403 51.8569 145.234 52.1018 145.021 52.3077C144.813 52.4989 144.568 52.6472 144.301 52.7439C144.048 52.8452 143.778 52.8967 143.505 52.8957C143.228 52.8967 142.955 52.8452 142.698 52.7439C142.427 52.6443 142.179 52.4901 141.971 52.2909C141.762 52.0917 141.598 51.852 141.489 51.5869C141.359 51.2577 141.297 50.9062 141.306 50.5531V40.8506C141.312 40.4142 141.237 39.9804 141.086 39.5703C140.94 39.2205 140.732 38.8993 140.471 38.6218C140.169 38.339 139.811 38.1201 139.42 37.9782C139.029 37.8364 138.612 37.7746 138.196 37.7967C137.627 37.7825 137.061 37.8994 136.545 38.1381C136.081 38.3647 135.671 38.6883 135.345 39.0866C135.019 39.4906 134.778 39.9549 134.635 40.4523C134.471 40.9937 134.39 41.5564 134.395 42.1215V50.6574C134.402 51.0112 134.336 51.3627 134.203 51.6912C134.093 51.9626 133.926 52.2081 133.714 52.412C133.518 52.6002 133.286 52.7484 133.032 52.8483C132.776 52.9505 132.502 53.002 132.226 53C131.658 52.9968 131.111 52.7875 130.69 52.412C130.469 52.2117 130.295 51.9656 130.181 51.6912C130.051 51.362 129.989 51.0105 129.999 50.6574V40.8506C130.005 40.4132 129.927 39.9786 129.768 39.5703C129.629 39.2168 129.421 38.8944 129.154 38.6218C128.881 38.3524 128.554 38.1424 128.194 38.0053C127.785 37.861 127.352 37.7903 126.917 37.7967C126.353 37.7898 125.794 37.8997 125.276 38.1192C124.821 38.3313 124.415 38.635 124.086 39.0107C123.755 39.4058 123.504 39.8597 123.346 40.348C123.18 40.876 123.096 41.4261 123.097 41.9793V50.572C123.103 50.9258 123.038 51.2774 122.905 51.6058C122.794 51.8772 122.628 52.1227 122.415 52.3266C122.212 52.5154 121.974 52.6635 121.715 52.7629C121.452 52.8652 121.172 52.9167 120.889 52.9147C120.616 52.9157 120.345 52.8641 120.092 52.7629C119.824 52.6683 119.579 52.5198 119.372 52.3266C119.16 52.1227 118.993 51.8772 118.883 51.6058C118.75 51.2774 118.684 50.9258 118.691 50.572V35.6058C118.687 35.2553 118.752 34.9074 118.883 34.5815C118.993 34.3073 119.16 34.0586 119.372 33.8512C119.582 33.6614 119.826 33.5132 120.092 33.415C120.345 33.3137 120.616 33.2622 120.889 33.2632C121.285 33.264 121.674 33.3617 122.022 33.5477C122.385 33.7502 122.677 34.0581 122.857 34.4298C124.097 33.7651 125.487 33.4225 126.898 33.4339C127.936 33.4269 128.966 33.6169 129.931 33.9935L132.456 35.7101Z" fill="#353A3B"/>
<path d="M152.115 35.0556C152.908 34.532 153.775 34.1262 154.688 33.8511C155.622 33.573 156.592 33.4324 157.567 33.4338C159.313 33.4117 161.031 33.868 162.53 34.7522C164.764 36.0258 166.404 38.1126 167.099 40.566C167.56 42.2589 167.56 44.0421 167.099 45.735C166.884 46.5479 166.561 47.3292 166.139 48.0586C165.275 49.5033 164.057 50.7101 162.597 51.5678C161.092 52.4376 159.379 52.8959 157.635 52.8956C156.606 52.9109 155.583 52.7339 154.62 52.374C153.715 52.051 152.856 51.6109 152.067 51.0651C152.019 51.3438 151.918 51.6109 151.77 51.8523C151.636 52.0737 151.464 52.2696 151.261 52.4309C151.064 52.5823 150.844 52.7008 150.608 52.7818C150.379 52.8572 150.139 52.8956 149.898 52.8956C149.622 52.8967 149.348 52.8451 149.091 52.7439C148.823 52.642 148.579 52.4868 148.374 52.2877C148.17 52.0886 148.008 51.85 147.901 51.5868C147.771 51.2576 147.709 50.9061 147.719 50.553V29.3556C147.712 29.0026 147.774 28.6516 147.901 28.3218C148.014 28.0493 148.184 27.8036 148.4 27.601C148.713 27.3102 149.103 27.1144 149.526 27.0371C149.948 26.9597 150.383 27.004 150.781 27.1647C151.04 27.2656 151.278 27.4136 151.482 27.601C151.692 27.8085 151.861 28.053 151.981 28.3218C152.108 28.6516 152.17 29.0026 152.163 29.3556L152.115 35.0556ZM157.577 37.7776C156.854 37.7743 156.138 37.9196 155.475 38.2044C154.82 38.4835 154.229 38.8899 153.737 39.3995C153.237 39.8925 152.836 40.4751 152.557 41.1161C152.265 41.7757 152.115 42.4877 152.115 43.2074C152.115 43.9271 152.265 44.6391 152.557 45.2987C152.838 45.9305 153.239 46.5035 153.737 46.9869C154.233 47.4852 154.823 47.8817 155.475 48.1535C156.139 48.441 156.857 48.5895 157.582 48.5895C158.307 48.5895 159.025 48.441 159.689 48.1535C160.338 47.8771 160.927 47.4812 161.426 46.9869C161.92 46.4999 162.315 45.9235 162.588 45.2892C162.873 44.6279 163.019 43.9166 163.019 43.1979C163.019 42.4792 162.873 41.7679 162.588 41.1066C162.044 39.8212 161.009 38.799 159.708 38.2613L157.577 37.7776Z" fill="#353A3B"/>
<path d="M173.819 50.553C173.826 50.9068 173.76 51.2584 173.627 51.5868C173.517 51.8582 173.35 52.1037 173.138 52.3076C172.936 52.4983 172.698 52.6467 172.437 52.7439C172.177 52.8461 171.9 52.8977 171.621 52.8956C171.344 52.8976 171.071 52.8461 170.814 52.7439C170.543 52.6443 170.295 52.49 170.087 52.2908C169.878 52.0916 169.714 51.8519 169.605 51.5868C169.475 51.2576 169.413 50.9062 169.422 50.553V29.3556C169.415 29.0027 169.477 28.6517 169.605 28.3218C169.718 28.0493 169.888 27.8036 170.104 27.601C170.31 27.4113 170.551 27.263 170.814 27.1647C171.071 27.0625 171.344 27.011 171.621 27.013C171.9 27.011 172.177 27.0625 172.437 27.1647C172.706 27.265 172.951 27.4198 173.156 27.619C173.361 27.8183 173.521 28.0577 173.627 28.3218C173.758 28.651 173.823 29.002 173.819 29.3556V50.553Z" fill="#353A3B"/>
<path d="M193.92 49.4813C192.966 50.5935 191.763 51.4704 190.406 52.0421C189.043 52.611 187.577 52.9013 186.096 52.8957C184.736 52.9044 183.386 52.6532 182.122 52.1559C180.919 51.6952 179.818 51.0092 178.878 50.1357C177.951 49.2622 177.21 48.2142 176.699 47.0534C176.08 45.6486 175.805 44.1195 175.897 42.5902C175.989 41.0609 176.444 39.5746 177.227 38.2519C177.659 37.5323 178.181 36.8695 178.782 36.2792C179.378 35.6869 180.049 35.1736 180.778 34.7522C182.279 33.8713 183.996 33.4152 185.741 33.4339C186.961 33.4281 188.171 33.6568 189.302 34.1073C190.398 34.5588 191.403 35.2014 192.269 36.0041C193.125 36.8119 193.836 37.7581 194.371 38.802C194.915 39.8869 195.241 41.0657 195.331 42.2733C195.33 42.5553 195.291 42.8359 195.216 43.1079C195.121 43.3779 194.989 43.6334 194.822 43.8666C194.647 44.0994 194.425 44.2933 194.169 44.4357C193.873 44.5872 193.543 44.6623 193.209 44.6538H180.433C180.589 45.2645 180.866 45.8384 181.249 46.342C181.608 46.8305 182.054 47.2513 182.564 47.5845C183.068 47.9258 183.626 48.1822 184.215 48.3432C184.839 48.5187 185.486 48.6049 186.135 48.5993C186.977 48.5996 187.812 48.4386 188.592 48.1251C189.369 47.8158 190.057 47.3242 190.598 46.693C190.84 46.4122 191.137 46.183 191.472 46.0196C191.775 45.8908 192.102 45.8262 192.432 45.8299C192.719 45.8316 193.003 45.8897 193.267 46.0006C193.524 46.114 193.76 46.2678 193.968 46.4558C194.171 46.6492 194.337 46.8774 194.457 47.1292C194.571 47.3864 194.63 47.6641 194.63 47.9449C194.63 48.2269 194.578 48.5066 194.476 48.77L193.92 49.4813ZM190.32 40.2626C189.825 39.5042 189.145 38.8811 188.343 38.4511C187.534 38.0153 186.628 37.7869 185.708 37.7869C184.787 37.7869 183.881 38.0153 183.073 38.4511C182.291 38.893 181.632 39.5185 181.153 40.2721L190.32 40.2626Z" fill="#353A3B"/>
<path d="M201.743 35.0558C202.536 34.5321 203.403 34.1263 204.315 33.8513C205.249 33.5731 206.22 33.4325 207.195 33.434C208.96 33.4012 210.7 33.8579 212.216 34.7523C212.917 35.1812 213.562 35.6941 214.135 36.2793C214.73 36.8723 215.249 37.5348 215.681 38.252C216.099 38.9798 216.422 39.7575 216.641 40.5662C217.102 42.2591 217.102 44.0422 216.641 45.7351C216.426 46.548 216.103 47.3293 215.681 48.0588C215.249 48.776 214.73 49.4385 214.135 50.0315C213.562 50.6196 212.917 51.1357 212.216 51.568C210.71 52.4378 208.997 52.896 207.253 52.8958C206.25 52.9016 205.254 52.7247 204.315 52.3741C203.407 52.0492 202.546 51.6093 201.752 51.0653C201.708 51.3434 201.61 51.6105 201.465 51.8525C201.331 52.0738 201.159 52.2698 200.956 52.431C200.759 52.5824 200.539 52.701 200.303 52.7819C200.074 52.8574 199.834 52.8958 199.593 52.8958C199.317 52.8968 199.043 52.8453 198.786 52.744C198.515 52.6444 198.267 52.4901 198.059 52.2909C197.85 52.0918 197.686 51.852 197.577 51.5869C197.447 51.2577 197.385 50.9063 197.394 50.5531V29.3557C197.388 29.0028 197.449 28.6518 197.577 28.322C197.69 28.0494 197.86 27.8037 198.076 27.6011C198.384 27.3195 198.766 27.1291 199.179 27.052C199.591 26.9748 200.018 27.014 200.409 27.1649C200.678 27.2652 200.923 27.4199 201.127 27.6192C201.332 27.8184 201.493 28.0578 201.599 28.322C201.73 28.6512 201.795 29.0022 201.791 29.3557L201.743 35.0558ZM207.205 37.7778C206.482 37.7744 205.766 37.9198 205.103 38.2046C204.448 38.4836 203.857 38.8901 203.365 39.3996C202.865 39.8926 202.464 40.4752 202.184 41.1163C201.893 41.7759 201.742 42.4878 201.742 43.2076C201.742 43.9273 201.893 44.6393 202.184 45.2988C202.466 45.9307 202.866 46.5036 203.365 46.987C203.861 47.4854 204.451 47.8819 205.103 48.1536C205.767 48.4412 206.484 48.5896 207.21 48.5896C207.935 48.5896 208.652 48.4412 209.317 48.1536C210.608 47.6017 211.638 46.5842 212.196 45.3083C212.481 44.647 212.628 43.9357 212.628 43.217C212.628 42.4983 212.481 41.787 212.196 41.1258C211.927 40.4856 211.539 39.9004 211.054 39.3996C210.564 38.8962 209.981 38.4905 209.336 38.2046L207.205 37.7778Z" fill="#353A3B"/>
<path d="M237.173 49.4813C236.22 50.5935 235.017 51.4703 233.66 52.042C232.296 52.6109 230.83 52.9013 229.35 52.8956C227.989 52.9043 226.64 52.6531 225.376 52.1558C224.171 51.6975 223.069 51.0113 222.131 50.1357C220.848 48.9307 219.923 47.4027 219.454 45.7163C218.986 44.03 218.992 42.2492 219.472 40.566C219.683 39.7546 220.006 38.9758 220.432 38.2519C220.864 37.5322 221.387 36.8694 221.987 36.2791C222.581 35.6891 223.249 35.176 223.974 34.7522C224.719 34.3409 225.512 34.0223 226.336 33.8037C227.187 33.5809 228.065 33.4693 228.947 33.4718C230.167 33.4659 231.376 33.6947 232.508 34.1452C233.604 34.5967 234.608 35.2392 235.474 36.042C236.331 36.8498 237.041 37.796 237.576 38.8399C238.12 39.9248 238.446 41.1036 238.536 42.3112C238.535 42.5931 238.496 42.8738 238.421 43.1458C238.327 43.4158 238.194 43.6713 238.027 43.9045C237.853 44.1373 237.63 44.3312 237.375 44.4736C237.078 44.6251 236.748 44.7002 236.415 44.6917H223.638C223.789 45.304 224.067 45.8788 224.454 46.3799C224.811 46.8706 225.257 47.2918 225.769 47.6224C226.273 47.9637 226.831 48.2201 227.42 48.3811C228.045 48.5566 228.691 48.6428 229.34 48.6372C230.182 48.6368 231.017 48.4758 231.797 48.163C232.574 47.8536 233.263 47.3621 233.804 46.7308C234.046 46.4501 234.343 46.2209 234.677 46.0574C234.98 45.9287 235.307 45.864 235.637 45.8678C235.924 45.8695 236.208 45.9275 236.472 46.0385C236.729 46.1519 236.966 46.3057 237.173 46.4937C237.376 46.6871 237.542 46.9153 237.663 47.1671C237.777 47.4243 237.835 47.702 237.835 47.9828C237.836 48.2648 237.784 48.5444 237.682 48.8079L237.173 49.4813ZM233.573 40.2625C233.065 39.4981 232.368 38.8746 231.548 38.451C230.74 38.0152 229.834 37.7869 228.913 37.7869C227.992 37.7869 227.086 38.0152 226.278 38.451C225.496 38.893 224.837 39.5184 224.358 40.272L233.573 40.2625Z" fill="#353A3B"/>
<path d="M258.608 49.4813C257.655 50.5935 256.452 51.4703 255.095 52.042C253.731 52.6109 252.265 52.9013 250.785 52.8956C249.424 52.9043 248.075 52.6531 246.811 52.1558C245.608 51.6951 244.506 51.0092 243.566 50.1357C241.978 48.6277 240.949 46.6355 240.646 44.4798C240.344 42.3241 240.784 40.1304 241.896 38.2519C242.328 37.5322 242.851 36.8694 243.451 36.2791C244.045 35.6891 244.713 35.176 245.438 34.7522C246.182 34.3409 246.976 34.0223 247.799 33.8037C248.651 33.5809 249.529 33.4693 250.41 33.4718C251.63 33.4659 252.84 33.6947 253.972 34.1452C255.067 34.5967 256.072 35.2392 256.938 36.042C257.794 36.8498 258.505 37.796 259.04 38.8399C259.584 39.9248 259.91 41.1036 260 42.3112C259.999 42.5931 259.96 42.8738 259.885 43.1458C259.791 43.4158 259.658 43.6713 259.491 43.9045C259.316 44.1373 259.094 44.3312 258.838 44.4736C258.542 44.6251 258.212 44.7002 257.878 44.6917H245.121C245.277 45.3024 245.554 45.8763 245.937 46.3799C246.297 46.8684 246.742 47.2892 247.252 47.6224C247.756 47.9637 248.314 48.2201 248.903 48.3811C249.528 48.5566 250.174 48.6428 250.823 48.6372C251.666 48.6375 252.5 48.4765 253.28 48.163C254.057 47.8536 254.746 47.3621 255.287 46.7308C255.529 46.4501 255.826 46.2209 256.16 46.0574C256.463 45.9287 256.79 45.864 257.12 45.8678C257.407 45.8695 257.691 45.9275 257.955 46.0385C258.212 46.1519 258.449 46.3057 258.656 46.4937C258.859 46.6871 259.025 46.9153 259.146 47.1671C259.23 47.4141 259.266 47.6749 259.251 47.9353C259.251 48.2174 259.199 48.497 259.098 48.7605L258.608 49.4813ZM255.008 40.2625C254.514 39.5041 253.834 38.8811 253.031 38.451C252.219 38.0102 251.308 37.7791 250.382 37.7791C249.455 37.7791 248.544 38.0102 247.732 38.451C246.951 38.893 246.291 39.5184 245.812 40.272L255.008 40.2625Z" fill="#353A3B"/>
</svg>
