<svg width="260" height="80" viewBox="0 0 260 80" fill="none" xmlns="http://www.w3.org/2000/svg">
<path d="M41.0007 28.5898H27.8966L21.3164 40.1179L27.8664 51.528H40.9987L47.5487 40.1179L41.0007 28.5898ZM39.2527 48.3999H29.6084L24.8064 40.0874L29.6124 31.6874H39.2567L44.0627 40.0874L39.2527 48.3999Z" fill="#141A1F"/>
<path d="M24.8042 40.1158L29.6102 48.3998H39.2545L44.0906 40.1158L39.2545 31.5999H29.6102L24.8042 40.1158Z" fill="#E83030"/>
<path d="M41.0007 53.0922H27.8966L21.3164 64.5898L27.8664 76H40.9987L47.5487 64.5898L41.0007 53.0922ZM39.2527 72.9898H29.6084L24.8064 64.6773L29.6124 56.2773H39.2567L44.0627 64.6773L39.2527 72.9898Z" fill="#141A1F"/>
<path d="M24.8042 64.5897L29.6102 72.9897H39.2545L44.0906 64.5897L39.2545 56.1897H29.6102L24.8042 64.5897Z" fill="#6B91C7"/>
<path d="M41.0007 4H27.8966L21.3164 15.5281L27.8966 26.9383H41.0288L47.5788 15.5281L41.0007 4ZM39.2527 23.8101H29.6084L24.8064 15.4976L29.6124 7.0122H39.2567L44.0627 15.4122L39.2527 23.8101Z" fill="#141A1F"/>
<path d="M24.8042 15.5257L29.6102 23.8098H39.2545L44.0906 15.5257L39.2545 7.00983H29.6102L24.8042 15.5257Z" fill="#F9C31F"/>
<path d="M62.3172 40.9276H49.3176L42.7676 52.4557L49.3176 63.8658H62.4498L68.9999 52.4557L62.3172 40.9276ZM60.5692 60.7865H50.925L46.1189 52.474L50.925 44.074H60.5692L65.3752 52.474L60.5692 60.7865Z" fill="#141A1F"/>
<path d="M46.0976 52.4982L50.9727 60.8107H60.5904L65.5129 52.4982L60.5904 43.9822H50.9727L46.0976 52.4982Z" fill="#795AA5"/>
<path d="M62.3172 16.3377H49.3176L42.7676 27.7479L49.3176 39.158H62.4498L68.9999 27.7479L62.3172 16.3377ZM60.5692 36.1763H50.925L46.1189 27.8638L50.925 19.4638H60.5692L65.3752 27.8638L60.5692 36.1763Z" fill="#141A1F"/>
<path d="M46.0977 27.8692L50.8955 36.2938H60.5905L65.5131 27.9813L60.5905 19.4654L50.8955 19.4654L46.0977 27.8692Z" fill="#F17423"/>
<path d="M19.5697 40.9276H6.55004L0 52.4557L6.55004 63.8658H19.6823L26.2323 52.4557L19.5697 40.9276ZM17.8217 60.7682H8.29404L3.488 52.4557L8.29404 44.0557H17.9383L22.7443 52.4557L17.8217 60.7682Z" fill="#141A1F"/>
<path d="M3.4873 52.4535L8.29334 60.7661H17.821L22.7436 52.4535L17.821 43.9376H8.29334L3.4873 52.4535Z" fill="#97C639"/>
<path d="M19.5697 16.3377H6.55004L0 27.7479L6.55004 39.158H19.6823L26.2323 27.7479L19.5697 16.3377ZM17.8217 36.1783H8.29404L3.488 27.8658L8.29404 19.4658H17.9383L22.7443 27.8658L17.8217 36.1783Z" fill="#141A1F"/>
<path d="M3.4873 27.8635L8.29334 36.176H17.821L22.7436 27.8635L17.821 19.3475H8.29334L3.4873 27.8635Z" fill="#C9DB70"/>
<path d="M99.7689 27.8067C100.974 27.815 102.174 27.9511 103.351 28.2127C104.466 28.4502 105.408 28.8784 106.324 29.331V32.8322C105.305 32.4618 104.268 32.1448 103.216 31.8826C102.169 31.6452 101.225 31.4766 100.176 31.4766C99.1273 31.4766 98.1185 31.6452 97.0676 31.9514C96.0167 32.2576 95.1428 32.8322 94.2645 33.6443C93.4548 34.4564 92.811 35.4748 92.2733 36.7616C91.7999 38.0485 91.5654 39.6416 91.5654 41.5719C91.5654 42.9032 91.7335 44.2345 92.1406 45.4326C92.5045 46.5473 93.0775 47.5821 93.8287 48.4812C94.572 49.362 95.5167 50.0055 96.5322 50.4781C97.6473 50.9529 98.9304 51.1881 100.382 51.1881C101.428 51.1881 102.439 51.1215 103.59 50.8841C104.644 50.6299 105.682 50.3128 106.698 49.9345V53.4579C106.395 53.6265 105.99 53.8639 105.517 54.0347C105.043 54.2056 104.47 54.3387 103.829 54.5096C103.253 54.6782 102.647 54.747 101.904 54.8135L99.9127 54.9822C98.2225 55.005 96.5414 54.7301 94.9459 54.1701C93.4517 53.6178 92.0673 52.8034 90.8574 51.7649C89.6688 50.5864 88.7468 49.1653 88.1539 47.5981C87.4902 45.9052 87.1074 44.0037 87.1074 41.6696C87.1074 39.9766 87.2756 38.4523 87.6826 37.0989C87.9857 35.7676 88.4924 34.5251 89.1362 33.5045C89.78 32.4839 90.4636 31.5742 91.2977 30.842C92.0972 30.1451 92.9818 29.5531 93.9304 29.0803C94.8751 28.6055 95.8552 28.2682 96.8021 28.0308L99.7756 27.7601L99.7689 27.8067ZM113.18 22.5216V17.7779H117.384V22.5216H113.18ZM113.247 54.3343V28.5189H117.45V54.3542L113.247 54.3343ZM126.118 54.3565V15H130.322V54.3542L126.118 54.3565ZM138.899 22.5216V17.7779H143.103V22.5216H138.899ZM138.966 54.3343V28.5189H143.169V54.3542L138.966 54.3343ZM161.86 54.9999C160.654 55.0017 159.452 54.8654 158.278 54.5939C157.299 54.3148 156.357 53.917 155.475 53.409C154.665 52.8322 153.955 52.2908 153.417 51.4787C152.83 50.7665 152.38 49.9509 152.09 49.0736C151.853 48.4079 151.685 47.7423 151.515 46.9058L151.346 44.3321V28.5456H155.55V44.3321C155.55 45.7898 155.718 46.9946 156.125 47.9265C156.53 49.0447 157.24 49.8568 158.183 50.5002C159.125 51.1437 160.413 51.4499 161.864 51.4499C163.453 51.4499 164.736 51.1459 165.714 50.4004C166.661 49.6904 167.402 48.8073 167.771 47.5892C168.074 46.7084 168.245 45.5923 168.245 44.3055V28.5078H172.448V44.3631C172.449 45.1678 172.392 45.9715 172.28 46.7683C172.214 47.4748 172.055 48.1695 171.807 48.834C171.503 49.7148 170.997 50.5269 170.479 51.3079C169.904 52.0179 169.196 52.6391 168.422 53.2382C167.612 53.8151 166.665 54.1878 165.55 54.5251C164.349 54.8449 163.111 55.0046 161.868 54.9999H161.86ZM201.318 54.3343H197.114V37.7135C197.118 36.739 196.981 35.7691 196.709 34.8335C196.472 34.0215 196.134 33.3758 195.663 32.9032C195.187 32.4134 194.611 32.032 193.975 31.785C193.311 31.5476 192.647 31.481 191.813 31.481C190.293 31.481 188.942 31.887 187.725 32.6658C186.543 33.4779 185.393 34.5961 184.45 36.0206V54.3831H180.262V28.5189H183.537L184.346 32.1133H184.413L185.933 30.4204C186.508 29.9456 187.114 29.4708 187.758 29.0892C188.448 28.674 189.201 28.3763 189.988 28.2083C190.798 27.9709 191.676 27.9043 192.643 27.9043C194.568 27.9043 196.156 28.3792 197.439 29.2356C198.722 30.1852 199.669 31.4033 200.413 32.9964H200.479C201.594 31.4033 202.946 30.1164 204.395 29.2356C205.844 28.3547 207.603 27.9043 209.497 27.9043C210.375 27.9043 211.322 28.073 212.368 28.3104C213.415 28.5478 214.293 29.0204 215.172 29.6416C216.05 30.2629 216.691 31.2347 217.229 32.4528C217.804 33.6376 218.107 35.1641 218.107 37.0945V54.4075H214.054V37.7734C214.058 36.7989 213.921 35.829 213.649 34.8934C213.413 34.0814 213.074 33.4357 212.603 32.9631C212.127 32.4733 211.551 32.0919 210.915 31.8449C210.251 31.6075 209.588 31.5409 208.753 31.5409C207.234 31.5409 205.882 31.9469 204.665 32.7257C203.484 33.5378 202.333 34.656 201.32 36.0805L201.318 54.3343Z" fill="#141A1F"/>
</svg>
