<svg width="128" height="128" viewBox="0 0 128 128" fill="none" xmlns="http://www.w3.org/2000/svg">
<path d="M73.9487 46.2509H53.8938L43.8232 64.1835L53.8476 81.9326H73.9456L83.97 64.1835L73.9487 46.2509ZM71.2735 77.0666H56.5136L49.1645 64.136L56.5198 51.0694H71.2796L78.6349 64.136L71.2735 77.0666Z" fill="#141A1F"/>
<path d="M49.1626 64.1802L56.5179 77.0665H71.2778L78.6792 64.1802L71.2778 50.9332H56.5179L49.1626 64.1802Z" fill="#E83030"/>
<path d="M73.9487 84.3657H53.8938L43.8232 102.251L53.8476 120H73.9456L83.97 102.251L73.9487 84.3657ZM71.2735 115.318H56.5136L49.1645 102.387L56.5198 89.3203H71.2796L78.6349 102.387L71.2735 115.318Z" fill="#141A1F"/>
<path d="M49.1626 102.251L56.5179 115.317H71.2778L78.6792 102.251L71.2778 89.1841H56.5179L49.1626 102.251Z" fill="#6B91C7"/>
<path d="M73.9487 8H53.8938L43.8232 25.9326L53.8938 43.6817H73.9917L84.0161 25.9326L73.9487 8ZM71.2735 38.8158H56.5136L49.1645 25.8852L56.5198 12.6856H71.2796L78.6349 25.7523L71.2735 38.8158Z" fill="#141A1F"/>
<path d="M49.1626 25.9289L56.5179 38.8152H71.2778L78.6792 25.9289L71.2778 12.6819H56.5179L49.1626 25.9289Z" fill="#F9C31F"/>
<path d="M106.573 65.4429H86.6777L76.6533 83.3755L86.6777 101.125H106.776L116.8 83.3755L106.573 65.4429ZM103.898 96.3346H89.1377L81.7824 83.404L89.1377 70.3373H103.898L111.253 83.404L103.898 96.3346Z" fill="#141A1F"/>
<path d="M81.7494 83.4415L89.2104 96.3721H103.93L111.463 83.4415L103.93 70.1945H89.2104L81.7494 83.4415Z" fill="#795AA5"/>
<path d="M106.573 27.192H86.6777L76.6533 44.9411L86.6777 62.6903H106.776L116.8 44.9411L106.573 27.192ZM103.898 58.0521H89.1377L81.7824 45.1215L89.1377 32.0548H103.898L111.253 45.1215L103.898 58.0521Z" fill="#141A1F"/>
<path d="M81.7495 45.1298L89.0923 58.2349H103.93L111.464 45.3043L103.93 32.0573L89.0923 32.0573L81.7495 45.1298Z" fill="#F17423"/>
<path d="M41.1504 65.4429H21.2246L11.2002 83.3755L21.2246 101.125H41.3226L51.3469 83.3755L41.1504 65.4429ZM38.4751 96.3061H23.8937L16.5383 83.3755L23.8937 70.3088H38.6535L46.0088 83.3755L38.4751 96.3061Z" fill="#141A1F"/>
<path d="M16.5366 83.3723L23.8919 96.3029H38.4734L46.0071 83.3723L38.4734 70.1253H23.8919L16.5366 83.3723Z" fill="#97C639"/>
<path d="M41.1504 27.192H21.2246L11.2002 44.9411L21.2246 62.6903H41.3226L51.3469 44.9411L41.1504 27.192ZM38.4751 58.0552H23.8937L16.5383 45.1246L23.8937 32.058H38.6535L46.0088 45.1246L38.4751 58.0552Z" fill="#141A1F"/>
<path d="M16.5366 45.121L23.8919 58.0516H38.4734L46.0071 45.121L38.4734 31.874H23.8919L16.5366 45.121Z" fill="#C9DB70"/>
</svg>
