<svg width="98" height="113" viewBox="0 0 98 113" fill="none" xmlns="http://www.w3.org/2000/svg">
<path d="M45.582 2.04163C47.7326 0.780878 50.3966 0.780878 52.5472 2.04163L94.1158 26.4105C96.2241 27.6464 97.5194 29.9073 97.5194 32.3512V81.272C97.5194 83.7159 96.2241 85.9767 94.1158 87.2127L52.5472 111.582C50.3966 112.842 47.7326 112.842 45.582 111.582L4.01338 87.2127C1.90506 85.9767 0.609756 83.7159 0.609756 81.272V32.3512C0.609756 29.9073 1.90506 27.6464 4.01338 26.4105L45.582 2.04163Z" fill="#659AD2"/>
<path fill-rule="evenodd" clip-rule="evenodd" d="M96.6725 84.5838C96.0837 85.6589 95.2089 86.5758 94.1153 87.2169L52.5467 111.586C50.3961 112.846 47.7321 112.846 45.5815 111.586L4.01288 87.2169C2.91954 86.5759 2.04485 85.6594 1.45605 84.5846L49.065 56.8127L96.6725 84.5838Z" fill="#D9D9D9"/>
<path fill-rule="evenodd" clip-rule="evenodd" d="M96.6725 84.5838C96.0837 85.6589 95.2089 86.5758 94.1153 87.2169L52.5467 111.586C50.3961 112.846 47.7321 112.846 45.5815 111.586L4.01288 87.2169C2.91954 86.5759 2.04485 85.6594 1.45605 84.5846L49.065 56.8127L96.6725 84.5838Z" fill="#004482"/>
<path fill-rule="evenodd" clip-rule="evenodd" d="M49.0642 89.5205C67.1293 89.5205 81.7739 74.8759 81.7739 56.8108C81.7739 38.7457 67.1293 24.1011 49.0642 24.1011C30.9991 24.1011 16.3545 38.7457 16.3545 56.8108C16.3545 74.8759 30.9991 89.5205 49.0642 89.5205ZM49.0646 73.1658C58.0972 73.1658 65.4195 65.8435 65.4195 56.8109C65.4195 47.7784 58.0972 40.4561 49.0646 40.4561C40.0321 40.4561 32.7098 47.7784 32.7098 56.8109C32.7098 65.8435 40.0321 73.1658 49.0646 73.1658Z" fill="white"/>
<path fill-rule="evenodd" clip-rule="evenodd" d="M96.6834 29.0598C97.2233 30.0529 97.5197 31.1799 97.5197 32.3489V81.2697C97.5197 82.448 97.2186 83.5838 96.6704 84.5826L49.0649 56.8373L96.6834 29.0598Z" fill="#00599C"/>
<rect x="87.8" y="51.6523" width="3.44313" height="10.3294" fill="white"/>
<rect x="84.3564" y="58.541" width="3.44313" height="10.3294" transform="rotate(-90 84.3564 58.541)" fill="white"/>
<rect x="74.0273" y="51.6523" width="3.44313" height="10.3294" fill="white"/>
<rect x="70.5845" y="58.541" width="3.44313" height="10.3294" transform="rotate(-90 70.5845 58.541)" fill="white"/>
</svg>
