<svg width="130" height="130" viewBox="0 0 130 130" fill="none" xmlns="http://www.w3.org/2000/svg">
<path fill-rule="evenodd" clip-rule="evenodd" d="M71.4351 9.51025H15.854V24.5618C23.0646 24.5618 28.91 30.4583 28.91 37.7319C28.91 45.0056 23.0646 50.902 15.854 50.902V66.1417H30.5938C30.7913 73.2413 36.5587 78.9355 43.6445 78.9355C50.7304 78.9355 56.4978 73.2413 56.6953 66.1417H71.4351V50.902C64.2245 50.902 58.3791 45.0056 58.3791 37.7319C58.3791 30.4583 64.2245 24.5618 71.4351 24.5618V9.51025Z" fill="#C9F7CA"/>
<path fill-rule="evenodd" clip-rule="evenodd" d="M127.016 119.951C127.016 121.614 125.68 122.961 124.031 122.961L71.4346 122.961L71.4346 107.91C78.6452 107.91 84.4905 102.013 84.4905 94.7398C84.4905 87.4661 78.6452 81.5697 71.4346 81.5697L71.4346 66.33L86.1744 66.33C86.3718 59.2303 92.1393 53.5362 99.2251 53.5362C106.311 53.5362 112.078 59.2303 112.276 66.33L127.016 66.33L127.016 119.951Z" fill="#66E1FF"/>
<path fill-rule="evenodd" clip-rule="evenodd" d="M71.4343 108.098C78.6449 108.098 84.4902 102.201 84.4902 94.9275C84.4902 87.6539 78.6449 81.7574 71.4343 81.7574L71.4343 66.894L56.5132 66.894C56.5132 74.1677 50.6678 80.0641 43.4572 80.0641C36.2466 80.0641 30.4013 74.1677 30.4013 66.894L15.2937 66.894L15.2937 81.7627C8.25556 81.9619 2.61074 87.7797 2.61074 94.9275C2.61074 102.075 8.25556 107.893 15.2937 108.092L15.2937 118.446C15.2937 120.939 17.2978 122.961 19.77 122.961L71.4343 122.961L71.4343 108.098Z" fill="#FFBFC5"/>
<path fill-rule="evenodd" clip-rule="evenodd" d="M84.491 94.9278C84.491 102.201 78.6457 108.098 71.4351 108.098L71.4351 122.021H15.854L71.4351 67.3529L71.4351 81.7577C78.6457 81.7577 84.491 87.6541 84.491 94.9278Z" fill="#FF808C"/>
<path fill-rule="evenodd" clip-rule="evenodd" d="M127.016 66.142L127.016 10.075L112.095 10.075C112.095 17.3486 106.249 23.2451 99.0386 23.2451C91.828 23.2451 85.9826 17.3486 85.9826 10.0749L70.875 10.0749L70.875 24.9436C63.8369 25.1428 58.1921 30.9607 58.1921 38.1084C58.1921 45.2562 63.8369 51.0741 70.875 51.2733L70.875 66.142L85.9826 66.142C85.9826 58.8683 91.828 52.9718 99.0386 52.9719C106.249 52.9719 112.095 58.8683 112.095 66.142L127.016 66.142Z" fill="#FFF9BF"/>
<path fill-rule="evenodd" clip-rule="evenodd" d="M127.015 12.7583V66.1418H112.094C112.094 58.8682 106.249 52.9717 99.0382 52.9717C91.8276 52.9717 85.9822 58.8682 85.9822 66.1418H72.7397L127.015 12.7583Z" fill="#FFEF5E"/>
<path fill-rule="evenodd" clip-rule="evenodd" d="M22.7547 12.5206C20.6945 12.5206 19.0244 14.2053 19.0244 16.2835V21.5431C26.4697 22.6889 32.1736 29.1756 32.1736 37.0063V38.0814C32.1736 45.912 26.4697 52.3987 19.0244 53.5445V80.5661C19.0244 82.5751 17.41 84.2036 15.4185 84.2036C10.1994 84.2036 5.96844 88.4715 5.96844 93.7362V94.9905C5.96844 100.255 10.1994 104.523 15.4185 104.523C17.41 104.523 19.0244 106.152 19.0244 108.161V115.341C19.0244 117.42 20.6945 119.104 22.7547 119.104H120.301C122.361 119.104 124.032 117.42 124.032 115.341V16.2835C124.032 14.2053 122.361 12.5206 120.301 12.5206H115.267C114.127 19.8235 107.86 25.4085 100.3 25.4085H98.5236C90.9637 25.4085 84.6969 19.8235 83.5568 12.5206H22.7547ZM13.056 16.2835C13.056 10.8802 17.3982 6.5 22.7547 6.5H85.7474C87.7316 6.5 89.34 8.12252 89.34 10.124C89.34 15.2403 93.4517 19.3879 98.5236 19.3879H100.3C105.372 19.3879 109.484 15.2403 109.484 10.124C109.484 8.12253 111.092 6.5 113.076 6.5H120.301C125.658 6.5 130 10.8802 130 16.2835V115.341C130 120.745 125.658 125.125 120.301 125.125H22.7547C17.3982 125.125 13.056 120.745 13.056 115.341V110.362C5.66206 109.215 0 102.77 0 94.9905V93.7362C0 85.9568 5.66206 79.5113 13.056 78.3644V51.3455C13.056 49.3342 14.6724 47.7036 16.6663 47.7036C21.9345 47.7036 26.2052 43.3956 26.2052 38.0814V37.0063C26.2052 31.692 21.9345 27.384 16.6663 27.384C14.6724 27.384 13.056 25.7535 13.056 23.7421V16.2835Z" fill="#191919"/>
<path fill-rule="evenodd" clip-rule="evenodd" d="M98.7899 55.982C93.5708 55.982 89.3399 60.25 89.3399 65.5147C89.3399 67.5236 87.7255 69.1521 85.734 69.1521H59.1141C57.9378 76.6219 51.5245 82.3223 43.7992 82.3223H42.5564C34.8574 82.3223 28.4913 76.5995 27.3935 69.1521H15.9468V63.1315H29.5933C31.5925 63.1315 33.209 64.7739 33.1948 66.7905C33.1577 72.0323 37.3598 76.3016 42.5564 76.3016H43.7992C49.0411 76.3016 53.301 72.0351 53.3384 66.7475C53.3526 64.7463 54.9648 63.1315 56.9487 63.1315H83.5513C84.6883 55.673 91.0779 49.9614 98.7899 49.9614H100.033C107.745 49.9614 114.135 55.673 115.272 63.1315H127.016V69.1521H113.089C111.098 69.1521 109.483 67.5236 109.483 65.5147C109.483 60.25 105.252 55.982 100.033 55.982H98.7899Z" fill="#191919"/>
<path fill-rule="evenodd" clip-rule="evenodd" d="M61.3639 38.3709C61.3639 43.6357 65.5949 47.9036 70.814 47.9036C72.8055 47.9036 74.4199 49.5321 74.4199 51.541L74.4199 78.5526C81.8138 79.6995 87.4759 86.145 87.4759 93.9244L87.4759 95.2726C87.4759 103.039 81.8027 109.461 74.4199 110.568L74.4199 122.115L68.4515 122.115L68.4515 108.349C68.4515 106.332 70.0797 104.702 72.0787 104.716C77.2751 104.753 81.5074 100.515 81.5074 95.2726L81.5074 93.9244C81.5074 88.6597 77.2765 84.3918 72.0574 84.3918C70.0659 84.3918 68.4515 82.7633 68.4515 80.7543L68.4515 53.7427C61.0576 52.5959 55.3955 46.1504 55.3955 38.3709L55.3955 37.1049C55.3955 29.3254 61.0576 22.8799 68.4515 21.733L68.4515 9.51036L74.4199 9.51036L74.4199 23.9348C74.4199 25.9437 72.8055 27.5722 70.814 27.5722C65.5949 27.5722 61.3639 31.8401 61.3639 37.1049L61.3639 38.3709Z" fill="#191919"/>
</svg>
