<svg width="128" height="128" viewBox="0 0 128 128" fill="none" xmlns="http://www.w3.org/2000/svg">
<path d="M1.6001 64.7997L32.8001 11.1997L95.2001 11.1997L126.4 64.7996L95.2001 118.4L32.8001 118.4L1.6001 64.7997Z" fill="#FFD200"/>
<path fill-rule="evenodd" clip-rule="evenodd" d="M106.67 46.8609L105.298 49.073C106.763 49.8227 106.67 52.0921 106.176 54.2406C105.62 56.6575 104.579 60.4396 103.38 63.7249C102.49 66.1657 97.8691 77.9021 85.192 77.9021C73.578 77.9021 68.6672 67.2001 67.3403 64.3085L67.3403 64.3084C67.2188 64.0438 67.1274 63.8445 67.0636 63.7249C66.4551 62.5841 64.7486 61.871 64.0003 61.871V51.3379C65.2086 51.3379 65.8915 51.0771 68.203 50.0343C70.0521 49.2 75.1023 47.2533 77.3963 46.3842C90.6767 42.5047 101.089 44.9763 106.67 46.8609ZM70.3538 52.9902C78.2479 47.4499 93.2248 48.3277 97.2353 49.4754C99.387 50.0911 102.077 51.3761 102.33 54.9266C102.527 57.6921 102.031 60.3648 100.987 63.2254C100.212 65.3506 96.1883 75.5696 85.1502 75.5696C74.112 75.5696 70.0119 65.255 69.3656 63.2254C69.0243 62.1537 67.5948 54.9266 70.3538 52.9902ZM21.3296 46.861L22.701 49.073C21.2363 49.8227 21.3296 52.0921 21.8238 54.2406C22.3797 56.6575 23.4206 60.4396 24.619 63.725C25.5093 66.1658 30.1303 77.9021 42.8075 77.9021C54.4215 77.9021 59.3323 67.2001 60.6591 64.3085L60.6592 64.3085C60.7806 64.0438 60.872 63.8446 60.9358 63.725C61.5443 62.5841 63.2374 61.871 63.9992 61.871V51.3379C62.7909 51.3379 62.108 51.0772 59.7965 50.0343C57.9473 49.2 52.8971 47.2533 50.6032 46.3842C37.3228 42.5047 26.9107 44.9763 21.3296 46.861ZM57.6456 52.9902C49.7516 47.45 34.7746 48.3278 30.7641 49.4754C28.6125 50.0911 25.9225 51.3762 25.6696 54.9267C25.4727 57.6921 25.9689 60.3648 27.0124 63.2254C27.7876 65.3507 31.8111 75.5696 42.8493 75.5696C53.8875 75.5696 57.9875 65.255 58.6339 63.2254C58.9752 62.1537 60.4047 54.9266 57.6456 52.9902Z" fill="#1A1A1A"/>
<path fill-rule="evenodd" clip-rule="evenodd" d="M54.4487 89.6391C53.4114 88.1244 52.4989 86.4989 51.8217 84.7995C54.5859 83.1195 59.0191 81.1912 63.8827 81.1912L63.9841 81.1914V87.6962C63.9503 87.6961 63.9165 87.696 63.8827 87.696C60.4101 87.696 57.1634 88.5383 54.4487 89.6391ZM56.3554 92.1531C59.0409 95.3769 62.0601 97.8732 63.9841 99.1655V90.7292C63.9503 90.729 63.9165 90.729 63.8827 90.729C61.1676 90.729 58.5867 91.3299 56.3554 92.1531ZM63.9851 90.7292V99.1659C65.9009 97.8791 68.9025 95.3985 71.5793 92.1946C69.317 91.3602 66.7081 90.7444 63.9851 90.7292ZM73.4912 89.6821C74.5344 88.1642 75.4531 86.5343 76.1354 84.8298C73.3223 83.1508 68.8348 81.2183 63.9851 81.1914V87.6962C67.4654 87.7128 70.7444 88.5719 73.4912 89.6821ZM63.8827 78.1582C58.7272 78.1582 54.0695 80.0148 50.9113 81.8174C50.8919 81.7251 50.8733 81.6326 50.8556 81.54C48.92 71.4324 59.0188 69.177 63.9841 69.177V78.1584L63.8827 78.1582ZM63.9851 78.1584C69.1401 78.183 73.8533 80.0558 77.0499 81.8556C77.0722 81.7507 77.0934 81.6456 77.1135 81.5403C79.0492 71.4327 68.9503 69.1773 63.9851 69.1773V78.1584Z" fill="#1A1A1A"/>
<path d="M70.3542 52.9911C78.2483 47.4508 93.2252 48.3286 97.2357 49.4763C99.3873 50.092 102.077 51.377 102.33 54.9275C102.527 57.6929 102.031 60.3657 100.987 63.2263C100.212 65.3515 96.1887 75.5705 85.1505 75.5705C74.1124 75.5705 70.0123 65.2558 69.366 63.2263C69.0247 62.1545 67.5951 54.9275 70.3542 52.9911Z" fill="white"/>
<path d="M57.6458 52.9911C49.7517 47.4508 34.7748 48.3286 30.7643 49.4763C28.6127 50.092 25.9227 51.377 25.6698 54.9275C25.4729 57.6929 25.9691 60.3657 27.0126 63.2263C27.7878 65.3515 31.8113 75.5705 42.8495 75.5705C53.8876 75.5705 57.9877 65.2558 58.634 63.2263C58.9753 62.1545 60.4049 54.9275 57.6458 52.9911Z" fill="white"/>
<mask id="mask0_1333_1884" style="mask-type:alpha" maskUnits="userSpaceOnUse" x="25" y="48" width="35" height="28">
<path d="M57.6458 52.9911C49.7517 47.4508 34.7748 48.3286 30.7643 49.4763C28.6127 50.092 25.9227 51.377 25.6698 54.9275C25.4729 57.6929 25.9691 60.3657 27.0126 63.2263C27.7878 65.3515 31.8113 75.5705 42.8495 75.5705C53.8876 75.5705 57.9877 65.2558 58.634 63.2263C58.9753 62.1545 60.4049 54.9275 57.6458 52.9911Z" fill="white"/>
</mask>
<g mask="url(#mask0_1333_1884)">
<path d="M27.6025 67.4816L48.4956 46.7433L55.1227 50.1211L32.1408 72.9352L27.6025 67.4816Z" fill="#F4F4F4"/>
<path d="M34.9736 73.9863L57.7052 51.423L58.5963 52.7572L35.6135 75.5703L34.9736 73.9863Z" fill="#F4F4F4"/>
</g>
<mask id="mask1_1333_1884" style="mask-type:alpha" maskUnits="userSpaceOnUse" x="68" y="48" width="35" height="28">
<path d="M70.3537 52.9908C78.2478 47.4506 93.2247 48.3284 97.2352 49.476C99.3868 50.0917 102.077 51.3768 102.33 54.9273C102.527 57.6927 102.03 60.3654 100.987 63.226C100.212 65.3512 96.1882 75.5702 85.15 75.5702C74.1119 75.5702 70.0118 65.2556 69.3655 63.226C69.0242 62.1543 67.5946 54.9272 70.3537 52.9908Z" fill="white"/>
</mask>
<g mask="url(#mask1_1333_1884)">
<path d="M69.8183 66.8806L91.0542 45.8019L98.3671 48.4991L74.3566 72.3341L69.8183 66.8806Z" fill="#F4F4F4"/>
<path d="M77.5331 73.0449L101.293 49.801L102.184 51.1351L78.1731 74.6289L77.5331 73.0449Z" fill="#F4F4F4"/>
</g>
<path fill-rule="evenodd" clip-rule="evenodd" d="M58.1708 43.6777C60.2537 43.6777 61.9423 42.0016 61.9423 39.9342C61.9423 37.8667 60.2537 36.1907 58.1708 36.1907C56.0879 36.1907 54.3994 37.8667 54.3994 39.9342C54.3994 42.0016 56.0879 43.6777 58.1708 43.6777ZM69.8279 43.6778C71.9108 43.6778 73.5993 42.0018 73.5993 39.9343C73.5993 37.8669 71.9108 36.1908 69.8279 36.1908C67.745 36.1908 66.0564 37.8669 66.0564 39.9343C66.0564 42.0018 67.745 43.6778 69.8279 43.6778Z" fill="#1D1D1B"/>
</svg>
