<svg width="260" height="80" viewBox="0 0 260 80" fill="none" xmlns="http://www.w3.org/2000/svg">
<path d="M-1.74005e-06 40L23 -1.01022e-06L69 -3.03066e-06L92 40L69 80L23 80L-1.74005e-06 40Z" fill="#FFD200"/>
<path fill-rule="evenodd" clip-rule="evenodd" d="M14.5449 26.6127L15.5559 28.2635C14.4761 28.823 14.5449 30.5165 14.9092 32.1199C15.3191 33.9235 16.0864 36.746 16.9698 39.1978C17.6261 41.0193 21.0326 49.7777 30.378 49.7777C38.9396 49.7777 42.5597 41.7912 43.5379 39.6333C43.6274 39.4357 43.6948 39.287 43.7418 39.1978C44.1904 38.3464 45.4384 37.8143 46 37.8142C46.5517 37.8142 47.8097 38.3464 48.2583 39.1978C48.3053 39.2871 48.3727 39.4357 48.4622 39.6333C49.4404 41.7912 53.0605 49.7778 61.6221 49.7778C70.9675 49.7778 74.3739 41.0193 75.0303 39.1978C75.9137 36.746 76.681 33.9236 77.0908 32.1199C77.4552 30.5165 77.524 28.823 76.4442 28.2635L77.4552 26.6127C73.3409 25.2063 65.6653 23.3618 55.8753 26.2569C54.1842 26.9055 50.4613 28.3583 49.0981 28.9809C47.3942 29.7591 46.8907 29.9537 46.0001 29.9537C45.1093 29.9537 44.6059 29.7591 42.9019 28.9809C41.5388 28.3582 37.8159 26.9055 36.1248 26.2569C26.3348 23.3618 18.6592 25.2062 14.5449 26.6127ZM41.3156 31.1874C35.4963 27.0528 24.4556 27.7079 21.4991 28.5643C19.913 29.0238 17.93 29.9828 17.7436 32.6324C17.5984 34.6962 17.9642 36.6908 18.7334 38.8255C19.3049 40.4115 22.271 48.0376 30.4081 48.0376C38.5452 48.0376 41.5677 40.3402 42.0441 38.8255C42.2957 38.0257 43.3496 32.6324 41.3156 31.1874ZM50.6845 31.1874C56.5039 27.0528 67.5445 27.7079 70.501 28.5644C72.0872 29.0239 74.0702 29.9828 74.2565 32.6325C74.4017 34.6962 74.0359 36.6908 73.2667 38.8256C72.6952 40.4115 69.7292 48.0376 61.5921 48.0376C53.455 48.0376 50.4325 40.3402 49.956 38.8256C49.7044 38.0258 48.6506 32.6324 50.6845 31.1874Z" fill="#1A1A1A"/>
<path fill-rule="evenodd" clip-rule="evenodd" d="M38.741 58.2082C38.1384 57.2827 37.6009 56.305 37.1713 55.2896C39.1528 54.0584 42.3816 52.6171 45.9134 52.6171L45.9883 52.6174V56.7021C45.9633 56.7019 45.9383 56.7019 45.9134 56.7019C43.2662 56.7019 40.7976 57.3565 38.741 58.2082ZM40.6277 60.7276C42.5389 62.981 44.6324 64.724 45.9883 65.6459V59.7351L45.9883 65.6459C47.338 64.7282 49.4187 62.9968 51.3229 60.7582C49.7236 60.1733 47.8927 59.746 45.9883 59.7351C45.9633 59.7349 45.9383 59.7349 45.9134 59.7349C44.0151 59.7349 42.2043 60.1512 40.6277 60.7276ZM53.2146 58.2403C53.8215 57.3118 54.3631 56.3305 54.7961 55.3111C52.7765 54.0799 49.508 52.6376 45.9883 52.6174V56.7021C48.6414 56.7144 51.1343 57.3817 53.2146 58.2403ZM45.9134 49.5842C42.0959 49.5842 38.6497 50.9456 36.2748 52.2961C35.0131 44.9202 42.3599 43.2664 45.9883 43.2664V49.5843L45.9134 49.5842ZM45.9883 49.5843C49.8072 49.6021 53.2942 50.9769 55.6966 52.3258C56.9831 44.9247 49.6214 43.2664 45.9883 43.2664V49.5843Z" fill="#1A1A1A"/>
<path d="M50.6843 31.1873C56.5037 27.0527 67.5443 27.7078 70.5008 28.5643C72.087 29.0238 74.0699 29.9827 74.2563 32.6324C74.4015 34.6961 74.0357 36.6907 73.2665 38.8255C72.695 40.4115 69.7289 48.0376 61.5919 48.0376C53.4548 48.0376 50.4323 40.3401 49.9558 38.8255C49.7042 38.0257 48.6504 32.6323 50.6843 31.1873Z" fill="white"/>
<path d="M41.3157 31.1873C35.4963 27.0527 24.4557 27.7078 21.4992 28.5643C19.913 29.0238 17.9301 29.9827 17.7437 32.6324C17.5985 34.6961 17.9643 36.6907 18.7335 38.8255C19.305 40.4115 22.2711 48.0376 30.4081 48.0376C38.5452 48.0376 41.5677 40.3401 42.0442 38.8255C42.2958 38.0257 43.3496 32.6323 41.3157 31.1873Z" fill="white"/>
<mask id="mask0_1113_1399" style="mask-type:alpha" maskUnits="userSpaceOnUse" x="17" y="27" width="26" height="22">
<path d="M41.3157 31.1873C35.4963 27.0527 24.4557 27.7078 21.4992 28.5643C19.913 29.0238 17.9301 29.9827 17.7437 32.6324C17.5985 34.6961 17.9643 36.6907 18.7335 38.8255C19.305 40.4115 22.2711 48.0376 30.4081 48.0376C38.5452 48.0376 41.5677 40.3401 42.0442 38.8255C42.2958 38.0257 43.3496 32.6323 41.3157 31.1873Z" fill="white"/>
</mask>
<g mask="url(#mask0_1113_1399)">
<path d="M19.1687 42.0009L34.5707 26.5246L39.4561 29.0453L22.5143 46.0708L19.1687 42.0009Z" fill="#F4F4F4"/>
<path d="M24.6023 46.8554L41.3597 30.0172L42.0166 31.0128L25.0741 48.0375L24.6023 46.8554Z" fill="#F4F4F4"/>
</g>
<mask id="mask1_1113_1399" style="mask-type:alpha" maskUnits="userSpaceOnUse" x="49" y="27" width="26" height="22">
<path d="M50.6843 31.1873C56.5037 27.0527 67.5443 27.7078 70.5008 28.5643C72.087 29.0238 74.0699 29.9827 74.2563 32.6324C74.4015 34.6961 74.0357 36.6907 73.2665 38.8255C72.695 40.4115 69.7289 48.0376 61.5919 48.0376C53.4548 48.0376 50.4323 40.3401 49.9558 38.8255C49.7042 38.0257 48.6504 32.6323 50.6843 31.1873Z" fill="white"/>
</mask>
<g mask="url(#mask1_1113_1399)">
<path d="M50.2893 41.5525L65.9441 25.8221L71.3349 27.8349L53.6349 45.6223L50.2893 41.5525Z" fill="#F4F4F4"/>
<path d="M55.9759 46.1528L73.4914 28.8066L74.1483 29.8022L56.4476 47.3349L55.9759 46.1528Z" fill="#F4F4F4"/>
</g>
<path fill-rule="evenodd" clip-rule="evenodd" d="M50.2965 24.237C51.8319 24.237 53.0767 22.9862 53.0767 21.4433C53.0767 19.9004 51.8319 18.6497 50.2965 18.6497C48.761 18.6497 47.5162 19.9004 47.5162 21.4433C47.5162 22.9862 48.761 24.237 50.2965 24.237ZM41.7031 24.2371C43.2385 24.2371 44.4833 22.9863 44.4833 21.4434C44.4833 19.9005 43.2385 18.6498 41.7031 18.6498C40.1676 18.6498 38.9229 19.9005 38.9229 21.4434C38.9229 22.9863 40.1676 24.2371 41.7031 24.2371Z" fill="#1D1D1B"/>
<path d="M124.026 48.2632C123.211 48.9123 122.178 49.4262 120.927 49.8048C119.704 50.1835 118.399 50.3728 117.012 50.3728C115.463 50.3728 114.117 50.1294 112.975 49.6425C111.833 49.1287 110.895 48.4119 110.161 47.4923C109.427 46.5457 108.884 45.4232 108.53 44.125C108.177 42.8268 108 41.3662 108 39.7434C108 36.2814 108.775 33.6444 110.324 31.8322C111.874 30.0201 114.09 29.114 116.971 29.114C117.896 29.114 118.82 29.2222 119.744 29.4386C120.669 29.6279 121.498 30.0066 122.232 30.5746C122.966 31.1425 123.564 31.9539 124.026 33.0088C124.488 34.0365 124.72 35.4024 124.72 37.1064C124.72 37.9989 124.638 38.9861 124.475 40.068H111.385C111.385 41.258 111.507 42.3129 111.752 43.2325C111.996 44.152 112.377 44.9364 112.894 45.5855C113.41 46.2076 114.076 46.6944 114.892 47.0461C115.734 47.3706 116.754 47.5329 117.95 47.5329C118.874 47.5329 119.799 47.3706 120.723 47.0461C121.647 46.7215 122.341 46.3428 122.803 45.9101L124.026 48.2632ZM117.012 31.9539C115.408 31.9539 114.117 32.3732 113.138 33.2116C112.187 34.0501 111.616 35.4836 111.425 37.5121H121.539C121.539 35.4565 121.145 34.023 120.356 33.2116C119.568 32.3732 118.453 31.9539 117.012 31.9539Z" fill="#1D1D1B"/>
<path d="M148.445 48.7094C147.63 49.3315 146.597 49.7643 145.346 50.0077C144.096 50.2511 142.763 50.3728 141.35 50.3728C139.637 50.3728 138.033 50.0888 136.538 49.5208C135.043 48.9258 133.738 48.0333 132.623 46.8432C131.508 45.6531 130.625 44.1385 129.972 42.2993C129.32 40.4331 128.994 38.2288 128.994 35.6864C128.994 33.0358 129.347 30.7909 130.054 28.9518C130.788 27.0855 131.739 25.5709 132.908 24.4079C134.105 23.2178 135.437 22.3523 136.905 21.8114C138.373 21.2705 139.868 21 141.391 21C143.022 21 144.354 21.0947 145.387 21.284C146.42 21.4463 147.304 21.6762 148.038 21.9737L147.222 24.9353C145.917 24.3132 144.055 24.0022 141.635 24.0022C140.521 24.0022 139.42 24.205 138.332 24.6107C137.245 25.0164 136.266 25.6791 135.396 26.5987C134.553 27.5183 133.874 28.7219 133.357 30.2094C132.841 31.697 132.582 33.5227 132.582 35.6864C132.582 37.6338 132.827 39.3377 133.316 40.7982C133.806 42.2588 134.472 43.4759 135.314 44.4496C136.184 45.4232 137.19 46.1535 138.332 46.6404C139.501 47.1272 140.765 47.3706 142.125 47.3706C143.348 47.3706 144.408 47.2489 145.305 47.0055C146.23 46.7621 147.005 46.451 147.63 46.0724L148.445 48.7094Z" fill="#1D1D1B"/>
<path d="M152.144 31.102C153.177 30.4799 154.373 30.0201 155.732 29.7226C157.119 29.4251 158.56 29.2763 160.055 29.2763C161.468 29.2763 162.597 29.4656 163.439 29.8443C164.309 30.223 164.962 30.7233 165.397 31.3454C165.859 31.9404 166.158 32.6031 166.294 33.3333C166.457 34.0636 166.539 34.7939 166.539 35.5241C166.539 37.1469 166.498 38.7292 166.416 40.2708C166.335 41.8125 166.294 43.273 166.294 44.6524C166.294 45.6531 166.335 46.5998 166.416 47.4923C166.498 48.3849 166.647 49.2098 166.865 49.9671H164.459L163.603 47.1272H163.399C163.154 47.5058 162.841 47.8845 162.461 48.2632C162.107 48.6148 161.672 48.9393 161.156 49.2368C160.639 49.5073 160.041 49.7372 159.362 49.9265C158.682 50.1159 157.907 50.2105 157.037 50.2105C156.167 50.2105 155.352 50.0753 154.59 49.8048C153.856 49.5344 153.217 49.1557 152.674 48.6689C152.13 48.155 151.695 47.5464 151.369 46.8432C151.07 46.14 150.92 45.3421 150.92 44.4496C150.92 43.2595 151.165 42.2723 151.654 41.4879C152.144 40.6765 152.823 40.0409 153.693 39.5811C154.59 39.0943 155.651 38.7562 156.874 38.5669C158.125 38.3505 159.497 38.2423 160.993 38.2423C161.373 38.2423 161.74 38.2423 162.094 38.2423C162.474 38.2423 162.855 38.2694 163.236 38.3235C163.317 37.5121 163.358 36.7818 163.358 36.1327C163.358 34.6451 163.059 33.6038 162.461 33.0088C161.863 32.4137 160.775 32.1162 159.198 32.1162C158.736 32.1162 158.233 32.1568 157.69 32.2379C157.173 32.292 156.629 32.3867 156.058 32.5219C155.515 32.6301 154.985 32.7789 154.468 32.9682C153.979 33.1305 153.544 33.3198 153.163 33.5362L152.144 31.102ZM157.934 47.3706C158.695 47.3706 159.375 47.276 159.973 47.0866C160.571 46.8702 161.088 46.6133 161.523 46.3158C161.958 45.9912 162.311 45.6396 162.583 45.261C162.882 44.8823 163.1 44.5172 163.236 44.1656V40.7982C162.855 40.7712 162.461 40.7577 162.053 40.7577C161.672 40.7306 161.292 40.7171 160.911 40.7171C160.068 40.7171 159.239 40.7712 158.424 40.8794C157.635 40.9605 156.928 41.1363 156.303 41.4068C155.705 41.6502 155.216 42.0018 154.835 42.4616C154.482 42.8944 154.305 43.4488 154.305 44.125C154.305 45.0716 154.645 45.856 155.324 46.4781C156.004 47.0731 156.874 47.3706 157.934 47.3706Z" fill="#1D1D1B"/>
<path d="M172.7 29.6009H174.943L175.555 32.0351H175.718C176.343 31.0884 177.145 30.3717 178.124 29.8849C179.13 29.371 180.272 29.114 181.549 29.114C184.268 29.114 186.293 29.9119 187.625 31.5077C188.958 33.1034 189.624 35.7135 189.624 39.3377C189.624 41.0417 189.392 42.5833 188.93 43.9627C188.495 45.3151 187.87 46.4645 187.054 47.4112C186.239 48.3578 185.247 49.0881 184.078 49.602C182.936 50.1159 181.658 50.3728 180.244 50.3728C179.238 50.3728 178.436 50.3052 177.838 50.17C177.267 50.0618 176.642 49.8589 175.963 49.5614V58H172.7V29.6009ZM180.938 31.9539C179.551 31.9539 178.45 32.3191 177.634 33.0493C176.846 33.7526 176.289 34.8344 175.963 36.295V46.3564C176.452 46.735 177.009 47.0325 177.634 47.2489C178.26 47.4382 179.089 47.5329 180.122 47.5329C181.998 47.5329 183.479 46.8432 184.567 45.4638C185.682 44.0574 186.239 42.0018 186.239 39.2971C186.239 38.1882 186.144 37.1875 185.953 36.295C185.763 35.3754 185.45 34.6045 185.016 33.9825C184.608 33.3333 184.064 32.833 183.384 32.4814C182.732 32.1297 181.916 31.9539 180.938 31.9539Z" fill="#1D1D1B"/>
<path d="M192.071 29.6009H195.252V25.5844L198.514 24.6513V29.6009H204.06V32.4408H198.514V43.6787C198.514 45.0852 198.691 46.0859 199.044 46.6809C199.398 47.2489 199.996 47.5329 200.839 47.5329C201.545 47.5329 202.143 47.4653 202.633 47.33C203.122 47.1678 203.666 46.9649 204.264 46.7215L204.998 49.1963C204.264 49.5479 203.462 49.8319 202.592 50.0482C201.722 50.2646 200.784 50.3728 199.778 50.3728C198.12 50.3728 196.951 49.913 196.271 48.9934C195.592 48.0468 195.252 46.4781 195.252 44.2873V32.4408H192.071V29.6009Z" fill="#1D1D1B"/>
<path d="M211.517 29.6009V41.1634C211.517 42.2182 211.572 43.1513 211.68 43.9627C211.816 44.7471 212.034 45.4097 212.333 45.9507C212.632 46.4645 213.04 46.8567 213.556 47.1272C214.073 47.3977 214.725 47.5329 215.514 47.5329C216.248 47.5329 216.9 47.4247 217.471 47.2083C218.042 46.9649 218.545 46.6404 218.98 46.2346C219.442 45.8289 219.836 45.3692 220.162 44.8553C220.516 44.3143 220.801 43.7463 221.019 43.1513V29.6009H224.281V44.125C224.281 45.0987 224.308 46.1129 224.363 47.1678C224.444 48.1955 224.567 49.1016 224.73 49.886H222.487L221.671 46.6809H221.467C220.842 47.7357 219.999 48.6148 218.939 49.318C217.879 50.0212 216.533 50.3728 214.902 50.3728C213.814 50.3728 212.849 50.2376 212.007 49.9671C211.191 49.7237 210.498 49.2774 209.927 48.6283C209.383 47.9792 208.962 47.1137 208.663 46.0318C208.391 44.9229 208.255 43.53 208.255 41.8531V29.6009H211.517Z" fill="#1D1D1B"/>
<path d="M240.188 32.7248C239.372 32.4543 238.597 32.3191 237.863 32.3191C236.694 32.3191 235.77 32.6436 235.09 33.2928C234.411 33.9148 233.989 34.7127 233.826 35.6864V49.886H230.564V29.6009H232.847L233.459 32.0757H233.622C234.139 31.1561 234.75 30.4529 235.457 29.966C236.191 29.4521 237.116 29.1952 238.23 29.1952C239.019 29.1952 239.902 29.3304 240.881 29.6009L240.188 32.7248Z" fill="#1D1D1B"/>
<path d="M259.307 48.2632C258.491 48.9123 257.458 49.4262 256.208 49.8048C254.984 50.1835 253.679 50.3728 252.293 50.3728C250.743 50.3728 249.397 50.1294 248.256 49.6425C247.114 49.1287 246.176 48.4119 245.442 47.4923C244.708 46.5457 244.164 45.4232 243.811 44.125C243.457 42.8268 243.281 41.3662 243.281 39.7434C243.281 36.2814 244.055 33.6444 245.605 31.8322C247.155 30.0201 249.37 29.114 252.252 29.114C253.176 29.114 254.101 29.2222 255.025 29.4386C255.949 29.6279 256.778 30.0066 257.512 30.5746C258.246 31.1425 258.845 31.9539 259.307 33.0088C259.769 34.0365 260 35.4024 260 37.1064C260 37.9989 259.918 38.9861 259.755 40.068H246.665C246.665 41.258 246.788 42.3129 247.032 43.2325C247.277 44.152 247.657 44.9364 248.174 45.5855C248.691 46.2076 249.357 46.6944 250.172 47.0461C251.015 47.3706 252.034 47.5329 253.231 47.5329C254.155 47.5329 255.079 47.3706 256.004 47.0461C256.928 46.7215 257.621 46.3428 258.083 45.9101L259.307 48.2632ZM252.293 31.9539C250.689 31.9539 249.397 32.3732 248.419 33.2116C247.467 34.0501 246.896 35.4836 246.706 37.5121H256.819C256.819 35.4565 256.425 34.023 255.637 33.2116C254.848 32.3732 253.734 31.9539 252.293 31.9539Z" fill="#1D1D1B"/>
</svg>
