<svg width="128" height="128" viewBox="0 0 128 128" fill="none" xmlns="http://www.w3.org/2000/svg">
<rect width="6.63387" height="61.5141" rx="3.21936" transform="matrix(0.704586 -0.709618 0.704586 0.709618 20.2451 30.1649)" fill="#00B4C8"/>
<rect width="6.63387" height="83.8266" rx="3.21936" transform="matrix(0.704586 0.709618 -0.704587 0.709618 103.311 60.6077)" fill="#00B4C8"/>
<rect width="6.63387" height="42.4848" rx="3.21936" transform="matrix(0.704586 -0.709618 0.704586 0.709618 25.043 52.722)" fill="#00B4C8"/>
<path fill-rule="evenodd" clip-rule="evenodd" d="M104.043 46.2622C102.783 45.2197 100.919 45.2912 99.7415 46.4768L29.067 117.656C27.8143 118.918 27.8143 120.963 29.067 122.225L29.2045 122.363C30.4573 123.625 32.4884 123.625 33.7411 122.363L100.585 55.0425C102.972 54.5605 107.93 53.6109 113.6 52.6786C111.829 50.5184 106.686 47.603 104.043 46.2622Z" fill="#00B4C8"/>
<rect width="6.63387" height="80.2095" rx="3.21936" transform="matrix(0.704707 -0.709499 0.704707 0.709499 16 7.90662)" fill="#00B4C8"/>
<path fill-rule="evenodd" clip-rule="evenodd" d="M105.602 80.8529C104.349 79.5912 102.318 79.5912 101.065 80.8529L79.4626 102.61C79.336 102.704 79.2147 102.809 79.1 102.924L78.9625 103.063C77.7098 104.325 77.7098 106.37 78.9625 107.632L93.5257 122.299C93.8514 122.751 94.2916 123.115 94.8038 123.349C95.42 123.657 96.1141 123.754 96.779 123.638H103.522C105.3 123.638 106.741 122.197 106.741 120.419V120.2C106.741 118.422 105.3 116.981 103.522 116.981H97.5935L88.1949 107.515L88.1966 107.514L87.0798 106.389C86.523 105.828 86.523 104.919 87.0798 104.358L88.1966 103.233L88.1941 103.231L105.739 85.5604C106.992 84.2987 106.992 82.2531 105.739 80.9914L105.602 80.8529Z" fill="#00B4C8"/>
</svg>
