<svg width="260" height="80" viewBox="0 0 260 80" fill="none" xmlns="http://www.w3.org/2000/svg">
<path d="M80.9316 32.8151V77.5938H88.5401V58.5179H106.47V52.4477H88.5401V38.7812H109.567V32.8151H80.9316Z" fill="#00B4C8"/>
<rect width="4.14457" height="38.4315" rx="2.07228" transform="matrix(0.70431 -0.709893 0.70431 0.709893 2.65088 18.853)" fill="#00B4C8"/>
<rect width="4.14457" height="52.3714" rx="2.07228" transform="matrix(0.70431 0.709893 -0.70431 0.709893 54.5269 37.8798)" fill="#00B4C8"/>
<rect width="4.14457" height="26.5427" rx="2.07228" transform="matrix(0.70431 -0.709893 0.70431 0.709893 5.64746 32.9512)" fill="#00B4C8"/>
<path fill-rule="evenodd" clip-rule="evenodd" d="M54.9526 28.8979C54.144 28.2851 52.9905 28.3496 52.2545 29.0914L8.20319 73.4919C7.39711 74.3043 7.39711 75.6216 8.20319 76.4341C9.00927 77.2465 10.3162 77.2465 11.1222 76.4341L52.8239 34.4018C54.3147 34.1006 57.4111 33.507 60.9526 32.9243C59.8395 31.5654 56.5934 29.7285 54.9526 28.8979Z" fill="#00B4C8"/>
<rect width="4.14456" height="50.1115" rx="2.07228" transform="matrix(0.70443 -0.709773 0.70443 0.709773 0 4.94165)" fill="#00B4C8"/>
<path fill-rule="evenodd" clip-rule="evenodd" d="M56.0002 50.5763C55.1941 49.7638 53.8872 49.7638 53.0812 50.5763L39.593 64.1713C39.5131 64.2313 39.4364 64.2978 39.3638 64.371C38.5578 65.1835 38.5578 66.5007 39.3638 67.3132L48.6458 76.6688C49.0825 77.1089 49.6661 77.3106 50.2375 77.2739H54.5883C55.7373 77.2739 56.6687 76.3424 56.6687 75.1934C56.6687 74.0444 55.7373 73.113 54.5883 73.113H50.9561L45.0865 67.1968L45.0873 67.196L44.8179 66.9244C44.2338 66.3357 44.2338 65.3811 44.8179 64.7924L45.0873 64.5208L45.0859 64.5193L56.0002 53.5185C56.8063 52.706 56.8063 51.3887 56.0002 50.5763Z" fill="#00B4C8"/>
<path fill-rule="evenodd" clip-rule="evenodd" d="M111.71 46.2819C113.342 45.7708 117.434 44.7485 120.743 44.7485C124.879 44.7485 133.768 45.5631 133.768 55.6256V76.038C131.391 76.5012 125.459 77.4276 120.743 77.4276C114.848 77.4276 108.667 75.1276 108.667 67.3651C108.667 59.6027 117.035 55.8172 126.733 58.3568C126.733 51.936 124.831 49.2048 112.708 51.9839C112.214 49.2623 111.837 47.0485 111.71 46.2819ZM126.849 63.3447V71.3833C123.214 72.1336 115.943 72.368 115.943 67.3037C115.943 62.2394 123.214 62.5542 126.849 63.3447Z" fill="#00B4C8"/>
<path d="M141.105 69.1347V31.6431L148.265 30.3538V66.8609C148.265 70.2079 151.344 71.2609 152.884 71.369C152.765 72.0237 152.382 74.1396 151.807 77.3652C143.027 77.3652 141.014 71.8782 141.105 69.1347Z" fill="#00B4C8"/>
<path d="M179.851 76.0877L178.807 70.0173C178.097 70.3195 162.975 75.6574 162.975 61.1143C162.975 49.4798 172.812 50.3769 177.731 52.2797C177.89 51.7984 178.417 49.9521 179.25 46.4169C166.314 41.8229 155.616 48.0548 155.616 61.1143C155.616 79.3147 171.773 78.6801 179.851 76.0877Z" fill="#00B4C8"/>
<path fill-rule="evenodd" clip-rule="evenodd" d="M197.398 44.8472C202.369 44.8472 212 47.8069 212 60.8119C212 73.8168 202.265 77.4579 197.398 77.6528C192.325 77.8283 182.18 74.7057 182.18 60.8119C182.18 47.8302 192.158 44.8472 197.398 44.8472ZM197.251 51.2006C199.85 51.2006 204.885 53.0141 204.885 60.9829C204.885 68.9516 199.796 71.1827 197.251 71.3021C194.598 71.4096 189.294 69.4963 189.294 60.9829C189.294 53.0284 194.511 51.2006 197.251 51.2006Z" fill="#00B4C8"/>
</svg>
