<svg width="130" height="130" viewBox="0 0 130 130" fill="none" xmlns="http://www.w3.org/2000/svg">
<path fill-rule="evenodd" clip-rule="evenodd" d="M84.5141 11.2181C82.8958 13.683 81.2775 16.1479 79.6593 18.6128C87.3313 27.483 95.0033 36.3533 102.675 45.2236C103.756 40.8212 104.546 45.6235 105.429 47.4848C107.793 52.8103 108.162 58.7446 108.899 64.4428C110.294 75.2274 109.835 81.5397 108.841 87.4246C105.623 106.494 94.2068 117.624 83.3031 124.033C79.5732 126.225 75.9834 127.757 70.7179 128.473C65.2923 129.21 59.9763 128.919 54.5296 127.861C50.0329 126.989 45.5102 125.518 41.3571 123.622C34.7351 120.599 29.2692 115.367 24.9908 109.627C20.8517 104.075 18.2409 97.4485 16.2581 90.8087C12.6514 78.7315 11.1265 65.8701 14.0034 53.4459C15.7966 45.7015 18.3823 38.0322 21.9185 30.9607C25.671 23.4565 30.9455 16.66 37.3302 11.0245C41.1643 7.64021 45.3321 4.52172 50.0243 2.63928C53.4663 1.25842 57.1098 0.947294 60.8711 1.19437C64.5901 1.43866 68.14 1.85369 71.6831 3.10874C76.5044 4.8166 81.048 7.488 84.5141 11.2181Z" fill="#FFCFAB"/>
<path fill-rule="evenodd" clip-rule="evenodd" d="M60.7969 2.3096C57.1423 2.06953 53.6812 2.3775 50.4453 3.67569C45.9293 5.48741 41.875 8.50771 38.0769 11.8601C31.7969 17.4033 26.6121 24.0858 22.9254 31.4582C19.4353 38.4377 16.8764 46.0216 15.0992 53.6967C12.2797 65.8732 13.7638 78.5291 17.3361 90.4911C19.3041 97.0812 21.8696 103.563 25.8944 108.962C30.1032 114.609 35.4323 119.688 41.8265 122.607C45.9017 124.467 50.3393 125.91 54.7451 126.765C60.092 127.803 65.2822 128.084 70.5656 127.366C75.6528 126.675 79.101 125.204 82.7306 123.071C93.4307 116.783 104.583 105.902 107.732 87.2401C108.707 81.4657 109.165 75.2637 107.784 64.5855C107.661 63.6409 107.55 62.699 107.439 61.7619C106.867 56.9404 106.31 52.2445 104.405 47.948C104.164 47.4362 103.939 46.7625 103.742 46.1727L103.711 46.0799C103.694 46.0285 103.677 45.9779 103.66 45.9279L103.249 47.6018L78.2562 18.7051L83.0851 11.3499C79.8491 8.10241 75.7159 5.72383 71.3055 4.16153C67.9115 2.95926 64.4862 2.55194 60.7969 2.3096ZM102.289 43.0627C102.429 42.8508 102.616 42.6413 102.868 42.4943C103.135 42.3388 103.463 42.2613 103.81 42.3223C104.132 42.3788 104.371 42.5367 104.527 42.6712C104.816 42.921 105.008 43.2588 105.132 43.507C105.396 44.0324 105.636 44.7508 105.842 45.3663L105.845 45.3749L105.847 45.3806C106.07 46.0485 106.261 46.6193 106.446 47.0085L106.452 47.0212L106.458 47.034C108.516 51.6699 109.116 56.7627 109.684 61.5866C109.792 62.5026 109.899 63.4089 110.014 64.3005C111.423 75.1915 110.962 81.6142 109.95 87.6097C106.663 107.087 94.9829 118.467 83.8755 124.995C80.0455 127.246 76.314 128.841 70.8703 129.58C65.3024 130.337 59.8606 130.035 54.314 128.958C49.7265 128.068 45.1188 126.569 40.8877 124.638C34.038 121.511 28.4352 116.126 24.0872 110.293C19.8338 104.587 17.1777 97.8162 15.1801 91.1269C11.539 78.9343 9.97331 65.8675 12.9075 53.1956C14.7169 45.3818 17.3293 37.6272 20.9115 30.4637C24.73 22.8276 30.0941 15.9172 36.5834 10.1893C40.4536 6.77318 44.7348 3.5565 49.6034 1.60334C53.2514 0.139824 57.0773 -0.174471 60.9453 0.0796101C64.694 0.325856 68.3686 0.748587 72.0606 2.05643C77.014 3.81106 81.7253 6.57001 85.3402 10.4602L85.9346 11.0998L81.0624 18.5209L102.289 43.0627Z" fill="black"/>
<path fill-rule="evenodd" clip-rule="evenodd" d="M48.8028 43.3803L46.1313 36.6252L49.0082 35.1924L54.7625 34.3734L65.4487 21.2728L71.4081 22.0917L75.3126 20.0446L78.1897 19.4305L73.6687 29.256L64.8321 30.2796L48.8028 43.3803Z" fill="#F39105"/>
<path fill-rule="evenodd" clip-rule="evenodd" d="M78.6601 19.0557L73.8515 29.5061L64.9426 30.5381L48.6872 43.8235L45.7891 36.4954L48.9263 34.9329L54.6191 34.1227L65.3345 20.9862L71.3589 21.814L75.2193 19.79L78.6601 19.0557ZM75.4059 20.3003L71.4573 22.3705L65.5628 21.5605L54.9059 34.6252L49.0902 35.4529L46.4737 36.7561L48.9185 42.9381L64.7217 30.0222L73.486 29.007L77.7194 19.8065L75.4059 20.3003Z" fill="black"/>
<path fill-rule="evenodd" clip-rule="evenodd" d="M87.2315 15.9509L91.9582 21.887L93.1912 23.9342L84.1489 20.8636L85.1765 17.9979L87.2315 15.9509Z" fill="#FFCFAB"/>
<path fill-rule="evenodd" clip-rule="evenodd" d="M87.2551 15.547L92.1816 21.734L93.8031 24.4262L83.8022 21.0301L84.9423 17.8509L87.2551 15.547ZM85.4113 18.1452L84.4961 20.6974L92.5798 23.4425L91.7353 22.0403L87.2084 16.3551L85.4113 18.1452Z" fill="black"/>
<path fill-rule="evenodd" clip-rule="evenodd" d="M83.7382 20.4541L88.2592 22.9105L92.9856 24.3433L86.6151 27.8233L81.8886 27.4138L81.4775 24.1387L83.7382 20.4541Z" fill="#F39A05"/>
<path fill-rule="evenodd" clip-rule="evenodd" d="M83.6414 20.0951L88.3646 22.6613L93.6778 24.272L86.6734 28.0983L81.6471 27.6628L81.1973 24.0788L83.6414 20.0951ZM83.8348 20.8131L81.7577 24.1985L82.13 27.1648L86.5567 27.5483L92.2933 24.4146L88.1536 23.1597L83.8348 20.8131Z" fill="black"/>
<path fill-rule="evenodd" clip-rule="evenodd" d="M49.0078 43.7902L52.296 49.1124L49.0078 57.5049L56.8171 58.938L58.4609 60.5754L63.393 68.1492L79.0112 59.9613L83.6607 61.2408L88.67 59.7567L85.1764 56.0721L85.7929 55.0485L87.437 54.0252L88.2589 56.6862L89.6974 59.9613L93.6019 64.6695L94.6295 64.0554L94.8349 60.9849L98.464 60.3485L99.7448 59.3572L102.951 58.9701L103.774 54.9464L101.411 45.2232V41.1291L105.11 40.515L108.398 42.9714L113.125 44.1996L114.974 43.7902L109.426 36.8305L106.015 33.3522L104.083 32.1225L100.384 29.6661L92.7799 30.0754L86.8205 31.5084L81.6827 33.9648L78.6004 33.5553L74.6957 31.7131L73.4626 29.8708L65.4482 29.6661L49.0078 43.7902Z" fill="#AB9A7E"/>
<path fill-rule="evenodd" clip-rule="evenodd" d="M100.459 29.3925L104.229 31.8958L104.233 31.8986L106.188 33.1421L109.63 36.6523L115.455 43.959L113.12 44.476L108.278 43.2179L105.041 40.799L101.682 41.3566V45.1909L104.052 54.941L103.177 59.2134L99.8521 59.6148L98.5775 60.6014L95.0911 61.2128L94.8904 64.2131L93.5417 65.0191L89.4648 60.103L88.005 56.7795L87.282 54.4388L85.9919 55.2418L85.514 56.0354L89.1683 59.8895L83.6637 61.5203L79.0428 60.2487L63.3006 68.5016L58.2495 60.745L56.6853 59.1869L48.6372 57.71L51.9954 49.139L48.6572 43.7358L65.3507 29.3943L73.6104 29.6052L74.8797 31.5018L78.6785 33.2941L81.6386 33.6873L86.7293 31.2534L92.7407 29.8079L100.459 29.3925ZM65.5463 29.9373L49.359 43.8438L52.5973 49.0852L49.379 57.2992L56.9494 58.6885L58.6729 60.4052L63.486 67.7963L78.9802 59.6734L83.6582 60.9607L88.1723 59.6233L84.8393 56.1082L85.5944 54.8546L87.5925 53.611L88.5134 56.5924L89.9305 59.819L93.6626 64.3193L94.3691 63.897L94.5792 60.7564L98.351 60.095L99.6379 59.0989L102.725 58.7262L103.497 54.951L101.141 45.2549V40.9011L105.18 40.2305L108.518 42.7244L113.13 43.9227L114.494 43.6206L109.223 37.0079L105.843 33.5617L103.932 32.3459L100.308 29.9392L92.8197 30.3422L86.9123 31.7628L81.7274 34.2417L78.5229 33.816L74.5121 31.9237L73.3154 30.1357L65.5463 29.9373Z" fill="black"/>
<path fill-rule="evenodd" clip-rule="evenodd" d="M87.4373 53.8202L88.4647 56.4814L87.8482 58.1189L84.7656 56.2766L85.5878 54.8438L87.4373 53.8202Z" fill="white"/>
<path fill-rule="evenodd" clip-rule="evenodd" d="M87.5781 53.4346L88.7539 56.4804L87.9874 58.5162L84.3994 56.3718L85.39 54.6455L87.5781 53.4346ZM85.7853 55.0424L85.1315 56.1817L87.7086 57.7219L88.1752 56.4828L87.2963 54.2062L85.7853 55.0424Z" fill="black"/>
<path fill-rule="evenodd" clip-rule="evenodd" d="M92.1636 42.7668L95.4516 39.9009L97.3011 39.6963L97.9176 40.7196L95.0407 43.7901L93.3966 44.4042L92.1636 42.7668Z" fill="white"/>
<path fill-rule="evenodd" clip-rule="evenodd" d="M97.4439 39.4098L98.2543 40.7548L95.1954 44.0195L93.3016 44.7269L91.7969 42.7286L95.3371 39.6429L97.4439 39.4098ZM95.566 40.1587L92.5302 42.8048L93.4915 44.0813L94.886 43.5605L97.5809 40.6842L97.1582 39.9826L95.566 40.1587Z" fill="black"/>
<path fill-rule="evenodd" clip-rule="evenodd" d="M98.1107 28.5701L88.0537 31.0988L81.4774 33.7598L75.7234 32.1224L73.6685 29.666L79.0114 17.5888L84.0176 11.413L87.2974 10.1194L90.9306 10.8338L94.6947 16.3366L98.6393 18.9681L98.185 19.7641L92.369 17.7935L87.2315 15.5418L82.2994 23.1156L81.272 25.7768L82.094 28.2332L95.4516 25.9814L96.8777 27.162L98.1107 28.5701Z" fill="white"/>
<path fill-rule="evenodd" clip-rule="evenodd" d="M87.2718 9.84009L91.0921 10.5913L94.8892 16.1422L98.9987 18.8837L98.3099 20.0904L92.2707 18.0441L87.3335 15.8802L82.5421 23.238L81.5595 25.7832L82.2777 27.9294L95.5292 25.6955L97.0677 26.9691L98.6039 28.7234L88.1384 31.3548L81.493 34.0438L75.5688 32.358L73.3535 29.7099L78.7783 17.4478L83.8517 11.1891L87.2718 9.84009ZM87.3232 10.3985L84.1838 11.6368L79.2448 17.7296L73.9837 29.6219L75.8783 31.8866L81.4622 33.4756L87.9692 30.8426L97.6178 28.4165L96.688 27.3547L95.3742 26.2671L81.9105 28.5368L80.9848 25.7702L82.057 22.9929L87.1298 15.2031L92.4676 17.5426L98.0603 19.4376L98.2803 19.0523L94.5005 16.5307L90.7693 11.076L87.3232 10.3985Z" fill="black"/>
<path fill-rule="evenodd" clip-rule="evenodd" d="M102.028 30.0748L104.382 33.0768L105.868 33.1185L111.359 39.2028L112.725 40.8527L115.18 39.2863L118.057 32.9407L119.653 27.8957L119.871 23.6694L118.553 22.0918H113.947L110.453 22.9105C110.453 22.9105 107.576 24.3433 108.398 24.3433C109.22 24.3433 113.125 25.5715 113.125 25.5715L114.769 26.7997L115.18 28.642L112.919 33.1453L111.892 34.1689L107.165 31.0984L105.727 30.0748L104.288 29.8702L102.028 30.0748Z" fill="white"/>
<path fill-rule="evenodd" clip-rule="evenodd" d="M113.916 21.8232H118.68L120.147 23.5787L119.922 27.944L118.31 33.037L115.394 39.4699L112.669 41.2085L111.154 39.3784L105.744 33.3844L104.247 33.3424L101.51 29.8521L104.295 29.5999L105.831 29.8183L107.318 30.8768L111.856 33.8245L112.697 32.9866L114.895 28.6076L114.526 26.9553L112.999 25.8145L112.875 25.7758C112.767 25.7424 112.612 25.6945 112.423 25.6371C112.045 25.5223 111.533 25.3693 110.995 25.2163C110.457 25.0632 109.897 24.9109 109.42 24.7971C108.932 24.6802 108.566 24.6126 108.398 24.6126C108.336 24.6126 108.253 24.607 108.177 24.5739C108.136 24.556 108.085 24.5249 108.044 24.471C108 24.4136 107.98 24.3468 107.98 24.2821C107.98 24.1708 108.038 24.0871 108.067 24.0487C108.104 24.0011 108.149 23.9569 108.194 23.9176C108.37 23.7641 108.674 23.5734 108.981 23.3951C109.294 23.2132 109.632 23.032 109.891 22.8968C110.02 22.8291 110.13 22.7726 110.208 22.733L110.299 22.687L110.323 22.6748L110.331 22.6708L110.36 22.6564L113.916 21.8232ZM110.547 23.1653L110.543 23.1669L110.455 23.2118C110.378 23.2506 110.27 23.3061 110.143 23.3727C109.888 23.5062 109.558 23.6832 109.254 23.8594C109.095 23.9519 108.949 24.041 108.826 24.1214C109.037 24.1574 109.285 24.2116 109.547 24.2741C110.034 24.3906 110.603 24.5453 111.144 24.6993C111.686 24.8534 112.201 25.0074 112.581 25.1228C112.771 25.1806 112.927 25.2287 113.036 25.2624L113.162 25.3016L113.206 25.3153L113.251 25.3294L115.012 26.6448L115.465 28.6772L113.142 33.3047L111.928 34.514L107.008 31.3176L105.623 30.3321L104.281 30.1412L102.546 30.2983L104.517 32.8119L105.992 32.8533L111.569 39.0321L112.781 40.4976L114.966 39.1035L117.804 32.8452L119.385 27.8481L119.596 23.7608L118.426 22.3611H113.979L110.547 23.1653Z" fill="black"/>
<path fill-rule="evenodd" clip-rule="evenodd" d="M100.108 54.0074C100.045 53.537 96.8752 54.0074 96.8752 54.0074C96.8752 54.0074 96.3211 55.8891 97.1294 55.8891C97.9377 55.8891 100.172 54.4778 100.108 54.0074Z" fill="white"/>
<path fill-rule="evenodd" clip-rule="evenodd" d="M100.04 53.6188C100.144 53.6549 100.346 53.7475 100.376 53.972C100.398 54.1331 100.321 54.2778 100.256 54.3738C100.184 54.4809 100.082 54.5903 99.9683 54.6965C99.7388 54.9102 99.4253 55.1407 99.0909 55.352C98.7555 55.5638 98.3901 55.7619 98.0529 55.9081C97.7262 56.0497 97.3911 56.1584 97.1293 56.1584C96.9713 56.1584 96.8287 56.1107 96.7132 56.0153C96.6021 55.9233 96.5345 55.8023 96.493 55.6837C96.4123 55.4533 96.4098 55.1724 96.4293 54.9274C96.4494 54.6751 96.4961 54.4265 96.5369 54.2436C96.5574 54.1515 96.5767 54.0747 96.591 54.0204C96.5982 53.9933 96.6041 53.9718 96.6083 53.9568L96.6133 53.9393L96.6147 53.9344L96.6152 53.9325L96.875 54.0078L96.8351 53.7418L96.8448 53.7404L96.872 53.7364L96.9742 53.7221C97.0621 53.71 97.1874 53.6933 97.338 53.6747C97.6386 53.6377 98.0416 53.593 98.4479 53.5632C98.8512 53.5335 99.2694 53.5176 99.5958 53.5411C99.7565 53.5527 99.9137 53.5749 100.04 53.6188ZM96.875 54.0078L96.8351 53.7418L96.6639 53.7672L96.6152 53.9325L96.875 54.0078ZM97.0912 54.249C97.0831 54.2822 97.0744 54.3194 97.0653 54.3599C97.0275 54.5298 96.9862 54.7517 96.9688 54.9698C96.9509 55.1952 96.9614 55.3848 97.0042 55.5071C97.0244 55.5649 97.0462 55.5909 97.0595 55.6019C97.0684 55.6093 97.0853 55.6205 97.1293 55.6205C97.2717 55.6205 97.519 55.5527 97.8365 55.4151C98.1436 55.2819 98.4843 55.0978 98.8006 54.8981C99.1178 54.6977 99.4015 54.4872 99.5983 54.304C99.6804 54.2275 99.7419 54.1608 99.7837 54.1061C99.7262 54.0943 99.6507 54.0843 99.5567 54.0775C99.2709 54.0569 98.8847 54.0704 98.4878 54.0995C98.0936 54.1285 97.7003 54.172 97.4046 54.2085C97.28 54.2238 97.1731 54.2379 97.0912 54.249Z" fill="#9E0000"/>
<path d="M104.294 42.702C104.754 41.9667 105.883 42.0592 107.726 43.1959C109.227 44.0794 111.206 44.2613 113.326 44.406C116.797 44.6431 116.52 44.1289 114.89 42.4934L112.927 40.7389C112.927 40.7389 113.649 41.1555 114.848 40.0521C116.452 38.5751 119.53 31.7784 120.076 26.8852C120.69 21.924 119.871 21.1764 114.549 21.7881C112.366 22.0599 109.737 22.6989 108.645 23.3785C108.645 23.3785 107.086 24.1557 107.325 24.5974C107.564 25.0392 109.637 25.2541 109.637 25.2541C113.526 25.8658 114.591 27.1473 114.591 28.5745C114.591 30.0696 112.571 33.7493 111.615 33.7493C111.274 33.7493 110.046 32.7978 108.886 31.7104C106.566 29.4677 105.318 29.1738 103.074 29.8384C101.813 29.4943 99.9835 29.3135 98.5057 28.4674C98.1436 28.26 98.3737 27.9686 97.6569 27.0714C96.3616 25.4502 95.377 25.5939 94.0124 25.9337C92.3067 26.3415 92.2384 26.3415 93.5348 25.39C94.8311 24.4386 94.7629 24.3026 91.8973 20.5648L89.0317 16.6909L92.4431 18.39C95.9228 20.157 98.9249 20.6327 99.6071 19.5453C99.8801 19.2055 98.9249 18.322 97.4921 17.6424C96.1275 16.9628 94.49 15.3997 93.8759 14.2443C93.1936 13.021 92.3067 11.5938 91.8973 11.0501C90.8739 9.89479 87.3036 9.27272 85.3839 9.99591C83.4266 10.7333 82.2131 12.7151 80.6432 14.7639C79.3177 16.4936 78.5793 17.799 77.9595 18.8498C76.6838 18.5496 74.499 19.4774 73.612 20.2929C72.111 21.6521 71.7698 21.7201 68.836 20.9725C65.9022 20.157 65.561 20.2249 63.9918 21.6521C63.1048 22.5356 60.6486 25.5939 58.5335 28.4483C56.4866 31.3706 54.5762 33.7493 54.3715 33.8173C54.1668 33.8173 52.734 33.9532 51.233 34.0891C49.732 34.225 47.6851 34.6328 46.6617 35.0406C45.0242 35.6522 44.8877 35.9241 45.3653 37.6911C45.7065 38.7105 47.2075 41.8367 48.7768 44.5552L51.5741 49.4484L49.8684 53.5261C48.9132 55.7688 48.2992 57.8756 48.5039 58.1475C48.7085 58.4873 50.6872 58.963 52.9387 59.2349L57.0324 59.7106L60.171 64.4C63.1048 68.8175 63.6286 69.0648 64.6741 68.5456C65.0258 68.3709 66.7209 67.1864 68.9725 66.099C71.224 64.9436 74.2943 63.2446 75.7953 62.2252C77.9193 60.8289 80.0697 60.3546 81.2091 60.7859C81.8999 61.0474 82.2192 61.6416 81.9359 62.565C81.3403 64.4719 81.3675 65.6585 81.6347 66.8956C82.1 67.391 82.7001 67.6173 83.5734 68.2058C86.5843 70.0487 87.7354 70.1767 87.8036 68.2058V66.7106L88.5541 68.2738C89.6458 70.5165 91.4197 69.9048 91.6926 67.1184C91.8973 65.4873 91.4879 64.4 90.3963 63.2446C89.5775 62.3611 89.1513 61.2041 89.4924 61.2041C90.1747 61.2041 92.5114 64.332 92.5114 65.1475C92.5114 65.4194 92.9207 65.6912 93.4666 65.6912C94.49 65.6912 95.2405 64.264 95.2405 62.2931C95.2405 61.5421 97.2763 61.1187 99.176 60.4482C99.683 60.2692 99.6793 60.0157 100.164 59.6851C101.081 59.8764 100.78 59.8889 101.464 59.8405C102.481 59.7685 102.934 59.4831 103.223 59.031C104.656 56.7203 104.861 53.7979 103.769 51.2154C103.223 49.8562 102.746 47.0356 102.814 45.8123C102.814 45.8123 102.879 45.0042 103.179 44.205L104.294 42.702ZM95.2405 53.1863C95.2405 51.8271 94.9676 51.8271 92.5114 53.1183C91.3515 53.73 90.4645 54.6814 90.4645 55.2931C90.4645 56.8562 92.4431 58.8951 93.9442 58.8951C94.6264 58.8951 97.9096 59.5068 98.8045 59.5165C98.7852 59.7766 98.4078 60.0031 98.1587 60.0823C97.1251 60.4113 95.4359 60.2279 94.8311 60.1184C93.7395 59.9825 93.603 60.3223 93.6712 62.2931C93.8077 63.5844 93.6712 64.1961 93.3983 63.6524C93.1936 63.1087 92.2384 61.8854 91.215 60.9339C90.1234 59.9145 89.3728 58.2834 89.2364 56.8562C88.8952 53.662 87.5307 51.2154 84.8015 48.9047C81.9359 46.5261 80.8443 44.6231 81.3901 42.7202C81.663 41.6328 82.2771 41.2251 83.5734 41.2251C85.8932 41.1571 90.2598 39.1862 93.0572 36.8755C96.7415 33.6813 95.5134 33.5454 91.1468 36.6037C87.5307 39.1183 86.5072 39.526 82.4135 39.7299L77.8422 40.0697L80.0937 37.759C81.2536 36.5357 82.2771 35.3124 82.2771 35.0406C82.2771 33.6134 88.5541 30.9629 93.2619 30.4192C99.9483 29.6716 100.289 29.7396 100.699 31.9823C101.176 34.5648 102.677 35.1765 102.268 32.5939C101.995 30.759 101.995 30.759 103.019 31.9823C103.633 32.7299 104.11 34.0891 104.11 35.0406C104.11 35.992 104.315 37.4872 104.52 38.3027C104.861 39.4581 104.52 39.7979 102.746 40.2056L100.494 40.6814L100.972 44.6911C101.176 46.8659 101.859 49.7882 102.405 51.2154C103.428 53.5941 103.223 57.8077 102.063 58.5553C101.79 58.7591 100.085 58.6912 98.379 58.4873C95.5817 58.0795 95.2405 57.8756 95.2405 56.2446V53.1863ZM90.1234 11.0501C90.7374 11.322 91.8291 12.6812 92.5114 14.1084C93.2619 15.5356 94.5582 17.1667 95.377 17.7104C96.2135 18.3024 98.3851 19.1464 98.2602 19.2633C97.9982 19.5087 94.0518 18.2758 91.5562 16.8948C89.6458 15.8074 87.6671 15.0599 87.1895 15.2638C86.6437 15.3997 85.0744 17.3706 83.5734 19.6813C80.5713 24.3026 80.0255 27.9046 82.2088 28.6522C83.5052 29.0599 93.1244 26.7926 94.6947 26.5454C95.8308 26.3665 97.2874 27.4968 97.2874 28.3124C97.2874 28.5842 95.2405 28.992 92.7843 29.1959C89.8504 29.4677 87.1895 30.2153 85.2109 31.3706C81.663 33.3415 79.6161 33.4774 76.8188 32.0503C74.0214 30.6231 74.1578 29.1279 78.1833 21.1084C82.6182 12.0696 85.7567 9.41906 90.1234 11.0501ZM89.7822 19.2735C92.716 23.691 92.716 23.4871 90.6692 22.9434C87.6671 22.0599 85.3145 20.6751 84.7493 20.3025C85.2374 19.2327 86.439 16.7589 87.2578 16.7589C87.7354 16.7589 88.827 17.9143 89.7822 19.2735ZM76.8188 20.4288C76.8188 20.5648 76.0682 22.3318 75.113 24.4386C73.5438 27.7687 73.1344 28.1764 70.8146 28.5842C69.4501 28.7881 67.4032 28.992 66.2433 28.992C64.6058 28.992 63.0366 30.0794 58.7382 34.293C55.7361 37.2153 52.3247 40.2736 51.1648 41.0891L49.0497 42.5163L47.8216 39.7979C46.3205 36.4678 46.7299 35.9241 51.4377 35.5163C55.3267 35.1765 55.7361 34.9046 58.8746 30.3512C60.0345 28.6522 62.1496 25.9337 63.6506 24.3026C65.9704 21.6521 66.448 21.3803 67.7443 22.1279C69.9277 23.2832 72.3839 23.0114 74.1578 21.5162C75.6589 20.2929 76.8188 19.8172 76.8188 20.4288ZM89.0317 23.7589L92.0338 24.7104L89.714 25.8658C88.4859 26.4774 86.3708 27.157 85.0062 27.3609C81.9359 27.8366 81.3219 26.8852 82.6864 23.691C83.2496 22.2669 83.6275 21.9409 83.9435 21.4234C84.2985 21.5588 87.3942 23.2153 89.0317 23.7589ZM119.424 25.21C119.561 27.5887 118.575 30.691 117.21 34.0211C115.095 39.3221 112.99 41.383 111.762 39.2083C111.052 37.9714 109.405 35.4965 106.654 33.2475C106.447 33.0785 106.18 32.8053 105.591 32.6703C104.732 32.4733 104.494 32.8096 104.271 32.6381C103.119 31.1023 103.155 30.4192 104.656 30.3512C105.475 30.3512 106.703 30.9629 107.385 31.7784C107.999 32.526 109.364 33.6134 110.319 34.0891C111.957 34.9726 112.229 34.9046 113.662 33.4095C114.754 32.2541 115.373 30.6083 115.481 28.526C115.588 26.4774 114.822 25.3221 111.342 24.5745C110.319 24.3706 108.297 24.3971 108.57 24.1932C109.184 23.5815 115.095 22.3318 117.074 22.3997C118.643 22.5356 119.361 22.3733 119.424 25.21ZM76.5459 33.3415C77.8422 33.9532 79.3432 34.4289 79.8891 34.4289C81.663 34.4289 79.5479 36.9435 76.6823 38.2348C75.2495 38.8464 74.0896 39.594 74.0896 39.8658C74.0896 40.1377 75.4542 40.6134 77.1599 40.8853C79.8891 41.2251 80.2302 41.4969 79.8891 42.6523C79.2068 44.827 80.7078 47.5455 84.051 50.3999C86.7119 52.5746 87.0531 53.1183 86.2343 53.8659C85.552 54.5455 84.5286 54.6814 82.2771 54.2737L79.2068 53.73L79.4115 50.196C79.6161 46.3222 78.5927 45.3707 77.9104 48.7688C76.887 53.9339 77.501 54.8853 82.3453 55.7688C83.7099 55.9727 85.4838 56.9242 86.3025 57.8077L87.8036 59.4388L85.8249 60.1184C84.6651 60.5261 83.5052 60.5941 83.2323 60.2543C81.7995 59.031 78.388 59.031 76.4776 60.2543L74.499 61.5456L71.7698 59.3708C67.949 56.4485 67.4714 55.7009 66.1751 51.6232C65.2199 48.361 64.1965 46.7979 63.5142 47.4775C63.3777 47.6134 63.8553 49.5843 64.6741 51.963C65.9704 55.9727 67.8126 58.4193 71.7016 61.2058C72.4521 61.7495 72.9297 62.2931 72.725 62.497C72.2474 62.9048 63.9918 67.0505 63.5824 67.0505C63.3777 67.0505 61.9449 65.0796 60.3756 62.633C57.9194 58.8271 57.2371 58.2155 55.395 58.1475C54.2351 58.0795 52.4611 57.8756 51.4377 57.6038L49.6637 57.196L51.3012 53.2543L53.007 49.3125L51.5059 46.9338C50.6189 45.4387 50.2778 44.1474 50.5507 43.3998C51.0283 42.3804 51.1648 42.4484 51.5059 43.8076C52.0517 45.9144 53.1434 45.7785 53.2799 43.6037C53.2799 42.6523 54.2351 41.0212 55.2585 40.0018C56.3502 38.9823 57.0324 38.5066 56.7595 38.9823C56.2819 39.9338 56.9642 41.9047 57.783 41.9047C58.1241 41.9047 58.397 40.8853 58.397 39.6619C58.397 38.0988 59.1475 36.6716 61.1262 34.4289C63.4459 31.7784 63.7871 31.5745 63.8553 32.8658C63.8553 33.7493 64.2647 34.4289 64.7423 34.4289C65.3563 34.4289 65.561 33.8173 65.3563 32.458L65.0834 30.4192L69.0407 30.2153C72.1792 30.0794 73.2026 30.2833 73.612 31.0988C73.9532 31.7104 75.2495 32.7299 76.5459 33.3415ZM95.8717 54.6245C95.8184 54.9778 95.9521 55.4371 96.1028 55.7098C96.8015 56.9744 98.8218 56.547 100.426 54.7494C101.381 53.73 101.381 53.4581 100.562 53.1183C99.6022 52.6999 96.7495 53.0857 96.2979 53.5461C96.0264 53.8227 95.925 54.2723 95.8717 54.6245ZM109.227 37.0794C109.978 38.0309 111.274 39.8658 112.161 41.0891C112.161 41.0891 112.735 41.7981 113.397 42.444C114.059 43.0898 114.809 43.6725 114.809 43.6725C114.809 43.6725 113.711 43.7251 111.342 43.06C105.901 41.532 105.543 40.7493 105.952 39.1183C106.294 37.827 106.43 37.827 108.204 39.526C109.159 40.4775 110.251 41.0212 110.456 40.7493C111.206 40.0697 107.522 36.5357 106.43 36.9435C105.475 37.2833 104.617 34.7408 104.857 33.5777C104.921 33.2637 105.24 33.2545 105.662 33.4359C106.508 33.7991 107.687 35.1609 109.227 37.0794ZM103.223 41.7008C102.95 41.9047 102.541 41.9047 102.268 41.7008C102.063 41.4289 102.268 41.2251 102.746 41.2251C103.223 41.2251 103.428 41.4289 103.223 41.7008ZM93.8759 55.8368C93.8759 57.6038 92.9207 58.0795 92.1702 56.8562C91.5562 55.9048 92.2384 54.1378 93.1936 54.1378C93.5348 54.1378 93.8759 54.8853 93.8759 55.8368ZM99.5522 54.2649C99.5522 54.6386 97.3864 55.9229 97.1004 55.1244C96.8062 54.3033 97.4084 54.0983 98.1557 54.0292C98.9381 53.9568 99.5522 53.8911 99.5522 54.2649ZM87.7354 55.8368C87.7354 56.3805 87.4624 56.8562 87.1213 56.8562C86.2343 56.8562 85.6203 55.7688 86.1661 55.2251C86.9166 54.4776 87.7354 54.8174 87.7354 55.8368Z" fill="black"/>
<path d="M97.4239 38.3026C98.4473 39.322 99.5389 39.9337 99.7436 39.6619C100.426 38.9822 97.9697 36.4677 96.6733 36.4677C95.9228 36.4677 96.1275 36.9434 97.4239 38.3026Z" fill="black"/>
<path d="M92.9887 40.8849C91.4877 42.3121 91.283 42.9238 91.8288 43.9432C92.2382 44.6908 93.057 45.3024 93.6028 45.3024C95.0356 45.3024 98.8564 41.4286 98.5153 40.3412C97.9694 38.7781 94.9674 39.05 92.9887 40.8849ZM97.2871 40.5451C97.2871 40.8849 96.8095 41.2247 96.2637 41.2247C95.7179 41.2247 94.9674 41.8364 94.558 42.584C94.1486 43.3315 93.4663 43.7393 93.057 43.5354C92.5794 43.1956 92.9205 42.448 94.1486 41.4286C96.1273 39.7975 97.2871 39.4577 97.2871 40.5451Z" fill="black"/>
<path fill-rule="evenodd" clip-rule="evenodd" d="M87.5826 53.9761C87.5826 53.9761 87.1277 54.4609 86.6064 54.826C86.0851 55.1911 85.4248 55.4364 85.4248 55.4364C85.4248 55.4364 87.882 58.6005 88.2416 58.1911C88.6013 57.7817 88.3408 57.0776 88.1866 56.1565C88.0309 55.2257 87.5826 53.9761 87.5826 53.9761Z" fill="#FFCFAB"/>
<path fill-rule="evenodd" clip-rule="evenodd" d="M87.8987 53.8645L87.9002 53.8687L87.9043 53.88L87.9192 53.9227C87.9321 53.9596 87.9506 54.0132 87.9733 54.0802C88.0185 54.2142 88.0804 54.4024 88.1472 54.6204C88.28 55.053 88.4362 55.6148 88.5177 56.1021C88.5493 56.2908 88.5854 56.4697 88.6206 56.6442C88.6271 56.6765 88.6336 56.7086 88.64 56.7406C88.6803 56.9419 88.7187 57.1415 88.7402 57.3281C88.782 57.6902 88.7725 58.0942 88.4945 58.4107C88.395 58.5239 88.2619 58.5635 88.1447 58.5613C88.0401 58.5594 87.946 58.5256 87.875 58.4925C87.7313 58.4255 87.578 58.3116 87.4316 58.187C87.1324 57.9323 86.779 57.561 86.4472 57.1887C86.113 56.8136 85.7912 56.4267 85.5534 56.1343C85.4344 55.9879 85.3361 55.8648 85.2675 55.7781L85.1878 55.6771L85.1667 55.6501L85.1598 55.6412L84.8813 55.2827L85.3072 55.1245L85.3126 55.1224L85.3319 55.115C85.3493 55.1082 85.3752 55.098 85.4083 55.0844C85.4744 55.0573 85.5684 55.0173 85.6781 54.9664C85.8996 54.8635 86.1753 54.7204 86.4132 54.5538C86.6562 54.3836 86.8875 54.1826 87.0604 54.0214C87.1462 53.9413 87.2163 53.8724 87.2646 53.8237C87.2887 53.7994 87.3073 53.7803 87.3197 53.7674L87.3334 53.7531L87.3366 53.7497L87.7135 53.3481L87.8987 53.8645ZM85.9595 55.5718C85.9953 55.6164 86.0341 55.6643 86.0754 55.7152C86.3097 56.0032 86.6246 56.3817 86.9496 56.7465C87.2771 57.114 87.6055 57.4569 87.8681 57.6804C87.9452 57.746 88.0102 57.7957 88.0628 57.8314C88.09 57.7359 88.0963 57.6019 88.0735 57.404C88.0555 57.2482 88.0224 57.0735 87.9818 56.8709C87.9757 56.8404 87.9694 56.8092 87.963 56.7776C87.9278 56.6031 87.8892 56.4121 87.8557 56.2115C87.7815 55.7681 87.6356 55.2397 87.5053 54.8149C87.4805 54.7342 87.4565 54.6576 87.4338 54.5867C87.2589 54.7452 87.0372 54.9326 86.7998 55.0989C86.5164 55.2974 86.2013 55.4595 85.9623 55.5705C85.9614 55.571 85.9604 55.5714 85.9595 55.5718Z" fill="black"/>
<path d="M38.9351 103.726C35.6654 103.726 33.1123 102.922 31.2758 101.315C29.4393 99.7077 28.521 97.4236 28.521 94.4628C28.521 92.2845 28.858 90.2702 29.5321 88.4197C30.2062 86.5692 31.1856 84.9567 32.4701 83.5818C33.744 82.2178 35.3072 81.1497 37.1596 80.3779C39.012 79.606 41.0953 79.22 43.4096 79.22C44.8003 79.22 46.1884 79.3865 47.5737 79.7196C48.959 80.0527 50.3735 80.5947 51.8174 81.3454L51.1009 84.9302H50.8142C49.6359 83.8305 48.3541 83.0348 46.9686 82.5431C45.5832 82.0514 44.0943 81.8056 42.5019 81.8056C40.7503 81.8056 39.2164 82.1492 37.9 82.8365C36.5837 83.5239 35.4744 84.4386 34.5719 85.5806C33.6908 86.7014 33.0246 88.0075 32.5735 89.4982C32.1223 90.9892 31.8967 92.4907 31.8967 94.0029C31.8967 96.2764 32.5204 98.0317 33.7678 99.269C35.0151 100.506 36.8596 101.125 39.3013 101.125C40.3735 101.125 41.3793 101.027 42.319 100.831C43.2584 100.636 44.1422 100.385 44.9704 100.078L46.308 94.0347H39.9864L40.5915 91.3859H50.082L47.7253 101.521C47.0246 101.807 46.393 102.063 45.8304 102.29C45.2677 102.518 44.5618 102.753 43.7125 102.996C42.98 103.208 42.2236 103.382 41.4434 103.52C40.6631 103.657 39.8271 103.726 38.9354 103.726L38.9351 103.726Z" fill="black"/>
<path d="M63.4406 103.695C60.4363 103.695 58.0796 102.921 56.3704 101.371C54.6613 99.8224 53.8066 97.6255 53.8066 94.7811C53.8066 92.6028 54.1357 90.5726 54.7939 88.6903C55.4521 86.8081 56.3969 85.1584 57.6284 83.7416C58.8492 82.3458 60.3514 81.2434 62.1348 80.4346C63.9182 79.6257 65.9087 79.2212 68.1062 79.2212C69.4756 79.2212 70.7708 79.3878 71.9916 79.7208C73.2124 80.0539 74.4651 80.58 75.7497 81.299L75.0331 84.8519H74.7942C74.4439 84.5029 74.0909 84.1778 73.7353 83.8764C73.3797 83.575 72.8462 83.2446 72.135 82.885C71.5511 82.5784 70.8558 82.322 70.049 82.1158C69.2422 81.9096 68.3504 81.8065 67.3739 81.8065C65.8876 81.8065 64.5235 82.1158 63.2814 82.7344C62.0393 83.353 60.9618 84.2174 60.0488 85.3277C59.157 86.4063 58.4564 87.7174 57.9469 89.2613C57.4373 90.8052 57.1825 92.4496 57.1825 94.1943C57.1825 96.3726 57.7504 98.0671 58.8863 99.2779C60.0222 100.489 61.6624 101.094 63.8068 101.094C64.8153 101.094 65.7734 100.98 66.6811 100.753C67.5887 100.526 68.4141 100.238 69.1573 99.8886C69.8473 99.5608 70.4683 99.2171 71.0203 98.8576C71.5723 98.4981 72.0447 98.165 72.4375 97.8583H72.6605L71.9121 101.507C70.7974 102.067 69.5156 102.572 68.0664 103.021C66.6173 103.471 65.0753 103.695 63.4406 103.695L63.4406 103.695Z" fill="black"/>
<path d="M86.2443 103.695C83.24 103.695 80.8833 102.921 79.1741 101.371C77.465 99.8224 76.6104 97.6255 76.6104 94.7811C76.6103 92.6028 76.9394 90.5726 77.5976 88.6903C78.2558 86.8081 79.2006 85.1584 80.4321 83.7416C81.6529 82.3458 83.1551 81.2434 84.9385 80.4346C86.722 79.6257 88.7124 79.2212 90.9099 79.2212C92.2793 79.2212 93.5745 79.3878 94.7953 79.7208C96.0161 80.0539 97.2688 80.58 98.5534 81.299L97.8368 84.8519H97.5979C97.2476 84.5029 96.8946 84.1778 96.539 83.8764C96.1834 83.575 95.6499 83.2446 94.9387 82.885C94.3548 82.5784 93.6595 82.322 92.8527 82.1158C92.0459 81.9096 91.1542 81.8065 90.1776 81.8065C88.6914 81.8065 87.3273 82.1158 86.0851 82.7344C84.8431 83.353 83.7656 84.2174 82.8525 85.3277C81.9608 86.4063 81.2601 87.7174 80.7506 89.2613C80.241 90.8052 79.9862 92.4496 79.9862 94.1943C79.9862 96.3726 80.5542 98.0671 81.6901 99.2779C82.8259 100.489 84.4662 101.094 86.6106 101.094C87.6191 101.094 88.5771 100.98 89.4848 100.753C90.3925 100.526 91.2178 100.238 91.961 99.8886C92.651 99.5608 93.272 99.2171 93.8241 98.8576C94.3761 98.4981 94.8485 98.165 95.2413 97.8583H95.4642L94.7158 101.507C93.6011 102.067 92.3193 102.572 90.8701 103.021C89.4211 103.471 87.879 103.695 86.2443 103.695L86.2443 103.695Z" fill="black"/>
<path fill-rule="evenodd" clip-rule="evenodd" d="M94.2049 53.7542C93.9869 52.7862 91.3531 54.5864 91.3168 55.6358C91.2805 56.6852 93.8771 58.7246 94.0777 57.807C94.2775 56.8933 94.4212 54.715 94.2049 53.7542Z" fill="white"/>
<path fill-rule="evenodd" clip-rule="evenodd" d="M94.1304 53.2686C94.3089 53.3481 94.4251 53.5001 94.469 53.6954C94.5856 54.2132 94.6018 55.0286 94.5678 55.8099C94.5336 56.5961 94.4468 57.3861 94.3423 57.8641C94.2994 58.0599 94.1772 58.2115 93.986 58.2752C93.8194 58.3306 93.6381 58.3061 93.4809 58.2606C93.161 58.1679 92.7866 57.9419 92.4406 57.67C92.0902 57.3946 91.7451 57.0533 91.4872 56.7067C91.2385 56.3726 91.034 55.9849 91.0464 55.6266C91.0588 55.2704 91.281 54.902 91.5459 54.5897C91.8198 54.2667 92.179 53.9573 92.542 53.7152C92.9002 53.4763 93.2877 53.286 93.6196 53.2275C93.785 53.1983 93.9677 53.1962 94.1304 53.2686ZM91.9598 54.9363C91.7138 55.2264 91.5932 55.4766 91.5873 55.6451C91.5816 55.8114 91.6881 56.0722 91.9223 56.3869C92.1473 56.6892 92.4571 56.9972 92.7763 57.2481C93.1001 57.5025 93.4102 57.6799 93.6324 57.7443C93.7346 57.7739 93.7887 57.7708 93.8086 57.7666C93.81 57.7629 93.8117 57.7575 93.8134 57.7499C93.9087 57.3142 93.9936 56.5582 94.0271 55.7866C94.0609 55.0101 94.0407 54.256 93.9409 53.8129C93.9309 53.7688 93.918 53.7633 93.9104 53.76C93.91 53.7598 93.9096 53.7597 93.9092 53.7595C93.886 53.7492 93.8269 53.7371 93.7141 53.757C93.4897 53.7966 93.1756 53.9404 92.8436 54.1618C92.5164 54.3799 92.1967 54.6568 91.9598 54.9363Z" fill="black"/>
</svg>
