<svg width="130" height="49" viewBox="0 0 130 49" fill="none" xmlns="http://www.w3.org/2000/svg">
<path d="M9.8108 14.8366C9.55762 14.8366 9.49432 14.7089 9.62091 14.5173L10.9501 12.7932C11.0767 12.6016 11.3932 12.4739 11.6463 12.4739H34.2426C34.4958 12.4739 34.5591 12.6654 34.4325 12.857L33.3565 14.5173C33.2299 14.7089 32.9134 14.9004 32.7236 14.9004L9.8108 14.8366Z" fill="#00ACD7"/>
<path d="M0.25318 20.7116C5.28174e-07 20.7116 -0.0632951 20.5839 0.0632947 20.3923L1.39249 18.6682C1.51908 18.4766 1.83555 18.3489 2.08873 18.3489H30.9512C31.2044 18.3489 31.331 18.5404 31.2677 18.732L30.7613 20.2646C30.698 20.52 30.4449 20.6477 30.1917 20.6477L0.25318 20.7116Z" fill="#00ACD7"/>
<path d="M15.5706 26.5863C15.3174 26.5863 15.2541 26.3948 15.3807 26.2032L16.2668 24.6068C16.3934 24.4152 16.6466 24.2236 16.8998 24.2236H29.5587C29.8119 24.2236 29.9385 24.4152 29.9385 24.6706L29.8119 26.2032C29.8119 26.4586 29.5587 26.6502 29.3689 26.6502L15.5706 26.5863Z" fill="#00ACD7"/>
<path d="M81.2709 13.6873C77.2833 14.709 74.5616 15.4752 70.6373 16.4969C69.6879 16.7524 69.6246 16.8162 68.8018 15.8584C67.8523 14.7728 67.1561 14.0704 65.8269 13.4318C61.8393 11.4523 57.9783 12.027 54.3705 14.3897C50.0665 17.1994 47.8512 21.35 47.9144 26.5224C47.9777 31.631 51.459 35.8455 56.4593 36.5479C60.7633 37.1227 64.3711 35.5901 67.2194 32.3334C67.7891 31.631 68.2954 30.8647 68.9284 29.9707C66.6497 29.9707 63.8015 29.9707 56.7124 29.9707C55.3833 29.9707 55.0668 29.1406 55.5098 28.055C56.3327 26.0754 57.8518 22.7549 58.7379 21.0946C58.9278 20.7115 59.3708 20.0729 60.3203 20.0729C63.5483 20.0729 75.4477 20.0729 83.3596 20.0729C83.233 21.797 83.233 23.5212 82.9798 25.2453C82.2836 29.843 80.5746 34.0575 77.7897 37.7612C73.2324 43.8276 67.2827 47.5951 59.7506 48.6169C53.5477 49.447 47.7879 48.2337 42.7243 44.4023C38.0404 40.8263 35.3821 36.1009 34.6858 30.2261C33.863 23.2657 35.8884 17.0078 40.0659 11.5161C44.5598 5.57745 50.5095 1.80991 57.7885 0.468916C63.7382 -0.616647 69.4347 0.0857773 74.5616 3.59789C77.9162 5.83288 80.3215 8.898 81.9038 12.6017C82.2836 13.1764 82.0304 13.4957 81.2709 13.6873Z" fill="#00ACD7"/>
<path d="M102.222 48.9998C96.4618 48.872 91.2083 47.2118 86.7777 43.3804C83.0433 40.1237 80.7013 35.973 79.9418 31.056C78.8025 23.8402 80.7646 17.4546 85.0687 11.7713C89.6892 5.64107 95.2592 2.44824 102.791 1.10725C109.247 -0.0421744 115.324 0.596391 120.83 4.36393C125.831 7.8122 128.932 12.4737 129.755 18.604C130.831 27.2246 128.362 34.2489 122.476 40.2514C118.299 44.5298 113.172 47.2118 107.285 48.425C105.576 48.7443 103.867 48.8082 102.222 48.9998ZM117.286 23.2017C117.223 22.3715 117.223 21.733 117.096 21.0944C115.957 14.7726 110.197 11.1966 104.184 12.6014C98.2973 13.9424 94.4996 17.71 93.1072 23.7125C91.9678 28.6933 94.3731 33.738 98.9303 35.7814C102.412 37.314 105.893 37.1224 109.247 35.3983C114.248 32.7802 116.969 28.6933 117.286 23.2017Z" fill="#00ACD7"/>
</svg>
