<svg width="128" height="128" viewBox="0 0 128 128" fill="none" xmlns="http://www.w3.org/2000/svg">
<path d="M45.4188 80.538C51.5163 86.3747 54.709 92.9833 52.5499 95.2988C50.3908 97.6142 43.6974 94.7597 37.5999 88.923C31.5023 83.0863 28.3096 76.4777 30.4688 74.1623C32.6279 71.8468 39.3212 74.7013 45.4188 80.538Z" fill="#F7C418"/>
<path d="M119.823 34.9179C123.447 38.1531 125.189 42.1505 123.714 43.8465C122.239 45.5424 118.106 44.2946 114.482 41.0594C110.859 37.8242 109.117 33.8268 110.591 32.1308C112.066 30.4349 116.2 31.6827 119.823 34.9179Z" fill="#EF7525"/>
<path d="M69.9736 82.1085L87.003 61.3585L97.4551 70.1652L80.4257 90.9152L69.9736 82.1085Z" fill="#6288C5"/>
<path d="M23.3309 30.7884C19.5578 35.439 16.5108 39.3919 16.6632 39.6539C16.7692 39.926 21.8452 44.4332 27.9186 49.7572L38.9819 59.4103L40.6661 57.2762C41.5912 56.142 43.166 54.1791 44.1275 52.9879L45.8582 50.8438L47.8762 52.1282L49.9041 53.4596L47.2352 56.4457C45.3455 58.526 44.1388 59.4752 42.9522 59.8301C41.9777 60.0408 38.8584 62.0427 35.8086 64.3737C30.4914 68.375 30.1864 68.5393 21.9164 71.6549L13.4708 74.8577L11.4297 73.2341C7.43366 70.165 3.1683 69.9565 1.0364 72.7282C-1.32427 75.7952 0.483729 80.9107 5.07954 84.2926C9.38376 87.4425 13.3707 87.7112 15.4927 84.8925C16.2785 83.7885 16.4445 82.9659 16.2595 80.941L15.9554 78.3519L19.5484 76.985C21.5306 76.2615 23.8375 75.4676 24.6727 75.287C26.0549 74.939 26.1676 75.013 26.4654 76.4235C27.0313 79.1035 30.9238 84.8991 34.6213 88.6227C38.7628 92.8403 45.2143 97.1976 48.5382 98.0029C51.6103 98.7644 54.5336 98.1323 55.5815 96.4308C57.3952 93.5313 63.8123 80.4918 64.0546 79.1119C64.2206 78.2894 65.8155 75.7321 67.6921 73.3598L71.0242 69.1486L72.734 70.3522C73.6551 71.038 74.447 71.8009 74.5066 72.083C74.5562 72.3181 72.7094 74.8315 70.3356 77.6063C68.0081 80.3711 66.1316 82.7435 66.1613 82.8845C66.2209 83.1666 91.8397 105.454 92.307 105.599C92.8306 105.781 116.463 77.0719 116.178 76.6418C115.771 76.0908 86.7039 58.3836 86.3326 58.4639C86.147 58.504 84.1114 60.8124 81.8403 63.6142L77.7191 68.6843L76.0557 67.4707C75.1346 66.7849 74.3792 65.965 74.3296 65.7299C74.27 65.4478 75.8051 63.2968 77.7281 60.9144C79.6412 58.485 81.7366 55.7703 82.3301 54.9045C83.3978 53.2971 83.8884 53.0927 97.1335 48.2621L110.833 43.2843L113.371 45.1937C118.053 48.7536 122.818 49.4931 125.785 47.2291C130.244 43.7576 127.698 35.6061 120.587 30.6539C117.121 28.2568 114.122 27.3812 111.292 27.9933C108.879 28.515 107.665 29.6623 107.045 32.0089C106.627 33.4759 107.143 37.2975 107.937 38.9939C108.14 39.491 105.65 40.5701 96.0643 44.1177C89.4053 46.59 83.6345 48.6736 83.3661 48.7808C83.0412 48.851 82.5045 48.3771 82.2064 47.6549C79.984 42.8749 73.1417 37.8155 68.4091 37.4622C66.8812 37.3501 65.171 37.5232 64.5147 37.8618C63.8949 38.1433 61.1763 40.8944 58.471 43.9376C55.7656 46.9808 53.3057 49.5776 53.0107 49.7889C52.5035 50.1443 49.339 48.0262 49.1802 47.2739C49.1405 47.0859 50.7419 45.0188 52.7113 42.6264C54.6707 40.187 56.0865 38.1601 55.8612 38.0122C55.6359 37.8642 50.682 34.8547 44.8368 31.3005C39.038 27.7363 33.3518 24.246 32.2451 23.6003L30.2933 22.3999L23.3309 30.7884ZM69.7068 41.9997C70.8468 42.3432 71.7283 42.8409 71.695 43.1431C71.6519 43.3982 70.0505 45.4653 68.0977 47.7066L64.5867 51.7598L62.1444 50.7638C60.7592 50.1783 59.616 49.5897 59.5763 49.4017C59.4571 48.8374 65.9718 41.7749 66.8435 41.5372C67.3075 41.4369 68.6133 41.6462 69.7068 41.9997ZM116.218 33.1719C119.936 34.9245 123.123 38.7585 123.388 41.8479C123.543 43.0434 123.324 43.3857 122.277 43.7105C119.062 44.799 112.289 39.3804 111.356 34.9607C110.78 32.2337 112.762 31.5101 116.218 33.1719ZM59.0976 54.0283C60.2277 54.3247 61.192 54.7554 61.1853 54.9535C61.225 55.1415 59.6601 57.1515 57.7073 59.3928L54.2062 63.493L51.8336 62.1378C50.5115 61.3912 49.4412 60.6885 49.365 60.5575C49.1995 60.0033 55.0675 54.0147 56.032 53.757C56.5789 53.5896 58.0139 53.7218 59.0976 54.0283ZM47.9022 64.6595C49.9335 65.5477 53.2769 67.8238 53.406 68.435C53.4755 68.7642 46.6954 76.8674 46.2777 76.9577C46.1849 76.9778 43.6699 75.4075 40.6943 73.4944C35.7273 70.1927 35.4258 69.9138 36.2744 69.337C36.7816 68.9815 38.6247 67.5996 40.3287 66.2479C43.8194 63.4774 44.6546 63.2968 47.9022 64.6595ZM34.4466 74.6978C36.7862 75.6668 37.0313 75.9088 37.4086 77.6955C37.637 78.7769 38.5346 80.5002 39.4722 81.7233C41.45 84.1963 46.7451 87.6728 48.1835 87.3618C49.2972 87.121 50.6886 88.885 51.8643 91.9248C52.5299 93.6983 52.5033 93.8024 51.3897 94.0432C49.348 94.4847 42.7638 90.6478 38.3704 86.3863C35.4017 83.5867 31.8371 78.6544 30.9761 76.1856C30.2807 74.2711 30.2775 74.026 31.0664 73.8554C31.5304 73.7551 33.0714 74.1593 34.4466 74.6978Z" fill="#333333"/>
<path d="M22.1799 39.0526L31.4224 27.6284L37.8105 31.6516L27.9603 43.8906L22.1799 39.0526Z" fill="#CADC72"/>
<path d="M31.1163 46.7022L41.3401 34.0652L49.7698 39.4592L38.8739 52.9977L31.1163 46.7022Z" fill="#96C93F"/>
<path d="M9.7363 76.8605C11.894 78.7868 12.9313 81.1671 12.0531 82.1769C11.1749 83.1868 8.71382 82.4438 6.55608 80.5174C4.39833 78.591 3.36106 76.2107 4.23925 75.2009C5.11745 74.1911 7.57856 74.9341 9.7363 76.8605Z" fill="#E7262B"/>
<path d="M83.3884 92.105L100.252 71.31L110.179 77.562L92.3712 99.6234L83.3884 92.105Z" fill="#8061A9"/>
<path d="M72.4615 82.5261L87.8134 63.5951L96.8507 69.2867L80.6391 89.3706L72.4615 82.5261Z" fill="#6288C5"/>
</svg>
