<svg width="260" height="80" viewBox="0 0 260 80" fill="none" xmlns="http://www.w3.org/2000/svg">
<path d="M34.0641 52.3241C38.6372 56.6735 41.0318 61.5982 39.4124 63.3237C37.7931 65.0491 32.7731 62.922 28.1999 58.5725C23.6268 54.2231 21.2322 49.2984 22.8516 47.5729C24.4709 45.8475 29.4909 47.9746 34.0641 52.3241Z" fill="#F7C418"/>
<path d="M89.8675 18.3283C92.5853 20.7392 93.8918 23.718 92.7856 24.9818C91.6795 26.2456 88.5796 25.3157 85.8618 22.9049C83.144 20.4941 81.8375 17.5152 82.9436 16.2514C84.0498 14.9876 87.1497 15.9175 89.8675 18.3283Z" fill="#EF7525"/>
<path d="M52.4802 53.4944L65.2523 38.0316L73.0913 44.5943L60.3193 60.0571L52.4802 53.4944Z" fill="#6288C5"/>
<path d="M17.4982 15.251C14.6684 18.7167 12.3831 21.6623 12.4974 21.8576C12.5769 22.0603 16.3839 25.419 20.9389 29.3864L29.2364 36.5799L30.4996 34.9895C31.1934 34.1444 32.3745 32.6816 33.0956 31.7939L34.3937 30.1961L35.9071 31.1533L37.4281 32.1455L35.4264 34.3707C34.0091 35.9209 33.1041 36.6282 32.2141 36.8927C31.4833 37.0497 29.1438 38.5415 26.8565 40.2786C22.8685 43.2603 22.6398 43.3827 16.4373 45.7044L10.1031 48.0911L8.57227 46.8813C5.57525 44.5942 2.37623 44.4388 0.777301 46.5043C-0.993206 48.7898 0.362797 52.6018 3.80965 55.1219C7.03782 57.4693 10.028 57.6695 11.6195 55.569C12.2089 54.7463 12.3333 54.1334 12.1946 52.6244L11.9665 50.695L14.6613 49.6764C16.1479 49.1372 17.8781 48.5457 18.5046 48.4111C19.5412 48.1518 19.6257 48.2069 19.8491 49.258C20.2735 51.2551 23.1928 55.5739 25.966 58.3487C29.0721 61.4916 33.9107 64.7386 36.4037 65.3388C38.7077 65.9063 40.9002 65.4352 41.6861 64.1673C43.0464 62.0066 47.8592 52.2896 48.041 51.2614C48.1655 50.6484 49.3617 48.7428 50.7691 46.9749L53.2682 43.8368L54.5505 44.7337C55.2414 45.2447 55.8353 45.8132 55.8799 46.0235C55.9172 46.1986 54.5321 48.0716 52.7517 50.1394C51.0061 52.1997 49.5987 53.9676 49.621 54.0727C49.6657 54.2829 68.8798 70.8915 69.2303 70.9994C69.623 71.1348 87.3475 49.7411 87.1338 49.4207C86.8282 49.01 65.0279 35.8148 64.7495 35.8746C64.6103 35.9045 63.0835 37.6247 61.3802 39.7126L58.2893 43.4908L57.0418 42.5864C56.3509 42.0754 55.7844 41.4644 55.7472 41.2892C55.7025 41.079 56.8539 39.476 58.2961 37.7007C59.7309 35.8903 61.3025 33.8674 61.7476 33.2222C62.5484 32.0243 62.9163 31.872 72.8502 28.2723L83.1246 24.5629L85.0282 25.9857C88.5396 28.6386 92.1139 29.1896 94.3391 27.5025C97.6831 24.9156 95.7735 18.8411 90.4404 15.1508C87.8409 13.3645 85.5916 12.712 83.4687 13.1681C81.659 13.5569 80.7489 14.4119 80.2836 16.1605C79.9701 17.2537 80.3569 20.1016 80.9531 21.3657C81.1046 21.7361 79.2376 22.5403 72.0482 25.1839C67.0539 27.0263 62.7259 28.579 62.5245 28.6588C62.2809 28.7112 61.8784 28.358 61.6548 27.8199C59.988 24.2578 54.8563 20.4876 51.3068 20.2243C50.1609 20.1408 48.8783 20.2698 48.386 20.5221C47.9212 20.7319 45.8823 22.7819 43.8532 25.0497C41.8242 27.3175 39.9793 29.2526 39.758 29.41C39.3776 29.6749 37.0043 28.0965 36.8851 27.5359C36.8553 27.3958 38.0564 25.8555 39.5334 24.0726C41.003 22.2548 42.0649 20.7444 41.8959 20.6341C41.7269 20.5239 38.0115 18.2812 33.6276 15.6327C29.2785 12.9766 25.0139 10.3757 24.1838 9.89454L22.72 9L17.4982 15.251ZM52.2801 23.6056C53.1351 23.8616 53.7962 24.2325 53.7713 24.4577C53.7389 24.6478 52.5378 26.1881 51.0733 27.8584L48.44 30.8788L46.6083 30.1365C45.5694 29.7003 44.712 29.2616 44.6822 29.1215C44.5928 28.7011 49.4788 23.4381 50.1326 23.261C50.4806 23.1862 51.4599 23.3422 52.2801 23.6056ZM87.1637 17.0272C89.9522 18.3332 92.3425 21.1903 92.5407 23.4925C92.6572 24.3834 92.4931 24.6384 91.7076 24.8805C89.2962 25.6916 84.2167 21.6537 83.5168 18.3602C83.0849 16.3281 84.5715 15.7889 87.1637 17.0272ZM44.3232 32.5692C45.1707 32.7901 45.894 33.111 45.889 33.2587C45.9188 33.3988 44.7451 34.8966 43.2805 36.5669L40.6547 39.6223L38.8752 38.6124C37.8836 38.056 37.0809 37.5324 37.0238 37.4348C36.8996 37.0218 41.3006 32.5591 42.024 32.3671C42.4342 32.2423 43.5105 32.3408 44.3232 32.5692ZM35.9266 40.4915C37.4501 41.1534 39.9577 42.8495 40.0545 43.305C40.1066 43.5503 35.0215 49.5888 34.7083 49.656C34.6387 49.671 32.7524 48.5009 30.5207 47.0752C26.7955 44.6148 26.5693 44.407 27.2058 43.9771C27.5862 43.7122 28.9685 42.6825 30.2465 41.6752C32.8645 39.6106 33.491 39.476 35.9266 40.4915ZM25.835 47.972C27.5896 48.6941 27.7735 48.8744 28.0565 50.2058C28.2277 51.0117 28.9009 52.2959 29.6041 53.2073C31.0875 55.0502 35.0588 57.6409 36.1377 57.4091C36.9729 57.2297 38.0165 58.5442 38.8982 60.8094C39.3974 62.131 39.3775 62.2086 38.5423 62.388C37.011 62.717 32.0728 59.8578 28.7778 56.6822C26.5513 54.5959 23.8778 50.9204 23.2321 49.0807C22.7106 47.654 22.7081 47.4714 23.2998 47.3443C23.6478 47.2695 24.8035 47.5707 25.835 47.972Z" fill="#333333"/>
<path d="M16.635 21.4094L23.5668 12.8963L28.3578 15.8943L20.9703 25.0147L16.635 21.4094Z" fill="#CADC72"/>
<path d="M23.3372 27.1099L31.0051 17.6929L37.3274 21.7124L29.1554 31.8012L23.3372 27.1099Z" fill="#96C93F"/>
<path d="M7.30223 49.5836C8.92053 51.0191 9.69849 52.7929 9.03985 53.5454C8.3812 54.2979 6.53536 53.7442 4.91706 52.3087C3.29875 50.8732 2.52079 49.0994 3.17944 48.3469C3.83808 47.5944 5.68392 48.1481 7.30223 49.5836Z" fill="#E7262B"/>
<path d="M62.5413 60.9437L75.1889 45.4474L82.6343 50.1064L69.2784 66.5464L62.5413 60.9437Z" fill="#8061A9"/>
<path d="M54.3461 53.8056L65.86 39.6984L72.638 43.9397L60.4793 58.906L54.3461 53.8056Z" fill="#6288C5"/>
<path d="M151.161 29.7693H145.387V43.8333C145.217 47.5611 146.916 54.0001 156.086 54.0001C165.257 54.0001 166.615 47.5611 166.615 43.8333V29.7693H160.841V43.8333C160.841 45.3583 160.501 49.2556 155.916 49.2556C151.976 49.2556 151.161 45.6407 151.161 43.8333V29.7693Z" fill="black"/>
<path d="M134.568 34.1865V39.0034H116.672V34.1865H134.568ZM118.425 20.784V53.2533H112V20.784H118.425ZM139.334 20.784V53.2533H132.909V20.784H139.334Z" fill="black"/>
<path d="M172.111 19H178.302V47.9235L177.695 53.2533H172.111V19ZM194.562 40.9435V41.4118C194.562 43.2107 194.352 44.861 193.931 46.3625C193.527 47.8641 192.911 49.1649 192.086 50.2651C191.26 51.3503 190.232 52.1978 189.002 52.8073C187.787 53.402 186.362 53.6993 184.727 53.6993C183.169 53.6993 181.814 53.4094 180.662 52.8296C179.525 52.2498 178.567 51.4321 177.788 50.3766C177.009 49.3061 176.386 48.0499 175.919 46.6078C175.452 45.1509 175.102 43.5601 174.868 41.8355V40.5644C175.102 38.825 175.452 37.2342 175.919 35.7921C176.386 34.3501 177.009 33.0938 177.788 32.0234C178.567 30.953 179.525 30.1279 180.662 29.5481C181.799 28.9682 183.138 28.6783 184.68 28.6783C186.331 28.6783 187.772 28.9831 189.002 29.5927C190.248 30.1873 191.276 31.0347 192.086 32.1349C192.911 33.2202 193.527 34.5136 193.931 36.0152C194.352 37.5018 194.562 39.1446 194.562 40.9435ZM188.371 41.4118V40.9435C188.371 39.9177 188.286 38.9514 188.114 38.0445C187.943 37.1227 187.663 36.3125 187.273 35.6137C186.884 34.915 186.354 34.3649 185.685 33.9635C185.015 33.5621 184.174 33.3614 183.161 33.3614C182.196 33.3614 181.37 33.5175 180.685 33.8297C180.015 34.1419 179.455 34.5731 179.003 35.1231C178.567 35.6732 178.224 36.3199 177.975 37.0633C177.741 37.8066 177.586 38.6094 177.508 39.4717V42.9506C177.617 44.0953 177.874 45.1286 178.279 46.0503C178.684 46.9572 179.283 47.6782 180.078 48.2134C180.888 48.7486 181.931 49.0162 183.208 49.0162C184.205 49.0162 185.038 48.8304 185.708 48.4587C186.378 48.0722 186.907 47.537 187.297 46.8531C187.686 46.1544 187.959 45.3441 188.114 44.4224C188.286 43.5006 188.371 42.4971 188.371 41.4118Z" fill="black"/>
<path d="M199.024 19H205.215V47.9235L204.608 53.2533H199.024V19ZM221.476 40.9435V41.4118C221.476 43.2107 221.265 44.861 220.845 46.3625C220.44 47.8641 219.825 49.1649 218.999 50.2651C218.174 51.3503 217.146 52.1978 215.915 52.8073C214.701 53.402 213.275 53.6993 211.64 53.6993C210.083 53.6993 208.728 53.4094 207.575 52.8296C206.438 52.2498 205.48 51.4321 204.701 50.3766C203.923 49.3061 203.3 48.0499 202.833 46.6078C202.365 45.1509 202.015 43.5601 201.781 41.8355V40.5644C202.015 38.825 202.365 37.2342 202.833 35.7921C203.3 34.3501 203.923 33.0938 204.701 32.0234C205.48 30.953 206.438 30.1279 207.575 29.5481C208.712 28.9682 210.051 28.6783 211.593 28.6783C213.244 28.6783 214.685 28.9831 215.915 29.5927C217.161 30.1873 218.189 31.0347 218.999 32.1349C219.825 33.2202 220.44 34.5136 220.845 36.0152C221.265 37.5018 221.476 39.1446 221.476 40.9435ZM215.285 41.4118V40.9435C215.285 39.9177 215.199 38.9514 215.028 38.0445C214.856 37.1227 214.576 36.3125 214.187 35.6137C213.797 34.915 213.268 34.3649 212.598 33.9635C211.928 33.5621 211.087 33.3614 210.075 33.3614C209.109 33.3614 208.284 33.5175 207.598 33.8297C206.929 34.1419 206.368 34.5731 205.916 35.1231C205.48 35.6732 205.138 36.3199 204.888 37.0633C204.655 37.8066 204.499 38.6094 204.421 39.4717V42.9506C204.53 44.0953 204.787 45.1286 205.192 46.0503C205.597 46.9572 206.197 47.6782 206.991 48.2134C207.801 48.7486 208.844 49.0162 210.122 49.0162C211.118 49.0162 211.952 48.8304 212.621 48.4587C213.291 48.0722 213.821 47.537 214.21 46.8531C214.599 46.1544 214.872 45.3441 215.028 44.4224C215.199 43.5006 215.285 42.4971 215.285 41.4118Z" fill="black"/>
<path d="M232.503 19V53.2533H226.312V19H232.503Z" fill="black"/>
<path d="M249.744 53.6993C247.828 53.6993 246.107 53.402 244.581 52.8073C243.055 52.2126 241.754 51.3875 240.679 50.332C239.62 49.2615 238.803 48.0202 238.226 46.6078C237.666 45.1806 237.385 43.6493 237.385 42.0139V41.1219C237.385 39.2636 237.666 37.5762 238.226 36.0598C238.787 34.5285 239.581 33.2127 240.609 32.1126C241.637 31.0124 242.868 30.165 244.301 29.5704C245.733 28.9757 247.314 28.6783 249.043 28.6783C250.834 28.6783 252.415 28.9682 253.786 29.5481C255.156 30.113 256.301 30.9158 257.22 31.9565C258.139 32.9972 258.832 34.246 259.299 35.7029C259.766 37.145 260 38.7432 260 40.4975V42.9729H240.189V38.9142H253.926V38.4682C253.895 37.5316 253.708 36.6767 253.365 35.9037C253.022 35.1157 252.493 34.4913 251.776 34.0304C251.06 33.5547 250.133 33.3168 248.996 33.3168C248.077 33.3168 247.275 33.5101 246.59 33.8966C245.92 34.2683 245.36 34.8035 244.908 35.5022C244.472 36.1861 244.145 37.0038 243.927 37.9553C243.709 38.9068 243.6 39.9623 243.6 41.1219V42.0139C243.6 43.0249 243.74 43.9615 244.02 44.8238C244.316 45.6861 244.744 46.4368 245.305 47.0761C245.881 47.7005 246.567 48.1911 247.361 48.5479C248.171 48.8899 249.09 49.0608 250.118 49.0608C251.41 49.0608 252.579 48.823 253.622 48.3472C254.681 47.8566 255.6 47.1356 256.379 46.1841L259.486 49.2615C258.956 50.0049 258.24 50.7185 257.337 51.4024C256.449 52.0863 255.374 52.6438 254.113 53.0749C252.851 53.4912 251.395 53.6993 249.744 53.6993Z" fill="black"/>
</svg>
