<svg width="128" height="128" viewBox="0 0 128 128" fill="none" xmlns="http://www.w3.org/2000/svg">
<path d="M0 79.9807V46.4H8.67187V59.3958C15.3246 51.8396 25.7126 49.3057 30.075 48.9833V46.7707L40.6694 52.6227L30.075 58.7643V56.1375C12.3621 59.4137 8.42585 73.398 8.67187 79.9807H0Z" fill="#69E3C2"/>
<path d="M30.1243 80.0001C30.1243 70.5461 25.1198 62.8064 22.6176 60.1183C20.3039 61.2341 17.8652 63.0247 16.9619 64.4801C20.8695 68.4159 22.5662 76.4666 22.9261 80.0001H30.1243Z" fill="#69E3C2"/>
<path fill-rule="evenodd" clip-rule="evenodd" d="M32.4115 60.092C38.9702 57.6325 52.0877 54.9788 52.0877 64.0397V73.4538C52.105 74.0089 52.4638 75.1193 53.7605 75.1193V79.9493H50.3161C49.8096 80.0048 48.4927 79.7028 47.277 78.0506C46.5617 78.3164 46.0559 78.5796 45.591 78.8216C44.366 79.4592 43.4244 79.9493 39.6792 79.9493C34.5127 79.9493 30.832 78.6169 30.832 73.4538C30.832 68.2907 34.6649 65.426 46.2136 65.7924C46.2136 63.6939 45.5892 60.7953 35.2675 64.1975C34.4408 63.0534 33.1576 61.1912 32.4115 60.092ZM46.128 70.2159C46.3302 71.9332 45.6373 75.3677 41.2482 75.3677C37.8457 75.3677 36.7906 74.5351 36.7906 72.9219C36.7906 70.372 40.1405 70.2159 46.128 70.2159Z" fill="#69E3C2"/>
<path fill-rule="evenodd" clip-rule="evenodd" d="M83.7733 60.092C90.3321 57.6325 103.45 54.9788 103.45 64.0397V73.4538C103.467 74.0089 103.826 75.1193 105.122 75.1193V79.9493H101.678C101.171 80.0048 99.8545 79.7028 98.6388 78.0506C97.9235 78.3164 97.4177 78.5796 96.9528 78.8216C95.7278 79.4592 94.7862 79.9493 91.041 79.9493C85.8745 79.9493 82.1938 78.6169 82.1938 73.4538C82.1938 68.2907 86.0267 65.426 97.5754 65.7924C97.5754 63.6939 96.951 60.7953 86.6293 64.1975C85.8026 63.0534 84.5194 61.1912 83.7733 60.092ZM97.4906 70.2159C97.6928 71.9332 96.9998 75.3677 92.6108 75.3677C89.2083 75.3677 88.1532 74.5351 88.1532 72.9219C88.1532 70.372 91.5031 70.2159 97.4906 70.2159Z" fill="#69E3C2"/>
<path d="M53.7119 58.0644H57.5253L58.8902 52.7091L63.3883 51.8145V58.0644H68.5772V62.7968H63.3883V73.2431C63.3883 74.8181 64.691 75.2069 65.3423 75.2044H68.4575V79.7395H62.5145C58.4628 79.7395 57.5002 75.4086 57.5253 73.2431V62.7968H53.7119V58.0644Z" fill="#69E3C2"/>
<path d="M70.9609 79.6831V58.4427H75.4753C75.5423 59.439 76.3629 59.908 76.8318 59.6106C79.1363 58.1172 81.8497 57.7663 82.9183 57.7776V63.3205H81.7149C77.3718 63.3205 76.4221 66.2176 76.4901 67.6661V79.6831H70.9609Z" fill="#69E3C2"/>
<path d="M106.733 79.6831V58.4428H111.247C111.314 59.4391 112.135 59.9081 112.604 59.6107C114.908 58.1173 117.622 57.7664 118.69 57.7777C121.794 57.55 128 58.5844 128 64.5427V79.6831H122.471V67.6662C122.548 66.2177 121.9 63.3206 118.69 63.3206H117.487C113.144 63.3206 112.194 66.2177 112.262 67.6662V79.6831H106.733Z" fill="#69E3C2"/>
</svg>
