<svg width="260" height="80" viewBox="0 0 260 80" fill="none" xmlns="http://www.w3.org/2000/svg">
<path d="M0 68.9667V11H14.9047V33.4333C26.3391 20.3898 44.1933 16.0158 51.6911 15.4592V11.6398L69.9001 21.7416L51.6911 32.3432V27.8088C21.2472 33.4641 14.4819 57.6038 14.9047 68.9667H0Z" fill="#69E3C2"/>
<path d="M51.775 69C51.775 52.6806 43.1737 39.3204 38.8731 34.6802C34.8964 36.6063 30.7049 39.6972 29.1523 42.2095C35.8685 49.0034 38.7847 62.9006 39.4033 69H51.775Z" fill="#69E3C2"/>
<path fill-rule="evenodd" clip-rule="evenodd" d="M55.7073 34.6351C66.9802 30.3895 89.5258 25.8087 89.5258 41.4496V57.7001C89.5555 58.6584 90.172 60.5751 92.4007 60.5751V68.9126H86.4808C85.6102 69.0084 83.3467 68.4871 81.2573 65.6351C80.0279 66.0938 79.1586 66.5482 78.3595 66.9659C76.254 68.0666 74.6356 68.9126 68.1987 68.9126C59.3189 68.9126 52.9927 66.6126 52.9927 57.7001C52.9927 48.7876 59.5804 43.8426 79.4295 44.4751C79.4295 40.8526 78.3565 35.849 60.616 41.722C59.1952 39.7471 56.9897 36.5325 55.7073 34.6351ZM79.2827 52.1109C79.6302 55.0752 78.4393 61.0039 70.8956 61.0039C65.0476 61.0039 63.2342 59.5666 63.2342 56.7819C63.2342 52.3803 68.9918 52.1109 79.2827 52.1109Z" fill="#69E3C2"/>
<path fill-rule="evenodd" clip-rule="evenodd" d="M143.986 34.6351C155.259 30.3895 177.805 25.8087 177.805 41.4496V57.7001C177.834 58.6584 178.451 60.5751 180.68 60.5751V68.9126H174.76C173.889 69.0084 171.626 68.4871 169.536 65.6351C168.307 66.0938 167.437 66.5482 166.638 66.9659C164.533 68.0666 162.914 68.9126 156.478 68.9126C147.598 68.9126 141.271 66.6126 141.271 57.7001C141.271 48.7876 147.859 43.8426 167.708 44.4751C167.708 40.8526 166.635 35.849 148.895 41.722C147.474 39.7471 145.268 36.5325 143.986 34.6351ZM167.561 52.1109C167.908 55.0752 166.717 61.0039 159.174 61.0039C153.325 61.0039 151.512 59.5666 151.512 56.7819C151.512 52.3803 157.27 52.1109 167.561 52.1109Z" fill="#69E3C2"/>
<path d="M92.3164 31.135H98.8706L101.216 21.8908L108.948 20.3464V31.135H117.866V39.3041H108.948V57.3365C108.948 60.0552 111.187 60.7263 112.306 60.7219H117.66V68.5504H107.446C100.482 68.5504 98.8274 61.0745 98.8706 57.3365V39.3041H92.3164V31.135Z" fill="#69E3C2"/>
<path d="M121.965 68.4531V31.7881H129.724C129.839 33.5079 131.249 34.3175 132.055 33.8042C136.016 31.2262 140.68 30.6205 142.516 30.64V40.2081H140.448C132.983 40.2081 131.351 45.209 131.468 47.7095V68.4531H121.965Z" fill="#69E3C2"/>
<path d="M183.447 68.453V31.7881H191.206C191.321 33.5078 192.731 34.3175 193.537 33.8041C197.498 31.2261 202.162 30.6205 203.998 30.6399C209.332 30.247 220 32.0324 220 42.3178V68.453H210.497V47.7095C210.629 45.209 209.515 40.2081 203.998 40.2081H201.93C194.465 40.2081 192.833 45.209 192.95 47.7095V68.453H183.447Z" fill="#69E3C2"/>
</svg>
