<svg width="128" height="128" viewBox="0 0 128 128" fill="none" xmlns="http://www.w3.org/2000/svg">
<path d="M60.4494 19.8071L99.0388 38.1763L108.57 79.4515L81.8649 112.552H39.0338L12.3291 79.4515L21.8599 38.1763L60.4494 19.8071Z" fill="#082C75"/>
<path fill-rule="evenodd" clip-rule="evenodd" d="M56.4975 11.6508C58.9959 10.4615 61.9042 10.4615 64.4027 11.6508L102.992 30.02C105.498 31.2127 107.319 33.472 107.939 36.1577L117.47 77.4329C118.091 80.1229 117.44 82.9468 115.701 85.1021L88.9959 118.202C87.2635 120.35 84.6398 121.6 81.8656 121.6H39.0345C36.2604 121.6 33.6367 120.35 31.9042 118.202L5.19946 85.1021C3.46061 82.9468 2.8092 80.1229 3.43035 77.4329L12.9612 36.1577C13.5813 33.472 15.4022 31.2127 17.908 30.02L56.4975 11.6508ZM99.0395 38.1762L60.4501 19.807L21.8606 38.1762L12.3298 79.4514L39.0345 112.552H81.8656L108.57 79.4514L99.0395 38.1762Z" fill="#A1DFED"/>
<path d="M67.0191 15.5964C67.4355 15.3982 67.9202 15.3982 68.3366 15.5964L105.606 33.3374C106.024 33.5362 106.328 33.9128 106.431 34.3604L115.634 74.2176C115.738 74.6659 115.629 75.1366 115.339 75.4958L89.5502 107.461C89.2615 107.819 88.8242 108.027 88.3618 108.027H46.9939C46.5315 108.027 46.0942 107.819 45.8055 107.461L20.0163 75.4958C19.7265 75.1366 19.6179 74.6659 19.7215 74.2176L28.9248 34.3604C29.0282 33.9128 29.3317 33.5362 29.7493 33.3374L67.0191 15.5964Z" fill="#082C75"/>
<path fill-rule="evenodd" clip-rule="evenodd" d="M72.2875 7.44054L109.557 25.1815C112.481 26.5731 114.605 29.209 115.329 32.3422L124.532 72.1994C125.257 75.3378 124.497 78.6324 122.468 81.1469L96.6789 113.112C94.6576 115.617 91.5967 117.076 88.3601 117.076H46.9921C43.7556 117.076 40.6946 115.617 38.6734 113.112L12.8842 81.1469C10.8556 78.6324 10.0956 75.3378 10.8203 72.1994L20.0237 32.3422C20.7472 29.209 22.8716 26.5731 25.795 25.1815L63.0648 7.44054C65.9796 6.05303 69.3726 6.05302 72.2875 7.44054ZM68.3349 15.5968C67.9185 15.3986 67.4338 15.3986 67.0174 15.5968L29.7476 33.3378C29.33 33.5366 29.0265 33.9132 28.9231 34.3608L19.7197 74.218C19.6162 74.6663 19.7248 75.137 20.0146 75.4962L45.8038 107.461C46.0925 107.819 46.5298 108.028 46.9921 108.028H88.3601C88.8225 108.028 89.2598 107.819 89.5485 107.461L115.338 75.4962C115.627 75.137 115.736 74.6663 115.633 74.218L106.429 34.3608C106.326 33.9132 106.022 33.5366 105.605 33.3378L68.3349 15.5968Z" fill="#539BFD"/>
<path fill-rule="evenodd" clip-rule="evenodd" d="M60.0996 26.4053H74.8723L71.9901 51.7061L67.4859 56.1701L62.9818 51.7061L60.0996 26.4053ZM63.0799 29.0443L65.5233 50.4928L67.4859 52.4379L69.4486 50.4928L71.8919 29.0443H63.0799Z" fill="white"/>
<path fill-rule="evenodd" clip-rule="evenodd" d="M81.5087 46.7776C79.0133 43.7739 76.0957 42.8304 74.3149 42.8048L74.3535 40.166C76.9473 40.2033 80.5916 41.5218 83.5644 45.1001C86.5458 48.6888 88.7893 54.4652 88.7893 63.352V63.6991L88.617 64.0013C86.1918 68.2538 85.2357 71.0454 84.9537 73.6039C84.6955 75.9463 84.9865 78.1587 85.3998 81.3002C85.4468 81.6581 85.4955 82.0281 85.5451 82.4117L85.6593 83.2945L84.8763 83.7301C76.5202 88.3795 72.1298 95.7258 71.0171 98.6861L68.5112 97.794L80.6839 62.9206L83.2004 63.7834L74.5429 88.5863C76.702 86.233 79.4368 83.8592 82.7901 81.8778C82.7783 81.7885 82.7665 81.6997 82.7548 81.6113C82.3479 78.5356 82.0117 75.9936 82.3067 73.3173C82.635 70.3386 83.7265 67.2677 86.1254 63.0088C86.0685 54.7573 83.9617 49.7301 81.5087 46.7776Z" fill="white"/>
<path fill-rule="evenodd" clip-rule="evenodd" d="M81.5611 63.3532L53.0312 63.3532L53.0312 60.7129L81.5611 60.7129L81.5611 63.3532Z" fill="white"/>
<path fill-rule="evenodd" clip-rule="evenodd" d="M53.2745 46.7776C55.7699 43.7739 58.6875 42.8304 60.4683 42.8048L60.4297 40.166C57.8359 40.2033 54.1916 41.5218 51.2189 45.1001C48.2374 48.6888 45.9939 54.4652 45.9939 63.352V63.6991L46.1662 64.0013C48.5914 68.2538 49.5475 71.0454 49.8295 73.6039C50.0877 75.9463 49.7967 78.1587 49.3834 81.3002C49.3364 81.6581 49.2877 82.0281 49.2381 82.4117L49.1239 83.2945L49.9069 83.7301C58.263 88.3795 62.6534 95.7258 63.7661 98.6861L66.272 97.794L54.0993 62.9206L51.5828 63.7834L60.2403 88.5863C58.0812 86.233 55.3464 83.8592 51.9931 81.8778C52.0049 81.7885 52.0167 81.6997 52.0284 81.6113C52.4353 78.5356 52.7715 75.9936 52.4765 73.3173C52.1482 70.3386 51.0567 67.2677 48.6578 63.0088C48.7147 54.7573 50.8215 49.7301 53.2745 46.7776Z" fill="white"/>
</svg>
