<svg width="260" height="80" viewBox="0 0 260 80" fill="none" xmlns="http://www.w3.org/2000/svg">
<g clip-path="url(#clip0_1113_2099)">
<path d="M24.6233 20.8193L41.2206 28.7921L45.3198 46.7066L33.8341 61.073H15.4125L3.92676 46.7066L8.02596 28.7921L24.6233 20.8193Z" fill="#082C75"/>
<path fill-rule="evenodd" clip-rule="evenodd" d="M22.9232 17.2792C23.9978 16.763 25.2486 16.763 26.3232 17.2792L42.9205 25.252C43.9983 25.7697 44.7815 26.7503 45.0482 27.9159L49.1474 45.8305C49.4145 46.998 49.1344 48.2237 48.3865 49.1591L36.9008 63.5255C36.1556 64.4575 35.0272 65.0001 33.834 65.0001H15.4124C14.2192 65.0001 13.0907 64.4575 12.3456 63.5255L0.859885 49.1591C0.112006 48.2237 -0.168166 46.998 0.0989909 45.8305L4.19819 27.9159C4.46492 26.7503 5.2481 25.7697 6.32584 25.252L22.9232 17.2792ZM41.2205 28.792L24.6232 20.8193L8.02585 28.792L3.92665 46.7066L15.4124 61.0729H33.834L45.3197 46.7066L41.2205 28.792Z" fill="#A1DFED"/>
<path d="M27.4486 18.9918C27.6277 18.9057 27.8362 18.9057 28.0152 18.9918L44.045 26.6918C44.2246 26.7781 44.3551 26.9416 44.3996 27.1358L48.358 44.435C48.4025 44.6295 48.3558 44.8338 48.2312 44.9897L37.1392 58.8635C37.015 59.0189 36.827 59.1093 36.6281 59.1093H18.8357C18.6369 59.1093 18.4488 59.0189 18.3246 58.8635L7.23267 44.9897C7.10802 44.8338 7.06133 44.6295 7.10585 44.435L11.0642 27.1358C11.1087 26.9416 11.2392 26.7781 11.4188 26.6918L27.4486 18.9918Z" fill="#082C75"/>
<path fill-rule="evenodd" clip-rule="evenodd" d="M29.7152 15.4517L45.7449 23.1517C47.0023 23.7557 47.916 24.8998 48.2271 26.2597L52.1855 43.5588C52.4972 44.9209 52.1703 46.3509 51.2978 47.4422L40.2059 61.316C39.3366 62.4034 38.02 63.0364 36.628 63.0364H18.8356C17.4436 63.0364 16.1271 62.4034 15.2577 61.316L4.1658 47.4422C3.29327 46.3509 2.9664 44.9209 3.27809 43.5588L7.23646 26.2597C7.54764 24.8998 8.46136 23.7557 9.71872 23.1517L25.7485 15.4517C27.0021 14.8494 28.4615 14.8494 29.7152 15.4517ZM28.0151 18.9917C27.836 18.9057 27.6276 18.9057 27.4485 18.9917L11.4187 26.6918C11.2391 26.7781 11.1086 26.9415 11.0641 27.1358L7.10575 44.4349C7.06122 44.6295 7.10792 44.8338 7.23256 44.9897L18.3245 58.8635C18.4487 59.0188 18.6368 59.1093 18.8356 59.1093H36.628C36.8269 59.1093 37.0149 59.0188 37.1391 58.8635L48.2311 44.9897C48.3557 44.8338 48.4024 44.6295 48.3579 44.4349L44.3995 27.1358C44.355 26.9415 44.2245 26.7781 44.0449 26.6918L28.0151 18.9917Z" fill="#539BFD"/>
<path fill-rule="evenodd" clip-rule="evenodd" d="M24.4727 23.6826H30.8264L29.5867 34.6639L27.6495 36.6014L25.7123 34.6639L24.4727 23.6826ZM25.7545 24.828L26.8054 34.1372L27.6495 34.9815L28.4936 34.1372L29.5445 24.828H25.7545Z" fill="white"/>
<path fill-rule="evenodd" clip-rule="evenodd" d="M33.6801 32.5249C32.6068 31.2212 31.3519 30.8117 30.586 30.8006L30.6026 29.6553C31.7182 29.6714 33.2856 30.2437 34.5642 31.7968C35.8465 33.3544 36.8115 35.8615 36.8115 39.7186V39.8693L36.7373 40.0004C35.6943 41.8461 35.283 43.0578 35.1618 44.1682C35.0507 45.1849 35.1759 46.1451 35.3536 47.5086C35.3739 47.664 35.3948 47.8246 35.4161 47.9911L35.4652 48.3742L35.1285 48.5633C31.5345 50.5812 29.6462 53.7697 29.1676 55.0546L28.0898 54.6674L33.3253 39.5314L34.4077 39.9059L30.6841 50.671C31.6127 49.6496 32.7889 48.6193 34.2312 47.7593C34.2261 47.7206 34.221 47.682 34.216 47.6436C34.041 46.3087 33.8964 45.2054 34.0233 44.0438C34.1645 42.751 34.6339 41.4181 35.6657 39.5697C35.6412 35.9883 34.7351 33.8064 33.6801 32.5249Z" fill="white"/>
<path fill-rule="evenodd" clip-rule="evenodd" d="M33.7033 39.7192L21.4326 39.7192L21.4326 38.5732L33.7033 38.5732L33.7033 39.7192Z" fill="white"/>
<path fill-rule="evenodd" clip-rule="evenodd" d="M21.5372 32.5249C22.6105 31.2212 23.8653 30.8117 24.6313 30.8006L24.6147 29.6553C23.4991 29.6714 21.9317 30.2437 20.6531 31.7968C19.3708 33.3544 18.4058 35.8615 18.4058 39.7186V39.8693L18.4799 40.0004C19.523 41.8461 19.9342 43.0578 20.0555 44.1682C20.1666 45.1849 20.0414 46.1451 19.8637 47.5086C19.8434 47.664 19.8225 47.8246 19.8012 47.9911L19.752 48.3742L20.0888 48.5633C23.6828 50.5812 25.5711 53.7697 26.0497 55.0546L27.1274 54.6674L21.892 39.5314L20.8096 39.9059L24.5332 50.671C23.6046 49.6496 22.4283 48.6193 20.9861 47.7593C20.9912 47.7206 20.9962 47.682 21.0013 47.6436C21.1763 46.3087 21.3209 45.2054 21.194 44.0438C21.0528 42.751 20.5834 41.4181 19.5516 39.5697C19.5761 35.9883 20.4822 33.8064 21.5372 32.5249Z" fill="white"/>
<path d="M77.0938 56.3275L68.4919 45.249L75.8359 35.753H69.912L63.5011 44.4779V27.9209L58.3887 29.3936V56.3275H63.5011V46.5475L70.8046 56.3275H77.0938Z" fill="#0C4296"/>
<path d="M92.8613 35.753V47.1968C92.8613 49.5911 91.5629 51.8231 88.4792 51.8231C85.5983 51.8231 84.5028 49.8346 84.5028 47.1968V35.753H79.3498V48.2925C79.3498 52.6347 81.7031 56.8551 86.8967 56.8551C89.8993 56.8551 91.7252 55.5159 92.8613 53.8115V56.3275H98.0143V35.753H92.8613Z" fill="#0C4296"/>
<path d="M114.613 35.266C111.407 35.266 109.338 36.4835 108.04 38.1879V27.9209H102.886V56.3275H108.04V53.9333C109.338 55.5971 111.407 56.8551 114.613 56.8551C120.983 56.8551 124.635 51.4578 124.635 46.0606C124.635 40.6633 120.983 35.266 114.613 35.266ZM113.801 51.9042C110.271 51.9042 108.242 49.2259 108.242 46.0606C108.242 42.8953 110.271 40.2169 113.801 40.2169C117.331 40.2169 119.36 42.8953 119.36 46.0606C119.36 49.2259 117.331 51.9042 113.801 51.9042Z" fill="#0C4296"/>
<path d="M137.577 35.266C131.897 35.266 127.068 39.6082 127.068 46.0606C127.068 52.31 131.572 56.8551 138.389 56.8551C142.284 56.8551 145.449 54.9884 147.112 52.6753L142.974 50.2404C142.365 51.0114 140.742 52.2695 138.389 52.2695C135.548 52.2695 133.276 50.8085 132.546 48.049H147.802C148.735 39.9329 143.785 35.266 137.577 35.266ZM132.546 44.0721C133.155 41.4343 135.143 39.8517 137.658 39.8517C140.417 39.8517 142.243 41.3938 142.771 44.0721H132.546Z" fill="#0C4296"/>
<path d="M160.146 35.2661C156.697 35.2661 153.857 36.5241 151.584 38.5937L155.114 41.2721C155.885 40.7445 157.549 39.7706 159.415 39.7706C162.58 39.7706 163.635 41.0692 163.676 44.0316C163.189 44.0316 162.256 44.0316 161.444 44.0316C158.726 44.0316 150.367 44.0316 150.367 50.8086C150.367 55.1913 154.587 56.8552 157.671 56.8552C160.43 56.8552 162.702 55.7189 163.676 54.1362V56.3276H168.829V43.9099C168.829 38.9996 166.678 35.2661 160.146 35.2661ZM163.676 50.768C163.229 51.6202 161.85 53.1217 159.213 53.1217C156.656 53.1217 155.642 51.8637 155.642 50.3216C155.642 47.2375 159.659 47.2781 163.351 47.2781C163.432 47.2781 163.554 47.2781 163.676 47.2781V50.768Z" fill="#6981A4"/>
<path d="M178.848 39.1213V35.7531H173.695V56.3276H178.848V47.8462C178.848 44.0316 179.619 40.1358 185.705 40.8663V35.2661C183.23 35.2661 180.39 36.5647 178.848 39.1213Z" fill="#6981A4"/>
<path d="M211.825 35.2661C208.903 35.2661 206.875 36.6864 205.617 38.5126C204.562 36.5647 202.736 35.2661 199.936 35.2661C197.218 35.2661 195.554 36.443 194.499 37.9445V35.7531H189.346V56.3276H194.499V44.5186C194.499 42.1649 195.757 40.2576 198.151 40.2576C200.545 40.2576 201.6 41.962 201.6 44.5186V56.3276H206.753V44.5186C206.753 42.1649 208.011 40.2576 210.405 40.2576C212.799 40.2576 213.853 41.962 213.853 44.5186V56.3276H219.007V43.4635C219.007 39.1213 216.572 35.2661 211.825 35.2661Z" fill="#6981A4"/>
<path d="M233.475 35.2661C227.308 35.2661 222.641 40.0141 222.641 46.0606C222.641 52.0666 227.308 56.8552 233.475 56.8552C239.683 56.8552 244.349 52.0666 244.349 46.0606C244.349 40.0141 239.683 35.2661 233.475 35.2661ZM233.475 51.9043C230.067 51.9043 227.916 49.2665 227.916 46.0606C227.916 42.8547 230.067 40.217 233.475 40.217C236.924 40.217 239.074 42.8547 239.074 46.0606C239.074 49.2665 236.924 51.9043 233.475 51.9043Z" fill="#6981A4"/>
<path d="M253.143 39.1213V35.7531H247.99V56.3276H253.143V47.8462C253.143 44.0316 253.914 40.1358 260 40.8663V35.2661C257.525 35.2661 254.685 36.5647 253.143 39.1213Z" fill="#6981A4"/>
</g>
<defs>
<clipPath id="clip0_1113_2099">
<rect width="260" height="80" fill="white"/>
</clipPath>
</defs>
</svg>
