<svg width="128" height="128" viewBox="0 0 128 128" fill="none" xmlns="http://www.w3.org/2000/svg">
<ellipse rx="39.6827" ry="39.941" transform="matrix(0.983134 0.182884 -0.180444 0.983585 68.2609 63.3281)" stroke="#2F5FDE" stroke-width="7.17279"/>
<path fill-rule="evenodd" clip-rule="evenodd" d="M86.7916 29.2581C88.1054 29.8882 88.6648 31.462 88.0426 32.7775L79.6376 50.5486C79.1703 51.5367 79.3793 52.6991 80.0295 53.5801C80.1429 53.7338 80.2533 53.8898 80.3607 54.0478C81.0488 55.0612 82.2492 55.6673 83.4425 55.4025L101.023 51.501C102.451 51.184 103.867 52.0904 104.18 53.5221L104.999 57.2642C105.311 58.6865 104.416 60.0905 102.997 60.4054L84.2859 64.5578C83.2797 64.7811 82.5198 65.6111 82.2135 66.5959C81.8588 67.7364 82.1424 69.0011 83.0757 69.7491L97.8513 81.5907C98.987 82.5009 99.1769 84.1566 98.2763 85.2961L95.9081 88.2925C95.0006 89.4407 93.3313 89.6287 92.187 88.7115L76.2541 75.9425C75.6028 75.4205 74.7122 75.3475 73.943 75.6667C73.0995 76.0168 72.4848 76.8023 72.4722 77.717L72.1916 98.0844C72.1715 99.5421 70.9762 100.706 69.5197 100.685L65.7427 100.633C64.2817 100.612 63.1121 99.4086 63.1322 97.9465L63.4154 77.3915C63.4281 76.4656 62.8396 75.6414 62.0123 75.2252C61.1587 74.7959 60.1294 74.8428 59.3936 75.4495L43.8424 88.2698C42.7125 89.2012 41.0389 89.0323 40.1129 87.8934L37.7117 84.9399C36.794 83.8112 36.9571 82.1548 38.0768 81.2318L53.5827 68.4488C54.4046 67.7712 54.6879 66.6592 54.4404 65.6208C54.1868 64.5571 53.3998 63.6537 52.3293 63.4352L32.7143 59.4317C31.2845 59.1399 30.359 57.7439 30.6469 56.3134L31.4039 52.5527C31.6919 51.1218 33.0851 50.1983 34.5154 50.4902L54.206 54.5092C55.2986 54.7322 56.3969 54.2132 57.0782 53.3319C57.7597 52.4503 57.9732 51.267 57.4818 50.2641L48.4183 31.7646C47.7783 30.4582 48.3109 28.8821 49.6107 28.2364L53.0083 26.5485C54.3196 25.8971 55.9125 26.4396 56.5582 27.7576L65.5627 46.1367C66.0685 47.1691 67.1827 47.7328 68.3304 47.7236C68.5058 47.7221 68.6817 47.724 68.858 47.7291C70.0385 47.7632 71.1913 47.1885 71.6962 46.1212L79.8553 28.8701C80.4803 27.5485 82.0603 26.9891 83.3801 27.622L86.7916 29.2581ZM67.8167 68.975C68.2377 69.1648 68.7223 69.1513 69.1322 68.9383L73.5676 66.633C73.9748 66.4214 74.2638 66.0359 74.3529 65.5854L75.3314 60.6417C75.4202 60.1928 75.301 59.7279 75.0073 59.3774L71.7832 55.5298C71.4871 55.1764 71.0459 54.9779 70.5852 54.9907L65.5995 55.1297C65.1388 55.1426 64.7092 55.3654 64.433 55.7347L61.4252 59.7561C61.1512 60.1224 61.0578 60.5933 61.1712 61.0365L62.4198 65.9181C62.5335 66.3629 62.8433 66.7318 63.2615 66.9204L67.8167 68.975Z" fill="#2F5FDE"/>
<path d="M8.62574 117.299C7.33873 118.36 5.44242 118.171 4.39021 116.876L1.90529 113.82C0.853073 112.526 1.04341 110.616 2.33042 109.555L31.4494 85.5499C32.2538 84.8868 33.439 85.0049 34.0966 85.8138L38.0105 90.6277C38.6681 91.4366 38.5491 92.6299 37.7447 93.293L8.62574 117.299Z" fill="#2F5FDE"/>
<path d="M14.1266 56.0577C11.5218 55.7247 9.73942 53.2517 10.2468 50.6746L10.5221 49.2762C11.0323 46.6844 13.6415 45.0831 16.184 45.8012L28.4061 49.2533L26.7125 57.667L14.1266 56.0577Z" fill="#2F5FDE"/>
<path d="M40.2904 15.4237C39.0134 13.1315 39.9416 10.226 42.3115 9.09716L43.5508 8.50689C45.9344 7.37156 48.769 8.51185 49.7038 10.982L54.2344 22.9547L46.5123 26.5922L40.2904 15.4237Z" fill="#2F5FDE"/>
<path d="M87.5712 10.9314C88.5736 8.50408 91.4162 7.44483 93.761 8.62491L94.9885 9.24269C97.3468 10.4295 98.2058 13.3792 96.8531 15.6452L90.2982 26.6255L82.6887 22.7548L87.5712 10.9314Z" fill="#2F5FDE"/>
<path d="M120.54 45.8532C123.024 44.9957 125.706 46.4243 126.379 48.963L126.744 50.339C127.421 52.8921 125.781 55.4881 123.185 55.9724L110.703 58.3011L108.538 49.9976L120.54 45.8532Z" fill="#2F5FDE"/>
<path d="M114.124 93.4273C116.235 94.9871 116.592 98.0196 114.903 100.03L114.002 101.101C112.302 103.122 109.251 103.256 107.38 101.391L98.3477 92.3882L103.884 85.8599L114.124 93.4273Z" fill="#2F5FDE"/>
<path d="M73.3059 118.31C73.4834 120.928 71.4053 123.149 68.7806 123.146L67.4202 123.144C64.7804 123.141 62.7025 120.89 62.9095 118.258L63.9147 105.479L72.4398 105.527L73.3059 118.31Z" fill="#2F5FDE"/>
</svg>
