<svg width="260" height="80" viewBox="0 0 260 80" fill="none" xmlns="http://www.w3.org/2000/svg">
<path fill-rule="evenodd" clip-rule="evenodd" d="M69.8745 51.2802V27.8608H74.0576V41.3029H74.1219L80.3322 34.2771H85.5771L79.4312 41.1746L86.1241 51.2802H81.4906L76.2778 43.5165H76.2135L74.0576 45.9547V51.2802H69.8745ZM88.0369 45.2489V34.2771H92.2199V44.7998C92.2199 45.8692 92.4237 46.6284 92.8313 47.0776C93.2389 47.5267 93.8931 47.7513 94.7941 47.7513C95.8024 47.7513 96.6175 47.4893 97.2396 46.9653C97.8617 46.4413 98.1728 45.6125 98.1728 44.479V34.2771H102.356V51.2802H98.3658V49.6441H98.3015C97.2503 51.0557 95.7702 51.7614 93.861 51.7614C91.8874 51.7614 90.4234 51.1733 89.4688 49.997C88.5142 48.8206 88.0369 47.238 88.0369 45.2489ZM110.865 41.2067V44.3186C110.865 45.3452 111.192 46.2167 111.846 46.9332C112.501 47.6497 113.396 48.0079 114.533 48.0079C115.756 48.0079 116.705 47.5641 117.381 46.6766C118.057 45.789 118.394 44.4897 118.394 42.7787C118.394 41.0463 118.057 39.7416 117.381 38.8647C116.705 37.9878 115.756 37.5494 114.533 37.5494C113.396 37.5494 112.501 37.9023 111.846 38.6081C111.192 39.3139 110.865 40.1801 110.865 41.2067ZM106.682 51.2802V27.8608H110.865V35.9133H110.929L111.09 35.6726C111.155 35.5764 111.321 35.4107 111.589 35.1754C111.857 34.9401 112.147 34.7262 112.458 34.5338C112.769 34.3413 113.176 34.1702 113.68 34.0205C114.185 33.8707 114.715 33.7959 115.273 33.7959C117.376 33.7959 119.118 34.6246 120.502 36.2822C121.886 37.9397 122.578 40.1052 122.578 42.7787C122.578 45.5163 121.907 47.6978 120.566 49.3233C119.226 50.9487 117.429 51.7614 115.177 51.7614C114.254 51.7614 113.418 51.585 112.667 51.2321C111.916 50.8792 111.401 50.5317 111.122 50.1895L110.672 49.6441H110.608V51.2802H106.682ZM136.846 45.4093L139.775 47.9758C138.037 50.4996 135.688 51.7614 132.728 51.7614C130.347 51.7614 128.405 50.9434 126.904 49.3072C125.402 47.6711 124.651 45.4949 124.651 42.7787C124.651 40.0624 125.397 37.8863 126.888 36.2501C128.378 34.614 130.261 33.7959 132.535 33.7959C134.809 33.7959 136.68 34.614 138.15 36.2501C139.619 37.8863 140.354 40.0624 140.354 42.7787V44.0298H128.899C128.963 45.3345 129.322 46.3343 129.977 47.0294C130.631 47.7245 131.526 48.0721 132.663 48.0721C133.629 48.0721 134.428 47.8315 135.061 47.3503C135.693 46.869 136.289 46.2221 136.846 45.4093ZM128.899 40.9179H136.299C136.192 39.8272 135.817 38.977 135.173 38.3675C134.53 37.7579 133.65 37.4532 132.535 37.4532C131.505 37.4532 130.663 37.7847 130.009 38.4477C129.354 39.1107 128.984 39.9341 128.899 40.9179ZM153.786 44.4148L157.744 45.4414C157.358 47.4732 156.521 49.0345 155.234 50.1253C153.947 51.2161 152.327 51.7614 150.375 51.7614C148.058 51.7614 146.155 50.9701 144.664 49.3874C143.173 47.8047 142.427 45.6018 142.427 42.7787C142.427 39.9769 143.194 37.7793 144.728 36.1859C146.262 34.5926 148.155 33.7959 150.407 33.7959C152.317 33.7959 153.915 34.352 155.202 35.4641C156.489 36.5763 157.283 38.0627 157.583 39.9234L153.689 40.6613C153.282 38.5867 152.188 37.5494 150.407 37.5494C149.228 37.5494 148.289 37.9932 147.592 38.8808C146.895 39.7684 146.546 41.0676 146.546 42.7787C146.546 44.4897 146.889 45.789 147.576 46.6766C148.262 47.5641 149.206 48.0079 150.407 48.0079C152.295 48.0079 153.421 46.8102 153.786 44.4148ZM161.652 45.2169V37.8061H159.013V34.2771H161.748V30.1065H165.706V34.2771H170.018V37.8061H165.77V44.8319C165.77 45.7302 165.92 46.3611 166.221 46.7247C166.521 47.0883 167.132 47.2701 168.055 47.2701H169.439V51.2802H167.669C165.373 51.2802 163.797 50.799 162.939 49.8366C162.081 48.8741 161.652 47.3342 161.652 45.2169ZM173.057 51.2802V27.8608H177.401V51.2802H173.057Z" fill="black"/>
<path fill-rule="evenodd" clip-rule="evenodd" d="M187.93 45.217V37.8062H185.291V34.2773H188.026V30.1067H191.984V34.2773H196.296V37.8062H192.048V44.832C192.048 45.7303 192.198 46.3612 192.499 46.7248C192.799 47.0884 193.41 47.2702 194.333 47.2702H195.717V51.2804H193.947C191.651 51.2804 190.075 50.7992 189.217 49.8367C188.359 48.8743 187.93 47.3344 187.93 45.217ZM199.335 51.2804V34.2773H203.292V36.0738H203.357C203.679 35.4322 204.156 34.9189 204.789 34.5339C205.422 34.1489 206.113 33.9564 206.864 33.9564C207.4 33.9564 207.915 34.0634 208.409 34.2773L207.765 38.3195C207.293 38.1484 206.853 38.0629 206.446 38.0629C204.494 38.0629 203.518 39.3568 203.518 41.9447V51.2804H199.335ZM220.683 51.2804V49.6442H220.618L220.457 49.8848C220.393 49.9811 220.232 50.1468 219.975 50.3821C219.717 50.6174 219.428 50.8312 219.106 51.0237C218.784 51.2162 218.344 51.3873 217.787 51.537C217.229 51.6867 216.628 51.7616 215.985 51.7616C213.925 51.7616 212.386 51.275 211.367 50.3019C210.348 49.3288 209.839 48.1364 209.839 46.7248C209.839 45.2491 210.279 44.1262 211.158 43.3563C212.038 42.5863 213.528 41.9447 215.631 41.4314C217.583 40.9609 218.806 40.5866 219.299 40.3086C219.792 40.0305 220.039 39.6348 220.039 39.1215C220.039 38.6082 219.798 38.1805 219.315 37.8383C218.832 37.4961 218.108 37.325 217.143 37.325C216.006 37.325 215.191 37.5763 214.698 38.0789C214.204 38.5815 213.818 39.2606 213.539 40.1161L210.064 38.6724C210.472 37.2394 211.265 36.0685 212.445 35.1595C213.625 34.2505 215.17 33.796 217.079 33.796C219.16 33.796 220.865 34.3414 222.195 35.4322C223.525 36.523 224.19 38.2126 224.19 40.501V51.2804H220.683ZM216.467 44.3187C215.395 44.5754 214.692 44.8801 214.36 45.233C214.027 45.5859 213.861 45.987 213.861 46.4361C213.861 47.591 214.698 48.1685 216.371 48.1685C217.636 48.1685 218.586 47.9279 219.219 47.4467C219.851 46.9654 220.168 46.3719 220.168 45.6661V42.7147H220.103C220.018 42.8858 219.926 43.0194 219.83 43.1157C219.733 43.2119 219.406 43.3723 218.848 43.5969C218.291 43.8215 217.497 44.0621 216.467 44.3187ZM238.427 44.415L242.384 45.4416C241.998 47.4734 241.162 49.0347 239.875 50.1254C238.587 51.2162 236.968 51.7616 235.016 51.7616C232.699 51.7616 230.795 50.9703 229.304 49.3876C227.813 47.8049 227.068 45.602 227.068 42.7788C227.068 39.977 227.835 37.7795 229.369 36.1861C230.902 34.5927 232.796 33.796 235.048 33.796C236.957 33.796 238.555 34.3521 239.842 35.4643C241.13 36.5764 241.923 38.0629 242.224 39.9236L238.33 40.6615C237.922 38.5868 236.828 37.5496 235.048 37.5496C233.868 37.5496 232.93 37.9933 232.232 38.8809C231.535 39.7685 231.187 41.0678 231.187 42.7788C231.187 44.4898 231.53 45.7891 232.216 46.6767C232.903 47.5643 233.847 48.0081 235.048 48.0081C236.936 48.0081 238.062 46.8104 238.427 44.415ZM256.492 45.4095L259.421 47.976C257.683 50.4997 255.334 51.7616 252.374 51.7616C249.993 51.7616 248.051 50.9435 246.55 49.3074C245.048 47.6712 244.297 45.4951 244.297 42.7788C244.297 40.0626 245.043 37.8864 246.534 36.2503C248.024 34.6141 249.907 33.796 252.181 33.796C254.455 33.796 256.326 34.6141 257.796 36.2503C259.265 37.8864 260 40.0626 260 42.7788V44.03H248.545C248.609 45.3346 248.968 46.3345 249.623 47.0296C250.277 47.7247 251.172 48.0722 252.309 48.0722C253.275 48.0722 254.074 47.8316 254.707 47.3504C255.339 46.8692 255.935 46.2222 256.492 45.4095ZM248.545 40.9181H255.945C255.838 39.8273 255.463 38.9772 254.819 38.3676C254.176 37.7581 253.296 37.4533 252.181 37.4533C251.151 37.4533 250.309 37.7848 249.655 38.4478C249 39.1109 248.63 39.9343 248.545 40.9181Z" fill="#326CE5"/>
<path d="M20.4185 53.0733C21.8885 54.0317 23.5338 54.7772 25.3228 55.2551C26.9565 55.6916 28.5984 55.875 30.2066 55.8295L28.6071 47.2084C28.5482 46.8912 28.3832 46.6033 28.1391 46.3917C27.543 45.875 26.6397 45.938 26.1215 46.5323L20.4185 53.0733ZM16.6639 49.7324L22.3723 43.0733C22.5825 42.8281 22.7031 42.5191 22.7144 42.1967C22.7419 41.4097 22.1244 40.7495 21.3351 40.722L12.8 40.4248C13.1127 43.8705 14.4831 47.1153 16.6639 49.7324ZM13.1124 35.3519L21.7233 35.7297C22.0465 35.7439 22.365 35.6484 22.6268 35.4588C23.2658 34.9959 23.4074 34.1042 22.9432 33.4672L17.9819 26.6589C15.8036 28.7309 14.1505 31.4066 13.3143 34.518C13.2397 34.7958 13.1724 35.0738 13.1124 35.3519ZM22.0954 23.7698L27.1458 30.5796C27.3382 30.839 27.6131 31.0257 27.9256 31.1091C28.6885 31.313 29.4727 30.8616 29.6771 30.1009L31.828 22.0976C28.4055 21.666 25.0327 22.2974 22.0954 23.7698ZM36.6821 23.4547L34.5576 31.6334C34.4765 31.9456 34.504 32.2761 34.6356 32.5708C34.9568 33.2902 35.8022 33.6137 36.5237 33.2934L44.1171 29.9227C42.3733 27.1413 39.8206 24.8567 36.6821 23.4547ZM46.1442 34.59L38.3147 37.981C38.018 38.1095 37.7737 38.3346 37.6218 38.6194C37.251 39.3147 37.5158 40.178 38.2131 40.5477L45.7337 44.5346C45.8779 44.1257 46.0076 43.7082 46.122 43.2825C46.9158 40.329 46.8752 37.3486 46.1442 34.59ZM43.3758 48.971L35.6469 44.9562C35.3599 44.8071 35.0308 44.7595 34.7132 44.8211C33.9379 44.9713 33.4315 45.7198 33.5822 46.4928L35.225 54.919C38.4558 53.8117 41.3156 51.7468 43.3758 48.971ZM33.8358 17.002L34.4369 12.5429C34.5781 11.4957 35.2601 10.5991 36.2335 10.1812C37.1591 9.78385 38.237 10.0555 38.8621 10.8437L38.902 10.8941C39.5805 11.7497 39.7395 12.9051 39.3173 13.9112L37.5824 18.0452C42.7844 19.9881 46.8951 23.7193 49.389 28.331L53.1986 26.0175C54.1037 25.4678 55.2318 25.432 56.1701 25.9233C57.0624 26.3904 57.529 27.3965 57.3079 28.3769L57.2938 28.4396C57.0538 29.5037 56.2533 30.354 55.2034 30.66L50.9358 31.9039C52.2634 35.8937 52.475 40.3024 51.3022 44.6664C51.0327 45.6692 50.6987 46.6377 50.3058 47.5684L54.3614 49.0926C55.3531 49.4654 56.0758 50.3296 56.2653 51.3693C56.4454 52.3578 55.9374 53.3439 55.0265 53.7738L54.9683 53.8013C53.9795 54.2679 52.8146 54.1624 51.9263 53.5259L48.4604 51.0425C45.4689 55.6345 40.888 58.9307 35.6871 60.3731L37.0028 64.3289C37.3363 65.3319 37.1175 66.4358 36.4264 67.2368C35.7692 67.9986 34.6809 68.2255 33.7726 67.7902L33.7145 67.7624C32.7285 67.2899 32.0776 66.321 32.0147 65.2321L31.7755 61.0904C29.213 61.3269 26.5658 61.1227 23.9348 60.4198C21.168 59.6807 18.6622 58.455 16.4854 56.8598L14.1768 60.317C13.5895 61.1966 12.5823 61.7043 11.5236 61.6545C10.5169 61.6071 9.66757 60.8918 9.45237 59.9102L9.4386 59.8474C9.20501 58.7819 9.57009 57.674 10.392 56.9542L13.5009 54.2315C9.7907 50.3229 7.5633 45.1401 7.37956 39.6516L3.14447 40.0467C2.08926 40.1452 1.05965 39.6843 0.432264 38.8327C-0.164317 38.0229 -0.141295 36.9146 0.488405 36.1301L0.52868 36.0799C1.2122 35.2284 2.30556 34.814 3.38382 34.9979L7.59989 35.7167C7.72555 34.8565 7.90296 33.9944 8.13416 33.1341C9.34946 28.6121 11.8762 24.7896 15.197 21.9643L12.1547 18.7508C11.4273 17.9823 11.1577 16.8897 11.4445 15.8724C11.7173 14.9052 12.6074 14.2409 13.6151 14.2527L13.6795 14.2534C14.7734 14.2662 15.774 14.8701 16.2926 15.8304L18.3826 19.701C22.9063 17.0463 28.36 15.9725 33.8358 17.002ZM30.6194 35.4513C30.5576 35.438 30.4938 35.4368 30.4318 35.4478L27.7296 35.9263C27.5879 35.9513 27.4667 36.0379 27.4001 36.1615L26.1316 38.5189C26.0725 38.6286 26.062 38.7576 26.1024 38.8764C26.1072 38.8908 26.1127 38.9049 26.119 38.9188L27.2389 41.3799C27.2976 41.5089 27.4132 41.6058 27.5529 41.6431L30.2183 42.3545C30.358 42.392 30.5066 42.3658 30.6222 42.2835L32.8258 40.7098C32.9414 40.6273 33.0113 40.4976 33.0156 40.3573L33.0984 37.6831C33.1028 37.5429 33.0412 37.4075 32.931 37.3152L30.8304 35.5543C30.7698 35.5034 30.6972 35.468 30.6194 35.4513Z" fill="#326CE5"/>
<path d="M23.2585 41.9946L27.0929 45.3178L5.75291 70.2496C4.98385 71.1481 3.62984 71.2549 2.72864 70.4881C2.72368 70.4839 2.71873 70.4796 2.71381 70.4753L1.66419 69.5656C0.770055 68.7907 0.675309 67.4398 1.45257 66.5484C1.45685 66.5434 1.46116 66.5386 1.46548 66.5337L23.2585 41.9946Z" fill="#326CE5"/>
</svg>
