<svg id="Layer_1" data-name="Layer 1" xmlns="http://www.w3.org/2000/svg" viewBox="0 0 966.8 336.03"><defs><style>.cls-1{fill:#74ae4c;}.cls-2{fill:#231f20;}.cls-3{fill:#679845;}</style></defs><path class="cls-1" d="M351.11,192.76C342.74,141.56,326.91,82,326.91,82s-32.57,61.44-66.08,81.92c-4.32,2.63-9.56,6-15.39,9.92H152.25a7.93,7.93,0,0,0,0,15.86h71.47c-19.1,15-39.7,34.39-53.78,56.33h-97a7.93,7.93,0,1,0,0,15.86H161.2A91,91,0,0,0,153,291.23H89.58a7.93,7.93,0,0,0,0,15.86h63.59a73.53,73.53,0,0,0,1.54,8.53C171.46,384.51,164.94,418,164.94,418s45.61-44.68,119.15-60.51S359.48,244,351.11,192.76Z" transform="translate(-16.6 -81.98)"/><path class="cls-1" d="M103.86,189.68h23.8a7.93,7.93,0,0,0,0-15.86h-23.8a7.93,7.93,0,1,0,0,15.86Z" transform="translate(-16.6 -81.98)"/><path class="cls-1" d="M48.33,246H24.53a7.93,7.93,0,1,0,0,15.86h23.8a7.93,7.93,0,0,0,0-15.86Z" transform="translate(-16.6 -81.98)"/><path class="cls-1" d="M241.9,146.85h23.8a7.94,7.94,0,0,0,0-15.87H241.9a7.94,7.94,0,1,0,0,15.87Z" transform="translate(-16.6 -81.98)"/><path class="cls-2" d="M462.63,345.37c-21.94,0-33.39-10-33.39-39V175.52a35.23,35.23,0,0,1,11.45-2c3.66,0,5.12,1.46,5.12,4.14v127c0,20,6.09,26.32,18.52,26.32h61.9c3.41,0,4.63,1.7,4.63,6.09v8.28Z" transform="translate(-16.6 -81.98)"/><path class="cls-2" d="M597.15,255.21c-1.47-2-2.68-5.85-3.17-9l51.66-57h-79.2c-2.68,0-3.9-1.46-3.9-4.63a41.1,41.1,0,0,1,1.22-9.75h93.58c3.17,0,4.87.73,6.33,2.92a25,25,0,0,1,3.17,8.78l-53.61,59.7c35.58,4.88,59.95,20.72,59.95,51.66,0,31.69-27,50.45-63.12,50.45-29.24,0-50.93-11.45-50.93-17.79a13.81,13.81,0,0,1,2.44-7.55c13.4,7.06,28.75,10.72,46.79,10.72,28,0,48.25-12.67,48.25-35.09,0-24.37-18-37.53-53.13-40.21C600.31,258.13,598.61,257.4,597.15,255.21Z" transform="translate(-16.6 -81.98)"/><path class="cls-2" d="M710,345.37c-3.41,0-5.36-1.21-5.36-3.41a6.92,6.92,0,0,1,.49-2.19l63.11-163a35.44,35.44,0,0,1,14.38-3.17c4.39,0,6.09,1.46,7.56,5.36l64.33,166.44H842.55c-4.39,0-6.09-1.21-7.07-4.14l-15.84-42.4H738l-17.54,46.54Zm68.72-155-35.58,94.06h71.16Z" transform="translate(-16.6 -81.98)"/><path class="cls-2" d="M890.31,345.37c-4.14,0-5.85-1.21-5.85-4.62v-166h95c2.68,0,3.9,1.71,3.9,4.87a42.74,42.74,0,0,1-1.22,9.75H901v65.07h64.34c3.65,0,4.87,1.46,4.87,5.85v8.53H901v76.51Z" transform="translate(-16.6 -81.98)"/><path class="cls-3" d="M351.12,192.76c-7.94-48.53-22.56-104.54-24.07-110.26.41,37.51-3.68,95.17-29,131.67-40,57.71-75.4,93.08-94.95,121-11.06,15.8-27.19,50.38-37.25,82,6.46-6,50.43-45,118.23-59.64C357.63,341.69,359.5,244,351.12,192.76Z" transform="translate(-16.6 -81.98)"/></svg>