<svg width="260" height="80" viewBox="0 0 260 80" fill="none" xmlns="http://www.w3.org/2000/svg">
<path d="M110.859 63.211C105.05 63.211 102 60.5809 102 52.9537V18.526C102.981 18.1841 103.989 18 105.05 18C106.032 18 106.403 18.3945 106.403 19.0783V52.4803C106.403 57.7404 108.021 59.3974 111.31 59.3974H127.729C128.631 59.3974 128.949 59.8445 128.949 61.0017V63.1847L110.859 63.211Z" fill="#1A1A1A"/>
<path d="M146.562 39.4876C146.164 38.9616 145.846 37.9358 145.713 37.1205L159.426 22.1291H138.419C137.702 22.1291 137.384 21.7346 137.384 20.9193C137.384 20.0513 137.49 19.1834 137.702 18.3418H162.53C163.378 18.3418 163.829 18.5259 164.201 19.1045C164.625 19.8146 164.917 20.6037 165.049 21.419L150.832 37.1205C160.275 38.4093 166.747 42.5648 166.747 50.718C166.747 59.0553 159.585 63.9999 150.01 63.9999C142.265 63.9999 136.509 60.9753 136.509 59.3183C136.535 58.6082 136.748 57.9244 137.145 57.3458C140.7 59.2131 144.785 60.16 149.559 60.16C156.986 60.16 162.344 56.8198 162.344 50.9284C162.344 44.511 157.569 41.0656 148.259 40.3555C147.384 40.2503 146.933 40.0662 146.562 39.4876Z" fill="#1A1A1A"/>
<path d="M176.481 63.211C175.579 63.211 175.049 62.8954 175.049 62.3168C175.049 62.1064 175.102 61.9223 175.181 61.7382L191.919 18.868C193.112 18.3157 194.412 18.0527 195.738 18.0264C196.905 18.0264 197.356 18.4209 197.754 19.4466L214.809 63.211H211.627C210.459 63.211 210.008 62.8954 209.743 62.1327L205.552 50.9812H183.908L179.266 63.211H176.481ZM194.704 22.4449L185.261 47.1939H204.147L194.704 22.4449Z" fill="#1A1A1A"/>
<path d="M224.306 63.2109C223.218 63.2109 222.767 62.8952 222.767 62.001V18.3418H247.966C248.682 18.3418 249 18.7889 249 19.6305C249 20.4985 248.894 21.3664 248.682 22.208H227.17V39.3298H244.226C245.207 39.3298 245.525 39.7243 245.525 40.8815V43.1171H227.17V63.2372L224.306 63.2109Z" fill="#1A1A1A"/>
<path d="M79.9231 26.4045C77.916 14.2032 74.1409 0 74.1409 0C74.1409 0 66.3517 14.6321 58.3474 19.5174C57.32 20.137 56.0537 20.9473 54.6679 21.8767H32.3994C31.3481 21.8767 30.5118 22.7346 30.5118 23.7593C30.5118 24.8079 31.372 25.6419 32.3994 25.6419H49.4831C44.9194 29.2166 39.9974 33.8397 36.6285 39.0587H13.452C12.4007 39.0587 11.5645 39.8928 11.5645 40.9413C11.5645 41.9899 12.4007 42.8239 13.452 42.8239H34.5498C33.4985 45.0164 32.8533 47.3995 32.5905 49.8064H17.4422C16.3909 49.8064 15.5546 50.6643 15.5546 51.689C15.5546 52.7376 16.3909 53.5716 17.4422 53.5716H32.6383C32.71 54.2627 32.8533 54.93 32.9967 55.5973C37.0108 72.0167 35.4338 80 35.4338 80C35.4338 80 46.3291 69.3476 63.8907 65.5824C81.4522 61.8171 81.9301 38.6059 79.9231 26.4045Z" fill="#74AE4C"/>
<path d="M20.8592 25.6657H26.5458C27.5971 25.6657 28.4334 24.8077 28.4334 23.783C28.4334 22.7345 27.5732 21.9004 26.5458 21.9004H20.8592C19.8079 21.9004 18.9717 22.7583 18.9717 23.783C18.9478 24.8077 19.8079 25.6657 20.8592 25.6657Z" fill="#74AE4C"/>
<path d="M7.57416 39.0825H1.88757C0.836264 39.0825 0 39.9166 0 40.9652C0 42.0137 0.836264 42.8478 1.88757 42.8478H7.57416C8.62547 42.8478 9.46173 41.9899 9.46173 40.9652C9.46173 39.9404 8.62547 39.0825 7.57416 39.0825Z" fill="#74AE4C"/>
<path d="M53.8318 15.4658H59.5184C60.5697 15.4182 61.3821 14.5603 61.3582 13.5117C61.3343 12.5108 60.5219 11.7244 59.5184 11.6768H53.8318C52.7805 11.6291 51.8964 12.4632 51.8726 13.5117C51.8248 14.5603 52.661 15.442 53.7123 15.4658C53.7362 15.4658 53.784 15.4658 53.8318 15.4658Z" fill="#74AE4C"/>
<path d="M79.9232 26.4045C78.0356 14.8227 74.5472 1.4775 74.1649 0.119141C74.2605 9.05569 73.2808 22.8061 67.2358 31.5043C57.6785 45.2547 49.2203 53.6908 44.5611 60.3396C41.909 64.1048 38.0622 72.3503 35.6729 79.8808C37.2259 78.451 47.7151 69.157 63.9147 65.6777C81.4762 61.8886 81.9302 38.6059 79.9232 26.4045Z" fill="#679845"/>
</svg>
