<svg width="128" height="128" viewBox="0 0 128 128" fill="none" xmlns="http://www.w3.org/2000/svg">
<path d="M126.704 42.2472C123.522 22.7251 117.537 0 117.537 0C117.537 0 105.189 23.4114 92.4998 31.2279C90.871 32.2192 88.8634 33.5156 86.6665 35.0027H51.3636C49.697 35.0027 48.3712 36.3753 48.3712 38.0149C48.3712 39.6926 49.7348 41.0271 51.3636 41.0271H78.4468C71.212 46.7465 63.409 54.1436 58.0681 62.4939H21.3259C19.6592 62.4939 18.3335 63.8284 18.3335 65.5061C18.3335 67.1838 19.6592 68.5183 21.3259 68.5183H54.7727C53.106 72.0262 52.0833 75.8391 51.6666 79.6902H27.6516C25.985 79.6902 24.6592 81.0629 24.6592 82.7024C24.6592 84.3801 25.985 85.7146 27.6516 85.7146H51.7424C51.856 86.8204 52.0833 87.888 52.3106 88.9556C58.6742 115.227 56.1742 128 56.1742 128C56.1742 128 73.4468 110.956 101.288 104.932C129.128 98.9074 129.886 61.7694 126.704 42.2472Z" fill="#74AE4C"/>
<path d="M33.0689 41.0654H42.084C43.7506 41.0654 45.0764 39.6928 45.0764 38.0532C45.0764 36.3755 43.7127 35.041 42.084 35.041H33.0689C31.4022 35.041 30.0765 36.4137 30.0765 38.0532C30.0386 39.6928 31.4022 41.0654 33.0689 41.0654Z" fill="#74AE4C"/>
<path d="M12.0075 62.5317H2.99241C1.32575 62.5317 0 63.8663 0 65.5439C0 67.2216 1.32575 68.5562 2.99241 68.5562H12.0075C13.6742 68.5562 14.9999 67.1835 14.9999 65.5439C14.9999 63.9044 13.6742 62.5317 12.0075 62.5317Z" fill="#74AE4C"/>
<path d="M85.3411 24.7458H94.3562C96.0228 24.6696 97.3107 23.2969 97.2728 21.6192C97.2349 20.0178 95.9471 18.7595 94.3562 18.6833H85.3411C83.6744 18.607 82.2729 19.9416 82.235 21.6192C82.1593 23.2969 83.485 24.7077 85.1517 24.7458C85.1896 24.7458 85.2653 24.7458 85.3411 24.7458Z" fill="#74AE4C"/>
<path d="M126.704 42.247C123.712 23.7162 118.182 2.3638 117.576 0.19043C117.727 14.4889 116.174 36.4895 106.591 50.4067C91.4394 72.4073 78.0304 85.9051 70.6441 96.5431C66.4395 102.568 60.3411 115.76 56.5532 127.809C59.0153 125.521 75.644 110.651 101.326 105.084C129.166 99.0215 129.886 61.7692 126.704 42.247Z" fill="#679845"/>
</svg>
