<svg width="130" height="130" viewBox="0 0 130 130" fill="none" xmlns="http://www.w3.org/2000/svg">
<g clip-path="url(#clip0_1113_2877)">
<path d="M64.4939 0.00514054C61.3787 -0.0499554 58.2991 0.669241 55.5355 2.09725C52.5622 3.70819 50.1626 6.19096 48.6644 9.20634C47.1704 12.1922 46.5872 15.3659 46.4951 18.8798C46.3722 25.5573 46.5925 32.2367 47.1551 38.8919C47.2881 40.8215 47.5337 41.9387 47.283 43.9343C46.4542 48.149 42.7398 50.9824 40.7547 54.6843C38.5701 58.7466 37.6492 63.3827 36.0018 67.7091C34.4669 71.6648 32.3744 75.3768 30.9469 79.363C28.8688 84.9476 28.4254 91.0018 29.6679 96.826C30.7162 101.233 32.7478 105.351 35.6129 108.876C35.2036 109.607 34.8046 110.354 34.385 111.08C33.0702 113.329 31.4637 115.467 30.7167 117.96C30.3173 119.205 30.2208 120.526 30.4353 121.814C30.6619 123.109 31.3412 124.283 32.3539 125.13C33.0387 125.65 33.8298 126.014 34.6715 126.197C35.5124 126.371 36.3712 126.444 37.2296 126.415C40.4887 126.344 43.6505 125.364 46.8021 124.541C48.6746 124.033 50.5574 123.622 52.4299 123.231C59.1526 121.865 66.653 122.414 72.8948 123.307C75.0095 123.626 77.1054 124.037 79.1826 124.541C82.4365 125.323 85.6751 126.319 89.0211 126.415C89.9027 126.454 90.7859 126.386 91.6508 126.212C92.5157 126.034 93.329 125.664 94.0298 125.13C95.0482 124.285 95.7302 123.108 95.9536 121.809C96.169 120.517 96.0708 119.192 95.667 117.945C94.9098 115.447 93.288 113.319 91.9476 111.08L90.4127 108.399C94.5093 103.934 97.6339 98.6791 99.5912 92.9617C101.567 86.6618 102.102 80.0036 101.157 73.4726C100.206 66.9577 98.2904 60.6181 95.4726 54.6589C92.0345 47.1638 89.1439 44.4522 87.0462 37.8662C84.7849 30.7571 86.6523 22.3226 84.969 15.8686C84.3602 13.6684 83.4183 11.5727 82.1756 9.6532C80.7426 7.39185 78.8943 5.41784 76.7268 3.8339C73.152 1.32124 68.8743 -0.0176291 64.4939 0.00514054Z" fill="#020204"/>
<path d="M52.2814 37.5818C51.8304 38.1668 51.5096 38.84 51.34 39.5571C51.1713 40.2734 51.0788 41.0052 51.0637 41.7406C51.0075 43.2082 51.0996 44.7011 50.7056 46.1178C50.2861 47.6412 49.3498 48.9462 48.434 50.2208C46.8429 52.4348 45.2364 54.7097 44.4536 57.3299C43.9776 58.9122 43.8194 60.572 43.988 62.2148C42.2081 64.811 40.667 67.5608 39.3834 70.4309C37.4181 74.7764 36.1609 79.4043 35.6588 84.1413C35.0301 89.9601 35.8833 95.8424 38.1402 101.249C39.7888 105.142 42.304 108.614 45.4973 111.405C47.1261 112.814 48.9318 114.009 50.8693 114.959C57.5767 118.235 65.8649 118.24 72.4597 114.751C75.9081 112.928 78.8192 110.262 81.6229 107.566C83.3649 105.993 84.9279 104.236 86.2838 102.325C88.7651 98.5626 89.6298 93.9925 90.167 89.529C91.1032 81.7293 91.1339 73.4828 87.6856 66.4092C86.4934 63.9768 84.9183 61.7484 83.0196 59.8079C82.515 56.3984 81.5226 53.0778 80.0727 49.9466C79.0494 47.6869 77.7499 45.5389 76.7778 43.2539C76.3788 42.3144 76.0309 41.3496 75.5909 40.4305C75.1708 39.4969 74.5831 38.6469 73.8565 37.922C73.0848 37.1962 72.1579 36.6529 71.1449 36.3326C70.1394 36.0246 69.0964 35.8537 68.0445 35.8249C65.9417 35.7182 63.8389 35.9924 61.7362 35.9061C60.0632 35.8401 58.3953 35.5506 56.7223 35.6471C55.8847 35.6832 55.0586 35.8547 54.2767 36.1549C53.5003 36.4547 52.8137 36.9458 52.2814 37.5818Z" fill="#FDFDFB"/>
<path opacity="0.25" d="M44.8828 58.4929C45.3279 59.1581 44.6014 61.4584 55.0436 59.9858C53.8193 60.1271 52.6034 60.3322 51.4008 60.6002C48.592 61.5346 46.1465 62.5755 44.2381 63.9567C42.3298 65.3379 40.9996 67.1101 39.2856 68.6386C39.2856 68.6386 42.0638 63.6013 42.7544 62.083C43.4451 60.5647 42.6419 60.6358 43.1893 58.4015C43.6143 56.8621 44.2495 55.3877 45.0772 54.0192C45.0772 54.0192 43.9977 57.1777 44.8828 58.4929Z" fill="url(#paint0_radial_1113_2877)"/>
<path opacity="0.42" d="M78.4508 57.8935C76.3225 59.3661 75.0741 59.1935 72.4955 59.4778C69.917 59.7622 62.9282 59.6606 62.9282 59.6606C64.0222 59.7008 65.1108 59.8333 66.1821 60.0567C68.423 60.4731 72.9918 60.8692 75.5653 61.8391C78.1387 62.8089 79.0801 63.0933 80.6457 64.0733C82.8712 65.4698 84.5084 67.6584 86.6368 69.1919C86.6769 67.9638 86.4171 66.7442 85.8796 65.6373C85.02 64.114 82.7075 61.7273 82.0271 59.4931C81.3466 57.2588 81.0038 52.8918 81.0038 52.8918C81.0038 52.8918 80.5536 56.4463 78.4457 57.9087L78.4508 57.8935Z" fill="url(#paint1_radial_1113_2877)"/>
<path opacity="0.2" d="M58.4409 54.7503C58.359 55.3851 58.2567 56.0198 58.1339 56.6495C58.0773 56.9603 57.9952 57.266 57.8883 57.5635C57.7819 57.8618 57.6067 58.1314 57.3767 58.3506C57.1614 58.5297 56.9199 58.6752 56.6604 58.7822C55.6671 59.2304 54.6116 59.5282 53.5293 59.6658C53.9591 59.6962 54.3888 59.7369 54.8237 59.7826C55.094 59.8071 55.3623 59.8495 55.6269 59.9095C55.8935 59.9751 56.1464 60.0869 56.3739 60.2396C56.6117 60.4287 56.804 60.6681 56.9367 60.9403C57.1942 61.4761 57.3387 62.0584 57.3613 62.6516C57.4227 63.4053 57.4227 64.1627 57.3613 64.9163C57.4133 64.4122 57.5196 63.9151 57.6785 63.4336C57.9655 62.5595 58.4344 61.755 59.0548 61.0724C59.3067 60.7978 59.5861 60.5494 59.8888 60.331C60.8189 59.6882 61.9579 59.4147 63.0813 59.5642C61.9417 59.6106 60.821 59.2643 59.9092 58.5842C59.4454 58.2445 59.0585 57.812 58.7734 57.3147C58.3422 56.5316 58.2235 55.6162 58.4409 54.7503Z" fill="url(#paint2_radial_1113_2877)"/>
<path opacity="0.11" d="M55.7196 69.6438C55.1762 71.6934 54.8048 73.7842 54.6094 75.8947C54.328 78.8754 54.3945 81.8765 54.2308 84.8674C54.0977 87.4064 53.7959 89.9453 54.2308 92.4843C54.4402 93.6789 54.8191 94.8381 55.3563 95.9271C55.4382 95.5107 55.4996 95.0943 55.5405 94.6729C55.7298 92.6417 55.387 90.6105 55.2693 88.5794C55.0647 85.0248 55.561 81.4703 55.781 77.8852C55.9345 75.1395 55.914 72.3869 55.7196 69.6438Z" fill="black"/>
<path opacity="0.75" d="M91.6513 66.6428C92.1629 66.5616 95.4066 69.2884 94.9666 70.304C94.5266 71.3196 93.6926 70.7052 93.0991 70.7103C92.5057 70.7153 90.8838 71.4516 90.6127 70.9895C90.3415 70.5274 91.3289 69.4662 91.8457 68.5471C92.2652 67.8209 91.1294 66.7241 91.6513 66.6428Z" fill="#7C7C7C"/>
<path d="M71.9228 5.65194C70.7921 6.44409 71.2832 7.43429 71.7693 8.42448C72.2553 9.41468 70.7 12.2786 70.6846 12.4005C70.6693 12.5224 73.7544 10.9533 74.5832 9.92755C75.5757 8.72408 78.0776 11.5626 77.9394 11.131C77.9445 10.3592 73.0534 4.86486 71.9228 5.65194Z" fill="#7C7C7C"/>
<path d="M80.4922 38.9174C79.5406 39.7807 80.9424 41.0755 81.6024 42.5938C82.0168 43.5383 83.1373 44.8738 84.2628 44.6606C85.0968 44.4981 85.6084 43.3098 85.5316 42.4771C85.3782 40.8623 83.9968 40.4814 83.0094 39.9381C82.2215 39.4912 81.1624 38.3132 80.4922 38.9174Z" fill="#838384"/>
<path d="M42.4948 51.2466C39.3739 54.7605 36.166 58.1678 34.406 61.9712C33.5312 63.9008 33.1219 65.998 32.5233 68.0291C31.8278 70.3326 30.9485 72.5774 29.8935 74.7421C28.9368 76.7479 27.8829 78.708 26.8238 80.663C25.9833 82.0487 25.3719 83.559 25.0127 85.1367C24.8225 86.4035 24.9027 87.6958 25.248 88.9299C25.5891 90.1637 26.0679 91.356 26.6754 92.4844C29.2312 97.3234 32.8976 101.498 37.3786 104.671C39.395 106.123 41.5509 107.373 43.8148 108.404C45.017 109.019 46.3332 109.383 47.6826 109.475C48.3598 109.497 49.0337 109.372 49.6575 109.11C50.2814 108.844 50.8145 108.405 51.1923 107.845C51.6317 107.138 51.8124 106.303 51.704 105.479C51.5924 104.661 51.3045 103.876 50.8598 103.179C49.8059 101.462 48.1431 100.218 46.5417 98.9892C43.0831 96.3352 39.7491 93.5288 36.5395 90.5701C35.5954 89.7764 34.7702 88.853 34.0888 87.828C33.504 86.7819 33.1075 85.6426 32.9172 84.4613C32.2672 81.2339 32.4879 77.8933 33.5568 74.7777C33.9916 73.5692 34.58 72.4165 35.0916 71.2587C35.9711 69.2182 37.0094 67.2487 38.1972 65.3683C39.732 63.0782 41.845 61.1384 43.1138 58.6807C44.1882 56.6038 44.6487 54.273 45.0375 51.9778C45.365 50.1802 45.984 48.4233 46.3012 46.6257C45.7026 47.8088 43.7073 49.7232 42.4948 51.2466Z" fill="#020204"/>
<path opacity="0.95" fill-rule="evenodd" clip-rule="evenodd" d="M39.809 63.2404C39.6726 63.2903 39.5432 63.3587 39.4247 63.4442C39.2024 63.6026 39.026 63.8163 38.9131 64.0637V64.0384C37.8889 64.9769 37.0051 66.0558 36.2885 67.2425C35.4158 68.6886 34.8105 70.2686 34.2054 71.8481C33.9945 72.3986 33.7837 72.9489 33.5615 73.4935C33.4801 73.6949 33.3969 73.8965 33.3135 74.0985C32.7474 75.4699 32.1741 76.8589 32.0983 78.3327C32.0688 78.8898 32.1108 79.4468 32.1529 80.0038C32.1764 80.3151 32.1999 80.6264 32.2109 80.9377C32.2887 81.8118 32.1223 82.6903 31.7299 83.4767C31.3662 84.1177 30.7811 84.6065 30.0825 84.8528C31.0216 85.1665 31.8424 85.7563 32.436 86.5437C32.887 87.2276 33.2987 87.9362 33.669 88.6663C34.0072 89.2469 34.4473 89.7628 34.9685 90.1897C35.486 90.6162 36.1133 90.8906 36.7796 90.9818C36.8568 90.9917 36.9342 90.9988 37.0116 91.003C36.8541 90.8591 36.6969 90.7148 36.5399 90.5701C35.5958 89.7764 34.7706 88.8531 34.0893 87.828C33.5044 86.782 33.1079 85.6427 32.9176 84.4613C32.2677 81.2339 32.4883 77.8933 33.5572 74.7777C33.859 73.9391 34.2347 73.1273 34.6073 72.3221C34.7717 71.9669 34.9355 71.6131 35.092 71.2587C35.9715 69.2182 37.0098 67.2488 38.1976 65.3683C38.6908 64.6325 39.2437 63.9328 39.809 63.2404Z" fill="#7C7C7C"/>
<path d="M93.022 64.5559C95.6879 66.7754 97.4365 69.892 97.9336 73.3102C98.2872 75.959 98.1327 78.6502 97.4782 81.242C96.8236 83.8284 96.0086 86.3722 95.0378 88.8588C94.6395 89.8412 94.3463 90.8624 94.1629 91.9056C93.9783 92.9616 94.1378 94.0484 94.6183 95.0082C95.2514 96.0693 96.278 96.8422 97.4782 97.1613C98.6469 97.491 99.8828 97.5067 101.06 97.207C102.236 96.9175 104.216 96.5417 105.153 95.8004C107.583 93.9266 108.161 90.6717 108.734 87.8179C109.333 84.8371 109.041 81.7244 108.514 78.6776C107.768 74.5731 106.604 70.5545 105.04 66.6835C103.905 63.8266 102.457 61.1021 100.722 58.5589C99.0233 56.0758 96.6289 54.1411 94.8383 51.7138C94.2192 50.8709 93.4774 49.9975 92.8736 49.1444C91.5639 47.3062 91.8504 47.6515 91.0472 46.4582C90.4588 45.5949 89.5123 45.3004 88.5504 44.9348C87.5752 44.5447 86.5004 44.4718 85.4807 44.7266C84.8188 44.9324 84.2088 45.2762 83.6917 45.7352C83.1746 46.1941 82.7624 46.7574 82.4826 47.3874C81.9247 48.6658 81.7661 50.0809 82.0273 51.4498C82.3851 53.1905 83.0651 54.8503 84.0328 56.3449C85.0085 58.1007 86.2804 59.6774 87.7932 61.0064C89.4253 62.3622 91.3797 63.2458 93.022 64.5559Z" fill="#020204"/>
<path d="M86.7085 60.4326C86.9234 60.6358 87.1485 60.844 87.3787 61.0369C89.0261 62.3724 89.901 63.8704 91.574 65.1805C94.3061 67.3234 97.0739 71.0201 97.6111 74.3969C98.0307 77.0324 97.4781 78.4593 96.8028 81.567C96.1274 84.6747 94.214 89.0722 93.1754 92.0681C92.7661 93.2614 94.0145 92.7689 93.8507 94.0282C93.7689 94.6468 93.7689 95.2733 93.8507 95.8918C93.8457 95.7708 93.856 95.6497 93.8814 95.5313C94.1274 93.8254 94.5668 92.1527 95.1912 90.5448C96.3014 87.432 97.5753 84.3751 98.4553 81.176C99.2238 78.4937 99.3343 75.6678 98.7776 72.9345C98.1526 69.4284 96.1947 66.2946 93.3084 64.1802C91.2619 62.6923 88.888 61.7377 86.729 60.4326H86.7085Z" fill="#838384"/>
<path d="M27.6574 89.0365C28.3706 88.7553 29.1501 88.6831 29.9034 88.8283C30.6546 88.9774 31.3669 89.2781 31.996 89.7119C33.2034 90.6361 34.2418 91.7594 35.0657 93.0329C37.1122 95.846 39.1075 98.7201 40.9084 101.706C42.3665 104.133 43.7019 106.637 45.3902 108.906C46.4902 110.394 47.7283 111.77 48.8334 113.248C49.9802 114.7 50.8474 116.349 51.3915 118.113C52.0374 120.447 51.7839 122.936 50.6804 125.095C49.8985 126.602 48.7122 127.866 47.2525 128.746C45.8485 129.586 44.2361 130.02 42.5968 130C39.9005 130 37.2657 128.563 34.7587 127.573C29.6425 125.542 24.1068 124.922 18.8422 123.348C17.2255 122.84 15.6343 122.292 14.0074 121.825C13.2753 121.656 12.5583 121.429 11.8637 121.144C11.1675 120.867 10.5731 120.385 10.16 119.763C9.88009 119.256 9.73896 118.685 9.75067 118.108C9.76423 117.53 9.88026 116.959 10.0935 116.422C10.4874 115.34 11.1167 114.36 11.5567 113.289C12.2061 111.514 12.4626 109.621 12.3088 107.739C12.2167 105.865 11.9097 104.001 11.7972 102.153C11.7092 101.307 11.7367 100.453 11.879 99.6139C12.0177 98.7806 12.4106 98.0097 13.0046 97.405C13.5852 96.8797 14.3034 96.5276 15.0767 96.3894C15.8446 96.2541 16.6255 96.2048 17.4045 96.2421C18.1834 96.2827 18.9638 96.2827 19.7426 96.2421C20.5246 96.2006 21.2879 95.9891 21.9784 95.6226C22.6166 95.2335 23.1642 94.7143 23.5849 94.0992C24.0047 93.4919 24.3891 92.8612 24.7361 92.2102C25.0696 91.5699 25.4618 90.9614 25.9077 90.3923C26.3685 89.8033 26.9699 89.3374 27.6574 89.0365Z" fill="url(#paint3_linear_1113_2877)"/>
<path d="M28.7624 90.24C29.4153 89.9913 30.129 89.9453 30.8089 90.1079C31.4835 90.2694 32.1141 90.5762 32.6558 91.0067C33.6921 91.907 34.5584 92.9834 35.2139 94.1855C36.9637 96.9987 38.6725 99.8474 40.2892 102.747C41.4489 104.975 42.7565 107.124 44.2031 109.181C45.2264 110.511 46.3417 111.72 47.3598 113.05C48.4226 114.336 49.2284 115.811 49.7337 117.397C50.316 119.479 50.082 121.704 49.0789 123.622C48.3508 124.991 47.2522 126.13 45.9068 126.913C44.5597 127.677 43.0208 128.043 41.4711 127.969C39.005 127.857 36.7488 126.633 34.426 125.806C29.9698 124.201 25.1452 123.983 20.5713 122.734C18.9341 122.292 17.3379 121.718 15.6956 121.291C14.959 121.139 14.2354 120.93 13.5314 120.667C12.8216 120.409 12.2137 119.932 11.797 119.306C11.5274 118.817 11.3982 118.264 11.4235 117.706C11.4576 117.15 11.5837 116.603 11.797 116.087C12.1961 115.071 12.8203 114.116 13.2193 113.08C13.7716 111.49 13.9671 109.798 13.7923 108.124C13.6798 106.454 13.383 104.793 13.2807 103.123C13.2175 102.375 13.2519 101.622 13.383 100.883C13.5226 100.14 13.8783 99.4532 14.4063 98.908C15.0131 98.3503 15.7806 97.9951 16.6011 97.8924C17.4134 97.7959 18.2344 97.7959 19.0467 97.8924C19.8665 97.9904 20.6924 98.0294 21.5178 98.0092C22.3418 97.9845 23.1439 97.7408 23.8406 97.3034C24.4433 96.8711 24.9328 96.3017 25.268 95.6429C25.6005 94.9839 25.8926 94.3056 26.1429 93.6117C26.3884 92.9171 26.7164 92.254 27.1201 91.6364C27.5288 91.0123 28.112 90.52 28.7982 90.2197L28.7624 90.24Z" fill="#D99A03"/>
<path d="M28.1696 88.6507C28.8078 88.3529 29.5271 88.2726 30.2161 88.4221C30.8969 88.5704 31.5321 88.8787 32.0681 89.3209C33.081 90.2516 33.8938 91.3761 34.4574 92.6267C35.8351 95.4412 37.3548 98.1851 39.0108 100.848C40.2796 102.742 41.7378 104.504 43.0168 106.393C44.8085 108.908 46.0717 111.756 46.7312 114.766C47.12 116.798 47.1098 118.986 46.1275 120.809C45.4624 122.023 44.4346 123.002 43.1857 123.612C41.9302 124.227 40.5278 124.486 39.1336 124.359C36.949 124.171 34.969 123.104 32.9123 122.358C29.2644 121.043 25.3198 120.723 21.5645 119.728C19.9836 119.337 18.4488 118.773 16.8269 118.443C16.1123 118.327 15.4076 118.157 14.719 117.935C14.0299 117.709 13.4419 117.251 13.0563 116.64C12.8244 116.196 12.725 115.696 12.7698 115.198C12.8159 114.698 12.9438 114.21 13.1484 113.751C13.5423 112.837 14.1204 111.994 14.4223 111.049C14.7918 109.629 14.7689 108.136 14.3558 106.728C13.9418 105.327 13.6188 103.9 13.3888 102.458C13.3076 101.811 13.337 101.155 13.4758 100.518C13.6151 99.8763 13.9364 99.2878 14.4018 98.8217C15.0509 98.2541 15.8715 97.9165 16.7348 97.862C17.5906 97.8113 18.4494 97.8625 19.2929 98.0143C20.1368 98.1666 20.9934 98.238 21.851 98.2276C22.7151 98.2221 23.5559 97.9487 24.2557 97.4456C24.9112 96.9074 25.3844 96.1825 25.6115 95.3687C25.8211 94.5664 25.9598 93.7474 26.0259 92.9212C26.0931 92.0928 26.2756 91.2777 26.5682 90.499C26.8658 89.7148 27.4329 89.0602 28.1696 88.6507Z" fill="#F5BD0C"/>
<path d="M35.9453 95.5769C37.0965 97.6385 37.7974 100.005 38.9383 102.087C39.9871 104.001 41.1792 105.971 42.2434 107.733C42.7192 108.521 43.8243 109.729 44.9396 111.603C45.9629 113.299 46.9861 115.665 47.5489 116.467C47.2214 115.533 46.5256 113.03 45.7377 111.247C44.9857 109.582 44.1057 108.632 43.5685 107.733C42.5043 105.971 41.3532 104.382 40.2583 102.701C38.7234 100.381 37.5978 97.7858 35.9453 95.5921V95.5769Z" fill="url(#paint4_linear_1113_2877)"/>
<path opacity="0.2" d="M111.41 109.49C111.2 110.176 110.888 110.826 110.483 111.42C109.521 112.694 108.336 113.786 106.984 114.644C104.769 116.203 102.456 117.635 100.389 119.408C99.0127 120.61 97.7379 121.923 96.5776 123.333C95.6295 124.57 94.6042 125.747 93.5079 126.857C92.3819 127.942 91.0303 128.768 89.5479 129.279C87.8093 129.821 85.9512 129.86 84.1913 129.391C82.9828 129.152 81.8885 128.522 81.0806 127.598C80.3387 126.639 80.0983 125.344 80.0113 124.074C79.9351 121.797 80.0566 119.517 80.3746 117.26C80.5792 115.366 80.7685 113.471 80.8453 111.582C80.9617 108.187 80.7751 104.789 80.2876 101.427C80.1843 100.866 80.1449 100.295 80.1699 99.7255C80.1797 99.1482 80.3928 98.5924 80.7722 98.1547C81.1516 97.7169 81.6734 97.4247 82.2471 97.3287C82.7678 97.2281 83.2975 97.1805 83.828 97.1866C85.0634 97.1155 86.3019 97.1155 87.5373 97.1866C88.3098 97.2526 89.0721 97.3947 89.8344 97.4658C91.1457 97.6082 92.4723 97.5014 93.7432 97.151C95.1297 96.7448 96.4497 95.9882 97.8362 95.78C98.4059 95.6936 98.9855 95.6936 99.5552 95.78C100.127 95.8288 100.675 96.0306 101.141 96.3639C101.473 96.6403 101.737 96.9875 101.914 97.3795C102.196 97.9705 102.385 98.6006 102.477 99.2482C102.534 99.83 102.624 100.408 102.748 100.98C103.014 101.879 103.526 102.687 104.226 103.316C104.921 103.93 105.673 104.477 106.472 104.951C107.249 105.455 108.051 105.917 108.877 106.337C109.271 106.53 109.675 106.703 110.049 106.921C110.433 107.13 110.766 107.419 111.026 107.769C111.369 108.281 111.501 108.905 111.394 109.511L111.41 109.49Z" fill="url(#paint5_linear_1113_2877)"/>
<path d="M118.966 113.202C117.81 114.563 116.204 115.462 114.602 116.275C111.875 117.651 109.046 118.864 106.483 120.525C104.772 121.65 103.169 122.93 101.694 124.348C100.477 125.603 99.1761 126.775 97.8007 127.857C96.3696 128.907 94.7069 129.604 92.9505 129.888C92.466 129.959 91.977 129.995 91.4872 129.995C89.8183 129.974 88.1713 129.615 86.6473 128.939C85.2288 128.402 84.0059 127.453 83.1376 126.217C82.3395 124.937 82.1553 123.379 82.1553 121.87C82.1553 119.215 82.6669 116.584 83.112 113.964C83.5008 111.786 83.8692 109.607 84.1352 107.408C84.5436 103.407 84.5915 99.3782 84.2785 95.3687C84.2017 94.6938 84.2017 94.0124 84.2785 93.3375C84.3564 92.6628 84.6716 92.0371 85.1687 91.5704C85.6639 91.1792 86.2754 90.9614 86.9082 90.9509C87.5342 90.9406 88.1597 90.9916 88.7757 91.1032C90.2418 91.2721 91.6971 91.523 93.1347 91.8548C94.0351 92.0884 94.9151 92.4032 95.8105 92.6469C97.3054 93.0714 98.8675 93.2126 100.415 93.0633C102.078 92.8704 103.695 92.2509 105.368 92.2915C106.063 92.3085 106.753 92.4266 107.414 92.6419C108.094 92.8277 108.718 93.1764 109.23 93.6574C109.586 94.0514 109.857 94.5126 110.028 95.0133C110.311 95.7495 110.483 96.5227 110.54 97.3085C110.561 98.0069 110.621 98.7036 110.719 99.3955C110.965 100.523 111.493 101.571 112.254 102.442C113.017 103.305 113.858 104.097 114.766 104.809C115.651 105.545 116.536 106.276 117.488 106.921C117.933 107.226 118.393 107.51 118.818 107.84C119.251 108.164 119.618 108.567 119.898 109.028C120.079 109.351 120.194 109.706 120.234 110.073C120.275 110.441 120.24 110.812 120.133 111.166C119.878 111.913 119.478 112.603 118.956 113.197L118.966 113.202Z" fill="url(#paint6_linear_1113_2877)"/>
<path d="M118.833 109.749C118.562 110.429 118.178 111.059 117.697 111.613C116.638 112.842 115.175 113.644 113.717 114.375C111.22 115.614 108.641 116.701 106.298 118.194C104.737 119.206 103.272 120.358 101.924 121.637C100.814 122.768 99.6254 123.822 98.368 124.79C97.0583 125.737 95.542 126.363 93.9425 126.618C91.9818 126.866 89.9902 126.573 88.1867 125.77C86.8935 125.291 85.7756 124.436 84.9788 123.317C84.3178 122.125 84.0075 120.772 84.0835 119.413C84.1544 117.021 84.4472 114.641 84.9584 112.303C85.3165 110.348 85.6542 108.388 85.8691 106.413C86.2288 102.815 86.2716 99.1924 85.997 95.5869C85.9305 94.9844 85.9305 94.3766 85.997 93.7741C86.039 93.1783 86.3118 92.6219 86.7582 92.2214C87.2046 91.8209 87.7899 91.6076 88.3914 91.6261C88.9626 91.6175 89.5333 91.6651 90.0951 91.7683C91.4332 91.9221 92.7619 92.1475 94.0755 92.4437C94.8992 92.6569 95.7024 92.9515 96.521 93.1546C97.8903 93.5402 99.3202 93.6676 100.737 93.5303C102.272 93.3577 103.73 92.7991 105.254 92.8347C105.882 92.8552 106.503 92.9611 107.101 93.1495C107.722 93.3118 108.292 93.6221 108.764 94.0534C109.091 94.405 109.348 94.8151 109.521 95.2619C109.805 95.9158 109.963 96.6169 109.987 97.3286C109.931 98.0669 109.915 98.8077 109.941 99.5477C110.04 100.144 110.267 100.711 110.606 101.213C110.939 101.716 111.311 102.193 111.716 102.64C112.434 103.561 113.262 104.392 114.182 105.113C115.262 105.89 116.546 106.347 117.661 107.068C118.002 107.274 118.304 107.539 118.551 107.85C118.748 108.121 118.876 108.435 118.924 108.766C118.972 109.097 118.939 109.434 118.828 109.749H118.833Z" fill="#CD8907"/>
<path d="M118.68 108.983C118.377 109.659 117.985 110.293 117.513 110.866C116.418 112.135 115.007 113.096 113.42 113.654C110.862 114.609 108.105 114.736 105.613 115.823C104.107 116.555 102.674 117.425 101.331 118.422C100.236 119.209 99.0675 119.889 97.8416 120.454C96.4482 121.028 94.9869 121.424 93.4928 121.632C92.5529 121.8 91.5977 121.87 90.6431 121.84C89.6803 121.804 88.7393 121.545 87.8957 121.083C87.2414 120.717 86.7083 120.17 86.3608 119.509C86.0233 118.717 85.8745 117.859 85.9259 117.001C85.9259 114.716 86.4376 112.43 86.4376 110.161C86.4376 108.165 86.0231 106.2 85.9259 104.209C85.7059 100.381 86.5348 96.4909 85.8031 92.7383C85.6556 92.1422 85.5665 91.5334 85.5371 90.9204C85.5386 90.6141 85.5923 90.3102 85.6957 90.0216C85.8019 89.7421 85.978 89.494 86.2073 89.3005C86.4074 89.1587 86.636 89.0617 86.8776 89.0162C87.1167 88.9806 87.3598 88.9806 87.5989 89.0162C88.0729 89.1172 88.5395 89.2495 88.9957 89.4122C90.3259 89.8083 91.7328 89.7982 93.0886 90.0978C93.9379 90.2806 94.7565 90.6056 95.6007 90.8138C97.0053 91.2161 98.475 91.3454 99.929 91.1946C101.464 91.0118 102.999 90.4532 104.569 90.4938C105.213 90.5144 105.852 90.6202 106.468 90.8087C107.106 90.9655 107.694 91.2799 108.176 91.7227C108.504 92.0808 108.765 92.4933 108.949 92.9414C109.266 93.5934 109.44 94.3047 109.461 95.0284C109.461 95.4042 109.399 95.7749 109.363 96.1506C109.317 96.523 109.333 96.9004 109.409 97.2678C109.513 97.6357 109.687 97.9804 109.921 98.2834C110.136 98.583 110.381 98.8521 110.607 99.1466C111.192 100.001 111.705 100.901 112.141 101.838C112.582 102.773 113.194 103.619 113.947 104.331C114.971 105.23 116.352 105.591 117.529 106.307C117.883 106.505 118.193 106.773 118.439 107.094C118.634 107.367 118.761 107.682 118.813 108.013C118.864 108.353 118.834 108.701 118.726 109.028L118.68 108.983Z" fill="#F5C021"/>
<path d="M85.5113 92.2102C86.9541 91.8242 88.182 92.9109 89.2308 93.7335C89.9062 94.3074 90.8885 94.1652 91.7173 94.1906C93.0936 94.1449 94.4596 94.4191 95.8103 94.2515C98.5219 94.023 101.177 93.3629 103.899 93.2359C105.199 93.1547 106.662 93.0785 107.782 93.83C108.238 94.1449 108.908 95.4702 109.353 94.9726C109.261 94.2611 108.966 93.5906 108.503 93.04C108.04 92.4894 107.427 92.0817 106.739 91.8649C105.644 91.6922 104.539 91.9918 103.433 91.8953C100.164 91.8192 96.9103 91.2149 93.6308 91.3875C91.3489 91.3875 89.0722 91.3012 86.7904 91.2149C85.895 91.0321 85.5778 91.8192 85.0918 92.1238C85.1427 92.1736 85.2072 92.2073 85.2772 92.2208C85.3473 92.2344 85.4198 92.2271 85.4857 92.2L85.5113 92.2102Z" fill="url(#paint7_linear_1113_2877)"/>
<path opacity="0.35" d="M104.652 95.2723C104.39 94.7912 103.963 94.4186 103.449 94.2212C102.938 94.0238 102.391 93.9306 101.843 93.947C100.753 93.947 99.6684 94.2364 98.5787 94.145C97.6702 93.9985 96.7741 93.7847 95.8978 93.5052C94.9766 93.2491 94.0052 93.2282 93.0736 93.4443C92.0839 93.7215 91.2327 94.3529 90.6844 95.2165C90.2193 95.9867 89.9522 96.8586 89.9067 97.7554C89.8572 98.6452 89.8897 99.5375 90.0039 100.421C90.0549 101.062 90.1523 101.699 90.2955 102.326C90.4477 102.963 90.7203 103.566 91.0988 104.103C91.6675 104.847 92.4455 105.407 93.3346 105.713C94.7816 106.236 96.373 106.209 97.801 105.636C100.315 104.544 102.389 102.65 103.695 100.254C104.16 99.4032 104.515 98.497 104.749 97.5574C104.849 97.1845 104.904 96.8009 104.913 96.4149C104.926 96.0302 104.843 95.6482 104.672 95.3028L104.652 95.2723Z" fill="url(#paint8_radial_1113_2877)"/>
<path opacity="0.35" d="M104.652 93.8912C104.345 93.5141 103.923 93.2467 103.449 93.1295C102.927 92.9851 102.385 92.9184 101.843 92.9315C100.753 92.9315 99.6686 93.1447 98.5788 93.0737C97.6772 92.972 96.7821 92.8194 95.898 92.6166C94.9674 92.4289 94.01 92.4134 93.0738 92.5709C92.158 92.7272 91.3189 93.1766 90.6845 93.8506C90.2396 94.3646 89.9677 95.0037 89.9069 95.6786C89.857 96.3216 89.8897 96.9683 90.0041 97.6032C90.0554 98.0719 90.1531 98.5346 90.2957 98.9844C90.4545 99.4606 90.7204 99.8947 91.0734 100.254C91.7073 100.823 92.4766 101.223 93.3092 101.417C94.776 101.797 96.3189 101.778 97.7756 101.361C100.098 100.699 102.157 99.3405 103.669 97.4711C104.121 96.8797 104.477 96.2218 104.723 95.5212C104.821 95.2572 104.876 94.9796 104.887 94.6986C104.899 94.4105 104.814 94.1266 104.647 93.8912H104.652Z" fill="url(#paint9_radial_1113_2877)"/>
<path d="M106.729 90.7579C106.54 90.2762 106.239 89.8461 105.849 89.5037C105.458 89.163 105.014 88.8885 104.534 88.6912C103.56 88.3355 102.549 88.0869 101.52 87.9499C100.564 87.7721 99.6068 87.5538 98.645 87.3913C97.6487 87.1774 96.6198 87.1584 95.6162 87.3354C94.7467 87.5384 93.9459 87.9639 93.2934 88.5694C92.6435 89.1734 92.1217 89.9002 91.7586 90.7072C91.1299 92.1448 90.8782 93.717 91.0269 95.2773C91.0588 96.441 91.4618 97.5647 92.1781 98.4865C92.8268 99.171 93.6566 99.6602 94.5725 99.8982C96.1392 100.354 97.8079 100.331 99.3613 99.8322C101.921 98.9697 104.135 97.3166 105.68 95.1148C106.203 94.4039 106.585 93.6009 106.805 92.7485C106.968 92.0961 106.942 91.4112 106.729 90.7732V90.7579Z" fill="#020204"/>
<path d="M96.0758 87.1682C95.8354 87.1816 95.6094 87.3449 95.3728 87.389C94.051 87.6174 93.566 88.0923 92.7429 89.144C91.9199 90.1957 90.8971 91.3192 91.001 92.6469C91.0325 91.8856 91.2409 91.1418 91.6098 90.4735C91.9277 89.904 92.3672 89.4104 92.8974 89.0271C93.4277 88.6438 94.0359 88.3801 94.6795 88.2545C95.4752 88.1486 96.2824 88.1623 97.0739 88.2951C97.8414 88.3916 98.6088 88.4932 99.3609 88.6506C100.536 88.8691 101.656 89.3161 102.656 89.9657C102.885 90.121 103.093 90.3054 103.275 90.5142C103.459 90.719 103.588 90.9672 103.648 91.2352C103.71 91.6496 103.618 92.0723 103.387 92.4235C103.182 92.7727 102.927 93.0908 102.63 93.368C102.395 93.6015 102.149 93.8199 101.899 94.0382C103.04 93.8724 104.134 93.473 105.111 92.8652C105.512 92.6019 105.851 92.2554 106.104 91.8497C106.349 91.4272 106.427 90.9297 106.324 90.4532C106.235 90.1382 106.074 89.8479 105.853 89.6052C105.632 89.3674 105.383 89.156 105.111 88.9756C104.345 88.5203 102.477 88.0038 101.04 87.8285C100.119 87.6592 99.1779 87.4373 98.2502 87.3256C97.5257 87.2175 96.7927 87.175 96.0605 87.1987L96.0758 87.1682Z" fill="url(#paint10_radial_1113_2877)"/>
<path d="M96.0758 87.1682C95.8354 87.1816 95.6094 87.3449 95.3728 87.389C94.051 87.6174 93.566 88.0923 92.7429 89.144C91.9199 90.1957 90.8971 91.3192 91.001 92.6469C91.0325 91.8856 91.2409 91.1418 91.6098 90.4735C91.9277 89.904 92.3672 89.4104 92.8974 89.0271C93.4277 88.6438 94.0359 88.3801 94.6795 88.2545C95.4752 88.1486 96.2824 88.1623 97.0739 88.2951C97.8414 88.3916 98.6088 88.4932 99.3609 88.6506C100.536 88.8691 101.656 89.3161 102.656 89.9657C102.885 90.121 103.093 90.3054 103.275 90.5142C103.459 90.719 103.588 90.9672 103.648 91.2352C103.71 91.6496 103.618 92.0723 103.387 92.4235C103.182 92.7727 102.927 93.0908 102.63 93.368C102.395 93.6015 102.149 93.8199 101.899 94.0382C103.04 93.8724 104.134 93.473 105.111 92.8652C105.512 92.6019 105.851 92.2554 106.104 91.8497C106.349 91.4272 106.427 90.9297 106.324 90.4532C106.235 90.1382 106.074 89.8479 105.853 89.6052C105.632 89.3674 105.383 89.156 105.111 88.9756C104.345 88.5203 102.477 88.0038 101.04 87.8285C100.119 87.6592 99.1779 87.4373 98.2502 87.3256C97.5257 87.2175 96.7927 87.175 96.0605 87.1987L96.0758 87.1682Z" fill="url(#paint11_radial_1113_2877)"/>
<path d="M96.0758 87.1682C95.8354 87.1816 95.6094 87.3449 95.3728 87.389C94.051 87.6174 93.566 88.0923 92.7429 89.144C91.9199 90.1957 90.8971 91.3192 91.001 92.6469C91.0325 91.8856 91.2409 91.1418 91.6098 90.4735C91.9277 89.904 92.3672 89.4104 92.8974 89.0271C93.4277 88.6438 94.0359 88.3801 94.6795 88.2545C95.4752 88.1486 96.2824 88.1623 97.0739 88.2951C97.8414 88.3916 98.6088 88.4932 99.3609 88.6506C100.536 88.8691 101.656 89.3161 102.656 89.9657C102.885 90.121 103.093 90.3054 103.275 90.5142C103.459 90.719 103.588 90.9672 103.648 91.2352C103.71 91.6496 103.618 92.0723 103.387 92.4235C103.182 92.7727 102.927 93.0908 102.63 93.368C102.395 93.6015 102.149 93.8199 101.899 94.0382C103.04 93.8724 104.134 93.473 105.111 92.8652C105.512 92.6019 105.851 92.2554 106.104 91.8497C106.349 91.4272 106.427 90.9297 106.324 90.4532C106.235 90.1382 106.074 89.8479 105.853 89.6052C105.632 89.3674 105.383 89.156 105.111 88.9756C104.345 88.5203 102.477 88.0038 101.04 87.8285C100.119 87.6592 99.1779 87.4373 98.2502 87.3256C97.5257 87.2175 96.7927 87.175 96.0605 87.1987L96.0758 87.1682Z" fill="url(#paint12_radial_1113_2877)"/>
<path d="M52.9574 19.4436C52.166 19.4996 51.4197 19.8304 50.8495 20.3779C50.2809 20.9235 49.8573 21.6004 49.6165 22.3482C49.1049 23.8309 49.2328 25.4355 49.3454 26.9945C49.3762 28.4086 49.6265 29.8097 50.0872 31.1482C50.3447 31.8104 50.7305 32.4159 51.223 32.9306C51.7193 33.4425 52.3475 33.8096 53.0393 33.9918C53.6911 34.1506 54.3745 34.1277 55.0141 33.9258C55.6516 33.7217 56.2329 33.3741 56.7127 32.9102C57.3971 32.2164 57.8904 31.3596 58.1452 30.4221C58.401 29.4861 58.5131 28.5171 58.4778 27.548C58.4717 26.3421 58.2837 25.144 57.9201 23.9934C57.5477 22.8355 56.9183 21.7752 56.0783 20.8908C55.6754 20.4527 55.1995 20.0868 54.6713 19.8092C54.1406 19.5448 53.5507 19.4189 52.9574 19.4436Z" fill="url(#paint13_radial_1113_2877)"/>
<mask id="mask0_1113_2877" style="mask-type:alpha" maskUnits="userSpaceOnUse" x="49" y="19" width="10" height="16">
<path d="M52.9574 19.4436C52.166 19.4996 51.4197 19.8304 50.8495 20.3779C50.2809 20.9235 49.8573 21.6004 49.6165 22.3482C49.1049 23.8309 49.2328 25.4355 49.3454 26.9945C49.3762 28.4086 49.6265 29.8097 50.0872 31.1482C50.3447 31.8104 50.7305 32.4159 51.223 32.9306C51.7193 33.4425 52.3475 33.8096 53.0393 33.9918C53.6911 34.1506 54.3745 34.1277 55.0141 33.9258C55.6516 33.7217 56.2329 33.3741 56.7127 32.9102C57.3971 32.2164 57.8904 31.3596 58.1452 30.4221C58.401 29.4861 58.5131 28.5171 58.4778 27.548C58.4717 26.3421 58.2837 25.144 57.9201 23.9934C57.5477 22.8355 56.9183 21.7752 56.0783 20.8908C55.6754 20.4527 55.1995 20.0868 54.6713 19.8092C54.1406 19.5448 53.5507 19.4189 52.9574 19.4436Z" fill="url(#paint14_radial_1113_2877)"/>
</mask>
<g mask="url(#mask0_1113_2877)">
<path d="M51.2646 22.5816C52.4925 21.919 53.9003 21.6595 55.286 21.8402C56.6513 22.0216 57.9984 22.3189 59.3125 22.7288C60.2977 22.958 61.2614 23.2706 62.1929 23.6632C63.1281 24.0632 63.9186 24.7362 64.4594 25.5928C64.5412 25.7299 64.6077 25.8771 64.6947 26.0142C64.7776 26.1525 64.8851 26.2746 65.0119 26.3748C65.1389 26.4772 65.2986 26.5313 65.4621 26.5271C65.5431 26.5235 65.622 26.5009 65.6924 26.4611C65.7644 26.421 65.823 26.3611 65.8612 26.2884C65.9007 26.2044 65.9183 26.1119 65.9124 26.0193C65.9053 25.9264 65.8881 25.8344 65.8612 25.7451C65.5287 24.5416 64.7408 23.521 64.1473 22.4191C63.7891 21.7589 63.4924 21.0683 63.124 20.3879C61.8195 18.1488 59.863 16.3538 57.5115 15.2389C55.1666 14.1188 52.6163 13.4847 50.0163 13.3753C47.013 13.2585 44.0062 13.492 41.0578 14.071C39.7631 14.2341 38.5055 14.6135 37.3383 15.1932C36.765 15.5031 36.2576 15.9204 35.8444 16.422C35.4291 16.9245 35.1555 17.5272 35.0514 18.1688C34.9718 18.7906 35.0492 19.4223 35.2765 20.007C35.5015 20.5892 35.8232 21.1299 36.2281 21.6066C37.0715 22.5251 37.9886 23.3742 38.9704 24.1456C39.8599 25.0235 40.8123 25.8364 41.8201 26.5779C42.3389 26.937 42.9124 27.2113 43.5187 27.3904C44.1237 27.566 44.7622 27.5956 45.381 27.4767C46.0095 27.3301 46.597 27.0456 47.1 26.6439C47.6079 26.2423 48.0725 25.7896 48.4865 25.2932C49.3563 24.3131 50.1698 23.2417 51.2646 22.5816Z" fill="url(#paint15_radial_1113_2877)"/>
</g>
<path d="M51.0648 25.9025C50.8696 26.8843 50.9277 27.8992 51.2336 28.8528C51.4585 29.4706 51.8065 30.037 52.2569 30.5183C52.5447 30.8426 52.892 31.1096 53.2801 31.3054C53.675 31.5145 54.1313 31.5792 54.5694 31.4882C54.9587 31.3821 55.302 31.1519 55.5466 30.8332C55.7818 30.5139 55.9552 30.154 56.0582 29.7719C56.3928 28.6367 56.3732 27.4276 56.0019 26.3037C55.774 25.475 55.3125 24.7281 54.6717 24.1506C54.3591 23.8818 53.9878 23.6888 53.5871 23.587C53.1849 23.4862 52.7604 23.5202 52.3797 23.6835C51.9662 23.8837 51.6327 24.2165 51.4332 24.628C51.2449 25.0314 51.1206 25.4613 51.0648 25.9025Z" fill="#020204"/>
<path d="M53.1577 25.1866C53.2651 25.4658 53.6233 25.5674 53.8228 25.7908C54.0325 25.9975 54.2055 26.2378 54.3344 26.5017C54.5339 27.0095 54.1349 27.7763 54.5544 28.1419C54.6293 28.1941 54.7187 28.2222 54.8102 28.2222C54.9018 28.2222 54.9911 28.1941 55.066 28.1419C55.5777 27.6849 55.46 26.7658 55.2604 26.1107C55.0663 25.5031 54.6428 24.9936 54.0786 24.6889C53.8228 24.5569 53.4391 24.4503 53.2191 24.6331C53.1556 24.7094 53.116 24.8024 53.1051 24.9007C53.0942 24.999 53.1125 25.0984 53.1577 25.1866Z" fill="url(#paint16_linear_1113_2877)"/>
<path d="M56.1913 18.575C57.2709 19.5968 58.1171 20.8366 58.6726 22.2108C58.4271 20.7331 58.0433 19.5398 57.0713 18.575C56.4713 18.0048 55.7796 17.538 55.0248 17.1938C54.4437 16.9189 53.8186 16.7471 53.1778 16.686C52.9732 16.686 52.7685 16.686 52.5639 16.686C52.4718 16.686 52.4053 16.686 52.6815 16.7266C53.2132 16.8289 53.7292 16.9996 54.2164 17.2344C54.9433 17.5726 55.6102 18.0253 56.1913 18.575Z" fill="url(#paint17_linear_1113_2877)"/>
<path d="M66.8533 19.4433C65.5991 20.2674 64.6365 21.4608 64.1007 22.8557C63.4663 24.6076 63.7068 26.5677 64.3207 28.3246C64.8901 30.149 66.0253 31.7484 67.5644 32.8947C68.3523 33.4442 69.2641 33.793 70.2197 33.9103C71.1827 34.0216 72.1572 33.8448 73.0183 33.4025C74.0481 32.8285 74.8617 31.9372 75.3359 30.8636C75.8015 29.7935 76.0618 28.6465 76.1034 27.4817C76.2074 26.0025 76.0197 24.5174 75.5508 23.1096C75.041 21.5687 74.0318 20.2386 72.6806 19.3265C72.0012 18.885 71.233 18.5956 70.4295 18.4785C69.6308 18.3866 68.8217 18.4948 68.076 18.7934C67.6464 18.9663 67.2365 19.1842 66.8533 19.4433Z" fill="url(#paint18_radial_1113_2877)"/>
<path d="M69.6827 23.12C69.2186 23.155 68.7705 23.3033 68.3781 23.5516C67.9883 23.7999 67.654 24.1248 67.3958 24.5063C66.8888 25.281 66.6138 26.1825 66.6027 27.1062C66.5678 27.7947 66.6632 28.4837 66.8841 29.1374C67.1048 29.7949 67.5029 30.3798 68.0353 30.8283C68.5837 31.2859 69.2685 31.5517 69.9841 31.5847C70.6997 31.6177 71.4064 31.4162 71.9952 31.0111C72.4608 30.6862 72.84 30.2541 73.1003 29.7518C73.3667 29.2536 73.54 28.7117 73.612 28.1522C73.7514 27.1635 73.5855 26.1561 73.1361 25.2629C72.6799 24.3698 71.9074 23.6754 70.9669 23.313C70.557 23.1606 70.1196 23.0948 69.6827 23.12Z" fill="#020204"/>
<path d="M72.5325 27.101C73.0441 26.5932 72.1692 25.2476 71.5092 24.6941C70.9976 24.298 69.5753 23.8765 69.6367 24.3132C69.6981 24.7499 70.3478 25.3288 70.7776 25.73C71.2892 26.253 72.2869 27.3448 72.5325 27.101Z" fill="url(#paint19_linear_1113_2877)"/>
<mask id="mask1_1113_2877" style="mask-type:alpha" maskUnits="userSpaceOnUse" x="63" y="18" width="14" height="16">
<path d="M66.8533 19.4433C65.5991 20.2674 64.6365 21.4608 64.1007 22.8557C63.4663 24.6076 63.7068 26.5677 64.3207 28.3246C64.8901 30.149 66.0253 31.7484 67.5644 32.8947C68.3523 33.4442 69.2641 33.793 70.2197 33.9103C71.1827 34.0216 72.1572 33.8448 73.0183 33.4025C74.0481 32.8285 74.8617 31.9372 75.3359 30.8636C75.8015 29.7935 76.0618 28.6465 76.1034 27.4817C76.2074 26.0025 76.0197 24.5174 75.5508 23.1096C75.041 21.5687 74.0318 20.2386 72.6806 19.3265C72.0012 18.885 71.233 18.5956 70.4295 18.4785C69.6308 18.3866 68.8217 18.4948 68.076 18.7934C67.6464 18.9663 67.2365 19.1842 66.8533 19.4433Z" fill="url(#paint20_radial_1113_2877)"/>
</mask>
<g mask="url(#mask1_1113_2877)">
<path d="M62.2235 23.8713C63.2791 23.0025 64.4957 22.347 65.8048 21.9417C67.1505 21.5276 68.5698 21.4041 69.9676 21.5792C71.3653 21.7544 72.7091 22.2242 73.9089 22.9572C74.7112 23.4992 75.4831 24.084 76.2214 24.7091C76.9604 25.3333 77.799 25.831 78.7028 26.1817C79.1922 26.3649 79.7161 26.4394 80.2377 26.4001C80.7119 26.3429 81.164 26.1683 81.5525 25.8923C81.9409 25.6239 82.2685 25.278 82.5144 24.8767C82.9885 24.0555 83.1857 23.1054 83.0772 22.1651C82.9083 20.2913 81.8441 18.641 80.9539 16.9805C80.6869 16.4572 80.3914 15.9487 80.0688 15.4571C78.9706 13.9982 77.4275 12.9298 75.6689 12.4104C73.9231 11.8977 72.1305 11.5575 70.3173 11.3948C69.5167 11.2587 68.7021 11.2211 67.8922 11.2831C66.9771 11.4615 66.0748 11.6989 65.1909 11.994C64.7611 12.1057 64.3262 12.1819 63.9016 12.3038C63.4715 12.414 63.0668 12.6054 62.7095 12.8674C62.2155 13.2889 61.8786 13.863 61.7528 14.4974C61.6351 15.1302 61.6351 15.779 61.7528 16.4118C61.9523 17.6813 62.4332 18.9152 62.3872 20.1999C62.3565 21.0784 62.0751 21.9467 62.1109 22.8252C62.1109 23.1654 62.1672 23.5057 62.2183 23.8408L62.2235 23.8713Z" fill="url(#paint21_linear_1113_2877)"/>
</g>
<path d="M71.1104 15.8381C70.8944 16.1034 70.7106 16.3932 70.563 16.7013C71.5102 16.9099 72.4104 17.2904 73.2183 17.8235C74.7645 18.8895 75.9999 20.3416 76.7997 22.0331C76.9933 21.8189 77.1647 21.5858 77.3113 21.3375C76.5128 19.5715 75.2468 18.0535 73.6481 16.9451C72.8742 16.4312 72.0152 16.0564 71.1104 15.8381Z" fill="url(#paint22_linear_1113_2877)"/>
<path d="M51.2546 45.3663C52.0623 47.5176 53.4585 49.4027 55.2862 50.8098C55.8695 51.3039 56.5164 51.7189 57.2099 52.0438C57.9042 52.3737 58.6724 52.5206 59.4406 52.4703C60.1887 52.3823 60.9091 52.1365 61.5536 51.7493C62.2084 51.3836 62.8121 50.9419 63.4466 50.5458C64.5312 49.8603 65.6926 49.3068 66.8233 48.6974C68.1946 47.9821 69.4743 47.1058 70.6348 46.0874C71.1445 45.5896 71.6845 45.1233 72.2516 44.6909C72.8113 44.2554 73.505 44.0241 74.2162 44.0359C74.736 44.1234 75.2489 44.2473 75.7511 44.4066C76.0107 44.4682 76.2795 44.482 76.5441 44.4472C76.8439 44.4189 77.1202 44.2736 77.3121 44.0431C77.504 43.8126 77.5958 43.516 77.5673 43.2183C77.5485 42.8948 77.4539 42.5801 77.291 42.2992C76.9318 41.7679 76.6154 41.2093 76.3445 40.6286C76.2008 40.0701 76.1558 39.4911 76.2115 38.9173C76.2693 38.3409 76.1795 37.7593 75.9506 37.2264C75.736 36.8406 75.4099 36.5276 75.0143 36.3276C74.6196 36.1261 74.1881 36.0053 73.7455 35.9721C72.8617 35.9568 71.9778 36.0026 71.1004 36.1092C69.9339 36.1753 68.7572 36.0331 67.5856 36.1092C66.1275 36.2006 64.6949 36.617 63.2317 36.617C61.5638 36.617 59.8959 36.0788 58.2485 36.3378C57.5512 36.4782 56.8668 36.6752 56.202 36.9268C55.5312 37.1813 54.8221 37.3221 54.1044 37.3432C53.2909 37.3432 52.503 37.0487 51.6895 36.9928C51.2831 36.9534 50.8729 37.0019 50.4872 37.135C50.1002 37.2703 49.7764 37.5411 49.5765 37.8967C49.4721 38.1036 49.4145 38.3306 49.4077 38.5619C49.3997 38.7945 49.4255 39.0271 49.4844 39.2525C49.6269 39.6945 49.7978 40.127 49.996 40.5473C50.5742 42.086 50.7072 43.7871 51.2546 45.3663Z" fill="black" fill-opacity="0.26"/>
<path opacity="0.3" d="M49.1463 39.2068C50.5902 40.0925 51.8937 41.186 53.0141 42.4516C54.0374 43.6144 54.8969 44.9347 56.2322 45.7929C57.2019 46.3966 58.3042 46.759 59.4452 46.8491C60.7955 46.9441 62.152 46.7997 63.4512 46.4225C64.6474 46.1081 65.7991 45.6458 66.8791 45.0464C68.9256 43.9039 70.6037 42.2282 72.8395 41.4919C73.3377 41.354 73.8265 41.1844 74.3027 40.9841C74.778 40.8114 75.1803 40.4838 75.4436 40.0548C75.6064 39.6252 75.6996 39.1728 75.7199 38.7142C75.7966 38.2064 75.9655 37.7596 76.0576 37.2772C76.1763 36.7977 76.1331 36.2929 75.9348 35.8401C75.7259 35.4673 75.401 35.1716 75.0088 34.9972C74.6038 34.8192 74.1673 34.7226 73.7246 34.7128C72.8404 34.7364 71.9586 34.8162 71.0846 34.9515C69.9181 35.048 68.7414 34.9109 67.5698 34.9515C66.1117 34.9921 64.674 35.2917 63.2159 35.3577C61.5531 35.4288 59.8955 35.1851 58.2327 35.1343C57.5131 35.0969 56.7915 35.1309 56.0788 35.2359C55.371 35.3359 54.6897 35.5722 54.0732 35.9315C53.5183 36.3144 52.987 36.7298 52.4821 37.1756C52.2175 37.3888 51.9291 37.5711 51.6225 37.719C51.3015 37.8701 50.954 37.9581 50.5993 37.9779C50.4289 37.9678 50.2581 37.9678 50.0877 37.9779C49.7914 38.0162 49.5217 38.1674 49.3356 38.3994C49.2465 38.5121 49.1834 38.6428 49.1507 38.7823C49.118 38.9217 49.1165 39.0667 49.1463 39.2068Z" fill="black"/>
<path d="M56.6465 29.7262C57.4293 28.8579 57.9614 27.7966 58.693 26.9029C59.0609 26.4476 59.5058 26.0592 60.0079 25.7553C60.5147 25.4546 61.1019 25.3147 61.6911 25.3541C62.3445 25.4283 62.9546 25.7159 63.4255 26.1717C63.8919 26.6264 64.2685 27.1637 64.5357 27.756C64.7647 28.335 65.0581 28.8869 65.4106 29.4012C65.8715 29.8844 66.3864 30.3137 66.9454 30.6809C67.2124 30.8782 67.4546 31.1067 67.6668 31.3613C67.8802 31.6182 68.0308 31.9206 68.1068 32.2449C68.1695 32.5762 68.1413 32.9183 68.025 33.2351C67.9027 33.5498 67.7123 33.8341 67.4673 34.0678C66.9604 34.5206 66.3236 34.8046 65.6459 34.8803C64.3055 35.0682 62.9497 34.6721 61.5939 34.7077C60.2381 34.7432 58.8874 35.2155 57.5009 35.1799C56.8126 35.1716 56.1406 34.971 55.5619 34.601C55.2803 34.4038 55.0404 34.1536 54.8558 33.8647C54.6767 33.573 54.5747 33.2412 54.5591 32.8999C54.5584 32.5731 54.6319 32.2503 54.774 31.9554C54.9056 31.6592 55.0778 31.3824 55.2856 31.1328C55.7051 30.6301 56.2116 30.2137 56.6465 29.7262Z" fill="url(#paint23_radial_1113_2877)"/>
<path d="M49.2183 38.115C49.2476 38.2449 49.2958 38.3697 49.3615 38.4857C49.484 38.6851 49.6458 38.8578 49.8373 38.9935C50.0215 39.1306 50.221 39.2423 50.4155 39.3591C51.4259 40.0356 52.3105 40.8809 53.0298 41.8575C54.0531 43.1371 54.9126 44.5539 56.2479 45.4831C57.202 46.1329 58.3085 46.5281 59.4609 46.6307C60.8137 46.7318 62.1735 46.5749 63.4669 46.1686C64.674 45.8178 65.8272 45.3053 66.8948 44.6453C68.9413 43.4062 70.6194 41.5985 72.8552 40.7708C73.3668 40.5931 73.8477 40.4661 74.3184 40.263C74.8029 40.0613 75.2048 39.7036 75.4593 39.2474C75.6228 38.7777 75.7159 38.2866 75.7356 37.7901C75.8123 37.2823 75.9812 36.7745 76.0733 36.2362C76.192 35.7145 76.1492 35.1694 75.9505 34.6722C75.7498 34.2772 75.4246 33.9581 75.0244 33.7633C74.625 33.5657 74.1865 33.4582 73.7403 33.4484C72.8552 33.4755 71.9731 33.5637 71.1003 33.7125C69.9338 33.8191 68.7571 33.6668 67.5855 33.7125C66.1273 33.7582 64.6897 34.0832 63.2316 34.1543C61.5688 34.2304 59.9111 33.9765 58.2484 33.9105C57.5271 33.8682 56.8033 33.9022 56.0893 34.0121C55.3742 34.1199 54.6914 34.3816 54.0889 34.7788C53.5404 35.2141 53.0161 35.6786 52.5182 36.1702C52.2555 36.4035 51.9631 36.6015 51.6485 36.7592C51.3325 36.9214 50.9809 37.0034 50.6252 36.9979C50.4556 36.9725 50.2832 36.9725 50.1136 36.9979C50.0064 37.0362 49.9087 37.0968 49.8271 37.1756C49.7489 37.2568 49.6786 37.3452 49.6173 37.4397C49.4687 37.6543 49.3402 37.8821 49.2336 38.1201L49.2183 38.115Z" fill="url(#paint24_radial_1113_2877)"/>
<path d="M55.7463 39.8973C55.5767 40.6039 55.6795 41.3479 56.0345 41.9831C56.3896 42.6183 56.9711 43.0987 57.6649 43.33C58.1053 43.4625 58.5678 43.5066 59.0255 43.4595C59.4832 43.4124 59.9269 43.2751 60.3305 43.0557C60.813 42.8223 61.2204 42.4601 61.5072 42.0097C61.6506 41.7849 61.7431 41.532 61.7784 41.2683C61.813 41.0049 61.7849 40.7371 61.6965 40.4863C61.5864 40.2161 61.4106 39.9771 61.1849 39.7906C60.9596 39.6024 60.6987 39.4608 60.4174 39.3742C59.7686 39.1733 59.0961 39.0572 58.417 39.0289C57.3886 39.0086 55.9152 39.2016 55.7463 39.8973Z" fill="#D9B30D"/>
<path d="M52.8858 34.4638C52.2923 34.8091 51.7244 35.19 51.1667 35.581C50.8603 35.7642 50.6052 36.0208 50.4249 36.3274C50.3231 36.5629 50.2759 36.818 50.2868 37.0739C50.3072 37.324 50.3072 37.5753 50.2868 37.8254C50.2868 37.993 50.2202 38.1606 50.2151 38.3332C50.1998 38.4172 50.1998 38.5032 50.2151 38.5871C50.2406 38.669 50.2823 38.745 50.3379 38.8106C50.4155 38.8912 50.515 38.9477 50.6244 38.973C50.7319 39.0035 50.8393 39.0187 50.9519 39.0441C51.4655 39.1902 51.9336 39.4627 52.3128 39.8363C52.7067 40.1867 53.0649 40.5878 53.4793 40.9179C54.6411 41.786 56.062 42.2436 57.516 42.2178C58.9597 42.1972 60.3957 42.0046 61.7931 41.644C62.9021 41.4201 63.9943 41.1215 65.0624 40.7503C66.7001 40.14 68.212 39.2383 69.5237 38.0895C70.092 37.5357 70.7027 37.0263 71.3502 36.5661C71.9386 36.1954 72.5986 35.9517 73.2023 35.6013C73.2561 35.5716 73.3075 35.5377 73.3558 35.4997C73.4059 35.4611 73.4477 35.4127 73.4786 35.3576C73.5195 35.2566 73.5195 35.1437 73.4786 35.0427C73.4442 34.9404 73.3903 34.8456 73.32 34.7634C73.2443 34.6715 73.1604 34.5865 73.0693 34.5095C72.4022 34.013 71.5954 33.736 70.7618 33.7174C69.9359 33.7125 69.1109 33.6616 68.2907 33.5651C67.5308 33.4036 66.7836 33.1881 66.0549 32.9202C65.2789 32.6711 64.4855 32.4793 63.681 32.3464C61.784 32.0531 59.849 32.1064 57.9713 32.5038C56.1792 32.8781 54.4611 33.5419 52.8858 34.4689V34.4638Z" fill="#604405"/>
<path d="M52.6968 32.5039C51.8468 33.0693 51.0835 33.7534 50.4303 34.535C50.0461 34.9759 49.7446 35.4815 49.5401 36.028C49.4126 36.4695 49.3152 36.9191 49.2484 37.3736C49.2042 37.5394 49.1802 37.7099 49.1768 37.8814C49.1758 37.9673 49.1879 38.0529 49.2126 38.1353C49.2389 38.2164 49.2825 38.2909 49.3405 38.3536C49.4463 38.4505 49.5776 38.5156 49.7191 38.5415C49.8624 38.5415 50.0056 38.572 50.1489 38.5872C50.7881 38.6901 51.3922 38.9463 51.9089 39.3337C52.4205 39.6942 52.9321 40.1208 53.4796 40.461C54.7182 41.1948 56.1302 41.5907 57.5725 41.6086C59.0004 41.6286 60.4256 41.482 61.819 41.1719C62.934 40.9738 64.0283 40.6746 65.0882 40.2782C66.6862 39.5992 68.1863 38.713 69.5496 37.6427C70.1903 37.1848 70.8004 36.6861 71.3761 36.1498C71.5654 35.9619 71.7547 35.7741 71.9593 35.6014C72.1623 35.4273 72.3966 35.2929 72.65 35.2053C73.0483 35.1089 73.4642 35.1089 73.8625 35.2053C74.1617 35.2714 74.4668 35.3072 74.7732 35.312C74.9272 35.3046 75.079 35.2738 75.2235 35.2206C75.3856 35.1491 75.5216 35.0299 75.6131 34.8791C75.7046 34.7283 75.7472 34.5532 75.7351 34.3776C75.7352 34.175 75.6785 33.9763 75.5714 33.8038C75.3466 33.4683 75.0233 33.2095 74.6453 33.0624C74.1294 32.8632 73.597 32.7086 73.0542 32.6004C71.4011 32.2022 69.7983 31.6214 68.2756 30.8688C67.5184 30.4981 66.7817 30.0868 66.0399 29.6907C65.2845 29.2653 64.4895 28.9133 63.6659 28.6396C61.7775 28.1271 59.7745 28.2177 57.9409 28.8985C55.9014 29.6171 54.0914 30.8614 52.6968 32.5039Z" fill="url(#paint25_linear_1113_2877)"/>
<path d="M65.7482 32.8847C65.6423 32.763 65.504 32.6732 65.3491 32.6258C65.1925 32.5903 65.0299 32.5903 64.8733 32.6258C64.5568 32.6959 64.2598 32.8346 64.0036 33.032C63.2537 33.5531 62.5804 34.1752 62.0031 34.8804C61.2091 35.784 60.6582 36.8722 60.4017 38.0439C60.3617 38.2427 60.3496 38.4461 60.3659 38.6482C60.3858 38.852 60.4741 39.0434 60.6166 39.1915C60.7443 39.3165 60.9095 39.3967 61.0873 39.42C61.2599 39.4398 61.4348 39.4207 61.5989 39.3642C61.9305 39.2276 62.2327 39.0294 62.4892 38.7802C63.9575 37.4701 65.2877 35.9061 65.8198 34.0171C65.8778 33.8292 65.9105 33.6346 65.917 33.4382C65.9233 33.2403 65.864 33.0459 65.7482 32.8847Z" fill="#F6DA4A"/>
<path opacity="0.8" d="M57.1885 29.9952C56.7945 29.8683 56.1652 30.5538 56.3596 30.9042C56.4159 31.0007 56.595 31.1225 56.7178 31.0565C56.8406 30.9905 57.0452 30.6046 57.2294 30.4675C57.2664 30.4383 57.2956 30.4005 57.3143 30.3574C57.333 30.3143 57.3407 30.2672 57.3366 30.2205C57.3326 30.1737 57.3169 30.1287 57.2911 30.0894C57.2652 30.0501 57.23 30.0177 57.1885 29.9952Z" fill="url(#paint26_radial_1113_2877)"/>
<path opacity="0.8" d="M62.2226 30.178C62.3249 30.5029 62.8519 30.4471 63.1589 30.6045C63.4659 30.7619 63.6398 31.0412 63.9417 31.0514C64.2435 31.0615 64.6784 30.9498 64.7142 30.6654C64.7603 30.2948 64.2026 30.0561 63.8598 29.919C63.6313 29.8138 63.3833 29.7567 63.1314 29.7515C62.8796 29.7462 62.6293 29.7929 62.3966 29.8885C62.2994 29.9647 62.1919 30.0713 62.2226 30.178Z" fill="url(#paint27_radial_1113_2877)"/>
<path d="M75.8887 35.119C75.8665 35.4997 75.7104 35.8607 75.4477 36.139C75.1851 36.4174 74.8324 36.5955 74.451 36.6424C73.7552 36.6424 73.2692 35.9518 73.3664 35.119C73.3836 34.7349 73.5366 34.369 73.7986 34.0858C74.0606 33.8025 74.4148 33.62 74.7989 33.5702C75.4947 33.5702 75.9808 34.2608 75.8836 35.119H75.8887Z" fill="url(#paint28_linear_1113_2877)"/>
</g>
<defs>
<radialGradient id="paint0_radial_1113_2877" cx="0" cy="0" r="1" gradientUnits="userSpaceOnUse" gradientTransform="translate(41.1019 61.5853) scale(9.72081 9.14027)">
<stop/>
<stop offset="1" stop-opacity="0.25"/>
</radialGradient>
<radialGradient id="paint1_radial_1113_2877" cx="0" cy="0" r="1" gradientUnits="userSpaceOnUse" gradientTransform="translate(74.1184 66.8713) scale(12.0743 9.14027)">
<stop/>
<stop offset="1" stop-opacity="0.25"/>
</radialGradient>
<radialGradient id="paint2_radial_1113_2877" cx="0" cy="0" r="1" gradientUnits="userSpaceOnUse" gradientTransform="translate(57.9124 64.7335) scale(4.78366 5.07793)">
<stop/>
<stop offset="1" stop-opacity="0.25"/>
</radialGradient>
<linearGradient id="paint3_linear_1113_2877" x1="19.2873" y1="99.3853" x2="40.0978" y2="134.566" gradientUnits="userSpaceOnUse">
<stop stop-color="#B98309"/>
<stop offset="1" stop-color="#382605"/>
</linearGradient>
<linearGradient id="paint4_linear_1113_2877" x1="42.6015" y1="107.134" x2="49.1446" y2="119.555" gradientUnits="userSpaceOnUse">
<stop stop-color="#EBC40C"/>
<stop offset="1" stop-color="#EBC40C" stop-opacity="0"/>
</linearGradient>
<linearGradient id="paint5_linear_1113_2877" x1="94.2958" y1="106.357" x2="95.9443" y2="118.431" gradientUnits="userSpaceOnUse">
<stop/>
<stop offset="1" stop-opacity="0"/>
</linearGradient>
<linearGradient id="paint6_linear_1113_2877" x1="86.2227" y1="127.852" x2="107.194" y2="93.5979" gradientUnits="userSpaceOnUse">
<stop stop-color="#3E2A06"/>
<stop offset="1" stop-color="#AD780A"/>
</linearGradient>
<linearGradient id="paint7_linear_1113_2877" x1="97.3707" y1="92.2254" x2="96.7557" y2="97.7969" gradientUnits="userSpaceOnUse">
<stop stop-color="#F3CD0C"/>
<stop offset="1" stop-color="#F3CD0C" stop-opacity="0"/>
</linearGradient>
<radialGradient id="paint8_radial_1113_2877" cx="0" cy="0" r="1" gradientUnits="userSpaceOnUse" gradientTransform="translate(95.993 97.7171) rotate(14.8974) scale(10.0536 10.4874)">
<stop stop-color="#110800"/>
<stop offset="0.59" stop-color="#A65A00" stop-opacity="0.8"/>
<stop offset="1" stop-color="#FF921E" stop-opacity="0"/>
</radialGradient>
<radialGradient id="paint9_radial_1113_2877" cx="0" cy="0" r="1" gradientUnits="userSpaceOnUse" gradientTransform="translate(96.1434 95.2618) rotate(-2.3921) scale(10.098 7.5476)">
<stop stop-color="#110800"/>
<stop offset="0.59" stop-color="#A65A00" stop-opacity="0.8"/>
<stop offset="1" stop-color="#FF921E" stop-opacity="0"/>
</radialGradient>
<radialGradient id="paint10_radial_1113_2877" cx="0" cy="0" r="1" gradientUnits="userSpaceOnUse" gradientTransform="translate(104.519 90.7298) rotate(23.3448) scale(3.54961 1.6302)">
<stop stop-color="#7C7C7C"/>
<stop offset="1" stop-color="#7C7C7C" stop-opacity="0.33"/>
</radialGradient>
<radialGradient id="paint11_radial_1113_2877" cx="0" cy="0" r="1" gradientUnits="userSpaceOnUse" gradientTransform="translate(104.519 90.7298) rotate(23.3448) scale(3.54961 1.6302)">
<stop stop-color="#7C7C7C"/>
<stop offset="1" stop-color="#7C7C7C" stop-opacity="0.33"/>
</radialGradient>
<radialGradient id="paint12_radial_1113_2877" cx="0" cy="0" r="1" gradientUnits="userSpaceOnUse" gradientTransform="translate(104.519 90.7298) rotate(23.3448) scale(3.54961 1.6302)">
<stop stop-color="#7C7C7C"/>
<stop offset="1" stop-color="#7C7C7C" stop-opacity="0.33"/>
</radialGradient>
<radialGradient id="paint13_radial_1113_2877" cx="0" cy="0" r="1" gradientUnits="userSpaceOnUse" gradientTransform="translate(55.0939 26.0786) rotate(-0.610853) scale(5.2393 7.96261)">
<stop stop-color="#FEFEFC"/>
<stop offset="0.75" stop-color="#FEFEFC"/>
<stop offset="1" stop-color="#D4D4D4"/>
</radialGradient>
<radialGradient id="paint14_radial_1113_2877" cx="0" cy="0" r="1" gradientUnits="userSpaceOnUse" gradientTransform="translate(55.0939 26.0786) rotate(-0.610853) scale(5.2393 7.96261)">
<stop stop-color="#FEFEFC"/>
<stop offset="0.75" stop-color="#FEFEFC"/>
<stop offset="1" stop-color="#D4D4D4"/>
</radialGradient>
<radialGradient id="paint15_radial_1113_2877" cx="0" cy="0" r="1" gradientUnits="userSpaceOnUse" gradientTransform="translate(52.2644 23.4565) rotate(-9.318) scale(3.19891 2.92908)">
<stop stop-color="#C8C8C8"/>
<stop offset="1" stop-color="#797978"/>
</radialGradient>
<linearGradient id="paint16_linear_1113_2877" x1="52.9582" y1="23.6429" x2="55.5023" y2="28.2242" gradientUnits="userSpaceOnUse">
<stop stop-color="#757574" stop-opacity="0"/>
<stop offset="0.25" stop-color="#757574"/>
<stop offset="0.5" stop-color="#757574"/>
<stop offset="1" stop-color="#757574" stop-opacity="0"/>
</linearGradient>
<linearGradient id="paint17_linear_1113_2877" x1="53.1113" y1="15.9395" x2="58.6401" y2="21.6277" gradientUnits="userSpaceOnUse">
<stop stop-color="#646464" stop-opacity="0"/>
<stop offset="0.31" stop-color="#646464" stop-opacity="0.58"/>
<stop offset="0.47" stop-color="#646464"/>
<stop offset="0.73" stop-color="#646464" stop-opacity="0.26"/>
<stop offset="1" stop-color="#646464" stop-opacity="0"/>
</linearGradient>
<radialGradient id="paint18_radial_1113_2877" cx="0" cy="0" r="1" gradientUnits="userSpaceOnUse" gradientTransform="translate(71.0891 26.8977) rotate(-1.79346) scale(6.97682 7.96106)">
<stop stop-color="#FEFEFC"/>
<stop offset="0.75" stop-color="#FEFEFC"/>
<stop offset="1" stop-color="#D4D4D4"/>
</radialGradient>
<linearGradient id="paint19_linear_1113_2877" x1="70.0716" y1="23.9882" x2="73.0079" y2="27.4934" gradientUnits="userSpaceOnUse">
<stop stop-color="#949494" stop-opacity="0.39"/>
<stop offset="0.5" stop-color="#949494"/>
<stop offset="1" stop-color="#949494" stop-opacity="0.39"/>
</linearGradient>
<radialGradient id="paint20_radial_1113_2877" cx="0" cy="0" r="1" gradientUnits="userSpaceOnUse" gradientTransform="translate(71.0891 26.8977) rotate(-1.79346) scale(6.97682 7.96106)">
<stop stop-color="#FEFEFC"/>
<stop offset="0.75" stop-color="#FEFEFC"/>
<stop offset="1" stop-color="#D4D4D4"/>
</radialGradient>
<linearGradient id="paint21_linear_1113_2877" x1="68.0559" y1="17.4832" x2="77.4438" y2="23.0187" gradientUnits="userSpaceOnUse">
<stop stop-color="#747474"/>
<stop offset="0.13" stop-color="#8C8C8C"/>
<stop offset="0.25" stop-color="#A4A4A4"/>
<stop offset="0.5" stop-color="#D4D4D4"/>
<stop offset="0.62" stop-color="#D4D4D4"/>
<stop offset="1" stop-color="#7C7C7C"/>
</linearGradient>
<linearGradient id="paint22_linear_1113_2877" x1="71.0132" y1="15.7162" x2="77.2412" y2="21.6432" gradientUnits="userSpaceOnUse">
<stop stop-color="#646464" stop-opacity="0"/>
<stop offset="0.31" stop-color="#646464" stop-opacity="0.58"/>
<stop offset="0.47" stop-color="#646464"/>
<stop offset="0.73" stop-color="#646464" stop-opacity="0.26"/>
<stop offset="1" stop-color="#646464" stop-opacity="0"/>
</linearGradient>
<radialGradient id="paint23_radial_1113_2877" cx="0" cy="0" r="1" gradientUnits="userSpaceOnUse" gradientTransform="translate(59.5688 29.5172) rotate(-35.7641) scale(5.8386 5.28512)">
<stop stop-color="#020204"/>
<stop offset="0.73" stop-color="#020204"/>
<stop offset="1" stop-color="#5C5C5C"/>
</radialGradient>
<radialGradient id="paint24_radial_1113_2877" cx="0" cy="0" r="1" gradientUnits="userSpaceOnUse" gradientTransform="translate(65.1569 36.5159) rotate(-22.2576) scale(13.8756 9.69418)">
<stop stop-color="#D2940A"/>
<stop offset="0.75" stop-color="#D89C08"/>
<stop offset="0.87" stop-color="#B67E07"/>
<stop offset="1" stop-color="#946106"/>
</radialGradient>
<linearGradient id="paint25_linear_1113_2877" x1="49.7038" y1="35.0378" x2="74.6095" y2="34.8419" gradientUnits="userSpaceOnUse">
<stop stop-color="#AD780A"/>
<stop offset="0.12" stop-color="#D89E08"/>
<stop offset="0.25" stop-color="#EDB80B"/>
<stop offset="0.39" stop-color="#EBC80D"/>
<stop offset="0.53" stop-color="#F5D838"/>
<stop offset="0.77" stop-color="#F6D811"/>
<stop offset="1" stop-color="#F5CD31"/>
</linearGradient>
<radialGradient id="paint26_radial_1113_2877" cx="0" cy="0" r="1" gradientUnits="userSpaceOnUse" gradientTransform="translate(56.8739 30.4145) scale(0.67534 0.721065)">
<stop stop-color="#3A2903"/>
<stop offset="0.55" stop-color="#735208"/>
<stop offset="1" stop-color="#AC8C04"/>
</radialGradient>
<radialGradient id="paint27_radial_1113_2877" cx="0" cy="0" r="1" gradientUnits="userSpaceOnUse" gradientTransform="translate(63.3044 30.3132) scale(1.42231 0.822624)">
<stop stop-color="#3A2903"/>
<stop offset="0.55" stop-color="#735208"/>
<stop offset="1" stop-color="#AC8C04"/>
</radialGradient>
<linearGradient id="paint28_linear_1113_2877" x1="74.625" y1="34.2761" x2="74.625" y2="36.1041" gradientUnits="userSpaceOnUse">
<stop stop-color="#F5CE2D"/>
<stop offset="1" stop-color="#D79B08"/>
</linearGradient>
<clipPath id="clip0_1113_2877">
<rect width="130" height="130" fill="white"/>
</clipPath>
</defs>
</svg>
