<svg width="130" height="130" viewBox="0 0 130 130" fill="none" xmlns="http://www.w3.org/2000/svg">
<rect x="13" width="104" height="130" rx="1.73865" fill="white"/>
<path fill-rule="evenodd" clip-rule="evenodd" d="M14.7386 0C13.7784 0 13 0.778418 13 1.73865V113.176C18.4174 117.827 26.6901 124.364 35.2149 130H87.2678C88.159 129.094 89.0359 128.125 89.8943 127.091L86.8984 124.09H92.1993C92.9794 122.992 93.7395 121.832 94.4759 120.609L91.6446 117.772H96.0781C96.737 116.528 97.3726 115.226 97.9819 113.863L95.5149 111.391H99.0305C99.5828 110.018 100.11 108.588 100.608 107.099L98.7255 105.213H101.215C101.622 103.895 102.007 102.533 102.37 101.126L100.747 99.5003H102.773C104.229 93.4075 105.262 86.5027 105.747 78.6942C105.747 41.8738 79.509 29.3181 66.8261 29.3181C54.1431 29.3181 41.3092 34.6127 41.3092 50.7989C55.502 58.8164 66.1537 72.5387 66.1537 78.6942C66.1537 80.1 65.8238 81.1504 65.5456 82.0363C65.3428 82.6822 65.1674 83.2406 65.1674 83.7854C65.1674 83.9227 65.1503 84.0616 65.1319 84.2111L65.1319 84.2112C64.9769 85.4693 64.7299 87.4746 73.8164 95.4913C69.467 101.301 66.7134 103.781 63.3193 103.269L60.6992 103.874L61.3263 102.667C60.8784 102.471 60.4151 102.233 59.9325 101.952C59.6036 102.059 59.3125 102.154 59.0522 102.239L59.0521 102.239L59.0521 102.239L59.052 102.239L59.0519 102.239L59.0518 102.239L59.0516 102.239C57.4509 102.764 57.0148 102.906 56.1164 102.87C55.2808 102.837 57.4116 101.154 58.5815 100.317L49.8494 89.5592C49.6127 89.322 49.0723 88.8476 48.8049 88.8476C48.4707 88.8476 46.1728 90.3545 46.1728 93.8707C46.1728 96.6836 48.6239 103.442 49.8494 106.47C50.7975 108.323 51.0846 112.028 44.648 112.028C36.6023 112.028 37.1387 108.485 37.7238 106.47C38.309 104.455 39.6292 98.8249 37.8333 94.4204C36.6512 91.797 30.7511 88.2044 27.9487 86.736C26.7569 86.0906 24.3733 84.0446 24.3733 81.024C24.3733 79.0883 24.6438 77.2511 24.9075 75.4603C25.1581 73.7578 25.4026 72.0973 25.4026 70.4343C25.4026 68.9479 25.0357 66.8927 24.6215 64.5726C24.0848 61.5662 23.4687 58.115 23.4687 54.8809C23.4687 51.5479 24.1636 38.8287 32.8737 28.7703L36.7567 19.4476L37.4301 24.4078C38.0412 23.9234 38.679 23.4522 39.3445 22.9959L42.6647 15.0243L43.4195 20.5842C44.0354 20.2718 44.6702 19.9712 45.3245 19.6833L48.4652 12.5722L49.2291 18.1991C50.3265 17.8431 51.4705 17.5198 52.663 17.2326L55.9639 11.5212L56.6321 16.4427C57.3748 16.3243 58.1341 16.2187 58.9104 16.1267L62.2189 12.4162L62.6779 15.7967C63.5368 15.7468 64.4146 15.7124 65.3115 15.6942L67.274 13.4933L67.5714 15.6843C91.7983 16.0273 108.125 33.0569 117 48.0873V1.73865C117 0.77842 116.222 0 115.261 0H14.7386Z" fill="#98012E"/>
</svg>
