<svg width="260" height="80" viewBox="0 0 260 80" fill="none" xmlns="http://www.w3.org/2000/svg">
<path d="M67.7737 27.0414H74.0208L80.6187 43.1386H80.8995L87.4974 27.0414H93.7445V51H88.8311V35.4059H88.6322L82.432 50.883H79.0862L72.886 35.3474H72.6871V51H67.7737V27.0414ZM97.9179 51V27.0414H114.062V31.2178H102.983V36.9267H113.231V41.1031H102.983V46.8236H114.109V51H97.9179ZM118.089 51V27.0414H127.541C129.351 27.0414 130.895 27.3651 132.174 28.0124C133.461 28.6519 134.44 29.5605 135.11 30.7382C135.789 31.908 136.128 33.2845 136.128 34.8677C136.128 36.4587 135.785 37.8275 135.099 38.9739C134.412 40.1126 133.418 40.9861 132.116 41.5944C130.821 42.2027 129.253 42.5069 127.413 42.5069H121.084V38.4358H126.594C127.561 38.4358 128.364 38.3032 129.004 38.038C129.643 37.7729 130.119 37.3751 130.431 36.8448C130.751 36.3145 130.911 35.6554 130.911 34.8677C130.911 34.0722 130.751 33.4015 130.431 32.8556C130.119 32.3097 129.639 31.8963 128.992 31.6156C128.353 31.327 127.545 31.1827 126.571 31.1827H123.155V51H118.089ZM131.028 40.097L136.982 51H131.39L125.564 40.097H131.028ZM139.708 51V27.0414H149.301C151.063 27.0414 152.533 27.3027 153.711 27.8252C154.889 28.3478 155.774 29.0731 156.367 30.0012C156.959 30.9214 157.256 31.9821 157.256 33.1832C157.256 34.119 157.069 34.9418 156.694 35.6515C156.32 36.3535 155.805 36.9306 155.15 37.3829C154.503 37.8275 153.762 38.1433 152.927 38.3305V38.5645C153.84 38.6035 154.694 38.8608 155.489 39.3366C156.293 39.8123 156.944 40.4791 157.443 41.337C157.942 42.1871 158.192 43.201 158.192 44.3786C158.192 45.6499 157.876 46.7846 157.244 47.7829C156.62 48.7734 155.696 49.5572 154.471 50.1343C153.247 50.7114 151.738 51 149.944 51H139.708ZM144.773 46.8587H148.903C150.315 46.8587 151.344 46.5897 151.991 46.0515C152.639 45.5056 152.962 44.7803 152.962 43.8756C152.962 43.2127 152.802 42.6278 152.483 42.1208C152.163 41.6139 151.707 41.2161 151.114 40.9276C150.529 40.639 149.831 40.4947 149.02 40.4947H144.773V46.8587ZM144.773 37.0671H148.529C149.223 37.0671 149.839 36.9462 150.377 36.7044C150.923 36.4548 151.352 36.1039 151.664 35.6515C151.984 35.1992 152.143 34.6572 152.143 34.0254C152.143 33.1598 151.835 32.4617 151.219 31.9314C150.611 31.4011 149.745 31.1359 148.622 31.1359H144.773V37.0671ZM161.488 51V27.0414H170.94C172.749 27.0414 174.294 27.3651 175.573 28.0124C176.86 28.6519 177.838 29.5605 178.509 30.7382C179.188 31.908 179.527 33.2845 179.527 34.8677C179.527 36.4587 179.184 37.8275 178.497 38.9739C177.811 40.1126 176.817 40.9861 175.514 41.5944C174.22 42.2027 172.652 42.5069 170.811 42.5069H164.482V38.4358H169.992C170.96 38.4358 171.763 38.3032 172.402 38.038C173.042 37.7729 173.518 37.3751 173.83 36.8448C174.149 36.3145 174.309 35.6554 174.309 34.8677C174.309 34.0722 174.149 33.4015 173.83 32.8556C173.518 32.3097 173.038 31.8963 172.391 31.6156C171.751 31.327 170.944 31.1827 169.969 31.1827H166.553V51H161.488ZM174.426 40.097L180.381 51H174.789L168.963 40.097H174.426ZM188.172 27.0414V51H183.107V27.0414H188.172ZM200.833 51H192.34V27.0414H200.903C203.313 27.0414 205.387 27.5211 207.127 28.4803C208.866 29.4318 210.203 30.8006 211.139 32.5865C212.083 34.3725 212.555 36.5094 212.555 38.9973C212.555 41.493 212.083 43.6377 211.139 45.4315C210.203 47.2253 208.858 48.6018 207.103 49.5611C205.356 50.5204 203.266 51 200.833 51ZM197.405 46.6598H200.622C202.12 46.6598 203.379 46.3947 204.401 45.8643C205.43 45.3262 206.202 44.4956 206.717 43.3726C207.24 42.2417 207.501 40.7833 207.501 38.9973C207.501 37.2269 207.24 35.7802 206.717 34.6572C206.202 33.5341 205.434 32.7074 204.412 32.1771C203.391 31.6467 202.131 31.3816 200.634 31.3816H197.405V46.6598ZM232.194 34.7858C232.03 34.2165 231.8 33.7135 231.503 33.2767C231.207 32.8322 230.844 32.4578 230.415 32.1537C229.994 31.8417 229.511 31.6039 228.965 31.4401C228.427 31.2763 227.83 31.1944 227.175 31.1944C225.95 31.1944 224.874 31.4986 223.946 32.1069C223.026 32.7152 222.308 33.6004 221.794 34.7625C221.279 35.9167 221.021 37.3283 221.021 38.9973C221.021 40.6663 221.275 42.0857 221.782 43.2556C222.289 44.4254 223.006 45.3184 223.934 45.9345C224.862 46.5429 225.958 46.847 227.222 46.847C228.368 46.847 229.347 46.6443 230.158 46.2387C230.977 45.8254 231.601 45.2443 232.03 44.4956C232.466 43.7469 232.685 42.8617 232.685 41.8401L233.714 41.9921H227.538V38.1784H237.563V41.1966C237.563 43.3024 237.119 45.1117 236.23 46.6248C235.34 48.13 234.116 49.292 232.556 50.1109C230.996 50.922 229.21 51.3276 227.198 51.3276C224.952 51.3276 222.979 50.8323 221.279 49.8418C219.579 48.8436 218.253 47.4281 217.301 45.5953C216.358 43.7547 215.886 41.571 215.886 39.0441C215.886 37.1022 216.167 35.3708 216.728 33.85C217.297 32.3214 218.093 31.0267 219.115 29.9661C220.136 28.9054 221.326 28.0982 222.683 27.5445C224.04 26.9907 225.51 26.7139 227.093 26.7139C228.45 26.7139 229.713 26.9127 230.883 27.3105C232.053 27.7004 233.09 28.2542 233.995 28.9717C234.908 29.6892 235.652 30.5432 236.23 31.5337C236.807 32.5163 237.177 33.6004 237.341 34.7858H232.194ZM241.368 51V27.0414H257.512V31.2178H246.434V36.9267H256.681V41.1031H246.434V46.8236H257.559V51H241.368Z" fill="black"/>
<g clip-path="url(#clip0_1130_14621)">
<path d="M49.1792 17.2659V66.6187L42.7924 60.1803V32.8094L36.9377 38.7112V29.606L49.1792 17.2659ZM24.6963 41.9462C20.0924 37.3052 4.53435 21.6217 0.213379 17.2659V66.6187L6.60023 60.1803V32.8094L24.6963 51.0514L30.5509 45.1496V36.0444L24.6963 41.9462Z" fill="#33DE72"/>
<path d="M18.8409 56.9611L12.4541 63.3995V38.7112L18.8409 45.1495V56.9611ZM18.8409 36.0444V12.1609L12.4541 18.5992V29.606L18.8409 36.0444ZM30.5502 12.1609V56.9611L36.937 63.3995V18.5992L30.5502 12.1609Z" fill="#1A1A1A"/>
</g>
<defs>
<clipPath id="clip0_1130_14621">
<rect width="49.5122" height="54.8649" fill="white" transform="translate(0.000488281 12)"/>
</clipPath>
</defs>
</svg>
