<svg width="260" height="80" viewBox="0 0 260 80" fill="none" xmlns="http://www.w3.org/2000/svg">
<path fill-rule="evenodd" clip-rule="evenodd" d="M19.4876 24.5543C22.3378 22.9336 23.778 19.8313 23.3843 16.8054C25.025 16.4671 26.7257 16.2892 28.4684 16.2892C42.104 16.2892 53.1578 27.1762 53.1578 40.606C53.1578 46.6137 50.9456 52.1127 47.2797 56.3559C44.7994 54.195 41.0996 53.725 38.0735 55.4457C34.8997 57.2506 33.4742 60.8926 34.3827 64.2204C32.4879 64.6792 30.507 64.9226 28.4684 64.9226C14.8328 64.9226 3.77899 54.0357 3.77899 40.606C3.77899 34.1222 6.35546 28.2312 10.5551 23.8718C13.0285 25.8361 16.571 26.2128 19.4876 24.5543ZM36.2909 67.5727C33.8056 68.2708 31.1813 68.6445 28.4684 68.6445C12.7457 68.6445 0 56.0913 0 40.606C0 32.9086 3.1492 25.9358 8.24783 20.8691C6.68649 17.2882 8.05777 13.0428 11.5691 11.0462C15.1438 9.01347 19.6588 10.0379 21.9933 13.2958C24.0734 12.8193 26.2409 12.5673 28.4684 12.5673C44.1911 12.5673 56.9368 25.1206 56.9368 40.606C56.9368 47.8998 54.1092 54.543 49.4746 59.5306C50.7703 63.0225 49.3736 67.0309 45.9921 68.9539C42.7575 70.7931 38.753 70.1294 36.2909 67.5727ZM159.96 37.7451C160.089 37.8723 160.29 37.8723 160.42 37.7451L167.048 31.1634C167.177 31.0362 167.177 30.8322 167.048 30.7051L153.329 17.0862C153.2 16.959 152.998 16.959 152.869 17.0862L146.238 23.6678C146.108 23.795 146.108 23.9991 146.238 24.1263L159.96 37.7451ZM195.397 23.6736L188.768 17.095C188.639 16.9678 188.438 16.9678 188.309 17.095L146.244 58.8624C146.114 58.9896 146.114 59.1937 146.244 59.3209L152.869 65.9026C152.998 66.0298 153.2 66.0298 153.329 65.9026L195.397 24.1292C195.523 24.0049 195.523 23.8008 195.397 23.6736ZM181.227 45.2435C181.356 45.1163 181.557 45.1163 181.687 45.2435L195.406 58.8682C195.535 58.9953 195.535 59.1995 195.406 59.3267L188.775 65.9082C188.645 66.0354 188.444 66.0354 188.315 65.9082L174.596 52.2835C174.466 52.1563 174.466 51.9522 174.596 51.825L181.227 45.2435ZM259.287 27.3152C259.384 27.3152 259.473 27.2975 259.561 27.262C259.649 27.2265 259.726 27.1733 259.793 27.1082C259.858 27.0431 259.912 26.9662 259.946 26.8804C259.981 26.7946 260 26.7 260 26.6083V18.5713C260 18.4766 259.985 18.3879 259.946 18.2991C259.91 18.2104 259.858 18.1365 259.793 18.0714C259.726 18.0063 259.649 17.9531 259.561 17.9175C259.473 17.8821 259.384 17.8643 259.287 17.8643H228.567C228.471 17.8643 228.381 17.8821 228.293 17.9175C228.205 17.9531 228.128 18.0063 228.061 18.0714C227.996 18.1365 227.942 18.2134 227.908 18.2991C227.873 18.3849 227.854 18.4796 227.854 18.5713V64.4209C227.854 64.5155 227.869 64.6042 227.908 64.6901C227.944 64.7759 227.996 64.8526 228.061 64.9177C228.128 64.9829 228.205 65.036 228.293 65.0745C228.381 65.1101 228.471 65.1278 228.567 65.1278H259.287C259.384 65.1278 259.473 65.107 259.561 65.0745C259.649 65.0391 259.726 64.9858 259.793 64.9177C259.858 64.8526 259.912 64.7759 259.946 64.6901C259.979 64.6042 260 64.5096 260 64.4209V56.3868C260 56.2921 259.985 56.2034 259.946 56.1147C259.91 56.026 259.858 55.9519 259.793 55.8869C259.726 55.8219 259.649 55.7686 259.561 55.7301C259.473 55.6916 259.384 55.6768 259.287 55.6768H238.567V46.2231H259.287C259.384 46.2231 259.473 46.2052 259.561 46.1698C259.649 46.1342 259.726 46.0811 259.793 46.0159C259.858 45.9508 259.912 45.8739 259.946 45.7882C259.979 45.7024 260 45.6078 260 45.5131V37.479C260 37.3843 259.985 37.2956 259.946 37.2069C259.91 37.1182 259.858 37.0442 259.793 36.9791C259.726 36.9141 259.649 36.8608 259.561 36.8254C259.473 36.7898 259.384 36.7721 259.287 36.7721H238.567V27.3152H259.287ZM82.4186 17.8611H113.143C113.332 17.8611 113.507 17.9292 113.642 18.0652C113.777 18.2013 113.852 18.3788 113.852 18.5681V46.6931C113.852 46.8825 113.777 47.0599 113.645 47.1959C113.513 47.3291 113.329 47.403 113.14 47.403H103.854C103.758 47.403 103.668 47.3853 103.58 47.3499C103.493 47.3143 103.415 47.261 103.349 47.1959C103.283 47.1309 103.232 47.0539 103.196 46.9683C103.16 46.8825 103.142 46.7938 103.142 46.6991V27.3121H82.4186C82.2295 27.3121 82.0462 27.2411 81.9142 27.105C81.7819 26.9689 81.7069 26.7885 81.7069 26.6021V18.5651C81.7069 18.4705 81.7248 18.3847 81.761 18.296C81.7969 18.2072 81.8511 18.1303 81.9142 18.0682C81.9802 18.0002 82.0583 17.9499 82.1453 17.9144C82.2324 17.8789 82.3225 17.8611 82.4186 17.8611ZM92.0987 36.7661H82.0285C81.8513 36.7661 81.704 36.9081 81.704 37.0886V64.8053C81.704 64.9858 81.8481 65.1278 82.0285 65.1278H92.0958C92.273 65.1278 92.4201 64.9858 92.4201 64.8053V37.0886C92.423 36.911 92.2788 36.7661 92.0987 36.7661ZM124.901 17.8587H134.969C135.149 17.8587 135.293 18.0066 135.293 18.1811V64.8057C135.293 64.9862 135.146 65.1282 134.969 65.1282H124.901C124.721 65.1282 124.577 64.9862 124.577 64.8057V18.1811C124.577 18.0007 124.724 17.8587 124.901 17.8587ZM216.805 17.8587H206.737C206.56 17.8587 206.413 18.0007 206.413 18.1811V64.8057C206.413 64.9862 206.557 65.1282 206.737 65.1282H216.805C216.982 65.1282 217.128 64.9862 217.128 64.8057V18.1811C217.128 18.0066 216.984 17.8587 216.805 17.8587Z" fill="url(#paint0_linear_1113_1107)"/>
<defs>
<linearGradient id="paint0_linear_1113_1107" x1="139.037" y1="114.938" x2="22.0995" y2="1.48488" gradientUnits="userSpaceOnUse">
<stop stop-color="#00DBA6"/>
<stop offset="1" stop-color="#24B2FF"/>
</linearGradient>
</defs>
</svg>
