<svg width="128" height="128" viewBox="0 0 128 128" fill="none" xmlns="http://www.w3.org/2000/svg">
<path fill-rule="evenodd" clip-rule="evenodd" d="M46.8388 34.3441C52.2853 31.2324 55.0372 25.2759 54.2849 19.4662C57.4202 18.8167 60.67 18.4753 64.0001 18.4753C90.0563 18.4753 111.179 39.3782 111.179 65.1633C111.179 76.6982 106.952 87.2563 99.9464 95.4033C95.2068 91.2543 88.1369 90.3518 82.3544 93.6556C76.2895 97.121 73.5656 104.114 75.3017 110.503C71.6809 111.384 67.8956 111.851 64.0001 111.851C37.944 111.851 16.8213 90.9485 16.8213 65.1633C16.8213 52.7145 21.7447 41.4037 29.7697 33.0337C34.4961 36.8053 41.2655 37.5285 46.8388 34.3441ZM78.948 116.94C74.1988 118.28 69.1841 118.997 64.0001 118.997C33.9558 118.997 9.6001 94.8951 9.6001 65.1633C9.6001 50.3844 15.6179 36.9967 25.3608 27.2685C22.3773 20.3933 24.9976 12.2421 31.7074 8.40853C38.5383 4.50576 47.166 6.47266 51.6268 12.7279C55.6018 11.8129 59.7436 11.3292 64.0001 11.3292C94.0445 11.3292 118.4 35.4315 118.4 65.1633C118.4 79.1674 112.997 91.9225 104.141 101.499C106.617 108.203 103.948 115.899 97.486 119.591C91.3049 123.123 83.6529 121.848 78.948 116.94Z" fill="url(#paint0_linear_1333_2094)"/>
<defs>
<linearGradient id="paint0_linear_1333_2094" x1="275.284" y1="207.881" x2="50.7995" y2="-8.88204" gradientUnits="userSpaceOnUse">
<stop stop-color="#00DBA6"/>
<stop offset="1" stop-color="#24B2FF"/>
</linearGradient>
</defs>
</svg>
