<svg width="260" height="80" viewBox="0 0 260 80" fill="none" xmlns="http://www.w3.org/2000/svg">
<path d="M0 79.1485H2.23602V55.8743C3.00897 57.0367 3.94755 58.0639 5.05176 58.9559C6.15597 59.8479 7.343 60.5913 8.61284 61.186C9.88268 61.8077 11.2077 62.2808 12.588 62.6052C13.9683 62.9295 15.3347 63.0917 16.6874 63.0917C19.8896 63.0917 22.6087 62.4159 24.8447 61.0644C27.0807 59.7128 28.8751 57.9963 30.2277 55.9148C31.5804 53.8064 32.6018 51.4006 33.2919 48.6974C33.9821 45.9943 34.3271 43.3452 34.3271 40.7501V39.8986C34.2719 37.0333 33.8716 34.1544 33.1263 31.262C32.381 28.3697 31.1663 25.8287 29.4824 23.6391C28.0193 21.801 26.2388 20.3413 24.1408 19.26C22.0704 18.1517 19.5583 17.5976 16.6046 17.5976C15.1691 17.5976 13.7474 17.7868 12.3395 18.1652C10.9593 18.5437 9.64803 19.0843 8.4058 19.7871C7.16356 20.4899 6.00414 21.3414 4.92754 22.3416C3.87854 23.3418 2.98137 24.4636 2.23602 25.707V18.4085H0V79.1485ZM32.0497 39.8986V40.7501C31.9945 43.1289 31.6908 45.5617 31.1387 48.0487C30.6142 50.5356 29.7032 52.7522 28.4058 54.6984C27.2188 56.4825 25.6729 57.9692 23.7681 59.1586C21.8634 60.321 19.5169 60.9022 16.7288 60.9022C15.2657 60.9022 13.7888 60.713 12.2981 60.3345C10.8075 59.929 9.41339 59.3479 8.11594 58.591C6.8185 57.8341 5.64527 56.9015 4.59627 55.7932C3.57488 54.6579 2.78813 53.3604 2.23602 51.9007V30.2484C2.76052 28.6805 3.49206 27.2614 4.43064 25.9909C5.39683 24.6934 6.51484 23.5851 7.78468 22.666C9.05452 21.7469 10.4348 21.0441 11.9255 20.5575C13.4438 20.0439 15.0173 19.7871 16.646 19.7871C19.2685 19.7871 21.4907 20.3007 23.3126 21.3279C25.1622 22.3281 26.6943 23.6256 27.9089 25.2205C29.372 27.2749 30.421 29.6131 31.0559 32.2352C31.7184 34.8302 32.0497 37.3847 32.0497 39.8986Z" fill="#BC5429"/>
<path d="M51.7184 0V2.18956H68.323V60.0912H51.7184V62.2808H86.294V60.0912H70.559V0H51.7184Z" fill="#BC5429"/>
<path d="M102.65 80C104.472 80 106.087 79.7297 107.495 79.189C108.903 78.6754 110.159 77.9456 111.263 76.9995C112.34 76.0804 113.292 74.9856 114.12 73.7151C114.976 72.4717 115.749 71.0931 116.439 69.5793L140 18.4085H137.308L119.669 56.7663L118.551 59.2803L117.308 56.7258L98.8406 18.4085H96.2319L117.267 62.1997L114.161 69.1738C113.582 70.4443 112.919 71.6067 112.174 72.6609C111.429 73.7422 110.573 74.6613 109.607 75.4181C108.64 76.2021 107.55 76.7968 106.335 77.2022C105.121 77.6347 103.768 77.851 102.277 77.851C101.698 77.851 101.118 77.8104 100.538 77.7293C99.9586 77.6482 99.3927 77.5672 98.8406 77.4861L98.9234 79.554C99.5583 79.6891 100.179 79.7973 100.787 79.8784C101.422 79.9594 102.043 80 102.65 80Z" fill="#BC5429"/>
</svg>
