<svg width="128" height="128" viewBox="0 0 128 128" fill="none" xmlns="http://www.w3.org/2000/svg">
<path d="M0 100.017H2.04437V78.6046C2.75106 79.6739 3.60919 80.619 4.61875 81.4396C5.62831 82.2603 6.7136 82.9442 7.87459 83.4913C9.03559 84.0633 10.2471 84.4985 11.509 84.797C12.771 85.0954 14.0203 85.2446 15.257 85.2446C18.1848 85.2446 20.6708 84.6229 22.7152 83.3794C24.7595 82.136 26.4001 80.5568 27.6368 78.6419C28.8735 76.7021 29.8074 74.4887 30.4383 72.0018C31.0693 69.5149 31.3848 67.0777 31.3848 64.6903V63.9069C31.3343 61.2708 30.9684 58.6223 30.2869 55.9613C29.6054 53.3003 28.4949 50.9626 26.9553 48.9482C25.6177 47.2571 23.9897 45.9142 22.0716 44.9194C20.1786 43.8998 17.8819 43.39 15.1813 43.39C13.8689 43.39 12.5691 43.564 11.2819 43.9122C10.0199 44.2604 8.82106 44.7578 7.6853 45.4044C6.54954 46.0509 5.4895 46.8343 4.50518 47.7545C3.54609 48.6746 2.72582 49.7067 2.04437 50.8507V44.136H0V100.017ZM29.3026 63.9069V64.6903C29.2521 66.8788 28.9745 69.117 28.4697 71.405C27.9901 73.6929 27.1573 75.7322 25.971 77.5228C24.8857 79.1641 23.4723 80.5319 21.7308 81.6261C19.9894 82.6955 17.844 83.2302 15.2949 83.2302C13.9572 83.2302 12.6069 83.0561 11.244 82.708C9.8811 82.3349 8.60653 81.8002 7.42029 81.1039C6.23405 80.4076 5.16139 79.5496 4.20231 78.5299C3.26846 77.4855 2.54915 76.2917 2.04437 74.9488V55.0287C2.52391 53.5863 3.19274 52.2806 4.05087 51.1118C4.93424 49.9181 5.95642 48.8985 7.11742 48.0529C8.27842 47.2074 9.54037 46.5608 10.9033 46.1131C12.2914 45.6406 13.7301 45.4044 15.2192 45.4044C17.6169 45.4044 19.6486 45.8769 21.3144 46.8219C23.0054 47.742 24.4062 48.9358 25.5167 50.403C26.8544 52.2931 27.8135 54.4443 28.394 56.8566C28.9997 59.244 29.3026 61.5941 29.3026 63.9069Z" fill="#BC5429"/>
<path d="M47.2854 27.2002V29.2146H62.4667V82.4841H47.2854V84.4985H78.8974V82.4841H64.5111V27.2002H47.2854Z" fill="#BC5429"/>
<path d="M93.8515 100.8C95.5173 100.8 96.9938 100.552 98.281 100.054C99.5682 99.5816 100.717 98.9101 101.726 98.0397C102.71 97.1942 103.581 96.187 104.338 95.0181C105.121 93.8742 105.827 92.6058 106.458 91.2132L128 44.136H125.539L109.411 79.4252L108.389 81.7381L107.253 79.3879L90.3685 44.136H87.9834L107.216 84.4239L104.376 90.8401C103.846 92.009 103.24 93.0784 102.559 94.0482C101.878 95.043 101.095 95.8886 100.212 96.5849C99.3284 97.3061 98.3315 97.8532 97.2209 98.2262C96.1104 98.6242 94.8737 98.8231 93.5108 98.8231C92.9808 98.8231 92.4508 98.7858 91.9207 98.7112C91.3907 98.6366 90.8733 98.562 90.3685 98.4874L90.4443 100.39C91.0247 100.514 91.5926 100.614 92.1479 100.688C92.7284 100.763 93.2963 100.8 93.8515 100.8Z" fill="#BC5429"/>
</svg>
