<svg width="110" height="110" viewBox="0 0 110 110" fill="none" xmlns="http://www.w3.org/2000/svg">
<path fill-rule="evenodd" clip-rule="evenodd" d="M56.5384 0.916035C55.8775 -0.306322 54.1235 -0.306321 53.4626 0.916036L51.4892 4.56594C50.9 5.65564 49.3957 5.80381 48.6053 4.84998L45.9577 1.65521C45.071 0.585275 43.3508 0.92745 42.9411 2.25526L41.7176 6.22002C41.5477 6.77071 41.1437 7.16018 40.6635 7.34058C40.5859 7.3636 40.5083 7.38682 40.4309 7.41021C39.9347 7.52242 39.388 7.42165 38.9445 7.06124L35.7245 4.44436C34.6462 3.56797 33.0258 4.23917 32.8829 5.62139L32.4565 9.74866C32.4064 10.2331 32.17 10.6372 31.835 10.9141C31.624 11.0241 31.4139 11.1356 31.2047 11.2485C30.7909 11.3697 30.3278 11.3404 29.9008 11.1147L26.2321 9.17632C25.0035 8.52714 23.5452 9.50157 23.6748 10.8851L24.0617 15.0162C24.1025 15.4513 23.9835 15.8522 23.7602 16.1734C23.5058 16.3765 23.2534 16.5821 23.003 16.79C22.6473 16.9419 22.2356 16.9781 21.8216 16.8547L17.8453 15.6692C16.5136 15.2722 15.2734 16.5124 15.6704 17.8441L16.8559 21.8204C16.9661 22.1901 16.949 22.5581 16.8359 22.886C16.5677 23.2014 16.3033 23.5201 16.0429 23.8421C15.7466 24.011 15.3949 24.0958 15.0175 24.0605L10.8863 23.6736C9.50279 23.544 8.52836 25.0023 9.17754 26.2309L11.1159 29.8995C11.2723 30.1954 11.3344 30.5085 11.3175 30.8106C11.0731 31.2459 10.8351 31.6852 10.6035 32.1285C10.3647 32.3038 10.0754 32.4216 9.74988 32.4553L5.62261 32.8817C4.24039 33.0245 3.56919 34.645 4.44559 35.7233L7.06246 38.9433C7.24739 39.1708 7.36397 39.4256 7.41848 39.6867C7.24319 40.2228 7.07672 40.7629 6.91925 41.3068C6.73069 41.4886 6.49603 41.6316 6.22124 41.7164L2.25648 42.9398C0.92867 43.3496 0.586496 45.0698 1.65643 45.9565L4.8512 48.604C5.05615 48.7739 5.21022 48.9767 5.315 49.1963C5.24283 49.7966 5.18131 50.4002 5.13064 51.0069C4.98593 51.1979 4.79759 51.3634 4.56715 51.488L0.917256 53.4614C-0.305101 54.1223 -0.305101 55.8762 0.917256 56.5371L4.56716 58.5106C4.77771 58.6244 4.95311 58.7724 5.0922 58.9428C5.14016 59.5935 5.20059 60.2406 5.27324 60.8841C5.17077 61.0722 5.03044 61.246 4.8512 61.3945L1.65643 64.0421C0.586495 64.9288 0.928671 66.649 2.25648 67.0587L6.22124 68.2822C6.42132 68.3439 6.60011 68.4365 6.75533 68.5525C6.94063 69.2229 7.13957 69.8877 7.35181 70.5465C7.28719 70.7246 7.19146 70.8966 7.06246 71.0553L4.44558 74.2752C3.56919 75.3536 4.24039 76.974 5.62261 77.1168L9.74988 77.5433C9.9406 77.563 10.1189 77.6116 10.2818 77.6837C10.6058 78.3257 10.9431 78.9597 11.2936 79.5853C11.2627 79.7587 11.2044 79.9316 11.1159 80.099L9.17754 83.7676C8.52836 84.9963 9.50279 86.4546 10.8863 86.325L15.0175 85.9381C15.1993 85.921 15.3752 85.9319 15.5418 85.9667C15.9924 86.5424 16.4553 87.1081 16.9302 87.6632C16.9313 87.8318 16.9076 88.0048 16.8559 88.1782L15.6704 92.1545C15.2734 93.4861 16.5136 94.7264 17.8453 94.3293L21.8216 93.1439C21.9888 93.094 22.1556 93.0702 22.3185 93.0696C22.8811 93.5542 23.4547 94.0264 24.0387 94.4859C24.069 94.6442 24.0778 94.8106 24.0617 94.9823L23.6748 99.1135C23.5452 100.497 25.0035 101.471 26.2321 100.822L29.9008 98.8838C30.0479 98.8061 30.1993 98.7517 30.3514 98.7187C31.0068 99.0891 31.6713 99.4453 32.3447 99.7865C32.4011 99.9305 32.4395 100.086 32.4565 100.25L32.8829 104.377C33.0258 105.759 34.6462 106.431 35.7245 105.554L38.9445 102.937C39.0727 102.833 39.2094 102.751 39.3511 102.689C40.0656 102.923 40.7871 103.141 41.5154 103.342C41.5998 103.474 41.6685 103.619 41.7176 103.779L42.9411 107.743C43.3508 109.071 45.071 109.413 45.9577 108.343L48.6053 105.149C48.7177 105.013 48.8446 104.899 48.9813 104.808C49.7094 104.894 50.4424 104.964 51.1798 105.018C51.2989 105.136 51.4037 105.274 51.4892 105.433L53.4626 109.083C54.1235 110.305 55.8775 110.305 56.5384 109.083L58.5118 105.433C58.6017 105.266 58.713 105.122 58.8399 105C59.5594 104.944 60.2747 104.872 60.9854 104.786C61.1352 104.881 61.2739 105.002 61.3957 105.149L64.0433 108.343C64.93 109.413 66.6502 109.071 67.0599 107.743L68.2834 103.779C68.3423 103.588 68.4293 103.416 68.538 103.266C69.2147 103.074 69.8856 102.868 70.5502 102.649C70.7275 102.714 70.8985 102.809 71.0565 102.937L74.2765 105.554C75.3548 106.431 76.9753 105.759 77.1181 104.377L77.5445 100.25C77.5674 100.028 77.6292 99.8237 77.7217 99.6403C78.3142 99.3351 78.8999 99.0184 79.4784 98.6905C79.6877 98.7142 79.898 98.777 80.1003 98.8838L83.7689 100.822C84.9975 101.471 86.4558 100.497 86.3262 99.1135L85.9393 94.9823C85.9155 94.7286 85.9461 94.4865 86.02 94.2651C86.5017 93.8805 86.9762 93.4872 87.4432 93.0853C87.6799 93.053 87.9292 93.0693 88.1794 93.1439L92.1557 94.3294C93.4874 94.7264 94.7276 93.4861 94.3306 92.1545L93.1451 88.1782C93.063 87.9029 93.0516 87.6286 93.0977 87.3711C93.4622 86.9384 93.8195 86.4994 94.1694 86.0543C94.4164 85.9551 94.6923 85.9108 94.9835 85.9381L99.1147 86.325C100.498 86.4546 101.473 84.9963 100.823 83.7676L98.8851 80.099C98.7366 79.8181 98.6731 79.5215 98.6816 79.2337C98.9303 78.781 99.1723 78.324 99.4073 77.863C99.6442 77.6915 99.93 77.5765 100.251 77.5433L104.378 77.1168C105.761 76.974 106.432 75.3536 105.555 74.2752L102.939 71.0553C102.714 70.7791 102.59 70.463 102.556 70.1439C102.691 69.7122 102.82 69.2779 102.944 68.8412C103.151 68.5885 103.433 68.389 103.78 68.2822L107.745 67.0587C109.072 66.649 109.415 64.9288 108.345 64.0421L105.15 61.3945C104.831 61.1303 104.635 60.7862 104.557 60.4232C104.593 60.0718 104.626 59.7192 104.655 59.3656C104.801 59.0174 105.063 58.711 105.434 58.5106L109.084 56.5371C110.306 55.8762 110.306 54.1223 109.084 53.4614L105.434 51.488C105.015 51.2618 104.736 50.9007 104.604 50.4969C104.581 50.2467 104.555 49.9971 104.528 49.748C104.577 49.3227 104.781 48.9099 105.15 48.604L108.345 45.9565C109.415 45.0698 109.072 43.3496 107.745 42.9398L103.78 41.7164C103.266 41.558 102.893 41.196 102.699 40.7585C102.658 40.6225 102.616 40.4868 102.574 40.3514C102.489 39.8765 102.597 39.3635 102.939 38.9433L105.555 35.7233C106.432 34.645 105.761 33.0245 104.378 32.8817L100.251 32.4553C99.0189 32.328 98.3063 30.9948 98.8851 29.8995L100.823 26.2309C101.473 25.0023 100.498 23.544 99.1147 23.6736L94.9835 24.0605C93.7501 24.176 92.7912 23.0075 93.1451 21.8204L94.3306 17.8441C94.7276 16.5124 93.4874 15.2722 92.1557 15.6692L88.1794 16.8547C86.9923 17.2086 85.8238 16.2496 85.9393 15.0162L86.3262 10.8851C86.4558 9.50157 84.9975 8.52714 83.7689 9.17632L80.1003 11.1147C79.005 11.6935 77.6718 10.9809 77.5445 9.74866L77.1181 5.62139C76.9753 4.23917 75.3548 3.56797 74.2765 4.44436L71.0565 7.06124C70.0952 7.84253 68.6486 7.40373 68.2834 6.22001L67.0599 2.25525C66.6502 0.92745 64.93 0.585275 64.0433 1.65521L61.3957 4.84998C60.6053 5.80381 59.101 5.65564 58.5118 4.56593L56.5384 0.916035ZM71.387 91.8502C66.38 94.0802 60.8346 95.3197 54.9996 95.3197C48.8383 95.3197 42.9997 93.9377 37.777 91.4667L36.3419 84.1328C35.9942 82.3561 34.272 81.1977 32.4954 81.5453L25.8416 82.8474C24.6205 81.5691 23.4825 80.2107 22.4365 78.7808H55.6152C55.8775 78.7808 55.943 78.5622 55.943 78.453V66.6522C55.943 66.39 55.7245 66.3244 55.6152 66.3244H45.672V58.8397H56.1616C60.5322 58.8397 62.3533 62.9918 62.7175 65.0679C62.7722 65.2136 63.1109 66.7069 64.0287 71.5146C64.9465 76.3223 68.454 78.7261 70.1476 78.7261H87.6027C86.5115 80.2229 85.3198 81.6418 84.0375 82.9727L76.7437 81.5453C74.967 81.1977 73.2449 82.3561 72.8972 84.1328L71.387 91.8502ZM95.223 57.8017H90.9081C90.4274 57.8017 90.3436 58.2388 90.3618 58.4573V61.9538C90.3618 63.0465 89.0506 66.2152 85.0624 66.2152C81.8718 66.2152 80.8921 64.3212 80.801 63.3743C80.6918 61.1889 79.2713 56.0316 74.4636 52.8847C75.0538 52.425 75.6142 52.0014 76.1442 51.6008C80.2748 48.4784 82.5493 46.7591 82.5493 40.3191C82.5493 35.0197 76.048 27.9721 67.3613 27.9721H25.0811C30.867 21.5716 38.6778 17.0365 47.5033 15.377L52.5337 20.4074C53.8138 21.6876 55.8893 21.6876 57.1695 20.4074L62.246 15.3309C74.302 17.5188 84.4904 25.0675 90.2524 35.4183L86.5748 43.1025C85.7933 44.7355 86.4835 46.6929 88.1165 47.4744L95.1045 50.8188C95.2462 52.1934 95.3188 53.5885 95.3188 55.0006C95.3188 55.9422 95.2865 56.8762 95.223 57.8017ZM21.9744 40.1006L23.411 43.1025C24.1926 44.7355 23.5023 46.6929 21.8693 47.4744L14.8954 50.812C14.7533 52.1889 14.6805 53.5862 14.6805 55.0006C14.6805 58.7729 15.1986 62.4243 16.1675 65.8874H27.5339V40.1006H21.9744ZM58.1288 13.0039C58.1288 14.8143 56.6612 16.2819 54.8508 16.2819C53.0405 16.2819 51.5729 14.8143 51.5729 13.0039C51.5729 11.1935 53.0405 9.72591 54.8508 9.72591C56.6612 9.72591 58.1288 11.1935 58.1288 13.0039ZM18.794 42.7237C18.794 44.5341 17.3264 46.0017 15.5161 46.0017C13.7057 46.0017 12.2381 44.5341 12.2381 42.7237C12.2381 40.9133 13.7057 39.4457 15.5161 39.4457C17.3264 39.4457 18.794 40.9133 18.794 42.7237ZM93.8587 46.1115C95.669 46.1115 97.1366 44.6439 97.1366 42.8335C97.1366 41.0231 95.669 39.5555 93.8587 39.5555C92.0483 39.5555 90.5807 41.0231 90.5807 42.8335C90.5807 44.6439 92.0483 46.1115 93.8587 46.1115ZM82.278 89.0532C82.278 90.8636 80.8104 92.3312 79 92.3312C77.1897 92.3312 75.7221 90.8636 75.7221 89.0532C75.7221 87.2428 77.1897 85.7752 79 85.7752C80.8104 85.7752 82.278 87.2428 82.278 89.0532ZM30.3761 92.3312C32.1865 92.3312 33.6541 90.8636 33.6541 89.0532C33.6541 87.2428 32.1865 85.7752 30.3761 85.7752C28.5657 85.7752 27.0981 87.2428 27.0981 89.0532C27.0981 90.8636 28.5657 92.3312 30.3761 92.3312ZM59.1119 40.3189H45.7268V47.9676H59.1119C61.0787 47.9676 64.3567 47.0934 64.3567 44.3618C64.3567 41.4662 60.7509 40.3189 59.1119 40.3189Z" fill="black"/>
</svg>
