<svg xmlns="http://www.w3.org/2000/svg" viewBox="0 0 64 64"><defs><linearGradient id="a" x1="298" y1="404.538" x2="347.5" y2="404.538" gradientTransform="matrix(0 1 1 0 -372.678 -290.75)" gradientUnits="userSpaceOnUse"><stop offset="0" stop-color="#0078d4"/><stop offset="1" stop-color="#1a508b"/></linearGradient><linearGradient id="b" x1="82.791" y1="572.842" x2="42.431" y2="551.186" gradientTransform="matrix(1 0 0 -1 0 602)" gradientUnits="userSpaceOnUse"><stop offset="0" stop-color="#40c4f5"/><stop offset="1" stop-color="#0095e6"/></linearGradient><linearGradient id="c" x1="16.354" y1="585.88" x2="60.089" y2="608.942" gradientTransform="matrix(1 0 0 -1 0 602)" gradientUnits="userSpaceOnUse"><stop offset="0" stop-color="#0095e6"/><stop offset=".667" stop-color="#40c4f5"/></linearGradient><linearGradient id="d" x1="13.154" y1="13.291" x2="32.744" y2="32.881" gradientUnits="userSpaceOnUse"><stop offset=".514" stop-color="#043e5f"/><stop offset=".535" stop-color="#094264" stop-opacity=".882"/><stop offset=".613" stop-color="#194e74" stop-opacity=".501"/><stop offset=".686" stop-color="#255780" stop-opacity=".225"/><stop offset=".751" stop-color="#2c5c87" stop-opacity=".058"/><stop offset=".802" stop-color="#2e5e8a" stop-opacity="0"/></linearGradient></defs><rect x="7.25" y="7.25" width="49.219" height="49.5" rx="2.25" fill="url(#a)"/><path d="M63.5 17.852v44.523a1.125 1.125 0 0 1-1.125 1.125H18.111a1.125 1.125 0 0 1-.798-1.918l44.264-44.523a1.125 1.125 0 0 1 1.923.793Z" fill="url(#b)"/><path d="M.5 46.148V1.625A1.125 1.125 0 0 1 1.625.5h44.264a1.125 1.125 0 0 1 .798 1.918L2.423 46.941A1.125 1.125 0 0 1 .5 46.148Z" fill="url(#c)"/><path fill="url(#d)" d="M7.25 42.086v9.935L51.747 7.25h-9.864L7.25 42.086z"/></svg>