<svg width="260" height="80" viewBox="0 0 260 80" fill="none" xmlns="http://www.w3.org/2000/svg">
<mask id="mask0_1113_2026" style="mask-type:alpha" maskUnits="userSpaceOnUse" x="0" y="0" width="82" height="80">
<path d="M77.9759 52.045C85.0344 59.9913 81.3389 70.872 77.9759 74.6064C74.5942 78.4479 70.9792 80 62.5126 80C51.8612 80 34.837 68.9541 19.3607 68.0487C-1.94227 66.5095 -1.43922 59.6014 1.42171 51.4212C3.71046 44.8771 2.68665 34.4778 1.88865 30.0961C1.52431 28.5392 1.43326 24.8162 3.98373 22.3791C7.17182 19.3328 8.91816 19.7836 12.176 18.3636C19.9708 14.972 24.5233 9.8389 27.4576 6.06956C30.3918 2.30021 34.5795 -2.44651 42.2775 1.46473C49.0568 4.90915 51.9434 10.9744 56.2614 20.068C60.8208 29.6699 67.8866 40.6868 77.9759 52.045Z" fill="#F7941D"/>
</mask>
<g mask="url(#mask0_1113_2026)">
<path d="M77.9759 52.045C85.0344 59.9913 81.3389 70.872 77.9759 74.6064C74.5942 78.4479 70.9792 80 62.5126 80C51.8612 80 34.837 68.9541 19.3607 68.0487C-1.94227 66.5095 -1.43922 59.6014 1.42171 51.4212C3.71046 44.8771 2.68665 34.4778 1.88865 30.0961C1.52431 28.5392 1.43326 24.8162 3.98373 22.3791C7.17182 19.3328 8.91816 19.7836 12.176 18.3636C19.9708 14.972 24.5233 9.8389 27.4576 6.06956C30.3918 2.30021 34.5795 -2.44651 42.2775 1.46473C49.0568 4.90915 51.9434 10.9744 56.2614 20.068C60.8208 29.6699 67.8866 40.6868 77.9759 52.045Z" fill="#FF445F"/>
<path d="M95.3703 68.5024C102.12 77.9636 96.8279 89.3736 92.7326 93.0474C88.6045 96.8356 84.4901 98.1061 75.2792 97.1271C63.6912 95.8953 46.4617 81.9097 29.7305 79.135C6.73457 74.9971 8.08951 67.5397 12.1584 58.9712C15.4134 52.1163 15.5154 40.6843 15.1596 35.8251C14.9452 34.0892 15.2814 30.0283 18.3411 27.6719C22.1656 24.7264 24.0128 25.4188 27.7231 24.2507C36.5998 21.4623 42.1527 16.4043 45.7856 12.6428C49.4185 8.88141 54.5293 4.2016 62.4469 9.34691C69.4196 13.8781 71.8508 20.8105 75.4853 31.2028C79.323 42.1762 85.722 54.9788 95.3703 68.5024Z" fill="#FFC900"/>
<path d="M105.603 79.7068C111.873 89.4893 106.018 100.624 101.745 104.092C97.4326 107.671 93.26 108.738 84.1092 107.305C72.5969 105.504 56.086 90.6854 39.5137 87.089C16.7524 81.8219 18.4775 74.4406 22.9686 66.0833C26.5615 59.3974 27.2335 47.9845 27.1203 43.1137C26.9928 41.3694 27.5311 37.33 30.7045 35.1275C34.6712 32.3742 36.4816 33.1568 40.2455 32.1732C49.2504 29.826 55.0486 25.0481 58.8647 21.4705C62.6807 17.8928 68.0185 13.4709 75.6698 19.0003C82.408 23.8699 84.4905 30.9136 87.6023 41.4724C90.8881 52.6216 96.6408 65.7241 105.603 79.7068Z" fill="#00FFE4"/>
<path d="M117.807 96.8683C123.272 107.854 115.847 118.886 110.961 122.044C106.022 125.316 101.517 125.963 92.0689 123.421C80.1831 120.224 64.5382 102.789 47.5432 97.1331C24.2388 89.0214 26.8965 81.4638 32.5714 73.1944C37.1112 66.5789 39.1246 54.6672 39.5638 49.5383C39.6297 47.6916 40.6579 43.5098 44.2435 41.5558C48.7254 39.1134 50.5374 40.1406 54.6036 39.5339C64.3309 38.089 70.9687 33.7274 75.3868 30.402C79.805 27.0766 85.9183 23.0367 93.3215 29.7118C99.8412 35.5902 101.222 43.2247 103.28 54.668C105.454 66.7512 109.996 81.1655 117.807 96.8683Z" fill="#08B1D5"/>
<path d="M124.55 111.356C128.761 122.875 120.156 133.024 114.949 135.625C109.676 138.334 105.127 138.482 96.0194 134.919C84.5615 130.435 70.949 111.388 54.6862 103.9C32.4253 93.2774 35.9062 86.058 42.4649 78.4627C47.7118 72.3864 51.0359 60.7688 52.0421 55.7195C52.3127 53.8914 53.7991 49.8481 57.5798 48.3001C62.3056 46.365 63.9923 47.585 68.1011 47.4287C77.9294 47.0612 85.0109 43.4556 89.7714 40.636C94.5319 37.8163 101.057 34.4728 107.673 41.9203C113.5 48.4789 114.024 56.2184 114.799 67.8179C115.618 80.0659 118.53 94.891 124.55 111.356Z" fill="#1904DA"/>
<path d="M140.775 133.061C144.868 146.315 134.507 157.17 128.448 159.752C122.308 162.451 117.14 162.314 107.023 157.693C94.2956 151.879 79.9879 129.518 61.9893 120C37.3746 106.551 41.7501 98.6528 49.6381 90.537C55.9485 84.0443 60.407 71.1827 61.8474 65.5635C62.2627 63.5227 64.1881 59.0685 68.5673 57.5776C74.0412 55.7139 75.8817 57.2004 80.5504 57.2987C91.7178 57.5411 99.9623 53.9533 105.528 51.0957C111.094 48.238 118.691 44.9083 125.753 53.7373C131.972 61.5126 132.107 70.2637 132.299 83.3786C132.501 97.2268 134.925 114.117 140.775 133.061Z" fill="#183278"/>
</g>
<path fill-rule="evenodd" clip-rule="evenodd" d="M96 32.4509V57.0819C96 59.0932 96.637 62.0233 98.5876 64.507C100.624 67.0995 103.936 69.0001 108.8 69.0001V64.2329C105.344 64.2329 103.456 62.9553 102.372 61.575C101.203 60.086 100.8 58.2488 100.8 57.0819V47.5473H108.8V42.7801H100.8V32.4509H96Z" fill="#07242D"/>
<path fill-rule="evenodd" clip-rule="evenodd" d="M117.6 52.1823L117.6 69.0001H112.8V42.78L117.6 42.78V45.5525C118.131 45.1353 118.686 44.7508 119.239 44.4471C121.823 43.0287 124.878 42.5607 126.4 42.5605L126.4 47.3278C125.522 47.3279 123.3 47.665 121.561 48.6197C120.731 49.0752 119.64 50.0429 118.649 51.0567C118.236 51.4783 117.875 51.8728 117.6 52.1823Z" fill="#07242D"/>
<path fill-rule="evenodd" clip-rule="evenodd" d="M103.2 11.7809C100.77 11.7809 98.7999 13.7374 98.7999 16.1509C98.7999 18.5644 100.77 20.5209 103.2 20.5209H107.6V16.1509C107.6 13.7374 105.63 11.7809 103.2 11.7809ZM96.3999 16.1509C96.3999 12.4209 99.4444 9.39722 103.2 9.39722C106.955 9.39722 110 12.4209 110 16.1509V22.9045H103.2C99.4444 22.9045 96.3999 19.8808 96.3999 16.1509Z" fill="#07242D"/>
<path fill-rule="evenodd" clip-rule="evenodd" d="M140.4 47.5471C135.761 47.5471 132 51.2823 132 55.8898C132 60.4974 135.761 64.2326 140.4 64.2326H148.8V55.8898C148.8 51.2823 145.039 47.5471 140.4 47.5471ZM127.2 55.8898C127.2 48.6494 133.11 42.7798 140.4 42.7798C147.69 42.7798 153.6 48.6494 153.6 55.8898V68.9999H140.4C133.11 68.9999 127.2 63.1303 127.2 55.8898Z" fill="#07242D"/>
<path fill-rule="evenodd" clip-rule="evenodd" d="M175.14 49.9906C171.859 46.7326 166.541 46.7326 163.26 49.9906C159.98 53.2487 159.98 58.531 163.26 61.789C166.541 65.0471 171.859 65.0471 175.14 61.789L178.534 65.16C173.379 70.2798 165.021 70.2798 159.866 65.16C154.711 60.0402 154.711 51.7394 159.866 46.6196C165.021 41.4998 173.379 41.4998 178.534 46.6196L175.14 49.9906Z" fill="#07242D"/>
<path fill-rule="evenodd" clip-rule="evenodd" d="M150.4 11.7809C147.97 11.7809 146 13.7374 146 16.1509C146 18.5644 147.97 20.5209 150.4 20.5209H154.8V16.1509C154.8 13.7374 152.83 11.7809 150.4 11.7809ZM143.6 16.1509C143.6 12.4209 146.645 9.39722 150.4 9.39722C154.156 9.39722 157.2 12.4209 157.2 16.1509V22.9045H150.4C146.645 22.9045 143.6 19.8808 143.6 16.1509Z" fill="#07242D"/>
<path fill-rule="evenodd" clip-rule="evenodd" d="M132.089 19.2409C133.397 20.5401 135.326 20.852 136.932 20.1695C137.432 19.9573 137.901 19.6486 138.311 19.2409C139.171 18.3874 139.6 17.2711 139.6 16.1509V9L142 9V16.1509C142 17.8775 141.336 19.6079 140.008 20.9264C139.378 21.5525 138.652 22.0314 137.876 22.3611C135.399 23.4135 132.417 22.9376 130.392 20.9264C129.064 19.6079 128.4 17.8775 128.4 16.1509L128.4 9L130.8 9V16.1509C130.8 17.2711 131.229 18.3874 132.089 19.2409Z" fill="#07242D"/>
<path fill-rule="evenodd" clip-rule="evenodd" d="M119.2 11.7809C116.77 11.7809 114.8 13.7374 114.8 16.1509C114.8 18.5644 116.77 20.5209 119.2 20.5209H120.8V22.9045H119.2C115.444 22.9045 112.4 19.8808 112.4 16.1509C112.4 12.4209 115.444 9.39722 119.2 9.39722C122.955 9.39722 126 12.4209 126 16.1509V32.0418H123.6V16.1509C123.6 13.7374 121.63 11.7809 119.2 11.7809Z" fill="#07242D"/>
<path fill-rule="evenodd" clip-rule="evenodd" d="M194 47.5471C197.506 47.5471 200.511 49.6811 201.769 52.7116H186.23C187.489 49.6811 190.494 47.5471 194 47.5471ZM185.752 57.4789H188.8H202.248H207.104C207.167 56.9577 207.2 56.4274 207.2 55.8898C207.2 55.5645 207.188 55.2414 207.164 54.9212C206.664 48.1318 200.962 42.7798 194 42.7798C187.037 42.7798 181.336 48.1318 180.835 54.9212C180.812 55.2414 180.8 55.5645 180.8 55.8898C180.8 63.1303 186.71 68.9999 194 68.9999C198.989 68.9999 203.328 66.2497 205.57 62.2037C205.776 61.8322 205.965 61.4498 206.134 61.0575H200.595C199.055 62.9944 196.672 64.2326 194 64.2326C189.908 64.2326 186.499 61.3265 185.752 57.4789Z" fill="#07242D"/>
<path fill-rule="evenodd" clip-rule="evenodd" d="M222.8 47.5471C226.306 47.5471 229.311 49.6811 230.569 52.7116H215.031C216.289 49.6811 219.294 47.5471 222.8 47.5471ZM214.552 57.4789H217.6H231.048H235.904C235.967 56.9577 236 56.4274 236 55.8898C236 55.5645 235.988 55.2414 235.965 54.9212C235.464 48.1318 229.762 42.7798 222.8 42.7798C215.838 42.7798 210.136 48.1318 209.636 54.9212C209.612 55.2414 209.6 55.5645 209.6 55.8898C209.6 63.1303 215.51 68.9999 222.8 68.9999C227.789 68.9999 232.129 66.2497 234.371 62.2037C234.577 61.8322 234.765 61.4498 234.934 61.0575H229.395C227.855 62.9944 225.472 64.2326 222.8 64.2326C218.708 64.2326 215.299 61.3265 214.552 57.4789Z" fill="#07242D"/>
</svg>
