<svg width="128" height="128" viewBox="0 0 128 128" fill="none" xmlns="http://www.w3.org/2000/svg">
<mask id="mask0_1333_2250" style="mask-type:alpha" maskUnits="userSpaceOnUse" x="3" y="4" width="122" height="120">
<path d="M118.833 81.8267C129.3 93.5872 123.82 109.691 118.833 115.218C113.818 120.903 108.457 123.2 95.9018 123.2C80.1065 123.2 54.8609 106.852 31.9106 105.512C0.319945 103.234 1.06593 93.0101 5.30849 80.9035C8.70253 71.2181 7.1843 55.8271 6.00093 49.3423C5.46064 47.0381 5.32561 41.528 9.10777 37.9212C13.8355 33.4126 16.4252 34.0798 21.2563 31.9782C32.8155 26.9587 39.5665 19.3616 43.9178 13.783C48.2691 8.20436 54.479 1.17922 65.8947 6.96785C75.9479 12.0656 80.2285 21.0422 86.6318 34.5006C93.3931 48.7115 103.871 65.0165 118.833 81.8267Z" fill="#F7941D"/>
</mask>
<g mask="url(#mask0_1333_2250)">
<path d="M118.833 81.8267C129.3 93.5872 123.82 109.691 118.833 115.218C113.818 120.903 108.457 123.2 95.9018 123.2C80.1065 123.2 54.8609 106.852 31.9106 105.512C0.319945 103.234 1.06593 93.0101 5.30849 80.9035C8.70253 71.2181 7.1843 55.8271 6.00093 49.3423C5.46064 47.0381 5.32561 41.528 9.10777 37.9212C13.8355 33.4126 16.4252 34.0798 21.2563 31.9782C32.8155 26.9587 39.5665 19.3616 43.9178 13.783C48.2691 8.20436 54.479 1.17922 65.8947 6.96785C75.9479 12.0656 80.2285 21.0422 86.6318 34.5006C93.3931 48.7115 103.871 65.0165 118.833 81.8267Z" fill="#F7941D"/>
<path d="M144.628 106.184C154.638 120.186 146.79 137.073 140.717 142.51C134.595 148.117 128.494 149.997 114.835 148.548C97.6505 146.725 72.1004 126.027 47.2893 121.92C13.1879 115.796 15.1972 104.759 21.231 92.0777C26.0581 81.9325 26.2093 65.0131 25.6816 57.8215C25.3637 55.2524 25.8623 49.2422 30.3995 45.7547C36.071 41.3954 38.8103 42.4201 44.3123 40.6914C57.4758 36.5645 65.7104 29.0787 71.0977 23.5117C76.4851 17.9448 84.064 11.0187 95.8053 18.6338C106.145 25.3399 109.751 35.5998 115.14 50.9805C120.831 67.2212 130.32 86.169 144.628 106.184Z" fill="#FAAB4C"/>
<path d="M159.801 122.766C169.099 137.244 160.417 153.724 154.08 158.855C147.685 164.154 141.498 165.731 127.928 163.612C110.856 160.945 86.3713 139.014 61.7959 133.692C28.0425 125.896 30.6007 114.972 37.2607 102.603C42.5887 92.7081 43.5851 75.8169 43.4174 68.6083C43.2283 66.0266 44.0265 60.0484 48.7324 56.7886C54.6147 52.7138 57.2994 53.8721 62.8811 52.4162C76.2346 48.9424 84.833 41.8711 90.4919 36.5762C96.1508 31.2813 104.066 24.7368 115.413 32.9204C125.405 40.1273 128.493 50.552 133.108 66.1791C137.98 82.6799 146.511 102.072 159.801 122.766Z" fill="#EFE136"/>
<path d="M177.9 148.166C186.004 164.425 174.993 180.752 167.747 185.426C160.423 190.268 153.742 191.225 139.732 187.464C122.106 182.733 98.906 156.928 73.7036 148.558C39.1448 136.552 43.086 125.367 51.5014 113.128C58.2337 103.337 61.2194 85.7081 61.8707 78.1173C61.9684 75.3842 63.4932 69.1951 68.8103 66.3033C75.4567 62.6886 78.1437 64.2088 84.1736 63.3109C98.5985 61.1723 108.442 54.7173 114.994 49.7956C121.545 44.874 130.611 38.895 141.589 48.7741C151.258 57.4741 153.305 68.7732 156.358 85.7094C159.582 103.592 166.316 124.926 177.9 148.166Z" fill="#0C829D"/>
<path d="M187.898 169.607C194.143 186.655 181.382 201.675 173.66 205.526C165.841 209.535 159.095 209.754 145.589 204.48C128.598 197.845 108.412 169.654 84.2953 158.572C51.2841 142.851 56.446 132.166 66.172 120.925C73.9528 111.932 78.8822 94.7379 80.3743 87.265C80.7756 84.5594 82.9798 78.5753 88.5863 76.2842C95.5943 73.4203 98.0956 75.2259 104.189 74.9946C118.763 74.4508 129.265 69.1145 136.324 64.9413C143.384 60.7682 153.059 55.8198 162.871 66.8421C171.512 76.5489 172.289 88.0034 173.438 105.171C174.652 123.298 178.971 145.239 187.898 169.607Z" fill="#00ACE6"/>
<path d="M211.959 201.731C218.028 221.346 202.664 237.412 193.679 241.234C184.574 245.228 176.911 245.025 161.908 238.185C143.033 229.581 121.816 196.488 95.1256 182.4C58.6238 162.495 65.1123 150.806 76.8097 138.795C86.1676 129.186 92.7792 110.151 94.9152 101.834C95.5311 98.8139 98.3862 92.2216 104.88 90.015C112.998 87.2567 115.727 89.4568 122.65 89.6023C139.211 89.961 151.437 84.6512 159.69 80.4218C167.944 76.1925 179.21 71.2645 189.682 84.3315C198.905 95.8389 199.105 108.79 199.389 128.201C199.689 148.696 203.283 173.693 211.959 201.731Z" fill="#99D8EF"/>
</g>
</svg>
