<svg width="264" height="264" viewBox="0 0 264 264" fill="none" xmlns="http://www.w3.org/2000/svg">
<path d="M0 7.99999C0 3.58171 3.58172 0 8 0H264V264H7.99999C3.58171 264 0 260.418 0 256V7.99999Z" fill="#FEF9E7"/>
<path d="M96 161L96 221" stroke="#FFE100" stroke-width="4.00855" stroke-linecap="round"/>
<path d="M119.233 166H96V216H167.629C168.939 216 170 214.939 170 213.629V177.83C170 176.521 168.939 175.459 167.629 175.459H130.621C129.991 175.459 129.386 175.208 128.941 174.761L120.913 166.698C120.468 166.251 119.864 166 119.233 166Z" fill="#FFE100"/>
<path d="M117.838 200.234C120.232 200.234 121.852 199.046 122.302 197.174H119.8C119.566 197.822 118.954 198.308 117.838 198.308C116.452 198.308 115.642 197.516 115.534 195.896H122.356C122.518 192.656 120.97 190.478 117.838 190.478C114.922 190.478 113.104 192.404 113.104 195.23V195.464C113.104 198.326 114.886 200.234 117.838 200.234ZM115.57 194.312C115.804 192.998 116.542 192.35 117.82 192.35C119.044 192.35 119.71 193.106 119.836 194.312H115.57ZM128.168 200.234C128.708 200.234 129.392 200.126 129.842 200.018V198.074C129.59 198.146 129.176 198.254 128.726 198.254C127.736 198.254 127.394 197.912 127.394 197.102V192.548H129.806V190.712H127.394V187.76H124.874V190.712H123.146V192.548H124.874V197.318C124.874 199.226 125.936 200.234 128.168 200.234ZM134.32 200V194.852C134.32 193.376 135.112 192.512 136.282 192.512C137.488 192.512 137.956 193.304 137.956 194.654V200H140.458V194.024C140.458 191.936 139.54 190.478 137.236 190.478C135.76 190.478 134.824 191.234 134.338 192.062V186.464H131.8V200H134.32ZM147.14 200.234C150.452 200.234 151.892 197.624 151.892 193.79V193.43C151.892 189.614 150.452 186.986 147.14 186.986C143.936 186.986 142.406 189.614 142.406 193.43V193.79C142.406 197.624 143.936 200.234 147.14 200.234ZM147.14 198.092C145.592 198.092 145.142 196.742 145.142 193.844V193.412C145.142 190.496 145.592 189.128 147.14 189.128C148.796 189.128 149.156 190.496 149.156 193.412V193.844C149.156 196.742 148.796 198.092 147.14 198.092Z" fill="#1A1A1A"/>
<g filter="url(#filter0_dd_2103_29045)">
<path d="M99 48C99 45.7909 100.791 44 103 44H161C163.209 44 165 45.7909 165 48V106C165 108.209 163.209 110 161 110H103C100.791 110 99 108.209 99 106V48Z" fill="#1C1C1C"/>
<path d="M99 48C99 45.7909 100.791 44 103 44H161C163.209 44 165 45.7909 165 48V106C165 108.209 163.209 110 161 110H103C100.791 110 99 108.209 99 106V48Z" fill="url(#paint0_linear_2103_29045)" fill-opacity="0.16"/>
</g>
<path fill-rule="evenodd" clip-rule="evenodd" d="M138.024 56.1129C138.536 56.3709 138.739 56.9885 138.477 57.4924C137.959 58.4873 137.679 59.9143 137.572 61.3811C137.466 62.8288 137.537 64.1989 137.645 65.0052C137.72 65.5665 137.319 66.0814 136.748 66.1554C136.178 66.2293 135.654 65.8343 135.579 65.2731C135.451 64.3248 135.378 62.8155 135.493 61.2337C135.607 59.671 135.914 57.9183 136.622 56.558C136.884 56.0542 137.512 55.8549 138.024 56.1129Z" fill="#FFE100"/>
<path fill-rule="evenodd" clip-rule="evenodd" d="M129.172 67.6161C131.704 62.2471 137.862 63.5635 140.77 65.4977L132.778 77.1277L131.861 76.5176C130.696 77.8462 128.317 78.8519 127.274 79.1886C127.38 80.6818 128.653 81.8332 129.277 82.2222L126.651 86.043C123.587 84.0047 122.691 81.0896 122.627 79.8869L121.489 79.8262C119.481 84.3049 122.63 87.776 124.573 89.0679L121.181 94.0031L121.771 89.3695C117.948 86.1464 118.632 81.2765 119.452 79.2444C116.818 78.7298 112.247 74.9708 113.106 71.7761C114.601 66.2137 124.412 66.3059 129.172 67.6161ZM131.982 72.3246C132.577 69.417 126.237 68.942 122.986 69.0687C120.919 69.1124 119.324 69.3497 118.131 69.7207C118.662 71.3418 119.892 72.1479 120.49 72.3571C124.26 71.5139 129.154 71.903 131.982 72.3246ZM131.744 73.0924C129.772 72.8404 126.834 72.7755 125.31 72.7793C123.24 74.1695 122.974 76.5138 123.15 77.9855C125.954 78.0328 130.498 76.1107 131.744 73.0924ZM122.205 77.8916C121.827 75.7597 123.044 73.7482 123.792 72.9294C119.958 73.0733 117.542 74.1434 116.361 74.9833C117.624 76.3428 119.793 77.5049 122.205 77.8916ZM115.69 74.1037C116.637 73.534 118.335 73.01 119.259 72.7756C117.923 71.7931 117.34 70.7675 117.134 70.1038C115.045 71.0916 114.808 72.6381 115.69 74.1037Z" fill="#FFE100"/>
<path fill-rule="evenodd" clip-rule="evenodd" d="M150.641 64.5029C150.207 64.1314 149.549 64.1764 149.171 64.6035C148.426 65.4468 147.184 66.2342 145.841 66.8786C144.514 67.5146 143.196 67.9609 142.395 68.1625C141.837 68.3029 141.501 68.8613 141.644 69.4097C141.787 69.9581 142.355 70.2889 142.912 70.1485C143.854 69.9114 145.305 69.4162 146.754 68.7213C148.186 68.0348 149.725 67.102 150.744 65.949C151.122 65.5219 151.076 64.8745 150.641 64.5029Z" fill="#FFE100"/>
<path fill-rule="evenodd" clip-rule="evenodd" d="M143.094 76.8736C147.215 72.5618 143.678 67.4305 140.77 65.4963L132.778 77.1264L133.695 77.7364C132.876 79.2947 132.814 81.841 132.885 82.9194C131.437 83.3791 129.877 82.6452 129.277 82.2208L126.652 86.0417C129.716 88.08 132.8 87.811 133.958 87.4217L134.439 88.4376C130.963 91.9403 126.516 90.3584 124.573 89.0665L121.182 94.0018L125.333 91.7367C129.797 94.0258 134.136 91.5866 135.747 90.0808C137.214 92.2936 142.463 95.0659 145.157 93.0914C149.846 89.6536 146.103 80.731 143.094 76.8736ZM137.605 76.0632C140.126 74.4364 142.937 80.0473 144.029 83.0627C144.758 84.9659 145.128 86.5107 145.223 87.7375C143.496 87.8572 142.277 87.0343 141.857 86.5668C141.248 82.8111 139.057 78.4874 137.605 76.0632ZM136.97 76.5664C137.942 78.2726 139.098 80.9307 139.663 82.3238C139.123 84.7316 137.01 85.8475 135.557 86.2352C134.467 83.6931 134.587 78.8284 136.97 76.5664ZM135.997 87.0633C138.149 86.6142 139.593 84.753 140.087 83.7658C141.38 87.3191 141.271 89.9241 140.919 91.3149C139.165 90.6682 137.261 89.121 135.997 87.0633ZM141.998 91.6C142.183 90.5226 142.044 88.7773 141.921 87.8466C143.346 88.6998 144.53 88.85 145.233 88.7909C145.08 91.0662 143.709 91.8587 141.998 91.6Z" fill="#FFE100"/>
<path d="M55.3375 140.47C55.1803 140.717 54.8197 140.717 54.6625 140.47L48.3912 130.615C48.2217 130.348 48.413 130 48.7287 130L61.2713 130C61.587 130 61.7783 130.348 61.6088 130.615L55.3375 140.47Z" fill="#1A1A1A"/>
<path d="M92 76.0001L55.0004 76.0001L55.0004 126" stroke="#1A1A1A" stroke-width="2.36264" stroke-linecap="round" stroke-linejoin="round" stroke-dasharray="0.01 5.91"/>
<path d="M89 196L55 196L55 145" stroke="#1A1A1A" stroke-width="2.36264" stroke-linecap="round" stroke-linejoin="round" stroke-dasharray="0.01 5.91"/>
<path d="M208.663 130.53C208.82 130.283 209.18 130.283 209.337 130.53L215.609 140.385C215.778 140.652 215.587 141 215.271 141L202.729 141C202.413 141 202.222 140.652 202.391 140.385L208.663 130.53Z" fill="#1A1A1A"/>
<path d="M170 76.0001L209 76.0001L209 126" stroke="#1A1A1A" stroke-width="2.36264" stroke-linecap="round" stroke-linejoin="round" stroke-dasharray="0.01 5.91"/>
<path d="M175 196L209 196L209 145" stroke="#1A1A1A" stroke-width="2.36264" stroke-linecap="round" stroke-linejoin="round" stroke-dasharray="0.01 5.91"/>
<defs>
<filter id="filter0_dd_2103_29045" x="69" y="28" width="126" height="126" filterUnits="userSpaceOnUse" color-interpolation-filters="sRGB">
<feFlood flood-opacity="0" result="BackgroundImageFix"/>
<feColorMatrix in="SourceAlpha" type="matrix" values="0 0 0 0 0 0 0 0 0 0 0 0 0 0 0 0 0 0 127 0" result="hardAlpha"/>
<feOffset dy="14"/>
<feGaussianBlur stdDeviation="15"/>
<feColorMatrix type="matrix" values="0 0 0 0 0 0 0 0 0 0 0 0 0 0 0 0 0 0 0.25 0"/>
<feBlend mode="normal" in2="BackgroundImageFix" result="effect1_dropShadow_2103_29045"/>
<feColorMatrix in="SourceAlpha" type="matrix" values="0 0 0 0 0 0 0 0 0 0 0 0 0 0 0 0 0 0 127 0" result="hardAlpha"/>
<feOffset dy="2"/>
<feGaussianBlur stdDeviation="5"/>
<feColorMatrix type="matrix" values="0 0 0 0 0 0 0 0 0 0 0 0 0 0 0 0 0 0 0.14 0"/>
<feBlend mode="normal" in2="effect1_dropShadow_2103_29045" result="effect2_dropShadow_2103_29045"/>
<feBlend mode="normal" in="SourceGraphic" in2="effect2_dropShadow_2103_29045" result="shape"/>
</filter>
<linearGradient id="paint0_linear_2103_29045" x1="95.0921" y1="104.327" x2="129.587" y2="96.0111" gradientUnits="userSpaceOnUse">
<stop stop-color="#FFEE99"/>
<stop offset="1" stop-color="#FFEE99" stop-opacity="0"/>
</linearGradient>
</defs>
</svg>
