<svg width="264" height="264" viewBox="0 0 264 264" fill="none" xmlns="http://www.w3.org/2000/svg">
<path d="M0 7.99999C0 3.58171 3.58172 0 8 0H264V264H7.99999C3.58171 264 0 260.418 0 256V7.99999Z" fill="#EBFAEB"/>
<rect x="44.5" y="125.5" width="65" height="65" rx="3.5" fill="white" stroke="#1A1A1A"/>
<path d="M69.4051 145L72.8491 135.06H70.7211L68.3131 142.718L65.8911 135.06H63.6931L67.1231 145H69.4051ZM76.068 145V140.996H80.324V139.316H76.068V136.754H80.786V135.06H73.996V145H76.068ZM85.9091 145.182C88.2611 145.182 89.8851 143.978 89.8851 142.144V142.004C89.8851 140.352 88.6951 139.498 86.3291 139.092C84.3551 138.77 84.0751 138.406 84.0751 137.79V137.706C84.0751 137.006 84.6211 136.502 85.7131 136.502C86.8331 136.502 87.5191 136.978 87.6731 137.86H89.7171C89.4791 135.914 87.9951 134.878 85.7551 134.878C83.5291 134.878 82.0031 136.068 82.0031 137.804V137.944C82.0031 139.498 82.9411 140.352 85.3491 140.8C87.2111 141.15 87.8131 141.528 87.8131 142.214V142.34C87.8131 143.11 86.9731 143.53 85.9511 143.53C84.7051 143.53 83.8931 143.026 83.7111 141.962H81.6671C81.8631 143.978 83.3751 145.182 85.9091 145.182Z" fill="#1A1A1A"/>
<g filter="url(#filter0_dd_2104_29031)">
<path d="M60 158C60 155.791 61.7909 154 64 154H122C124.209 154 126 155.791 126 158V216C126 218.209 124.209 220 122 220H64C61.7909 220 60 218.209 60 216V158Z" fill="#1C1C1C"/>
<path d="M60 158C60 155.791 61.7909 154 64 154H122C124.209 154 126 155.791 126 158V216C126 218.209 124.209 220 122 220H64C61.7909 220 60 218.209 60 216V158Z" fill="url(#paint0_linear_2104_29031)" fill-opacity="0.16"/>
</g>
<path fill-rule="evenodd" clip-rule="evenodd" d="M99.024 166.113C99.5364 166.371 99.7392 166.989 99.477 167.492C98.9593 168.487 98.6792 169.914 98.5721 171.381C98.4664 172.829 98.5368 174.199 98.645 175.005C98.7204 175.566 98.3189 176.081 97.7483 176.155C97.1777 176.229 96.654 175.834 96.5786 175.273C96.4513 174.325 96.3776 172.815 96.4931 171.234C96.6072 169.671 96.9137 167.918 97.6215 166.558C97.8837 166.054 98.5116 165.855 99.024 166.113Z" fill="#FFE100"/>
<path fill-rule="evenodd" clip-rule="evenodd" d="M90.1723 177.616C92.7037 172.247 98.8616 173.563 101.77 175.498L93.7779 187.128L92.8606 186.518C91.696 187.846 89.3173 188.852 88.2736 189.189C88.3796 190.682 89.6534 191.833 90.2771 192.222L87.6515 196.043C84.5867 194.005 83.6915 191.09 83.6269 189.887L82.4894 189.826C80.4809 194.305 83.6304 197.776 85.5729 199.068L82.1814 204.003L82.7712 199.37C78.9482 196.146 79.6321 191.276 80.452 189.244C77.8182 188.73 73.2471 184.971 74.1058 181.776C75.601 176.214 85.4122 176.306 90.1723 177.616ZM92.9819 182.325C93.577 179.417 87.237 178.942 83.9858 179.069C81.9189 179.112 80.3237 179.35 79.1314 179.721C79.662 181.342 80.8923 182.148 81.4898 182.357C85.2595 181.514 90.1544 181.903 92.9819 182.325ZM92.744 183.092C90.7723 182.84 87.8342 182.775 86.3098 182.779C84.2399 184.169 83.9744 186.514 84.1505 187.985C86.9543 188.033 91.4983 186.111 92.744 183.092ZM83.2051 187.892C82.8268 185.76 84.0444 183.748 84.7916 182.929C80.9582 183.073 78.5415 184.143 77.3609 184.983C78.6242 186.343 80.7933 187.505 83.2051 187.892ZM76.6896 184.104C77.6372 183.534 79.335 183.01 80.2589 182.776C78.9233 181.793 78.3401 180.768 78.1339 180.104C76.0448 181.092 75.8079 182.638 76.6896 184.104Z" fill="#FFE100"/>
<path fill-rule="evenodd" clip-rule="evenodd" d="M111.641 174.503C111.207 174.131 110.549 174.176 110.171 174.603C109.426 175.447 108.184 176.234 106.841 176.879C105.514 177.515 104.196 177.961 103.395 178.163C102.837 178.303 102.501 178.861 102.644 179.41C102.787 179.958 103.355 180.289 103.912 180.149C104.854 179.911 106.305 179.416 107.754 178.721C109.186 178.035 110.725 177.102 111.744 175.949C112.122 175.522 112.076 174.874 111.641 174.503Z" fill="#FFE100"/>
<path fill-rule="evenodd" clip-rule="evenodd" d="M104.094 186.874C108.215 182.562 104.678 177.431 101.77 175.496L93.7781 187.126L94.6953 187.736C93.8761 189.295 93.814 191.841 93.8853 192.919C92.4373 193.379 90.8766 192.645 90.2773 192.221L87.6517 196.042C90.7164 198.08 93.7997 197.811 94.9582 197.422L95.4393 198.438C91.9632 201.94 87.5155 200.358 85.5731 199.067L82.1816 204.002L86.3326 201.737C90.7974 204.026 95.1361 201.587 96.7474 200.081C98.2143 202.294 103.463 205.066 106.157 203.091C110.846 199.654 107.103 190.731 104.094 186.874ZM98.6052 186.063C101.126 184.436 103.937 190.047 105.029 193.063C105.758 194.966 106.128 196.511 106.223 197.737C104.496 197.857 103.277 197.034 102.857 196.567C102.248 192.811 100.057 188.487 98.6052 186.063ZM97.9697 186.566C98.9421 188.273 100.098 190.931 100.663 192.324C100.123 194.732 98.0104 195.848 96.5566 196.235C95.4671 193.693 95.5869 188.828 97.9697 186.566ZM96.9974 197.063C99.1494 196.614 100.593 194.753 101.087 193.766C102.38 197.319 102.271 199.924 101.919 201.315C100.165 200.668 98.2609 199.121 96.9974 197.063ZM102.998 201.6C103.183 200.523 103.044 198.777 102.921 197.847C104.346 198.7 105.53 198.85 106.233 198.791C106.08 201.066 104.709 201.859 102.998 201.6Z" fill="#FFE100"/>
<path d="M130 187H188V113" stroke="#1A1A1A" stroke-width="2.19388" stroke-linecap="round" stroke-linejoin="round" stroke-dasharray="0.01 5.48"/>
<path d="M188 44C172.505 44 156 48.1307 156 55.566C156 63.0012 172.505 67.1319 188 67.1319C203.495 67.1319 220 63.0012 220 55.566C220 48.1307 203.495 44 188 44Z" fill="#52CB52"/>
<path d="M188 70.4309C178.063 70.4309 162.737 68.6134 156 62.5V81.9969C156 89.4322 172.505 93.5629 188 93.5629C203.495 93.5629 220 89.4322 220 81.9969V62.5C213.263 68.6134 197.937 70.4309 188 70.4309Z" fill="#52CB52"/>
<path d="M188 96.8684C178.063 96.8684 162.737 95.0509 156 88.9375V108.434C156 115.87 172.505 120 188 120C203.495 120 220 115.87 220 108.434V88.9375C213.263 95.0509 197.937 96.8684 188 96.8684Z" fill="#52CB52"/>
<defs>
<filter id="filter0_dd_2104_29031" x="30" y="138" width="126" height="126" filterUnits="userSpaceOnUse" color-interpolation-filters="sRGB">
<feFlood flood-opacity="0" result="BackgroundImageFix"/>
<feColorMatrix in="SourceAlpha" type="matrix" values="0 0 0 0 0 0 0 0 0 0 0 0 0 0 0 0 0 0 127 0" result="hardAlpha"/>
<feOffset dy="14"/>
<feGaussianBlur stdDeviation="15"/>
<feColorMatrix type="matrix" values="0 0 0 0 0 0 0 0 0 0 0 0 0 0 0 0 0 0 0.25 0"/>
<feBlend mode="normal" in2="BackgroundImageFix" result="effect1_dropShadow_2104_29031"/>
<feColorMatrix in="SourceAlpha" type="matrix" values="0 0 0 0 0 0 0 0 0 0 0 0 0 0 0 0 0 0 127 0" result="hardAlpha"/>
<feOffset dy="2"/>
<feGaussianBlur stdDeviation="5"/>
<feColorMatrix type="matrix" values="0 0 0 0 0 0 0 0 0 0 0 0 0 0 0 0 0 0 0.14 0"/>
<feBlend mode="normal" in2="effect1_dropShadow_2104_29031" result="effect2_dropShadow_2104_29031"/>
<feBlend mode="normal" in="SourceGraphic" in2="effect2_dropShadow_2104_29031" result="shape"/>
</filter>
<linearGradient id="paint0_linear_2104_29031" x1="56.0921" y1="214.327" x2="90.5868" y2="206.011" gradientUnits="userSpaceOnUse">
<stop stop-color="#FFEE99"/>
<stop offset="1" stop-color="#FFEE99" stop-opacity="0"/>
</linearGradient>
</defs>
</svg>
