<svg width="264" height="264" viewBox="0 0 264 264" fill="none" xmlns="http://www.w3.org/2000/svg">
<path d="M0 7.99999C0 3.58171 3.58172 0 8 0H264V264H7.99999C3.58171 264 0 260.418 0 256V7.99999Z" fill="#FBEFEF"/>
<path fill-rule="evenodd" clip-rule="evenodd" d="M191 103C183.13 103 176.75 109.38 176.75 117.25V123.996H172C170.895 123.996 170 124.892 170 125.996V151.996C170 153.101 170.895 153.996 172 153.996H210C211.105 153.996 212 153.101 212 151.996V125.996C212 124.892 211.105 123.996 210 123.996H205.25V117.25C205.25 109.38 198.87 103 191 103ZM199.25 123.996V117.25C199.25 112.694 195.556 109 191 109C186.444 109 182.75 112.694 182.75 117.25V123.996H199.25ZM195.5 138.996C195.5 141.481 193.485 143.496 191 143.496C188.515 143.496 186.5 141.481 186.5 138.996C186.5 136.511 188.515 134.496 191 134.496C193.485 134.496 195.5 136.511 195.5 138.996Z" fill="#F46666"/>
<g filter="url(#filter0_dd_2104_29033)">
<path d="M44 103C44 100.791 45.7909 99 48 99H106C108.209 99 110 100.791 110 103V161C110 163.209 108.209 165 106 165H48C45.7909 165 44 163.209 44 161V103Z" fill="#1C1C1C"/>
<path d="M44 103C44 100.791 45.7909 99 48 99H106C108.209 99 110 100.791 110 103V161C110 163.209 108.209 165 106 165H48C45.7909 165 44 163.209 44 161V103Z" fill="url(#paint0_linear_2104_29033)" fill-opacity="0.16"/>
</g>
<path fill-rule="evenodd" clip-rule="evenodd" d="M83.024 111.113C83.5364 111.371 83.7392 111.989 83.477 112.492C82.9593 113.487 82.6792 114.914 82.5721 116.381C82.4664 117.829 82.5368 119.199 82.645 120.005C82.7204 120.566 82.3189 121.081 81.7483 121.155C81.1777 121.229 80.654 120.834 80.5786 120.273C80.4513 119.325 80.3776 117.815 80.4931 116.234C80.6072 114.671 80.9137 112.918 81.6215 111.558C81.8837 111.054 82.5116 110.855 83.024 111.113Z" fill="#FFE100"/>
<path fill-rule="evenodd" clip-rule="evenodd" d="M74.1723 122.616C76.7037 117.247 82.8616 118.563 85.7698 120.498L77.7779 132.128L76.8606 131.518C75.696 132.846 73.3173 133.852 72.2736 134.189C72.3796 135.682 73.6534 136.833 74.2771 137.222L71.6515 141.043C68.5867 139.005 67.6915 136.09 67.6269 134.887L66.4894 134.826C64.4809 139.305 67.6304 142.776 69.5729 144.068L66.1814 149.003L66.7712 144.37C62.9482 141.146 63.6321 136.276 64.452 134.244C61.8182 133.73 57.2471 129.971 58.1058 126.776C59.601 121.214 69.4122 121.306 74.1723 122.616ZM76.9819 127.325C77.577 124.417 71.237 123.942 67.9858 124.069C65.9189 124.112 64.3237 124.35 63.1314 124.721C63.662 126.342 64.8923 127.148 65.4898 127.357C69.2595 126.514 74.1544 126.903 76.9819 127.325ZM76.744 128.092C74.7723 127.84 71.8342 127.775 70.3098 127.779C68.2399 129.169 67.9744 131.514 68.1505 132.985C70.9543 133.033 75.4983 131.111 76.744 128.092ZM67.2051 132.892C66.8268 130.76 68.0444 128.748 68.7916 127.929C64.9582 128.073 62.5415 129.143 61.3609 129.983C62.6242 131.343 64.7933 132.505 67.2051 132.892ZM60.6896 129.104C61.6372 128.534 63.335 128.01 64.2589 127.776C62.9233 126.793 62.3401 125.768 62.1339 125.104C60.0448 126.092 59.8079 127.638 60.6896 129.104Z" fill="#FFE100"/>
<path fill-rule="evenodd" clip-rule="evenodd" d="M95.6415 119.503C95.2072 119.131 94.5491 119.176 94.1715 119.603C93.4259 120.447 92.1842 121.234 90.8406 121.879C89.5144 122.515 88.1959 122.961 87.3949 123.163C86.8375 123.303 86.5013 123.861 86.6442 124.41C86.787 124.958 87.3547 125.289 87.9122 125.149C88.8541 124.911 90.3052 124.416 91.7542 123.721C93.1858 123.035 94.7248 122.102 95.7441 120.949C96.1217 120.522 96.0758 119.874 95.6415 119.503Z" fill="#FFE100"/>
<path fill-rule="evenodd" clip-rule="evenodd" d="M88.0936 131.874C92.2146 127.562 88.6781 122.431 85.77 120.496L77.7781 132.126L78.6953 132.736C77.8761 134.295 77.814 136.841 77.8853 137.919C76.4373 138.379 74.8766 137.645 74.2773 137.221L71.6517 141.042C74.7164 143.08 77.7997 142.811 78.9582 142.422L79.4393 143.438C75.9632 146.94 71.5155 145.358 69.5731 144.067L66.1816 149.002L70.3326 146.737C74.7974 149.026 79.1361 146.587 80.7474 145.081C82.2143 147.294 87.4634 150.066 90.1568 148.091C94.8463 144.654 91.1032 135.731 88.0936 131.874ZM82.6052 131.063C85.1261 129.436 87.9367 135.047 89.0288 138.063C89.7578 139.966 90.1284 141.511 90.2228 142.737C88.496 142.857 87.2771 142.034 86.8571 141.567C86.2476 137.811 84.0566 133.487 82.6052 131.063ZM81.9697 131.566C82.9421 133.273 84.0982 135.931 84.6627 137.324C84.1228 139.732 82.0104 140.848 80.5566 141.235C79.4671 138.693 79.5869 133.828 81.9697 131.566ZM80.9974 142.063C83.1494 141.614 84.593 139.753 85.0869 138.766C86.3797 142.319 86.2709 144.924 85.9185 146.315C84.1654 145.668 82.2609 144.121 80.9974 142.063ZM86.9984 146.6C87.1826 145.523 87.0442 143.777 86.9211 142.847C88.3455 143.7 89.5302 143.85 90.2331 143.791C90.0799 146.066 88.7094 146.859 86.9984 146.6Z" fill="#FFE100"/>
<rect x="166.391" y="44.3913" width="49.2174" height="23.2174" rx="2.73913" fill="white" stroke="#1A1A1A" stroke-width="0.782609"/>
<path d="M177.717 60.13C179.397 60.13 180.557 59.27 180.557 57.96V57.86C180.557 56.68 179.707 56.07 178.017 55.78C176.607 55.55 176.407 55.29 176.407 54.85V54.79C176.407 54.29 176.797 53.93 177.577 53.93C178.377 53.93 178.867 54.27 178.977 54.9H180.437C180.267 53.51 179.207 52.77 177.607 52.77C176.017 52.77 174.927 53.62 174.927 54.86V54.96C174.927 56.07 175.597 56.68 177.317 57C178.647 57.25 179.077 57.52 179.077 58.01V58.1C179.077 58.65 178.477 58.95 177.747 58.95C176.857 58.95 176.277 58.59 176.147 57.83H174.687C174.827 59.27 175.907 60.13 177.717 60.13ZM183.691 61.7L186.271 54.84H184.841L183.661 58.44L182.441 54.84H180.951L182.921 59.95L182.251 61.7H183.691ZM188.981 60.13C190.361 60.13 191.241 59.45 191.241 58.43C191.241 57.53 190.651 57.08 189.261 56.86C188.371 56.72 188.111 56.55 188.111 56.23C188.111 55.89 188.421 55.69 188.911 55.69C189.421 55.69 189.771 55.93 189.831 56.37H191.151C191.051 55.32 190.251 54.71 188.921 54.71C187.661 54.71 186.771 55.35 186.771 56.32C186.771 57.25 187.381 57.67 188.711 57.89C189.631 58.05 189.871 58.24 189.871 58.56C189.871 58.93 189.511 59.13 188.981 59.13C188.411 59.13 188.021 58.87 187.941 58.37H186.611C186.701 59.48 187.531 60.13 188.981 60.13ZM194.574 60.13C195.924 60.13 196.814 59.39 196.974 58.16H195.604C195.494 58.68 195.214 59.03 194.554 59.03C193.784 59.03 193.434 58.48 193.434 57.48V57.35C193.434 56.36 193.784 55.81 194.554 55.81C195.214 55.81 195.484 56.15 195.594 56.67H196.974C196.804 55.45 195.924 54.71 194.574 54.71C192.964 54.71 191.994 55.77 191.994 57.35V57.48C191.994 59.06 192.964 60.13 194.574 60.13ZM199.455 60.13C200.215 60.13 200.805 59.77 201.125 59.2L201.175 60H202.465V56.48C202.465 55.4 201.645 54.71 200.255 54.71C198.915 54.71 198.045 55.31 197.925 56.34H199.245C199.335 55.96 199.655 55.77 200.225 55.77C200.835 55.77 201.115 56.03 201.115 56.46V56.76L199.215 57.03C198.275 57.16 197.715 57.68 197.715 58.56C197.715 59.47 198.415 60.13 199.455 60.13ZM199.875 59.08C199.365 59.08 199.065 58.86 199.065 58.49C199.065 58.13 199.285 57.95 199.715 57.89L201.115 57.7V58.11C201.115 58.68 200.555 59.08 199.875 59.08ZM205.196 60V52.48H203.796V60H205.196ZM207.98 60V52.48H206.58V60H207.98Z" fill="#1A1A1A"/>
<path d="M173 191L173 220.082" stroke="#1A1A1A" stroke-width="3" stroke-linecap="round"/>
<path d="M183.778 193H173V218H206.629C207.939 218 209 216.939 209 215.629V200.1C209 198.791 207.939 197.73 206.629 197.73H190.368C189.726 197.73 189.112 197.47 188.665 197.009L185.48 193.721C185.034 193.26 184.42 193 183.778 193Z" fill="#1A1A1A"/>
<path d="M182.043 211.13C183.303 211.13 184.163 210.48 184.413 209.44H183.323C183.163 209.93 182.753 210.25 182.043 210.25C181.153 210.25 180.633 209.7 180.583 208.66H184.443C184.533 206.89 183.713 205.73 182.033 205.73C180.473 205.73 179.513 206.79 179.513 208.35V208.5C179.513 210.06 180.453 211.13 182.043 211.13ZM180.613 207.88C180.733 207.04 181.213 206.59 182.033 206.59C182.823 206.59 183.263 207.08 183.333 207.88H180.613ZM187.606 211.13C187.866 211.13 188.216 211.07 188.446 211.01V210.13C188.296 210.18 188.036 210.23 187.816 210.23C187.206 210.23 187.016 210 187.016 209.49V206.68H188.416V205.85H187.016V204.24H185.916V205.85H184.916V206.68H185.916V209.61C185.916 210.61 186.476 211.13 187.606 211.13ZM190.688 211V208.12C190.688 207.2 191.198 206.64 191.958 206.64C192.708 206.64 193.018 207.11 193.018 207.95V211H194.108V207.68C194.108 206.51 193.578 205.73 192.328 205.73C191.508 205.73 190.978 206.13 190.698 206.64V203.48H189.588V211H190.688ZM197.875 211.13C199.625 211.13 200.485 209.76 200.485 207.55V207.35C200.485 205.16 199.615 203.77 197.875 203.77C196.165 203.77 195.275 205.16 195.275 207.35V207.55C195.275 209.76 196.165 211.13 197.875 211.13ZM197.875 210.17C196.895 210.17 196.465 209.34 196.465 207.6V207.3C196.465 205.57 196.895 204.73 197.875 204.73C198.885 204.73 199.295 205.57 199.295 207.3V207.6C199.295 209.34 198.885 210.17 197.875 210.17Z" fill="white"/>
<path d="M115 132L164 132" stroke="#1A1A1A" stroke-width="2.19388" stroke-linecap="round" stroke-linejoin="round" stroke-dasharray="0.01 5.48"/>
<path d="M191 72L191 98" stroke="#1A1A1A" stroke-width="2.19388" stroke-linecap="round" stroke-linejoin="round" stroke-dasharray="0.01 5.48"/>
<path d="M191 159L191 191" stroke="#1A1A1A" stroke-width="2.19388" stroke-linecap="round" stroke-linejoin="round" stroke-dasharray="0.01 5.48"/>
<defs>
<filter id="filter0_dd_2104_29033" x="14" y="83" width="126" height="126" filterUnits="userSpaceOnUse" color-interpolation-filters="sRGB">
<feFlood flood-opacity="0" result="BackgroundImageFix"/>
<feColorMatrix in="SourceAlpha" type="matrix" values="0 0 0 0 0 0 0 0 0 0 0 0 0 0 0 0 0 0 127 0" result="hardAlpha"/>
<feOffset dy="14"/>
<feGaussianBlur stdDeviation="15"/>
<feColorMatrix type="matrix" values="0 0 0 0 0 0 0 0 0 0 0 0 0 0 0 0 0 0 0.25 0"/>
<feBlend mode="normal" in2="BackgroundImageFix" result="effect1_dropShadow_2104_29033"/>
<feColorMatrix in="SourceAlpha" type="matrix" values="0 0 0 0 0 0 0 0 0 0 0 0 0 0 0 0 0 0 127 0" result="hardAlpha"/>
<feOffset dy="2"/>
<feGaussianBlur stdDeviation="5"/>
<feColorMatrix type="matrix" values="0 0 0 0 0 0 0 0 0 0 0 0 0 0 0 0 0 0 0.14 0"/>
<feBlend mode="normal" in2="effect1_dropShadow_2104_29033" result="effect2_dropShadow_2104_29033"/>
<feBlend mode="normal" in="SourceGraphic" in2="effect2_dropShadow_2104_29033" result="shape"/>
</filter>
<linearGradient id="paint0_linear_2104_29033" x1="40.0921" y1="159.327" x2="74.5868" y2="151.011" gradientUnits="userSpaceOnUse">
<stop stop-color="#FFEE99"/>
<stop offset="1" stop-color="#FFEE99" stop-opacity="0"/>
</linearGradient>
</defs>
</svg>
