<svg width="264" height="264" viewBox="0 0 264 264" fill="none" xmlns="http://www.w3.org/2000/svg">
<path d="M0 7.99999C0 3.58171 3.58172 0 8 0H264V264H7.99999C3.58171 264 0 260.418 0 256V7.99999Z" fill="#E7F6FE"/>
<rect x="168.391" y="147.391" width="51.2174" height="51.2174" rx="2.73913" fill="white" stroke="#1A1A1A" stroke-width="0.782609"/>
<path d="M180.027 161.48V159.1L180.667 158.39L182.777 161.48H184.467L181.647 157.42L184.357 154.38H182.657L180.027 157.4V154.38H178.547V161.48H180.027ZM187.117 161.61C188.447 161.61 189.347 160.95 189.597 159.91H188.207C188.077 160.27 187.737 160.54 187.117 160.54C186.347 160.54 185.897 160.1 185.837 159.2H189.627C189.717 157.4 188.857 156.19 187.117 156.19C185.497 156.19 184.487 157.26 184.487 158.83V158.96C184.487 160.55 185.477 161.61 187.117 161.61ZM185.857 158.32C185.987 157.59 186.397 157.23 187.107 157.23C187.787 157.23 188.157 157.65 188.227 158.32H185.857ZM192.162 161.48V158.99C192.162 158.08 192.652 157.58 193.582 157.58C193.712 157.58 193.872 157.59 193.972 157.6V156.26C193.882 156.24 193.762 156.23 193.662 156.23C192.902 156.23 192.392 156.7 192.142 157.33L192.102 156.32H190.762V161.48H192.162ZM196.332 161.48V158.62C196.332 157.8 196.772 157.32 197.422 157.32C198.092 157.32 198.352 157.76 198.352 158.51V161.48H199.742V158.16C199.742 157 199.232 156.19 197.952 156.19C197.092 156.19 196.572 156.64 196.322 157.12L196.282 156.32H194.932V161.48H196.332ZM203.455 161.61C204.785 161.61 205.685 160.95 205.935 159.91H204.545C204.415 160.27 204.075 160.54 203.455 160.54C202.685 160.54 202.235 160.1 202.175 159.2H205.965C206.055 157.4 205.195 156.19 203.455 156.19C201.835 156.19 200.825 157.26 200.825 158.83V158.96C200.825 160.55 201.815 161.61 203.455 161.61ZM202.195 158.32C202.325 157.59 202.735 157.23 203.445 157.23C204.125 157.23 204.495 157.65 204.565 158.32H202.195ZM208.5 161.48V153.96H207.1V161.48H208.5Z" fill="#1A1A1A"/>
<g filter="url(#filter0_dd_2104_29032)">
<path d="M158 171.13C158 169.402 159.402 168 161.13 168H206.87C208.598 168 210 169.402 210 171.13V216.87C210 218.598 208.598 220 206.87 220H161.13C159.402 220 158 218.598 158 216.87V171.13Z" fill="#1C1C1C"/>
<path d="M158 171.13C158 169.402 159.402 168 161.13 168H206.87C208.598 168 210 169.402 210 171.13V216.87C210 218.598 208.598 220 206.87 220H161.13C159.402 220 158 218.598 158 216.87V171.13Z" fill="url(#paint0_linear_2104_29032)" fill-opacity="0.16"/>
</g>
<path fill-rule="evenodd" clip-rule="evenodd" d="M188.756 178.089C189.161 178.293 189.321 178.781 189.114 179.178C188.705 179.964 188.484 181.09 188.4 182.248C188.316 183.391 188.372 184.473 188.457 185.109C188.517 185.553 188.2 185.959 187.749 186.017C187.299 186.076 186.885 185.764 186.826 185.321C186.725 184.572 186.667 183.381 186.758 182.132C186.848 180.898 187.09 179.515 187.649 178.441C187.856 178.043 188.352 177.886 188.756 178.089Z" fill="#FFE100"/>
<path fill-rule="evenodd" clip-rule="evenodd" d="M181.767 187.171C183.766 182.932 188.627 183.971 190.923 185.498L184.614 194.68L183.89 194.198C182.97 195.247 181.092 196.041 180.268 196.307C180.352 197.485 181.358 198.394 181.85 198.702L179.777 201.718C177.358 200.109 176.651 197.807 176.6 196.858L175.702 196.81C174.116 200.346 176.603 203.086 178.136 204.106L175.459 208.002L175.924 204.344C172.906 201.8 173.446 197.955 174.094 196.351C172.014 195.944 168.406 192.977 169.084 190.455C170.264 186.064 178.009 186.136 181.767 187.171ZM183.985 190.888C184.455 188.592 179.45 188.217 176.883 188.317C175.252 188.352 173.992 188.539 173.051 188.832C173.47 190.112 174.441 190.748 174.913 190.914C177.889 190.248 181.753 190.555 183.985 190.888ZM183.798 191.494C182.241 191.295 179.922 191.244 178.718 191.247C177.084 192.344 176.874 194.195 177.013 195.357C179.227 195.394 182.814 193.877 183.798 191.494ZM176.267 195.283C175.968 193.6 176.93 192.012 177.52 191.365C174.493 191.479 172.585 192.324 171.653 192.987C172.651 194.06 174.363 194.977 176.267 195.283ZM171.123 192.292C171.871 191.843 173.212 191.429 173.941 191.244C172.887 190.468 172.426 189.659 172.264 189.135C170.614 189.914 170.427 191.135 171.123 192.292Z" fill="#FFE100"/>
<path fill-rule="evenodd" clip-rule="evenodd" d="M198.717 184.713C198.374 184.419 197.854 184.455 197.556 184.792C196.968 185.458 195.987 186.079 194.927 186.588C193.88 187.09 192.839 187.443 192.207 187.602C191.766 187.713 191.501 188.153 191.614 188.586C191.727 189.019 192.175 189.28 192.615 189.17C193.358 188.982 194.504 188.591 195.648 188.043C196.778 187.501 197.993 186.764 198.798 185.854C199.096 185.517 199.06 185.006 198.717 184.713Z" fill="#FFE100"/>
<path fill-rule="evenodd" clip-rule="evenodd" d="M192.758 194.479C196.011 191.075 193.219 187.024 190.923 185.497L184.614 194.678L185.338 195.16C184.691 196.39 184.642 198.401 184.699 199.252C183.555 199.615 182.323 199.035 181.85 198.7L179.777 201.717C182.197 203.326 184.631 203.114 185.546 202.806L185.925 203.608C183.181 206.373 179.67 205.125 178.136 204.105L175.459 208.001L178.736 206.213C182.261 208.02 185.686 206.094 186.958 204.905C188.116 206.652 192.26 208.841 194.386 207.282C198.089 204.568 195.134 197.524 192.758 194.479ZM188.425 193.839C190.415 192.555 192.634 196.984 193.496 199.365C194.071 200.867 194.364 202.087 194.438 203.055C193.075 203.15 192.113 202.5 191.781 202.131C191.3 199.166 189.571 195.753 188.425 193.839ZM187.923 194.236C188.691 195.583 189.603 197.682 190.049 198.782C189.623 200.682 187.955 201.563 186.807 201.87C185.947 199.863 186.042 196.022 187.923 194.236ZM187.155 202.523C188.854 202.169 189.994 200.699 190.384 199.92C191.404 202.725 191.319 204.782 191.04 205.88C189.656 205.369 188.153 204.148 187.155 202.523ZM191.893 206.105C192.038 205.254 191.929 203.876 191.832 203.142C192.956 203.815 193.892 203.934 194.447 203.887C194.326 205.683 193.244 206.309 191.893 206.105Z" fill="#FFE100"/>
<rect x="168.391" y="44.3913" width="51.2174" height="51.2174" rx="2.73913" fill="white" stroke="#1A1A1A" stroke-width="0.782609"/>
<path d="M176.189 58.4805V55.9605H177.729C179.209 55.9605 180.299 55.1905 180.299 53.7305V53.6105C180.299 52.1605 179.199 51.3805 177.729 51.3805H174.719V58.4805H176.189ZM176.189 52.6005H177.579C178.279 52.6005 178.779 52.9005 178.779 53.6105V53.7305C178.779 54.4305 178.279 54.7405 177.579 54.7405H176.189V52.6005ZM182.69 58.4805V55.9905C182.69 55.0805 183.18 54.5805 184.11 54.5805C184.24 54.5805 184.4 54.5905 184.5 54.6005V53.2605C184.41 53.2405 184.29 53.2305 184.19 53.2305C183.43 53.2305 182.92 53.7005 182.67 54.3305L182.63 53.3205H181.29V58.4805H182.69ZM187.674 58.6105C189.274 58.6105 190.324 57.5305 190.324 55.9605V55.8405C190.324 54.2705 189.274 53.1905 187.674 53.1905C186.074 53.1905 185.024 54.2705 185.024 55.8305V55.9605C185.024 57.5305 186.074 58.6105 187.674 58.6105ZM187.674 57.5205C186.854 57.5205 186.444 56.9705 186.444 55.9605V55.8305C186.444 54.8305 186.854 54.2805 187.674 54.2805C188.494 54.2805 188.904 54.8305 188.904 55.8405V55.9605C188.904 56.9705 188.494 57.5205 187.674 57.5205ZM193.786 58.6105C195.136 58.6105 196.026 57.8705 196.186 56.6405H194.816C194.706 57.1605 194.426 57.5105 193.766 57.5105C192.996 57.5105 192.646 56.9605 192.646 55.9605V55.8305C192.646 54.8405 192.996 54.2905 193.766 54.2905C194.426 54.2905 194.696 54.6305 194.806 55.1505H196.186C196.016 53.9305 195.136 53.1905 193.786 53.1905C192.176 53.1905 191.206 54.2505 191.206 55.8305V55.9605C191.206 57.5405 192.176 58.6105 193.786 58.6105ZM199.607 58.6105C200.937 58.6105 201.837 57.9505 202.087 56.9105H200.697C200.567 57.2705 200.227 57.5405 199.607 57.5405C198.837 57.5405 198.387 57.1005 198.327 56.2005H202.117C202.207 54.4005 201.347 53.1905 199.607 53.1905C197.987 53.1905 196.977 54.2605 196.977 55.8305V55.9605C196.977 57.5505 197.967 58.6105 199.607 58.6105ZM198.347 55.3205C198.477 54.5905 198.887 54.2305 199.597 54.2305C200.277 54.2305 200.647 54.6505 200.717 55.3205H198.347ZM205.166 58.6105C206.546 58.6105 207.426 57.9305 207.426 56.9105C207.426 56.0105 206.836 55.5605 205.446 55.3405C204.556 55.2005 204.296 55.0305 204.296 54.7105C204.296 54.3705 204.606 54.1705 205.096 54.1705C205.606 54.1705 205.956 54.4105 206.016 54.8505H207.336C207.236 53.8005 206.436 53.1905 205.106 53.1905C203.846 53.1905 202.956 53.8305 202.956 54.8005C202.956 55.7305 203.566 56.1505 204.896 56.3705C205.816 56.5305 206.056 56.7205 206.056 57.0405C206.056 57.4105 205.696 57.6105 205.166 57.6105C204.596 57.6105 204.206 57.3505 204.126 56.8505H202.796C202.886 57.9605 203.716 58.6105 205.166 58.6105ZM210.361 58.6105C211.741 58.6105 212.621 57.9305 212.621 56.9105C212.621 56.0105 212.031 55.5605 210.641 55.3405C209.751 55.2005 209.491 55.0305 209.491 54.7105C209.491 54.3705 209.801 54.1705 210.291 54.1705C210.801 54.1705 211.151 54.4105 211.211 54.8505H212.531C212.431 53.8005 211.631 53.1905 210.301 53.1905C209.041 53.1905 208.151 53.8305 208.151 54.8005C208.151 55.7305 208.761 56.1505 210.091 56.3705C211.011 56.5305 211.251 56.7205 211.251 57.0405C211.251 57.4105 210.891 57.6105 210.361 57.6105C209.791 57.6105 209.401 57.3505 209.321 56.8505H207.991C208.081 57.9605 208.911 58.6105 210.361 58.6105Z" fill="#1A1A1A"/>
<g filter="url(#filter1_dd_2104_29032)">
<path d="M158 68.1304C158 66.4015 159.402 65 161.13 65H206.87C208.598 65 210 66.4015 210 68.1304V113.87C210 115.598 208.598 117 206.87 117H161.13C159.402 117 158 115.598 158 113.87V68.1304Z" fill="#1C1C1C"/>
<path d="M158 68.1304C158 66.4015 159.402 65 161.13 65H206.87C208.598 65 210 66.4015 210 68.1304V113.87C210 115.598 208.598 117 206.87 117H161.13C159.402 117 158 115.598 158 113.87V68.1304Z" fill="url(#paint1_linear_2104_29032)" fill-opacity="0.16"/>
</g>
<path fill-rule="evenodd" clip-rule="evenodd" d="M188.756 75.0894C189.161 75.293 189.321 75.7806 189.114 76.1784C188.705 76.9639 188.484 78.0904 188.4 79.2484C188.316 80.3913 188.372 81.4729 188.457 82.1095C188.517 82.5525 188.2 82.9591 187.749 83.0175C187.299 83.0759 186.885 82.764 186.826 82.3209C186.725 81.5723 186.667 80.3808 186.758 79.132C186.848 77.8983 187.09 76.5147 187.649 75.4408C187.856 75.043 188.352 74.8857 188.756 75.0894Z" fill="#FFE100"/>
<path fill-rule="evenodd" clip-rule="evenodd" d="M181.767 84.1707C183.766 79.9321 188.627 80.9713 190.923 82.4983L184.614 91.6797L183.89 91.1981C182.97 92.2469 181.092 93.0408 180.268 93.3067C180.352 94.4855 181.358 95.3944 181.85 95.7015L179.777 98.7179C177.358 97.1088 176.651 94.8075 176.6 93.858L175.702 93.81C174.116 97.3458 176.603 100.086 178.136 101.106L175.459 105.002L175.924 101.344C172.906 98.7996 173.446 94.955 174.094 93.3507C172.014 92.9445 168.406 89.9769 169.084 87.4548C170.264 83.0636 178.009 83.1364 181.767 84.1707ZM183.985 87.8879C184.455 85.5924 179.45 85.2174 176.883 85.3174C175.252 85.3519 173.992 85.5393 173.051 85.8321C173.47 87.1119 174.441 87.7483 174.913 87.9135C177.889 87.2479 181.753 87.555 183.985 87.8879ZM183.798 88.494C182.241 88.2951 179.922 88.2438 178.718 88.2468C177.084 89.3443 176.874 91.195 177.013 92.3568C179.227 92.3942 182.814 90.8768 183.798 88.494ZM176.267 92.2828C175.968 90.5997 176.93 89.0117 177.52 88.3653C174.493 88.4789 172.585 89.3237 171.653 89.9868C172.651 91.0601 174.363 91.9775 176.267 92.2828ZM171.123 89.2924C171.871 88.8426 173.212 88.4289 173.941 88.2439C172.887 87.4682 172.426 86.6586 172.264 86.1346C170.614 86.9144 170.427 88.1353 171.123 89.2924Z" fill="#FFE100"/>
<path fill-rule="evenodd" clip-rule="evenodd" d="M198.717 81.7126C198.374 81.4193 197.854 81.4548 197.556 81.792C196.968 82.4578 195.987 83.0794 194.927 83.5881C193.88 84.0902 192.839 84.4425 192.207 84.6017C191.766 84.7125 191.501 85.1533 191.614 85.5863C191.727 86.0193 192.175 86.2804 192.615 86.1696C193.358 85.9824 194.504 85.5915 195.648 85.0429C196.778 84.5009 197.993 83.7645 198.798 82.8542C199.096 82.5171 199.06 82.0059 198.717 81.7126Z" fill="#FFE100"/>
<path fill-rule="evenodd" clip-rule="evenodd" d="M192.758 91.4789C196.011 88.0749 193.219 84.024 190.923 82.4971L184.614 91.6785L185.338 92.1601C184.691 93.3903 184.642 95.4005 184.699 96.2519C183.555 96.6148 182.323 96.0354 181.85 95.7003L179.777 98.7167C182.197 100.326 184.631 100.114 185.546 99.8062L185.925 100.608C183.181 103.373 179.67 102.125 178.136 101.105L175.459 105.001L178.736 103.213C182.261 105.02 185.686 103.094 186.958 101.905C188.116 103.652 192.26 105.841 194.386 104.282C198.089 101.568 195.134 94.5242 192.758 91.4789ZM188.425 90.8392C190.415 89.5548 192.634 93.9845 193.496 96.365C194.071 97.8675 194.364 99.087 194.438 100.055C193.075 100.15 192.113 99.5004 191.781 99.1313C191.3 96.1663 189.571 92.7529 188.425 90.8392ZM187.923 91.2364C188.691 92.5834 189.603 94.6818 190.049 95.7816C189.623 97.6825 187.955 98.5635 186.807 98.8695C185.947 96.8627 186.042 93.0222 187.923 91.2364ZM187.155 99.5233C188.854 99.1687 189.994 97.6994 190.384 96.92C191.404 99.7252 191.319 101.782 191.04 102.88C189.656 102.369 188.153 101.148 187.155 99.5233ZM191.893 103.105C192.038 102.254 191.929 100.876 191.832 100.142C192.956 100.815 193.892 100.934 194.447 100.887C194.326 102.683 193.244 103.309 191.893 103.105Z" fill="#FFE100"/>
<rect x="168.391" y="44.3913" width="51.2174" height="51.2174" rx="2.73913" fill="white" stroke="#1A1A1A" stroke-width="0.782609"/>
<path d="M176.189 58.4805V55.9605H177.729C179.209 55.9605 180.299 55.1905 180.299 53.7305V53.6105C180.299 52.1605 179.199 51.3805 177.729 51.3805H174.719V58.4805H176.189ZM176.189 52.6005H177.579C178.279 52.6005 178.779 52.9005 178.779 53.6105V53.7305C178.779 54.4305 178.279 54.7405 177.579 54.7405H176.189V52.6005ZM182.69 58.4805V55.9905C182.69 55.0805 183.18 54.5805 184.11 54.5805C184.24 54.5805 184.4 54.5905 184.5 54.6005V53.2605C184.41 53.2405 184.29 53.2305 184.19 53.2305C183.43 53.2305 182.92 53.7005 182.67 54.3305L182.63 53.3205H181.29V58.4805H182.69ZM187.674 58.6105C189.274 58.6105 190.324 57.5305 190.324 55.9605V55.8405C190.324 54.2705 189.274 53.1905 187.674 53.1905C186.074 53.1905 185.024 54.2705 185.024 55.8305V55.9605C185.024 57.5305 186.074 58.6105 187.674 58.6105ZM187.674 57.5205C186.854 57.5205 186.444 56.9705 186.444 55.9605V55.8305C186.444 54.8305 186.854 54.2805 187.674 54.2805C188.494 54.2805 188.904 54.8305 188.904 55.8405V55.9605C188.904 56.9705 188.494 57.5205 187.674 57.5205ZM193.786 58.6105C195.136 58.6105 196.026 57.8705 196.186 56.6405H194.816C194.706 57.1605 194.426 57.5105 193.766 57.5105C192.996 57.5105 192.646 56.9605 192.646 55.9605V55.8305C192.646 54.8405 192.996 54.2905 193.766 54.2905C194.426 54.2905 194.696 54.6305 194.806 55.1505H196.186C196.016 53.9305 195.136 53.1905 193.786 53.1905C192.176 53.1905 191.206 54.2505 191.206 55.8305V55.9605C191.206 57.5405 192.176 58.6105 193.786 58.6105ZM199.607 58.6105C200.937 58.6105 201.837 57.9505 202.087 56.9105H200.697C200.567 57.2705 200.227 57.5405 199.607 57.5405C198.837 57.5405 198.387 57.1005 198.327 56.2005H202.117C202.207 54.4005 201.347 53.1905 199.607 53.1905C197.987 53.1905 196.977 54.2605 196.977 55.8305V55.9605C196.977 57.5505 197.967 58.6105 199.607 58.6105ZM198.347 55.3205C198.477 54.5905 198.887 54.2305 199.597 54.2305C200.277 54.2305 200.647 54.6505 200.717 55.3205H198.347ZM205.166 58.6105C206.546 58.6105 207.426 57.9305 207.426 56.9105C207.426 56.0105 206.836 55.5605 205.446 55.3405C204.556 55.2005 204.296 55.0305 204.296 54.7105C204.296 54.3705 204.606 54.1705 205.096 54.1705C205.606 54.1705 205.956 54.4105 206.016 54.8505H207.336C207.236 53.8005 206.436 53.1905 205.106 53.1905C203.846 53.1905 202.956 53.8305 202.956 54.8005C202.956 55.7305 203.566 56.1505 204.896 56.3705C205.816 56.5305 206.056 56.7205 206.056 57.0405C206.056 57.4105 205.696 57.6105 205.166 57.6105C204.596 57.6105 204.206 57.3505 204.126 56.8505H202.796C202.886 57.9605 203.716 58.6105 205.166 58.6105ZM210.361 58.6105C211.741 58.6105 212.621 57.9305 212.621 56.9105C212.621 56.0105 212.031 55.5605 210.641 55.3405C209.751 55.2005 209.491 55.0305 209.491 54.7105C209.491 54.3705 209.801 54.1705 210.291 54.1705C210.801 54.1705 211.151 54.4105 211.211 54.8505H212.531C212.431 53.8005 211.631 53.1905 210.301 53.1905C209.041 53.1905 208.151 53.8305 208.151 54.8005C208.151 55.7305 208.761 56.1505 210.091 56.3705C211.011 56.5305 211.251 56.7205 211.251 57.0405C211.251 57.4105 210.891 57.6105 210.361 57.6105C209.791 57.6105 209.401 57.3505 209.321 56.8505H207.991C208.081 57.9605 208.911 58.6105 210.361 58.6105Z" fill="#1A1A1A"/>
<g filter="url(#filter2_dd_2104_29032)">
<path d="M158 68.1304C158 66.4015 159.402 65 161.13 65H206.87C208.598 65 210 66.4015 210 68.1304V113.87C210 115.598 208.598 117 206.87 117H161.13C159.402 117 158 115.598 158 113.87V68.1304Z" fill="#1C1C1C"/>
<path d="M158 68.1304C158 66.4015 159.402 65 161.13 65H206.87C208.598 65 210 66.4015 210 68.1304V113.87C210 115.598 208.598 117 206.87 117H161.13C159.402 117 158 115.598 158 113.87V68.1304Z" fill="url(#paint2_linear_2104_29032)" fill-opacity="0.16"/>
</g>
<path fill-rule="evenodd" clip-rule="evenodd" d="M188.756 75.0894C189.161 75.293 189.321 75.7806 189.114 76.1784C188.705 76.9639 188.484 78.0904 188.4 79.2484C188.316 80.3913 188.372 81.4729 188.457 82.1095C188.517 82.5525 188.2 82.9591 187.749 83.0175C187.299 83.0759 186.885 82.764 186.826 82.3209C186.725 81.5723 186.667 80.3808 186.758 79.132C186.848 77.8983 187.09 76.5147 187.649 75.4408C187.856 75.043 188.352 74.8857 188.756 75.0894Z" fill="#FFE100"/>
<path fill-rule="evenodd" clip-rule="evenodd" d="M181.767 84.1707C183.766 79.9321 188.627 80.9713 190.923 82.4983L184.614 91.6797L183.89 91.1981C182.97 92.2469 181.092 93.0408 180.268 93.3067C180.352 94.4855 181.358 95.3944 181.85 95.7015L179.777 98.7179C177.358 97.1088 176.651 94.8075 176.6 93.858L175.702 93.81C174.116 97.3458 176.603 100.086 178.136 101.106L175.459 105.002L175.924 101.344C172.906 98.7996 173.446 94.955 174.094 93.3507C172.014 92.9445 168.406 89.9769 169.084 87.4548C170.264 83.0636 178.009 83.1364 181.767 84.1707ZM183.985 87.8879C184.455 85.5924 179.45 85.2174 176.883 85.3174C175.252 85.3519 173.992 85.5393 173.051 85.8321C173.47 87.1119 174.441 87.7483 174.913 87.9135C177.889 87.2479 181.753 87.555 183.985 87.8879ZM183.798 88.494C182.241 88.2951 179.922 88.2438 178.718 88.2468C177.084 89.3443 176.874 91.195 177.013 92.3568C179.227 92.3942 182.814 90.8768 183.798 88.494ZM176.267 92.2828C175.968 90.5997 176.93 89.0117 177.52 88.3653C174.493 88.4789 172.585 89.3237 171.653 89.9868C172.651 91.0601 174.363 91.9775 176.267 92.2828ZM171.123 89.2924C171.871 88.8426 173.212 88.4289 173.941 88.2439C172.887 87.4682 172.426 86.6586 172.264 86.1346C170.614 86.9144 170.427 88.1353 171.123 89.2924Z" fill="#FFE100"/>
<path fill-rule="evenodd" clip-rule="evenodd" d="M198.717 81.7126C198.374 81.4193 197.854 81.4548 197.556 81.792C196.968 82.4578 195.987 83.0794 194.927 83.5881C193.88 84.0902 192.839 84.4425 192.207 84.6017C191.766 84.7125 191.501 85.1533 191.614 85.5863C191.727 86.0193 192.175 86.2804 192.615 86.1696C193.358 85.9824 194.504 85.5915 195.648 85.0429C196.778 84.5009 197.993 83.7645 198.798 82.8542C199.096 82.5171 199.06 82.0059 198.717 81.7126Z" fill="#FFE100"/>
<path fill-rule="evenodd" clip-rule="evenodd" d="M192.758 91.4789C196.011 88.0749 193.219 84.024 190.923 82.4971L184.614 91.6785L185.338 92.1601C184.691 93.3903 184.642 95.4005 184.699 96.2519C183.555 96.6148 182.323 96.0354 181.85 95.7003L179.777 98.7167C182.197 100.326 184.631 100.114 185.546 99.8062L185.925 100.608C183.181 103.373 179.67 102.125 178.136 101.105L175.459 105.001L178.736 103.213C182.261 105.02 185.686 103.094 186.958 101.905C188.116 103.652 192.26 105.841 194.386 104.282C198.089 101.568 195.134 94.5242 192.758 91.4789ZM188.425 90.8392C190.415 89.5548 192.634 93.9845 193.496 96.365C194.071 97.8675 194.364 99.087 194.438 100.055C193.075 100.15 192.113 99.5004 191.781 99.1313C191.3 96.1663 189.571 92.7529 188.425 90.8392ZM187.923 91.2364C188.691 92.5834 189.603 94.6818 190.049 95.7816C189.623 97.6825 187.955 98.5635 186.807 98.8695C185.947 96.8627 186.042 93.0222 187.923 91.2364ZM187.155 99.5233C188.854 99.1687 189.994 97.6994 190.384 96.92C191.404 99.7252 191.319 101.782 191.04 102.88C189.656 102.369 188.153 101.148 187.155 99.5233ZM191.893 103.105C192.038 102.254 191.929 100.876 191.832 100.142C192.956 100.815 193.892 100.934 194.447 100.887C194.326 102.683 193.244 103.309 191.893 103.105Z" fill="#FFE100"/>
<path d="M70 158.819L70 194L128.971 194L128.971 90L153 90" stroke="#1A1A1A" stroke-width="2.19388" stroke-linecap="round" stroke-linejoin="round" stroke-dasharray="0.01 5.48"/>
<path d="M134 194L154 194" stroke="#1A1A1A" stroke-width="2.19388" stroke-linecap="round" stroke-linejoin="round" stroke-dasharray="0.01 5.48"/>
<path d="M70 90C57.4105 90 44 93.4242 44 99.5876C44 105.751 57.4105 109.175 70 109.175C82.5895 109.175 96 105.751 96 99.5876C96 93.4242 82.5895 90 70 90Z" fill="#00ACE5"/>
<path d="M70 111.91C61.9263 111.91 49.4737 110.404 44 105.336V121.498C44 127.661 57.4105 131.086 70 131.086C82.5895 131.086 96 127.661 96 121.498V105.336C90.5263 110.404 78.0737 111.91 70 111.91Z" fill="#00ACE5"/>
<path d="M70 133.824C61.9263 133.824 49.4737 132.318 44 127.25V143.412C44 149.576 57.4105 153 70 153C82.5895 153 96 149.576 96 143.412V127.25C90.5263 132.318 78.0737 133.824 70 133.824Z" fill="#00ACE5"/>
<defs>
<filter id="filter0_dd_2104_29032" x="134.522" y="155.478" width="98.9565" height="98.9565" filterUnits="userSpaceOnUse" color-interpolation-filters="sRGB">
<feFlood flood-opacity="0" result="BackgroundImageFix"/>
<feColorMatrix in="SourceAlpha" type="matrix" values="0 0 0 0 0 0 0 0 0 0 0 0 0 0 0 0 0 0 127 0" result="hardAlpha"/>
<feOffset dy="10.9565"/>
<feGaussianBlur stdDeviation="11.7391"/>
<feColorMatrix type="matrix" values="0 0 0 0 0 0 0 0 0 0 0 0 0 0 0 0 0 0 0.25 0"/>
<feBlend mode="normal" in2="BackgroundImageFix" result="effect1_dropShadow_2104_29032"/>
<feColorMatrix in="SourceAlpha" type="matrix" values="0 0 0 0 0 0 0 0 0 0 0 0 0 0 0 0 0 0 127 0" result="hardAlpha"/>
<feOffset dy="1.56522"/>
<feGaussianBlur stdDeviation="3.91304"/>
<feColorMatrix type="matrix" values="0 0 0 0 0 0 0 0 0 0 0 0 0 0 0 0 0 0 0.14 0"/>
<feBlend mode="normal" in2="effect1_dropShadow_2104_29032" result="effect2_dropShadow_2104_29032"/>
<feBlend mode="normal" in="SourceGraphic" in2="effect2_dropShadow_2104_29032" result="shape"/>
</filter>
<filter id="filter1_dd_2104_29032" x="134.522" y="52.4783" width="98.9565" height="98.9565" filterUnits="userSpaceOnUse" color-interpolation-filters="sRGB">
<feFlood flood-opacity="0" result="BackgroundImageFix"/>
<feColorMatrix in="SourceAlpha" type="matrix" values="0 0 0 0 0 0 0 0 0 0 0 0 0 0 0 0 0 0 127 0" result="hardAlpha"/>
<feOffset dy="10.9565"/>
<feGaussianBlur stdDeviation="11.7391"/>
<feColorMatrix type="matrix" values="0 0 0 0 0 0 0 0 0 0 0 0 0 0 0 0 0 0 0.25 0"/>
<feBlend mode="normal" in2="BackgroundImageFix" result="effect1_dropShadow_2104_29032"/>
<feColorMatrix in="SourceAlpha" type="matrix" values="0 0 0 0 0 0 0 0 0 0 0 0 0 0 0 0 0 0 127 0" result="hardAlpha"/>
<feOffset dy="1.56522"/>
<feGaussianBlur stdDeviation="3.91304"/>
<feColorMatrix type="matrix" values="0 0 0 0 0 0 0 0 0 0 0 0 0 0 0 0 0 0 0.14 0"/>
<feBlend mode="normal" in2="effect1_dropShadow_2104_29032" result="effect2_dropShadow_2104_29032"/>
<feBlend mode="normal" in="SourceGraphic" in2="effect2_dropShadow_2104_29032" result="shape"/>
</filter>
<filter id="filter2_dd_2104_29032" x="134.522" y="52.4783" width="98.9565" height="98.9565" filterUnits="userSpaceOnUse" color-interpolation-filters="sRGB">
<feFlood flood-opacity="0" result="BackgroundImageFix"/>
<feColorMatrix in="SourceAlpha" type="matrix" values="0 0 0 0 0 0 0 0 0 0 0 0 0 0 0 0 0 0 127 0" result="hardAlpha"/>
<feOffset dy="10.9565"/>
<feGaussianBlur stdDeviation="11.7391"/>
<feColorMatrix type="matrix" values="0 0 0 0 0 0 0 0 0 0 0 0 0 0 0 0 0 0 0.25 0"/>
<feBlend mode="normal" in2="BackgroundImageFix" result="effect1_dropShadow_2104_29032"/>
<feColorMatrix in="SourceAlpha" type="matrix" values="0 0 0 0 0 0 0 0 0 0 0 0 0 0 0 0 0 0 127 0" result="hardAlpha"/>
<feOffset dy="1.56522"/>
<feGaussianBlur stdDeviation="3.91304"/>
<feColorMatrix type="matrix" values="0 0 0 0 0 0 0 0 0 0 0 0 0 0 0 0 0 0 0.14 0"/>
<feBlend mode="normal" in2="effect1_dropShadow_2104_29032" result="effect2_dropShadow_2104_29032"/>
<feBlend mode="normal" in="SourceGraphic" in2="effect2_dropShadow_2104_29032" result="shape"/>
</filter>
<linearGradient id="paint0_linear_2104_29032" x1="154.921" y1="215.53" x2="182.099" y2="208.978" gradientUnits="userSpaceOnUse">
<stop stop-color="#FFEE99"/>
<stop offset="1" stop-color="#FFEE99" stop-opacity="0"/>
</linearGradient>
<linearGradient id="paint1_linear_2104_29032" x1="154.921" y1="112.53" x2="182.099" y2="105.978" gradientUnits="userSpaceOnUse">
<stop stop-color="#FFEE99"/>
<stop offset="1" stop-color="#FFEE99" stop-opacity="0"/>
</linearGradient>
<linearGradient id="paint2_linear_2104_29032" x1="154.921" y1="112.53" x2="182.099" y2="105.978" gradientUnits="userSpaceOnUse">
<stop stop-color="#FFEE99"/>
<stop offset="1" stop-color="#FFEE99" stop-opacity="0"/>
</linearGradient>
</defs>
</svg>
