<svg width="38" height="44" viewBox="0 0 38 44" fill="none" xmlns="http://www.w3.org/2000/svg">
<path d="M17.3559 0.373366C18.1859 -0.124455 19.214 -0.124455 20.044 0.373366L36.0863 9.99569C36.9 10.4837 37.3999 11.3764 37.3999 12.3414V31.6584C37.3999 32.6234 36.9 33.5161 36.0863 34.0041L20.044 43.6265C19.214 44.1243 18.1859 44.1243 17.3559 43.6265L1.31354 34.0041C0.499888 33.5161 0 32.6234 0 31.6584V12.3414C0 11.3764 0.499889 10.4837 1.31355 9.99569L17.3559 0.373366Z" fill="#659AD2"/>
<path fill-rule="evenodd" clip-rule="evenodd" d="M37.4 32.9651C37.1748 33.3896 36.8402 33.7516 36.422 34.0048L20.524 43.6266C19.7016 44.1244 18.6827 44.1244 17.8602 43.6266L1.96224 34.0048C1.54409 33.7517 1.20956 33.3898 0.984375 32.9654L19.1925 22L37.4 32.9651Z" fill="#D9D9D9"/>
<path fill-rule="evenodd" clip-rule="evenodd" d="M37.4 32.9651C37.1748 33.3896 36.8402 33.7516 36.422 34.0048L20.524 43.6266C19.7016 44.1244 18.6827 44.1244 17.8602 43.6266L1.96224 34.0048C1.54409 33.7517 1.20956 33.3898 0.984375 32.9654L19.1925 22L37.4 32.9651Z" fill="#004482"/>
<path fill-rule="evenodd" clip-rule="evenodd" d="M18.7 34.9999C25.7663 34.9999 31.4946 29.1796 31.4946 21.9999C31.4946 14.8203 25.7663 9 18.7 9C11.6336 9 5.90527 14.8203 5.90527 21.9999C5.90527 29.1796 11.6336 34.9999 18.7 34.9999ZM18.7001 28.5C22.2333 28.5 25.0975 25.5898 25.0975 22C25.0975 18.4102 22.2333 15.5 18.7001 15.5C15.167 15.5 12.3028 18.4102 12.3028 22C12.3028 25.5898 15.167 28.5 18.7001 28.5Z" fill="white"/>
<path fill-rule="evenodd" clip-rule="evenodd" d="M37.0774 11C37.2858 11.3935 37.4001 11.8401 37.4001 12.3032V31.6872C37.4001 32.1541 37.2839 32.6041 37.0724 32.9999L18.7002 22.0063L37.0774 11Z" fill="#00599C"/>
<path d="M33.666 19.7744H34.9886V23.8058H33.666V19.7744Z" fill="white"/>
<path d="M32.3438 22.4624L32.3437 21.1186L36.3115 21.1186L36.3115 22.4624L32.3438 22.4624Z" fill="white"/>
<path d="M28.375 19.7744H29.6976V23.8058H28.375V19.7744Z" fill="white"/>
<path d="M27.0527 22.4624L27.0527 21.1186L31.0204 21.1186L31.0204 22.4624L27.0527 22.4624Z" fill="white"/>
</svg>
