<svg width="35" height="40" viewBox="0 0 35 40" fill="none" xmlns="http://www.w3.org/2000/svg">
<path d="M16.9892 1.32245C17.706 0.892515 18.5939 0.892515 19.3107 1.32245L33.1655 9.63266C33.8682 10.0541 34.2999 10.8251 34.2999 11.6585V28.3414C34.2999 29.1748 33.8682 29.9458 33.1655 30.3673L19.3107 38.6775C18.5939 39.1074 17.706 39.1074 16.9892 38.6775L3.13443 30.3673C2.43172 29.9458 2 29.1748 2 28.3414V11.6585C2 10.8251 2.43172 10.0541 3.13443 9.63266L16.9892 1.32245Z" fill="#659AD2"/>
<path fill-rule="evenodd" clip-rule="evenodd" d="M34.2996 29.4699C34.1051 29.8365 33.8161 30.1492 33.4549 30.3678L19.7248 38.6775C19.0145 39.1074 18.1345 39.1074 17.4242 38.6775L3.69413 30.3678C3.333 30.1492 3.04409 29.8367 2.84961 29.4702L18.5748 20L34.2996 29.4699Z" fill="#D9D9D9"/>
<path fill-rule="evenodd" clip-rule="evenodd" d="M34.2996 29.4699C34.1051 29.8365 33.8161 30.1492 33.4549 30.3678L19.7248 38.6775C19.0145 39.1074 18.1345 39.1074 17.4242 38.6775L3.69413 30.3678C3.333 30.1492 3.04409 29.8367 2.84961 29.4702L18.5748 20L34.2996 29.4699Z" fill="#004482"/>
<path fill-rule="evenodd" clip-rule="evenodd" d="M18.1506 31.2275C24.2533 31.2275 29.2005 26.2008 29.2005 20.0002C29.2005 13.7996 24.2533 8.77295 18.1506 8.77295C12.0478 8.77295 7.10059 13.7996 7.10059 20.0002C7.10059 26.2008 12.0478 31.2275 18.1506 31.2275ZM18.1507 25.6139C21.2021 25.6139 23.6757 23.1006 23.6757 20.0003C23.6757 16.8999 21.2021 14.3866 18.1507 14.3866C15.0993 14.3866 12.6257 16.8999 12.6257 20.0003C12.6257 23.1006 15.0993 25.6139 18.1507 25.6139Z" fill="white"/>
<path fill-rule="evenodd" clip-rule="evenodd" d="M34.0216 10.5C34.2016 10.8398 34.3004 11.2255 34.3004 11.6255V28.3663C34.3004 28.7695 34.2 29.1582 34.0173 29.5L18.1504 20.0055L34.0216 10.5Z" fill="#00599C"/>
<path d="M31.0752 18.0781H32.2174V21.5598H31.0752V18.0781Z" fill="white"/>
<path d="M29.9336 20.3994L29.9336 19.2389L33.3603 19.2389L33.3603 20.3994L29.9336 20.3994Z" fill="white"/>
<path d="M26.5068 18.0781H27.6491V21.5598H26.5068V18.0781Z" fill="white"/>
<path d="M25.3643 20.3994L25.3643 19.2389L28.7909 19.2389L28.7909 20.3994L25.3643 20.3994Z" fill="white"/>
</svg>
