<svg width="76" height="40" viewBox="0 0 76 40" fill="none" xmlns="http://www.w3.org/2000/svg">
<path d="M6.58927 14.327C6.44503 14.327 6.40897 14.2553 6.48109 14.1478L7.23834 13.1802C7.31046 13.0726 7.49075 13.001 7.63499 13.001H20.5082C20.6525 13.001 20.6885 13.1085 20.6164 13.216L20.0034 14.1478C19.9313 14.2553 19.751 14.3629 19.6428 14.3629L6.58927 14.327Z" fill="#00ACD7"/>
<path d="M1.14424 17.6244C1 17.6244 0.96394 17.5527 1.03606 17.4452L1.79331 16.4775C1.86543 16.37 2.04573 16.2983 2.18996 16.2983H18.6331C18.7773 16.2983 18.8494 16.4058 18.8134 16.5133L18.5249 17.3735C18.4888 17.5168 18.3446 17.5885 18.2004 17.5885L1.14424 17.6244Z" fill="#00ACD7"/>
<path d="M9.87064 20.9216C9.7264 20.9216 9.69034 20.8141 9.76246 20.7065L10.2673 19.8105C10.3394 19.703 10.4837 19.5955 10.6279 19.5955H17.8398C17.984 19.5955 18.0561 19.703 18.0561 19.8464L17.984 20.7065C17.984 20.8499 17.8398 20.9574 17.7316 20.9574L9.87064 20.9216Z" fill="#00ACD7"/>
<path d="M47.3004 13.682C45.0287 14.2554 43.4781 14.6855 41.2424 15.2589C40.7015 15.4023 40.6655 15.4381 40.1967 14.9005C39.6558 14.2912 39.2592 13.897 38.5019 13.5386C36.2302 12.4276 34.0305 12.7501 31.9751 14.0762C29.5231 15.6531 28.261 17.9827 28.2971 20.8857C28.3331 23.7529 30.3164 26.1183 33.1651 26.5125C35.6171 26.8351 37.6725 25.9749 39.2952 24.1471C39.6197 23.7529 39.9082 23.3228 40.2688 22.8211C38.9707 22.8211 37.348 22.8211 33.3093 22.8211C32.5521 22.8211 32.3718 22.3551 32.6242 21.7459C33.093 20.6348 33.9584 18.7712 34.4632 17.8394C34.5714 17.6243 34.8238 17.2659 35.3647 17.2659C37.2038 17.2659 43.9829 17.2659 48.4904 17.2659C48.4183 18.2336 48.4183 19.2013 48.274 20.1689C47.8774 22.7494 46.9038 25.1148 45.3172 27.1935C42.7209 30.5982 39.3313 32.7128 35.0402 33.2862C31.5064 33.7521 28.2249 33.0712 25.3402 30.9208C22.6718 28.9138 21.1573 26.2616 20.7606 22.9644C20.2919 19.0579 21.4458 15.5456 23.8257 12.4634C26.3859 9.13034 29.7755 7.01581 33.9223 6.26318C37.3119 5.65391 40.5573 6.04814 43.4781 8.01932C45.3893 9.2737 46.7595 10.994 47.661 13.0727C47.8774 13.3952 47.7331 13.5744 47.3004 13.682Z" fill="#00ACD7"/>
<path d="M59.2362 33.5011C55.9548 33.4295 52.9618 32.4976 50.4377 30.3473C48.3102 28.5194 46.976 26.1899 46.5432 23.4302C45.8942 19.3804 47.012 15.7964 49.4641 12.6067C52.0964 9.16609 55.2696 7.37411 59.5607 6.62148C63.2388 5.97637 66.7005 6.33477 69.8377 8.4493C72.6864 10.3846 74.4533 13.0009 74.9221 16.4415C75.5351 21.2799 74.1287 25.2222 70.7752 28.5911C68.3953 30.9924 65.4745 32.4976 62.1209 33.1786C61.1473 33.3578 60.1737 33.3936 59.2362 33.5011ZM67.8183 19.022C67.7823 18.5561 67.7823 18.1977 67.7102 17.8393C67.0611 14.2911 63.7797 12.2841 60.354 13.0726C57.0005 13.8252 54.8369 15.9398 54.0436 19.3087C53.3945 22.1042 54.7648 24.9355 57.3611 26.0824C59.3444 26.9425 61.3276 26.835 63.2388 25.8673C66.0875 24.3979 67.638 22.1042 67.8183 19.022Z" fill="#00ACD7"/>
</svg>
