<svg width="83" height="44" viewBox="0 0 83 44" fill="none" xmlns="http://www.w3.org/2000/svg">
<path d="M6.23853 15.8719C6.07753 15.8719 6.03729 15.7919 6.11778 15.6719L6.96299 14.5919C7.04349 14.4718 7.24473 14.3918 7.40572 14.3918H21.7743C21.9353 14.3918 21.9756 14.5118 21.8951 14.6319L21.2109 15.6719C21.1304 15.7919 20.9291 15.9119 20.8084 15.9119L6.23853 15.8719Z" fill="#00ACD7"/>
<path d="M0.160993 19.5523C3.41115e-07 19.5523 -0.0402483 19.4723 0.0402481 19.3523L0.885461 18.2722C0.965957 18.1522 1.1672 18.0722 1.32819 18.0722H19.6814C19.8424 18.0722 19.9229 18.1922 19.8826 18.3122L19.5606 19.2723C19.5204 19.4323 19.3594 19.5123 19.1984 19.5123L0.160993 19.5523Z" fill="#00ACD7"/>
<path d="M9.90107 23.2325C9.74008 23.2325 9.69983 23.1125 9.78032 22.9925L10.3438 21.9924C10.4243 21.8724 10.5853 21.7524 10.7463 21.7524H18.7959C18.9569 21.7524 19.0374 21.8724 19.0374 22.0324L18.9569 22.9925C18.9569 23.1525 18.7959 23.2725 18.6752 23.2725L9.90107 23.2325Z" fill="#00ACD7"/>
<path d="M51.6788 15.152C49.1431 15.792 47.4124 16.272 44.9171 16.9121C44.3133 17.0721 44.2731 17.1121 43.7499 16.512C43.1461 15.832 42.7034 15.392 41.8582 14.9919C39.3225 13.7519 36.8674 14.1119 34.5733 15.592C31.8364 17.3521 30.4277 19.9523 30.4679 23.1925C30.5082 26.3927 32.7218 29.0329 35.9015 29.4729C38.6383 29.833 40.9325 28.8729 42.7436 26.8327C43.1059 26.3927 43.4279 25.9127 43.8304 25.3526C42.3814 25.3526 40.5702 25.3526 36.0624 25.3526C35.2172 25.3526 35.016 24.8326 35.2977 24.1526C35.821 22.9125 36.7869 20.8323 37.3504 19.7923C37.4711 19.5523 37.7529 19.1522 38.3566 19.1522C40.4093 19.1522 47.9759 19.1522 53.0069 19.1522C52.9264 20.2323 52.9264 21.3124 52.7655 22.3924C52.3227 25.2726 51.236 27.9128 49.4651 30.233C46.5672 34.0332 42.7839 36.3934 37.9944 37.0334C34.05 37.5535 30.3874 36.7934 27.1676 34.3933C24.1892 32.1531 22.4988 29.1929 22.0561 25.5127C21.5328 21.1524 22.8208 17.2321 25.4772 13.7919C28.3348 10.0716 32.1181 7.71144 36.7467 6.87139C40.53 6.19134 44.1523 6.63137 47.4124 8.83152C49.5456 10.2316 51.075 12.1517 52.0812 14.4719C52.3227 14.8319 52.1617 15.0319 51.6788 15.152Z" fill="#00ACD7"/>
<path d="M65.001 37.2734C61.3384 37.1934 57.9978 36.1533 55.1804 33.7531C52.8058 31.713 51.3166 29.1128 50.8336 26.0326C50.1092 21.5123 51.3568 17.512 54.0937 13.9518C57.0318 10.1115 60.5737 8.11137 65.3632 7.27131C69.4685 6.55126 73.3324 6.95129 76.834 9.31145C80.0136 11.4716 81.9857 14.3918 82.509 18.2321C83.1932 23.6324 81.6235 28.0327 77.8804 31.793C75.224 34.4732 71.9639 36.1533 68.2208 36.9133C67.1341 37.1133 66.0474 37.1533 65.001 37.2734ZM74.5801 21.1123C74.5398 20.5922 74.5398 20.1922 74.4593 19.7922C73.7349 15.8319 70.0723 13.5917 66.2487 14.4718C62.5056 15.3119 60.0907 17.672 59.2052 21.4323C58.4808 24.5525 60.0102 27.7127 62.9081 28.9928C65.1217 29.9529 67.3354 29.8328 69.4686 28.7528C72.6482 27.1127 74.3788 24.5525 74.5801 21.1123Z" fill="#00ACD7"/>
</svg>
