<svg width="40" height="40" viewBox="0 0 40 40" fill="none" xmlns="http://www.w3.org/2000/svg">
<path fill-rule="evenodd" clip-rule="evenodd" d="M20.9332 1.55626C20.5322 0.814578 19.468 0.814578 19.067 1.55626C18.7095 2.21747 17.7967 2.30737 17.3171 1.72861C16.7791 1.07941 15.7353 1.28703 15.4867 2.0927C15.2651 2.81094 14.3874 3.07719 13.8041 2.60313C13.1497 2.07136 12.1665 2.47862 12.0799 3.31731C12.0026 4.06499 11.1937 4.49735 10.5291 4.1462C9.78364 3.7523 8.89877 4.34355 8.9774 5.18303C9.04749 5.93141 8.33849 6.51328 7.61816 6.29852C6.81015 6.05763 6.05763 6.81015 6.29852 7.61816C6.51328 8.33849 5.93141 9.04749 5.18303 8.9774C4.34355 8.89877 3.7523 9.78364 4.1462 10.5291C4.49735 11.1937 4.06499 12.0026 3.31731 12.0799C2.47862 12.1665 2.07136 13.1497 2.60313 13.8041C3.07719 14.3874 2.81094 15.2651 2.0927 15.4867C1.28703 15.7353 1.07941 16.7791 1.72861 17.3171C2.30737 17.7967 2.21747 18.7095 1.55626 19.067C0.814578 19.468 0.814578 20.5322 1.55626 20.9332C2.21747 21.2907 2.30737 22.2035 1.72861 22.6831C1.07941 23.2211 1.28703 24.2649 2.0927 24.5135C2.81094 24.7352 3.07719 25.6129 2.60313 26.1962C2.07136 26.8505 2.47862 27.8337 3.31731 27.9204C4.06499 27.9976 4.49735 28.8065 4.1462 29.4711C3.7523 30.2166 4.34355 31.1015 5.18303 31.0228C5.93141 30.9527 6.51328 31.6617 6.29852 32.3821C6.05763 33.1901 6.81015 33.9426 7.61816 33.7017C8.33849 33.487 9.04749 34.0688 8.9774 34.8172C8.89877 35.6567 9.78364 36.2479 10.5291 35.854C11.1937 35.5029 12.0026 35.9352 12.0799 36.6829C12.1665 37.5216 13.1497 37.9289 13.8041 37.3971C14.3874 36.923 15.2651 37.1893 15.4867 37.9075C15.7353 38.7132 16.7791 38.9208 17.3171 38.2716C17.7967 37.6929 18.7095 37.7828 19.067 38.444C19.468 39.1857 20.5322 39.1857 20.9332 38.444C21.2907 37.7828 22.2035 37.6929 22.6831 38.2716C23.2211 38.9208 24.2649 38.7132 24.5135 37.9075C24.7352 37.1893 25.6129 36.923 26.1962 37.3971C26.8505 37.9289 27.8337 37.5216 27.9204 36.6829C27.9976 35.9352 28.8065 35.5029 29.4711 35.854C30.2166 36.2479 31.1015 35.6567 31.0228 34.8172C30.9527 34.0688 31.6617 33.487 32.3821 33.7017C33.1901 33.9426 33.9426 33.1901 33.7017 32.3821C33.487 31.6617 34.0688 30.9527 34.8172 31.0228C35.6567 31.1015 36.2479 30.2166 35.854 29.4711C35.5029 28.8065 35.9352 27.9976 36.6829 27.9204C37.5216 27.8337 37.9289 26.8505 37.3971 26.1962C36.923 25.6129 37.1893 24.7352 37.9075 24.5135C38.7132 24.2649 38.9208 23.2211 38.2716 22.6831C37.6929 22.2035 37.7828 21.2907 38.444 20.9332C39.1857 20.5322 39.1857 19.468 38.444 19.067C37.7828 18.7095 37.6929 17.7967 38.2716 17.3171C38.9208 16.7791 38.7132 15.7353 37.9075 15.4867C37.1893 15.2651 36.923 14.3874 37.3971 13.8041C37.9289 13.1497 37.5216 12.1665 36.6829 12.0799C35.9352 12.0026 35.5029 11.1937 35.854 10.5291C36.2479 9.78364 35.6567 8.89877 34.8172 8.9774C34.0688 9.04749 33.487 8.33849 33.7017 7.61816C33.9426 6.81015 33.1901 6.05763 32.3821 6.29852C31.6617 6.51328 30.9527 5.93141 31.0228 5.18303C31.1015 4.34355 30.2166 3.7523 29.4711 4.1462C28.8065 4.49735 27.9976 4.06499 27.9204 3.31731C27.8337 2.47862 26.8505 2.07136 26.1962 2.60313C25.6129 3.07719 24.7352 2.81094 24.5135 2.0927C24.2649 1.28703 23.2211 1.07941 22.6831 1.72861C22.2035 2.30737 21.2907 2.21747 20.9332 1.55626ZM25.806 33.0581C24.0321 33.8481 22.0675 34.2872 20.0003 34.2872C17.8176 34.2872 15.7493 33.7977 13.8991 32.9225L13.7972 32.4019C13.4496 30.6252 11.7274 29.4668 9.95076 29.8145L9.6705 29.8693C9.23735 29.416 8.83375 28.9342 8.46278 28.4271H20.218C20.3109 28.4271 20.3341 28.3496 20.3341 28.3109V24.1299C20.3341 24.0369 20.2567 24.0137 20.218 24.0137H16.6951V21.3618H20.4116C21.9601 21.3618 22.6053 22.833 22.7344 23.5685C22.7537 23.6201 22.8737 24.1492 23.1989 25.8526C23.5241 27.556 24.7668 28.4077 25.3669 28.4077H31.5519C31.165 28.9385 30.7424 29.4417 30.2876 29.9136L29.7809 29.8145C28.0042 29.4668 26.2821 30.6252 25.9344 32.4019L25.806 33.0581ZM34.2516 20.9941H32.7224C32.5521 20.9941 32.5224 21.1489 32.5289 21.2264V22.4652C32.5289 22.8523 32.0643 23.975 30.6513 23.975C29.5208 23.975 29.1737 23.304 29.1414 22.9685C29.1027 22.1942 28.5994 20.3669 26.8961 19.252C27.1051 19.0891 27.3036 18.9391 27.4913 18.7972L27.4915 18.7971C28.955 17.6908 29.7609 17.0816 29.7609 14.7999C29.7609 12.9223 27.4574 10.4253 24.3797 10.4253H9.4003C11.4504 8.15755 14.218 6.55078 17.3451 5.96299L17.6305 6.24836C18.9106 7.52849 20.9861 7.52849 22.2663 6.24836L22.5678 5.94681C26.8393 6.72202 30.4491 9.39659 32.4905 13.0639L32.1012 13.8774C31.3197 15.5104 32.0099 17.4677 33.6429 18.2493L34.2096 18.5205C34.2598 19.0075 34.2855 19.5017 34.2855 20.0019C34.2855 20.3354 34.2741 20.6663 34.2516 20.9941ZM8.16613 14.7225C8.41647 16.1361 7.71043 17.5993 6.35233 18.2493L5.79119 18.5178C5.74084 19.0057 5.71503 19.5008 5.71503 20.0019C5.71503 21.3384 5.89855 22.632 6.24177 23.8589H10.2686V14.7225H8.16613ZM21.1087 5.12207C21.1087 5.76349 20.5887 6.28347 19.9473 6.28347C19.3058 6.28347 18.7859 5.76349 18.7859 5.12207C18.7859 4.48064 19.3058 3.96066 19.9473 3.96066C20.5887 3.96066 21.1087 4.48064 21.1087 5.12207ZM7.17124 15.6521C7.17124 16.2935 6.65126 16.8135 6.00984 16.8135C5.36841 16.8135 4.84843 16.2935 4.84843 15.6521C4.84843 15.0107 5.36841 14.4907 6.00984 14.4907C6.65126 14.4907 7.17124 15.0107 7.17124 15.6521ZM33.7679 16.853C34.4093 16.853 34.9293 16.333 34.9293 15.6916C34.9293 15.0502 34.4093 14.5302 33.7679 14.5302C33.1265 14.5302 32.6065 15.0502 32.6065 15.6916C32.6065 16.333 33.1265 16.853 33.7679 16.853ZM29.6645 32.0668C29.6645 32.7082 29.1445 33.2282 28.5031 33.2282C27.8617 33.2282 27.3417 32.7082 27.3417 32.0668C27.3417 31.4254 27.8617 30.9054 28.5031 30.9054C29.1445 30.9054 29.6645 31.4254 29.6645 32.0668ZM11.2751 33.2282C11.9165 33.2282 12.4365 32.7082 12.4365 32.0668C12.4365 31.4254 11.9165 30.9054 11.2751 30.9054C10.6337 30.9054 10.1137 31.4254 10.1137 32.0668C10.1137 32.7082 10.6337 33.2282 11.2751 33.2282ZM21.4568 14.7995H16.7144V17.5094H21.4568C22.1537 17.5094 23.3151 17.1997 23.3151 16.2319C23.3151 15.2059 22.0375 14.7995 21.4568 14.7995Z" fill="white"/>
</svg>
