<svg width="40" height="40" viewBox="0 0 40 40" fill="none" xmlns="http://www.w3.org/2000/svg">
<path fill-rule="evenodd" clip-rule="evenodd" d="M20.9817 0.585538C20.5596 -0.195179 19.4394 -0.195179 19.0173 0.585538C18.641 1.28153 17.6802 1.37617 17.1753 0.766957C16.609 0.0835917 15.5103 0.302138 15.2486 1.15021C15.0153 1.90624 14.0914 2.1865 13.4774 1.68749C12.7886 1.12774 11.7537 1.55643 11.6625 2.43926C11.5811 3.22628 10.7297 3.6814 10.0301 3.31177C9.24539 2.89714 8.31395 3.51951 8.39672 4.40316C8.4705 5.19093 7.72419 5.80341 6.96596 5.57736C6.11542 5.32379 5.3233 6.11591 5.57687 6.96644C5.80292 7.72468 5.19044 8.47099 4.40268 8.39721C3.51902 8.31444 2.89665 9.24588 3.31128 10.0306C3.68091 10.7302 3.2258 11.5816 2.43877 11.6629C1.55595 11.7542 1.12725 12.7891 1.687 13.4779C2.18601 14.0919 1.90575 15.0158 1.14972 15.2491C0.30165 15.5108 0.0831034 16.6095 0.766469 17.1758C1.37568 17.6806 1.28105 18.6415 0.58505 19.0178C-0.195668 19.4399 -0.195668 20.5601 0.58505 20.9822C1.28105 21.3585 1.37568 22.3194 0.766469 22.8242C0.0831035 23.3905 0.30165 24.4892 1.14972 24.7509C1.90575 24.9842 2.18601 25.9081 1.687 26.5221C1.12725 27.2109 1.55595 28.2458 2.43877 28.3371C3.2258 28.4184 3.68091 29.2698 3.31128 29.9694C2.89665 30.7541 3.51902 31.6856 4.40268 31.6028C5.19044 31.529 5.80292 32.2753 5.57687 33.0336C5.3233 33.8841 6.11542 34.6762 6.96596 34.4226C7.72419 34.1966 8.4705 34.8091 8.39672 35.5968C8.31395 36.4805 9.24539 37.1029 10.0301 36.6882C10.7297 36.3186 11.5811 36.7737 11.6625 37.5607C11.7537 38.4436 12.7886 38.8723 13.4774 38.3125C14.0914 37.8135 15.0153 38.0938 15.2486 38.8498C15.5103 39.6979 16.609 39.9164 17.1753 39.233C17.6802 38.6238 18.641 38.7185 19.0173 39.4145C19.4394 40.1952 20.5596 40.1952 20.9817 39.4145C21.3581 38.7185 22.3189 38.6238 22.8237 39.233C23.39 39.9164 24.4887 39.6979 24.7504 38.8498C24.9837 38.0938 25.9076 37.8135 26.5216 38.3125C27.2104 38.8723 28.2453 38.4436 28.3366 37.5607C28.4179 36.7737 29.2693 36.3186 29.9689 36.6882C30.7536 37.1029 31.6851 36.4805 31.6023 35.5968C31.5285 34.8091 32.2748 34.1966 33.0331 34.4226C33.8836 34.6762 34.6757 33.8841 34.4221 33.0336C34.1961 32.2753 34.8086 31.529 35.5963 31.6028C36.48 31.6856 37.1024 30.7541 36.6877 29.9694C36.3181 29.2698 36.7732 28.4184 37.5602 28.3371C38.4431 28.2458 38.8718 27.2109 38.312 26.5221C37.813 25.9081 38.0933 24.9842 38.8493 24.7509C39.6974 24.4892 39.9159 23.3905 39.2325 22.8242C38.6233 22.3194 38.718 21.3585 39.414 20.9822C40.1947 20.5601 40.1947 19.4399 39.414 19.0178C38.718 18.6415 38.6233 17.6806 39.2325 17.1758C39.9159 16.6095 39.6974 15.5108 38.8493 15.2491C38.0933 15.0158 37.813 14.0919 38.312 13.4779C38.8718 12.7891 38.4431 11.7542 37.5602 11.6629C36.7732 11.5816 36.3181 10.7302 36.6877 10.0306C37.1024 9.24588 36.48 8.31444 35.5963 8.39721C34.8086 8.47099 34.1961 7.72468 34.4221 6.96644C34.6757 6.11591 33.8836 5.32379 33.0331 5.57736C32.2748 5.80341 31.5285 5.19093 31.6023 4.40316C31.6851 3.51951 30.7536 2.89714 29.9689 3.31177C29.2693 3.6814 28.4179 3.22628 28.3366 2.43926C28.2453 1.55643 27.2104 1.12774 26.5216 1.68749C25.9076 2.1865 24.9837 1.90624 24.7504 1.15021C24.4887 0.302138 23.39 0.0835919 22.8237 0.766958C22.3189 1.37617 21.358 1.28153 20.9817 0.585538ZM26.111 33.7449C24.2438 34.5765 22.1757 35.0387 19.9997 35.0387C17.7022 35.0387 15.5251 34.5234 13.5775 33.6022L13.4372 32.885C13.0895 31.1083 11.3673 29.9499 9.59067 30.2976L9.12645 30.3884C8.67051 29.9113 8.24567 29.4041 7.85517 28.8703H20.229C20.3268 28.8703 20.3512 28.7888 20.3512 28.748V24.347C20.3512 24.2492 20.2697 24.2247 20.229 24.2247H16.5207V21.4333H20.4327C22.0628 21.4333 22.742 22.9818 22.8778 23.7561C22.8982 23.8104 23.0245 24.3673 23.3668 26.1604C23.7091 27.9534 25.0172 28.8499 25.6488 28.8499H32.1592C31.7519 29.4087 31.307 29.9383 30.8283 30.435L30.1258 30.2976C28.3491 29.9499 26.627 31.1083 26.2793 32.885L26.111 33.7449ZM35.001 21.0462H33.3915C33.2122 21.0462 33.1809 21.2092 33.1877 21.2907V22.5947C33.1877 23.0022 32.6987 24.184 31.2113 24.184C30.0214 24.184 29.656 23.4776 29.622 23.1244C29.5813 22.3094 29.0515 20.386 27.2585 19.2124C27.4786 19.0409 27.6876 18.8829 27.8853 18.7335C29.4258 17.5691 30.274 16.9278 30.274 14.526C30.274 12.5496 27.8494 9.92121 24.6097 9.92121H8.84179C10.9998 7.53403 13.9131 5.84263 17.2049 5.22391L17.6273 5.64627C18.9074 6.9264 20.9829 6.9264 22.263 5.64627L22.7024 5.20689C27.1986 6.0229 30.9984 8.83821 33.1473 12.6985L32.663 13.7104C31.8815 15.3434 32.5717 17.3007 34.2047 18.0823L34.9569 18.4422C35.0097 18.9548 35.0367 19.4751 35.0367 20.0017C35.0367 20.3528 35.0247 20.7011 35.001 21.0462ZM7.58125 14.4445C7.88976 15.8918 7.18276 17.4153 5.78909 18.0823L5.0429 18.4394C4.98988 18.9529 4.96272 19.4741 4.96272 20.0017C4.96272 21.4085 5.15591 22.7702 5.51722 24.0617H9.75606V14.4445H7.58125ZM21.1667 4.33905C21.1667 5.01423 20.6194 5.56157 19.9442 5.56157C19.269 5.56157 18.7217 5.01423 18.7217 4.33905C18.7217 3.66387 19.269 3.11653 19.9442 3.11653C20.6194 3.11653 21.1667 3.66387 21.1667 4.33905ZM6.49565 15.423C6.49565 16.0982 5.94831 16.6456 5.27313 16.6456C4.59795 16.6456 4.05061 16.0982 4.05061 15.423C4.05061 14.7479 4.59795 14.2005 5.27313 14.2005C5.94831 14.2005 6.49565 14.7479 6.49565 15.423ZM34.4919 16.6872C35.1671 16.6872 35.7144 16.1398 35.7144 15.4647C35.7144 14.7895 35.1671 14.2421 34.4919 14.2421C33.8167 14.2421 33.2694 14.7895 33.2694 15.4647C33.2694 16.1398 33.8167 16.6872 34.4919 16.6872ZM30.1727 32.7015C30.1727 33.3767 29.6253 33.924 28.9501 33.924C28.275 33.924 27.7276 33.3767 27.7276 32.7015C27.7276 32.0263 28.275 31.479 28.9501 31.479C29.6253 31.479 30.1727 32.0263 30.1727 32.7015ZM10.8154 33.924C11.4906 33.924 12.0379 33.3767 12.0379 32.7015C12.0379 32.0263 11.4906 31.479 10.8154 31.479C10.1402 31.479 9.59286 32.0263 9.59286 32.7015C9.59286 33.3767 10.1402 33.924 10.8154 33.924ZM21.5327 14.5259H16.5408V17.3785H21.5327C22.2662 17.3785 23.4888 17.0525 23.4888 16.0337C23.4888 14.9538 22.144 14.5259 21.5327 14.5259Z" fill="white"/>
</svg>
