<svg width="148" height="550" viewBox="0 0 148 550" fill="none" xmlns="http://www.w3.org/2000/svg"><g opacity=".05"><path d="M1.5 180.455l-42.958 24.746v49.492L1.5 279.44l42.959-24.747v-49.492L1.5 180.455z" fill="#fff"/><path d="M95.23 295.965l-41.96-24.17-41.958 24.17v48.336l41.959 24.171 41.959-24.171v-48.336zM95.23 476.338l-41.96-24.17-41.958 24.17v48.337l41.959 24.17 41.959-24.17v-48.337z" stroke="#fff" stroke-width="2"/><path d="M1.5 360.826l-42.958 24.746v49.493L1.5 459.811l42.959-24.746v-49.493L1.5 360.826zM1.5.081l-42.958 24.746V74.32L1.5 99.066 44.46 74.32V24.827L1.5.081z" fill="#fff"/><path d="M147 25.405l-41.959-24.17-41.958 24.17v48.337l41.958 24.17L147 73.742V25.405z" stroke="#fff" stroke-width="2"/><path d="M53.27 90.267l-42.958 24.746v49.492l42.959 24.747 42.959-24.747v-49.492L53.27 90.267z" fill="#fff"/></g></svg>