<svg width="82" height="52" viewBox="0 0 82 52" fill="none" xmlns="http://www.w3.org/2000/svg"><path d="M7.774 8.075C7.452 1.938 3.226 0 0 0h82c-6.452 0-10.476 9.043-11.323 13.565-1.548 8.269-3.548 12.274-7.419 12.274-4.903 0-4.479-5.491-5.161-9.044-1.29-6.718-3.871-7.752-7.097-7.752-5.677 0-7.42 5.907-7.42 11.305v20.994c0 8.01-3.87 10.658-7.096 10.658-6.71 0-8.387-11.304-8.387-18.733V12.273c0-7.751-3.549-9.69-5.807-9.69-3.096 0-4.516 2.262-4.516 4.846.258 8.268-3.548 9.366-5.484 9.366-3.87 0-4.363-5.814-4.516-8.72z" fill="#FFE100"/></svg>