<svg width="148" height="550" viewBox="0 0 148 550" fill="none" xmlns="http://www.w3.org/2000/svg"><g opacity=".05"><path d="M136.557 254.034l-41.918 24.17-41.918-24.17v-48.337l41.918-24.17 41.918 24.17v48.337zM136.557 73.661l-41.918 24.17-41.918-24.17V25.324L94.64 1.154l41.918 24.17v48.337z" stroke="#fff" stroke-width="2"/><path d="M146.361 369.544l-42.918-24.746v-49.493l42.918-24.746 42.917 24.746v49.493l-42.917 24.746zM42.918 189.172L0 164.426v-49.493l42.918-24.747 42.918 24.747v49.493l-42.918 24.746z" fill="#fff"/><path d="M188.278 163.848l-41.917 24.17-41.918-24.17v-48.337l41.918-24.17 41.917 24.17v48.337z" stroke="#fff" stroke-width="2"/><path d="M146.361 549.918l-42.918-24.746v-49.493l42.918-24.746 42.917 24.746v49.493l-42.917 24.746z" fill="#fff"/><path d="M136.557 434.407l-41.918 24.17-41.918-24.17V386.07L94.64 361.9l41.918 24.17v48.337z" stroke="#fff" stroke-width="2"/></g></svg>