<svg width="98" height="154" viewBox="0 0 98 154" fill="none" xmlns="http://www.w3.org/2000/svg">
<path d="M33.9621 15.3439C32.3082 13.6827 30.0001 12.6577 27.4374 12.6577C24.8748 12.6577 22.592 13.6827 20.9599 15.3439H20.9127C19.2624 16.9978 18.2373 19.306 18.2373 21.8614C18.2373 24.4168 19.2624 26.714 20.9127 28.3607L20.9599 28.397C22.5956 30.0509 24.882 31.0687 27.4374 31.0687C29.9928 31.0687 32.3082 30.0509 33.9621 28.397L33.9876 28.3607C35.6451 26.7177 36.6593 24.4277 36.6593 21.8614C36.6593 19.2951 35.6415 16.9978 33.9876 15.3439H33.9621ZM27.4374 141.346C30.0037 141.346 32.3082 140.303 33.9621 138.667L33.9876 138.62C35.6451 136.988 36.6593 134.679 36.6593 132.142C36.6593 129.605 35.6415 127.279 33.9876 125.618H33.9621C32.3082 123.938 30.0001 122.92 27.4374 122.92C24.8748 122.92 22.592 123.938 20.9599 125.618H20.9127C19.2624 127.279 18.2373 129.58 18.2373 132.142C18.2373 134.705 19.2624 136.988 20.9127 138.62L20.9599 138.667C22.5956 140.303 24.882 141.346 27.4374 141.346ZM77.5889 113.459C79.8716 112.859 81.9363 111.398 83.194 109.184L83.3648 108.86C84.4844 106.759 84.6879 104.338 84.0918 102.194C83.4884 99.8966 82.0053 97.861 79.7989 96.5888L79.6717 96.5015C77.5198 95.3238 75.0698 95.0657 72.8162 95.6764C70.5261 96.2471 68.4724 97.7774 67.2183 99.9693C65.9497 102.143 65.6844 104.651 66.2914 106.959C66.9203 109.228 68.3852 111.281 70.5807 112.564H70.5952C72.7944 113.826 75.2843 114.055 77.5889 113.459ZM36.8847 67.5673C34.4674 65.1537 31.1342 63.6452 27.4374 63.6452C23.7407 63.6452 20.4329 65.1573 18.0192 67.5673C15.6165 69.97 14.1335 73.296 14.1335 76.9818C14.1335 80.6677 15.6165 84.0118 18.0192 86.4436C20.4329 88.8354 23.7588 90.3366 27.4374 90.3366C31.116 90.3366 34.4638 88.8354 36.8847 86.4436C39.291 84.0118 40.7741 80.6786 40.7741 76.9818C40.7741 73.2851 39.291 69.9736 36.8847 67.5673ZM31.574 51.8788C36.9283 52.7621 41.7446 55.3248 45.4195 59.0288H45.4486C46.0338 59.6177 46.6045 60.2538 47.128 60.9008L56.3171 55.5829C55.0812 51.8498 55.0267 47.9458 56.0154 44.2891C57.3276 39.3855 60.5046 34.9981 65.2664 32.2428L65.4227 32.1483C70.1336 29.4766 75.4915 28.9277 80.326 30.24C85.2223 31.5485 89.6387 34.7437 92.3904 39.5018V39.5127C95.1275 44.2418 95.6837 49.6761 94.3751 54.5578C93.0738 59.4577 89.8823 63.8742 85.1241 66.6113L83.8701 67.3528H83.7428C79.3409 69.4502 74.4992 69.7737 70.0536 68.6069C66.4041 67.6364 63.0527 65.6044 60.4319 62.7074L51.2573 68.0071C52.3114 70.7988 52.8966 73.8121 52.8966 76.9818C52.8966 80.1515 52.3114 83.194 51.2573 86.0038L60.4319 91.2854C63.0527 88.352 66.4041 86.3564 70.0536 85.3858C74.9499 84.0482 80.3805 84.6189 85.1241 87.3814L85.4258 87.5232V87.5414C90.0095 90.3148 93.0883 94.6077 94.3751 99.4531C95.68 104.306 95.1239 109.74 92.3904 114.48L92.2268 114.811L92.2086 114.782C89.4606 119.351 85.1278 122.448 80.3442 123.756C75.437 125.047 70.01 124.498 65.27 121.772V121.732C60.5082 118.976 57.3313 114.578 56.019 109.689C55.0267 106.043 55.0849 102.136 56.3208 98.4026L47.1316 93.1029C46.6045 93.7499 46.0338 94.3569 45.4522 94.9458L45.4232 94.9748C41.7482 98.6607 36.9319 101.227 31.5776 102.081V112.703C35.3907 113.499 38.8112 115.411 41.4901 118.09L41.5047 118.119C45.096 121.692 47.317 126.668 47.317 132.139C47.317 137.609 45.096 142.538 41.5047 146.13L41.4901 146.188C37.8734 149.779 32.9116 152 27.441 152C21.9704 152 17.0305 149.779 13.4247 146.188H13.4101V146.13C9.81515 142.538 7.58692 137.591 7.58692 132.139C7.58692 126.686 9.81515 121.692 13.4101 118.119V118.09H13.4247C16.1 115.411 19.5241 113.502 23.3299 112.703V102.081C17.972 101.227 13.1702 98.6607 9.49891 94.9748L9.45893 94.9458C4.86798 90.3476 2 84.0118 2 76.9855C2 69.9591 4.86798 63.6415 9.45529 59.0324H9.49528C13.1666 55.3284 17.9684 52.7621 23.3263 51.8825V41.3084C19.5205 40.4833 16.0964 38.5749 13.421 35.9141H13.4065V35.885C9.81152 32.2755 7.58329 27.3356 7.58329 21.865C7.58329 16.3944 9.81152 11.4327 13.4065 7.84501L13.421 7.82683C17.0269 4.22096 21.9959 2 27.4374 2C32.8789 2 37.8697 4.22096 41.4865 7.8232V7.84137H41.501C45.0924 11.4327 47.3133 16.4199 47.3133 21.8614C47.3133 27.3029 45.0924 32.2719 41.501 35.8814L41.4865 35.9105C38.8075 38.5713 35.3871 40.4796 31.574 41.3048V51.8788ZM83.1976 44.8307L83.1213 44.718C81.8527 42.5806 79.828 41.1557 77.5925 40.5378C75.2843 39.9307 72.7944 40.1888 70.5843 41.4502H70.5988C68.3924 42.7042 66.913 44.7543 66.2951 47.0553C65.688 49.3344 65.9534 51.8534 67.222 54.0453L67.2656 54.1034C68.5378 56.2662 70.5625 57.7202 72.8198 58.3091C75.0917 58.9452 77.6216 58.6798 79.8026 57.4076L79.9225 57.3494C82.0671 56.0663 83.4993 54.0453 84.0954 51.8207C84.7025 49.5307 84.4626 47.0225 83.1976 44.8307Z" stroke="#231F20" stroke-width="4"/>
<path d="M33.9621 15.3439C32.3082 13.6827 30.0001 12.6577 27.4374 12.6577C24.8748 12.6577 22.592 13.6827 20.9599 15.3439H20.9127C19.2624 16.9978 18.2373 19.306 18.2373 21.8614C18.2373 24.4168 19.2624 26.714 20.9127 28.3607L20.9599 28.397C22.5956 30.0509 24.882 31.0687 27.4374 31.0687C29.9928 31.0687 32.3082 30.0509 33.9621 28.397L33.9876 28.3607C35.6451 26.7177 36.6593 24.4277 36.6593 21.8614C36.6593 19.2951 35.6415 16.9978 33.9876 15.3439H33.9621ZM27.4374 141.346C30.0037 141.346 32.3082 140.303 33.9621 138.667L33.9876 138.62C35.6451 136.988 36.6593 134.679 36.6593 132.142C36.6593 129.605 35.6415 127.279 33.9876 125.618H33.9621C32.3082 123.938 30.0001 122.92 27.4374 122.92C24.8748 122.92 22.592 123.938 20.9599 125.618H20.9127C19.2624 127.279 18.2373 129.58 18.2373 132.142C18.2373 134.705 19.2624 136.988 20.9127 138.62L20.9599 138.667C22.5956 140.303 24.882 141.346 27.4374 141.346ZM77.5889 113.459C79.8716 112.859 81.9363 111.398 83.194 109.184L83.3648 108.86C84.4844 106.759 84.6879 104.338 84.0918 102.194C83.4884 99.8966 82.0053 97.861 79.7989 96.5888L79.6717 96.5015C77.5198 95.3238 75.0698 95.0657 72.8162 95.6764C70.5261 96.2471 68.4724 97.7774 67.2183 99.9693C65.9497 102.143 65.6844 104.651 66.2914 106.959C66.9203 109.228 68.3852 111.281 70.5807 112.564H70.5952C72.7944 113.826 75.2843 114.055 77.5889 113.459ZM36.8847 67.5673C34.4674 65.1537 31.1342 63.6452 27.4374 63.6452C23.7407 63.6452 20.4329 65.1573 18.0192 67.5673C15.6165 69.97 14.1335 73.296 14.1335 76.9818C14.1335 80.6677 15.6165 84.0118 18.0192 86.4436C20.4329 88.8354 23.7588 90.3366 27.4374 90.3366C31.116 90.3366 34.4638 88.8354 36.8847 86.4436C39.291 84.0118 40.7741 80.6786 40.7741 76.9818C40.7741 73.2851 39.291 69.9736 36.8847 67.5673ZM31.574 51.8788C36.9283 52.7621 41.7446 55.3248 45.4195 59.0288H45.4486C46.0338 59.6177 46.6045 60.2538 47.128 60.9008L56.3171 55.5829C55.0812 51.8498 55.0267 47.9458 56.0154 44.2891C57.3276 39.3855 60.5046 34.9981 65.2664 32.2428L65.4227 32.1483C70.1336 29.4766 75.4915 28.9277 80.326 30.24C85.2223 31.5485 89.6387 34.7437 92.3904 39.5018V39.5127C95.1275 44.2418 95.6837 49.6761 94.3751 54.5578C93.0738 59.4577 89.8823 63.8742 85.1241 66.6113L83.8701 67.3528H83.7428C79.3409 69.4502 74.4992 69.7737 70.0536 68.6069C66.4041 67.6364 63.0527 65.6044 60.4319 62.7074L51.2573 68.0071C52.3114 70.7988 52.8966 73.8121 52.8966 76.9818C52.8966 80.1515 52.3114 83.194 51.2573 86.0038L60.4319 91.2854C63.0527 88.352 66.4041 86.3564 70.0536 85.3858C74.9499 84.0482 80.3805 84.6189 85.1241 87.3814L85.4258 87.5232V87.5414C90.0095 90.3148 93.0883 94.6077 94.3751 99.4531C95.68 104.306 95.1239 109.74 92.3904 114.48L92.2268 114.811L92.2086 114.782C89.4606 119.351 85.1278 122.448 80.3442 123.756C75.437 125.047 70.01 124.498 65.27 121.772V121.732C60.5082 118.976 57.3313 114.578 56.019 109.689C55.0267 106.043 55.0849 102.136 56.3208 98.4026L47.1316 93.1029C46.6045 93.7499 46.0338 94.3569 45.4522 94.9458L45.4232 94.9748C41.7482 98.6607 36.9319 101.227 31.5776 102.081V112.703C35.3907 113.499 38.8112 115.411 41.4901 118.09L41.5047 118.119C45.096 121.692 47.317 126.668 47.317 132.139C47.317 137.609 45.096 142.538 41.5047 146.13L41.4901 146.188C37.8734 149.779 32.9116 152 27.441 152C21.9704 152 17.0305 149.779 13.4247 146.188H13.4101V146.13C9.81515 142.538 7.58692 137.591 7.58692 132.139C7.58692 126.686 9.81515 121.692 13.4101 118.119V118.09H13.4247C16.1 115.411 19.5241 113.502 23.3299 112.703V102.081C17.972 101.227 13.1702 98.6607 9.49891 94.9748L9.45893 94.9458C4.86798 90.3476 2 84.0118 2 76.9855C2 69.9591 4.86798 63.6415 9.45529 59.0324H9.49528C13.1666 55.3284 17.9684 52.7621 23.3263 51.8825V41.3084C19.5205 40.4833 16.0964 38.5749 13.421 35.9141H13.4065V35.885C9.81152 32.2755 7.58329 27.3356 7.58329 21.865C7.58329 16.3944 9.81152 11.4327 13.4065 7.84501L13.421 7.82683C17.0269 4.22096 21.9959 2 27.4374 2C32.8789 2 37.8697 4.22096 41.4865 7.8232V7.84137H41.501C45.0924 11.4327 47.3133 16.4199 47.3133 21.8614C47.3133 27.3029 45.0924 32.2719 41.501 35.8814L41.4865 35.9105C38.8075 38.5713 35.3871 40.4796 31.574 41.3048V51.8788ZM83.1976 44.8307L83.1213 44.718C81.8527 42.5806 79.828 41.1557 77.5925 40.5378C75.2843 39.9307 72.7944 40.1888 70.5843 41.4502H70.5988C68.3924 42.7042 66.913 44.7543 66.2951 47.0553C65.688 49.3344 65.9534 51.8534 67.222 54.0453L67.2656 54.1034C68.5378 56.2662 70.5625 57.7202 72.8198 58.3091C75.0917 58.9452 77.6216 58.6798 79.8026 57.4076L79.9225 57.3494C82.0671 56.0663 83.4993 54.0453 84.0954 51.8207C84.7025 49.5307 84.4626 47.0225 83.1976 44.8307Z" fill="#1BB485"/>
</svg>
