<svg width="123" height="32" viewBox="0 0 123 32" fill="none" xmlns="http://www.w3.org/2000/svg"><g clip-path="url(#clip0_1763_4300)"><path d="M0 6.4h6.088c3.038 0 4.93 1.736 4.93 3.988a3.74 3.74 0 01-.486 1.935 3.67 3.67 0 01-1.406 1.397c.808.251 1.515.76 2.016 1.45.501.69.77 1.527.768 2.384 0 2.772-2.11 4.619-5.553 4.619H0V6.4zm6.154 6.466c1.443 0 2.266-.627 2.266-2.004 0-1.376-.823-1.984-2.266-1.984H2.597v3.988h3.557zm.652 6.829c1.42 0 2.398-.722 2.398-2.164 0-1.443-.985-2.185-2.398-2.185H2.602v4.349h4.204zm6.186-3.155c0-3.785 2.442-5.858 5.285-5.858 1.392 0 2.575.671 3.42 1.46l.87-1.236h1.66v11.267h-2.54v-1.394c-.71.766-1.821 1.62-3.486 1.62-2.598 0-5.218-2.073-5.218-5.859h.01zm8.705.834v-1.645c0-1.623-1.355-2.84-2.999-2.84-1.73 0-3.152 1.172-3.152 3.651 0 2.48 1.412 3.65 3.169 3.65 1.618 0 2.973-1.194 2.973-2.816h.009zm26.213-6.468h-3.109l-4.544 5.225V6.4h-2.532v15.772h2.532v-5.22l4.544 5.22h3.11l-4.932-5.633 4.931-5.634zm6.36 0h-3.109l-4.915 5.634 4.918 5.633h3.11l-4.935-5.633 4.931-5.634zM68.827 6.4L64.212 16.46 59.583 6.4h-2.784v15.773h2.526V11.512l3.712 8.137h2.354l3.712-8.137v10.66h2.509V6.4h-2.784zm4.339 10.14c0-3.785 2.442-5.858 5.285-5.858 1.392 0 2.575.671 3.42 1.46l.877-1.236h1.66v11.267h-2.534v-1.394c-.71.766-1.82 1.62-3.486 1.62-2.6 0-5.219-2.073-5.219-5.859h-.003zm8.705.834v-1.645c0-1.623-1.355-2.84-2.998-2.84-1.732 0-3.153 1.172-3.153 3.651 0 2.48 1.421 3.65 3.175 3.65 1.624 0 2.979-1.194 2.979-2.816h-.003zm4.326-6.468h1.655l.872 1.237c.755-.879 1.494-1.413 2.62-1.413h1.875v2.442h-2.837c-1.047 0-1.653.5-1.653 1.697v7.298h-2.532v-11.26zm31.762 8.363v-6.155h-2.064v-2.208h2.064v-2.18l2.554-1.502v3.682H123v2.208h-2.487v5.75c0 .743.422 1.082 1.265 1.082h1.111v2.227h-1.866c-1.82 0-3.064-.79-3.064-2.904zm-5.176-.929c-.419 1.134-1.341 1.884-2.869 1.884-1.778 0-3.021-1.127-3.131-2.982h8.507v-.797c0-3.627-2.264-5.768-5.413-5.768-2.953 0-5.552 2.343-5.552 5.859 0 3.515 2.222 5.858 5.552 5.858 2.586 0 4.361-1.277 5.135-3.587-.667-.139-1.428-.3-2.229-.47v.003zm-2.914-5.563c1.599 0 2.864.924 3.02 2.59h-6.063c.311-1.644 1.533-2.59 3.043-2.59zm-5.158-1.87h-3.109l-4.549 5.205V6.4h-2.532v15.773h2.532v-5.204l4.544 5.204h3.114l-4.936-5.633 4.936-5.634zm-73.437 9.215c-1.844 0-3.22-1.284-3.22-3.582 0-2.297 1.376-3.583 3.22-3.583 1.592 0 2.614.804 2.973 2.055.578-.118 1.757-.358 2.253-.471-.552-2.417-2.49-3.858-5.25-3.858-3.196 0-5.683 2.365-5.683 5.859 0 3.493 2.487 5.858 5.684 5.858 2.7 0 4.597-1.385 5.237-3.862-.506-.114-1.675-.353-2.247-.47-.412 1.29-1.372 2.054-2.967 2.054z" fill="#1A1A1A"/></g><defs><clipPath id="clip0_1763_4300"><path fill="#fff" d="M0 0h123v32H0z"/></clipPath></defs></svg>