<svg width="110" height="32" viewBox="0 0 110 32" fill="none" xmlns="http://www.w3.org/2000/svg"><g clip-path="url(#clip0_1763_4221)"><g clip-path="url(#clip1_1763_4221)"><path d="M35.835 21.663h-5.142V10.336h5.142c3.705 0 5.56 1.785 5.56 5.355-.002 3.98-1.855 5.972-5.56 5.972zM32.89 19.84h2.613c2.46 0 3.69-1.383 3.69-4.15 0-2.357-1.23-3.536-3.69-3.536H32.89v7.686zm10.806 1.823h-2.258l5.037-11.327h2.364l5.144 11.327h-2.364l-1.493-3.089h-3.8l.755-1.822h2.464l-1.941-4.254-3.908 9.165zm9.045-11.327h9v1.82h-3.4v9.507h-2.197v-9.506h-3.403v-1.821zm10.131 11.327h-2.258l5.037-11.327h2.364l5.143 11.327h-2.366l-1.493-3.089h-3.8l.755-1.822h2.465l-1.94-4.254-3.907 9.165zm16.888 0h-5.143V10.336h5.143c3.707 0 5.559 1.785 5.559 5.355 0 3.98-1.852 5.972-5.56 5.972zm-2.944-1.823h2.612c2.46 0 3.694-1.383 3.694-4.15 0-2.357-1.232-3.536-3.694-3.536h-2.612v7.686zm9.992-3.825c0-3.841 1.987-5.76 5.958-5.76 3.91 0 5.863 1.919 5.863 5.76 0 3.82-1.954 5.73-5.863 5.73-3.795 0-5.78-1.91-5.958-5.73zm5.958 3.904c2.387 0 3.582-1.317 3.582-3.953 0-2.595-1.195-3.893-3.582-3.893-2.45 0-3.675 1.298-3.675 3.893 0 2.636 1.225 3.953 3.675 3.953zm15.036-2.84v2.653c-.508.127-.962.19-1.362.19-2.688 0-4.03-1.36-4.03-4.08 0-2.512 1.425-3.765 4.272-3.765 1.19 0 2.295.211 3.318.634v-1.903c-1.023-.368-2.185-.553-3.484-.553-4.259 0-6.388 1.861-6.388 5.587 0 3.934 2.092 5.903 6.279 5.903 1.44 0 2.636-.2 3.593-.603v-5.926h-3.55l-.743 1.863h2.095zM21.81 21.6l-2.32-1.463-1.934 3.092-2.25-.63-1.98 2.894.101.91 10.77-1.898-.625-6.439L21.81 21.6zm-10.044-2.775l1.728-.227c.28.12.475.166.81.247.523.13 1.126.255 2.022-.176.207-.099.642-.48.816-.695l7.08-1.229.722 8.364L12.815 27.2l-1.049-8.376zm13.15-3.014l-.698.128-1.342-13.272L0 5.204 2.82 27.086l2.677-.372c-.213-.292-.547-.646-1.115-1.098-.79-.627-.51-1.692-.044-2.365.615-1.135 3.787-2.58 3.607-4.395-.065-.66-.175-1.52-.816-2.109-.023.245.02.48.02.48s-.263-.32-.395-.759c-.13-.168-.233-.22-.372-.446-.099.26-.085.56-.085.56s-.214-.486-.25-.897c-.128.184-.16.533-.16.533s-.279-.767-.215-1.18c-.128-.36-.506-1.072-.4-2.693.7.468 2.237.356 2.835-.488.2-.28.335-1.043-.1-2.547-.278-.964-.969-2.401-1.238-2.947l-.032.022c.142.44.435 1.36.548 1.807.34 1.353.43 1.824.27 2.448-.136.542-.46.897-1.285 1.294-.825.4-1.92-.57-1.99-.623-.801-.61-1.422-1.608-1.49-2.092-.072-.53.319-.848.517-1.281-.282.077-.597.214-.597.214s.375-.372.839-.693a4.82 4.82 0 00.506-.36c-.293-.003-.531.003-.531.003s.488-.252.994-.435c-.37-.016-.725-.003-.725-.003s1.09-.466 1.949-.808c.591-.231 1.169-.163 1.493.286.426.588.873.908 1.822 1.106.583-.247.759-.373 1.49-.564.644-.678 1.15-.766 1.15-.766s-.25.22-.318.566c.366-.275.766-.505.766-.505s-.155.183-.3.473l.033.048a7.7 7.7 0 01.927-.437s-.143.174-.31.397c.321-.002.973.013 1.225.041 1.493.032 1.802-1.526 2.376-1.72.717-.245 1.038-.394 2.26.754 1.05.987 1.869 2.751 1.462 3.147-.341.328-1.015-.127-1.76-1.018a3.778 3.778 0 01-.832-1.735c-.119-.598-.576-.944-.576-.944s.265.567.265 1.067c0 .274.036 1.295.494 1.867-.046.084-.066.415-.117.478-.532-.616-1.676-1.057-1.862-1.187.631.495 2.082 1.632 2.639 2.72.526 1.031.215 1.976.482 2.22.076.07 1.133 1.33 1.337 1.964.354 1.104.02 2.265-.443 2.984l-1.297.194c-.19-.05-.317-.077-.488-.17.094-.16.28-.555.282-.637l-.073-.122c-.404.547-1.08 1.079-1.641 1.384-.736.398-1.583.337-2.135.174-1.566-.462-3.046-1.475-3.403-1.741 0 0-.01.212.057.26.394.427 1.3 1.198 2.174 1.734l-1.864.197.882 6.563c-.39.054-.451.08-.879.138-.377-1.273-1.097-2.106-1.885-2.59-.694-.428-1.653-.524-2.571-.35l-.06.066a3.433 3.433 0 012.165.493c.759.46 1.37 1.646 1.596 2.36.29.913.489 1.89-.288 2.925-.553.735-2.165 1.142-3.468.263.348.535.818.973 1.45 1.055.941.122 1.833-.034 2.447-.637.524-.515.803-1.594.728-2.73l.83-.114.3 2.038 13.733-1.583-1.12-10.458zm-8.355-5.536c-.039.084-.1.138-.009.41l.006.017.014.035.037.082c.163.318.342.62.64.773.078-.012.159-.02.241-.025.28-.012.458.03.57.09a1.1 1.1 0 00.006-.248c-.022-.404.084-1.09-.727-1.452-.307-.136-.736-.095-.879.076.026.003.05.008.068.015.218.07.073.142.033.227zm2.274 3.77c-.106-.057-.604-.035-.953.005-.666.075-1.385.296-1.543.413-.286.212-.156.581.055.733.594.423 1.114.709 1.663.639.337-.042.634-.553.844-1.017.146-.318.146-.662-.066-.774zm-5.895-3.27c.189-.17-.935-.394-1.806.174-.643.42-.663 1.32-.049 1.829.062.05.113.086.16.115.18-.081.385-.163.62-.235a5.653 5.653 0 011.001-.221c.13-.14.282-.384.243-.828-.05-.604-.528-.508-.169-.834z" fill="#632CA6"/></g></g><defs><clipPath id="clip0_1763_4221"><path fill="#fff" d="M0 0h110v32H0z"/></clipPath><clipPath id="clip1_1763_4221"><path fill="#fff" transform="translate(0 2.666)" d="M0 0h110v26.667H0z"/></clipPath></defs></svg>