<svg width="1501" height="1015" viewBox="0 0 1501 1015" fill="none" xmlns="http://www.w3.org/2000/svg"><path d="M1001-100l100 58V76l-100 58-100-58V-42l100-58z" stroke="#EBEBEB" stroke-width="1.5"/><path d="M901 76l100 58v118l-100 58-100-58V134l100-58z" stroke="#EBEBEB" stroke-width="1.5"/><path d="M801-100l100 58V76l-100 58-100-58V-42l100-58zM1201-100l100 58V76l-100 58-100-58V-42l100-58z" stroke="#EBEBEB" stroke-width="1.5"/><path d="M1101 76l100 58v118l-100 58-100-58V134l100-58z" stroke="#EBEBEB" stroke-width="1.5"/><path d="M1201 252l100 58v118l-100 58-100-58V310l100-58zM1401 252l100 58v118l-100 58-100-58V310l100-58z" stroke="#EBEBEB" stroke-width="1.5"/><path d="M1301 76l100 58v118l-100 58-100-58V134l100-58z" stroke="#EBEBEB" stroke-width="1.5"/><path d="M1401-100l100 58V76l-100 58-100-58V-42l100-58zM1101 428l100 58v118l-100 58-100-58V486l100-58zM1301 428l100 58v118l-100 58-100-58V486l100-58z" stroke="#EBEBEB" stroke-width="1.5"/><path d="M1001 252l100 58v118l-100 58-100-58V310l100-58z" stroke="#EBEBEB" stroke-width="1.5"/><path d="M901 428l100 58v118l-100 58-100-58V486l100-58z" stroke="#EBEBEB" stroke-width="1.5"/><path d="M801 252l100 58v118l-100 58-100-58V310l100-58z" stroke="#EBEBEB" stroke-width="1.5"/><path d="M701 428l100 58v118l-100 58-100-58V486l100-58z" stroke="#EBEBEB" stroke-width="1.5"/><path d="M601 604l100 58v118l-100 58-100-58V662l100-58zM401 604l100 58v118l-100 58-100-58V662l100-58zM201 604l100 58v118l-100 58-100-58V662l100-58zM801 252l100 58v118l-100 58-100-58V310l100-58z" stroke="#EBEBEB" stroke-width="1.5"/><path d="M601 604l100 58v118l-100 58-100-58V662l100-58zM1001 604l100 58v118l-100 58-100-58V662l100-58zM1201 604l100 58v118l-100 58-100-58V662l100-58zM1401 604l100 58v118l-100 58-100-58V662l100-58z" stroke="#EBEBEB" stroke-width="1.5"/><path d="M1101 780l100 58v118l-100 58-100-58V838l100-58zM901 780l100 58v118l-100 58-100-58V838l100-58zM701 780l100 58v118l-100 58-100-58V838l100-58zM501 780l100 58v118l-100 58-100-58V838l100-58zM301 780l100 58v118l-100 58-100-58V838l100-58zM101 780l100 58v118l-100 58L1 956V838l100-58z" stroke="#EBEBEB" stroke-width="1.5"/></svg>