<svg width="668" height="432" viewBox="0 0 668 432" fill="none" xmlns="http://www.w3.org/2000/svg"><path d="M229.5 334l-14 10" stroke="#C6C6C6"/><circle cx="42.5" cy="392" r="3" stroke="#C6C6C6"/><circle cx="55.5" cy="392" r="3" stroke="#C6C6C6"/><circle cx="200.5" cy="417" r="3" stroke="#C6C6C6"/><circle cx="189.5" cy="404" r="3" stroke="#C6C6C6"/><circle cx="199.5" cy="384" r="3" stroke="#C6C6C6"/><circle cx="215.5" cy="384" r="3" stroke="#C6C6C6"/><circle cx="199.5" cy="361" r="3" stroke="#C6C6C6"/><circle cx="215.5" cy="361" r="3" stroke="#C6C6C6"/><circle cx="215.5" cy="344" r="3" fill="#fff" stroke="#C6C6C6"/><circle cx="229.5" cy="334" r="3" fill="#fff" stroke="#C6C6C6"/><circle cx="245.5" cy="324" r="3" stroke="#C6C6C6"/><circle cx="228.5" cy="315" r="3" stroke="#C6C6C6"/><circle cx="210.5" cy="428" r="3" stroke="#C6C6C6"/><circle cx="258.5" cy="428" r="3" stroke="#C6C6C6"/><circle cx="478.5" cy="428" r="3" stroke="#C6C6C6"/><path d="M32 311h22l9.5 10H79M14 324h35l9.5 10H79" stroke="#C6C6C6"/><circle cx="29.5" cy="406" r="3" stroke="#C6C6C6"/><circle cx="3.5" cy="367" r="3" stroke="#C6C6C6"/><circle cx="57.5" cy="180" r="3" stroke="#C6C6C6"/><circle cx="45.5" cy="163" r="3" stroke="#C6C6C6"/><circle cx="57.5" cy="54" r="3" stroke="#C6C6C6"/><circle cx="43.5" cy="67" r="3" stroke="#C6C6C6"/><circle cx="302.5" cy="21" r="3" stroke="#C6C6C6"/><circle cx="302.5" cy="38" r="3" stroke="#C6C6C6"/><circle cx="601.5" cy="257" r="3" stroke="#C6C6C6"/><circle cx="579.5" cy="213" r="3" stroke="#C6C6C6"/><circle cx="579.5" cy="198" r="3" stroke="#C6C6C6"/><circle cx="579.5" cy="182" r="3" stroke="#C6C6C6"/><circle cx="562.5" cy="182" r="3" stroke="#C6C6C6"/><circle cx="579.5" cy="148" r="3" stroke="#C6C6C6"/><circle cx="551.5" cy="146" r="3" stroke="#C6C6C6"/><circle cx="654.5" cy="244" r="3" stroke="#C6C6C6"/><circle cx="654.5" cy="219" r="3" stroke="#C6C6C6"/><circle cx="654.5" cy="292" r="3" stroke="#C6C6C6"/><circle cx="654.5" cy="304" r="3" stroke="#C6C6C6"/><circle cx="626.5" cy="340" r="3" stroke="#C6C6C6"/><circle cx="598.5" cy="374" r="3" stroke="#C6C6C6"/><circle cx="586.5" cy="323" r="3" stroke="#C6C6C6"/><circle cx="603.5" cy="401" r="3" stroke="#C6C6C6"/><circle cx="542.5" cy="387" r="3" stroke="#C6C6C6"/><circle cx="519.5" cy="402" r="3" stroke="#C6C6C6"/><circle cx="519.5" cy="415" r="3" stroke="#C6C6C6"/><circle cx="542.5" cy="402" r="3" stroke="#C6C6C6"/><circle cx="565.5" cy="402" r="3" stroke="#C6C6C6"/><circle cx="577.5" cy="332" r="3" stroke="#C6C6C6"/><circle cx="429.5" cy="317" r="3" stroke="#C6C6C6"/><circle cx="448.5" cy="192" r="3" stroke="#C6C6C6"/><circle cx="401.5" cy="96" r="3" stroke="#C6C6C6"/><circle cx="419.5" cy="106" r="3" stroke="#C6C6C6"/><circle cx="448.5" cy="206" r="3" stroke="#C6C6C6"/><circle cx="429.5" cy="353" r="3" stroke="#C6C6C6"/><circle cx="429.5" cy="387" r="3" stroke="#C6C6C6"/><circle cx="443.5" cy="387" r="3" stroke="#C6C6C6"/><circle cx="478.5" cy="387" r="3" stroke="#C6C6C6"/><circle cx="478.5" cy="401" r="3" stroke="#C6C6C6"/><circle cx="443.5" cy="336" r="3" stroke="#C6C6C6"/><circle cx="443.5" cy="317" r="3" stroke="#C6C6C6"/><circle cx="462.5" cy="192" r="3" stroke="#C6C6C6"/><circle cx="462.5" cy="206" r="3" stroke="#C6C6C6"/><circle cx="540.5" cy="135" r="3" stroke="#C6C6C6"/><circle cx="605.5" cy="134" r="3" stroke="#C6C6C6"/><circle cx="528.5" cy="123" r="3" stroke="#C6C6C6"/><circle cx="554.5" cy="109" r="3" stroke="#C6C6C6"/><circle cx="537" cy="91.863" r="3" stroke="#C6C6C6"/><circle cx="524" cy="91.863" r="3" stroke="#C6C6C6"/><circle cx="563" cy="63.863" r="3" stroke="#C6C6C6"/><circle cx="443.5" cy="353" r="3" stroke="#C6C6C6"/><circle cx="443.5" cy="370" r="3" stroke="#C6C6C6"/><path d="M426.5 317h-33l-22 13M426.5 353H397M441 385l-15-15h-29M539 387h-35l-29-17h-28M447 353h11l17.5-15.5M517 402h-15l-21-13M517 415h-39l-21-13h-27.5v-12M476.5 399.5L456 387h-9.5M563 402h-18M458.5 291l-15 9v14M462.5 189v-39l21-15H537M554 144l10.5-10H603" stroke="#C6C6C6"/><path d="M448.5 189v-50l22-16H526M373 93l53.5 32h13l21.5-16h90.5M417 104.5l-13-7M448.5 209v18M462.5 209v10M441.5 334l-6.5-6h-25.5l-21 12" stroke="#C6C6C6"/><circle cx="664.5" cy="232" r="3" stroke="#C6C6C6"/><path d="M605 257h9.5l13.5-13h23M587 268h27.5l23.5 24h14M602 321.5l17.5-17.5H651" stroke="#C6C6C6"/><circle cx="600.5" cy="323" r="3" fill="#fff" stroke="#C6C6C6"/><path d="M596 357.5l17.5-17.5H624M539.5 348l25.5 26h31" stroke="#C6C6C6"/><circle cx="594.5" cy="359" r="3" fill="#fff" stroke="#C6C6C6"/><path d="M549.5 310H572l12 11M549.5 321H565l10 9M530.5 353.5L562 386h26l13.5 13M587 245h23.5l13.5-13h37M583 198h23.5l17.5 21h27.5M577 211.5l-14.5-7.5v-18.5M579.5 179v-27.5" stroke="#C6C6C6"/><circle cx="302.5" cy="55" r="3" stroke="#C6C6C6"/><circle cx="278.5" cy="79" r="3" stroke="#C6C6C6"/><circle cx="262.5" cy="90" r="3" stroke="#C6C6C6"/><circle cx="262.5" cy="71" r="3" stroke="#C6C6C6"/><circle cx="168.5" cy="36" r="3" stroke="#C6C6C6"/><circle cx="302.5" cy="4" r="3" stroke="#C6C6C6"/><circle cx="57.5" cy="80" r="3" stroke="#C6C6C6"/><circle cx="76.5" cy="103" r="3" stroke="#C6C6C6"/><circle cx="57.5" cy="94" r="3" stroke="#C6C6C6"/><circle cx="27.5" cy="94" r="3" stroke="#C6C6C6"/><circle cx="71.5" cy="42" r="3" stroke="#C6C6C6"/><circle cx="105.5" cy="227" r="3" stroke="#C6C6C6"/><circle cx="91.5" cy="238" r="3" stroke="#C6C6C6"/><circle cx="119.5" cy="237" r="3" stroke="#C6C6C6"/><circle cx="133.5" cy="237" r="3" stroke="#C6C6C6"/><circle cx="147.5" cy="237" r="3" stroke="#C6C6C6"/><circle cx="187.5" cy="237" r="3" stroke="#C6C6C6"/><circle cx="169" cy="237" r="3" stroke="#C6C6C6"/><circle cx="111.5" cy="284" r="3" stroke="#C6C6C6"/><circle cx="91.5" cy="284" r="3" stroke="#C6C6C6"/><circle cx="91.5" cy="253" r="3" stroke="#C6C6C6"/><circle cx="95.5" cy="321" r="3" stroke="#C6C6C6"/><circle cx="82.5" cy="321" r="3" stroke="#C6C6C6"/><circle cx="82.5" cy="334" r="3" stroke="#C6C6C6"/><circle cx="29.5" cy="311" r="3" stroke="#C6C6C6"/><circle cx="11.5" cy="324" r="3" stroke="#C6C6C6"/><circle cx="18.5" cy="378" r="3" stroke="#C6C6C6"/><circle cx="12.5" cy="401" r="3" stroke="#C6C6C6"/><path d="M93.5 383.5H64l-6.5 6.5M197.5 417h-10L165 394h-7.5M192.5 404H209l23 24h23.5M377 399.5l31.5 28.5h67M197.5 382l-8-8.5H169M217 382l8-8.5h20.5M248 325.5l14 8.5M207 309.5l10 5.5h8M196.5 361H169M244.5 361H218M207.5 428h-23L161 404h-21M93.5 372.5H48l-5.5 6V389" stroke="#C6C6C6"/><path d="M93.5 360.5H47l-17.5 18V403M131 151.5h-26L77 180H60.5M112 134.5H99L71 163H48.5M112.5 69L96 54H60.5M102 75.5L92 67H46.5M171.5 36H193l13-14h78l16.5-16M198 63.5V49l13-14h77l12.5-12" stroke="#C6C6C6"/><path d="M300.5 40.5L290 50h-61l-13.5 13.5M321 70h-27l-13 7.5M260 91.5l-15.5 9.5M260 72.5L244.5 82M306 55h15M31 94h23.5M76.5 100V80H60M123.5 64L99 42H74.5M131.5 165.5h-21l-19 19V235" stroke="#C6C6C6"/><path d="M131.5 180h-17l-9 9.5V224M152 201.5l-32.5 19V234M93.5 348.5H42L24 367H6.5M473 69.363h45.5l5.5 6v13.5" stroke="#C6C6C6"/><path d="M473 57.363h46.5l17.5 18v13.5" stroke="#C6C6C6"/><path d="M473 45.363h51.5l18 18.5H560M18.5 381v13l-4 4.5M111.5 287v23l-14 9.5M91.5 256v25M133.5 240.5V252l19 13M187.5 200.5V234M169 210.5V234M147.5 240.5v8.5l15.5 10.5" stroke="#C6C6C6"/><path d="M321 80l-114 66v132l114 66 114-66V146L321 80z" fill="#fff" stroke="#000"/><path d="M283 322l-38 22v44l38 22 38-22v-44l-38-22z" fill="#fff" stroke="#000"/><g opacity=".7"><path d="M278.33 358.369l4.563-5.136c3.035-2.029 9.287 3.274 7.941 6.089l-4.508 5.797c1.008-1.651-4.153-7.816-7.996-6.75z" fill="#fff"/><path d="M273.819 363.527l3.961-4.519c3.035-2.029 10.111 3.562 8.216 6.531l-3.896 5.019c.411-1.156-5.251-7.803-8.281-7.031z" fill="#fff"/><path d="M266.354 368.477l5.933-4.655c3.035-2.029 11.451 5.363 9.556 8.33l-3.336 7.135c.489-4.737-8.859-11.732-12.153-10.81z" fill="#fff"/><path d="M291.312 377.908l9.115-11.453 6.676 3.833-9.891 12.427-5.9-4.807z" fill="#858585"/><path d="M285.742 373.633l8.324-10.623 6.222 3.767-9.003 11.33-5.543-4.474z" fill="#949494"/><path d="M265.143 357.116l6.116-7.509 5.918 3.383-6.735 8.45-5.299-4.324z" fill="#848484"/><path d="M260.818 353.57l5.457-6.818 4.892 2.796-6.019 7.564-4.33-3.542z" fill="#A7A7A7"/><path d="M278.261 379.932c1.046-1.183-.845-4.536-4.223-7.489-3.378-2.953-6.965-4.388-8.011-3.204-1.046 1.183.845 4.536 4.223 7.489 3.378 2.953 6.965 4.387 8.011 3.204z" fill="#888"/><path d="M312.144 355.953c1.025-1.166.171-3.575-1.907-5.381s-4.594-2.324-5.619-1.158c-1.025 1.166-.171 3.575 1.907 5.381 2.079 1.806 4.594 2.324 5.619 1.158z" fill="#8A8A8A"/><path d="M258.771 375.153c.736-.838.123-2.569-1.371-3.867s-3.302-1.671-4.038-.833c-.737.838-.123 2.57 1.371 3.868 1.493 1.298 3.301 1.67 4.038.832z" fill="#878787"/><path d="M313.713 353.448c-.422-1.182-1.285-2.379-2.43-3.368-1.146-.99-2.461-1.675-3.703-1.93-1.456-.298-2.676.011-3.436.87-.759.859-.906 2.095-.412 3.481.16.441.366.864.615 1.263l-12.331 4.74a5.057 5.057 0 00-.11-.256c-.499-1.093-1.418-2.217-2.59-3.163-1.172-.947-2.525-1.591-3.825-1.827-1.479-.268-2.717.05-3.398.872l.004.004-4.687 5.377-1.925-1.344 3.518-4.384-12.816-7.283-6.701 8.32 11.316 9.189 3.375-4.207 1.852 1.294-2.511 2.88c-.747.024-1.407.238-1.943.652l-.007-.008-4.77 3.746-8.303 3.251a6.89 6.89 0 00-.375-.348c-.861-.744-1.854-1.26-2.796-1.453-1.139-.234-2.142.028-2.752.719-.61.69-.739 1.708-.353 2.792.32.896.97 1.8 1.831 2.544.861.743 1.854 1.259 2.796 1.452.544.112 1.059.11 1.512.003a2.347 2.347 0 001.241-.722c.611-.69.739-1.708.353-2.792a4.983 4.983 0 00-.19-.453l5.014-1.963c.049.65.297 1.464.872 2.476.859 1.516 2.285 3.176 4.016 4.681 1.731 1.506 3.582 2.69 5.212 3.338 1.424.566 2.433.63 3.148.461a2.232 2.232 0 001.186-.688c.166-.187.298-.402.389-.635l3.396-6.968c.274-.52.402-1.104.368-1.69l3.217-4.11 1.862 1.299-4.218 5.268 13.202 10.672 11.374-14.204-14.966-8.47-4.084 5.101-1.881-1.314 4.029-5.151-.008-.006c.171-.246.294-.52.363-.81l13.473-5.179c.141.137.287.271.438.402 1.145.99 2.46 1.675 3.702 1.93.707.144 1.358.146 1.928.011a2.855 2.855 0 001.508-.881c.758-.859.905-2.095.411-3.481zm-55.7 21.786c-.061.069-.308.139-.739.051-.584-.12-1.254-.478-1.838-.982-.584-.504-1.032-1.112-1.231-1.669-.146-.411-.109-.662-.048-.731a.296.296 0 01.146-.069c.125-.03.323-.036.593.019.584.12 1.254.478 1.837.982.585.505 1.033 1.112 1.231 1.668.147.411.11.662.049.731zm47.618-3.334l-8.528 10.65-4.309-3.483 7.952-9.931 4.885 2.764zm-11.27-6.378l4.535 2.567-7.735 9.659-4.001-3.234 7.201-8.992zm-31.934-11.009l4.279-5.317 3.079 1.75-4.631 5.783-2.727-2.216zm8.056 6.544l-3.702-3.008 4.849-6.055 4.204 2.389-5.351 6.674zm7.145 19.233c-.081.065-.689.199-2.08-.376-1.39-.574-2.985-1.612-4.494-2.922-1.509-1.311-2.756-2.743-3.509-4.031-.759-1.296-.698-1.909-.645-1.989a.258.258 0 01.096-.038c.227-.054.84-.06 1.985.412.377.157.746.334 1.104.53-.201.83.653 2.324 2.127 3.604 1.509 1.312 3.158 1.957 3.943 1.6.301.39.578.798.828 1.221.757 1.288.7 1.901.645 1.988v.001zm-3.12-7.889c-1.626-1.359-3.336-2.429-4.856-3.033a9.856 9.856 0 00-.509-.187l3.688-2.895.007.008c.339-.289 1.012-.316 1.846-.07 1.025.301 2.217.988 3.371 1.94l-3.547 4.237zm3.761-6.692c-.812-.557-1.61-.984-2.373-1.275l2.787-3.197c.193-.157.698-.252 1.439-.12.53.103 1.045.276 1.528.516l-3.381 4.076zm2.294-6.627l3.168-3.631-.004-.004c.116-.137.579-.286 1.384-.14a5.892 5.892 0 011.619.572l-3.608 4.171a8.455 8.455 0 00-2.558-.968h-.001zm31.152-3.523c-.479.542-2.34.321-4.167-1.257-1.827-1.578-2.297-3.372-1.818-3.913a.787.787 0 01.419-.223c.774-.183 2.272.205 3.748 1.479 1.827 1.58 2.295 3.373 1.818 3.914z" fill="#000"/></g><path d="M169 256l-38 22v44l38 22 38-22v-44l-38-22z" fill="#fff" stroke="#000"/><path d="M162.542 294.511c.006-.268.006-.536 0-.802 0-.265-.012-.53-.023-.794a12.664 12.664 0 00-.06-.719l-.01-.104a.862.862 0 01.046.054l.024.028a.421.421 0 01.035.048l.029.039c.02.026.036.054.051.08l.008.014.023.042.029.054c.064.128.117.262.158.402.088.276.129.566.129.854.005.287-.03.574-.1.853-.035.14-.082.279-.146.411a1.022 1.022 0 01-.111.192.644.644 0 01-.14.166c.017-.071.023-.138.029-.207l.017-.206.006-.202c.002-.068.003-.136.006-.203zM151.666 300.249l.024-.022c.03.036.041.077.041.121a.485.485 0 01-.017.126.338.338 0 01-.193.194l-.01.004-.009.002a.266.266 0 01-.045.013l-.012.002c-.02.002-.039.004-.059.004-.018 0-.037-.004-.053-.007l-.011-.001a.253.253 0 01-.049-.014l-.007-.003-.008-.003a.237.237 0 01-.053-.03l-.005-.004-.008-.005c-.013-.01-.025-.019-.034-.029l-.013-.015a.392.392 0 01-.028-.031.242.242 0 01-.029-.055c.032-.011.063-.016.089-.021l.022-.004.039-.006.014-.002c.006 0 .012 0 .023-.003a.03.03 0 01.008-.002l.01-.003.014-.002c.01-.002.019-.003.027-.007a.105.105 0 00.017-.004l.018-.004c.005-.005.015-.007.025-.01l.004-.001c.004 0 .005-.001.007-.002l.003-.002.002-.001a.014.014 0 01.006-.002c.003-.001.005-.002.005-.004a.644.644 0 00.182-.115c.022-.016.04-.032.063-.052zM155.848 299.193a.38.38 0 11-.761 0 .38.38 0 01.761 0z" fill="#1A1A1A"/><path fill-rule="evenodd" clip-rule="evenodd" d="M159.776 296.555l-.847.246a2.565 2.565 0 00-.176-.607l1.012-.701a.125.125 0 00.029-.172.12.12 0 00-.17-.03l-.976.679a2.184 2.184 0 00-.485-.608l.666-.873a.125.125 0 00-.023-.173.124.124 0 00-.17.022l-.672.876a2.028 2.028 0 00-.275-.148c-.953-.404-2.099.044-2.882 1.021-.006.003-.006.005-.006.005l-.035.044-.035.044-.006.007-.006.007a1 1 0 00-.037.053l-.027.04-.01.01-.008.009-.025.04c-.011.018-.023.037-.033.056l-.002.001c-.005.005-.01.01-.01.015a.808.808 0 00-.064.104c0 .003 0 .003-.006.006l-.027.049-.002.004a.728.728 0 00-.035.067c-.024.035-.041.071-.059.107l-.006.009a1.175 1.175 0 01-.058.119l-.003.009a.515.515 0 00-.056.123v.003c-.017.038-.035.076-.047.114a.047.047 0 00-.005.01c-.002.004-.003.007-.006.01l-.005.014a.737.737 0 01-.036.095c0 .004-.002.007-.003.011-.001.003-.003.007-.003.011a.742.742 0 00-.02.055.351.351 0 01-.021.057v.008l-.018.055a1.156 1.156 0 01-.017.055c0 .005 0 .014-.006.019a.6.6 0 00-.015.057l-.014.052c0 .009 0 .017-.006.025a.626.626 0 01-.012.056l-.011.053c0 .003-.002.005-.003.007a.01.01 0 00-.003.007l-.009.052a5.442 5.442 0 00-.009.052v.019l-.017.107-.003.012a.637.637 0 00-.015.119c0 .006 0 .011-.006.017a.45.45 0 01-.003.051l-.003.05v.014c-.005.035-.005.071-.005.106v.023l-.003.053a.47.47 0 00-.003.053v.129a.47.47 0 00.003.053l.003.053v.02c.003.017.004.034.005.051l.006.052v.017c.006.071.018.141.029.212l.001.001v.014l.008.052.009.052.003.005a.011.011 0 01.003.006l.053.208v.006l.028.083.007.018v.005c.198.588.584 1.059 1.128 1.289.708.301 1.52.131 2.216-.377.327-.496.521-1.139.521-1.842 0-1.56-.977-2.827-2.176-2.827-.187 0-.362.03-.538.085.737-.72 1.684-1.012 2.48-.674.064.028.128.058.187.094.07.041.14.088.204.136.199.154.357.345.486.57.04.071.081.145.116.221.076.181.141.378.182.586l.035.241v.005c.064.577-.029 1.223-.292 1.853 0-.003 0-.003.005-.006l.003-.01a3.792 3.792 0 00.319-1.848l.889-.257a.127.127 0 00.087-.153.128.128 0 00-.158-.085zm-4.104.027c.205 0 .403.053.579.148a.393.393 0 01-.019.003c-.011.001-.023.002-.034.005-.456.082-.742.608-.637 1.174.099.567.555.961 1.011.879.304-.055.527-.304.62-.63.029.162.047.329.047.501 0 1.15-.702 2.08-1.567 2.08-.859 0-1.561-.93-1.561-2.08 0-1.149.696-2.08 1.561-2.08z" fill="#1A1A1A"/><path fill-rule="evenodd" clip-rule="evenodd" d="M186.637 309.975c-.526-.192-1.099-.096-1.596.156l-.106.055c-.208.109-.426.224-.666.194-.269-.035-.348-.3-.417-.533l-.009-.03-.007-.025-.005-.017c-.238-.77-.299-1.571-.36-2.371a18.413 18.413 0 00-.137-1.37c-.158-1.061-.521-2.17-1.351-2.903a3.66 3.66 0 00-.883-.57c1-1.009 1.362-2.498 1.175-3.882-.111-.802-.386-1.574-.754-2.291a11.845 11.845 0 00-.56-.935c-.235-.368-.471-.737-.656-1.131-.368-.785-.339-1.626-.304-2.471.035-.846.105-1.691.21-2.531.199-1.675.527-3.336.977-4.961.351-1.267 1.462-4.42 2.134-5.657l.101-.187c.263-.487.533-.986.642-1.534.105-.528.029-1.116-.369-1.51-.362-.361-.894-.468-1.391-.471-.556-.003-1.117.107-1.661.23a12.508 12.508 0 00-4.748 2.222c-.497.378-.959.796-1.403 1.234a5.547 5.547 0 00.111-1.817c-.064-.583-.175-1.439-.795-1.705-.31-.134-.661-.079-.976.003-.31.082-.614.197-.907.331a6.51 6.51 0 00-1.637 1.119c-1.052.969-1.795 2.214-2.42 3.478a26.049 26.049 0 00-1.713 4.264c-.398 1.324-.714 3.01-.895 4.509a1.696 1.696 0 00-.333-.522 2.199 2.199 0 00-.28-.226c-.078-.056-.155-.111-.223-.174-.567-.525-1.514-.783-1.865-.741a2.664 2.664 0 00-.836-.424c-.696-.219-1.456-.206-2.123-.192h-.001c-.386.008-.777.017-1.168.123-.382.104-.721.295-1.053.482l-.058.033a7.78 7.78 0 01-.421.232c-.433.227-.9.389-1.38.487-.327.066-.918.126-1.204-.213 0 0-.035-.115-.03-.192.006-.064.017-.126.028-.19l.002-.012a.78.78 0 01.058-.197.81.81 0 01.088-.189.82.82 0 01.129-.17c-.158.041-.31.088-.457.153a2.178 2.178 0 00-.222.102c-.04.019-.075.038-.11.057h-.001l-.105.06c-.884.566-1.009 1.585-1.04 1.838l-.001.009-.02-.012a4.57 4.57 0 00-.489-.212l-.058-.022-.058-.019-.087-.026-.03-.009-.029-.008c-.071-.019-.14-.038-.217-.05a3.775 3.775 0 00-.479-.066 1.073 1.073 0 01.286.31c.07.117.123.246.158.377.035.112.058.228.076.345a.285.285 0 00-.193.011.44.44 0 00-.076-.173.478.478 0 00-.409-.18c-.059-.15-.176-.235-.322-.309a.52.52 0 00-.59.109c-.071.079-.223.304-.006.668.043.073.131.155.217.237l.023.02.033.033c.019.018.037.035.048.049 0 .014 0 .03.006.047l.002.016a.154.154 0 01.004.03c.012.124.053.43.363.501 0 .186.058.367.163.517v.001a.19.19 0 00-.017.035c-.117.317-.117.703.017 1.015.187.449.62.641 1.088.654.023.052.052.104.082.153.07.101.158.192.251.266a5.934 5.934 0 00-.912 2.071c-.339 1.552-.029 3.355.088 3.927-.316.137-.942.438-1.17.723-.327.413.041 1.239.117 1.401.123.279.351.533.608.755.258.219.55.405.807.55.696.391 1.573.711 2.456.903a5.656 5.656 0 001.492.048h.001l.085-.007.09-.011.062-.008.153-.022c.21-.03.409-.074.613-.123l.117-.03-.001.024c-.027.441-.153 2.502.001 3.506.176 1.124.462 1.652.462 1.652s.567 1.125 1.199 1.478l-.105 2.57v.467c0 .094-.07.704-.164 1.032-.094.329-.257.892-.38 1.242-.054.163-.246.62-.447 1.099-.233.554-.479 1.139-.541 1.34a6.7 6.7 0 01-.137.373c-.148.384-.326.843-.232.987.075.119.164.139.286.165l.1.023.579.151c-.105.298-.169.55-.169.698v.044c.046.399.233.375.233.375s1.556.257 2.287.281c.73.023 1.555-.024 1.952-.093.081-.014.154-.022.219-.028.257-.027.396-.041.489-.418.117-.467.281-1.995.281-2.252v-2.602c0-.586-.258-3.355-.328-3.566-.07-.21-.07-.303-.07-.303l-.117-.75s1.012.022 1.649-.071a71.828 71.828 0 011.573-.197s.614.689.853.993c.234.304 1.035 1.595 1.199 2.228.164.631.21 1.124.21 1.57v.728s-.21 1.103-.52 1.945c-.304.846-.514 1.29-.514 1.29s-.24.446.257.517c.491.071 1.35.167 1.35.167-.076.18-.128.339-.128.419v.024c.029.093.169.164.742.282.573.117 3.503.14 4.023 0 .483-.131.533-.472.576-.765v-.001l.004-.024.005-.031c.046-.304-.141-1.76-.141-1.76s-.327-1.713-.421-2.438c-.07-.55-.386-1.505-.701-2.334.199-.263.415-.523.707-.679.298-.161.702-.191.959.063.115.114.199.249.283.384.101.161.202.323.354.448.269.222.632.348.983.317.356-.029.678-.196.912-.454.427.143.865.246 1.309.298.667.077 1.363.025 1.988-.216.31-.12.591-.287.866-.476l.075-.052a4.55 4.55 0 01.702-.424c.597-.262 1.193-.082 1.737.211.196.105.386.22.576.335.364.221.728.441 1.131.587.678.244 1.479.287 2.117-.09.485-.293 1.964-2.92-.474-3.801zm-8.18-33.664c.983-.531 2.105-.78 3.216-.936.468-.066.982-.096 1.427.09.485.203.701.671.678 1.177-.022.505-.261.959-.495 1.404-.078.148-.155.295-.224.443a4.288 4.288 0 01-.127.246v.001a4.531 4.531 0 00-.049.092 34.888 34.888 0 00-1.8 4.715 35.12 35.12 0 00-1.088 4.91c-.117.829-.21 1.658-.269 2.492l-.017.216c-.06.776-.123 1.58 0 2.348.127.784.556 1.455.977 2.115l.017.025c.432.679.812 1.385 1.04 2.16.427 1.42.328 3.072-.643 4.26a3.47 3.47 0 01-.339.358c-.672-.251-1.409-.358-2.122-.446.035-.172.052-.309.052-.309l-.427.304-.21.071c-.211.071-.421.047-.684-.117-.257-.165-.521-.54-.801-1.125a3.594 3.594 0 00-.871-1.16c-.211-.176-.825-.332-.825-.332s.07-.197.141-.618c.07-.421-.357-1.078-.357-1.078-.082.372-.316.681-.591.925-.941-2.263-1.882-4.606-1.847-7.096.017-1.295.173-2.599.328-3.885l.011-.094c.164-1.322.345-2.643.614-3.948.994-4.885 2.181-5.533 5.285-7.208zm-6.11 18.471c.369 1.36.912 2.668 1.462 3.965-.286.2-.579.345-.789.432-.27.113-.865.222-1.425.324-.47.086-.915.168-1.119.243-.45.164-.9.493-1.157.796-.182.215-.247.408-.354.726-.045.132-.097.285-.167.47-.234.632-.263 1.741-.263 1.741a5.268 5.268 0 00-1.263-.313 5.582 5.582 0 00-1.643.118c.31-.416.433-.955.527-1.459l.227-1.241v-.001l.001-.006v-.001a257.652 257.652 0 01.5-2.696c.221-1.163.442-2.328.622-3.498.015-.096.033-.231.055-.399.183-1.372.664-4.97 2.085-8.144l.034-.076c.814-1.823 1.647-3.69 3.082-5.106.039-.038.221-.181.411-.33.16-.126.326-.256.414-.33a65.18 65.18 0 00-1.292 6.942c-.17 1.333-.328 2.676-.392 4.018a12.086 12.086 0 00.444 3.825zm-4.572-13.74c1.064-2.29 2.526-4.904 5.186-5.566.339-.085.737-.12.965.192.199.265.304.629.316.952.004.106.013.231.024.369.055.694.134 1.707-.393 2.143-1.72 1.415-2.389 2.453-2.868 3.197l-.008.013c-.579.908-1.041 1.888-1.456 2.882-.427 1.026-.842 2.063-1.175 3.122-.917 2.916-1.185 5.168-1.368 6.713-.065.544-.119 1.001-.188 1.368l-.9 4.898c-.129.692-.316 1.669-.889 2.159a9.47 9.47 0 00-.423.207c-.359.181-.76.384-1.173.49a2.241 2.241 0 01-.193.045l.047-.083a6.09 6.09 0 00.38-.747 6.15 6.15 0 00.327-1.297c.113-.679.19-1.364.268-2.048v-.001c.024-.206.047-.413.072-.619.777-.383 1.537-.919 1.982-1.732a3.121 3.121 0 00.029-2.909v-.002c-.022-.022.013-.186.068-.436.133-.605.376-1.716.177-2.55-.187-.788-.485-1.428-1.099-1.908.234-2.894 1.064-6.222 2.292-8.852zm-5.566 22.237c-.047-.438-.076-1.201-.094-1.886l.023-.028c.2-.261.722-.939 1.065-1.247.263-.238.579-.419.772-.52l-.062.545c-.071.624-.141 1.25-.237 1.869-.07.415-.157.832-.309 1.228-.103.285-.254.544-.406.805-.046.079-.093.16-.138.241-.328.03-.55.011-.55.011s.029-.096-.064-1.018zm-10.63-14.49a1.8 1.8 0 00-.105-.079c.047.024.094.049.14.076.056.031.108.065.16.098l.039.026c.018.01.034.021.05.032l.05.033.046.033.047.036a3.126 3.126 0 01.497.465.74.74 0 01.103.123l.002.003a.07.07 0 01.008.01.04.04 0 01.01.012l.003.01.003.006.002.004.004.004c0 .049.005.099.01.15l.001.009c.024.213.065.402.106.563a1.502 1.502 0 00-.375-.24.276.276 0 00-.011-.069l-.035-.123c0-.012-.005-.02-.01-.028l-.002-.004-.012-.031-.017-.057c-.009-.018-.016-.037-.024-.055-.007-.018-.014-.037-.023-.055a3.293 3.293 0 00-.098-.21l-.002-.003a2.55 2.55 0 00-.245-.397 1.864 1.864 0 00-.322-.342zm-1.035 1.013c0-.002-.001-.003-.003-.005l-.002-.003a1.816 1.816 0 01-.193-.198c-.047-.085-.117-.24-.03-.342.065-.065.188-.09.264-.049.134.069.187.115.204.216l-.24.381zm.345.601c-.122-.018-.152-.1-.175-.27 0-.027-.006-.048-.011-.07l-.001-.001.328-.512c.058-.025.146.014.193.071.023.03.029.091.035.156l.003.039c.001.013.003.025.003.038l-.375.549zm.199.195c.088-.126.521-.725.532-.725 0 0 .029-.003.111.046 0 .003.009.008.022.017.077.048.314.198.06.481l-.462.767a.608.608 0 01-.263-.586zm.17 1.486a1.139 1.139 0 01-.024-.654l.01.006a.311.311 0 00.084.035c0 .085.006.17.023.254.076.307.31.562.608.662a.846.846 0 00.006.167c-.31-.027-.59-.158-.707-.47zm.772.038a.664.664 0 01-.41-.457 1.463 1.463 0 01-.017-.359l.152-.232c.175-.267.423-.647.444-.671.027.014.059.028.092.043.09.041.192.088.247.136.094.079.193.218.17.355l-.678 1.185zm.339.772a.86.86 0 01-.123-.599l.713-1.248v-.006c.003-.003.005-.005.006-.008.002-.003.003-.006.006-.008v-.011c0-.003 0-.003.006-.006v-.013l.016.004a.05.05 0 00.013.004.206.206 0 00.123.038h.012c.07.022.128.044.192.072a.682.682 0 01.199.111c.088.08.135.2.158.285.029.106.035.223.041.34v.002l-.047.082a4.89 4.89 0 00-.415.334 7.085 7.085 0 00-.719.818.7.7 0 01-.181-.191zm20.464 23.107c.403 1.57.403 3.212.403 3.776 0 .563-.38.703-.918.796-.544.093-2.286.164-2.713.117-.374-.041-.494-.119-.648-.218l-.059-.038c-.135-.085-.124-.109.088-.564.082-.176.194-.417.339-.75.514-1.196.491-2.767.421-3.637-.064-.789-.501-1.56-.825-2.133a6.908 6.908 0 00-.824-1.211s-.731-.785-1.509-1.792c-.777-1.007-1.228-2.485-1.228-2.485-.117.797.854 2.463.854 2.463-1.479.397-3.35.339-3.882.312-.105-.528-.322-1.491-.527-1.625 0 0 .497 3.705.568 4.361.07.657.163 1.924.14 2.51-.023.585-.047 2.556-.047 2.909 0 .352-.164 1.031-.21 1.22-.047.186-.141.422-.684.514-.544.093-1.743.164-2.31.072-.567-.093-.988-.236-.988-.236s-.24-.046-.123-.585c.123-.539.474-1.713.661-1.946.193-.236.497-1.453.497-1.453s.304-.564.421-3.847c.035-.884-.023-3.541-.023-3.541l-.211 1.078s-.778-.047-1.298-.985c-.52-.939-.713-1.672-.813-2.253-.134-.793-.011-2.99.018-3.461l.025-.008.039-.014a9.38 9.38 0 00.579-.213 7.3 7.3 0 00.555-.255c.182-.09.363-.189.538-.295a7.205 7.205 0 01-1.134.446 8.68 8.68 0 01-.824.211l-.053.01c-.099.02-.198.036-.297.052h-.001a6.053 6.053 0 01-.597.066l-.07.005-.076.003a2.544 2.544 0 01-.152.005l-.073.001c-.072 0-.146.001-.219-.003a5.348 5.348 0 01-1.164-.164c-.456-.099-.9-.23-1.309-.386a7.583 7.583 0 01-1.117-.523c.029-.011.058-.022.088-.036a1.5 1.5 0 00.333-.191c.105-.079.199-.175.275-.292a.898.898 0 00.128-.381.775.775 0 00-.07-.37l-.027.074c-.012.032-.024.064-.037.094-.024.051-.047.1-.07.145l-.011.015c-.005.006-.01.011-.013.017a.28.28 0 00-.019.024l-.002.003-.002.003a.093.093 0 01-.023.03l-.024.028a.998.998 0 00-.032.034c-.022.024-.043.047-.067.067a2.107 2.107 0 01-.515.301c-.08.034-.164.067-.248.1h-.001l-.113.045c-.339-.249-.579-.511-.69-.761l-.199.085.193-.093c-.14-.304-.281-.799-.164-.944.158-.205.795-.514 1.152-.659a.218.218 0 00.135-.252c-.006-.022-.503-2.175-.123-3.916a5.59 5.59 0 01.871-1.957c-.029.384.146.778.474.994a.123.123 0 00.076.021c.04 0 .087-.021.111-.06a.14.14 0 00-.035-.188.823.823 0 01-.34-.827l.205-.336a3.202 3.202 0 011.14-1.117c.193.063.369.132.439.268a.882.882 0 01.064.192c.023.112.047.224.053.334a.778.778 0 01-.193.506.146.146 0 00.011.194.143.143 0 00.094.036.13.13 0 00.099-.047c.17-.189.263-.438.258-.689 0-.137-.03-.266-.059-.392l-.003-.017c-.017-.078-.036-.166-.085-.248-.076-.145-.204-.235-.35-.304a6.439 6.439 0 012.052-.471c1.199-.084 2.444.116 3.339.534a4.318 4.318 0 00-.082.49 6.271 6.271 0 00-.03 1.042c.024-.344.059-.689.141-1.023.076-.334.181-.657.345-.952a2.582 2.582 0 011.333-1.191c1.649 1.478 1.812 2.619 1.877 4.176.058 1.336-.737 2.499-.924 2.756a.217.217 0 00-.088.221v.003c.029.151.047.307.047.463 0 .159-.024.317-.053.476a3.86 3.86 0 01-.31.933c-.069.148-.149.293-.229.438l-.005.008a6.434 6.434 0 01-.274.427c-.094.14-.199.276-.304.407a5.39 5.39 0 01-.334.387 7.416 7.416 0 00.649-.638l.024.607.023.446.158 3.268s.345-.02.684-.044l.125-.01c.048-.004.095-.007.138-.012.1-.008.187-.019.252-.027.312-.044.735-.26 1.649-.725l.14-.072c1.011-.517 2.567-.257 3.11-.117.538.14 1.48 1.01 1.86 1.57.374.564.327 1.618.327 1.618a10.215 10.215 0 01-.12-.28l-.014-.037.014.037c.117.336.072.899.05 1.123-.024.235-.374 1.781-.468 2.088-.053.161-.047.383-.023.555a.38.38 0 00.251.31c.433.144.784.563.784.563s.21.353.59.949c.164.266.38.747.602 1.336l.082.235c.258.698.509 1.511.708 2.294zm2.672-2.274c-.363-.031-.649-.253-.836-.554l-.022-.033-.02-.032c-.178-.276-.352-.548-.678-.665-.327-.117-.713-.044-1.011.123a2.24 2.24 0 00-.655.597l-.097-.244-.023-.057-.032-.08a8.152 8.152 0 00-1.017-1.806c-.137-.183-.426-.337-.663-.463-.126-.067-.237-.126-.302-.177-.135-.11-.099-.161-.07-.181a54.682 54.682 0 003.835 2.195l.205.107c.696.364 1.411.739 2.152 1.017a1.03 1.03 0 01-.766.253zm11.407-.219c-.556.314-1.245.246-1.83.038-.368-.132-.722-.349-1.078-.567-.702-.43-1.413-.865-2.255-.662-.396.097-.728.323-1.06.551-.168.114-.336.229-.513.328a3.298 3.298 0 01-1.877.404c-1.469-.116-3.173-.988-3.877-1.348l-.022-.011a55.571 55.571 0 01-4.193-2.39l.023-.077c.039-.13.088-.296.141-.497.065-.244.129-.542.199-.898.214-1.114.154-1.464.017-2.267l-.041-.242a4.28 4.28 0 00-.181-.723s.673-.615 1.006-.73c.327-.117.614.093.684.257.07.164.094.422-.07.539-.17.118-.637.493-.637.493.193.282.777.399 1.181.375.397-.022.684-.329.684-.329-.094.4-.567 1.478-.567 1.478.327-.071 1.391-.564 1.391-.564l.421.093c.754.047 1.386-.356 1.602-.61.14-.161.19-.342.228-.484.04-.148.068-.252.176-.244 1.531.118 1.976-.821 1.976-.821s-.304-.071-.632-.118c-.333-.046-.543-.328-.73-.585-.193-.257-.193-.618-.193-.618s.45-.156.684-.214c.239-.058.59-.221.824-.481a.82.82 0 00.164-.288c1.029.126 2.116.279 2.982.895.877.629 1.268 1.694 1.45 2.72.094.528.134 1.062.174 1.596.05.662.1 1.324.252 1.972.065.285.141.589.275.852.111.23.334.355.585.377.275.025.532-.085.772-.208.239-.123.467-.238.736-.276.573-.08 1.17.142 1.55.574.742.84-.029 2.488-.421 2.71z" fill="#1A1A1A"/><path d="M169 124l-38 22v44l38 22 38-22v-44l-38-22z" fill="#fff" stroke="#000"/><path d="M165.347 186.842c-.199.592-.759 1.556-1.501 2.137-.855.684-1.853.738-2.884.615-.918-.1-1.568-.41-2.876-.901-.558-.211-1.256-.371-1.863-.538-1.082-.298-3.714-.793-4.444-1.038-.503-.168-1.041-.292-1.416-.766-.446-.562-.428-1.169-.23-1.752a7.197 7.197 0 00.344-3.189 9.693 9.693 0 01-.012-1.889c.039-.491.62-1.009 1.187-1.136.584-.132 1.169-.263 1.753-.399.583-.136 1.023-.485 1.333-.996.272-.467.579-.913.919-1.335.263-.057.228-.248.201-.434v-.633-.21c-.025-1.531.652-2.837 1.332-4.154.494-.953 1.041-1.871 1.583-2.792.663-1.123 1.414-2.202 2.079-3.33.606-1.027 1.191-2.066 1.67-3.16.304-.694.608-1.405.684-2.148.085-.812.152-1.63.023-2.459-.108-.696-.025-1.421-.025-2.134 0-1.074-.077-2.158.096-3.217.219-1.341.891-2.48 1.928-3.389 2.161-1.891 5.032-2.047 7.447-.751.747.401 1.322 1.042 1.782 1.76.657 1.025.947 2.158 1.087 3.353.143 1.238.037 2.475.063 3.712.016.712.011 1.426.142 2.127.133.704.388 1.379.756 1.996 1.235 2.082 2.735 3.992 4.053 6.019.851 1.308 1.694 2.62 2.437 3.991.731 1.343 1.191 2.758 1.023 4.303a6.543 6.543 0 01-.474 1.88c-.071.171-.091.281.143.369.73.281 1.015.894 1.107 1.609.117.886.382 1.701 1.101 2.298.524.436 1.063.856 1.539 1.342.21.215.415.443.506.746.228.76-.236 1.22-.734 1.667-.112.101-.234.194-.35.291l-.236.168c-.633.415-2.1 1.369-2.201 1.431-.793.478-2.753 1.966-3.728 2.773-.307.242-.61.544-.952.741-.67.395-1.44.596-2.221.579-1.236-.025-3.002-.669-3.371-2.382-2.504-1.136-5.619-1.523-8.8-.775zm-.915-27.283l-.018.193a10.578 10.578 0 01-1.235 4.425c-.415.787-.818 1.582-1.122 2.42-.031.085-.046.177-.138.235-.521.324-.844.822-1.124 1.334-.705 1.289-1.306 2.624-1.617 4.063-.214 1.001-.337 2.013.057 3.004.404 1.019 1.127 1.804 1.958 2.503.831.699 1.728 1.317 2.524 2.057.863.801.856 1.334-.008 2.142-.034.032-.071.063-.106.094-.397.351-.397.351.025.702l.055.045c1.679 1.319 3.589 1.765 5.706 1.517 2.2-.258 3.929-1.286 5.274-2.994a.742.742 0 00.172-.478c.018-.819.045-1.639.081-2.459.02-.467.048-.934.189-1.385.229-.73.651-1.031 1.421-1.006.214.007.428 0 .635.07.161.053.26.025.306-.167.232-.974.352-1.953.23-2.955-.164-1.335-.576-2.599-1.07-3.839-.341-.862-.669-1.761-1.343-2.41-.45-.432-.626-.929-.812-1.462a11.894 11.894 0 00-.356-.913 22.367 22.367 0 01-.937-2.529c-.276-.881-.476-1.78-.704-2.702a17.375 17.375 0 01-3.116 2.06 3.173 3.173 0 01-2.441.224c-1.026-.3-1.856-.856-2.486-1.789zm-2.697 29.731c1.283.063 2.285-.62 2.933-1.897.545-1.075.285-2.117-.454-3.046-.418-.525-.908-.99-1.293-1.541l-4.127-5.891a4.307 4.307 0 00-.847-.941c-.699-.555-1.645-.447-2.209.248a3.656 3.656 0 00-.435.722c-.403.829-1.052 1.335-1.976 1.499-.502.086-.999.202-1.487.347-.6.184-.927.578-1.013 1.182-.038.361-.037.725.004 1.086.104 1.255.104 2.495-.361 3.703-.302.786.012 1.431.8 1.772.775.336 1.602.503 2.423.696 1.83.432 3.695.732 5.438 1.492a6.668 6.668 0 002.604.569zm17.874-10.349c-.213 0-.427.014-.641 0-1.23-.104-1.582-.569-1.388-1.751.038-.23.322-.506.079-.683-.196-.14-.521-.122-.79-.16a2.687 2.687 0 00-.391-.007c-.466 0-.784.223-.973.639a2.1 2.1 0 00-.189.672c-.1 1.131-.119 2.267-.129 3.4a13.81 13.81 0 01-.449 3.467c-.27 1.012-.439 2.037-.206 3.083.099.447.285.837.63 1.152 1.245 1.142 3.421 1.21 4.747.097 1.655-1.393 3.374-2.694 5.219-3.835.668-.404 1.31-.847 1.924-1.326.669-.533.713-1.032.163-1.682-.142-.17-.303-.329-.462-.487a4.263 4.263 0 00-.494-.455c-1.096-.781-1.7-1.826-1.812-3.161-.036-.432-.214-.807-.6-1.069-.445-.304-.505-.297-.762.171-.16.288-.346.56-.556.814-.449.547-.998.932-1.718 1.037-.398.057-.796.12-1.202.084zm-14.961-19.609c.31.611.813 1.106 1.434 1.411.985.499 1.995.744 3.064.206 1.051-.53 2.05-1.138 2.945-1.897.879-.744.706-1.782-.356-2.188-.974-.371-1.958-.715-2.939-1.065-.382-.135-.784-.246-1.184-.21-1.543.131-2.699.946-3.622 2.107-.285.361-.17.727.214 1.007.314.23.632.458.965.659 1.012.608 2.1.784 3.25.48 1.024-.271 1.906-.823 2.764-1.417.101-.07.184-.218.383-.141a.688.688 0 01-.094.121c-.717.561-1.46 1.083-2.304 1.449-1.094.474-2.198.533-3.32.101-.424-.164-.794-.417-1.2-.623zm6.397-2.993c.241.093.448.17.653.253.123.05.196 0 .269-.094.56-.73.935-1.507.788-2.467-.128-.83-.707-1.58-1.43-1.76-.77-.192-1.615.163-2.128.886-.33.466-.446 1.004-.503 1.551-.082.808-.059.821.731 1.041.009 0 .021-.004.033-.007.044-.094-.003-.179-.021-.269a1.572 1.572 0 01.299-1.293c.257-.344.602-.531 1.046-.467.444.064.685.345.836.727.255.648.059 1.32-.573 1.899zm-4.918-.651c.225-.105.488-.1.49-.435.003-.752-.143-1.465-.57-2.099-.26-.385-.625-.607-1.115-.544-.49.063-.795.351-.942.798-.335 1.022-.149 1.985.397 2.889.231.385.248.375.621.035-.06-.056-.122-.108-.179-.165-.465-.461-.601-1.277-.31-1.856.275-.545.83-.623 1.242-.172.211.226.338.515.361.821.017.231.002.462.002.728h.003z" fill="#4E4D4B"/><path d="M164.429 159.56c.63.934 1.46 1.49 2.483 1.79a3.152 3.152 0 002.44-.224 17.321 17.321 0 003.116-2.06c.228.923.428 1.822.704 2.703.262.86.575 1.704.937 2.528.135.299.252.605.357.913.186.533.362 1.03.812 1.463.674.649 1.002 1.545 1.343 2.41.492 1.242.904 2.505 1.069 3.838.123 1.002 0 1.981-.229 2.955-.046.192-.143.221-.306.167-.208-.07-.423-.063-.635-.07-.771-.025-1.193.276-1.421 1.007-.143.451-.17.918-.19 1.385-.035.817-.062 1.637-.08 2.458a.753.753 0 01-.172.478c-1.343 1.709-3.072 2.74-5.274 2.994-2.117.248-4.027-.197-5.706-1.517l-.055-.044c-.423-.356-.423-.356-.025-.703.036-.031.071-.062.105-.094.865-.81.871-1.341.009-2.142-.796-.74-1.694-1.359-2.524-2.057-.831-.698-1.554-1.483-1.959-2.502-.393-.992-.274-2.004-.057-3.005.312-1.439.912-2.774 1.617-4.062.28-.512.603-1.011 1.124-1.335.093-.058.108-.149.138-.235.305-.838.707-1.633 1.123-2.42a10.554 10.554 0 001.234-4.425c.007-.043.012-.084.022-.194z" fill="#F5F5F5"/><path d="M161.732 189.291a6.664 6.664 0 01-2.607-.569c-1.743-.759-3.607-1.059-5.435-1.491-.819-.193-1.645-.361-2.424-.696-.788-.342-1.102-.984-.799-1.773.464-1.208.464-2.448.36-3.703a4.982 4.982 0 01-.003-1.085c.082-.605.412-.999 1.012-1.183.488-.145.985-.26 1.487-.346.927-.168 1.573-.671 1.977-1.499.116-.257.262-.499.434-.723.564-.695 1.51-.802 2.21-.248.327.271.613.588.847.941l4.127 5.891c.385.551.875 1.016 1.293 1.541.739.929.997 1.972.454 3.046-.648 1.277-1.65 1.96-2.933 1.897zM179.608 178.94c.406.036.804-.027 1.204-.085.723-.105 1.269-.492 1.718-1.037.21-.254.396-.526.556-.814.257-.468.317-.475.762-.171.383.262.564.637.6 1.07.112 1.334.713 2.378 1.812 3.16.177.139.342.291.494.455.159.158.318.317.462.487.551.65.506 1.149-.163 1.682-.614.479-1.257.922-1.924 1.326-1.845 1.141-3.564 2.442-5.219 3.835-1.324 1.113-3.502 1.045-4.747-.097-.343-.315-.531-.702-.63-1.152-.233-1.049-.064-2.071.206-3.083a13.81 13.81 0 00.449-3.467c.01-1.133.029-2.269.129-3.4a2.1 2.1 0 01.189-.672c.188-.416.507-.637.973-.639.13-.007.261-.005.391.007.269.038.594.017.79.16.243.177-.041.454-.079.683-.194 1.182.158 1.647 1.388 1.751.21.016.425.001.639.001zM164.646 159.333c.406.206.776.459 1.198.621 1.121.432 2.225.374 3.319-.101.844-.366 1.588-.887 2.305-1.449a.726.726 0 00.093-.12c-.199-.079-.285.07-.383.141-.855.594-1.74 1.146-2.764 1.416-1.15.305-2.238.128-3.25-.479-.333-.201-.651-.43-.965-.659-.383-.281-.499-.646-.214-1.007.923-1.159 2.08-1.974 3.622-2.108.403-.034.802.077 1.184.211.981.351 1.965.694 2.939 1.065 1.063.406 1.235 1.443.356 2.188-.895.758-1.894 1.365-2.945 1.896-1.069.538-2.077.294-3.064-.205a3.17 3.17 0 01-1.431-1.41zm3.227-3.252c.168.143.362.254.571.328.056.022.12.038.156-.023a.132.132 0 00.013-.085.131.131 0 00-.04-.077c-.174-.216-.4-.201-.7-.143zm-.89.024a.517.517 0 00-.57.083c-.067.055-.1.135-.029.211.06.067.132.036.19-.004.122-.082.242-.172.406-.29h.003z" fill="#B3B3B3"/><path d="M171.043 156.338c.632-.578.828-1.251.57-1.896-.15-.382-.402-.665-.836-.727-.434-.062-.789.123-1.045.466a1.578 1.578 0 00-.3 1.293c.018.09.065.176.022.269-.013 0-.024.01-.034.007-.789-.219-.812-.232-.73-1.041.056-.547.172-1.084.503-1.55.512-.724 1.358-1.079 2.127-.887.723.181 1.303.93 1.43 1.761.148.96-.228 1.736-.787 2.466-.072.096-.143.144-.269.094-.203-.085-.41-.162-.651-.255z" fill="#F5F5F5"/><path d="M166.124 155.689c0-.264.014-.497 0-.729a1.35 1.35 0 00-.361-.821c-.412-.451-.967-.373-1.242.172-.29.579-.155 1.395.31 1.857.057.057.119.109.179.164-.373.341-.39.351-.621-.034-.546-.905-.732-1.867-.396-2.89.142-.447.455-.735.941-.798.486-.063.855.16 1.115.545.427.632.57 1.346.57 2.098-.007.335-.27.331-.495.436z" fill="#EAEAEA"/><path d="M207 58l-38 22v44l38 22 38-22V80l-38-22z" fill="#fff" stroke="#000"/><path d="M194.527 108.704c-.873-.33-1.37-.931-1.487-1.816-.279-2.083.522-3.142 2.677-3.555 1.018-.194 2.044-.233 3.076-.233.208 0 .493.093.574-.19.068-.237-.041-.465-.224-.641-.234-.223-.536-.297-.855-.328-1.047-.102-2.065.002-3.011.459-.352.169-.561.142-.761-.19a7.045 7.045 0 00-.684-.949c-.334-.386-.185-.572.232-.754 1.905-.83 3.883-.99 5.91-.57 1.045.216 1.657.884 1.839 1.894.242 1.337.081 2.685.119 4.027.012.438-.045.885.6.952.162.017.213.143.214.279v1.494a.271.271 0 01-.086.197.292.292 0 01-.205.082h-1.491c-.508-.012-.898-.442-1.007-.636-.057-.103-.199-.104-.291-.018-.489.471-1.798.792-3.101.792-.838.002-1.846-.223-2.038-.296zm3.683-1.846c.82-.173 1.242-.847 1.197-1.639-.011-.21-.04-.405-.306-.408-1.025-.011-2.057-.039-3.048.268-.477.147-.587.533-.576.974.011.441.242.728.679.832.299.074 1.132.167 2.052-.027h.002zM216.075 108.704c-.873-.33-1.37-.931-1.488-1.816-.278-2.083.523-3.144 2.679-3.555 1.018-.194 2.044-.233 3.076-.233.208 0 .493.093.574-.19.069-.237-.041-.465-.225-.641-.233-.223-.533-.297-.854-.328-1.046-.102-2.065.002-3.011.459-.353.169-.561.142-.762-.19a6.944 6.944 0 00-.682-.949c-.335-.386-.186-.572.232-.754 1.904-.83 3.882-.99 5.909-.57 1.045.216 1.657.884 1.841 1.894.243 1.337.082 2.685.12 4.027.012.438-.045.885.6.952.161.017.213.143.213.279v1.494a.27.27 0 01-.085.197.292.292 0 01-.205.082h-1.494c-.509-.012-.898-.442-1.006-.636-.059-.103-.201-.104-.291-.018-.49.471-1.799.792-3.102.792-.839.002-1.847-.223-2.039-.296zm3.683-1.846c.82-.173 1.242-.847 1.197-1.639-.012-.21-.04-.405-.306-.408-1.025-.011-2.057-.039-3.048.268-.477.147-.588.533-.577.974.012.441.243.728.679.832.3.074 1.133.167 2.053-.027h.002zM180 95.66c-.006-.5.133-.656.679-.66h2.487c.526 0 .644.17.634.63-.027 1.304-.013 2.606-.005 3.909 0 .2-.035.498.163.57.259.093.378-.18.529-.32 2.118-1.974 4.641-3.174 7.569-3.598.419-.06.663-.128.613-.597-.034-.326.156-.424.466-.255 1.244.68 2.488 1.358 3.732 2.036.335.183.345.373.008.556-1.224.67-2.448 1.338-3.673 2.006-.353.193-.582.129-.538-.29.049-.47-.207-.462-.569-.408-4.468.658-8.158 4.728-8.294 9.088-.011.378-.08.517-.526.517h-2.623c-.501.019-.658-.133-.652-.616V95.659zM214.958 101.842a.258.258 0 01-.077.183.285.285 0 01-.188.08c-1.733.068-2.399.931-2.414 2.235a425.481 425.481 0 00-.005 4.2.317.317 0 01-.099.23.348.348 0 01-.24.096h-1.972a.347.347 0 01-.241-.097.321.321 0 01-.1-.232v-8.229a.249.249 0 01.07-.176.275.275 0 01.175-.085l1.673-.16a.282.282 0 01.192.052c.054.04.091.098.103.164.074.398.267.587.536.397.507-.358 1.211-.575 2.295-.678a.278.278 0 01.279.158c.015.033.023.07.023.107l-.01 1.755z" fill="#858585"/><path d="M192.458 108.846h-2.581a.284.284 0 01-.191-.073.264.264 0 01-.085-.179c-.152-2.819-.935-4.26-2.293-5.832-.229-.266-.247-.466.041-.699a18.311 18.311 0 011.71-1.232c.354-.226.565-.183.829.137 1.616 1.959 2.789 4.37 2.846 7.609a.254.254 0 01-.08.19.276.276 0 01-.196.079zM208.624 106.785a9.74 9.74 0 01-.872-.007c-.565-.043-1.105-.133-1.108-.842-.004-.541-.007-2.378-.009-4.088h1.991a.243.243 0 00.169-.067.226.226 0 00.07-.163v-1.528a.223.223 0 00-.07-.162.234.234 0 00-.169-.067h-1.991c0-1.046.002-1.85.006-2.018.009-.345-.14-.434-.493-.401-.461.041-.96.112-1.274.16a.434.434 0 00-.238.12.41.41 0 00-.118.231l-.27 1.91h-1.41a.245.245 0 00-.169.066.225.225 0 00-.07.163v1.528c0 .061.025.119.07.162a.245.245 0 00.169.067h1.25l-.008 4.872c-.011.97.899 2.139 2.432 2.139h2.084a.3.3 0 00.209-.083.279.279 0 00.087-.201v-1.542a.229.229 0 00-.021-.097.236.236 0 00-.058-.082.268.268 0 00-.189-.07zM231.722 108.847a.283.283 0 01-.198-.079.263.263 0 01-.083-.191v-5.24c0-1.892-3.886-1.909-3.886.466v4.774a.262.262 0 01-.082.191.286.286 0 01-.199.079h-2.061a.286.286 0 01-.199-.079.262.262 0 01-.082-.191v-8.363a.29.29 0 01.089-.208.314.314 0 01.217-.086h1.411a.314.314 0 01.27.156l.238.458h.188c2.558-1.556 5.486-.85 6.26.652.395.768.395 1.343.395 2.112v5.279a.262.262 0 01-.082.191.286.286 0 01-.199.079h-1.997z" fill="#858585"/><path d="M131 58L93 80v44l38 22 38-22V80l-38-22z" fill="#fff" stroke="#000"/><path d="M136.91 106h-2.808v-.325c.208-.113.468-.217.78-.312v-3.042c0-.676-.095-1.205-.286-1.586-.191-.39-.537-.585-1.04-.585a1.4 1.4 0 00-.611.13 1.828 1.828 0 00-.494.312c-.147.13-.273.282-.377.455a2.003 2.003 0 00-.234.52v3.796c.139.035.269.074.39.117.13.043.256.108.377.195V106h-2.795v-.325c.269-.139.555-.243.858-.312v-8.229l-.988-.104v-.338c.251-.104.542-.195.871-.273.338-.078.659-.143.962-.195h.325v4.589h.013a2.89 2.89 0 01.78-1.04c.347-.286.763-.429 1.248-.429.347 0 .654.043.923.13.277.078.507.221.689.429.182.208.321.49.416.845.095.347.143.789.143 1.326v3.289c.147.035.295.074.442.117.147.043.286.108.416.195V106zm1.152 0v-9.454h3.62c.683 0 1.251.107 1.703.323.456.212.796.503 1.02.872.228.37.342.788.342 1.256 0 .385-.074.714-.222.988a1.852 1.852 0 01-.595.66 2.527 2.527 0 01-.836.365v.092c.336.018.657.121.965.309.311.185.565.446.762.785.197.339.295.748.295 1.228 0 .489-.118.929-.355 1.32-.237.388-.594.694-1.071.919-.477.225-1.077.337-1.801.337h-3.827zm1.713-1.431h1.842c.622 0 1.07-.119 1.343-.356.277-.24.416-.547.416-.923a1.41 1.41 0 00-.799-1.292c-.255-.133-.56-.199-.914-.199h-1.888v2.77zm0-4.003h1.694c.296 0 .562-.053.799-.161a1.35 1.35 0 00.559-.466 1.25 1.25 0 00.207-.72c0-.367-.129-.668-.387-.905-.256-.237-.636-.356-1.141-.356h-1.731v2.608zm6.831 5.434v-9.454h3.546c.726 0 1.336.135 1.828.406.495.27.869.643 1.122 1.117.255.47.383 1.006.383 1.606 0 .607-.128 1.145-.383 1.616a2.746 2.746 0 01-1.131 1.113c-.499.268-1.113.401-1.842.401h-2.35v-1.408h2.119c.425 0 .772-.073 1.043-.221.271-.148.471-.351.6-.61.133-.258.199-.555.199-.89 0-.336-.066-.632-.199-.887a1.345 1.345 0 00-.604-.596c-.271-.144-.621-.216-1.048-.216h-1.57V106h-1.713zm8.367 0v-9.454h6.056v1.435h-4.344v2.567h3.929v1.436h-3.929V106h-1.712z" fill="#000"/><path d="M121.672 92.976l-4.1 1.119-7.691 13.32 1.082 4.11 4.1-1.119 7.69-13.32-1.081-4.11z" fill="#757575" stroke="#000" stroke-width=".336"/><path fill="gray" d="M114.402 99.678l1.809 1.044-.479.83-1.81-1.044zM117.692 101.578l1.81 1.044-.48.83-1.809-1.044zM113.301 101.588l1.81 1.044-.48.83-1.809-1.044zM116.59 103.486l1.81 1.045-.48.83-1.809-1.045zM112.198 103.496l1.81 1.044-.48.83-1.809-1.044zM115.488 105.396l1.81 1.044-.48.83-1.809-1.044z"/><path d="M121.672 92.976l-4.1 1.119-7.691 13.32 1.082 4.11 4.1-1.119 7.69-13.32-1.081-4.11z" stroke="#000" stroke-width=".5"/><path d="M118.02 100.439l8.224 4.749-.159 9.203-8.224-4.748.159-9.204zM117.034 99.871l-8.224-4.748-7.891 4.74 8.224 4.748 7.891-4.74z" fill="#F3F3F3" stroke="#000" stroke-width=".5"/><path d="M119.483 93.536l-.584-2.218M122.444 95.248l2.212-.604" stroke="#000" stroke-width=".5"/><ellipse cx="118.762" cy="90.796" rx=".665" ry=".671" transform="rotate(30 118.762 90.796)" fill="#000"/><ellipse rx=".665" ry=".671" transform="scale(-1 1) rotate(-30 113.752 280.834)" fill="#000"/><path fill="#4F4F4F" d="M118.772 95.34l2.303 1.33-1.342 2.323-2.303-1.33z"/><path fill="#BABABA" d="M119.21 95.148l.165.095-.192.332-.164-.095zM117.677 97.807l.164.095-.191.332-.165-.095zM121.26 97.108l-.097.166-.329-.19.096-.166zM118.628 95.59l-.096.166-.33-.19.097-.166zM119.539 95.34l.164.095-.191.332-.165-.095zM118.006 97.996l.165.095-.192.332-.164-.095zM121.068 97.44l-.096.166-.329-.19.096-.166zM118.436 95.92l-.096.166-.33-.19.097-.166zM119.868 95.529l.165.095-.192.332-.164-.095zM118.335 98.188l.164.095-.191.332-.165-.095zM120.876 97.771l-.096.167-.33-.19.096-.167zM118.244 96.254l-.096.166-.33-.19.097-.166zM120.197 95.721l.164.095-.191.332-.165-.095zM118.664 98.375l.165.095-.192.332-.164-.095zM120.684 98.104l-.096.166-.329-.19.096-.166zM118.053 96.584l-.096.166-.33-.19.097-.166zM120.526 95.91l.165.095-.192.332-.164-.095zM118.993 98.564l.165.095-.192.332-.164-.095zM120.493 98.435l-.096.167-.33-.19.096-.167zM117.861 96.916l-.096.166-.33-.19.097-.166zM120.855 96.1l.164.095-.191.332-.165-.095zM119.322 98.756l.164.095-.191.332-.165-.095zM120.301 98.77l-.096.166-.329-.19.096-.166zM117.669 97.25l-.096.166-.33-.19.097-.166z"/><path d="M359 14l-38 22v44l38 22 38-22V36l-38-22z" fill="#fff" stroke="#000"/><g style="mix-blend-mode:luminosity" opacity=".7"><path d="M359.734 80.5c9.971 0 18.053-.968 18.053-2.162s-8.082-2.162-18.053-2.162c-9.97 0-18.053.968-18.053 2.162s8.083 2.162 18.053 2.162z" fill="#EAEAEA"/><path d="M367.191 79.291s-1.305-1.524-1.34-1.602c-.035-.077-.117-.205-.095-.318.022-.114.599-3.076.582-3.381a.646.646 0 00-.971-.491c-.575.285-.995.198-1.031 1.13-.036.931-.267 2.695-.246 2.83.02.134-.089.606.267.993.356.39 1.226.988 1.758 1.458.463.408 1.743.357 1.076-.619z" fill="#1E1E1E"/><path d="M367.19 79.291s-1.305-1.524-1.34-1.602c-.035-.077-.117-.205-.095-.318.022-.114.599-3.076.582-3.381a.646.646 0 00-.971-.491c-.575.285-.035-.08-.071.85-.035.932-.184 2.543-.017 2.993.178.481 1.141 1.748 1.674 2.217.462.407.658.334.238-.268z" fill="#3F4040"/><path d="M366.74 80.324c-.299 0-.611-.098-.795-.26a25.425 25.425 0 01-1.586-1.527c-.341-.373-.382-.811-.399-.998-.003-.024-.004-.045-.007-.06-.01-.07.011-.276.076-.901.063-.6.15-1.424.17-1.954.031-.825.376-.958.776-1.11.106-.04.215-.081.33-.14.273-.134.551-.134.779 0 .253.151.376.415.387.608.019.345-.383 3.312-.388 3.335-.009.046.036.133.063.184l.028.054c.042.077.713 1.058 1.126 1.657.351.513.176.796.041.919-.144.134-.368.193-.601.193zm-1.028-6.775a.64.64 0 00-.286.074c-.128.064-.249.11-.355.15-.383.147-.576.22-.6.863-.021.54-.108 1.368-.172 1.973-.039.38-.08.773-.076.835a.904.904 0 01.009.072c.016.172.048.533.327.836.341.373 1.014 1.02 1.566 1.507.248.22.83.258 1.037.069.151-.138.039-.378-.083-.556-.333-.484-1.113-1.617-1.15-1.697-.005-.013-.014-.028-.022-.043-.046-.09-.115-.224-.089-.363.028-.156.398-2.997.384-3.269a.528.528 0 00-.253-.385.437.437 0 00-.237-.066z" fill="#000"/><path d="M365.625 48.541c21.704 16.224 12.094 33.685 1.226 22.216-6.23-6.572-6.91-16.425-5.781-17.99 1.131-1.568 4.555-4.226 4.555-4.226z" fill="#68C1FF"/><path d="M366.225 50.012c11.127 7.229 9.432 25.383.626 20.744-7.901-4.163-6.909-16.425-5.78-17.991 1.131-1.567 5.154-2.753 5.154-2.753z" fill="#3999D5"/><path d="M374.076 56.186l-3.482-.385a2.054 2.054 0 01-1.079-.46l-2.384-1.965.121-.151 2.384 1.965c.283.233.621.376.978.416l3.482.385-.02.195zM376.34 59.826l-3.42-.261a2.398 2.398 0 01-1.059-.373l-4.103-2.659.104-.164 4.103 2.66c.293.19.629.308.971.343l3.419.26-.015.194zM373.136 63.12l-.032.193 5.383.93.033-.192-5.384-.93z" fill="#EAF6FD"/><path d="M378.967 67.114l-2.855-.524a1.817 1.817 0 01-1.047-.68c-1.557-2.048-2.574-3.323-2.787-3.499-.39-.32-3.965-2.137-4.001-2.155l.085-.174c.148.076 3.629 1.846 4.035 2.179.309.252 1.899 2.32 2.819 3.532.234.308.566.523.932.608l2.852.523-.033.19zM378.555 71.7l-2.294-.588c-.35-.094-.743-.223-1.01-.557-.775-.968-3.318-4.14-3.497-4.337-.419-.454-1.779-.968-2.592-1.275-.158-.059-.294-.11-.398-.153l.07-.18.396.151c.829.313 2.215.838 2.664 1.325.179.194 2.511 3.105 3.505 4.347.208.26.503.38.909.49l2.294.589-.047.187z" fill="#EAF6FD"/><path d="M375.741 74.368l-.192.008-.132-3.015a1.18 1.18 0 00-.24-.888l-1.16-1.458.15-.122 1.159 1.457c.229.287.331.66.283 1.03l.132 2.988z" fill="#EAF6FD"/><path d="M373.635 74.685c-2.187 0-4.63-1.318-6.95-3.766-3.641-3.841-5.14-8.53-5.708-10.982-.634-2.728-.881-6.218-.091-7.311 1.139-1.577 4.459-4.163 4.6-4.272l.137-.108.14.105c4.922 3.679 8.555 7.628 10.8 11.739 1.873 3.43 2.65 6.85 2.187 9.626-.404 2.422-1.722 4.152-3.617 4.745a4.83 4.83 0 01-.927.194c-.187.019-.379.03-.571.03zm-8.009-26.094c-.33.258-3.444 2.703-4.523 4.198-.713.99-.491 4.38.137 7.084.563 2.425 2.043 7.06 5.641 10.854 2.464 2.6 5.057 3.896 7.297 3.652.3-.034.593-.094.876-.183 1.793-.561 3.043-2.212 3.429-4.527.453-2.716-.312-6.07-2.157-9.447-2.223-4.068-5.822-7.981-10.7-11.63z" fill="#000"/><path d="M356.385 48.21c-23.568 16.118-13.797 34.486-1.905 22.956 6.816-6.61 7.806-16.784 6.644-18.44-1.163-1.657-4.739-4.515-4.739-4.515z" fill="#68C1FF"/><path d="M353.803 50.201c-10.824 8.936-8.341 19.359-2.877 23.64 7.971-3.877 8.533-19.72 7.134-21.177-1.4-1.456-4.257-2.463-4.257-2.463z" fill="#1CA1EA"/><path d="M347.171 55.858l-.015-.195 3.721-.29c.383-.031.749-.17 1.057-.404l2.594-1.96.114.157-2.593 1.96a2.202 2.202 0 01-1.158.44l-3.72.292zM347.982 63.066l-5.762.797.026.193 5.762-.797-.026-.193z" fill="#EAF6FD"/><path d="M341.663 67.014l-.027-.193 3.056-.454a1.732 1.732 0 001.01-.6c1.014-1.224 2.763-3.316 3.099-3.567.442-.332 4.198-2.055 4.357-2.13l.079.178c-.039.018-3.898 1.789-4.323 2.107-.233.176-1.351 1.465-3.066 3.537a1.933 1.933 0 01-1.126.667l-3.059.455zM342.576 71.447l1.824-.398c.436-.1.754-.216.984-.481 1.094-1.256 3.657-4.195 3.853-4.39.491-.49 1.982-.988 2.873-1.287.169-.057.314-.105.426-.145l.063.184c-.112.04-.259.09-.428.146-.875.292-2.339.784-2.798 1.24-.196.196-2.991 3.402-3.844 4.38-.292.337-.714.457-1.085.543l-1.801.393-.067-.185z" fill="#EAF6FD"/><path d="M344.941 74.244l.194-2.706a1.392 1.392 0 01.329-1.055l1.275-1.471.144.128-1.275 1.471c-.216.25-.319.582-.281.913v.019l-.2 2.777-.186-.076zM348.462 74.685l-.191-.007.076-2.263c.015-.432.185-.844.479-1.158l1.938-1.958.134.136-1.936 1.956c-.26.277-.412.644-.424 1.03l-.076 2.264z" fill="#EAF6FD"/><path d="M347.308 75.011a5.526 5.526 0 01-1.852-.314c-1.992-.72-3.318-2.6-3.636-5.16-.645-5.19 2.807-13.568 14.437-21.522l.14-.095.133.106c.147.117 3.612 2.892 4.784 4.562.81 1.155.452 4.758-.295 7.56-.673 2.52-2.395 7.325-6.377 11.186-2.472 2.396-5.061 3.677-7.334 3.677zm-1.499-.488c2.502.746 5.653-.489 8.644-3.389 3.935-3.815 5.638-8.566 6.304-11.059.979-3.674.905-6.518.337-7.328-1.113-1.587-4.375-4.22-4.708-4.488-11.51 7.88-14.933 16.138-14.297 21.244.306 2.453 1.566 4.251 3.458 4.934.087.03.174.06.262.086z" fill="#000"/><path d="M350.682 56.93c-.359-.017-2.732 2.07-3.505 2.573-.359.233-1.903-.034-2.674.41-.687.396-1.038 1.415-.49 1.903.216.192.712-.055.925-.172.379-.212 2.18-.489 2.758-.627.641-.153 2.14-1.926 3.258-2.698.872-.604.39-1.358-.272-1.39z" fill="#333"/><path d="M350.49 56.949c-.352-.07-2.732 2.07-3.505 2.573-.359.234-1.903-.034-2.674.41-.687.396-1.038 1.415-.49 1.903.216.192.638-.7.85-.818.38-.211 2.191-.773 2.784-.795.592-.022 2.048-1.835 3.149-2.63.185-.134.496.252.553.096.154-.412-.33-.673-.667-.74z" fill="#3F4040"/><path d="M344.252 61.915c-.182 0-.361-.042-.486-.154a1.396 1.396 0 01-.465-1.158c.038-.374.238-.683.565-.872.48-.276 1.309-.268 2.042-.26.416.005.886.01 1.003-.066.227-.147.607-.448 1.049-.794 1.404-1.106 2.43-1.88 2.865-1.798.349.066.593.274.651.556.073.356-.159.75-.639 1.083-.467.323-1.014.85-1.541 1.359-.866.836-1.416 1.348-1.787 1.362-.593.022-2.357.42-2.697.61-.137.076-.35.132-.56.132zm1.297-2.169c-.58 0-1.204.03-1.547.226a.841.841 0 00-.429.66 1.11 1.11 0 00.374.923c.156.138.553.087.735-.014.408-.226 2.221-.62 2.817-.643.288-.01.991-.688 1.611-1.286.535-.517 1.09-1.051 1.575-1.388.379-.262.575-.56.526-.797-.035-.169-.197-.297-.435-.343-.345-.063-1.787 1.068-2.647 1.746-.446.35-.831.654-1.069.809-.176.114-.535.117-1.152.11-.117-.003-.237-.003-.359-.003z" fill="#000"/><path d="M358.993 76.437c1.952.096 4.129-.193 6.098-1.15.035-.019.118-.318.147-.346 3.058-2.783 6.193-5.239 5.955-12.677-.209-6.551-1.927-10.05-5.485-12.311-2.297-1.46-12.934-.49-15.383 7.095-2.929 9.075.861 19.01 8.668 19.39z" fill="#FDE100"/><path d="M368.443 52.504c-10.116 5.99-10.499 5.36-17.057 1.965-.458.682-.553 1.11-.64 1.303 6.976 6.195 13.75 2.576 14.443 2.554 1.819-.057 5.476-2.505 5.476-2.505s-1.51-2.53-2.222-3.317zM351.078 71.207c3.737 3.562 12.192 4.09 17.639.172-1.147 1.585-2.084 2.573-3.439 3.552-.043.02-.051.377-.096.398-3.607 1.583-9.973 2.482-14.104-4.122z" fill="#E8B120"/><path d="M349.666 59.575c4.636 3.906 14.367 5.684 21.18-1.72.824 4.071.468 8.437-.588 10.695-8.289 5.406-19.409 1.48-19.96.786-1.616-3.974-1.063-8.425-.632-9.761z" fill="#1E1E1E"/><path d="M351.193 61.49c-2.158-.996-2.517 5.927.566 6.526 3.281.637 5.609-1.914 4.039-4.225-.753-1.107-2.134-1.16-4.605-2.3z" fill="#2D2D2D"/><path opacity=".2" d="M364.335 55.314c2.235-.78 6.334 1.163 5.71 6.79-.393 3.547-2.156 5.386-3.531 6.43.472-.103 2.05 1.692 3.755.215 1.985-5.524.186-14.193-1.417-15.919-.695.328-4.517 2.484-4.517 2.484z" fill="#262626"/><path d="M369.523 58.046c.474 1.046.704 2.39.519 4.06-.391 3.528-.965 3.548-2.336 4.597 1.045-.338 1.455-.764 3.479-2.339.022-1.868.169-4.548-.587-7.45-.531.599-.609.741-1.075 1.132z" fill="#1E1E1E"/><path d="M360.484 76.68c-.474 0-.977-.034-1.511-.106-3.245-.44-5.767-1.981-7.491-4.58-1.476-2.225-2.275-5.118-2.312-8.363-.067-5.822 2.575-12.538 6.96-13.236.775-.124 1.575-.33 2.348-.529 1.134-.292 2.307-.594 3.45-.652 1.753-.088 3.211.113 3.9.54 1.234.768 2.644 1.82 3.746 3.804 1.311 2.362 1.915 5.51 1.846 9.624-.079 4.687-1.638 7.365-3.955 9.947-1.566 1.743-3.512 3.552-6.981 3.552zm-4.312-26.015c-3.785.605-6.804 6.418-6.73 12.962.036 3.191.819 6.031 2.265 8.212 1.68 2.53 4.136 4.032 7.301 4.462 4.309.584 6.52-1.428 8.254-3.36 2.341-2.606 3.806-5.15 3.884-9.764.07-4.064-.523-7.166-1.81-9.484-1.072-1.93-2.446-2.956-3.65-3.704-.645-.4-2.044-.586-3.746-.5-1.115.056-2.274.355-3.395.644-.779.2-1.586.407-2.373.532z" fill="#000"/><path d="M366.764 75.636c.234.456.295 1.441 2.219 1.533 1.073.053 1.415.765.126.812-2.666.095-2.637-.766-3.048-1.308-1.019-1.349-1.708-3.23-1.257-3.498.484-.289.862-.305 1.175.13.392.55.551 1.876.785 2.331z" fill="#3F4040"/><path d="M370.203 44.331c3.746 7.173-2.237 13.173-10.62 13.127-6.195-.034-12.509-4.83-10.373-11.307.635-1.922 2.012-3.832 4.132-4.653 4.794-1.858 10.37-2 13.796-.454 1.331.6 2.47 2.147 3.065 3.287z" fill="#1E1E1E"/><path d="M370.202 44.332c2.88 7.172-3.073 10.833-11.456 10.786-6.195-.034-11.35-2.564-9.535-8.966.645-2.28 2.374-4.975 7.722-5.705 9.947-1.359 11.962 1.573 13.269 3.885z" fill="#2D2D2D"/><path d="M359.68 57.693h-.098c-3.798-.021-7.393-1.717-9.382-4.427-1.541-2.1-1.959-4.583-1.212-7.181 1.063-3.69 4.791-5.808 10.783-6.13 6.017-.32 8.902.835 10.639 4.27 1.498 2.96 1.471 5.975-.076 8.488-.936 1.522-2.415 2.786-4.274 3.655-1.854.868-4.06 1.325-6.38 1.325zm1.892-17.513c-.561 0-1.157.018-1.786.051-5.866.314-9.508 2.364-10.536 5.931-.723 2.513-.319 4.913 1.169 6.94 1.938 2.64 5.45 4.294 9.166 4.315h.096c2.281 0 4.447-.45 6.266-1.3 1.812-.847 3.249-2.076 4.157-3.55 1.495-2.428 1.518-5.346.066-8.217-1.501-2.962-3.905-4.17-8.598-4.17z" fill="#000"/><path d="M360.309 51.469c-.576-.517-.835-1.763-.263-3.065.497-1.13 1.912-2.405 3.49-3.645 3.395-2.668 6.954.715 4.075 4.641-2.723 3.712-6.285 2.98-7.302 2.069z" fill="#5B5B5C"/><path d="M360.309 50.888c-.64-1.213-.622-3.428 2.773-6.098 3.395-2.669 6.869-.098 4.479 3.844-2.389 3.943-6.61 3.467-7.252 2.254z" fill="#00FFC9"/><path d="M360.034 49.049c.072-.828.73-2.426 3.339-4.477 1.847-1.451 3.094-.955 3.886-.205.947.897.265 3.26-1.337 4.864-1.923 1.926-5.275 2.932-5.888-.182z" fill="#000"/><path d="M362.316 51.89a3.56 3.56 0 01-.366-.018c-1.074-.112-1.829-.7-2.188-1.704-.284-.794-.061-1.773.643-2.833 1.06-1.595 3.732-3.777 5.012-3.824 1.586-.056 2.289.584 2.603 1.13.44.768.565 2.306-.532 4.117-1.086 1.794-3.335 3.132-5.172 3.132zm-2.297-1.816c.405 1.133 1.288 1.453 1.959 1.523 1.803.188 4.169-1.15 5.279-2.983.697-1.15 1.131-2.782.529-3.833-.402-.703-1.199-1.034-2.358-.994-.903.033-3.517 1.778-4.796 3.703-.457.685-.933 1.69-.613 2.584z" fill="#000"/><path d="M353.071 51.654c1.066.697 4.307 1.031 4.606-1.373.299-2.404-2.677-5.852-4.66-6.047-1.983-.194-4.581 4.389.054 7.42z" fill="#5B5B5C"/><path d="M353.019 51.104c.978.817 4.205 1.267 4.504-1.138.299-2.404-2.342-6.015-3.579-6.045-2.286-.056-5.363 3.48-.925 7.183z" fill="#00FFC9"/><path d="M357.512 49.207c-.075-1.327-1.57-4.552-3.568-5.147-1.27-.18-2.185 1.248-2.351 2.527-.504 3.879 5.241 6.7 5.919 2.62z" fill="#000"/><path d="M355.148 51.945c-.931 0-1.837-.36-2.637-1.064-1.363-1.198-2.078-3.127-1.738-4.693.401-1.848 2.128-2.427 3.185-2.365.836.048 1.838 1.228 2.497 2.315.833 1.375 1.314 2.843 1.258 3.83-.046.805-.487 1.446-1.181 1.71-.46.179-.925.267-1.384.267zm-4.11-5.698c-.32 1.471.358 3.291 1.65 4.426.646.568 1.995 1.42 3.749.749.6-.23.965-.765 1.006-1.467.053-.934-.413-2.342-1.219-3.67-.783-1.293-1.679-2.15-2.281-2.186-.969-.055-2.541.47-2.905 2.148z" fill="#000"/><path opacity=".8" d="M365.375 45.844a.338.338 0 00.336-.341c0-.188-.15-.34-.336-.34a.338.338 0 00-.335.34c0 .188.15.34.335.34zM353.489 45.64a.339.339 0 00.336-.34.339.339 0 00-.336-.341.339.339 0 00-.336.34c0 .19.151.342.336.342z" fill="#fff"/><path d="M367.133 41.567s1.545-5.125 1.257-7.413c-.253-2.009-2.24-2.154-2.057.053.433 5.206-.564 6.427-.68 6.757-.177.496 1.072 1.208 1.48.603z" fill="#1A1A1A"/><path d="M366.052 41.656s.42-.934.737-2.398c.305-1.412.511-3.332.523-4.463.007-.587.393-1.44.272-1.779-.357-.986-1.256-.46-1.252 1.193.011 4.474-.665 6.355-.763 6.692-.097.337.155.603.483.755z" fill="#3F4040"/><path d="M366.769 41.888c-.262 0-.534-.068-.664-.133-.513-.258-.76-.568-.677-.854.03-.103.065-.21.106-.33.265-.79.708-2.112.567-6.349-.037-1.112.24-1.64.899-1.712.522-.056 1.423.08 1.619 1.616.284 2.24-1.186 7.445-1.295 7.574-.118.14-.333.188-.555.188zm-.543-.381c.213.106.734.155.876.028.154-.446 1.518-5.238 1.247-7.375-.125-.98-.581-1.457-1.32-1.377-.347.038-.696.236-.657 1.428.144 4.288-.309 5.64-.58 6.449-.038.114-.073.218-.102.317-.041.134.181.352.536.53z" fill="#000"/><path d="M354.69 41.47s-.962-5.355-2.157-7.436c-1.049-1.827-3.042-1.02-1.975 1.028 2.516 4.834 2.532 6.23 2.583 6.598.05.368 1.432.407 1.549-.19z" fill="#1A1A1A"/><path d="M353.771 41.929s0-.8-.234-1.539c-.625-1.972-1.927-5.352-1.872-5.838.076-.667.051-1.417-.259-1.499-.863-.227-1.584.595-.848 2.01 2.516 4.833 2.532 6.228 2.583 6.597.053.187.469.288.63.269z" fill="#3F4040"/><path d="M353.549 42.114c-.353 0-.583-.148-.634-.412-.027-.138-.046-.281-.068-.447-.12-.89-.321-2.38-2.304-6.058-.746-1.382-.175-1.945.103-2.122.291-.185.63-.241.953-.16.431.108.824.453 1.135.996 1.219 2.124 2.109 7.33 2.093 7.473-.048.415-.757.709-1.225.728l-.053.002zm-2.243-8.96a.964.964 0 00-.514.154c-.46.292-.464.915-.01 1.757 2.008 3.722 2.212 5.244 2.334 6.153.022.161.041.3.065.43.034.177.272.195.411.19.453-.02.943-.298.965-.485-.006-.168-.88-5.25-2.058-7.302-.275-.478-.608-.777-.966-.867a.837.837 0 00-.227-.03zM345.402 63.834l-1.881-5.085 1.209-.257 1.728 4.926-1.056.416z" fill="#000"/><path d="M336.994 37.392a.42.42 0 01.235.07l1.367 1.193 5.733 17.318-.138.67-1.338.614-.641-.498-5.954-17.329.275-1.661c.035-.226.247-.377.461-.377zm0-1.242a1.7 1.7 0 00-1.668 1.413l-.275 1.659-.051.315.103.3 5.954 17.33.121.35.29.226.64.498.581.453.668-.306 1.339-.615.566-.26.127-.619.137-.67.068-.33-.106-.319-5.733-17.318-.107-.324-.256-.222-1.367-1.192-.06-.053-.065-.044a1.636 1.636 0 00-.906-.272z" fill="#E0FFFE"/><path d="M344.638 57.483l-1.846.755-.514-1.33-5.997-17.405a.295.295 0 01-.006-.153l.351-1.696c.052-.238.351-.36.552-.225l1.337 1.172a.29.29 0 01.113.142l5.735 17.39.275 1.35z" fill="#fff"/><path d="M344.577 57.4l-.122.11-.677.38-.284-1.837-5.947-16.688-.639-1.965 1.685 1.255 5.732 17.317.252 1.429z" fill="#40FFFF"/><path d="M342.873 58.428l-.853-1.603-5.971-17.38.283-1.714a.65.65 0 01.383-.487.645.645 0 01.625.044l.021.017 1.409 1.229.018.054 5.738 17.333.003.016.277 1.753-1.933.738zm-.474-1.755l.663 1.24 1.289-.49-.222-1.403-5.709-17.247-1.313-1.144a.252.252 0 00-.229-.006.242.242 0 00-.145.176l-.266 1.61 5.932 17.264z" fill="#00D8D2"/><path d="M346.261 62.734l-1.128.384-.237 1.183.89.8 1.128-.384.237-1.182-.89-.8z" fill="#D8D8D8"/><path d="M345.786 65.24a.134.134 0 01-.09-.035l-.89-.8a.14.14 0 01-.044-.131l.237-1.184a.134.134 0 01.089-.104l1.129-.383a.134.134 0 01.133.027l.89.8a.138.138 0 01.043.132l-.237 1.184a.137.137 0 01-.09.103l-1.128.384a.144.144 0 01-.042.007zm-.742-.988l.773.694.979-.333.206-1.026-.773-.695-.979.333-.206 1.027z" fill="#000"/><path d="M345.248 58.768l-.216.083-.117.368-1.012.387-.344-.194-.222.085a.41.41 0 01-.529-.243l-.217-.587a.419.419 0 01.239-.536l1.91-.729a.408.408 0 01.528.243l.218.586a.416.416 0 01-.238.537z" fill="#D8D8D8"/><path d="M345.25 58.766l-.216.083-.117.368-1.013.386-.343-.193-.222.085a.409.409 0 01-.529-.243l2.678-1.022a.415.415 0 01-.238.536z" fill="#B2B2B2"/><path d="M343.89 59.872l-.356-.302-.147.056a.545.545 0 01-.704-.324l-.217-.587a.56.56 0 01.319-.714l1.91-.729a.547.547 0 01.704.324l.217.587a.56.56 0 01-.013.423.545.545 0 01-.306.29l-.147.057-.103.477-1.157.442zm-.302-.617l.356.302.87-.33.104-.478.284-.11a.28.28 0 00.16-.357l-.217-.586a.273.273 0 00-.354-.163l-1.909.729a.28.28 0 00-.161.358l.218.587a.274.274 0 00.353.163l.296-.115z" fill="#000"/><path d="M346.025 64.328a.404.404 0 00.401-.407.404.404 0 00-.401-.407.404.404 0 00-.401.407c0 .225.18.407.401.407z" fill="#D53B35"/><path d="M346.024 64.463a.542.542 0 01-.537-.545c0-.3.241-.545.537-.545.296 0 .537.244.537.545 0 .3-.242.545-.537.545zm0-.813a.268.268 0 00-.265.27c0 .148.118.269.265.269.147 0 .265-.12.265-.27a.267.267 0 00-.265-.269z" fill="#000"/><path d="M343.597 59.87c-.456.656-.177 1.69.522 1.9.276.082.364-.408.58-.517.753-.375-.39-2.404-1.102-1.383z" fill="#333"/><path d="M343.655 59.765c-.541.587-.495 1.108.224.983 1.109-.19.252-1.496-.224-.983z" fill="#3F4040"/><path d="M344.188 61.92a.378.378 0 01-.106-.017c-.355-.107-.645-.414-.778-.824-.146-.456-.079-.939.185-1.29.32-.428.65-.409.818-.36.434.128.733.684.772 1.147.034.4-.114.712-.406.857-.05.025-.093.107-.133.185-.061.116-.158.301-.352.301zm-.483-1.966c-.206.276-.261.673-.142 1.038.104.323.327.564.595.644.038.011.054.017.14-.149.058-.112.125-.24.255-.303.254-.126.269-.421.256-.585-.036-.409-.299-.824-.578-.906-.181-.052-.357.036-.526.261z" fill="#000"/><path d="M351.239 78.577s1.688-1.165 1.744-1.231c.057-.066.17-.171.181-.286.01-.114.282-3.113.384-3.404.102-.291.601-.657 1.077-.245.475.41.906.427.679 1.335-.227.908-.499 2.668-.554 2.793-.058.126-.181.573-.635.864-.453.291-1.365.697-2.01 1.025-.562.287-1.783-.066-.866-.851z" fill="#1E1E1E"/><path d="M351.237 78.577s1.688-1.165 1.744-1.231c.057-.066.17-.171.18-.286.011-.114.283-3.113.385-3.404.102-.291.601-.657 1.076-.245.476.41.057-.07-.169.838-.227.909-.268 2.665-.555 3.061-.307.424-1.759 1.546-2.404 1.874-.562.286-.831-.124-.257-.607z" fill="#3F4040"/><path d="M351.64 79.664c-.323 0-.651-.108-.795-.328-.094-.145-.179-.45.307-.866l.011-.008c.625-.43 1.645-1.141 1.724-1.214l.029-.033c.043-.047.108-.12.113-.169l.008-.087c.189-2.035.318-3.162.384-3.35a.847.847 0 01.558-.495c.252-.068.513-.002.735.191.095.083.189.15.28.213.346.243.645.454.443 1.263-.129.518-.277 1.334-.385 1.931-.111.617-.149.823-.178.886l-.023.058c-.069.175-.231.588-.662.865-.314.203-.838.456-1.345.7-.238.115-.471.228-.677.333-.146.071-.336.11-.527.11zm-.318-.978c-.14.12-.352.34-.251.498.135.208.672.274.974.121.208-.105.443-.22.682-.334.499-.241 1.015-.49 1.317-.684.356-.23.49-.57.554-.734.011-.03.021-.054.029-.072.02-.055.09-.444.158-.82.108-.6.256-1.421.388-1.948.155-.622-.008-.738-.334-.967-.091-.065-.196-.138-.302-.23-.156-.135-.321-.18-.489-.133a.574.574 0 00-.371.321c-.021.06-.108.47-.37 3.284l-.008.089c-.014.14-.115.254-.183.328l-.03.033c-.056.064-.988.712-1.764 1.248z" fill="#000"/><path d="M360.447 53.242l-.452.072-1.015.916-2.657 21.676a.835.835 0 00.553.892c4.993 1.702 10.845 1.97 16.609 1.154.484-.069.869-.447.949-.936l3.343-20.64c.037-.308-.122-.617-.397-.926l-.689-.781s-8.323 1.05-16.244-1.427z" fill="url(#paint0_linear_1436_6260)"/><path d="M359.607 54.972l-2.592 20.755a.569.569 0 00.407.621c4.778 1.32 10.754 2.044 15.745 1.074a.86.86 0 00.681-.708l3.26-20.042a.604.604 0 00-.633-.705c-5.013.368-10.796-.186-16.259-1.427a.502.502 0 00-.609.432z" fill="#fff"/><path d="M366.264 77.817c2.393.087 4.78-.083 6.976-.516a.758.758 0 00.598-.621l3.279-20.158c.052-.314-.163-.556-.477-.531-2.275.178-4.718.148-7.216-.036l-3.16 21.862z" fill="#EDEDED"/><path d="M377.571 55.849a.135.135 0 01-.106-.052l-.648-.824a.566.566 0 00-.413-.144l-.242.015c-5.999.374-11.3-.12-15.752-1.466a.389.389 0 00-.367.077l-.851.756a.135.135 0 01-.191-.012.14.14 0 01.012-.195l.852-.756a.657.657 0 01.623-.134c4.421 1.337 9.688 1.829 15.658 1.456l.243-.015a.833.833 0 01.62.222c.005.005.011.01.015.016l.656.834a.14.14 0 01-.022.194.157.157 0 01-.087.028z" fill="#000"/><path d="M367.607 78.687c-3.548 0-7.171-.56-10.469-1.651a1.356 1.356 0 01-.914-1.452l2.584-21.08c.038-.313.209-.591.469-.765.258-.173.577-.221.874-.134 2.374.702 8.747 2.267 16.613 1.618a1.05 1.05 0 01.865.344c.224.247.322.578.267.91l-3.308 20.427a1.522 1.522 0 01-1.204 1.259c-1.856.35-3.805.524-5.777.524zm-7.753-24.848c-.15 0-.3.044-.429.132a.8.8 0 00-.348.568l-2.584 21.08c-.062.508.245.994.729 1.154 5.09 1.685 10.964 2.094 16.112 1.12a1.25 1.25 0 00.987-1.033l3.308-20.428a.813.813 0 00-.2-.677.772.772 0 00-.642-.256c-7.912.653-14.323-.921-16.712-1.628a.754.754 0 00-.221-.032z" fill="#000"/><path d="M367.826 77.997c-4.784 0-8.971-1.134-10.443-1.584a.784.784 0 01-.544-.852l2.61-20.532a.784.784 0 01.334-.55.77.77 0 01.627-.111c7.282 1.899 14.011 1.729 15.989 1.503a.757.757 0 01.647.24.79.79 0 01.203.67l-3.281 19.901a.933.933 0 01-.723.766l-.029-.135.029.135c-1.819.396-3.66.55-5.419.55zm-7.611-23.378a.504.504 0 00-.497.444l-2.61 20.532a.508.508 0 00.354.553c1.998.612 9.038 2.492 15.723 1.028a.66.66 0 00.513-.542l3.28-19.9a.512.512 0 00-.13-.436.49.49 0 00-.419-.154c-1.992.226-8.766.399-16.087-1.51a.582.582 0 00-.127-.015z" fill="#000"/><path d="M365.356 66.302c.32-.408.75-.951 1.071-1.36.572.068 1.144.125 1.713.169.199.458.463 1.07.66 1.529-.318.416-.742.974-1.063 1.39-.57-.045-1.142-.102-1.714-.17-.2-.466-.468-1.09-.667-1.558zm3.166-1.7a43.74 43.74 0 01-2.339-.23c-.433.551-1.012 1.287-1.447 1.837.269.644.627 1.504.898 2.147.78.098 1.563.175 2.339.23.434-.573 1.013-1.34 1.442-1.917l-.893-2.067z" fill="#232323"/><path d="M368.14 65.112c-.57-.044-1.142-.101-1.714-.169-.321.409-.749.953-1.071 1.36.2.467.466 1.092.667 1.559.573.068 1.145.124 1.714.168.32-.416.745-.971 1.063-1.39l-.659-1.528z" fill="#E7262B"/><path d="M364.768 70.575l1.071-1.358c.572.068 1.144.124 1.713.168.199.459.463 1.07.66 1.53a315.9 315.9 0 01-1.063 1.39c-.57-.044-1.142-.1-1.714-.168-.2-.47-.469-1.093-.667-1.562zm3.166-1.7a43.64 43.64 0 01-2.339-.23c-.433.552-1.012 1.287-1.447 1.838.269.644.626 1.504.898 2.147.78.098 1.563.175 2.339.23a337.97 337.97 0 001.442-1.918c-.269-.62-.626-1.446-.893-2.067z" fill="#232323"/><path d="M367.552 69.385c-.57-.044-1.142-.1-1.714-.168-.321.407-.749.952-1.071 1.358.2.467.466 1.093.667 1.56.573.068 1.145.124 1.714.169.32-.417.745-.973 1.063-1.391a963.25 963.25 0 01-.659-1.528z" fill="#6288C5"/><path d="M365.945 62.03c.321-.407.75-.95 1.071-1.36.572.069 1.144.125 1.714.17l.659 1.528c-.318.417-.742.974-1.063 1.39-.569-.044-1.141-.101-1.714-.169l-.667-1.559zm3.167-1.7a43.64 43.64 0 01-2.339-.23c-.434.552-1.013 1.286-1.448 1.836.269.645.627 1.504.899 2.147.78.098 1.563.176 2.339.23.433-.573 1.012-1.34 1.442-1.917-.269-.62-.626-1.445-.893-2.066z" fill="#232323"/><path d="M368.73 60.838a42.82 42.82 0 01-1.714-.168l-1.071 1.36c.2.467.466 1.092.667 1.558.572.068 1.145.125 1.714.169.319-.417.745-.972 1.063-1.39-.199-.458-.462-1.07-.659-1.529z" fill="#F7C418"/><path d="M368.87 68.806c.317-.43.74-1.005 1.053-1.437.558.016 1.109.02 1.649.01.184.433.427 1.011.609 1.446-.303.442-.705 1.034-1.011 1.474-.54.01-1.092.005-1.649-.01-.196-.446-.455-1.039-.651-1.483zm3.068-1.968c-.733.02-1.484.014-2.25-.014-.428.584-1.001 1.36-1.433 1.942l.883 2.043c.765.028 1.517.032 2.249.014.412-.608.958-1.42 1.363-2.032-.242-.585-.568-1.367-.812-1.953z" fill="#232323"/><path d="M371.575 67.377c-.54.01-1.092.005-1.649-.01-.315.432-.735 1.007-1.053 1.437l.651 1.482c.557.015 1.109.019 1.648.01.305-.442.711-1.03 1.012-1.474l-.609-1.445z" fill="#8061A9"/><path d="M369.461 64.534c.317-.431.739-1.004 1.053-1.437.558.015 1.109.02 1.649.01l.609 1.444c-.303.443-.706 1.034-1.011 1.474-.54.01-1.092.006-1.649-.01-.196-.442-.457-1.036-.651-1.481zm3.066-1.966c-.732.02-1.484.014-2.249-.013-.428.583-1 1.36-1.434 1.941l.883 2.044c.766.027 1.517.032 2.25.014.412-.609.958-1.42 1.363-2.033-.242-.586-.567-1.367-.813-1.953z" fill="#232323"/><path d="M372.165 63.107c-.54.01-1.091.006-1.649-.01-.315.431-.735 1.008-1.053 1.437.196.444.455 1.038.651 1.483a36.7 36.7 0 001.649.01c.304-.441.711-1.03 1.011-1.474-.184-.434-.426-1.012-.609-1.446z" fill="#EF7525"/><path d="M361.314 67.765c.312-.386.725-.902 1.036-1.289.553.115 1.115.218 1.68.312.197.482.459 1.124.659 1.605l-1.061 1.315a45.59 45.59 0 01-1.68-.312c-.191-.49-.446-1.14-.634-1.63zm3.096-1.46a42.661 42.661 0 01-2.291-.426l-1.392 1.744c.252.673.587 1.57.843 2.241.75.161 1.517.304 2.291.426.437-.543 1.017-1.27 1.451-1.814-.272-.65-.634-1.52-.902-2.17z" fill="#232323"/><path d="M364.032 66.79a45.59 45.59 0 01-1.68-.312l-1.036 1.29c.189.488.441 1.142.633 1.629.554.114 1.115.218 1.68.312l1.062-1.315c-.199-.48-.462-1.12-.659-1.604z" fill="#96C93F"/><path d="M361.905 63.496l1.035-1.29c.553.115 1.115.219 1.68.313.197.481.459 1.123.659 1.603-.318.395-.742.922-1.061 1.315a45.59 45.59 0 01-1.68-.312c-.19-.488-.446-1.14-.633-1.63zm3.094-1.46a42.76 42.76 0 01-2.291-.427c-.417.523-.975 1.22-1.392 1.745.252.673.587 1.57.843 2.24.75.162 1.517.304 2.291.427a558.93 558.93 0 001.45-1.815c-.271-.651-.632-1.519-.901-2.17z" fill="#232323"/><path d="M364.619 62.519a45.771 45.771 0 01-1.68-.312l-1.035 1.289c.189.49.44 1.142.633 1.63.553.115 1.114.219 1.68.313l1.061-1.315c-.198-.483-.463-1.123-.659-1.605z" fill="#CADC72"/><path d="M375.762 57.926c.163-.166.18-.419.036-.564-.143-.146-.392-.13-.555.037-.163.166-.18.418-.037.564.144.145.392.129.556-.037z" fill="#D8D8D8"/><path d="M375.45 58.2c-.13 0-.25-.05-.34-.14a.489.489 0 01-.135-.38.597.597 0 01.172-.379c.216-.22.552-.236.748-.037.195.198.179.54-.037.759a.584.584 0 01-.372.175l-.036.001zm.104-.8a.306.306 0 00-.215.097.32.32 0 00-.094.202.219.219 0 00.057.168.205.205 0 00.166.058.305.305 0 00.198-.095.32.32 0 00.094-.202.219.219 0 00-.057-.168.204.204 0 00-.149-.06z" fill="#000"/><path d="M372.757 76.217c.164-.166.18-.419.037-.564-.143-.146-.392-.13-.556.037-.163.166-.179.418-.036.564.143.145.392.129.555-.037z" fill="#D8D8D8"/><path d="M372.447 76.49a.47.47 0 01-.341-.14c-.196-.198-.181-.539.035-.758.216-.22.552-.236.747-.036.196.199.18.54-.036.759a.572.572 0 01-.405.175zm.102-.8a.31.31 0 00-.215.095c-.11.112-.126.277-.035.368.091.092.252.075.362-.035.111-.112.127-.278.037-.369a.217.217 0 00-.149-.06z" fill="#000"/><path d="M360.757 56.557c.203 0 .367-.19.367-.425s-.164-.425-.367-.425c-.203 0-.367.19-.367.425s.164.425.367.425z" fill="#D8D8D8"/><path d="M360.757 56.694c-.277 0-.503-.252-.503-.563 0-.31.226-.563.503-.563s.503.253.503.563c0 .31-.226.563-.503.563zm0-.848c-.128 0-.231.128-.231.287 0 .158.103.287.231.287s.231-.129.231-.287c0-.159-.105-.287-.231-.287z" fill="#000"/><path d="M358.554 75.297c.203 0 .367-.19.367-.425 0-.234-.164-.425-.367-.425-.203 0-.367.19-.367.425s.164.425.367.425z" fill="#D8D8D8"/><path d="M358.556 75.433c-.278 0-.503-.253-.503-.563 0-.31.225-.563.503-.563.277 0 .503.252.503.563 0 .31-.225.563-.503.563zm0-.85c-.128 0-.231.128-.231.287 0 .158.103.287.231.287.127 0 .231-.129.231-.287 0-.16-.104-.287-.231-.287z" fill="#000"/></g><path d="M435 14l-38 22v44l38 22 38-22V36l-38-22z" fill="#fff" stroke="#000"/><g opacity=".7" fill-rule="evenodd" clip-rule="evenodd"><path d="M434.98 40.914h-17.102v4.568c2.219 0 4.017 1.79 4.017 3.997s-1.798 3.996-4.017 3.996V58.1h4.535c.061 2.155 1.836 3.883 4.016 3.883 2.18 0 3.955-1.728 4.016-3.883h4.535v-4.625c-2.219 0-4.017-1.789-4.017-3.996 0-2.208 1.798-3.997 4.017-3.997v-4.568z" fill="#E0E0E0"/><path d="M452.082 74.43a.916.916 0 01-.918.914H434.98v-4.568c2.219 0 4.017-1.79 4.017-3.997s-1.798-3.997-4.017-3.997v-4.625h4.535c.061-2.154 1.836-3.882 4.016-3.882 2.18 0 3.955 1.728 4.015 3.882h4.536V74.43z" fill="#B3B3B3"/><path d="M434.98 70.832c2.219 0 4.017-1.789 4.017-3.996 0-2.208-1.798-3.997-4.017-3.997v-4.51h-4.591c0 2.206-1.799 3.996-4.017 3.996-2.219 0-4.018-1.79-4.018-3.997h-4.648v4.512c-2.166.06-3.903 1.826-3.903 3.996 0 2.169 1.737 3.934 3.903 3.995v3.142c0 .757.616 1.37 1.377 1.37h15.897v-4.51z" fill="#DFDFDF"/><path d="M438.997 66.837c0 2.207-1.798 3.997-4.017 3.997v4.225h-17.102l17.102-16.59v4.371c2.219 0 4.017 1.79 4.017 3.997z" fill="silver"/><path d="M452.082 58.1V41.083h-4.591c0 2.207-1.799 3.997-4.018 3.997-2.218 0-4.017-1.79-4.017-3.997h-4.648v4.512c-2.166.06-3.903 1.826-3.903 3.996 0 2.169 1.737 3.934 3.903 3.995v4.512h4.648c0-2.207 1.799-3.997 4.017-3.997 2.219 0 4.018 1.79 4.018 3.997h4.591z" fill="#DFDFDF"/><path d="M452.082 41.898V58.1h-4.591c0-2.207-1.799-3.997-4.018-3.997-2.218 0-4.017 1.79-4.017 3.997h-4.074l16.7-16.2z" fill="#AFAFAF"/><path d="M420.001 41.827c-.633 0-1.147.511-1.147 1.142v1.596c2.291.348 4.046 2.317 4.046 4.693v.326c0 2.377-1.755 4.345-4.046 4.693v8.2c0 .61-.497 1.104-1.11 1.104a2.9 2.9 0 00-2.908 2.893v.38a2.9 2.9 0 002.908 2.894c.613 0 1.11.494 1.11 1.104v2.179c0 .63.514 1.142 1.147 1.142h30.015c.634 0 1.148-.511 1.148-1.142V42.969c0-.63-.514-1.142-1.148-1.142h-1.549a4.656 4.656 0 01-4.605 3.911h-.547a4.656 4.656 0 01-4.605-3.91h-18.709zm-2.984 1.142c0-1.64 1.336-2.969 2.984-2.969h19.383c.61 0 1.105.492 1.105 1.1a2.819 2.819 0 002.826 2.811h.547a2.818 2.818 0 002.825-2.811c0-.608.495-1.1 1.106-1.1h2.223A2.977 2.977 0 01453 42.97v30.06c0 1.64-1.336 2.97-2.984 2.97h-30.015a2.977 2.977 0 01-2.984-2.97v-1.51c-2.275-.348-4.017-2.304-4.017-4.665v-.38c0-2.362 1.742-4.318 4.017-4.666v-8.2c0-.61.498-1.105 1.111-1.105a2.928 2.928 0 002.935-2.92v-.326a2.928 2.928 0 00-2.935-2.92 1.108 1.108 0 01-1.111-1.105v-2.264z" fill="#191919"/><path d="M443.397 55.017a2.9 2.9 0 00-2.908 2.892c0 .61-.497 1.104-1.109 1.104h-8.191a4.765 4.765 0 01-4.712 3.997h-.383a4.71 4.71 0 01-4.665-3.997h-3.522v-1.827h4.199c.615 0 1.112.499 1.108 1.11a2.872 2.872 0 002.88 2.887h.383a2.928 2.928 0 002.935-2.9c.004-.607.5-1.097 1.111-1.097h8.185a4.738 4.738 0 014.689-3.996h.383a4.738 4.738 0 014.688 3.996h3.614v1.827h-4.285c-.613 0-1.11-.494-1.11-1.103a2.9 2.9 0 00-2.907-2.893h-.383z" fill="#191919"/><path d="M431.881 49.672a2.9 2.9 0 002.908 2.893c.613 0 1.109.494 1.109 1.103v8.198c2.275.348 4.018 2.304 4.018 4.665v.409c0 2.357-1.746 4.306-4.018 4.642v3.504h-1.836v-4.178c0-.612.501-1.107 1.116-1.102a2.873 2.873 0 002.901-2.866v-.41a2.9 2.9 0 00-2.908-2.892 1.107 1.107 0 01-1.109-1.104v-8.197c-2.275-.349-4.017-2.305-4.017-4.665v-.385c0-2.36 1.742-4.317 4.017-4.665v-3.709h1.836v4.378c0 .61-.496 1.103-1.109 1.103a2.9 2.9 0 00-2.908 2.893v.385z" fill="#191919"/></g><path d="M131 322l-38 22v44l38 22 38-22v-44l-38-22z" fill="#fff" stroke="#000"/><path d="M134.768 359.344h-7.597l-3.815 6.724 3.797 6.656h7.613l3.798-6.656-3.796-6.724zm-1.014 11.556h-5.591l-2.783-4.849 2.786-4.9h5.591l2.786 4.9-2.789 4.849z" fill="#141A1F"/><path d="M125.38 366.067l2.786 4.833h5.591l2.804-4.833-2.804-4.967h-5.591l-2.786 4.967z" fill="#666"/><path d="M134.768 373.637h-7.597l-3.815 6.707 3.797 6.656h7.613l3.798-6.656-3.796-6.707zm-1.014 11.607h-5.591l-2.783-4.849 2.786-4.9h5.591l2.786 4.9-2.789 4.849z" fill="#141A1F"/><path d="M125.38 380.345l2.786 4.9h5.591l2.804-4.9-2.804-4.9h-5.591l-2.786 4.9z" fill="#999"/><path d="M134.768 345h-7.597l-3.815 6.725 3.815 6.656h7.613l3.797-6.656-3.813-6.725zm-1.014 11.556h-5.591l-2.783-4.849 2.786-4.95h5.591l2.786 4.9-2.789 4.899z" fill="#141A1F"/><path d="M125.38 351.723l2.786 4.833h5.591l2.804-4.833-2.804-4.967h-5.591l-2.786 4.967z" fill="#A6A6A6"/><path d="M147.126 366.541h-7.536l-3.797 6.725 3.797 6.656h7.613l3.797-6.656-3.874-6.725zm-1.013 11.584h-5.591l-2.786-4.849 2.786-4.9h5.591l2.786 4.9-2.786 4.849z" fill="#141A1F"/><path d="M137.723 373.292l2.826 4.849h5.575l2.854-4.849-2.854-4.968h-5.575l-2.826 4.968z" fill="gray"/><path d="M147.126 352.197h-7.536l-3.797 6.656 3.797 6.656h7.613l3.797-6.656-3.874-6.656zm-1.013 11.573h-5.591l-2.786-4.849 2.786-4.9h5.591l2.786 4.9-2.786 4.849z" fill="#141A1F"/><path d="M137.723 358.924l2.781 4.914h5.62l2.854-4.849-2.854-4.968h-5.62l-2.781 4.903z" fill="#999"/><path d="M122.345 366.541h-7.548L111 373.266l3.797 6.656h7.613l3.797-6.656-3.862-6.725zm-1.013 11.574h-5.524l-2.786-4.849 2.786-4.9h5.591l2.786 4.9-2.853 4.849z" fill="#141A1F"/><path d="M113.022 373.265l2.786 4.848h5.523l2.854-4.848-2.854-4.968h-5.523l-2.786 4.968z" fill="#999"/><path d="M122.345 352.197h-7.548L111 358.853l3.797 6.656h7.613l3.797-6.656-3.862-6.656zm-1.013 11.574h-5.524l-2.786-4.849 2.786-4.9h5.591l2.786 4.9-2.853 4.849z" fill="#141A1F"/><path d="M113.022 358.921l2.786 4.849h5.523l2.854-4.849-2.854-4.968h-5.523l-2.786 4.968z" fill="#BFBFBF"/><path d="M359 322l-38 22v44l38 22 38-22v-44l-38-22z" fill="#fff" stroke="#000"/><g opacity=".9"><path d="M364.473 379.645c.495-.071.905-.058 1.133.029.202-.278.409-.571.621-.88a3.35 3.35 0 00-.515-.387c-.315-.196-.578-.257.117-.435.416-.106.774-.142 1.017-.112.199-.311.398-.634.597-.969a3.433 3.433 0 00-.416-.3c-.314-.196-.578-.256.118-.434.256-.069.52-.11.786-.122.179-.327.356-.668.53-1.016a2.846 2.846 0 00-.233-.156c-.315-.196-.578-.257.118-.434.144-.038.29-.068.438-.091.167-.367.327-.743.479-1.128a3.384 3.384 0 00-.241-.12c-.336-.153-.606-.184.061-.446.147-.058.296-.108.448-.15.119-.336.229-.677.332-1.026-.352-.094-.611-.087 0-.446.05-.03.1-.057.149-.084.115-.43.214-.868.299-1.315-.258-.007-.361-.031.072-.43v-.004c.033-.201.066-.404.089-.609 1.048-8.267-2.572-16.885-10.813-17.307-5.519-.283-7.716 2.771-7.416 6.155a14.977 14.977 0 014.553 3.431c3.682 4.091 2.22 5.358 2.22 5.358s0 1.152.701 2.017c.702.864 1.754 1.383 1.754 1.729 0 .346-2.046 2.19-2.805 2.132a1.448 1.448 0 01-.416-.107 2.417 2.417 0 01-.539.107 5.37 5.37 0 00.251-.245 3.695 3.695 0 01-.348-.219c-.317.177-.913.452-1.5.426.525-.327.821-.617.989-.839-.534-.483-1.107-1.154-1.652-2.005-.701-1.094-1.169-1.21-1.169-1.21s-1.052.173-.643 2.306c.409 2.132 1.403 3.169 1.169 3.63-.234.461-1.402.75-2.279.576-.877-.173-1.929-.403-1.403-1.555.525-1.153.409-3.631-.585-4.15-.428-.224-2.535-1.433-2.902-1.94-.456-.629-.417-3.342.053-3.972-.358-1.176-.583-2.676-.597-4.574-.026-3.179 1.183-5.767 3.173-7.634a9.12 9.12 0 01.345-1.564c.436-1.31.321-.565.331.121.005.305.019.58.041.826.167-.13.34-.258.517-.382.163-.719.437-1.472.719-1.969.53-.941.309-.373.331.326.015.435.146.684.278.842.15-.078.302-.153.456-.226.12-.596.339-1.168.647-1.694.332-.558.326-.288.39.249.03.33.182.637.426.864.156-.052.313-.101.472-.148.09-.353.602-1.01 1.083-1.45.397-.361.232-.261.181.311-.023.27.162.579.239.781.128-.024.258-.046.388-.066.089-.225.345-.533.718-.849.545-.461.448-.211.429.153a3.19 3.19 0 00.016.553c.23-.019.464-.035.697-.045.089-.091.189-.183.299-.277.546-.461.531-.321.429.154a.479.479 0 00-.009.107c.204 0 .408.003.613.008 4.79.155 10.417 3.183 13.41 9.13V343h-29.633v31.787l6.72 5.012h13.213c.001-.06.121-.106.459-.154z" fill="#4D4D4D"/><path d="M350.268 386.614l-.165 2.287h-6.1v-.385c.088-.008.215-.02.382-.038.119-.008.237-.032.349-.071a.47.47 0 00.24-.206.729.729 0 00.074-.347v-5.509a.796.796 0 00-.066-.326.48.48 0 00-.25-.228 1.937 1.937 0 00-.356-.128 2.066 2.066 0 00-.376-.073v-.385h3.295v.385a2.663 2.663 0 00-.398.054 3.098 3.098 0 00-.354.087.418.418 0 00-.256.222.83.83 0 00-.066.337v5.169c-.004.186.008.372.036.556a.49.49 0 00.167.306.758.758 0 00.377.127c.233.024.467.034.702.031.132 0 .277 0 .423-.012.14-.006.28-.02.418-.043a2.05 2.05 0 00.355-.089.569.569 0 00.24-.144c.199-.235.374-.489.525-.757.162-.261.301-.536.415-.821l.389.001zM356.906 386.614l-.165 2.287h-6.101v-.386c.088-.007.216-.02.383-.038.119-.008.236-.031.349-.07a.478.478 0 00.239-.206.72.72 0 00.074-.347v-5.509a.781.781 0 00-.066-.327.476.476 0 00-.245-.227 1.934 1.934 0 00-.357-.124 2.093 2.093 0 00-.377-.073v-.385h3.295v.385a2.65 2.65 0 00-.397.054c-.12.022-.239.051-.355.087a.418.418 0 00-.256.222.83.83 0 00-.066.337v5.169c-.004.186.008.372.036.555a.495.495 0 00.167.307.758.758 0 00.377.127c.233.024.467.034.702.03.136 0 .277 0 .423-.011.14-.006.28-.021.418-.043a2.05 2.05 0 00.355-.089.56.56 0 00.239-.144c.199-.235.375-.489.526-.757.162-.261.301-.536.415-.821l.387-.003zM364.469 381.589c-.118.008-.234.03-.347.065-.118.03-.231.077-.335.138a.907.907 0 00-.301.293 3.547 3.547 0 00-.222.423c-.246.575-.615 1.471-1.106 2.688a523.95 523.95 0 00-1.518 3.805h-.454l-1.53-4.046a253.606 253.606 0 00-1.004-2.636 1.007 1.007 0 00-.175-.296 1.28 1.28 0 00-.292-.242 1.19 1.19 0 00-.331-.138 1.918 1.918 0 00-.336-.057v-.385h3.231v.385c-.234.01-.467.037-.697.082-.189.04-.283.11-.283.211a.56.56 0 00.022.141l.038.131a914.75 914.75 0 011.961 5.157c.279-.67.6-1.461.963-2.372.364-.912.607-1.538.729-1.879.089-.222.16-.451.212-.684.018-.102.028-.205.03-.309a.256.256 0 00-.112-.209 1.01 1.01 0 00-.3-.143 2.472 2.472 0 00-.368-.082 6.79 6.79 0 00-.38-.043v-.385h2.903l.002.387z" fill="#262D3A"/><path d="M374 388.901h-3.446v-.386c.124-.003.285-.016.481-.038.139-.007.276-.038.404-.092a.71.71 0 00.251-.236.647.647 0 00.079-.334v-5.597h-.082l-2.666 6.558h-.275l-2.533-6.694h-.072v4.594c0 .445.028.783.085 1.014.057.232.144.398.265.5.081.076.247.148.5.217.162.05.328.086.496.108v.386h-3.158v-.386c.174-.016.348-.043.519-.081.153-.027.297-.088.421-.179a.793.793 0 00.265-.466c.048-.21.072-.561.072-1.053v-3.938a1.61 1.61 0 00-.083-.559.888.888 0 00-.238-.352 1.08 1.08 0 00-.418-.217 2.136 2.136 0 00-.489-.081v-.385h2.661l2.236 5.777 1.909-4.836a4.676 4.676 0 00.258-.944h2.546v.385a3.073 3.073 0 00-.394.049 2.598 2.598 0 00-.349.081.405.405 0 00-.253.217.822.822 0 00-.066.331v5.549c-.003.11.019.22.066.32.058.1.147.18.253.228.112.05.231.083.353.1.132.026.266.044.401.052l.001.388z" fill="#262D3A"/></g><path d="M473 212l-38 22v44l38 22 38-22v-44l-38-22z" fill="#fff" stroke="#000"/><g opacity=".8" fill="#646464"><path d="M461.85 273.321l-.038-.035a96.51 96.51 0 00-2.511 2.566c-.431.46-.59 1.044-.093 1.575.496.531 1.149.523 1.721.101.422-.333.819-.696 1.187-1.087a18586.11 18586.11 0 0024.013-23.823l4.871-.84c-.795-.799-4.101-3.22-4.855-2.476l-9.469 9.327-14.826 14.692z"/><path d="M465.91 277.451c.779.839 1.511.236 2.13-.377 6.593-6.523 13.182-13.051 19.766-19.584.312-.311.626-.623.658-1.1a1.023 1.023 0 00-.725-.996c-.777-.277-1.311.168-1.809.672l-19.554 19.376c-.577.571-1.171 1.253-.466 2.009zM468.691 262.285l1.429-1.414a2.078 2.078 0 00-.61-.924 5475.104 5475.104 0 00-8.728-8.646 2.719 2.719 0 00-.834-.576c-.478-.193-.971-.168-1.356.252a1.012 1.012 0 00-.081 1.344c.277.399.591.771.939 1.112 2.139 2.134 4.285 4.261 6.44 6.382.727.719 1.451 1.444 2.203 2.134.169.16.374.275.598.336zM474.462 254.931c.267.293.598.523.968.672l1.371-1.359a2.597 2.597 0 00-.688-.961 30047.044 30047.044 0 00-18.812-18.642c-.351-.348-.727-.66-1.269-.64a.974.974 0 00-.931.6c-.286.7.08 1.212.551 1.679l18.81 18.651zM471.013 258.189c.296.322.661.574 1.068.738l1.364-1.352c-.169-.491-.584-.818-.942-1.176a7328.164 7328.164 0 00-11.54-11.441c-.796-.789-1.59-1.585-2.412-2.351-.483-.449-1.057-.564-1.572-.059-.49.482-.455 1.048-.068 1.587.174.235.367.455.578.659 4.502 4.467 9.01 8.931 13.524 13.39v.005zM485.844 277.95c.216.028.434.04.653.037.823-.076 1.864-.022 1.889-1.147.027-1.161-.986-1.166-1.835-1.134-.849.032-1.492-.321-2.066-.919-.88-.917-1.759-1.839-2.712-2.687-.847-.746-.722-1.291.044-2.015 2.015-1.923 3.975-3.907 5.941-5.879.581-.581 1.096-1.278.313-2.015-.702-.657-1.373-.198-1.925.346-2.507 2.469-4.998 4.955-7.505 7.423-.878.864-.837 1.67.032 2.52a203.176 203.176 0 014.366 4.343c.802.829 1.681 1.347 2.805 1.127z"/></g><path d="M549 212l-38 22v44l38 22 38-22v-44l-38-22z" fill="#fff" stroke="#000"/><path opacity=".9" d="M570.335 246.286c-.067-.037-.134-.052-.201-.073a1.604 1.604 0 00-1.442-.124l-3.769 1.775c-.031 0-.067 0-.103.016-.118.046-.237.082-.355.124a.68.68 0 00-.268-.259 16.636 16.636 0 00-2.481-3.473 16.342 16.342 0 00-5.767-4.005c-.041-.037-.098-.063-.149-.088-.021-.031-.01-.078.015-.176.011-.052.021-.099.036-.15.005-.016 0-.032.005-.052l1.432-4.042a1.63 1.63 0 00-.222-1.377c-.02-.057-.036-.114-.061-.171a1.184 1.184 0 00-1.679-.553c-.077.041-.139.098-.206.15a1.615 1.615 0 00-.921 1.024l-.984 4.141a.937.937 0 00-.098.243c-.025.098-.046.129-.097.129-.021 0-.047-.005-.067-.005-.011 0-.021 0-.036-.005a17.52 17.52 0 00-1.869-.254 16.168 16.168 0 00-8.691 1.713c-.181.094-.361.192-.541.295a.65.65 0 00-.309.078c-.005-.005-.015-.005-.021-.015-.066-.094-.139-.176-.205-.27 0-.005-.011-.01-.016-.015l-2.245-3.633a1.611 1.611 0 00-1.364-.694h-.016a1.186 1.186 0 00-1.431.937c-.005.026 0 .052-.005.078a1.619 1.619 0 00.17 1.532l2.626 3.384a.63.63 0 00.092.161.185.185 0 01.036.057c.026.046.047.077.062.103a.68.68 0 00-.18.269 16.397 16.397 0 00-4.536 6.485 15.64 15.64 0 00-.844 3.048c-.011.068-.026.14-.036.207a.627.627 0 00-.134.285h-.011c-.097-.005-.19 0-.288-.005-.051 0-.098 0-.139.015l-4.176-.497a1.6 1.6 0 00-1.364.611 1.188 1.188 0 00-.16 1.77c.253.476.737.818 1.313.854l4.346.047a.93.93 0 00.206.02c.015 0 .036 0 .051.006h.026c0 .134.046.258.118.362.042.885.145 1.759.33 2.629a16.447 16.447 0 003.424 7.137c.098.119.201.227.298.346l-8.201 9.083c-.536.59-.49 1.506.097 2.044l.675.616a1.435 1.435 0 002.034-.098l8.196-9.078a16.352 16.352 0 003.62 1.983 16.3 16.3 0 005.828 1.117c.289 0 .572-.01.855-.025a.643.643 0 00.484.16c.015.062.031.124.041.186 0 .011.01.021.01.031l.474 4.405a1.612 1.612 0 001.318 1.33 1.16 1.16 0 001.086-.192c.562-.326.891-.973.783-1.656l-.906-4.197a.195.195 0 000-.093c-.016-.088-.021-.181-.031-.269a.638.638 0 00.376-.285c3.398-.968 6.209-2.836 8.433-5.61.175-.218.335-.445.495-.668a.68.68 0 00.334-.269l3.908 2.495a1.62 1.62 0 001.766-.119 1.18 1.18 0 00.654-1.403c-.01-.031-.026-.062-.036-.093a1.615 1.615 0 00-.803-1.206l-3.754-1.863a.498.498 0 00-.231-.207c-.011 0-.021-.016-.026-.021a1.725 1.725 0 00-.108-.067.717.717 0 00.026-.311c.216-.507.412-1.024.576-1.547a16.672 16.672 0 00.587-7.39 15.793 15.793 0 00-.463-2.128.638.638 0 000-.414c.01-.005.02-.01.036-.015.057-.026.113-.052.175-.083l4.16-1.439c.53-.217.88-.688.978-1.216.278-.605.062-1.283-.545-1.594v.011zm-8.331 13.926l-5.288-2.991-.365-.233c-.232-.15-.428-.331-.531-.595-.211-.549.016-1.154.546-1.403.098-.046.196-.093.299-.139l.02.051 5.798-2.359a13.352 13.352 0 01-.479 7.669zm-1.025-11.406l-5.797 2.36.01.021-.231.077c-.253.088-.5.109-.762.026a1.089 1.089 0 01-.732-1.309c.016-.073.037-.15.052-.223l.041.011 1.802-6.118c.108.052.211.099.314.156a13.257 13.257 0 015.303 4.994v.005zm-12.073 9.843l-2.06-1.878.175-2.79 2.281-1.599 2.662.792 1.045 2.588-1.364 2.432-2.744.445.005.01zm2.27-16.193c.114.01.227.031.345.046l-1.807 6.123h.026c-.036.103-.067.202-.108.295-.335.792-1.38.911-1.885.264-.067-.088-.134-.171-.201-.259l.037-.026-3.599-5.186c.195-.098.396-.196.597-.284a12.863 12.863 0 016.595-.973zm-10.477 3.576l3.594 5.175.03-.02.067.103c.052.083.098.166.145.249.37.724-.129 1.604-.943 1.619h-.35v-.015l-6.266-.404c.572-2.613 1.818-4.844 3.723-6.707zm-3.96 10.728l6.246.404v-.057c.108.016.216.026.324.042.808.103 1.22 1.035.767 1.718-.092.14-.19.264-.298.393l-.016-.015-4.144 4.59a13.172 13.172 0 01-2.879-7.069v-.006zm5.849 9.777l4.145-4.591-.057-.052c.098-.098.196-.191.294-.289.474-.482 1.524-.44 1.822.481.026.072.042.15.057.228l.057.248-.057.01.989 6.133c-2.642-.01-5.051-.73-7.25-2.173v.005zm11.209 1.547l-.994-6.153h-.036l-.046-.425a.892.892 0 01.031-.414 1.118 1.118 0 011.555-.698c.103.051.211.103.314.155l-.047.088 5.453 3.084c-.098.125-.191.249-.288.368a12.98 12.98 0 01-5.942 3.995z" fill="#8C8C8C"/><path d="M511 146l-38 22v44l38 22 38-22v-44l-38-22z" fill="#fff" stroke="#000"/><mask id="a" style="mask-type:alpha" maskUnits="userSpaceOnUse" x="492" y="171" width="38" height="38"><path d="M528.135 195.571c3.271 3.675 1.559 8.707 0 10.434-1.567 1.777-3.242 2.495-7.166 2.495-4.936 0-12.825-5.109-19.997-5.527-9.872-.712-9.639-3.907-8.313-7.691 1.06-3.026.586-7.836.216-9.863-.169-.72-.211-2.442.971-3.569 1.478-1.409 2.287-1.2 3.797-1.857 3.612-1.568 5.721-3.943 7.081-5.686 1.36-1.743 3.301-3.939 6.868-2.13 3.142 1.593 4.479 4.399 6.48 8.604 2.113 4.441 5.388 9.537 10.063 14.79z" fill="#F7941D"/></mask><g mask="url(#a)"><path d="M528.135 195.571c3.271 3.675 1.559 8.707 0 10.434-1.567 1.777-3.242 2.495-7.166 2.495-4.936 0-12.825-5.109-19.997-5.527-9.872-.712-9.639-3.907-8.313-7.691 1.06-3.026.586-7.836.216-9.863-.169-.72-.211-2.442.971-3.569 1.478-1.409 2.287-1.2 3.797-1.857 3.612-1.568 5.721-3.943 7.081-5.686 1.36-1.743 3.301-3.939 6.868-2.13 3.142 1.593 4.479 4.399 6.48 8.604 2.113 4.441 5.388 9.537 10.063 14.79z" fill="#A5A5A5"/><path d="M536.196 203.184c3.128 4.375.676 9.653-1.222 11.352-1.913 1.752-3.82 2.339-8.088 1.887-5.37-.57-13.355-7.038-21.108-8.322-10.657-1.914-10.029-5.363-8.143-9.325 1.508-3.171 1.555-8.458 1.39-10.706-.099-.802.057-2.681 1.475-3.77 1.772-1.363 2.628-1.042 4.347-1.583 4.114-1.289 6.687-3.629 8.371-5.368 1.683-1.74 4.052-3.904 7.721-1.525 3.231 2.096 4.358 5.302 6.042 10.109 1.779 5.075 4.744 10.996 9.215 17.251z" fill="#D5D5D5"/><path d="M540.938 208.364c2.905 4.525.192 9.675-1.788 11.278-1.998 1.656-3.932 2.149-8.173 1.487-5.335-.833-12.986-7.687-20.666-9.35-10.548-2.436-9.748-5.85-7.667-9.715 1.665-3.093 1.976-8.371 1.924-10.624-.059-.807.19-2.675 1.661-3.693 1.838-1.274 2.677-.912 4.421-1.367 4.173-1.085 6.86-3.295 8.629-4.95 1.768-1.654 4.242-3.7 7.787-1.142 3.123 2.252 4.088 5.51 5.53 10.393 1.523 5.157 4.189 11.216 8.342 17.683z" fill="#C7C7C7"/><path d="M546.594 216.302c2.532 5.081-.909 10.183-3.173 11.644-2.289 1.513-4.377 1.812-8.755.637-5.508-1.479-12.758-9.543-20.634-12.159-10.799-3.751-9.568-7.247-6.938-11.071 2.104-3.06 3.037-8.569 3.241-10.941.03-.854.507-2.788 2.168-3.692 2.077-1.13 2.917-.655 4.801-.935 4.508-.668 7.584-2.686 9.632-4.224 2.047-1.538 4.88-3.406 8.311-.319 3.021 2.719 3.661 6.25 4.615 11.542 1.007 5.589 3.112 12.255 6.732 19.518z" fill="#A8A8A8"/><path d="M549.718 223.002c1.952 5.328-2.036 10.022-4.449 11.225-2.443 1.253-4.552 1.321-8.772-.327-5.31-2.073-11.618-10.883-19.155-14.346-10.316-4.913-8.702-8.252-5.663-11.765 2.431-2.81 3.972-8.183 4.438-10.518.126-.846.814-2.716 2.566-3.432 2.19-.895 2.972-.331 4.876-.403 4.555-.17 7.836-1.837 10.043-3.141 2.206-1.305 5.229-2.851 8.295.594 2.701 3.033 2.943 6.612 3.303 11.977.379 5.665 1.729 12.521 4.518 20.136z" fill="gray"/><path d="M557.237 233.041c1.897 6.129-2.905 11.15-5.712 12.344-2.846 1.248-5.24 1.185-9.929-.952-5.898-2.689-12.528-13.031-20.869-17.433-11.407-6.22-9.379-9.873-5.724-13.627 2.924-3.003 4.99-8.951 5.658-11.55.192-.944 1.085-3.004 3.114-3.694 2.537-.862 3.39-.174 5.553-.129 5.175.113 8.996-1.547 11.575-2.868 2.579-1.322 6.1-2.862 9.373 1.221 2.882 3.596 2.944 7.644 3.033 13.709.094 6.405 1.217 14.217 3.928 22.979z" fill="#6F6F6F"/></g><path d="M511 278l-38 22v44l38 22 38-22v-44l-38-22z" fill="#fff" stroke="#000"/><g style="mix-blend-mode:luminosity" opacity=".9"><path d="M505.287 328.411c-.55 2.668-2.047 4.285-4.139 4.285-2.456 0-4.132-2.29-4.371-5.836l.019-1.849c.286-3.436 1.943-5.663 4.352-5.663a3.623 3.623 0 012.887 1.416h6.627c-1.315-4.015-4.243-6.019-7.825-6.019a6.943 6.943 0 00-5.975 3.219l.113-11.464H491v30.578h4.51l.997-2.346a.273.273 0 01.222-.171.284.284 0 01.259.108c1.509 1.95 3.33 2.831 5.918 2.831 4.331 0 7.683-3.121 8.381-9.092l-6 .003z" fill="#5A2A7A"/><path d="M529.418 328.348h-8.296a3.775 3.775 0 010-7.55h8.296a9.483 9.483 0 00-.698-1.259 66.961 66.961 0 002.28-2.941l-1.887-1.888s-1.167.834-2.943 2.278a9.079 9.079 0 00-3.224-1.337 66.091 66.091 0 00-.472-3.69h-2.685s-.233 1.416-.469 3.69a9.007 9.007 0 00-3.226 1.34 68.567 68.567 0 00-2.944-2.281l-1.887 1.888s.833 1.164 2.28 2.945a9.076 9.076 0 00-1.365 3.218 65.245 65.245 0 00-3.689.469v2.686s1.412.233 3.689.469a9.148 9.148 0 001.34 3.228c-1.447 1.777-2.28 2.941-2.28 2.941l1.887 1.888s1.167-.834 2.943-2.278a9.057 9.057 0 003.227 1.337c.236 2.278.469 3.693.469 3.693h2.685s.236-1.412.472-3.693a9.067 9.067 0 003.223-1.337 63.849 63.849 0 002.944 2.278l1.887-1.888s-.837-1.164-2.28-2.941c.274-.402.516-.825.723-1.265z" fill="#4D4D4D"/></g><path d="M278.918 276.923l76.209-112.395" stroke="#191919" stroke-width=".1" stroke-linecap="round"/><path fill-rule="evenodd" clip-rule="evenodd" d="M344.466 127.446a4.04 4.04 0 011.764 5.445c-2.016 3.927-3.107 9.56-3.524 15.35-.412 5.714-.138 11.122.284 14.305a4.047 4.047 0 01-3.493 4.54 4.057 4.057 0 01-4.555-3.482c-.496-3.744-.783-9.701-.333-15.945.444-6.169 1.638-13.087 4.394-18.456a4.065 4.065 0 015.463-1.757z" fill="#1A1A1A"/><path d="M321.427 191.431c2.475-11.725-22.685-13.638-35.574-13.129-50.815 1.089-29.575 32.149-1.441 35.612 11.577 1.425 33.921-7.827 37.015-22.483z" fill="#CFEDFC"/><path d="M259.368 184.987c1.404-1.155 3.227-2.2 5.514-3.096l.713 2.233 3.629 4.582 5.316 4.805 4.084-.605 20.414-2.11 21.459 2.289c-.675 2.146-1.767 4.163-3.172 6.032-6.352-1.268-21.179-1.644-29.233-1.66-2.155 2.525-2.935 11.108-3.104 16.234a16.25 16.25 0 01-.515-.055 43.6 43.6 0 01-6.611-1.347c-.198-4.008 1.189-9.739 2.198-12.921-6.313.343-12.991 3.452-16.674 5.618-1.697-1.359-3.169-2.81-4.362-4.306l8.183-4.482c-1.263-.64-5.255-6.918-7.839-11.211z" fill="#00ACE6"/><path d="M316.67 205.434l7.355 4.958-33.234 49.016-7.985-5.383-6.134-9.017-3.071-14.889 5.5-13.08 13.2 4.015 24.369-15.62z" fill="#FFE100"/><path fill-rule="evenodd" clip-rule="evenodd" d="M393.604 160.576a4.066 4.066 0 00-5.725.397c-2.904 3.328-7.739 6.437-12.972 8.98-5.165 2.511-10.301 4.272-13.42 5.068a4.044 4.044 0 00-2.924 4.923 4.06 4.06 0 004.939 2.917c3.668-.937 9.32-2.891 14.963-5.634 5.575-2.71 11.569-6.392 15.539-10.943a4.037 4.037 0 00-.4-5.708z" fill="#1A1A1A"/><path d="M342.599 206.244c9.889-6.593 20.934 15.747 25.22 27.742 17.741 46.947-18.71 38.949-32.279 14.457-5.584-10.079-5.302-33.959 7.059-42.199z" fill="#CFEDFC"/><path d="M371.763 260.719c.554-1.737.848-3.822.83-6.282l-2.354.173-5.642-1.658-6.48-3.142-.964-4.021-5.668-19.762-10.171-19.086c-1.753 1.431-3.23 3.201-4.451 5.206 3.563 5.428 9.464 19.067 12.493 26.546-1.554 2.948-9.285 6.885-14.013 8.96.08.156.162.309.245.459a43.4 43.4 0 003.733 5.639c3.82-1.316 8.658-4.75 11.254-6.878 2.043 5.995 1.637 13.364.99 17.597 1.906 1.069 3.813 1.894 5.658 2.443l1.127-9.282c1.071.934 8.433 2.294 13.413 3.088z" fill="#00ACE6"/><path d="M331.382 215.343l-7.355-4.958-33.234 49.017 7.985 5.382 10.679 2.315 15.001-2.707 10.123-9.962-8.655-10.718 5.456-28.369z" fill="#FFE100"/><path fill-rule="evenodd" clip-rule="evenodd" d="M355.137 164.475c-11.337-7.625-35.29-12.797-45.142 8.38-18.538-5.172-56.75-5.536-62.573 16.421-3.344 12.61 14.459 27.448 24.716 29.479-3.193 8.021-5.857 27.245 9.033 39.967l-2.299 18.271-.005.007.004-.002V277l.002-.003 16.143-8.948c17.389 9.036 34.287-.592 40.562-6.536 5.713 8.735 26.157 19.678 36.647 11.884 18.264-13.57 3.686-48.79-8.036-64.017 16.05-17.02 2.277-37.274-9.049-44.909l-.003.004zm-31.096 45.921l-.003.004-3.573-2.408c-4.535 5.244-13.799 9.214-17.865 10.543.412 5.872 5.338 10.405 7.776 11.957l.004-.005c2.334 1.676 8.412 4.573 14.052 2.758-.278-4.257-.036-14.308 3.155-20.459l-3.546-2.39zm-23.861 35.191l-.002.004c-11.937-8.046-15.423-19.552-15.674-24.3l-4.431-.239c-7.813 17.658 4.415 31.348 11.983 36.462l.002-.004c7.566 5.099 24.888 11.343 38.426-2.483l-1.874-4.01c-4.509 1.536-16.502 2.597-28.43-5.43zm-14.279-66.999c12.663-.499 37.354 1.375 35.037 12.853-11.012-1.665-30.076-3.2-44.758.128-2.327-.826-7.119-4.008-9.185-10.407 4.643-1.464 10.856-2.401 18.906-2.574zm9.052 14.648c5.936-.016 17.379.241 25.058 1.235-4.851 11.914-22.548 19.502-33.468 19.315-.686-5.81.348-15.063 8.41-20.55zm-5.913.592c-2.911 3.232-7.653 11.172-6.179 19.587-9.393-1.526-17.841-6.113-22.761-11.48 4.598-3.315 14.01-7.539 28.94-8.107zm-17.654-.607c-3.598.925-10.21 2.994-13.901 5.242-3.434-5.785-2.511-11.89 5.625-15.789.803 2.62 3.074 6.669 8.276 10.547zm96.446 40.59c-4.254-11.903-15.2-34.051-25.018-27.63 5.653 9.569 14.186 26.637 16.56 41.462 1.635 1.845 6.382 5.093 13.108 4.62-.368-4.842-1.811-10.94-4.65-18.452zm-17.005-2.917c-2.198-5.499-6.701-15.991-10.488-22.726-9.28 8.929-9.747 28.131-5.503 38.165 5.662-1.53 13.888-5.935 15.991-15.439zm1.652 5.692c-1.923 3.897-7.546 11.243-15.927 13.016 4.921 8.123 12.339 14.23 19.166 16.783 1.373-5.49 1.796-15.773-3.239-29.799zm7.144 16.108c.48 3.674 1.018 10.563.301 14.816 6.664 1.021 12.001-2.107 12.598-11.088-2.737.233-7.351-.36-12.899-3.728z" fill="#1A1A1A"/><defs><linearGradient id="paint0_linear_1436_6260" x1="357.934" y1="64.868" x2="376.502" y2="67.202" gradientUnits="userSpaceOnUse"><stop stop-color="#7C7C7C"/><stop offset=".32" stop-color="#DDD"/><stop offset=".46" stop-color="#C6C6C6"/><stop offset=".68" stop-color="#AAA"/><stop offset=".86" stop-color="#999"/><stop offset="1" stop-color="#939393"/></linearGradient></defs></svg>