<svg width="133" height="32" viewBox="0 0 133 32" fill="none" xmlns="http://www.w3.org/2000/svg"><g clip-path="url(#clip0_1763_4263)"><path d="M82.026 15.998h.872l.437.743-.437.742h-.872l-.436-.742.436-.743z" fill="#0101D7"/><path fill-rule="evenodd" clip-rule="evenodd" d="M21.284 4.07H7.094L0 16l7.095 11.93h14.19L28.378 16 21.284 4.07zm-3.648 6.135h-6.893L7.297 16l3.446 5.795h6.893L21.082 16l-3.446-5.795z" fill="#0078FB"/><path d="M12.12 12.52h4.114l2.057 3.458-2.057 3.458h-4.113l-2.056-3.458 2.056-3.458z" fill="#737373"/><path d="M16.239 19.439l-2.031-3.459-2.083 3.459h4.114z" fill="#464646"/><path d="M16.239 12.52h-4.114l2.084 3.458 2.03-3.458z" fill="#C7C7C7"/><path d="M16.234 12.52l-2.03 3.458h4.097l-2.067-3.458zm-2.03 3.458l-2.083-3.458-2.056 3.458h4.14z" fill="#989898"/><path d="M21.283 27.928l7.095-11.93H21.08l-3.446 5.795 3.648 6.135z" fill="#0058FB"/><path d="M21.282 27.931l3.65-6.134h-7.297l3.647 6.134z" fill="#0078FB"/><path d="M24.946 10.209h-7.311l3.445 5.793 3.865-5.795.001.002z" fill="#4CBAFB"/><path d="M24.945 10.213L21.08 16h7.296l-3.431-5.786v-.001z" fill="#9DDAFB"/><path d="M14.188 27.931l3.446-6.134 3.648 6.134h-7.094z" fill="#0069E4"/><path d="M0 15.998h7.297l-3.85 5.795h7.296l3.552 6.135h-7.2l-3.648-6.135L0 15.998z" fill="#0101D7"/><path fill-rule="evenodd" clip-rule="evenodd" d="M7.297 16.003L3.46 10.207 0 16.003h7.296l3.446 5.795H3.46L7.297 16v.002z" fill="#0035FB"/><path d="M17.633 10.205L14.292 4.07l-3.551 6.135h6.893-.001z" fill="#0027FB"/><path d="M21.283 4.07l-3.648 6.135h7.311L21.284 4.07h-.001z" fill="#37A0FB"/><path d="M37.84 20.387v-9.094h1.173v9.094H37.84zm11.942-7.185c-.217-.24-.55-.458-1.003-.653a3.75 3.75 0 00-1.512-.296c-.712 0-1.236.133-1.575.397-.34.265-.508.628-.508 1.09 0 .323.086.58.26.768.174.188.439.34.795.46.365.12.825.244 1.38.372a9.468 9.468 0 011.668.5c.47.196.83.461 1.082.794.252.325.378.76.378 1.306 0 .582-.148 1.059-.443 1.434-.296.376-.7.654-1.212.833-.503.18-1.072.27-1.707.27-1.441 0-2.697-.428-3.765-1.282l.561-.973c.191.188.447.376.769.564.33.188.703.345 1.12.474.426.119.872.179 1.342.179.659 0 1.172-.116 1.537-.346.364-.24.547-.585.547-1.037 0-.342-.105-.615-.313-.82-.2-.206-.5-.376-.898-.513a16.19 16.19 0 00-1.46-.41 10.692 10.692 0 01-1.576-.499c-.425-.188-.747-.431-.964-.73-.208-.299-.312-.687-.312-1.166 0-.58.143-1.07.43-1.472.285-.402.681-.705 1.185-.91.503-.205 1.072-.307 1.706-.307a4.773 4.773 0 013.035 1.038l-.547.934zm9.385 7.249a4.011 4.011 0 01-1.772-.385 4.426 4.426 0 01-1.38-1.038 4.979 4.979 0 01-.886-1.485 4.808 4.808 0 01-.313-1.704c0-.605.109-1.182.325-1.728a4.878 4.878 0 01.925-1.473c.394-.432.868-.78 1.394-1.025a3.926 3.926 0 011.732-.384c.652 0 1.242.132 1.772.397.521.258.986.62 1.368 1.063a5 5 0 01.886 1.485c.42 1.1.416 2.323-.013 3.42a4.764 4.764 0 01-.925 1.474c-.39.426-.86.77-1.38 1.01a4.04 4.04 0 01-1.733.373zM56 15.839c0 .462.073.91.221 1.346.157.427.374.806.652 1.14.277.332.618.602 1.002.794.392.196.827.295 1.304.295.495 0 .938-.103 1.328-.308.391-.206.72-.479.99-.82.278-.34.49-.732.625-1.153.148-.427.222-.858.222-1.294 0-.46-.079-.904-.234-1.331a3.468 3.468 0 00-.652-1.14 2.895 2.895 0 00-1.003-.795 2.75 2.75 0 00-1.276-.295 2.82 2.82 0 00-1.33.308 3.037 3.037 0 00-1.002.807 3.914 3.914 0 00-.626 1.153c-.148.418-.22.85-.22 1.293zm12.189-4.546l3.061 7.647 3.049-7.647h1.238l-3.753 9.094h-1.068l-3.764-9.094h1.238-.001zm13.784 0h.99l3.778 9.094h-1.334l-1.012-2.664-1.927-5.098-3.036 7.762h-1.25l3.79-9.094zm9.127 9.094v-9.094h1.173v8.069h5.16v1.025h-6.332zm17.014-1.025v1.025h-6.279v-9.094h6.161v1.025h-4.989v2.945h4.338v.961h-4.338v3.138h5.107zm5.907-5.943v6.968h-1.173v-9.094h.991l5.653 7.109v-7.096h1.173v9.081h-1.068l-5.576-6.968zm18.648-1.101h-3.191v8.069h-1.173v-8.07h-3.192v-1.024h7.556v1.025z" fill="#0A0B0F"/></g><defs><clipPath id="clip0_1763_4263"><path fill="#fff" d="M0 0h133v32H0z"/></clipPath></defs></svg>