<svg width="86" height="32" viewBox="0 0 86 32" fill="none" xmlns="http://www.w3.org/2000/svg"><g clip-path="url(#clip0_1763_4287)"><path d="M82.776 23.511h-3.23v-4.95c0-1.18-.021-2.7-1.679-2.7-1.682 0-1.94 1.286-1.94 2.614v5.036H72.7v-10.18h3.1v1.391h.043c.31-.519.759-.946 1.297-1.236a3.457 3.457 0 011.762-.408c3.273 0 3.876 2.107 3.876 4.849l-.001 5.584zM69.056 11.94c-.371 0-.734-.108-1.042-.31a1.843 1.843 0 01-.69-.822 1.798 1.798 0 01-.107-1.06c.072-.356.25-.683.513-.94.261-.256.595-.43.959-.502.363-.07.74-.034 1.083.104.342.14.635.374.84.676a1.808 1.808 0 01-.232 2.316 1.907 1.907 0 01-1.325.537zM70.67 23.51h-3.233v-10.18h3.233v10.18zM84.385 5.335h-18.57a1.609 1.609 0 00-1.13.443 1.54 1.54 0 00-.479 1.095v18.255c.005.413.177.807.479 1.095a1.61 1.61 0 001.13.444h18.57c.423.005.83-.154 1.133-.443.303-.288.476-.683.482-1.096V6.872a1.544 1.544 0 00-.482-1.096 1.612 1.612 0 00-1.133-.442v.001zM55.417 15.788c-1.614 0-2.583 1.056-2.583 2.593 0 1.538.968 2.594 2.583 2.594 1.615 0 2.586-1.053 2.586-2.594 0-1.54-.97-2.593-2.586-2.593zm5.559 7.718h-2.973v-1.35h-.044a4.041 4.041 0 01-1.414 1.169 4.132 4.132 0 01-1.796.433c-3.103 0-5.147-2.192-5.147-5.291 0-2.847 1.809-5.461 4.782-5.461 1.336 0 2.585.357 3.317 1.35h.042V8.488h3.232v15.018zm-15.52-6.273a1.859 1.859 0 00-.138-.75 1.894 1.894 0 00-.429-.635 1.972 1.972 0 00-1.416-.554 2.185 2.185 0 00-1.546.512 2.094 2.094 0 00-.736 1.428h4.265zm2.735 4.511a5.674 5.674 0 01-1.975 1.5c-.763.35-1.597.53-2.44.526-3.23 0-5.815-2.11-5.815-5.378 0-3.267 2.585-5.376 5.815-5.376 3.018 0 4.91 2.107 4.91 5.376v.992h-7.495a2.35 2.35 0 00.839 1.436 2.444 2.444 0 001.595.546c.46-.003.911-.119 1.314-.336.402-.217.743-.53.99-.909l2.262 1.623zm-32.1-8.415h3.1v1.39h.044a3.36 3.36 0 011.297-1.236 3.451 3.451 0 011.76-.408c3.275 0 3.878 2.11 3.878 4.85v5.582h-3.229v-4.95c0-1.181-.022-2.7-1.682-2.7-1.678 0-1.937 1.287-1.937 2.614v5.035h-3.23l-.002-10.177zm11.717-4.84h3.229v8.977l3.66-4.143h3.959l-4.239 4.713 4.15 5.476h-4.06L31.08 18.48h-.043v5.031h-3.229V8.49zM11.07 13.328h3.23v10.18h-3.23v-10.18zm1.615-5.061c.37 0 .733.107 1.04.309.309.201.549.488.69.823.142.335.18.704.107 1.06-.072.355-.25.682-.513.938a1.885 1.885 0 01-.959.502c-.363.07-.74.034-1.082-.104a1.865 1.865 0 01-.84-.676 1.806 1.806 0 01.232-2.315 1.91 1.91 0 011.325-.537zM0 8.49h3.361v11.986h6.223v3.036H0V8.491z" fill="#0A66C2"/></g><defs><clipPath id="clip0_1763_4287"><path fill="#fff" d="M0 0h86v32H0z"/></clipPath></defs></svg>