<svg width="141" height="32" viewBox="0 0 141 32" fill="none" xmlns="http://www.w3.org/2000/svg"><g clip-path="url(#clip0_1763_4284)"><path d="M4.62 16.85c.813 1.055 1.797 2.069 2.781 3.04 1.711 1.688 3.636 3.208 5.604 4.348H7.273C4.32 22.127 1.71 19.298 0 16.47c1.711-2.786 4.32-5.615 7.273-7.726h5.732a30.18 30.18 0 00-5.604 4.349c-.984.97-1.968 2.026-2.78 3.04a.476.476 0 00-.129.337c0 .169.043.296.128.38zm28.962 0c-.813 1.055-1.797 2.069-2.78 3.04-1.712 1.688-3.637 3.208-5.605 4.348h5.733c2.952-2.111 5.561-4.94 7.272-7.768-1.71-2.828-4.32-5.657-7.272-7.768h-5.733a32.35 32.35 0 015.604 4.39c.984.972 1.968 2.027 2.781 3.04a.476.476 0 01.128.338c0 .169-.042.296-.128.38zM19.08 19.847c1.882 0 3.38-1.477 3.38-3.335 0-1.857-1.498-3.335-3.38-3.335s-3.38 1.478-3.38 3.335c.043 1.816 1.54 3.335 3.38 3.335zm0-11.103c4.363 0 7.871 3.462 7.871 7.768 0 4.306-3.508 7.768-7.871 7.768-4.364 0-7.872-3.462-7.872-7.768.043-4.306 3.551-7.768 7.872-7.768zm79.57 5.109h2.181L96.553 24.28h-1.497l-2.952-7.303-2.951 7.303h-1.498l-4.278-10.427h2.182l2.91 7.134 2.908-7.134h1.498l2.909 7.134 2.866-7.134zm25.368 3.883c.342-1.35 1.583-2.28 2.952-2.28 1.24 0 2.481.93 2.78 2.28h-5.732zm7.957 1.774c.043-.212.043-.338.043-.465 0-3.082-2.139-5.446-5.091-5.446-2.995 0-5.134 2.322-5.134 5.446 0 3.124 2.396 5.446 5.476 5.446 2.139 0 3.679-.97 4.449-1.942l-1.411-1.308c-.599.675-1.455 1.435-3.038 1.435a3.403 3.403 0 01-3.422-3.166h8.128zm3.978-4.433c.514-.718 1.626-1.435 3.166-1.435.214 0 .599.042.813.084l-.257 2.026c-.256-.084-.513-.084-.813-.084-1.112 0-2.267.76-2.866 1.73v6.882h-2.139V13.853h2.054v1.224h.042zm-26.566 5.952a3.664 3.664 0 01-2.909 1.478c-2.053 0-3.508-1.562-3.508-3.42 0-1.815 1.369-3.42 3.38-3.42a3.76 3.76 0 012.995 1.478v3.884h.042zm.086-6.205a5.09 5.09 0 00-3.294-1.182c-.984 0-1.882.253-2.567.675-1.583.929-2.738 2.702-2.738 4.77 0 2.069 1.113 3.8 2.695 4.729.728.422 1.712.675 2.653.675 1.24 0 2.395-.422 3.251-1.182v.971h2.053V13.853h-2.053v.97zm-48.127 2.912c.342-1.35 1.583-2.28 2.952-2.28 1.24 0 2.481.93 2.78 2.28h-5.732zm7.957 1.31c0-3.083-2.139-5.447-5.09-5.447-2.995 0-5.134 2.322-5.134 5.446 0 3.124 2.395 5.446 5.475 5.446 2.14 0 3.68-.97 4.45-1.942l-1.412-1.308c-.6.675-1.455 1.435-3.038 1.435a3.403 3.403 0 01-3.422-3.166h8.128c.043-.212.043-.338.043-.465zm4.107 5.234h-2.14V8.533h2.14V24.28zM55.614 8.744h1.582V24.28H54.93V13.853l-4.62 7.134h-1.54l-4.62-7.134V24.28H41.88V8.744h1.583l6.118 9.5 6.032-9.5zm23.4 2.238v2.87h3.38v1.9h-3.38v4.897c0 .55.043 1.014.3 1.351.299.338.898.55 1.454.55.3 0 .856-.043 1.155-.128l.428 1.9c-.385.127-1.07.211-1.669.211-1.326 0-2.31-.464-2.994-1.224-.642-.675-.856-1.646-.856-2.786v-4.77h-1.54v-1.9h1.54v-2.871h2.182zm36.063 0v2.87h-1.54v1.9h1.54v4.77c0 1.14.214 2.07.856 2.787.684.76 1.668 1.224 2.994 1.224.599 0 1.241-.084 1.669-.21l-.428-1.9c-.3.084-.856.126-1.155.126-.556 0-1.155-.21-1.455-.549-.256-.295-.299-.76-.299-1.35v-4.855h3.379v-1.9h-3.422v-2.913h-2.139z" fill="#202020"/></g><defs><clipPath id="clip0_1763_4284"><path fill="#fff" d="M0 0h141v32H0z"/></clipPath></defs></svg>