<svg width="78" height="32" viewBox="0 0 78 32" fill="none" xmlns="http://www.w3.org/2000/svg">
  <path
    d="M2.732 18.788c0 .981.196 1.735.453 2.19.337.597.84.85 1.351.85.66 0 1.265-.18 2.43-1.944.932-1.415 2.031-3.4 2.77-4.645l1.253-2.109c.87-1.464 1.877-3.092 3.032-4.196.942-.9 1.96-1.4 2.982-1.4 1.718 0 3.355 1.09 4.607 3.136 1.371 2.241 2.036 5.064 2.036 7.977 0 1.732-.311 3.004-.841 4.01-.512.972-1.51 1.943-3.189 1.943v-2.772c1.438 0 1.796-1.447 1.796-3.104 0-2.36-.502-4.98-1.608-6.853-.786-1.328-1.803-2.139-2.923-2.139-1.21 0-2.185 1.001-3.28 2.785-.582.948-1.18 2.104-1.851 3.408l-.739 1.434c-1.484 2.883-1.86 3.54-2.602 4.624C7.11 23.88 6 24.6 4.536 24.6c-1.734 0-2.83-.823-3.51-2.063C.472 21.527.2 20.2.2 18.689l2.533.1z"
    fill="#0081FB" />
  <path
    d="M2.332 10.866c1.154-1.961 2.82-3.333 4.729-3.333 1.106 0 2.205.361 3.354 1.395 1.256 1.13 2.594 2.992 4.264 6.06l.599 1.1c1.445 2.656 2.268 4.022 2.749 4.666.619.827 1.052 1.074 1.616 1.074 1.428 0 1.785-1.447 1.785-3.104l2.22-.077c0 1.732-.31 3.004-.836 4.01-.51.972-1.501 1.943-3.17 1.943-1.037 0-1.955-.248-2.971-1.306-.781-.81-1.695-2.252-2.397-3.548l-2.09-3.85c-1.048-1.931-2.01-3.372-2.567-4.024-.599-.701-1.368-1.548-2.597-1.548-.994 0-1.838.77-2.545 1.946l-2.143-1.404z"
    fill="url(#paint0_linear_1763_4255)" />
  <path
    d="M6.555 10.31c-.947 0-1.75.766-2.424 1.938-.952 1.655-1.534 4.12-1.534 6.488 0 .976.186 1.726.429 2.18l-2.044 1.55c-.525-1.005-.783-2.325-.783-3.83 0-2.734.652-5.584 1.89-7.785 1.1-1.953 2.686-3.318 4.505-3.318l-.039 2.778z"
    fill="url(#paint1_linear_1763_4255)" />
  <path
    d="M28.975 8.6h2.935l4.991 9.566L41.893 8.6h2.872v15.72H42.37V12.27l-4.377 8.343h-2.247l-4.377-8.343V24.32h-2.394V8.6zm23.294 5.86c-1.718 0-2.752 1.37-3 3.066h5.829c-.12-1.747-1.071-3.065-2.83-3.065zm-5.374 4.032c0-3.568 2.177-6.165 5.415-6.165 3.186 0 5.088 2.564 5.088 6.355v.697h-8.129c.289 1.845 1.444 3.088 3.307 3.088 1.486 0 2.415-.48 3.296-1.36l1.272 1.651C55.945 23.926 54.42 24.6 52.49 24.6c-3.506 0-5.596-2.709-5.596-6.108zm13.406-3.806h-2.204v-2.078h2.204V9.173h2.311v3.435h3.349v2.078h-3.349v5.265c0 1.798.542 2.437 1.876 2.437.609 0 .957-.055 1.473-.146v2.055a6.519 6.519 0 01-1.918.28c-2.495 0-3.742-1.444-3.742-4.334v-5.557zm15.389 2.02c-.464-1.241-1.5-2.155-3.02-2.155-1.978 0-3.243 1.486-3.243 3.907 0 2.36 1.165 3.919 3.148 3.919 1.558 0 2.671-.961 3.115-2.156v-3.515zM78 24.32h-2.268v-1.64c-.634.966-1.787 1.92-3.656 1.92-3.005 0-5.013-2.665-5.013-6.14 0-3.51 2.056-6.132 5.14-6.132 1.525 0 2.721.646 3.53 1.786v-1.505H78V24.32z"
    fill="#192830" />
  <defs>
    <linearGradient id="paint0_linear_1763_4255" x1="5.29" y1="17.988" x2="21.341" y2="18.723"
      gradientUnits="userSpaceOnUse">
      <stop stop-color="#0064E1" />
      <stop offset=".4" stop-color="#0064E1" />
      <stop offset=".83" stop-color="#0073EE" />
      <stop offset="1" stop-color="#0082FB" />
    </linearGradient>
    <linearGradient id="paint1_linear_1763_4255" x1="3.673" y1="19.895" x2="3.673" y2="13.403"
      gradientUnits="userSpaceOnUse">
      <stop stop-color="#0082FB" />
      <stop offset="1" stop-color="#0064E0" />
    </linearGradient>
  </defs>
</svg>
