<svg width="78" height="32" viewBox="0 0 78 32" fill="none" xmlns="http://www.w3.org/2000/svg"><path d="M19.013 8.364h4.831c1.793 0 2.962.076 3.974 1.137.701.76 1.09 1.67 1.09 2.732 0 1.062-.389 1.973-1.168 2.731-.78.759-1.791 1.215-4.363 1.215H21.04v6.297h-2.026V8.364h-.001zm2.026 6.221h2.338c1.325 0 3.35-.076 3.35-2.428 0-2.2-1.87-2.2-2.961-2.2H21.04v4.628zm14.338 7.89c-.156-.454-.156-.986-.156-1.44-.936 1.592-2.26 1.744-3.117 1.744-2.338 0-3.585-1.29-3.585-2.883 0-.759.312-2.049 1.793-2.883 1.09-.607 2.649-.607 3.506-.607.468 0 .779 0 1.325.076 0-1.214 0-1.745-.39-2.2-.39-.456-1.168-.608-1.714-.608-1.87 0-2.026 1.291-2.026 1.67h-1.87c.078-.531.156-1.214.701-1.82.78-.835 2.182-1.063 3.273-1.063 1.48 0 3.039.455 3.584 1.441.312.608.312 1.063.312 1.518l-.078 4.704c0 .151 0 1.442.156 2.428h-1.714v-.076zm-1.325-4.856c-.78 0-3.662 0-3.662 1.973 0 .607.39 1.669 2.104 1.669.935 0 1.714-.38 2.181-1.063.39-.683.468-1.213.468-2.58-.312.077-.624 0-1.091 0zm4.597-9.255h1.87v14.112h-1.87V8.364zm9.975 14.112c-.156-.455-.156-.987-.156-1.442-.936 1.593-2.26 1.745-3.118 1.745-2.337 0-3.584-1.29-3.584-2.883 0-.759.312-2.049 1.792-2.883 1.091-.607 2.65-.607 3.507-.607.468 0 .779 0 1.325.076 0-1.214 0-1.745-.39-2.2-.39-.456-1.169-.608-1.714-.608-1.87 0-2.026 1.291-2.026 1.67h-1.87c.078-.531.155-1.214.701-1.82.78-.835 2.182-1.063 3.273-1.063 1.48 0 3.038.455 3.584 1.441.312.608.312 1.063.312 1.518l-.078 4.704c0 .151 0 1.442.156 2.428h-1.714v-.076zm-1.248-4.856c-.779 0-3.662 0-3.662 1.973 0 .607.39 1.669 2.104 1.669.936 0 1.715-.38 2.182-1.063.39-.683.468-1.213.468-2.58-.39.077-.624 0-1.091 0h-.001zm4.598-3.794v-1.138h1.87v1.593c.234-.379.936-1.744 3.195-1.744.935 0 3.662.303 3.662 3.338v6.677h-1.948V16.33c0-.607-.077-1.214-.545-1.669-.468-.455-1.17-.682-1.792-.682-1.403 0-2.65.985-2.65 2.958v5.615h-1.87v-8.726h.078zm9.351-1.138h1.792v-2.124l1.87-.607v2.656h2.26v1.366h-2.26v5.841c0 .455 0 1.29 1.324 1.29.39 0 .78-.076.936-.076v1.442c-.312.076-.858.151-1.559.151-1.792 0-2.57-.531-2.57-2.124v-6.525h-1.794v-1.29h.001zm7.246-4.324h2.26v2.049h-2.26v-2.05zm.156 4.324h1.87v9.788h-1.87v-9.788zm3.662 1.973c0-.682-.077-1.366-.077-1.973h1.87l.078 1.897c.39-1.365 1.558-1.82 2.415-1.897.44-.057.882-.082 1.325-.076v1.822c-.078 0-.234-.076-.39-.076h-.546c-2.259 0-2.726 1.289-2.726 2.958v5.235h-1.87v-7.89h-.079zM7.403 6.467c-3.896 0-7.091 3.11-7.091 6.904s3.195 6.904 7.09 6.904c3.897 0 7.092-3.11 7.092-6.904 0-3.793-3.195-6.904-7.091-6.904zm0 11.684c-2.728 0-4.91-2.124-4.91-4.78s2.182-4.78 4.91-4.78c2.727 0 4.91 2.124 4.91 4.78-.08 2.656-2.26 4.78-4.91 4.78zm6.31 1.518l-6.31 2.654L1.09 19.67 0 21.565 7.402 24.6l7.403-3.035-1.092-1.896z" fill="#1A1A1A"/></svg>