<svg width="86" height="32" viewBox="0 0 86 32" fill="none" xmlns="http://www.w3.org/2000/svg"><g clip-path="url(#clip0_1763_4321)"><path d="M31.759 8a7.652 7.652 0 00-5.351 2.18 7.371 7.371 0 00-2.22 5.252c0 2.48 1.062 4.69 3.07 6.391 1.882 1.593 4.58 2.691 7.696 3.2.445-.24 1.288-1.05 1.556-1.606-2.295-.388-3.348-.774-3.348-.774.3-.028.596-.086.884-.174 3.066-.844 5.314-3.817 5.284-7.037C39.29 11.334 35.933 8 31.759 8zm0 12.724a5.465 5.465 0 01-2.996-.892 5.314 5.314 0 01-1.985-2.375 5.202 5.202 0 01-.307-3.058 5.263 5.263 0 011.476-2.71 5.423 5.423 0 012.76-1.448 5.487 5.487 0 013.115.301 5.37 5.37 0 012.42 1.95c.592.87.908 1.893.908 2.94a5.249 5.249 0 01-1.58 3.74 5.45 5.45 0 01-3.811 1.552zm41.868-1.878l-2.557-6.66h-2.278l3.73 9.296-1.65 3.851c1.087 0 2.275-.075 2.739-1.198 1.09-2.634 4.886-11.949 4.886-11.949h-2.279l-2.59 6.66zm-8.547 3.322s2.116-.038 2.116-1.447V8.07H65.08v14.098zm-4.386-8.671c-.589-.806-1.74-1.589-3.433-1.589-2.89 0-5.07 2.207-5.07 5.133 0 1.368.476 2.64 1.341 3.58.936 1.016 2.225 1.554 3.73 1.554 1.456 0 2.703-.584 3.432-1.583v1.576s2.115-.033 2.115-1.446v-8.537h-2.115v1.312zm-3.168 6.724c-1.278 0-3.19-.838-3.221-3.146v-.016c0-1.822 1.37-3.197 3.186-3.197 1.356 0 2.459.696 2.951 1.867.199.42.291.88.27 1.342-.013.47-.124.931-.325 1.357-.498 1.122-1.567 1.793-2.86 1.793zm-9.189-2.624c0 1.676-.887 2.608-2.496 2.623-1.632 0-2.425-.909-2.425-2.78v-5.254H41.3v5.671c0 .819.14 1.986.81 2.9.685.933 1.767 1.41 3.216 1.418h.06c1.732 0 2.624-.771 3.056-1.37v1.363s2.009-.034 2.009-1.377v-8.605h-2.115v5.41zm35.23-1.466c-1.098-.466-1.897-.87-1.883-1.495.01-.414.565-.81 1.142-.79.618.02 1.076.438 1.332.773 0 0 1.155-.97 1.295-1.073a3.212 3.212 0 00-1.172-1.126A3.285 3.285 0 0082.697 12a2.964 2.964 0 00-2.094.784 2.856 2.856 0 00-.918 2.007c-.03 1.364.783 1.926 1.85 2.52l1.756.97c.406.279.597.486.587.914-.015.67-.586 1.105-1.326 1.148-.545.032-.992-.277-1.415-.712-.825-.847-2.09-.44-2.477-.318.806 1.818 2.328 2.876 3.85 2.909 1.916.041 3.448-1.347 3.49-3.16.018-.874-.372-1.959-2.432-2.932z" fill="#262626"/><path d="M8.808 5.334c5.737 0 8.621 3.044 8.621 3.044s.33 2.254.12 6.79c-.319 6.855-8.739 10.97-8.74 10.971 0 0-8.42-4.116-8.739-10.97-.21-4.537.12-6.79.12-6.79S3.07 5.333 8.808 5.333z" fill="#ED2E26"/><path d="M4.507 14.346c0-2.424 1.932-4.395 4.306-4.395a4.332 4.332 0 013.046 1.253 4.261 4.261 0 011.264 3.02c0 1.882-1.631 3.43-2.888 4.226.488.276 1.564.566 2.594.66a6.18 6.18 0 001.784-2.164c.42-.847.638-1.778.638-2.721a6.34 6.34 0 00-.484-2.45 6.381 6.381 0 00-1.394-2.079 6.441 6.441 0 00-2.091-1.39 6.484 6.484 0 00-7.029 1.39 6.382 6.382 0 00-1.394 2.079 6.34 6.34 0 00-.484 2.45c0 2.126.893 4.015 2.582 5.463 1.579 1.353 3.888 2.256 6.518 2.684.57-.312 1.544-1.234 1.91-1.774-2.197-.28-4.275-.811-5.668-1.536-2.13-1.108-3.21-2.695-3.21-4.716z" fill="#fff"/></g><defs><clipPath id="clip0_1763_4321"><path fill="#fff" d="M0 0h86v32H0z"/></clipPath></defs></svg>