<svg width="127" height="32" viewBox="0 0 127 32" fill="none" xmlns="http://www.w3.org/2000/svg"><g clip-path="url(#clip0_1763_4247)" fill="#1A1A1A"><path fill-rule="evenodd" clip-rule="evenodd" d="M8.688 20.891c-.218.075-.433.149-.652.226-3.872 1.36-5.174-1.102-5.008-2.283.145-1.041 1.041-1.94 2.068-1.94.46 0 .944.142 1.291.382.257.195.43.452.43.79a.775.775 0 01-.484.717.785.785 0 01-1.065-.569.774.774 0 01.335-.797.784.784 0 01.435-.13c0-.04-.32-.16-.636-.16-.844 0-1.718.778-1.263 2 .62 1.668 2.329 1.274 2.851 1.097.277-.094.642-.23 1.06-.384.36-.133.76-.28 1.173-.428.337.285.803.674 1.157.875-.639.242-1.173.426-1.692.604zM5.321 22.11c-.88 0-1.474.442-1.318.983.155.54 1 .93 1.878.865l7.128-.529a26.088 26.088 0 013.193 0l7.168.529c.878.065 1.723-.325 1.88-.865.154-.54-.44-.983-1.32-.983H5.322zm10.555-17.5c-.506-.002-.949.672-.201 1.75-.832-.178-1.317-.21-2.179 0 .79-1.14.352-1.752-.155-1.75-.803.006-1.098.457-1.093 1.18-.43-.25-.832-.904-.835-1.518-.004-.613.477-1.185 1.093-1.19.764-.004 1.15.236 1.5.64a8.856 8.856 0 00-.188-.364c-.133-.252-.29-.557-.291-.831-.002-.329.15-.69.368-1.086.207-.385.5-.956.696-1.44.2.481.502 1.05.714 1.431.222.393.379.754.38 1.082.002.274-.15.582-.28.834a9.89 9.89 0 00-.18.358c.346-.393.733-.629 1.487-.623.616.004 1.097.576 1.094 1.189-.005.614-.405 1.268-.836 1.518.004-.723-.29-1.174-1.094-1.18zm7.954 12.386c1.028 0 1.922.899 2.068 1.94.165 1.18-1.136 3.642-5.008 2.283a292.42 292.42 0 01-3.254-1.174 7.05 7.05 0 01-3.09.706c-3.854 0-6.979-3.072-6.979-6.86 0-3.79 3.125-6.86 6.98-6.86 3.854 0 6.98 3.07 6.98 6.86 0 2.15-1.008 4.07-2.584 5.329l1.117.415c.812.303 1.601.597 1.876.69.522.178 2.23.572 2.85-1.097.455-1.222-.418-2-1.261-2-.316 0-.638.119-.636.161a.784.784 0 01.724.479.773.773 0 01-.169.848.783.783 0 01-1.335-.55c0-.336.173-.594.43-.79.348-.238.831-.38 1.29-.38zm-6.037 1.864c1.21-1.162 1.989-2.97 1.989-5 0-3.505-2.318-6.346-5.177-6.346-2.859 0-5.176 2.84-5.176 6.345 0 1.997.753 3.78 1.929 4.942.324-.586 1.162-1.356 3.301-.915.956.197 1.32.318 3.134.974zm-6.256.11c.858.777 1.92 1.235 3.068 1.235.748 0 1.46-.194 2.102-.545l-.132-.054c-1.647-.677-2.157-.887-2.97-.969-1.12-.114-1.735.105-2.068.334zm-8.785-3.598C5.052 11.073 0 7.523 0 7.523l2.576 10.213s.204-1.268 1.852-1.59c1.885-.368 2.862 1.105 2.862 1.105-1.14-6.5-4.538-1.88-4.538-1.88zm23.403 0c-2.3-4.298 2.751-7.848 2.751-7.848L26.33 17.736s-.204-1.268-1.852-1.59c-1.885-.368-2.862 1.105-2.862 1.105 1.14-6.5 4.539-1.88 4.539-1.88z"/><path d="M122.741 18.982h-.041l-2.914-8.576h-1.346l3.689 10.38c-.59 2.17-1.529 2.92-2.385 2.92-.469 0-.855-.101-1.223-.142v.993c.285.08.612.12 1.142.12 1.916 0 2.67-.912 3.383-2.98l3.955-11.29h-1.305l-2.955 8.575z"/><path fill-rule="evenodd" clip-rule="evenodd" d="M40.822 16.755c1.161.203 2.12.852 2.853 1.947.795-1.095 1.223-2.697 1.223-4.765 0-4.115-1.753-6.426-4.464-6.426-2.71 0-4.464 2.31-4.464 6.426s1.753 6.427 4.464 6.427c.877 0 1.672-.244 2.324-.73-.632-1.075-1.1-1.439-1.936-1.562v-1.317zm5.952 5.718c-1.285 0-2.67-.467-3.445-1.845-.816.547-1.794.83-2.895.83-3.689 0-5.809-3.202-5.809-7.52 0-4.319 2.12-7.522 5.81-7.522 3.689 0 5.809 3.203 5.809 7.521 0 2.474-.693 4.582-1.998 5.92.632 1.095 1.243 1.399 2.528 1.399v1.217zm8.499-11.76v10.543H54.05v-1.662c-1.14 1.175-2.08 1.864-3.628 1.864-2.201 0-3.139-1.256-3.139-3.547v-7.197h1.223v7.076c0 1.743.53 2.697 2.16 2.697 1.305 0 2.04-.791 3.385-2.009v-7.763h1.222v-.001zm8.357 4.34c-.244-2.17-1.203-3.549-3.057-3.568-2.161-.021-3.078 2.168-3.099 3.567h6.156zm-6.156.973c0 2.392 1 4.46 3.404 4.46 1.366 0 2.039-.466 3.099-2.129l.998.527c-1.14 1.865-2.18 2.574-4.198 2.574-2.773 0-4.526-1.763-4.526-5.474 0-3.264 1.672-5.473 4.362-5.473 2.875 0 4.24 2.25 4.24 5.514h-7.379zm15.736-.974c-.244-2.168-1.202-3.547-3.057-3.567-2.16-.021-3.077 2.168-3.098 3.567h6.155zm-6.155.974c0 2.392.998 4.46 3.404 4.46 1.365 0 2.038-.466 3.098-2.129l.999.527c-1.141 1.865-2.181 2.574-4.2 2.574-2.77 0-4.524-1.763-4.524-5.474 0-3.264 1.671-5.473 4.362-5.473 2.874 0 4.24 2.25 4.24 5.514h-7.38zm8.48 5.23V10.714h1.222v1.662c1.141-1.175 2.08-1.865 3.629-1.865 2.201 0 3.139 1.257 3.139 3.548v7.197h-1.224V14.18c0-1.743-.529-2.697-2.16-2.697-1.304 0-2.039.79-3.384 2.008v7.763h-1.223zm14.308 0V6.619h2.365l4.057 12.407h.04l4.076-12.408h2.365v14.638h-1.345V7.714h-.041l-4.423 13.541h-1.284L91.23 7.715h-.041v13.54h-1.346zm20.567-5.96c-4.851 1.054-5.503 2.048-5.503 3.385 0 1.156.795 1.805 1.895 1.805 1.142 0 2.548-.67 3.609-1.744v-3.447h-.001zm.204 5.96l-.163-1.277c-1.264.993-2.222 1.48-3.852 1.48-1.651 0-2.915-1.014-2.915-2.757 0-2.879 2.365-3.407 6.788-4.379v-.73c0-1.399-.612-2.109-2.426-2.109-1.265 0-2.304.69-3.078 1.906l-.815-.487c.917-1.702 2.222-2.391 3.933-2.391 2.406 0 3.547.972 3.547 3.304v5.514c0 .527.041 1.217.164 1.926h-1.183zm2.283 0V10.714h1.223v2.007h.041c.57-1.298 1.712-2.21 3.057-2.21h.551v1.176h-.551c-1.345 0-3.098 1.581-3.098 3.609v5.96h-1.223z"/></g><defs><clipPath id="clip0_1763_4247"><path fill="#fff" d="M0 0h127v32H0z"/></clipPath></defs></svg>