<svg width="127" height="32" viewBox="0 0 127 32" fill="none" xmlns="http://www.w3.org/2000/svg"><g clip-path="url(#clip0_1763_4241)" fill-rule="evenodd" clip-rule="evenodd"><path d="M12.463 5.376c-.714.113-1.425.245-2.132.395-.468.098-.935.19-1.397.304-.426.106-.863.2-1.28.33a20.71 20.71 0 00-1.197.405 7.693 7.693 0 00-2.129 1.23c-.387.32-.748.667-1.052 1.068-.209.286-.397.586-.564.897-.162.298-.273.651-.276.993-.006 1.004.643 1.846 1.389 2.47.245.204.506.392.77.571.785.534 1.64 1.002 2.508 1.41.896.42 1.797.823 2.71 1.206.863.362 1.745.667 2.635.96l.771.248c.807.264 1.631.508 2.432.793.499.178 1.03.344 1.528.566.518.23 1.055.46 1.512.79.307.215.567.49.765.807.192.313.311.671.32 1.037.009.351-.09.696-.285.99-.5.77-1.371 1.295-2.211 1.645a36.502 36.502 0 01-3.85 1.35 76.99 76.99 0 01-2.242.621c-.754.193-1.523.396-2.285.584-.76.188-1.519.358-2.281.52l-1.311.271c-.262.052-.518.106-.78.162-.545.117-1.09.232-1.638.347-.624.136-1.247.267-1.87.401-.182.04-.362.087-.543.126-.162.037-.765.175-.317.148.623-.033 2.287-.177 5.843-.645 1.29-.21 2.583-.39 3.874-.597a69.916 69.916 0 004.792-.931c.454-.106.904-.219 1.356-.34.297-.081.592-.166.884-.255 1.247-.38 3.248-1.052 3.72-1.254 1.81-.78 2.936-1.365 3.524-2.762.2-.495.295-1.05.234-1.582a3.555 3.555 0 00-.487-1.401c-.248-.405-.587-.75-.941-1.069-.66-.59-1.4-1.068-2.19-1.472a13.87 13.87 0 00-.681-.327 20.542 20.542 0 00-2.101-.823c-1.086-.366-2.188-.692-3.279-1.042a23.37 23.37 0 01-1.826-.66 14.256 14.256 0 01-.748-.333c-.29-.138-.57-.289-.849-.45-.342-.204-.902-.553-.746-1.028.11-.339.485-.47.79-.593.285-.112.585-.191.88-.267.902-.228 1.822-.381 2.733-.572.268-.056.535-.114.801-.174.71-.164 1.442-.286 2.118-.55.581-.225 1.327-.584 1.544-1.21.312-.913-.042-1.9-.55-2.67a26.768 26.768 0 00-.568-.819c-.268-.367-.563-.713-.852-1.063-.13-.159-.29-.147-.423-.106-.178.06-.665.62-4.552 1.35z" fill="#C00"/><path d="M72.067 13.377l.052-.12.061-.104.054-.095.052-.082.037-.08.038-.06.03-.059.04-.036.094-.162.056-.097.067-.095.142-.237.086-.127.09-.131.022-.023.03-.008.067.024.033.021.045.052.089.126.092.168.103.23.108.274.12.332.022.058.039.097.05.126.07.162.008.03.014.037.022.073.017.06.014.06v.043l.008.045-.008.013v.06l-.044.059-.03.036-.076.03-.1.03-.126.015h-.078l-.075.007-.74.058h-.142l-.111.009h-.117l-.09.006-.091-.006h-.173l-.083-.015-.053-.015-.044-.029-.026-.038-.022-.052.011-.05.01-.069.04-.073.056-.095.05-.081.044-.074.045-.06.034-.059.03-.044.014-.044.023-.021zm-4.743 3.485l.106.028c.404.114.601.38.293.729-.098.111-.176.236-.254.358l-.067.11a.75.75 0 00-.127.34l.005.067c.02.178.165.369.253.521.186.313.382.592.599.879.033.047.508-.725.54-.769.17-.231.367-.436.542-.663.22-.284.46-.553.777-.735.317-.182.681-.254 1.046-.292.361-.04.723-.056 1.082-.075.74-.038 1.475-.12 2.21-.19.284-.028.704-.097.96.04.248.132.437.361.629.557.23.239.456.482.673.73.26.295.49.61.776.882.181.173.368.326.574.473l.106.067c.364.178.62-.056.698-.418.112-.535-.198-1.055-.45-1.505a9.87 9.87 0 01-.384-.755c-.1-.21-.201-.534-.023-.735.14-.154.425-.162.615-.211.225-.06.446-.126.67-.17.452-.092.9-.21 1.358-.267.256-.03.676-.217.897.003.29.285.014.821-.098 1.126-.18.508-.364 1.034-.422 1.572-.05.49.071 1.017.39 1.407.233.288.626.536.992.327.293-.168.507-.525.638-.822.245-.566.414-1.154.61-1.737a37.19 37.19 0 01.556-1.568c.147-.377.316-.75.465-1.126.094-.245.225-.474.328-.715.083-.204.112-.47.317-.598.25-.153.56.291.679.447.228.29.431.593.64.896.23.326.44.759.813.945.642.324 1.219-.432 1.58-.839.251-.277.504-.563.763-.84.275-.298.556-.594.83-.892.177-.19.41-.564.703-.57.253-.004.312.267.334.461.112.93.153 1.876.295 2.808.056.347.125.691.186 1.036l.09.487c.044.232.091.463.142.693.108.478.222.955.37 1.423.13.395.297.824.632 1.102.397.33 1.126.22 1.382-.24.053-.097.076-.215.098-.323.044-.23.022-.469.003-.7-.067-.82-.3-1.621-.315-2.45-.003-.34.025-.68.053-1.02.058-.793.161-1.584.205-2.379.057-.971.146-2-.14-2.947a3.294 3.294 0 00-.344-.777 3.187 3.187 0 00-.464-.602 2.531 2.531 0 00-.626-.482 1.945 1.945 0 00-.766-.225c-.608-.03-1.24.301-1.716.647a8.563 8.563 0 00-1.122.986c-.617.643-1.238 1.306-1.787 2.01-.158.207-.35.578-.67.539-.379-.05-.58-.608-.696-.902-.116-.277-.24-.55-.373-.82-.172-.344-.348-.684-.512-1.031-.136-.288-.276-.587-.487-.829-.242-.274-.554-.407-.899-.52-.244-.078-.593-.177-.831-.037-.32.187-.26.658-.279.963-.02.273-.05.536-.075.809-.07.657-.111 1.333-.262 1.978-.066.286-.164.646-.415.83-.194.141-.44.122-.664.131-.184.008-.37.003-.557-.003-.423-.008-.846-.025-1.269-.014-.362.01-.726.032-1.09.046-.324.013-.65.045-.975.045-.364.02-.81.078-1.152-.08-.27-.127-.415-.412-.535-.666-.172-.36-.391-.698-.598-1.042-.186-.305-.366-.613-.556-.916-.272-.438-.543-.873-.821-1.306-.182-.287-.37-.57-.565-.848-.158-.226-.36-.529-.638-.623a.43.43 0 00-.558.325c-.037.161.002.325-.031.486-.037.17-.106.338-.178.497-.142.32-.331.62-.523.914-.646.983-1.128 2.074-1.703 3.095-.11.191-.223.377-.332.568-.147.267-.244.487-.567.572-.29.075-.601.036-.893.107-.362.089-.468.394-.53.725-.05.28-.058.565-.102.848-.033.203-.084.433-.062.64zm-39.457 5.755c-.298.01-.593.064-.887.047-.346-.02-.563-.224-.69-.524-.151-.358-.237-.763-.33-1.14-.083-.355-.15-.704-.11-1.067.024-.198.055-.342.22-.478.258-.21.62-.073.893-.223.245-.135.325-.428.348-.682.038-.428-.009-.886-.03-1.315-.068-1.103.007-2.227-.135-3.323-.03-.253-.114-.543-.4-.618-.568-.148-.574-.699-.61-1.174-.022-.298-.025-.65.097-.93.164-.383.602-.582.986-.698.372-.113.751-.216 1.13-.317.383-.102.782-.158 1.174-.223.403-.067.807-.124 1.213-.186.395-.06.79-.113 1.191-.155.373-.042.748-.087 1.124-.108.44-.026.885-.052 1.325-.068.395-.017.79-.008 1.183-.006.393.003.782.02 1.172.031.4.014.806.047 1.201.1.577.076 1.124.174 1.62.491.515.333.857 1.015.348 1.52-.515.51-1.344.425-2.012.425-.547.001-1.094.01-1.642.029-.526.016-1.052.07-1.58.101-.49.03-.977.065-1.47.102-.506.037-1.016.085-1.522.135-.404.037-.81.076-1.208.148-.334.06-.726.118-.982.358-.19.178-.198.476-.12.709.153.45.85.336 1.217.327.834-.025 1.66-.16 2.493-.214.383-.026.765-.04 1.146-.062a13.18 13.18 0 011.386-.02c.406.02.804.065 1.202.146.487.1.941.283 1.389.485.573.195.482.905.387 1.36-.05.24-.131.45-.351.584-.5.302-1.21.226-1.77.24-.55.016-1.105.064-1.652.113-.866.08-1.731.164-2.594.27-.53.065-1.058.155-1.586.21-.357.037-.824.002-1.116.248l-.053.045-.04.021-.027.052-.034.068c-.039.218-.267.935-.039 1.107l.048.022h.075c.29 0 .576-.015.865-.028.44-.018.88-.036 1.322-.072.846-.067 1.692-.136 2.538-.208.551-.048 1.119-.078 1.675-.127.834-.07 1.669-.12 2.505-.15.506-.02.993-.012 1.469-.217.55-.241 1.008-.662 1.548-.936.681-.345 1.38-.652 2.07-.977.846-.4 1.672-.858 2.532-1.229.663-.284 1.328-.565 1.99-.849.32-.136.648-.264.954-.435.212-.121.76-.383.62-.71-.071-.168-.291-.192-.453-.212-.634-.075-2.226.041-3.2.188-1.578.27-1.798.472-2.237.047-.334-.35-.25-.844-.2-1.277.05-.445.267-1.119.42-1.287.456-.585 1.961-.653 2.663-.703.362-.026.729-.036 1.093-.04.512-.003 1.022.03 1.531.03.441.018.882.048 1.322.09.5.05 1.05.061 1.536.214.16.05.317.102.468.171.503.23.962.532 1.305.961.203.255.336.547.403.862.034.151.056.3.034.453-.017.113-.05.34-.123.43l-.03.037c-.07.15-.204.284-.326.392-.596.512-1.464.698-2.182.988-.356.144-.706.31-1.057.467-.986.44-1.962.897-2.967 1.296-.826.33-1.65.67-2.443 1.074-.218.111-.534.27-.666.487-.13.228.154.228.337.231.2.007.404-.005.607-.02a65.945 65.945 0 001.831-.17c.624-.069 1.253-.123 1.877-.2.587-.074 1.174-.149 1.758-.212a18.585 18.585 0 011.903-.09c.643 0 1.269.007 1.904.11l.094.016.167.008c.268 0 .548-.035.685-.298.222-.425.35-.938.512-1.388.206-.584.42-1.167.634-1.748.028-.08.059-.16.09-.24.244-.658.484-1.319.75-1.968.106-.262.218-.522.304-.793.064-.203.094-.408.192-.602.161-.31.454-.51.782-.284.265.182.445.5.598.774.159.29.296.579.37.902.076.325-.005.613-.105.925-.103.32-.237.637-.323.962-.187.699.515 1.262 1.055 1.58.487.289 1.046.484 1.569.7.392.161.785.332 1.2.412.248.047.562.096.781-.058.356-.253.465-.748.585-1.137.145-.479.252-.97.361-1.459.095-.404.159-.815.204-1.228.036-.325.066-.651.086-.976.022-.424-.011-.832-.017-1.254 0-.272.05-.625.245-.837.25-.281.685-.137.896.13l.078.097c.129.212.222.446.294.682.126.425.196.861.24 1.3.04.362.064.723.078 1.087a21.66 21.66 0 01-.217 3.751c-.094.67-.245 1.322-.39 1.981-.083.362-.147.735-.305 1.075-.11.227-.25.436-.42.622-.082.089-.17.163-.271.226-.347.214-.801.206-1.196.167-.55-.05-1.08-.189-1.598-.375a10.78 10.78 0 01-.96-.387c-.32-.15-.642-.3-.951-.471a10.21 10.21 0 01-.905-.566 5.51 5.51 0 01-.787-.643c-.21-.21-.365-.48-.56-.702-.208-.234-.37-.312-.506.01-.083.21-.128.43-.178.65-.084.386-.2.767-.323 1.144-.117.371-.62 1.403-1.17.923-.176-.156-.305-.356-.572-.353-.273.004-.532.113-.796.17-.279.062-.568.094-.852.15-.536.107-1.074.23-1.608.335-.356.067-.712.116-1.066.177-.342.057-.687.1-1.032.151-.356.052-.71.107-1.064.148-.556.068-1.11.133-1.664.19-.445.058-.887.101-1.33.152-.37.04-.737.077-1.107.113-.618.063-1.238.107-1.858.132-.938.032-1.91.087-2.834-.096-.206-.039-.512-.064-.668-.213-.111-.107-.022-.288-.105-.413l-.014-.022-.037-.038-.033-.022-.036-.016h-.075l-.04.016-.044.015-.039.03-.078.052-.05.058-.039.067-.022.075c-.2.633-.88.871-1.497.95l-9.882 1.14zm92.259-4.911c-1.297.091-2.519.306-3.835.183-.426-.04-1.158-.075-1.516-.304-1.052-.678 2.632-1.886 3.086-2.044 1.277-.446 3.851-1.173 3.851-1.173s2.418-.588 2.491-1.862c.088-1.546-1.537-2.245-2.78-2.632a13.407 13.407 0 00-1.554-.25 16.255 16.255 0 00-1.068-.063c-.67-.023-1.325.041-1.993.12-.684.08-2.139.123-2.351.964-.106.428-.601 1.312-.187 1.7.44.412 1.156.24 1.696.189.745-.072 1.483-.209 2.225-.28.549-.054 1.264-.172 1.715.221.554.49-.916.952-1.208 1.074-1.11.463-2.27.795-3.384 1.248-1.044.425-2.09.833-3.108 1.31-.468.217-.904.485-1.344.747l-.212-.142-1.283.133-1.285.104c-.86.07-1.731.093-2.594.134-.431.014-1.107.03-1.447-.284-.742-.689-.328-1.645.161-2.312.537-.725 1.291-1.263 2.065-1.72a7.526 7.526 0 011.681-.729 8.679 8.679 0 011.217-.273c.058.111.124.223.188.332.034.062.994-.332 1.086-.379.294-.15.707-.45.715-.813.014-.443-.376-.884-.729-1.104-.395-.246-.843-.328-1.308-.332-.504-.007-1.01.023-1.506.087a7.835 7.835 0 00-2.66.882 7.997 7.997 0 00-1.889 1.433c-.258.266-.486.56-.68.874-.248.4-.428.842-.573 1.287-.392 1.232-.273 2.766.296 3.929a4.65 4.65 0 001.766 1.956c.975.587 2.207.78 3.323.57.45-.08.89-.207 1.313-.377.457-.18.902-.314 1.328-.555.083-.043.993-.553 1.045-.485.143.18.226.403.379.575.148.168.334.32.512.45.377.277.802.386 1.261.439 1.149.135 2.316.203 3.474.218.923.012 1.858-.05 2.776-.133.597-.054 1.191-.131 1.784-.202 1.509-.18 2.756-.51 4.389-1.199a4.527 4.527 0 001.544-1.149 3.655 3.655 0 00-.562-.273c-1.188-.468-2.543-.486-3.807-.328a48.127 48.127 0 01-2.504.238zm-20.128 1.32a1.465 1.465 0 00-.075-.6c-.17-.436-.64-.878-1.108-.963-.424-.074-.932.005-1.278.27-.186.144-.389.377-.486.593-.215.475-.193 1.18.122 1.6.531.713 1.656.713 2.282.136.3-.276.512-.626.543-1.036z" fill="#1A1919"/></g><defs><clipPath id="clip0_1763_4241"><path fill="#fff" d="M0 0h127v32H0z"/></clipPath></defs></svg>