<svg width="160" height="188" viewBox="0 0 160 188" fill="none" xmlns="http://www.w3.org/2000/svg"><path fill-rule="evenodd" clip-rule="evenodd" d="M83.988 1.837a8 8 0 00-7.976 0l-72 41.4A8 8 0 000 50.172v82.743a8.001 8.001 0 004.012 6.936l72 41.4a8.003 8.003 0 007.976 0l16.4-9.43c1.182-.68 2.898-1.254 3.475-.018.151.324.232.714.232 1.156v3.424c0 4.272 1.12 10.774 5.599 10.774 2.153 0 4.737-1.523 4.737-6.13v-10.802c0-3.104 1.163-8.584 4.953-8.584 2.154 0 3.876.595 4.738 4.458.455 2.044 2.14 4.229 4.601 4.229 1.908 0 3.958-4.406 3.958-9.244 0-5.83 3.824-9.91 7.188-11.965l16.119-9.268a8.001 8.001 0 004.012-6.936V50.172a8 8 0 00-4.012-6.935l-72-41.4z" fill="url(#paint0_linear_1330_3672)"/><defs><linearGradient id="paint0_linear_1330_3672" x1="4" y1="231.01" x2="180.237" y2="210.093" gradientUnits="userSpaceOnUse"><stop stop-color="#EC6113"/><stop offset="1" stop-color="#F90"/></linearGradient></defs></svg>