<svg width="88" height="32" viewBox="0 0 88 32" fill="none" xmlns="http://www.w3.org/2000/svg"><g clip-path="url(#clip0_1763_4303)"><path d="M81.57 20.58a3.686 3.686 0 002.725-1.143 3.819 3.819 0 001.13-2.772 3.81 3.81 0 00-1.13-2.788 3.662 3.662 0 00-2.725-1.143 3.68 3.68 0 00-2.724 1.143 3.84 3.84 0 00-1.13 2.788 3.804 3.804 0 001.13 2.772 3.657 3.657 0 002.724 1.143zm-24.616 0a3.685 3.685 0 002.725-1.143 3.82 3.82 0 001.131-2.772 3.814 3.814 0 00-1.131-2.788 3.663 3.663 0 00-2.725-1.143 3.678 3.678 0 00-2.724 1.143 3.844 3.844 0 00-1.13 2.788 3.804 3.804 0 001.13 2.772 3.656 3.656 0 002.725 1.143zm-18.989 0a3.686 3.686 0 002.725-1.143 3.815 3.815 0 001.131-2.772 3.814 3.814 0 00-1.131-2.788 3.661 3.661 0 00-2.725-1.143 3.678 3.678 0 00-2.724 1.143 3.844 3.844 0 00-1.131 2.788 3.806 3.806 0 001.13 2.772 3.681 3.681 0 002.725 1.143zm28.78-.584c.267 0 .53.07.764.199.252.135.459.338.597.586.14.238.213.508.214.783a1.58 1.58 0 01-.208.773c-.137.245-.34.447-.588.583a1.579 1.579 0 01-1.565 0 1.502 1.502 0 01-.585-.583 1.574 1.574 0 01-.21-.773c.002-.273.074-.542.21-.78a1.45 1.45 0 01.598-.59c.236-.127.5-.195.77-.195l.002-.003zm14.828-9.821c.849-.01 1.69.155 2.472.483a6.156 6.156 0 012.069 1.426 6.298 6.298 0 011.414 2.099c.324.787.484 1.631.471 2.482a6.232 6.232 0 01-.47 2.476 6.272 6.272 0 01-1.415 2.093 6.165 6.165 0 01-2.071 1.417 6.203 6.203 0 01-2.47.477 6.182 6.182 0 01-2.467-.476 6.145 6.145 0 01-2.07-1.418 6.28 6.28 0 01-1.413-2.093 6.244 6.244 0 01-.471-2.476 6.272 6.272 0 01.471-2.482 6.31 6.31 0 011.414-2.099 6.137 6.137 0 012.065-1.426 6.175 6.175 0 012.468-.483h.003zm-9.453 0a1.238 1.238 0 01.901.374 1.22 1.22 0 01.386.905V21.86a1.2 1.2 0 01-.382.898 1.235 1.235 0 01-.905.369 1.251 1.251 0 01-.908-.367 1.23 1.23 0 01-.383-.9V11.457a1.223 1.223 0 01.38-.9 1.237 1.237 0 01.909-.381h.002zm0-4.2c.269 0 .532.069.766.198.251.136.458.34.597.587.138.238.212.508.213.783a1.571 1.571 0 01-.209.773c-.136.246-.34.448-.587.583a1.58 1.58 0 01-1.565 0 1.576 1.576 0 01-.795-1.356c.002-.273.073-.541.208-.78.137-.25.346-.456.6-.59.236-.129.5-.197.77-.199h.002zm-15.163 4.2c.85-.01 1.69.155 2.472.483a6.153 6.153 0 012.069 1.426 6.297 6.297 0 011.415 2.099 6.26 6.26 0 01.47 2.482 6.231 6.231 0 01-.47 2.476 6.269 6.269 0 01-1.415 2.093 6.158 6.158 0 01-2.071 1.417 6.197 6.197 0 01-2.47.477 6.183 6.183 0 01-2.467-.476 6.146 6.146 0 01-2.07-1.418 6.28 6.28 0 01-1.413-2.093 6.241 6.241 0 01-.471-2.476 6.27 6.27 0 01.471-2.482 6.309 6.309 0 011.414-2.099 6.136 6.136 0 012.065-1.426 6.176 6.176 0 012.469-.483h.003zM47.47 5.95a1.249 1.249 0 01.91.38 1.24 1.24 0 01.37.901v14.63a1.24 1.24 0 01-.377.901 1.265 1.265 0 01-.905.366 1.285 1.285 0 01-.916-.369 1.229 1.229 0 01-.37-.898V7.232a1.222 1.222 0 01.37-.9 1.257 1.257 0 01.913-.38h.005zm-9.498 4.224c.849-.01 1.69.155 2.471.483a6.153 6.153 0 012.07 1.426 6.297 6.297 0 011.414 2.099c.324.787.484 1.631.47 2.482a6.231 6.231 0 01-.47 2.476 6.27 6.27 0 01-1.415 2.093 6.158 6.158 0 01-2.07 1.417 6.197 6.197 0 01-2.47.477 6.184 6.184 0 01-2.468-.476 6.145 6.145 0 01-2.069-1.418 6.243 6.243 0 01-1.885-4.57 6.271 6.271 0 01.472-2.48 6.307 6.307 0 011.413-2.1A6.136 6.136 0 0135.5 10.66a6.175 6.175 0 012.467-.484h.005zm-11.35 12.953a4.505 4.505 0 01-2.53-.791 5.31 5.31 0 01-1.595-1.633 1.203 1.203 0 01-.152-.952 1.253 1.253 0 011.537-.955 1.244 1.244 0 01.797.573c.21.328.49.608.817.821.326.24.717.375 1.122.39.41.01.808-.136 1.114-.408a1.167 1.167 0 00.45-.922.921.921 0 00-.335-.794 6.073 6.073 0 00-1.581-.591 7.902 7.902 0 01-2.417-1.007 3.277 3.277 0 01-1.043-1.231 3.249 3.249 0 01-.326-1.576 3.625 3.625 0 011.224-2.749 4.127 4.127 0 012.914-1.13c.8-.005 1.587.214 2.267.633a3.881 3.881 0 011.518 1.696 1.232 1.232 0 01.042.98 1.228 1.228 0 01-.674.712 1.264 1.264 0 01-.974.037 1.265 1.265 0 01-.727-.667 1.382 1.382 0 00-.557-.61 1.773 1.773 0 00-.895-.234 1.646 1.646 0 00-1.122.405 1.186 1.186 0 00-.44.926.907.907 0 00.31.767 6.637 6.637 0 001.585.584c.86.2 1.68.543 2.428 1.011a3.33 3.33 0 011.043 1.247c.239.495.35 1.04.325 1.589A3.63 3.63 0 0129.533 22a4.135 4.135 0 01-2.918 1.128h.006z" fill="#35393B"/><path d="M5.347 5.911c.386-.55.758-.742 1-.421a4.062 4.062 0 003.057 1.643A4.067 4.067 0 0012.46 5.49c.242-.321.615-.13 1 .421 1.773 2.533 2.013 5.034.9 6.751 2.187 2.218 1.58 5.255.793 6.72-.337.628-.47.581-.842.243-.117-.104-.25-.226-.402-.364a9.927 9.927 0 01-.72 1.99c-.454.959-1.448 1.12-1.504-.009H7.123c-.056 1.13-1.05.966-1.504.01a9.931 9.931 0 01-.72-1.99l-.401.363c-.374.338-.505.386-.843-.244-.786-1.464-1.394-4.501.793-6.719-1.113-1.717-.873-4.217.9-6.75" fill="#0EB1E4"/><path d="M9.404 7.133A4.068 4.068 0 0012.46 5.49c.243-.321.615-.13 1 .421 1.773 2.533 2.014 5.034.9 6.751 2.188 2.218 1.58 5.255.794 6.72-.338.628-.47.581-.843.243l-.402-.364a9.932 9.932 0 01-.72 1.99c-.454.959-1.448 1.12-1.504-.009h-2.28v-6.577c0-.195.118-.346-.59-.431-1.668-.202-3.229-1.228-3.755-2.693a2.718 2.718 0 01-.161-.92 1.88 1.88 0 01.785-1.546 2.043 2.043 0 012.925.551c.337.568.386 1.27.455 1.91.026.24.046.492.087.727.02.11.05.265.163.318.061.028.021.019.09.019V7.133z" fill="#158BC2"/><path d="M8.46 24.608c-.052.116-.195.87-.37.982-.635.409-2.486-4.13-2.606-4.635a49.36 49.36 0 017.847-.004c-.119.496-1.965 5.053-2.608 4.64-.175-.113-.32-.867-.37-.983-.093.278-.482 2.003-.995 1.886-.5-.115-.777-1.527-.897-1.886" fill="#0EB1E4"/><path d="M9.406 20.797c1.405 0 2.81.05 3.924.154-.127.398-.275.79-.442 1.174l-.003.007-.003.008-.003.007-.003.008-.003.007-.003.008-.003.008-.007.015-.003.008-.003.008-.003.008-.004.007-.002.005v.003l-.003.008-.003.008-.003.008-.003.008-.004.007-.003.008-.003.008-.007.016-.003.008-.004.008-.003.008v.002l-.002.005-.003.008-.004.008-.006.016-.004.008-.006.016-.004.008-.003.008-.004.008-.003.008-.004.008-.003.007-.003.008-.004.008-.031.073-.003.007v.002l-.004.008-.003.008-.015.035-.003.008-.015.034-.003.008c-.63 1.441-1.536 3.22-1.948 2.955-.176-.113-.32-.866-.372-.982-.09.269-.457 1.894-.946 1.89v-3.916c0-.246-.029-.582-.633-.569-.933.038-1.864.123-2.788.253-.078-.178-.218-.538-.286-.701a32.018 32.018 0 013.702-.211h.006l-.005-.558z" fill="#158BC2"/><path d="M9.405 13.749c.24 0 .481-.018.72-.052 1.752-.25 3.786-1.529 3.786-3.495a1.88 1.88 0 00-.786-1.545 2.043 2.043 0 00-2.924.551c-.338.568-.387 1.27-.456 1.911-.026.24-.046.49-.087.726-.02.11-.05.265-.162.318-.062.029-.022.02-.091.02-.07 0-.03.009-.091-.02-.113-.053-.143-.207-.163-.318-.041-.235-.06-.488-.087-.726-.068-.64-.118-1.343-.455-1.91a2.04 2.04 0 00-2.925-.552 1.883 1.883 0 00-.785 1.545c0 .314.054.626.161.921.604 1.68 2.646 2.626 4.344 2.626" fill="#fff"/><path d="M9.407 13.749c.24 0 .481-.017.72-.051 1.752-.25 3.785-1.53 3.785-3.495a1.88 1.88 0 00-.785-1.546 2.043 2.043 0 00-2.925.552c-.337.567-.386 1.27-.456 1.91-.025.24-.045.491-.086.726-.02.11-.05.265-.163.318-.061.029-.021.02-.09.02v1.566z" fill="#DDF4F9"/><path d="M7.348 9.45a.862.862 0 01.862.86.86.86 0 01-1.471.608.86.86 0 01.61-1.469zm4.113 0a.863.863 0 01.796 1.189.86.86 0 11-.797-1.19h.001z" fill="#35393B"/><path d="M7.627 9.818a.25.25 0 01.176.426.25.25 0 01-.426-.176.249.249 0 01.25-.25zM11.752 9.818a.25.25 0 110 .5.25.25 0 010-.5zM9.404 14.637a2.335 2.335 0 00-2.331 2.267 1.668 1.668 0 00-1.774 1.661 1.664 1.664 0 001.667 1.665h4.879a1.668 1.668 0 001.667-1.665 1.663 1.663 0 00-1.667-1.664 1.633 1.633 0 00-1.146.425c.197-.42.54-.756.965-.944a2.331 2.331 0 00-2.259-1.745" fill="#fff"/><path d="M.55 19.672a1.27 1.27 0 01.884-1.063 14.674 14.674 0 002.138 1.37c.737.39.967.62 1.847.484a26.223 26.223 0 014.01-.303 25.74 25.74 0 015.02.482c1.5.288 2.96.75 4.353 1.375a1.204 1.204 0 01-.571 1.257 18.384 18.384 0 00-4.054-1.275 24.37 24.37 0 00-4.75-.455A24.369 24.369 0 004.679 22c-1.397.267-2.759.696-4.057 1.277-.563-.244-.71-.676-.574-1.256.751-.342 1.524-.632 2.315-.869l.304-.092-.275-.16a19.18 19.18 0 01-1.843-1.227" fill="#C18E2E"/><path d="M.548 19.686c.032-.22.116-.429.246-.61.85.675 1.757 1.273 2.712 1.788l-.842.21-.274-.162a19.181 19.181 0 01-1.843-1.226M18.658 22.848a1.03 1.03 0 01-.428.424 18.386 18.386 0 00-4.053-1.275 24.369 24.369 0 00-4.75-.454 24.369 24.369 0 00-4.75.454c-1.397.267-2.758.696-4.057 1.277a1.03 1.03 0 01-.5-.407c2.135-1.118 5.5-1.84 9.288-1.84 3.765 0 7.113.714 9.251 1.821" fill="#A96C25"/></g><defs><clipPath id="clip0_1763_4303"><path fill="#fff" d="M0 0h88v32H0z"/></clipPath></defs></svg>