<svg width="122" height="32" viewBox="0 0 122 32" fill="none" xmlns="http://www.w3.org/2000/svg"><path d="M121.899 13.764v-1.62h-1.907v-2.35h-1.611v2.35h-1.545v1.62h1.512v4.697c0 1.356 1.118 2.48 2.466 2.48h1.085v-1.62h-1.085a.852.852 0 01-.855-.86v-4.697h1.94zM112.463 11.979c1.742 0 3.123 1.422 3.123 3.175V17.8c0 1.72-1.414 3.175-3.123 3.175h-.625c-1.71 0-3.123-1.422-3.123-3.175v-2.646c0-1.753 1.413-3.175 3.123-3.175h.625zm-2.104 3.175V17.8c0 .86.69 1.521 1.512 1.521h.624c.855 0 1.513-.694 1.513-1.521v-2.646c0-.86-.658-1.522-1.513-1.522h-.624c-.822-.033-1.512.662-1.512 1.522zM106.937 15.154V17.8c0 1.753-1.413 3.175-3.123 3.175h-.197a3.091 3.091 0 01-1.94-.694v3.506h-1.611V12.144h1.611v.53a3.023 3.023 0 011.94-.695h.197c1.71 0 3.123 1.422 3.123 3.175zm-1.611 0c0-.827-.657-1.522-1.512-1.522h-.625c-.821 0-1.512.695-1.512 1.522V17.8c0 .86.691 1.521 1.512 1.521h.625c.855 0 1.512-.694 1.512-1.521v-2.646zM92.508 18.096c.164.695.756 1.224 1.512 1.224h1.118c.822 0 1.512-.695 1.512-1.522 0-.959-.592-1.521-1.446-1.852l-1.48-.562c-1.38-.53-2.531-1.456-2.531-3.209 0-1.753 1.414-3.175 3.123-3.175h.79c1.446 0 2.695.992 3.023 2.382l-1.578.463c-.131-.695-.756-1.191-1.479-1.191h-.789c-.855 0-1.512.694-1.512 1.521 0 .662.23 1.158 1.545 1.687l1.48.596c1.512.628 2.465 1.753 2.465 3.34a3.131 3.131 0 01-3.123 3.143H94.02c-1.48 0-2.695-1.026-3.057-2.382l1.545-.463zM89.416 13.764v-1.62H87.51v-2.35h-1.611v2.35h-1.512v1.62h1.512v4.697c0 1.356 1.118 2.48 2.466 2.48h1.084v-1.62h-1.084a.851.851 0 01-.855-.86v-4.697h1.906zM82.943 15.155v5.656h-1.61v-5.656c0-.86-.658-1.522-1.513-1.522h-.625c-.821 0-1.512.695-1.512 1.522v5.656h-1.61V9.168h1.61v3.506a3.021 3.021 0 011.94-.694h.197c1.742 0 3.123 1.422 3.123 3.175zM73.97 12.142v8.6c0 1.753-1.38 3.142-3.123 3.142h-.657a3.112 3.112 0 01-3.025-2.382l1.545-.463c.165.662.757 1.191 1.48 1.191h.657c.822 0 1.513-.695 1.513-1.521v-1.026a3.021 3.021 0 01-1.94.695h-.197c-1.71 0-3.123-1.422-3.123-3.176v-2.117c0-1.753 1.413-3.175 3.123-3.175h.197a3.09 3.09 0 011.94.695v-.53l1.61.067zm-1.61 5.127v-2.117c0-.86-.658-1.522-1.513-1.522h-.624c-.822 0-1.513.695-1.513 1.522v2.117c0 .827.69 1.521 1.513 1.521h.624c.822 0 1.513-.694 1.513-1.521zM59.994 12.145V17.8c0 .86.657 1.521 1.512 1.521h.624c.855 0 1.513-.694 1.513-1.521v-5.656h1.61V17.8a3.131 3.131 0 01-3.123 3.142h-.624c-1.742 0-3.123-1.422-3.123-3.175v-5.623h1.61zM53.353 11.979c1.742 0 3.123 1.422 3.123 3.175V17.8c0 1.72-1.413 3.175-3.123 3.175h-.625c-1.709 0-3.123-1.422-3.123-3.175v-2.646c0-1.753 1.414-3.175 3.123-3.175h.625zm-2.137 3.175V17.8c0 .86.69 1.521 1.512 1.521h.625c.855 0 1.512-.694 1.512-1.521v-2.646c0-.86-.657-1.522-1.512-1.522h-.625c-.821-.033-1.512.662-1.512 1.522zM47.732 15.155v5.656h-1.61v-5.656c0-.86-.658-1.522-1.513-1.522h-.625c-.822 0-1.512.695-1.512 1.522v5.656h-1.61V9.168h1.61v3.506a3.021 3.021 0 011.94-.694h.197c1.71 0 3.123 1.422 3.123 3.175zM39.12 9.168v1.62h-3.255v9.99h-1.61v-9.956H31v-1.62l8.12-.034zM19.166 27a2.735 2.735 0 002.726-2.743 2.735 2.735 0 00-2.726-2.743 2.735 2.735 0 00-2.726 2.743A2.735 2.735 0 0019.166 27zM21.698 10.457H0v1.372h7.455V26.83h1.363V11.83h1.364V26.83h1.335V11.83h1.363V26.83h1.363V11.83h7.455v-1.372zM21.698 7.744H0v1.371h21.698V7.744zM21.698 5H0v1.371h21.698V5z" fill="#000"/></svg>