<svg width="100" height="32" viewBox="0 0 100 32" fill="none" xmlns="http://www.w3.org/2000/svg"><path d="M44.565 22.821l-4.527-12.78a1.416 1.416 0 01-.149-.598c0-.523.445-1.12 1.188-1.12.52 0 .964.373 1.187.97l3.71 10.987L49.76 9.22c.149-.523.52-.972 1.113-.972h.149c.593 0 1.039.374 1.187.972l3.71 11.061L59.704 9.22c.149-.448.446-.897 1.113-.897.668 0 1.114.449 1.114 1.046 0 .225-.075.449-.149.598l-4.6 12.78c-.223.673-.669 1.047-1.262 1.047h-.075c-.52 0-1.039-.3-1.261-1.046l-3.71-10.838-3.711 10.838c-.223.672-.594 1.046-1.262 1.046h-.074c-.594.075-1.039-.374-1.261-.972zM77.663 9.516c0-.598.445-1.196 1.113-1.196.594 0 1.188.449 1.188 1.196v2.616c1.113-2.541 3.562-3.662 5.12-3.662.668 0 1.113.448 1.113 1.196 0 .598-.37 1.046-1.039 1.195-2.894.3-5.269 2.541-5.269 6.876v5.083c0 .598-.445 1.195-1.113 1.195-.593 0-1.187-.448-1.187-1.195V9.516M93.395 23.94c-4.007 0-7.272-3.138-7.272-7.772v-.075c0-4.335 2.968-7.773 7.05-7.773 4.378 0 6.827 3.588 6.827 7.624 0 .597-.445 1.046-1.039 1.046H88.275c.297 3.214 2.597 5.082 5.194 5.082 1.782 0 3.192-.672 4.23-1.719a.84.84 0 01.594-.224c.52 0 .965.448.965.972 0 .224-.074.523-.297.672-1.41 1.27-3.043 2.168-5.566 2.168zm4.379-8.669c-.223-2.765-1.781-5.082-4.675-5.082-2.598 0-4.527 2.167-4.75 5.082h9.425zM61.86 19.307c0-3.214 2.597-4.933 6.382-4.933 1.93 0 3.265.224 4.6.598v-.523c0-2.765-1.632-4.036-4.452-4.036-1.484 0-2.375.15-3.488.673-.148.074-.297.074-.37.074-.52 0-1.04-.448-1.04-.971 0-.523.223-.748.594-.972 1.484-.598 2.597-.897 4.527-.897 2.078 0 3.71.524 4.823 1.645 1.04 1.046 1.559 2.54 1.559 4.41v8.295c0 .598-.446 1.121-1.113 1.121-.594 0-1.114-.448-1.114-1.046V21.25c-1.038 1.42-2.82 2.616-5.417 2.616-2.671.075-5.491-1.495-5.491-4.56zm10.983-1.196v-1.495a16.873 16.873 0 00-4.453-.598c-2.82 0-4.378 1.27-4.378 3.14v.074c0 1.869 1.707 2.99 3.71 2.99 2.894 0 5.12-1.72 5.12-4.111zM4.049 9.293c-.446-1.121-1.707-1.57-2.82-1.121C.115 8.62-.33 9.966.264 11.012L5.014 21.4c.741 1.644 1.558 2.54 3.042 2.54 1.558 0 2.226-.971 3.043-2.54 0 0 4.155-9.119 4.23-9.193.074-.075.148-.374.593-.374.371 0 .594.299.594.673v8.819c0 1.345.742 2.54 2.152 2.54 1.484 0 2.226-1.12 2.226-2.54V14.15c0-1.42 1.04-2.317 2.3-2.317 1.337 0 2.227.972 2.227 2.317v7.25c0 1.345.742 2.54 2.152 2.54 1.484 0 2.226-1.12 2.226-2.54v-7.25c0-1.42 1.04-2.317 2.301-2.317 1.336 0 2.226.972 2.226 2.317v7.25c0 1.345.742 2.54 2.152 2.54 1.485 0 2.227-1.12 2.227-2.54v-8.222c0-3.064-2.375-5.157-5.343-5.157-2.969 0-4.75 2.018-4.75 2.018-1.039-1.27-2.3-2.018-4.6-2.018-2.376 0-4.528 2.018-4.528 2.018-.965-1.27-2.671-2.018-3.933-2.018-2.078 0-3.785.972-4.824 3.289l-3.042 7.175-3.636-9.193z" fill="#717074"/></svg>