<svg width="19" height="19" viewBox="0 0 19 19" fill="none" xmlns="http://www.w3.org/2000/svg">
<g clip-path="url(#clip0_3531_3171)">
<g clip-path="url(#clip1_3531_3171)">
<mask id="mask0_3531_3171" style="mask-type:luminance" maskUnits="userSpaceOnUse" x="-3" y="-4" width="26" height="26">
<path d="M22.5996 -3.60059H-2.60449V21.6036H22.5996V-3.60059Z" fill="white"/>
</mask>
<g mask="url(#mask0_3531_3171)">
<path d="M21.5495 -0.450195H-1.55432C-1.83284 -0.450195 -2.09996 -0.339549 -2.2969 -0.14261C-2.49385 0.0543365 -2.60449 0.321453 -2.60449 0.599975V17.4028C-2.60449 17.6813 -2.49385 17.9484 -2.2969 18.1453C-2.09996 18.3422 -1.83284 18.4529 -1.55432 18.4529H21.5495C21.828 18.4529 22.0951 18.3422 22.2921 18.1453C22.489 17.9484 22.5996 17.6813 22.5996 17.4028V0.599975C22.5996 0.321453 22.489 0.0543365 22.2921 -0.14261C22.0951 -0.339549 21.828 -0.450195 21.5495 -0.450195Z" fill="#002781"/>
<path d="M20.1733 2.2175C20.1733 1.99266 20.0839 1.77701 19.925 1.61802C19.7659 1.45903 19.5503 1.36971 19.3255 1.36971H17.1377L11.6953 5.55612V-0.450195H8.3041V5.55612L2.8617 1.36971H0.673965C0.449118 1.36971 0.233478 1.45903 0.0744852 1.61802C-0.0845069 1.77701 -0.173828 1.99266 -0.173828 2.2175V3.3137L5.01425 7.30426H-0.173828V10.6955H5.01425L-0.173828 14.6864V15.7823C-0.173828 16.0071 -0.0845069 16.2227 0.0744852 16.3817C0.233478 16.5407 0.449118 16.63 0.673965 16.63H2.8617L8.3041 12.4436V18.4529H11.6953V12.4436L17.1377 16.63H19.3255C19.5503 16.63 19.7659 16.5407 19.925 16.3817C20.0839 16.2227 20.1733 16.0071 20.1733 15.7823V14.6864L14.9852 10.6955H20.1733V7.30426H14.9852L20.1733 3.3137V2.2175Z" fill="#F0F0F0"/>
<path d="M20.1733 8.15498H10.8475V-0.450195H9.15194V8.15498H-0.173828V9.85053H9.15194V18.4529H10.8475V9.85053H20.1733V8.15498Z" fill="#D10D24"/>
<path d="M8.30445 10.583L0.49707 16.6159C0.55532 16.6283 0.614696 16.6347 0.674255 16.635H1.68568L8.30445 11.5206V10.583Z" fill="#D10D24"/>
<path d="M11.6963 7.42308L19.5036 1.39017C19.4454 1.37778 19.386 1.37139 19.3264 1.37109H18.315L11.6963 6.48584V7.42308Z" fill="#D10D24"/>
<path d="M7.45887 7.30769L0.086869 1.61133C0.00447915 1.69005 -0.0611002 1.78464 -0.105908 1.88941C-0.150715 1.99418 -0.17382 2.10695 -0.173828 2.2209V2.34806L6.24568 7.30769H7.45887Z" fill="#D10D24"/>
<path d="M12.5332 10.6992L19.9052 16.3955C19.9876 16.3168 20.0532 16.2222 20.098 16.1175C20.1428 16.0127 20.1659 15.8999 20.1659 15.786V15.6588L13.7464 10.6992H12.5332Z" fill="#D10D24"/>
</g>
</g>
</g>
<defs>
<clipPath id="clip0_3531_3171">
<rect x="0.996094" width="18.003" height="18.003" rx="9.00148" fill="white"/>
</clipPath>
<clipPath id="clip1_3531_3171">
<rect width="25.2041" height="25.2041" fill="white" transform="translate(-2.60449 -3.60059)"/>
</clipPath>
</defs>
</svg>
