<svg width="18" height="18" viewBox="0 0 18 18" fill="none" xmlns="http://www.w3.org/2000/svg">
<g clip-path="url(#clip0_3966_7726)">
<path d="M20 5.00003H-4V0.999998C-4 0.447503 -3.5525 0 -3 0H19C19.5525 0 20 0.447503 20 0.999998V5.00003Z" fill="#C60B1E"/>
<path d="M21 5H-3V13H21V5Z" fill="#FFC300"/>
<path d="M20 17.002C20 17.5545 19.5525 18.002 19 18.002H-3C-3.5525 18.002 -4 17.5545 -4 17.002V13.002H20V17.002Z" fill="#C60B1E"/>
<path d="M7.5 6.99997V6H3.5V6.99997H4.5V8.00003H3.5V10.666L5.5 12L7.5 10.666V8.00003H6.5V6.99997H7.5Z" fill="#91443A"/>
</g>
<defs>
<clipPath id="clip0_3966_7726">
<rect x="18.0029" width="18.003" height="18.003" rx="9.00148" transform="rotate(90 18.0029 0)" fill="white"/>
</clipPath>
</defs>
</svg>
