<svg width="18" height="18" viewBox="0 0 18 18" fill="none" xmlns="http://www.w3.org/2000/svg">
<g clip-path="url(#clip0_3972_7692)">
<path d="M-1.05273 -0.94043H19.0576V18.502H-1.05273V-0.94043Z" fill="white"/>
<path fill-rule="evenodd" clip-rule="evenodd" d="M2.0166 6.3584L3.8758 3.56959L4.36507 3.89577L2.50587 6.68457L2.0166 6.3584ZM2.7138 6.8232L4.573 4.03439L5.06227 4.36057L3.20307 7.14937L2.7138 6.8232ZM3.411 7.288L5.2702 4.49919L5.75947 4.82537L3.90027 7.61417L3.411 7.288ZM12.2422 13.1755L14.1014 10.3867L14.5907 10.7128L12.7315 13.5016L12.2422 13.1755ZM12.9394 13.6403L14.7986 10.8515L15.2879 11.1776L13.4287 13.9664L12.9394 13.6403ZM15.9851 11.6424L14.1259 14.4312L13.6366 14.1051L15.4958 11.3163L15.9851 11.6424Z" fill="black"/>
<path fill-rule="evenodd" clip-rule="evenodd" d="M15.1404 13.3872L12.8164 11.8379L13.0882 11.4302L15.4122 12.9795L15.1404 13.3872Z" fill="white"/>
<path d="M11.7913 10.8603C12.8181 9.32004 12.4019 7.23906 10.8617 6.21225C9.32148 5.18544 7.2405 5.60164 6.21369 7.14186C5.18688 8.68207 5.60308 10.7631 7.1433 11.7899C8.68351 12.8167 10.7645 12.4005 11.7913 10.8603Z" fill="#CA163A"/>
<path d="M6.21369 7.14186C5.70055 7.91157 5.90878 8.95272 6.67849 9.46586C7.44821 9.979 8.48936 9.77077 9.0025 9.00106C9.51564 8.23135 10.5568 8.02311 11.3265 8.53625C12.0962 9.04939 12.3044 10.0905 11.7913 10.8603C10.765 12.3997 8.68272 12.8161 7.1433 11.7899C5.60388 10.7636 5.18741 8.68128 6.21369 7.14186Z" fill="#0E4896"/>
<path fill-rule="evenodd" clip-rule="evenodd" d="M14.1259 3.57031L15.9851 6.35913L15.4958 6.6853L13.6366 3.89649L14.1259 3.57031ZM13.4287 4.03513L15.2879 6.82392L14.7986 7.1501L12.9394 4.36131L13.4287 4.03513ZM12.7315 4.49992L14.5907 7.28872L14.1014 7.61489L12.2422 4.8261L12.7315 4.49992ZM3.90023 10.3874L5.75943 13.1762L5.27017 13.5024L3.41096 10.7136L3.90023 10.3874ZM3.20302 10.8522L5.06223 13.641L4.57296 13.9672L2.71376 11.1784L3.20302 10.8522ZM2.50587 11.317L4.36507 14.1058L3.8758 14.432L2.0166 11.6432L2.50587 11.317Z" fill="black"/>
<path d="M3.54102 12.6412L4.23822 12.1764L3.54102 12.6412ZM12.9523 6.36701L13.7666 5.82412L12.9523 6.36701ZM14.4638 5.35933L15.161 4.89453L14.4638 5.35933Z" fill="black"/>
<path fill-rule="evenodd" clip-rule="evenodd" d="M15.2971 5.09815L14.5999 5.56295L14.3281 5.15522L15.0253 4.69043L15.2971 5.09815ZM13.9027 6.02774L13.0883 6.57063L12.8165 6.16291L13.6309 5.62002L13.9027 6.02774ZM4.37428 12.38L3.67707 12.8448L3.40527 12.4371L4.10248 11.9723L4.37428 12.38Z" fill="white"/>
</g>
<defs>
<clipPath id="clip0_3972_7692">
<rect x="18.0029" width="18.003" height="18.003" rx="9.00148" transform="rotate(90 18.0029 0)" fill="white"/>
</clipPath>
</defs>
</svg>
