<svg width="18" height="18" viewBox="0 0 18 18" fill="none" xmlns="http://www.w3.org/2000/svg">
<g clip-path="url(#clip0_3593_43113)">
<path d="M9 18C13.9706 18 18 13.9706 18 9C18 4.02944 13.9706 0 9 0C4.02944 0 0 4.02944 0 9C0 13.9706 4.02944 18 9 18Z" fill="#6DA544"/>
<path d="M9 4L17 9L9 14L1 9L9 4Z" fill="#FFDA44"/>
<path d="M8.99956 12.13C10.7284 12.13 12.13 10.7284 12.13 8.99956C12.13 7.27068 10.7284 5.86914 8.99956 5.86914C7.27068 5.86914 5.86914 7.27068 5.86914 8.99956C5.86914 10.7284 7.27068 12.13 8.99956 12.13Z" fill="#F0F0F0"/>
<path d="M7.43335 8.80371C6.88899 8.80371 6.36365 8.8865 5.86914 9.04014C5.89104 10.7501 7.28337 12.1298 8.99857 12.1298C10.0592 12.1298 10.9959 11.6019 11.5621 10.795C10.5933 9.58221 9.10267 8.80371 7.43335 8.80371Z" fill="#01209F"/>
<path d="M12.0711 9.59932C12.1088 9.40512 12.1292 9.20477 12.1292 8.99956C12.1292 7.27064 10.7276 5.86914 8.99877 5.86914C7.70874 5.86914 6.60132 6.64964 6.12207 7.76403C6.5457 7.67624 6.98431 7.63001 7.43357 7.63001C9.25175 7.62998 10.8966 8.38577 12.0711 9.59932Z" fill="#01209F"/>
</g>
<defs>
<clipPath id="clip0_3593_43113">
<rect width="18" height="18" fill="white"/>
</clipPath>
</defs>
</svg>
