<svg width="18" height="18" viewBox="0 0 18 18" fill="none" xmlns="http://www.w3.org/2000/svg">
<g clip-path="url(#clip0_3567_5204)">
<path d="M0 8.99978C0 12.8694 2.44237 16.1683 5.86951 17.4399L6.65216 8.99974L5.86951 0.55957C2.44237 1.83124 0 5.13009 0 8.99978Z" fill="#6DA544"/>
<path d="M17.9996 9C17.9996 4.02947 13.9702 0 8.99963 0C7.89875 0 6.84416 0.198035 5.86914 0.559793V17.4402C6.84416 17.802 7.89875 18 8.99963 18C13.9702 18 17.9996 13.9705 17.9996 9Z" fill="#D80027"/>
<path d="M5.86968 12.13C7.59856 12.13 9.00009 10.7284 9.00009 8.99956C9.00009 7.27068 7.59856 5.86914 5.86968 5.86914C4.14079 5.86914 2.73926 7.27068 2.73926 8.99956C2.73926 10.7284 4.14079 12.13 5.86968 12.13Z" fill="#FFDA44"/>
<path d="M4.1084 7.43457V9.39109C4.1084 10.3636 4.89674 11.152 5.86927 11.152C6.8418 11.152 7.63014 10.3636 7.63014 9.39109V7.43457H4.1084Z" fill="#D80027"/>
<path d="M5.8692 9.97795C5.54555 9.97795 5.28223 9.71463 5.28223 9.39098V8.6084H6.45613V9.39101C6.45613 9.71463 6.19281 9.97795 5.8692 9.97795Z" fill="#F0F0F0"/>
</g>
<defs>
<clipPath id="clip0_3567_5204">
<rect width="18" height="18" fill="white"/>
</clipPath>
</defs>
</svg>
