<svg width="18" height="18" viewBox="0 0 18 18" fill="none" xmlns="http://www.w3.org/2000/svg">
<g clip-path="url(#clip0_3893_13471)">
<path d="M9 18C13.9706 18 18 13.9706 18 9C18 4.02944 13.9706 0 9 0C4.02944 0 0 4.02944 0 9C0 13.9706 4.02944 18 9 18Z" fill="#FFDA44"/>
<path d="M2.6356 15.3636C3.01314 15.7411 3.41596 16.0778 3.83851 16.3742L16.3742 3.83854C16.0778 3.416 15.7411 3.01318 15.3635 2.63564C14.986 2.25809 14.5832 1.92144 14.1606 1.625L1.625 14.1607C1.92137 14.5831 2.25809 14.986 2.6356 15.3636Z" fill="black"/>
<path d="M2.63567 2.63562C-0.203621 5.47498 -0.748719 9.73912 0.999355 13.1262L13.1262 0.999348C9.73916 -0.748727 5.47499 -0.203594 2.63567 2.63562Z" fill="#6DA544"/>
<path d="M15.3636 15.3636C18.2029 12.5243 18.7479 8.26011 16.9999 4.87305L4.87305 16.9999C8.26004 18.748 12.5242 18.2029 15.3636 15.3636Z" fill="#338AF3"/>
</g>
<defs>
<clipPath id="clip0_3893_13471">
<rect width="18" height="18" fill="white"/>
</clipPath>
</defs>
</svg>
