<svg width="18" height="18" viewBox="0 0 18 18" fill="none" xmlns="http://www.w3.org/2000/svg">
<g clip-path="url(#clip0_3858_7695)">
<path d="M9 18C13.9706 18 18 13.9706 18 9C18 4.02944 13.9706 0 9 0C4.02944 0 0 4.02944 0 9C0 13.9706 4.02944 18 9 18Z" fill="#D80027"/>
<path d="M9.58995 4.18083L10.2237 4.48739L10.7309 4L10.6353 4.6975L11.2553 5.02989L10.563 5.15389L10.439 5.84622L10.1066 5.22622L9.40912 5.32181L9.8965 4.81461L9.58995 4.18083ZM13.607 6.71336L13.3005 7.34628L13.7879 7.85433L13.0912 7.75789L12.7588 8.37875L12.6348 7.68556L11.9416 7.56156L12.5625 7.22917L12.4661 6.53253L12.9741 7.01992L13.607 6.71336ZM12.7829 9.9675L13.0137 10.6323L13.7173 10.6469L13.1567 11.0714L13.3608 11.7457L12.7829 11.3436L12.2051 11.7457L12.4084 11.0714L11.8478 10.6469L12.5513 10.6323L12.7829 9.9675ZM9.58995 12.7919L10.2237 13.0985L10.7309 12.6111L10.6353 13.3086L11.2553 13.641L10.563 13.765L10.439 14.4573L10.1066 13.8373L9.40912 13.9329L9.8965 13.4257L9.58995 12.7919ZM6.02839 5.88067L6.82837 8.18069L9.26187 8.23064L7.32178 9.70142L8.02703 12.0316L6.02839 10.6409L4.02976 12.0316L4.73501 9.70142L2.79492 8.23064L5.22842 8.18069L6.02839 5.88067Z" fill="#FFDE02"/>
</g>
<defs>
<clipPath id="clip0_3858_7695">
<rect width="18" height="18" fill="white"/>
</clipPath>
</defs>
</svg>
