<svg width="1501" height="1015" viewBox="0 0 1501 1015" fill="none" xmlns="http://www.w3.org/2000/svg">
<path d="M1001 -100L1101 -42V76L1001 134L901 76V-42L1001 -100Z" stroke="#EBEBEB" stroke-width="1.5"/>
<path d="M901 76L1001 134V252L901 310L801 252V134L901 76Z" stroke="#EBEBEB" stroke-width="1.5"/>
<path d="M801 -100L901 -42V76L801 134L701 76V-42L801 -100Z" stroke="#EBEBEB" stroke-width="1.5"/>
<path d="M1201 -100L1301 -42V76L1201 134L1101 76V-42L1201 -100Z" stroke="#EBEBEB" stroke-width="1.5"/>
<path d="M1101 76L1201 134V252L1101 310L1001 252V134L1101 76Z" stroke="#EBEBEB" stroke-width="1.5"/>
<path d="M1201 252L1301 310V428L1201 486L1101 428V310L1201 252Z" stroke="#EBEBEB" stroke-width="1.5"/>
<path d="M1401 252L1501 310V428L1401 486L1301 428V310L1401 252Z" stroke="#EBEBEB" stroke-width="1.5"/>
<path d="M1301 76L1401 134V252L1301 310L1201 252V134L1301 76Z" stroke="#EBEBEB" stroke-width="1.5"/>
<path d="M1401 -100L1501 -42V76L1401 134L1301 76V-42L1401 -100Z" stroke="#EBEBEB" stroke-width="1.5"/>
<path d="M1101 428L1201 486V604L1101 662L1001 604V486L1101 428Z" stroke="#EBEBEB" stroke-width="1.5"/>
<path d="M1301 428L1401 486V604L1301 662L1201 604V486L1301 428Z" stroke="#EBEBEB" stroke-width="1.5"/>
<path d="M1001 252L1101 310V428L1001 486L901 428V310L1001 252Z" stroke="#EBEBEB" stroke-width="1.5"/>
<path d="M901 428L1001 486V604L901 662L801 604V486L901 428Z" stroke="#EBEBEB" stroke-width="1.5"/>
<path d="M801 252L901 310V428L801 486L701 428V310L801 252Z" stroke="#EBEBEB" stroke-width="1.5"/>
<path d="M701 428L801 486V604L701 662L601 604V486L701 428Z" stroke="#EBEBEB" stroke-width="1.5"/>
<path d="M601 604L701 662V780L601 838L501 780V662L601 604Z" stroke="#EBEBEB" stroke-width="1.5"/>
<path d="M401 604L501 662V780L401 838L301 780V662L401 604Z" stroke="#EBEBEB" stroke-width="1.5"/>
<path d="M201 604L301 662V780L201 838L101 780V662L201 604Z" stroke="#EBEBEB" stroke-width="1.5"/>
<path d="M801 252L901 310V428L801 486L701 428V310L801 252Z" stroke="#EBEBEB" stroke-width="1.5"/>
<path d="M601 604L701 662V780L601 838L501 780V662L601 604Z" stroke="#EBEBEB" stroke-width="1.5"/>
<path d="M1001 604L1101 662V780L1001 838L901 780V662L1001 604Z" stroke="#EBEBEB" stroke-width="1.5"/>
<path d="M1201 604L1301 662V780L1201 838L1101 780V662L1201 604Z" stroke="#EBEBEB" stroke-width="1.5"/>
<path d="M1401 604L1501 662V780L1401 838L1301 780V662L1401 604Z" stroke="#EBEBEB" stroke-width="1.5"/>
<path d="M1101 780L1201 838V956L1101 1014L1001 956V838L1101 780Z" stroke="#EBEBEB" stroke-width="1.5"/>
<path d="M901 780L1001 838V956L901 1014L801 956V838L901 780Z" stroke="#EBEBEB" stroke-width="1.5"/>
<path d="M701 780L801 838V956L701 1014L601 956V838L701 780Z" stroke="#EBEBEB" stroke-width="1.5"/>
<path d="M501 780L601 838V956L501 1014L401 956V838L501 780Z" stroke="#EBEBEB" stroke-width="1.5"/>
<path d="M301 780L401 838V956L301 1014L201 956V838L301 780Z" stroke="#EBEBEB" stroke-width="1.5"/>
<path d="M101 780L201 838V956L101 1014L1 956V838L101 780Z" stroke="#EBEBEB" stroke-width="1.5"/>
</svg>
