<svg width="160" height="188" viewBox="0 0 160 188" fill="none" xmlns="http://www.w3.org/2000/svg">
<path fill-rule="evenodd" clip-rule="evenodd" d="M83.9878 1.83653C81.5188 0.416868 78.4812 0.416866 76.0122 1.83653L4.01223 43.2365C1.53013 44.6637 0 47.3086 0 50.1718V132.915C0 135.779 1.53013 138.423 4.01223 139.851L76.0122 181.251C78.4812 182.67 81.5188 182.67 83.9878 181.251L100.388 171.821C101.57 171.141 103.286 170.567 103.863 171.803C104.014 172.127 104.095 172.517 104.095 172.959V176.383C104.095 180.655 105.215 187.157 109.694 187.157C111.847 187.157 114.431 185.634 114.431 181.027V170.225C114.431 167.121 115.594 161.641 119.384 161.641C121.538 161.641 123.26 162.236 124.122 166.099C124.577 168.143 126.262 170.328 128.723 170.328C130.631 170.328 132.681 165.922 132.681 161.084C132.681 155.254 136.505 151.174 139.869 149.119L155.988 139.851C158.47 138.423 160 135.779 160 132.915V50.1718C160 47.3086 158.47 44.6637 155.988 43.2365L83.9878 1.83653Z" fill="url(#paint0_linear_1330_3672)"/>
<defs>
<linearGradient id="paint0_linear_1330_3672" x1="4" y1="231.01" x2="180.237" y2="210.093" gradientUnits="userSpaceOnUse">
<stop stop-color="#EC6113"/>
<stop offset="1" stop-color="#FF9900"/>
</linearGradient>
</defs>
</svg>
