<svg width="56" height="64" viewBox="0 0 56 64" fill="none" xmlns="http://www.w3.org/2000/svg">
<path d="M27.0077 0.567015C27.6226 0.215663 28.3774 0.215664 28.9923 0.567016L54.9923 15.4242C55.6154 15.7802 56 16.4429 56 17.1606V46.8394C56 47.5571 55.6154 48.2198 54.9923 48.5758L28.9923 63.433C28.3774 63.7843 27.6226 63.7843 27.0077 63.433L1.00772 48.5758C0.38457 48.2198 0 47.5571 0 46.8394V17.1606C0 16.4429 0.384572 15.7802 1.00772 15.4242L27.0077 0.567015Z" fill="#1A1A1A"/>
<path d="M22.2487 42C20.4545 42 19 40.5455 19 38.7513L19 26.2487C19 24.4545 20.4545 23 22.2487 23L40.7513 23C42.5455 23 44 24.4545 44 26.2487L44 40.9486L44 44.8735C44 45.3275 43.4748 45.5799 43.1203 45.2963L39.2966 42.2373C39.1046 42.0837 38.866 42 38.6201 42L22.2487 42Z" fill="white"/>
<mask id="path-3-outside-1_1330_3483" maskUnits="userSpaceOnUse" x="10" y="15" width="29" height="26" fill="black">
<rect fill="white" x="10" y="15" width="29" height="26"/>
<path d="M33.7513 36C35.5455 36 37 34.5455 37 32.7513L37 20.2487C37 18.4545 35.5455 17 33.7513 17L15.2487 17C13.4545 17 12 18.4545 12 20.2487L12 34.9486L12 38.8735C12 39.3275 12.5252 39.5799 12.8797 39.2963L16.7034 36.2373C16.8954 36.0837 17.134 36 17.3799 36L33.7513 36Z"/>
</mask>
<path d="M33.7513 36C35.5455 36 37 34.5455 37 32.7513L37 20.2487C37 18.4545 35.5455 17 33.7513 17L15.2487 17C13.4545 17 12 18.4545 12 20.2487L12 34.9486L12 38.8735C12 39.3275 12.5252 39.5799 12.8797 39.2963L16.7034 36.2373C16.8954 36.0837 17.134 36 17.3799 36L33.7513 36Z" fill="#FFA41D"/>
<path d="M33.7513 36L33.7513 34.5H33.7513L33.7513 36ZM37 32.7513L35.5 32.7513L37 32.7513ZM37 20.2487L35.5 20.2487L37 20.2487ZM33.7513 17L33.7513 18.5L33.7513 17ZM15.2487 17L15.2487 15.5L15.2487 17ZM12 20.2487L13.5 20.2487L12 20.2487ZM12 34.9486L13.5 34.9486L12 34.9486ZM12 38.8735L10.5 38.8735L12 38.8735ZM12.8797 39.2963L13.8167 40.4676L13.8167 40.4676L12.8797 39.2963ZM16.7034 36.2373L15.7663 35.066L15.7663 35.066L16.7034 36.2373ZM17.3799 36L17.3799 37.5H17.3799L17.3799 36ZM33.7513 37.5C36.3739 37.5 38.5 35.3739 38.5 32.7513L35.5 32.7513C35.5 33.7171 34.7171 34.5 33.7513 34.5L33.7513 37.5ZM38.5 32.7513L38.5 20.2487L35.5 20.2487L35.5 32.7513L38.5 32.7513ZM38.5 20.2487C38.5 17.6261 36.3739 15.5 33.7513 15.5L33.7513 18.5C34.7171 18.5 35.5 19.2829 35.5 20.2487L38.5 20.2487ZM33.7513 15.5L15.2487 15.5L15.2487 18.5L33.7513 18.5L33.7513 15.5ZM15.2487 15.5C12.6261 15.5 10.5 17.6261 10.5 20.2487L13.5 20.2487C13.5 19.2829 14.2829 18.5 15.2487 18.5L15.2487 15.5ZM10.5 20.2487L10.5 34.9486L13.5 34.9486L13.5 20.2487L10.5 20.2487ZM10.5 34.9486L10.5 38.8735L13.5 38.8735L13.5 34.9486L10.5 34.9486ZM10.5 38.8735C10.5 40.5852 12.4801 41.5369 13.8167 40.4676L11.9426 38.125C12.5703 37.6229 13.5 38.0697 13.5 38.8735L10.5 38.8735ZM13.8167 40.4676L17.6404 37.4086L15.7663 35.066L11.9426 38.125L13.8167 40.4676ZM17.6404 37.4086C17.5665 37.4678 17.4746 37.5 17.3799 37.5L17.3799 34.5C16.7934 34.5 16.2243 34.6996 15.7663 35.066L17.6404 37.4086ZM17.3799 37.5L33.7513 37.5L33.7513 34.5L17.3799 34.5L17.3799 37.5Z" fill="#1A1A1A" mask="url(#path-3-outside-1_1330_3483)"/>
<path d="M18 23C23.0468 23 25.9532 23 31 23" stroke="#1A1A1A" stroke-width="1.5" stroke-miterlimit="10" stroke-linecap="round" stroke-linejoin="round"/>
<path d="M18 30L26 30" stroke="#1A1A1A" stroke-width="1.5" stroke-miterlimit="10" stroke-linecap="round" stroke-linejoin="round"/>
</svg>
