<svg width="20" height="20" viewBox="0 0 20 20" fill="none" xmlns="http://www.w3.org/2000/svg">
<path d="M16.8423 17.5352C17.7557 15.0813 17.5864 12.0518 16.9581 9.95162C17.9592 8.91916 18.1998 7.37768 17.7324 5.90541C18.3074 5.93402 19.0526 5.83909 19.7433 5.34759C20.0182 5.15175 20.0826 4.77026 19.8864 4.49524C19.6915 4.22154 19.3089 4.15633 19.0335 4.35218C18.2158 4.93439 17.1925 4.58373 17.1692 4.57552C17.1399 4.56488 17.1104 4.55889 17.0806 4.55268C16.8714 4.23706 16.6266 3.93476 16.3447 3.65308C16.0629 3.3714 15.7604 3.12676 15.4446 2.9176C15.4382 2.88678 15.4317 2.85595 15.4204 2.82556C15.4167 2.81558 15.0587 1.78845 15.6452 0.965808C15.8414 0.690782 15.7762 0.308406 15.5021 0.113448C15.2271 -0.082397 14.8452 -0.018298 14.6492 0.256506C14.1572 0.946511 14.0623 1.6913 14.0911 2.26619C12.6144 1.79776 11.0683 2.04018 10.0353 3.04691C7.93454 2.42322 4.91485 2.2571 2.46638 3.16757C0.958861 3.72804 -0.445685 5.02754 0.13331 6.99376C0.330599 7.6638 0.74959 8.31765 1.32703 8.89476C1.74491 9.3124 2.24779 9.68724 2.80792 10.0017C2.02431 11.7883 2.21605 13.6079 3.37116 15.1851L2.55692 17.4667L4.83917 16.6532C6.41438 17.8065 8.23325 17.9955 10.0175 17.2174C10.3295 17.7675 10.7001 18.2621 11.112 18.6737C11.6895 19.2508 12.3437 19.6696 13.0141 19.8668C14.9815 20.4454 16.2815 19.0419 16.8423 17.5352ZM2.08845 6.41886C2.02054 6.18775 1.83989 5.57382 3.17697 5.07678C6.37266 3.8884 10.2736 5.08565 10.7683 5.58003C10.7694 5.58114 10.7705 5.58225 10.7716 5.58336C10.8823 5.71622 10.9902 5.91894 10.8573 6.31041C10.5486 7.21777 9.14336 8.43276 7.41125 8.81314C5.69823 9.18909 2.63238 8.2662 2.08845 6.41886ZM13.5889 17.9127C11.7414 17.3696 10.8175 14.305 11.1935 12.5932C11.5741 10.8621 12.7895 9.4579 13.6976 9.14916C14.0896 9.01609 14.2924 9.12388 14.4251 9.23478C14.4262 9.23589 14.4273 9.23699 14.4284 9.2381C14.9233 9.73271 16.1208 13.6314 14.932 16.8251C14.4344 18.1616 13.8204 17.9808 13.5889 17.9127Z" fill="white"/>
</svg>
