<svg width="14" height="14" viewBox="0 0 14 14" fill="none" xmlns="http://www.w3.org/2000/svg">
<g clip-path="url(#clip0_2276_140)">
<path fill="currentColor" d="M12.25 2.625H11.375V0.875C11.375 0.642936 11.2828 0.420376 11.1187 0.256282C10.9546 0.0921872 10.7321 0 10.5 0C10.2679 0 10.0454 0.0921872 9.88128 0.256282C9.71719 0.420376 9.625 0.642936 9.625 0.875V2.625H4.375V0.875C4.375 0.642936 4.28281 0.420376 4.11872 0.256282C3.95462 0.0921872 3.73206 0 3.5 0C3.26794 0 3.04538 0.0921872 2.88128 0.256282C2.71719 0.420376 2.625 0.642936 2.625 0.875V2.625H1.75C1.28587 2.625 0.840752 2.80937 0.512563 3.13756C0.184374 3.46575 0 3.91087 0 4.375L0 12.25C0 12.7141 0.184374 13.1592 0.512563 13.4874C0.840752 13.8156 1.28587 14 1.75 14H12.25C12.7141 14 13.1592 13.8156 13.4874 13.4874C13.8156 13.1592 14 12.7141 14 12.25V4.375C14 3.91087 13.8156 3.46575 13.4874 3.13756C13.1592 2.80937 12.7141 2.625 12.25 2.625ZM1.75 12.25V6.125H12.25V12.25H1.75Z"/>
</g>
<defs>
<clipPath id="clip0_2276_140">
<rect width="14" height="14" fill="white"/>
</clipPath>
</defs>
</svg>
