<?xml version="1.0" encoding="UTF-8"?>
<svg version="1.1" xmlns="http://www.w3.org/2000/svg" width="512" height="512">
<path d="M0 0 C0.93245757 -0.00692464 1.86491514 -0.01384928 2.825629 -0.02098376 C3.8620797 -0.02352787 4.8985304 -0.02607199 5.9663887 -0.0286932 C7.60396665 -0.03844163 7.60396665 -0.03844163 9.27462697 -0.04838699 C12.96347907 -0.06890248 16.65232003 -0.08203716 20.3412056 -0.09508419 C22.97360262 -0.10788776 25.60599805 -0.12102304 28.23839188 -0.13446712 C36.90967677 -0.17698197 45.58099299 -0.20653644 54.25233841 -0.23351192 C54.9892287 -0.23581951 55.72611899 -0.23812709 56.48533928 -0.24050459 C71.10924466 -0.2859353 85.73316487 -0.32447493 100.3571167 -0.35123444 C103.57414392 -0.35722385 106.79117094 -0.36330946 110.00819778 -0.36949825 C110.80780549 -0.37103123 111.60741319 -0.37256422 112.43125144 -0.37414365 C125.3868931 -0.39986178 138.3422098 -0.45674473 151.29768428 -0.52596355 C164.59007077 -0.59639741 177.88228914 -0.63666298 191.17485929 -0.64798397 C198.64177994 -0.65515051 206.10813609 -0.67596782 213.57487106 -0.73101139 C219.93373291 -0.77785388 226.29194545 -0.79775163 232.65097377 -0.78212989 C235.89669124 -0.77500929 239.14072222 -0.78528344 242.38628387 -0.82170773 C245.90420998 -0.85913251 249.41864092 -0.84753289 252.93660355 -0.82337093 C254.47789527 -0.85730185 254.47789527 -0.85730185 256.0503242 -0.89191824 C262.80330328 -0.77342214 262.80330328 -0.77342214 265.41979074 1.8913728 C266.7134146 3.93051693 267.73502044 5.93727698 268.70546341 8.14539433 C269.24880325 9.0819788 269.7921431 10.01856327 270.35194778 10.98352909 C271.06834427 12.27214848 271.06834427 12.27214848 271.79921341 13.58680058 C272.3477095 14.57035526 272.8962056 15.55390995 273.46132278 16.56726933 C274.03688919 17.60367558 274.6124556 18.64008183 275.20546341 19.70789433 C276.45506017 21.94900463 277.70506909 24.18988516 278.95546341 26.43055058 C279.58323685 27.55606327 280.21101028 28.68157597 280.85780716 29.84119511 C283.62280216 34.78588886 286.41304235 39.7161529 289.20546341 44.64539433 C294.32310118 53.68463242 299.40479615 62.74353896 304.47499466 71.80945683 C308.36704378 78.76509227 312.27880113 85.70924636 316.20546341 92.64539433 C321.32281144 101.68479742 326.40479521 110.74353728 331.47499466 119.80945683 C335.36704378 126.76509227 339.27880113 133.70924636 343.20546341 140.64539433 C347.72747129 148.63317466 352.22509865 156.63418294 356.70546341 164.64539433 C360.74160765 171.8620404 364.78640791 179.07353528 368.85731888 186.27063847 C369.95086881 188.20484888 371.04239361 190.14020587 372.13173294 192.07679081 C374.56021779 196.38876772 377.01071109 200.68068844 379.55311966 204.92664433 C379.9832637 205.65617313 380.41340775 206.38570194 380.85658646 207.13733768 C381.64238142 208.46674665 382.44101923 209.78869409 383.25551224 211.10071659 C385.71373755 215.29470506 385.84127214 217.49074885 384.70546341 222.14539433 C383.453022 224.8765955 383.453022 224.8765955 381.85390091 227.68836308 C381.25754837 228.74829472 380.66119583 229.80822636 380.046772 230.90027714 C379.39789017 232.03304081 378.74900833 233.16580448 378.08046341 234.33289433 C377.40195147 235.53255829 376.72439645 236.73276393 376.04774857 237.93348026 C374.64040766 240.42920777 373.22897243 242.92255325 371.81483841 245.41443729 C368.52708532 251.21753997 365.30932741 257.05938092 362.08046341 262.89539433 C356.97029616 272.10493377 351.81106685 281.28530269 346.61684036 290.44764042 C341.81693646 298.92442425 337.08595582 307.43876866 332.36171341 315.95789433 C327.59011334 324.56049157 322.78956549 333.14647256 317.97743607 341.72644901 C313.67842625 349.39625961 309.40702232 357.08110776 305.14296341 364.77039433 C300.018572 374.00903017 294.85065363 383.22134937 289.63685989 392.40979862 C286.64416728 397.69153522 283.67674461 402.98651239 280.73671341 408.29773808 C280.40063065 408.90457432 280.06454788 409.51141056 279.71828079 410.13663578 C278.08127545 413.09355422 276.44714304 416.05198488 274.81679153 419.01258183 C274.22317825 420.08637089 273.62956497 421.16015995 273.01796341 422.26648808 C272.49847122 423.20935673 271.97897903 424.15222538 271.44374466 425.12366581 C270.87011185 426.12083622 270.29647903 427.11800663 269.70546341 428.14539433 C269.41193725 428.8079421 269.1184111 429.47048988 268.81599021 430.15311486 C267.21410164 433.36638931 266.01758815 435.69509903 262.51070833 436.89859092 C259.67069267 437.20278703 256.92270681 437.24517645 254.06636429 437.20836735 C252.44014385 437.23449568 252.44014385 437.23449568 250.78107047 437.26115185 C247.14089721 437.30953114 243.50314108 437.30055522 239.86268997 437.29163456 C237.25586925 437.31393041 234.64907497 437.3395285 232.04231644 437.3681879 C225.69179374 437.43076004 219.34188582 437.44905615 212.99108246 437.45006191 C207.82767436 437.45113092 202.66446468 437.46521557 197.50111008 437.4884901 C182.85634991 437.5531872 168.21206019 437.58547543 153.56715754 437.57464933 C152.77780824 437.57406695 151.98845894 437.57348458 151.17518997 437.57288456 C150.38487474 437.5722952 149.59455952 437.57170585 148.78029534 437.57109863 C135.97578298 437.56349395 123.17297411 437.63213327 110.3689225 437.73577034 C97.2163761 437.84139075 84.06465503 437.89102158 70.91167426 437.88208443 C63.52919473 437.87818272 56.14842617 437.89707207 48.76632309 437.97586727 C41.82126454 438.04947365 34.87995109 438.04508653 27.9347496 437.98835659 C25.38741397 437.97971283 22.83984266 437.99664637 20.29288101 438.04114246 C1.54086769 438.34705386 1.54086769 438.34705386 -3.17310047 434.6867106 C-6.21258016 431.19064201 -8.00195671 427.35153805 -9.5663991 423.02521336 C-10.68985581 420.12480604 -12.30668442 417.55259635 -13.92734909 414.90711308 C-15.09274601 412.88314126 -16.25677943 410.85838382 -17.41953659 408.83289433 C-18.72418816 406.56594656 -20.02887672 404.29902009 -21.33359909 402.03211308 C-21.99005417 400.8904871 -22.64650925 399.74886112 -23.3228569 398.57264042 C-26.47478892 393.09383636 -29.63494456 387.6197832 -32.79453659 382.14539433 C-34.0445789 379.97875207 -35.29457883 377.81208536 -36.54453659 375.64539433 C-37.16328659 374.57289433 -37.78203659 373.50039433 -38.41953659 372.39539433 C-89.04453659 284.64539433 -89.04453659 284.64539433 -90.92051315 281.39368534 C-92.16723915 279.23270444 -93.41398386 277.07173435 -94.66074753 274.91077518 C-97.83599542 269.40720581 -101.01089154 263.903434 -104.18516159 258.39930058 C-104.82582565 257.2890955 -105.46648972 256.17889042 -106.12656784 255.03504276 C-107.39173955 252.84031771 -108.65480794 250.64437865 -109.91563034 248.44715214 C-112.797377 243.4317455 -115.70605815 238.44032512 -118.71641159 233.50086308 C-119.50000046 232.19943363 -119.50000046 232.19943363 -120.2994194 230.87171268 C-121.26396502 229.27416432 -122.24160017 227.68441168 -123.23496628 226.10462284 C-123.65681198 225.40135868 -124.07865768 224.69809452 -124.51328659 223.97351933 C-125.06919479 223.07488163 -125.06919479 223.07488163 -125.63633347 222.15808964 C-126.91152658 218.25872316 -125.66905777 214.9604407 -124.0103569 211.35071659 C-123.46991745 210.39737431 -122.929478 209.44403202 -122.37266159 208.46180058 C-121.76607712 207.38140507 -121.15949265 206.30100956 -120.53452682 205.18787479 C-119.8713629 204.02778631 -119.20802852 202.86779525 -118.54453659 201.70789433 C-117.86021208 200.49627584 -117.17671077 199.28419208 -116.49399948 198.07166386 C-114.7629324 195.0016966 -113.02189933 191.93751477 -111.27799606 188.87482548 C-109.81258322 186.29787066 -108.35623652 183.71582737 -106.90000534 181.13367558 C-104.78401655 177.38281043 -102.6638721 173.63434569 -100.54063034 169.88758183 C-97.10483128 163.8182621 -93.69839966 157.73266661 -90.29453659 151.64539433 C-85.28400405 142.68601747 -80.24624589 133.74257426 -75.18906784 124.80945683 C-71.2041689 117.76593085 -67.24463666 110.70848716 -63.29453659 103.64539433 C-58.28394156 94.68605222 -53.24624608 85.74257459 -48.18906784 76.80945683 C-44.20416844 69.76593005 -40.24478457 62.708405 -36.29453659 55.64539433 C-27.62111444 40.14349898 -18.92529605 24.65473287 -10.04453659 9.27039433 C-9.5782988 8.46102421 -9.112061 7.65165409 -8.63169479 6.81775761 C-8.20590134 6.08283085 -7.78010788 5.34790409 -7.34141159 4.59070683 C-6.96855026 3.94633671 -6.59568893 3.30196659 -6.21152878 2.63807011 C-4.43563943 -0.25271462 -3.33394201 0.01626566 0 0 Z " fill="#01579B" transform="translate(126.29453659057617,37.85460567474365)"/>
<path d="M0 0 C131.6344294 0 131.6344294 0 164 29 C165.24929271 30.02169879 166.49921475 31.04262895 167.75 32.0625 C186.75232519 48.63899644 198.25943319 72.87477309 204 97 C204.31324219 98.2684375 204.31324219 98.2684375 204.6328125 99.5625 C207.87561988 115.62211751 207.04559823 133.1928037 203 149 C202.83371094 149.68078613 202.66742188 150.36157227 202.49609375 151.06298828 C197.05478549 173.02471301 185.72478496 191.89913648 170 208 C169.33355469 208.72832031 168.66710937 209.45664062 167.98046875 210.20703125 C148.91329056 230.55873513 121.59347464 238.80103032 95 243 C63.65 243 32.3 243 0 243 C0 162.81 0 82.62 0 0 Z " fill="#FDFDFE" transform="translate(171,135)"/>
<path d="M0 0 C65.13803366 0 65.13803366 0 88.25 21.6875 C102.38969167 36.5399241 109.56358477 54.95986842 109.18359375 75.45703125 C108.03043651 97.71051247 98.28991632 114.83124629 82.0625 129.75 C58.27787456 149.69537488 30.44951385 146 0 146 C0 97.82 0 49.64 0 0 Z " fill="#01579B" transform="translate(220,183)"/>
</svg>
