<svg width="52" height="41" viewBox="0 0 52 41" fill="none" xmlns="http://www.w3.org/2000/svg">
<path d="M24.093 29C24.093 22.4286 18.991 17.7143 12.0465 17.7143H10.0624V16C10.0624 11.5714 12.4717 8.85715 17.1486 8.85715H22.1089V0H17.7155C5.52723 0 0 7.28571 0 17.8571V28.5714C0 36.1429 5.10206 41 12.0465 41C18.991 41 24.093 36.1429 24.093 29ZM52 29C52 22.4286 47.0397 17.7143 40.0952 17.7143H37.9693V16C37.9693 11.5714 40.3787 8.85715 45.0555 8.85715H50.0159V0H45.6224C33.5759 0 27.907 7.28571 27.907 17.8571V28.5714C27.907 36.1429 33.009 41 39.9535 41C47.0397 41 52 36.1429 52 29Z" fill="#FFE100"/>
</svg>
