<svg width="24" height="24" viewBox="0 0 24 24" fill="none" xmlns="http://www.w3.org/2000/svg">
<path d="M6.11469 14.8239C6.11469 15.2294 5.99446 15.6257 5.7692 15.9629C5.54394 16.3 5.22377 16.5628 4.84918 16.7179C4.47459 16.8731 4.06239 16.9137 3.66473 16.8346C3.26706 16.7555 2.90179 16.5602 2.61509 16.2735C2.32839 15.9868 2.13314 15.6215 2.05404 15.2239C1.97494 14.8262 2.01554 14.414 2.1707 14.0394C2.32586 13.6648 2.58862 13.3447 2.92574 13.1194C3.26286 12.8942 3.65921 12.7739 4.06467 12.7739H6.11469V14.8239Z" fill="currentColor"/>
<path d="M7.1416 14.8275C7.1416 14.2838 7.35758 13.7624 7.74204 13.3779C8.12649 12.9935 8.64792 12.7775 9.19162 12.7775C9.73532 12.7775 10.2568 12.9935 10.6412 13.3779C11.0257 13.7624 11.2416 14.2838 11.2416 14.8275V19.951C11.2416 20.4947 11.0257 21.0162 10.6412 21.4006C10.2568 21.7851 9.73532 22.001 9.19162 22.001C8.64792 22.001 8.12649 21.7851 7.74204 21.4006C7.35758 21.0162 7.1416 20.4947 7.1416 19.951V14.8275Z" fill="currentColor"/>
<path d="M9.18577 6.09881C8.78031 6.09881 8.38396 5.97858 8.04684 5.75332C7.70971 5.52806 7.44695 5.2079 7.29179 4.8333C7.13663 4.45871 7.09603 4.04652 7.17513 3.64886C7.25423 3.25119 7.44948 2.88592 7.73618 2.59922C8.02288 2.31252 8.38816 2.11727 8.78583 2.03817C9.18349 1.95907 9.59568 1.99967 9.97028 2.15483C10.3449 2.30999 10.665 2.57275 10.8903 2.90987C11.1156 3.24699 11.2358 3.64334 11.2358 4.04879V6.09881H9.18577Z" fill="currentColor"/>
<path d="M9.18857 7.13782C9.73227 7.13782 10.2537 7.3538 10.6382 7.73826C11.0226 8.12271 11.2386 8.64414 11.2386 9.18784C11.2386 9.73153 11.0226 10.253 10.6382 10.6374C10.2537 11.0219 9.73227 11.2378 9.18857 11.2378H4.05002C3.50632 11.2378 2.98489 11.0219 2.60044 10.6374C2.21598 10.253 2 9.73153 2 9.18784C2 8.64414 2.21598 8.12271 2.60044 7.73826C2.98489 7.3538 3.50632 7.13782 4.05002 7.13782H9.18857Z" fill="currentColor"/>
<path d="M17.8877 9.18784C17.8877 8.78238 18.0079 8.38603 18.2332 8.04891C18.4584 7.71178 18.7786 7.44903 19.1532 7.29387C19.5278 7.13871 19.94 7.09811 20.3377 7.17721C20.7353 7.25631 21.1006 7.45156 21.3873 7.73826C21.674 8.02496 21.8693 8.39023 21.9484 8.7879C22.0275 9.18556 21.9869 9.59775 21.8317 9.97234C21.6765 10.3469 21.4138 10.6671 21.0766 10.8924C20.7395 11.1176 20.3432 11.2379 19.9377 11.2379H17.8877V9.18784Z" fill="currentColor"/>
<path d="M16.8676 9.18733C16.8676 9.45654 16.8146 9.72312 16.7116 9.97184C16.6086 10.2206 16.4576 10.4466 16.2672 10.6369C16.0768 10.8273 15.8508 10.9783 15.6021 11.0813C15.3534 11.1843 15.0868 11.2374 14.8176 11.2374C14.5484 11.2374 14.2818 11.1843 14.0331 11.0813C13.7844 10.9783 13.5584 10.8273 13.368 10.6369C13.1777 10.4466 13.0267 10.2206 12.9236 9.97184C12.8206 9.72312 12.7676 9.45654 12.7676 9.18733V4.04879C12.7676 3.5051 12.9836 2.98367 13.368 2.59922C13.7525 2.21476 14.2739 1.99878 14.8176 1.99878C15.3613 1.99878 15.8827 2.21476 16.2672 2.59922C16.6516 2.98367 16.8676 3.5051 16.8676 4.04879V9.18733Z" fill="currentColor"/>
<path d="M14.8176 17.8987C15.2231 17.8987 15.6194 18.0189 15.9565 18.2442C16.2937 18.4694 16.5564 18.7896 16.7116 19.1642C16.8667 19.5388 16.9073 19.951 16.8282 20.3486C16.7491 20.7463 16.5539 21.1116 16.2672 21.3983C15.9805 21.685 15.6152 21.8802 15.2175 21.9593C14.8199 22.0384 14.4077 21.9978 14.0331 21.8427C13.6585 21.6875 13.3383 21.4247 13.1131 21.0876C12.8878 20.7505 12.7676 20.3541 12.7676 19.9487V17.8987H14.8176Z" fill="currentColor"/>
<path d="M14.8117 16.874C14.268 16.874 13.7466 16.658 13.3622 16.2735C12.9777 15.8891 12.7617 15.3676 12.7617 14.8239C12.7617 14.2802 12.9777 13.7588 13.3622 13.3744C13.7466 12.9899 14.268 12.7739 14.8117 12.7739H19.9508C20.4945 12.7739 21.0159 12.9899 21.4004 13.3744C21.7848 13.7588 22.0008 14.2802 22.0008 14.8239C22.0008 15.3676 21.7848 15.8891 21.4004 16.2735C21.0159 16.658 20.4945 16.874 19.9508 16.874H14.8117Z" fill="currentColor"/>
</svg>
