<svg width="24" height="24" viewBox="0 0 24 24" fill="none" xmlns="http://www.w3.org/2000/svg">
<path d="M5.0585 15.1726C5.0585 15.6715 4.91067 16.1591 4.63372 16.5739C4.35677 16.9887 3.96313 17.312 3.50258 17.5029C3.04202 17.6938 2.53524 17.7438 2.04632 17.6464C1.5574 17.5491 1.1083 17.3089 0.755805 16.9561C0.403312 16.6034 0.163262 16.154 0.0660092 15.6647C-0.0312433 15.1754 0.0186702 14.6683 0.209438 14.2074C0.400205 13.7465 0.723259 13.3526 1.13775 13.0755C1.55223 12.7983 2.03954 12.6504 2.53804 12.6504H5.0585V15.1726Z" fill="#E01E5A"/>
<path d="M6.31836 15.1726C6.31836 14.5037 6.58391 13.8622 7.05658 13.3891C7.52926 12.9161 8.17035 12.6504 8.83882 12.6504C9.50729 12.6504 10.1484 12.9161 10.6211 13.3891C11.0937 13.8622 11.3593 14.5037 11.3593 15.1726V21.4783C11.3593 22.1472 11.0937 22.7888 10.6211 23.2618C10.1484 23.7348 9.50729 24.0005 8.83882 24.0005C8.17035 24.0005 7.52926 23.7348 7.05658 23.2618C6.58391 22.7888 6.31836 22.1472 6.31836 21.4783V15.1726Z" fill="#E01E5A"/>
<path d="M8.83882 5.04451C8.34032 5.04451 7.85302 4.89658 7.43853 4.61943C7.02404 4.34228 6.70099 3.94836 6.51022 3.48748C6.31945 3.0266 6.26954 2.51946 6.36679 2.03019C6.46404 1.54092 6.70409 1.0915 7.05659 0.738753C7.40908 0.386009 7.85818 0.145787 8.3471 0.0484655C8.83602 -0.0488562 9.3428 0.00109285 9.80336 0.191996C10.2639 0.3829 10.6576 0.706184 10.9345 1.12097C11.2115 1.53575 11.3593 2.0234 11.3593 2.52225V5.04451H8.83882Z" fill="#36C5F0"/>
<path d="M8.8407 6.32397C9.50917 6.32397 10.1503 6.58971 10.6229 7.06273C11.0956 7.53574 11.3612 8.17729 11.3612 8.84623C11.3612 9.51517 11.0956 10.1567 10.6229 10.6297C10.1503 11.1027 9.50917 11.3685 8.8407 11.3685H2.52046C1.85199 11.3685 1.2109 11.1027 0.738226 10.6297C0.265548 10.1567 0 9.51517 0 8.84623C0 8.17729 0.265548 7.53574 0.738226 7.06273C1.2109 6.58971 1.85199 6.32397 2.52046 6.32397H8.8407Z" fill="#36C5F0"/>
<path d="M18.9395 8.84647C18.9395 8.34762 19.0873 7.85997 19.3642 7.44518C19.6412 7.0304 20.0348 6.70712 20.4954 6.51621C20.9559 6.32531 21.4627 6.27536 21.9516 6.37268C22.4405 6.47001 22.8897 6.71023 23.2421 7.06297C23.5946 7.41571 23.8347 7.86514 23.9319 8.3544C24.0292 8.84367 23.9793 9.35082 23.7885 9.8117C23.5977 10.2726 23.2747 10.6665 22.8602 10.9436C22.4457 11.2208 21.9584 11.3687 21.4599 11.3687H18.9395V8.84647Z" fill="#2EB67D"/>
<path d="M17.6796 8.847C17.6796 9.51594 17.414 10.1575 16.9414 10.6305C16.4687 11.1035 15.8276 11.3692 15.1591 11.3692C14.4907 11.3692 13.8496 11.1035 13.3769 10.6305C12.9042 10.1575 12.6387 9.51594 12.6387 8.847V2.52225C12.6387 1.85331 12.9042 1.21177 13.3769 0.738752C13.8496 0.265738 14.4907 0 15.1591 0C15.8276 0 16.4687 0.265738 16.9414 0.738752C17.414 1.21177 17.6796 1.85331 17.6796 2.52225V8.847Z" fill="#2EB67D"/>
<path d="M15.1591 18.9551C15.6576 18.9551 16.1449 19.103 16.5594 19.3802C16.9739 19.6573 17.297 20.0512 17.4877 20.5121C17.6785 20.973 17.7284 21.4801 17.6312 21.9694C17.5339 22.4587 17.2939 22.9081 16.9414 23.2608C16.5889 23.6136 16.1398 23.8538 15.6508 23.9511C15.1619 24.0484 14.6551 23.9985 14.1946 23.8076C13.734 23.6167 13.3404 23.2934 13.0634 22.8786C12.7865 22.4638 12.6387 21.9762 12.6387 21.4773V18.9551H15.1591Z" fill="#ECB22E"/>
<path d="M15.1591 17.6949C14.4907 17.6949 13.8496 17.4292 13.3769 16.9561C12.9042 16.4831 12.6387 15.8416 12.6387 15.1726C12.6387 14.5037 12.9042 13.8622 13.3769 13.3891C13.8496 12.9161 14.4907 12.6504 15.1591 12.6504H21.4794C22.1478 12.6504 22.7889 12.9161 23.2616 13.3891C23.7343 13.8622 23.9998 14.5037 23.9998 15.1726C23.9998 15.8416 23.7343 16.4831 23.2616 16.9561C22.7889 17.4292 22.1478 17.6949 21.4794 17.6949H15.1591Z" fill="#ECB22E"/>
</svg>
