<svg width="56" height="64" viewBox="0 0 56 64" fill="none" xmlns="http://www.w3.org/2000/svg">
<path d="M23.0386 2.83508C26.1129 1.07832 29.8871 1.07832 32.9614 2.83508L50.9614 13.1208C54.0771 14.9012 56 18.2147 56 21.8032V42.1968C56 45.7853 54.0771 49.0988 50.9614 50.8792L32.9614 61.1649C29.8871 62.9217 26.1129 62.9217 23.0386 61.1649L5.03861 50.8792C1.92286 49.0988 0 45.7853 0 42.1968V21.8032C0 18.2147 1.92286 14.9012 5.03861 13.1208L23.0386 2.83508Z" fill="#FFA41D"/>
<path d="M7 41.625C7 41.2798 7.27982 41 7.625 41H48.375C48.7202 41 49 41.2798 49 41.625C49 44.0412 47.0412 46 44.625 46H11.375C8.95876 46 7 44.0412 7 41.625Z" fill="#1A1A1A"/>
<path d="M11.75 21C11.75 19.7574 12.7574 18.75 14 18.75H42C43.2426 18.75 44.25 19.7574 44.25 21V38C44.25 39.2426 43.2426 40.25 42 40.25H14C12.7574 40.25 11.75 39.2426 11.75 38V21Z" fill="white" stroke="#1A1A1A" stroke-width="1.5"/>
<circle cx="28" cy="31" r="3" fill="#1A1A1A"/>
<path d="M28 31L35 35" stroke="#1A1A1A" stroke-width="1.5"/>
<path d="M28 24V31" stroke="#1A1A1A" stroke-width="1.5"/>
<path d="M28 31L21 35" stroke="#1A1A1A" stroke-width="1.5"/>
<circle cx="28" cy="24" r="2" fill="#1A1A1A"/>
<circle cx="35" cy="35" r="2" fill="#1A1A1A"/>
<circle cx="21" cy="35" r="2" fill="#1A1A1A"/>
</svg>
