<svg width="56" height="64" viewBox="0 0 56 64" fill="none" xmlns="http://www.w3.org/2000/svg">
<path d="M23.4107 3.48626C26.2545 1.86126 29.7455 1.86126 32.5893 3.48626L50.5893 13.772C53.4714 15.4189 55.25 18.4838 55.25 21.8032V42.1968C55.25 45.5162 53.4714 48.5811 50.5893 50.228L32.5893 60.5137C29.7455 62.1387 26.2545 62.1387 23.4107 60.5137L5.41071 50.228C2.52865 48.5811 0.75 45.5162 0.75 42.1968V21.8032C0.75 18.4838 2.52865 15.4189 5.41072 13.772L23.4107 3.48626Z" fill="white" stroke="#1A1A1A" stroke-width="1.5"/>
<path d="M40.6 22.6669C40.3578 22.6669 40.1184 22.6842 39.8804 22.7045C39.0201 20.1613 37.4143 17.9571 35.2856 16.3975C33.157 14.8379 30.6108 14 28 14C25.3892 14 22.843 14.8379 20.7144 16.3975C18.5857 17.9571 16.9799 20.1613 16.1196 22.7045C15.8816 22.6842 15.6422 22.6669 15.4 22.6669C13.1722 22.6669 11.0356 23.58 9.4603 25.2053C7.885 26.8306 7 29.0349 7 31.3335C7 33.632 7.885 35.8363 9.4603 37.4616C11.0356 39.0869 13.1722 40 15.4 40H40.6C42.8278 40 44.9644 39.0869 46.5397 37.4616C48.115 35.8363 49 33.632 49 31.3335C49 29.0349 48.115 26.8306 46.5397 25.2053C44.9644 23.58 42.8278 22.6669 40.6 22.6669Z" fill="#1A1A1A"/>
<mask id="path-3-outside-1_1330_3467" maskUnits="userSpaceOnUse" x="16" y="26.5" width="24" height="24" fill="black">
<rect fill="white" x="16" y="26.5" width="24" height="24"/>
<path fill-rule="evenodd" clip-rule="evenodd" d="M35.3516 36.9132C35.5007 37.5022 35.589 38.1145 35.589 38.75C35.589 39.3841 35.5007 39.9978 35.3544 40.5882L38 42.1011L35.9299 45.6517L33.2857 44.1401C32.3955 44.9943 31.297 45.6325 30.0701 45.9769V49H25.9299V45.9756C24.703 45.6325 23.6031 44.9943 22.7143 44.1388L20.0701 45.6503L18 42.0997L20.6456 40.5868C20.4965 39.9978 20.4082 39.3841 20.4082 38.75C20.4082 38.1145 20.4965 37.5022 20.6456 36.9132L18 35.4003L20.0701 31.8497L22.7129 33.3612C23.6031 32.5057 24.703 31.8675 25.9285 31.5231V28.5H30.0687V31.5244C31.2956 31.8675 32.3955 32.5057 33.2843 33.3612L35.9271 31.8497L37.9972 35.4003L35.3516 36.9132ZM31.4511 38.7507C31.4511 40.6376 29.9064 42.1673 28.001 42.1673C26.0955 42.1673 24.5508 40.6376 24.5508 38.7507C24.5508 36.8637 26.0955 35.334 28.001 35.334C29.9064 35.334 31.4511 36.8637 31.4511 38.7507Z"/>
</mask>
<path fill-rule="evenodd" clip-rule="evenodd" d="M35.3516 36.9132C35.5007 37.5022 35.589 38.1145 35.589 38.75C35.589 39.3841 35.5007 39.9978 35.3544 40.5882L38 42.1011L35.9299 45.6517L33.2857 44.1401C32.3955 44.9943 31.297 45.6325 30.0701 45.9769V49H25.9299V45.9756C24.703 45.6325 23.6031 44.9943 22.7143 44.1388L20.0701 45.6503L18 42.0997L20.6456 40.5868C20.4965 39.9978 20.4082 39.3841 20.4082 38.75C20.4082 38.1145 20.4965 37.5022 20.6456 36.9132L18 35.4003L20.0701 31.8497L22.7129 33.3612C23.6031 32.5057 24.703 31.8675 25.9285 31.5231V28.5H30.0687V31.5244C31.2956 31.8675 32.3955 32.5057 33.2843 33.3612L35.9271 31.8497L37.9972 35.4003L35.3516 36.9132ZM31.4511 38.7507C31.4511 40.6376 29.9064 42.1673 28.001 42.1673C26.0955 42.1673 24.5508 40.6376 24.5508 38.7507C24.5508 36.8637 26.0955 35.334 28.001 35.334C29.9064 35.334 31.4511 36.8637 31.4511 38.7507Z" fill="#FFA41D"/>
<path d="M35.3516 36.9132L34.607 35.6111C34.0224 35.9454 33.7323 36.6283 33.8975 37.2812L35.3516 36.9132ZM35.3544 40.5882L33.8984 40.2274C33.7371 40.8784 34.0276 41.5574 34.6098 41.8903L35.3544 40.5882ZM38 42.1011L39.2958 42.8566C39.4973 42.511 39.5524 42.0993 39.4489 41.7129C39.3454 41.3265 39.0919 40.9975 38.7446 40.7989L38 42.1011ZM35.9299 45.6517L35.1855 46.9539C35.9003 47.3626 36.811 47.1185 37.2257 46.4072L35.9299 45.6517ZM33.2857 44.1401L34.0301 42.8379C33.4527 42.5078 32.727 42.5974 32.2471 43.0578L33.2857 44.1401ZM30.0701 45.9769L29.6647 44.5328C29.0174 44.7145 28.5701 45.3046 28.5701 45.9769H30.0701ZM30.0701 49V50.5C30.8985 50.5 31.5701 49.8284 31.5701 49H30.0701ZM25.9299 49H24.4299C24.4299 49.8284 25.1015 50.5 25.9299 50.5V49ZM25.9299 45.9756H27.4299C27.4299 45.3027 26.9818 44.7122 26.3338 44.531L25.9299 45.9756ZM22.7143 44.1388L23.7546 43.0581C23.2748 42.5963 22.548 42.506 21.9699 42.8365L22.7143 44.1388ZM20.0701 45.6503L18.7743 46.4058C19.189 47.1172 20.0997 47.3612 20.8145 46.9525L20.0701 45.6503ZM18 42.0997L17.2554 40.7976C16.9081 40.9961 16.6546 41.3252 16.5511 41.7116C16.4476 42.0979 16.5027 42.5097 16.7042 42.8552L18 42.0997ZM20.6456 40.5868L21.3902 41.8889C21.9748 41.5546 22.265 40.8717 22.0998 40.2188L20.6456 40.5868ZM20.6456 36.9132L22.0998 37.2812C22.265 36.6283 21.9748 35.9454 21.3902 35.6111L20.6456 36.9132ZM18 35.4003L16.7042 34.6448C16.5027 34.9903 16.4476 35.4021 16.5511 35.7884C16.6546 36.1748 16.9081 36.5039 17.2554 36.7024L18 35.4003ZM20.0701 31.8497L20.8148 30.5476C20.0999 30.1387 19.1891 30.3827 18.7743 31.0942L20.0701 31.8497ZM22.7129 33.3612L21.9682 34.6633C22.546 34.9938 23.2725 34.9039 23.7524 34.4427L22.7129 33.3612ZM25.9285 31.5231L26.3343 32.9671C26.9814 32.7853 27.4285 32.1952 27.4285 31.5231H25.9285ZM25.9285 28.5V27C25.1001 27 24.4285 27.6716 24.4285 28.5H25.9285ZM30.0687 28.5H31.5687C31.5687 27.6716 30.8972 27 30.0687 27V28.5ZM30.0687 31.5244H28.5687C28.5687 32.1973 29.0168 32.7878 29.6648 32.969L30.0687 31.5244ZM33.2843 33.3612L32.244 34.4419C32.7239 34.9038 33.4508 34.994 34.029 34.6633L33.2843 33.3612ZM35.9271 31.8497L37.223 31.0942C36.8082 30.3827 35.8973 30.1387 35.1824 30.5476L35.9271 31.8497ZM37.9972 35.4003L38.7419 36.7024C39.0891 36.5039 39.3426 36.1748 39.4462 35.7884C39.5497 35.4021 39.4946 34.9903 39.2931 34.6448L37.9972 35.4003ZM37.089 38.75C37.089 37.9743 36.9811 37.2378 36.8058 36.5452L33.8975 37.2812C34.0203 37.7667 34.089 38.2547 34.089 38.75H37.089ZM36.8104 40.9489C36.9811 40.2598 37.089 39.5242 37.089 38.75H34.089C34.089 39.2441 34.0203 39.7357 33.8984 40.2274L36.8104 40.9489ZM38.7446 40.7989L36.099 39.286L34.6098 41.8903L37.2554 43.4032L38.7446 40.7989ZM37.2257 46.4072L39.2958 42.8566L36.7042 41.3456L34.6341 44.8962L37.2257 46.4072ZM32.5413 45.4424L35.1855 46.9539L36.6743 44.3494L34.0301 42.8379L32.5413 45.4424ZM30.4755 47.4211C31.9432 47.0091 33.2585 46.2451 34.3242 45.2224L32.2471 43.0578C31.5326 43.7435 30.6507 44.256 29.6647 44.5328L30.4755 47.4211ZM31.5701 49V45.9769H28.5701V49H31.5701ZM25.9299 50.5H30.0701V47.5H25.9299V50.5ZM24.4299 45.9756V49H27.4299V45.9756H24.4299ZM21.6741 45.2194C22.7397 46.2453 24.0577 47.0096 25.526 47.4202L26.3338 44.531C25.3483 44.2554 24.4664 43.7433 23.7546 43.0581L21.6741 45.2194ZM20.8145 46.9525L23.4587 45.441L21.9699 42.8365L19.3257 44.3481L20.8145 46.9525ZM16.7042 42.8552L18.7743 46.4058L21.3659 44.8948L19.2958 41.3442L16.7042 42.8552ZM19.901 39.2847L17.2554 40.7976L18.7446 43.4018L21.3902 41.8889L19.901 39.2847ZM18.9082 38.75C18.9082 39.5242 19.0161 40.262 19.1914 40.9548L22.0998 40.2188C21.977 39.7335 21.9082 39.244 21.9082 38.75H18.9082ZM19.1914 36.5452C19.0162 37.2378 18.9082 37.9743 18.9082 38.75H21.9082C21.9082 38.2547 21.9769 37.7667 22.0998 37.2812L19.1914 36.5452ZM17.2554 36.7024L19.901 38.2153L21.3902 35.6111L18.7446 34.0982L17.2554 36.7024ZM18.7743 31.0942L16.7042 34.6448L19.2958 36.1558L21.3659 32.6052L18.7743 31.0942ZM23.4577 32.0592L20.8148 30.5476L19.3254 33.1518L21.9682 34.6633L23.4577 32.0592ZM25.5227 30.079C24.057 30.4909 22.74 31.2547 21.6735 32.2798L23.7524 34.4427C24.4662 33.7567 25.349 33.244 26.3343 32.9671L25.5227 30.079ZM24.4285 28.5V31.5231H27.4285V28.5H24.4285ZM30.0687 27H25.9285V30H30.0687V27ZM31.5687 31.5244V28.5H28.5687V31.5244H31.5687ZM34.3246 32.2806C33.2589 31.2547 31.9409 30.4904 30.4726 30.0798L29.6648 32.969C30.6503 33.2446 31.5322 33.7567 32.244 34.4419L34.3246 32.2806ZM35.1824 30.5476L32.5396 32.0592L34.029 34.6633L36.6718 33.1518L35.1824 30.5476ZM39.2931 34.6448L37.223 31.0942L34.6313 32.6052L36.7014 36.1558L39.2931 34.6448ZM36.0963 38.2153L38.7419 36.7024L37.2526 34.0982L34.607 35.6111L36.0963 38.2153ZM28.001 43.6673C30.721 43.6673 32.9511 41.4798 32.9511 38.7507H29.9511C29.9511 39.7954 29.0919 40.6673 28.001 40.6673V43.6673ZM23.0508 38.7507C23.0508 41.4798 25.2809 43.6673 28.001 43.6673V40.6673C26.9101 40.6673 26.0508 39.7954 26.0508 38.7507H23.0508ZM28.001 33.834C25.2809 33.834 23.0508 36.0215 23.0508 38.7507H26.0508C26.0508 37.7059 26.9101 36.834 28.001 36.834V33.834ZM32.9511 38.7507C32.9511 36.0215 30.721 33.834 28.001 33.834V36.834C29.0919 36.834 29.9511 37.7059 29.9511 38.7507H32.9511Z" fill="#1A1A1A" mask="url(#path-3-outside-1_1330_3467)"/>
<circle cx="28" cy="38.75" r="3" fill="#1A1A1A"/>
</svg>
