<svg width="201" height="64" viewBox="0 0 201 64" fill="none" xmlns="http://www.w3.org/2000/svg">
<path d="M57.6689 0C57.0445 0 56.2952 0.25 55.5458 0.5L3.59249 24.5C-2.40212 27.25 -0.403918 36.125 5.96536 36.125H27.9456V58.125C27.9456 61.875 31.0678 64 34.0651 64C36.1882 64 38.4362 63 39.5602 60.5L63.5387 8.5C65.2871 4.375 61.7902 0 57.6689 0ZM59.9169 6.875L46.9578 34L35.9385 58.75C35.5638 59.625 34.9393 60.125 34.0651 60.125C33.3158 60.125 31.942 59.625 31.942 58.125V32H5.99462C4.99551 32 3.99641 31 3.99641 30C3.99641 29 4.99551 28 5.99462 28L46.9578 34L57.0445 4.25C57.2943 4.125 57.544 4 57.6689 4C58.4183 4 59.1676 4.5 59.6671 5.25C59.9169 5.625 60.1667 6.25 59.9169 6.875Z" fill="url(#paint0_linear_21411_112006)"/>
<path d="M89.195 53.576C87.019 53.576 85.0563 53.1493 83.307 52.296C81.6003 51.4427 80.2563 50.2907 79.275 48.84C78.2937 47.3893 77.803 45.7467 77.803 43.912C77.803 41.608 78.379 39.7947 79.531 38.472C80.7257 37.1067 82.667 36.1467 85.355 35.592C88.0856 34.9947 91.755 34.696 96.363 34.696H99.371V38.664H96.427C93.355 38.664 90.923 38.8133 89.131 39.112C87.339 39.4107 86.059 39.9227 85.291 40.648C84.5656 41.3307 84.203 42.2907 84.203 43.528C84.203 45.1493 84.7576 46.472 85.867 47.496C86.9763 48.4773 88.5123 48.968 90.475 48.968C92.0536 48.968 93.4403 48.6053 94.635 47.88C95.8296 47.112 96.7683 46.088 97.451 44.808C98.1763 43.528 98.539 42.056 98.539 40.392V33.032C98.539 30.6 98.027 28.8507 97.003 27.784C95.979 26.7174 94.2936 26.184 91.947 26.184C90.5816 26.184 89.1523 26.3547 87.659 26.696C86.2083 27.0374 84.6936 27.6134 83.115 28.424C82.3897 28.7654 81.771 28.872 81.259 28.744C80.747 28.616 80.3417 28.3387 80.043 27.912C79.7443 27.4427 79.5737 26.952 79.531 26.44C79.531 25.8854 79.659 25.352 79.915 24.84C80.2137 24.328 80.7043 23.944 81.387 23.688C83.2643 22.792 85.1203 22.152 86.955 21.768C88.7896 21.384 90.5176 21.192 92.139 21.192C94.9976 21.192 97.3443 21.64 99.179 22.536C101.056 23.432 102.443 24.7974 103.339 26.632C104.235 28.4667 104.683 30.8347 104.683 33.736V50.184C104.683 51.208 104.427 52.0187 103.915 52.616C103.403 53.1707 102.656 53.448 101.675 53.448C100.736 53.448 99.9896 53.1707 99.435 52.616C98.8803 52.0187 98.603 51.208 98.603 50.184V46.024H99.179C98.8376 47.6027 98.1976 48.968 97.259 50.12C96.363 51.2293 95.2323 52.0827 93.867 52.68C92.5016 53.2773 90.9443 53.576 89.195 53.576ZM116.786 53.448C115.762 53.448 114.973 53.1707 114.418 52.616C113.863 52.0187 113.586 51.208 113.586 50.184V10.696C113.586 9.62937 113.863 8.81871 114.418 8.26404C114.973 7.70937 115.762 7.43204 116.786 7.43204C117.81 7.43204 118.599 7.70937 119.154 8.26404C119.751 8.81871 120.05 9.62937 120.05 10.696V35.4H120.178L132.146 23.496C132.829 22.8134 133.447 22.28 134.002 21.896C134.557 21.512 135.282 21.32 136.178 21.32C137.074 21.32 137.757 21.5547 138.226 22.024C138.695 22.4934 138.93 23.0694 138.93 23.752C138.93 24.392 138.61 25.0534 137.97 25.736L125.298 38.28V35.272L139.122 49.032C139.805 49.7147 140.125 50.3973 140.082 51.08C140.039 51.7627 139.762 52.3387 139.25 52.808C138.738 53.2347 138.098 53.448 137.33 53.448C136.349 53.448 135.559 53.256 134.962 52.872C134.407 52.488 133.746 51.912 132.978 51.144L120.178 38.728H120.05V50.184C120.05 52.36 118.962 53.448 116.786 53.448ZM159.023 53.576C156.463 53.576 154.308 53.128 152.559 52.232C150.81 51.336 149.508 50.0133 148.655 48.264C147.802 46.5147 147.375 44.3813 147.375 41.864V26.76H143.535C142.682 26.76 142.02 26.5467 141.551 26.12C141.082 25.6507 140.847 25.032 140.847 24.264C140.847 23.4534 141.082 22.8347 141.551 22.408C142.02 21.9814 142.682 21.768 143.535 21.768H147.375V15.176C147.375 14.1094 147.652 13.2987 148.207 12.744C148.804 12.1894 149.615 11.912 150.639 11.912C151.663 11.912 152.452 12.1894 153.007 12.744C153.562 13.2987 153.839 14.1094 153.839 15.176V21.768H161.327C162.18 21.768 162.842 21.9814 163.311 22.408C163.78 22.8347 164.015 23.4534 164.015 24.264C164.015 25.032 163.78 25.6507 163.311 26.12C162.842 26.5467 162.18 26.76 161.327 26.76H153.839V41.352C153.839 43.6133 154.308 45.32 155.247 46.472C156.228 47.624 157.807 48.2 159.983 48.2C160.751 48.2 161.412 48.136 161.967 48.008C162.564 47.8373 163.055 47.7307 163.439 47.688C163.908 47.688 164.292 47.8587 164.591 48.2C164.89 48.4987 165.039 49.096 165.039 49.992C165.039 50.632 164.911 51.2293 164.655 51.784C164.442 52.3387 164.036 52.7013 163.439 52.872C162.927 53.0427 162.223 53.192 161.327 53.32C160.474 53.4907 159.706 53.576 159.023 53.576ZM182.341 53.576C179.184 53.576 176.453 52.9147 174.149 51.592C171.888 50.2693 170.117 48.392 168.837 45.96C167.557 43.528 166.917 40.6693 166.917 37.384C166.917 34.8667 167.28 32.6267 168.005 30.664C168.731 28.7014 169.755 27.016 171.077 25.608C172.443 24.1574 174.064 23.0694 175.941 22.344C177.861 21.576 179.995 21.192 182.341 21.192C185.456 21.192 188.144 21.8534 190.405 23.176C192.709 24.4987 194.501 26.376 195.781 28.808C197.061 31.1974 197.701 34.056 197.701 37.384C197.701 39.8587 197.339 42.0987 196.613 44.104C195.888 46.1093 194.843 47.816 193.477 49.224C192.155 50.632 190.533 51.72 188.613 52.488C186.736 53.2133 184.645 53.576 182.341 53.576ZM182.341 48.584C184.091 48.584 185.627 48.1573 186.949 47.304C188.272 46.4507 189.296 45.192 190.021 43.528C190.789 41.864 191.173 39.816 191.173 37.384C191.173 33.7147 190.363 30.9414 188.741 29.064C187.12 27.1867 184.987 26.248 182.341 26.248C180.549 26.248 178.992 26.6747 177.669 27.528C176.347 28.3387 175.301 29.576 174.533 31.24C173.808 32.904 173.445 34.952 173.445 37.384C173.445 41.0107 174.256 43.784 175.877 45.704C177.499 47.624 179.653 48.584 182.341 48.584Z" fill="#6200EA"/>
<defs>
<linearGradient id="paint0_linear_21411_112006" x1="63.9999" y1="3.0597e-06" x2="12.6666" y2="52" gradientUnits="userSpaceOnUse">
<stop stop-color="#D500F9"/>
<stop offset="0.5" stop-color="#6200EA"/>
<stop offset="1" stop-color="#2E006D"/>
</linearGradient>
</defs>
</svg>
