<svg width="166" height="48" viewBox="0 0 166 48" fill="none" xmlns="http://www.w3.org/2000/svg">
<path d="M7.95193 19.0303C10.3287 19.0303 12.3017 20.242 13.2409 21.5491V19.3521H16.8624V35.6584H14.2565C14.1204 35.659 13.9857 35.6329 13.8599 35.5817C13.7341 35.5306 13.6198 35.4553 13.5236 35.3602C13.4274 35.2652 13.3511 35.1523 13.2993 35.028C13.2474 34.9037 13.221 34.7705 13.2215 34.636V33.4615C12.3017 34.7877 10.3281 35.9994 7.95253 35.9994C3.42936 35.9994 0 32.1736 0 27.5149C0 22.8561 3.42997 19.0303 7.95193 19.0303ZM8.60372 22.288C5.67215 22.288 3.67917 24.5796 3.67917 27.5149C3.67917 30.4507 5.65275 32.7423 8.60372 32.7423C11.5353 32.7423 13.5283 30.4507 13.5283 27.5149C13.5283 24.5796 11.5547 22.288 8.60372 22.288ZM20.9824 19.3521H24.6228V21.5682C25.6196 19.9394 27.4967 19.0303 29.6431 19.0303C33.4751 19.0303 35.9477 21.7007 35.9477 25.8483V35.6584H33.3417C33.2057 35.659 33.0709 35.6329 32.9451 35.5817C32.8193 35.5306 32.705 35.4553 32.6088 35.3602C32.5126 35.2652 32.4364 35.1523 32.3845 35.028C32.3327 34.9037 32.3062 34.7705 32.3067 34.636V26.4356C32.3067 23.8599 30.9849 22.288 28.8767 22.288C26.4624 22.288 24.6228 24.1439 24.6228 27.6287V35.659H22.0168C21.8808 35.6595 21.746 35.6333 21.6202 35.5821C21.4945 35.5309 21.3802 35.4555 21.2841 35.3604C21.1879 35.2653 21.1118 35.1524 21.06 35.028C21.0082 34.9037 20.9818 34.7705 20.9824 34.636V19.3521ZM46.7736 19.0303C49.1504 19.0303 51.1233 20.242 52.0625 21.5491V11.2085H55.6841V35.6776H53.0781C52.942 35.6781 52.8072 35.6521 52.6814 35.6008C52.5555 35.5496 52.4412 35.4743 52.345 35.3792C52.2488 35.2841 52.1726 35.1711 52.1208 35.0468C52.069 34.9224 52.0426 34.7891 52.0431 34.6546V33.4806C51.1233 34.7871 49.131 35.9994 46.7548 35.9994C42.2328 35.9994 38.8028 32.1736 38.8028 27.5149C38.8216 22.8561 42.2516 19.0303 46.7736 19.0303ZM47.4254 22.288C44.4938 22.288 42.5008 24.5796 42.5008 27.5149C42.5008 30.4507 44.4744 32.7423 47.4254 32.7423C50.3569 32.7423 52.3499 30.4507 52.3499 27.5149C52.3499 24.5796 50.3569 22.288 47.4254 22.288ZM59.8041 19.3521H63.4256V22.2496C63.7433 21.3581 64.3314 20.5851 65.1098 20.036C65.8883 19.4869 66.8191 19.1884 67.7754 19.1813C68.2507 19.1807 68.7261 19.2251 69.193 19.3144V23.0071C68.6063 22.8117 67.9919 22.7095 67.3728 22.7045C65.284 22.7045 63.4062 24.428 63.4062 27.7042V35.6584H60.8002C60.6642 35.659 60.5294 35.6329 60.4036 35.5817C60.2779 35.5306 60.1636 35.4553 60.0674 35.3602C59.9711 35.2652 59.8949 35.1523 59.8431 35.028C59.7912 34.9037 59.7648 34.7705 59.7653 34.636V19.3521H59.8041ZM79.0039 36C74.1175 36 70.362 32.2497 70.362 27.5149C70.362 22.7806 74.1175 19.0303 79.0039 19.0303C83.8902 19.0303 87.6458 22.78 87.6458 27.5149C87.6458 32.2491 83.8902 36 79.0039 36ZM79.0039 32.6662C81.9167 32.6662 83.9478 30.4129 83.9478 27.5149C83.9478 24.6173 81.8973 22.3635 79.0039 22.3635C76.0723 22.3635 74.0217 24.6168 74.0217 27.5149C74.0217 30.4123 76.0723 32.6662 79.0039 32.6662ZM92.3976 15.7918C91.7535 15.7876 91.137 15.5328 90.6816 15.0825C90.2262 14.6323 89.9685 14.0229 89.9644 13.3863C89.9757 12.7536 90.2364 12.1503 90.6909 11.7046C91.1454 11.2589 91.758 11.0061 92.3982 11C93.0411 11 93.6576 11.2524 94.1122 11.7017C94.5668 12.1511 94.8222 12.7605 94.8222 13.3959C94.8222 14.0313 94.5668 14.6407 94.1122 15.0901C93.6576 15.5394 93.0411 15.7918 92.3982 15.7918M90.5974 19.3521H94.2183V35.6584H91.6318C91.4957 35.659 91.361 35.6329 91.2352 35.5817C91.1094 35.5306 90.9951 35.4553 90.8989 35.3602C90.8027 35.2652 90.7264 35.1523 90.6746 35.028C90.6227 34.9037 90.5963 34.7705 90.5968 34.636L90.5974 19.3521ZM105.16 19.0303C107.536 19.0303 109.509 20.242 110.448 21.5491V11.2085H114.07V35.6776H111.464C111.328 35.6781 111.193 35.6521 111.067 35.6008C110.941 35.5496 110.827 35.4743 110.731 35.3792C110.635 35.2841 110.558 35.1711 110.507 35.0468C110.455 34.9224 110.428 34.7891 110.429 34.6546V33.4806C109.509 34.7871 107.517 35.9994 105.141 35.9994C100.619 35.9994 97.1887 32.1736 97.1887 27.5149C97.2075 22.8561 100.637 19.0303 105.16 19.0303ZM105.831 22.288C102.898 22.288 100.906 24.5796 100.906 27.5149C100.906 30.4507 102.88 32.7423 105.831 32.7423C108.762 32.7423 110.755 30.4507 110.755 27.5149C110.755 24.5796 108.762 22.288 105.831 22.288Z" fill="black"/>
<path d="M154.138 29.5042C153.893 29.5085 153.651 29.4648 153.424 29.3754C153.196 29.286 152.99 29.1528 152.815 28.9835C152.641 28.8143 152.502 28.6124 152.408 28.3897C152.313 28.1669 152.265 27.9278 152.265 27.6863C152.265 27.4447 152.313 27.2056 152.408 26.9828C152.502 26.7601 152.641 26.5582 152.815 26.389C152.99 26.2197 153.196 26.0865 153.424 25.9971C153.651 25.9077 153.893 25.864 154.138 25.8683C154.62 25.877 155.079 26.0723 155.417 26.4123C155.755 26.7523 155.944 27.2098 155.944 27.6863C155.944 28.1628 155.755 28.6202 155.417 28.9602C155.079 29.3002 154.62 29.4955 154.138 29.5042ZM133.884 29.5042C133.64 29.5085 133.397 29.4648 133.17 29.3754C132.943 29.286 132.736 29.1528 132.562 28.9835C132.387 28.8143 132.249 28.6124 132.154 28.3897C132.06 28.1669 132.011 27.9278 132.011 27.6863C132.011 27.4447 132.06 27.2056 132.154 26.9828C132.249 26.7601 132.387 26.5582 132.562 26.389C132.736 26.2197 132.943 26.0865 133.17 25.9971C133.397 25.9077 133.64 25.864 133.884 25.8683C134.366 25.877 134.825 26.0723 135.163 26.4123C135.501 26.7523 135.69 27.2098 135.69 27.6863C135.69 28.1628 135.501 28.6202 135.163 28.9602C134.825 29.3002 134.366 29.4955 133.884 29.5042ZM154.789 18.5955L158.469 12.3271C158.518 12.2413 158.549 12.1468 158.561 12.049C158.574 11.9512 158.566 11.852 158.539 11.757C158.513 11.662 158.467 11.5732 158.406 11.4955C158.345 11.4179 158.268 11.353 158.182 11.3044C158.095 11.2559 157.999 11.2248 157.9 11.2128C157.801 11.2008 157.701 11.2082 157.605 11.2345C157.509 11.2609 157.419 11.3057 157.34 11.3663C157.262 11.427 157.196 11.5024 157.147 11.5882L153.429 17.9327C150.476 16.5992 147.267 15.9143 144.021 15.9252C140.771 15.9172 137.556 16.5951 134.593 17.9136L130.876 11.569C130.827 11.4832 130.761 11.4077 130.683 11.3469C130.604 11.2862 130.514 11.2413 130.418 11.2149C130.322 11.1885 130.221 11.1811 130.122 11.193C130.023 11.205 129.928 11.2361 129.841 11.2847C129.754 11.3332 129.678 11.3981 129.616 11.4758C129.555 11.5535 129.509 11.6424 129.483 11.7374C129.456 11.8324 129.448 11.9317 129.46 12.0296C129.473 12.1275 129.504 12.2221 129.553 12.3079L133.213 18.5764C130.049 20.2821 127.365 22.7411 125.404 25.7307C123.443 28.7203 122.268 32.146 121.984 35.6977H165.999C165.724 32.1486 164.554 28.724 162.596 25.7366C160.638 22.7493 157.954 20.2942 154.789 18.5955Z" fill="#3DDC84"/>
</svg>
