<svg width="121" height="40" viewBox="0 0 121 40" fill="none" xmlns="http://www.w3.org/2000/svg">
<g clip-path="url(#clip0_2608_32178)">
<path d="M27.4459 21.254C27.3972 16.1925 31.6186 13.7607 31.8085 13.6449C29.4324 10.2046 25.7417 9.73171 24.4271 9.67864C21.2866 9.36018 18.297 11.5122 16.7 11.5122C15.103 11.5122 12.6441 9.72206 10.0392 9.77514C6.61145 9.82339 3.45147 11.7486 1.68403 14.7884C-1.87034 20.897 0.778396 29.9681 4.24999 34.9332C5.94926 37.3602 7.96503 40.096 10.6235 39.9947C13.1846 39.8934 14.1486 38.3542 17.2356 38.3542C20.3225 38.3542 21.1941 39.9947 23.8964 39.9464C26.6473 39.8934 28.3904 37.4663 30.0751 35.0297C32.013 32.207 32.8164 29.4808 32.865 29.3361C32.8017 29.3119 27.5043 27.2999 27.4459 21.254Z" fill="black"/>
<path d="M22.3687 6.38842C23.7808 4.69481 24.7302 2.34499 24.4722 0C22.4418 0.0820265 19.9829 1.34138 18.5271 3.03498C17.2222 4.53076 16.078 6.92401 16.3896 9.22075C18.644 9.39445 20.9616 8.0772 22.3687 6.38842ZM45.253 26.2292L42.9159 33.2497H39.9117L47.5609 10.9385H51.0666L58.745 33.2497H55.6386L53.2333 26.2292H45.253ZM52.6344 23.9759L50.4336 17.5537C49.9321 16.0965 49.601 14.7744 49.2651 13.4813H49.2018C48.8658 14.8034 48.5006 16.1592 48.0673 17.5199L45.8665 23.971L52.6344 23.9759ZM61.0237 22.456C61.0237 20.4053 60.9604 18.7455 60.8873 17.2256H63.5263L63.6627 19.9759H63.726C64.9286 18.0217 66.8324 16.8637 69.4714 16.8637C73.3812 16.8637 76.3172 20.1399 76.3172 25.0084C76.3172 30.7696 72.7774 33.6116 68.9699 33.6116C66.8324 33.6116 64.9627 32.6852 63.9938 31.0977H63.9305V39.8022H61.0237V22.456V22.456ZM63.9256 26.7262C63.9256 27.1604 63.9889 27.5513 64.0619 27.918C64.5975 29.9349 66.365 31.3293 68.4732 31.3293C71.5796 31.3293 73.386 28.8154 73.386 25.1387C73.386 21.9252 71.6819 19.1846 68.5755 19.1846C66.5743 19.1846 64.7046 20.608 64.1301 22.7937C64.0278 23.1556 63.9305 23.5899 63.9305 23.9855L63.9256 26.7262ZM79.3554 22.456C79.3554 20.4053 79.2921 18.7455 79.2191 17.2256H81.8581L81.9944 19.9759H82.0577C83.2604 18.0217 85.1641 16.8637 87.8031 16.8637C91.7129 16.8637 94.6489 20.1399 94.6489 25.0084C94.6489 30.7696 91.1092 33.6116 87.3016 33.6116C85.1641 33.6116 83.2944 32.6852 82.3255 31.0977H82.2622V39.8022H79.3554V22.456V22.456ZM82.2622 26.7262C82.2622 27.1604 82.3255 27.5513 82.3985 27.918C82.9341 29.9349 84.7016 31.3293 86.8099 31.3293C89.9163 31.3293 91.7227 28.8154 91.7227 25.1387C91.7227 21.9252 90.0185 19.1846 86.9121 19.1846C84.9109 19.1846 83.0413 20.608 82.4667 22.7937C82.3645 23.1556 82.2671 23.5899 82.2671 23.9855L82.2622 26.7262ZM97.692 9.74668H100.633V33.2449H97.692V9.74668ZM106.544 25.766C106.607 29.7033 109.149 31.3293 112.085 31.3293C114.188 31.3293 115.459 30.9674 116.559 30.5042L117.061 32.5887C116.029 33.0519 114.256 33.5826 111.686 33.5826C106.709 33.5826 103.734 30.3402 103.734 25.5054C103.734 20.6707 106.607 16.8637 111.315 16.8637C116.593 16.8637 117.996 21.462 117.996 24.4101C117.996 25.0084 117.932 25.4668 117.893 25.766H106.544ZM115.162 23.6815C115.196 21.8287 114.393 18.9481 111.087 18.9481C108.112 18.9481 106.812 21.6647 106.578 23.6815H115.162V23.6815Z" fill="black"/>
</g>
<defs>
<clipPath id="clip0_2608_32178">
<rect width="121" height="40" fill="white"/>
</clipPath>
</defs>
</svg>
