<svg width="150" height="32" viewBox="0 0 150 32" fill="none" xmlns="http://www.w3.org/2000/svg">
<path d="M19.5572 6.17033L19.6048 6.26644L27.6047 22.2657C27.8575 22.79 27.9995 23.3784 27.9995 24.0001C27.9995 26.2094 26.2089 28 23.9996 28C22.4804 28 21.1595 27.1536 20.4824 25.9067L20.4737 25.8903C20.4369 25.8232 20.4036 25.7552 20.3716 25.6859L20.3707 25.6838L12.4631 9.86979L12.4592 9.862C12.4367 9.82001 12.4146 9.77714 12.3942 9.73385L12.3864 9.7174C12.1384 9.19701 11.9994 8.61514 11.9994 8.00036C11.9994 6.46646 12.8622 5.13473 14.1286 4.46411C14.1823 4.4351 14.2364 4.40783 14.2909 4.38315L14.2966 4.38012C14.8131 4.13681 15.3902 4 15.9998 4C17.5497 3.99957 18.8935 4.88146 19.5572 6.17033Z" fill="#00BABA"/>
<path d="M11.9999 23.9994C11.9999 26.2087 10.2088 27.9994 7.99993 27.9994C5.79064 27.9994 4 26.2087 4 23.9994C4 21.7902 5.79064 19.9995 7.99993 19.9995C10.2088 19.9995 11.9999 21.7906 11.9999 23.9994Z" fill="#00BABA"/>
<path d="M90.0177 11.9975H87.4431C85.3923 11.9975 84.3745 13.1757 84.3745 15.5495V22.8787H86.3878V13.8861H90.0177C91.2451 13.8861 91.8439 14.5792 91.8439 16V22.8874H93.8572V16.4418C93.8572 13.4703 92.5848 11.9975 90.0177 11.9975ZM108.684 9V22.8874H110.794V9H108.684ZM120.008 11.9975H117.702C114.881 11.9975 113.481 13.6176 113.481 16.8837V18.1052C113.481 21.3713 114.881 22.9913 117.702 22.9913H120.008C122.829 22.9913 124.229 21.3713 124.229 18.1052V16.8923C124.229 13.6262 122.829 11.9975 120.008 11.9975ZM122.118 18.7809C122.118 20.271 121.482 20.9988 120.202 20.9988H117.515C116.228 20.9988 115.599 20.2624 115.599 18.7809V16.2252C115.599 14.7351 116.235 14.0074 117.515 14.0074H120.202C121.489 14.0074 122.118 14.7438 122.118 16.2252V18.7809ZM134.4 11.9975V20.9988H130.852C129.625 20.9988 129.026 20.3057 129.026 18.8849V11.9975H126.916V18.547C126.916 21.5272 128.18 22.9913 130.755 22.9913H133.442C135.493 22.9913 136.511 21.8131 136.511 19.4394V11.9975H134.4ZM147.453 9V11.9975H143.419C140.575 11.9975 139.197 13.6002 139.197 16.8837V18.1052C139.197 21.3973 140.582 22.9913 143.419 22.9913H146.487C148.538 22.9913 149.556 21.8131 149.556 19.4394V9H147.453ZM147.453 20.9988H143.232C141.944 20.9988 141.316 20.2624 141.316 18.7809V16.2252C141.316 14.7351 141.952 14.0074 143.232 14.0074H147.453V20.9988ZM68.5974 11.9975L66.2548 21.1027H65.1022L62.8345 11.9975H60.7239L63.2386 21.6139C63.4706 22.4542 63.9496 22.8787 64.7205 22.8787H66.6365C67.4074 22.8787 67.9014 22.4542 68.1334 21.6139L70.708 11.9975H68.5974ZM56.2931 11.9975C53.7185 11.9975 52.4536 13.4616 52.4536 16.4418V22.8874H54.4669V15.8874C54.4669 14.5532 55.0432 13.8861 56.1958 13.8861H59.2869V11.9975H56.2931ZM46.309 11.9975H41.1298V13.8861H46.1218C47.2146 13.8861 47.7534 14.5099 47.7534 15.7748V16.0606H43.0682C41.0175 16.0606 39.9996 17.2389 39.9996 19.6126C39.9996 21.8998 40.9427 22.9913 42.8587 22.9913H46.9826C48.8462 22.9913 49.7667 21.9257 49.7667 19.7686V16C49.7667 13.3144 48.6366 11.9975 46.309 11.9975ZM47.7534 21.1114H42.8736C42.2973 21.1114 42.0129 20.7822 42.0129 20.1151V18.9629C42.0129 18.2958 42.2973 17.9666 42.8736 17.9666H47.746V21.1114H47.7534ZM101.005 20.9988C99.5827 20.9988 98.8942 20.2017 98.8942 18.5557V16.6671C98.8942 14.8911 99.665 13.9988 101.199 13.9988H102.232C102.808 13.9988 103.864 14.0248 105.727 14.1807L105.877 12.1795C103.961 12.0235 102.898 12.0062 102.232 12.0062H101.386C98.2954 12.0062 96.7761 13.7649 96.7761 17.3342V18.0012C96.7761 21.354 98.1981 23 101.095 23H106.184V20.9988H101.005Z" fill="#253343"/>
<path d="M78.229 11.998H73.0498V13.8867H78.0419C79.1346 13.8867 79.6735 14.5104 79.6735 15.7753V16.0612H74.9883C72.9376 16.0612 71.9197 17.2394 71.9197 19.6131C71.9197 21.9003 72.8627 22.9919 74.7787 22.9919H78.9026C80.7662 22.9919 81.6868 21.9263 81.6868 19.7691V16.0005C81.6868 13.3149 80.5492 11.998 78.229 11.998ZM79.666 21.1119H74.7937C74.2174 21.1119 73.933 20.7827 73.933 20.1156V18.9634C73.933 18.2963 74.2174 17.9671 74.7937 17.9671H79.666V21.1119Z" fill="#253343"/>
</svg>
