<svg version="1.2" xmlns="http://www.w3.org/2000/svg" viewBox="0 0 260 48" width="260" height="48">
	<title>attribute</title>
	<style>
		.s0 { fill: #004742 } 
		.s1 { fill: #e6ff75 } 
	</style>
	<path fill-rule="evenodd" class="s0" d="m52.6 35.8h3.4v5.6h-4.6q-3.3 0-5.8-1.3-2.4-1.3-3.7-3.7-1.3-2.4-1.3-5.8v-14.2h-5.4v-1.1l10.6-11.3h1v7.1h9v5.3h-8.9v13.7q0 2.7 1.4 4.2 1.5 1.5 4.3 1.5zm24.7 0h3.4v5.6h-4.6q-3.3 0-5.7-1.3-2.4-1.3-3.7-3.7-1.3-2.4-1.3-5.8v-14.2h-5.5v-1.1l10.6-11.3h1.1v7.1h9v5.3h-9v13.7q0 2.7 1.5 4.2 1.5 1.5 4.2 1.5zm28.5-24.9v5.9h-3.3q-7.7 0-7.7 8.5v16.1h-6.3v-30.3h4.2l1.1 4.2q3.3-4.4 9.3-4.4zm12.9-10.9v6.4h-6.5v-6.4zm-0.1 11.1v30.3h-6.2v-30.3zm26.8-0.7q6.8 0 11.3 4.5 4.5 4.5 4.5 11.4 0 6.8-4.5 11.4-4.5 4.5-11.3 4.5-6.4 0-10.8-4.2l-0.8 3.4h-4.7v-41.2h6.2v13.7q4.3-3.5 10.1-3.5zm-7.7 22.9q2.9 2.9 7.2 2.9 4.2 0 7-2.8 2.8-2.9 2.8-7.1 0-4.3-2.8-7.1-2.8-2.9-7-2.9-2.9 0-5.2 1.3-2.2 1.3-3.5 3.6-1.3 2.3-1.3 5.1 0 4.2 2.8 7zm45.1 8.9q-6.2 0-10-3.7-3.7-3.8-3.7-9.9v-17.5h6.2v16.6q0 4 2 6.3 2.1 2.2 5.5 2.2c2.4 0 4.3-0.7 5.6-2.2q2-2.3 2-6.3v-16.6h6.3v17.5q0 6.1-3.8 9.9-3.8 3.7-10.1 3.7zm37.5-6.4h3.4v5.6h-4.6q-3.3 0-5.7-1.3-2.5-1.3-3.7-3.7-1.3-2.4-1.3-5.8v-14.2h-5.5v-1.1l10.6-11.3h1v7.1h9v5.3h-8.9v13.7q0 2.7 1.5 4.2 1.4 1.5 4.2 1.5zm39.7-9.5q0 0.9-0.1 2.1h-24.6q0.5 3.7 3 5.8 2.5 2.1 6.2 2.1 1.8 0 3.4-0.5 1.6-0.5 2.8-1.5 1.2-1 2-2.4h6.6q-1.8 4.8-5.8 7.6-3.9 2.7-9 2.7-6.7 0-11.2-4.6-4.4-4.5-4.4-11.3 0-6.8 4.4-11.4 4.5-4.5 11.2-4.5 4.6 0 8.1 2.2 3.6 2.1 5.5 5.8 1.9 3.5 1.9 7.9zm-15.5-10.3q-3.5 0-5.9 2-2.4 1.9-3.2 5.4h18.4q-0.6-2.3-1.9-4-1.3-1.7-3.2-2.5-1.9-0.9-4.2-0.9z"/>
	<path fill-rule="evenodd" class="s0" d="m15.4 41.4c-8.5 0-15.4-6.9-15.4-15.4 0-8.5 6.9-15.4 15.4-15.4 8.5 0 15.5 6.9 15.5 15.4v15.4zm0-24.9c-5.3 0-9.6 4.3-9.6 9.5 0 5.3 4.3 9.5 9.6 9.5h9.5v-9.5c0-5.2-4.3-9.5-9.5-9.5z"/>
	<path class="s1" d="m37.4 41.4v6.5h-6.5v-6.5z"/>
</svg>