<svg width="1355" height="558" viewBox="0 0 1355 558" fill="none" xmlns="http://www.w3.org/2000/svg">
<g clip-path="url(#clip0_182_1341)">
<path fill-rule="evenodd" clip-rule="evenodd" d="M288.828 76.373C367.556 80.3174 434.434 129.198 464.304 197.871L465.003 199.497C447.441 229.848 426.123 257.319 402.8 281.948V324.226C430.332 298.294 455.876 268.981 476.624 236.424C479.491 249.984 480.999 264.046 480.999 278.459C480.999 390.21 390.347 480.803 278.522 480.803C245.75 480.803 214.796 473.022 187.41 459.208C214.692 449.375 257.254 429.687 303.166 400.723C273.824 404.615 253.375 401.346 246.818 399.225C210.675 418.695 178.236 431.951 155.425 439.126C162.903 444.857 170.793 450.078 179.043 454.737C170.793 450.078 162.902 444.857 155.423 439.126C130.393 419.945 109.975 395.055 96.1172 366.403C91.5001 356.857 87.6109 346.893 84.5225 336.584C79.0073 318.174 76.0449 298.662 76.0449 278.459C76.045 173.759 155.618 87.6316 257.625 77.1797C257.648 77.1773 257.672 77.1752 257.695 77.1729C257.673 77.1752 257.65 77.1774 257.627 77.1797C252.208 97.9305 239.51 130.562 219.595 167.618C232.863 159.733 252.017 155.923 259.935 155.004C271.849 129.889 281.843 103.528 288.828 76.373ZM278.5 168.977C217.692 168.977 168.397 218.239 168.396 279.008C168.396 339.776 217.691 389.039 278.5 389.039C303.949 389.039 327.383 380.41 346.029 365.921V367.752C346.029 379.509 355.56 389.039 367.316 389.039C379.073 389.039 388.604 379.509 388.604 367.752V279.008C388.604 218.239 339.309 168.977 278.5 168.977ZM153.741 266.471C133.516 291.209 110.439 315.204 84.5244 336.584C87.6128 346.893 91.5021 356.857 96.1191 366.403C111.8 353.604 133.271 333.448 156.414 307.646C152.608 289.328 153.046 272.563 153.741 266.471Z" fill="#0A0A0A"/>
<ellipse cx="278.545" cy="278.45" rx="72.2417" ry="72.1941" fill="#80CB51"/>
</g>
<g clip-path="url(#clip1_182_1341)">
<path d="M557.032 278.849C557.032 260.097 563.304 243.428 576.113 228.843C588.922 214.248 605.914 206.961 626.551 206.961C634.137 206.961 642.24 208.78 650.864 212.693C659.752 216.332 666.808 222.063 672.031 229.879V209.563H702.871V348.11H672.031V327.553C667.062 335.623 659.752 341.356 650.6 345.259C641.455 348.906 633.088 350.726 625.766 350.726C606.169 350.726 589.703 343.693 576.643 329.372C563.569 315.051 557.032 298.119 557.032 278.849ZM627.569 234.83C615.29 234.83 605.099 238.997 597.258 247.595C589.675 256.183 585.754 266.601 585.754 278.849C585.754 291.086 589.675 301.503 597.258 310.102C605.099 318.436 615.29 322.603 627.569 322.603C639.858 322.603 650.049 318.436 657.625 310.102C665.463 301.503 669.384 291.086 669.384 278.849C669.384 266.601 665.463 256.183 657.625 247.595C649.784 238.997 639.858 234.83 627.569 234.83Z" fill="#0A0A0A"/>
<path d="M734.714 209.564H765.806V286.638C765.806 307.474 776.01 321.276 796.646 321.276C816.257 321.276 828.798 307.22 828.798 286.12V209.564H859.893V348.111H829.582V329.092C818.862 343.422 804.752 350.709 786.985 350.709C753.265 350.709 734.714 327.537 734.714 294.189V209.564Z" fill="#0A0A0A"/>
<path d="M967.411 206.924V238.406C964.799 237.881 961.937 237.614 958.543 237.614C934.817 237.614 922.306 251.582 922.306 276.076V348.883H891.277V208.739H921.524V229.186C930.125 213.388 942.903 206.133 959.843 206.133C963.235 206.133 965.582 206.4 967.411 206.924Z" fill="#0A0A0A"/>
<path d="M984.104 209.564H1017.81L1058.85 311.908L1099.87 209.564H1132.55L1074.27 348.111H1043.16L984.104 209.564Z" fill="#0A0A0A"/>
<path d="M1132.57 278.849C1132.57 260.097 1138.84 243.428 1151.65 228.843C1164.46 214.248 1181.44 206.961 1202.09 206.961C1209.66 206.961 1217.77 208.78 1226.39 212.693C1235.28 216.332 1242.34 222.064 1247.57 229.88V209.563H1278.41V348.141H1247.57V327.553C1242.6 335.623 1235.28 341.356 1226.14 345.257C1216.98 348.906 1208.63 350.727 1201.31 350.727C1181.71 350.727 1165.24 343.694 1152.17 329.372C1139.11 315.051 1132.57 298.119 1132.57 278.849ZM1203.11 234.83C1190.82 234.83 1180.63 238.997 1172.79 247.595C1165.21 256.183 1161.29 266.601 1161.29 278.849C1161.29 291.086 1168.11 301.503 1175.69 310.102C1183.54 318.436 1190.82 322.603 1203.11 322.603C1215.38 322.603 1225.58 318.436 1233.16 310.102C1241 301.503 1244.92 291.086 1244.92 278.849C1244.92 266.601 1241 256.183 1233.16 247.595C1225.32 238.997 1215.38 234.83 1203.11 234.83Z" fill="#0A0A0A"/>
</g>
<defs>
<clipPath id="clip0_182_1341">
<rect width="404.774" height="404.774" fill="white" transform="translate(76.1338 76.1328)"/>
</clipPath>
<clipPath id="clip1_182_1341">
<rect width="721.495" height="404.774" fill="white" transform="translate(557.041 76.1328)"/>
</clipPath>
</defs>
</svg>
