<svg width="175" height="40" viewBox="0 0 175 40" fill="none" xmlns="http://www.w3.org/2000/svg">
<path d="M0 6.17871L5.31424 7.7131V28.9584L0 30.4928V6.17871Z" fill="#3259B4"/>
<path d="M8.38281 17.0386L13.579 18.3369V29.7858L8.38281 30.8481V17.0386Z" fill="#3C8CFF"/>
<path d="M17.2402 14.7959L22.0821 13.4976V27.5431L17.2402 26.1267V14.7959Z" fill="#00C8D2"/>
<path d="M25.2734 4.99902L30.5877 6.53341V30.3754L25.2734 31.6737V4.99902Z" fill="#78E6DD"/>
<path d="M161.856 21.0704H171.232C171.075 19.8846 170.568 18.9238 169.711 18.1881C168.854 17.4524 167.814 17.0845 166.59 17.0845C165.348 17.0845 164.282 17.4611 163.39 18.2141C162.507 18.9585 161.995 19.9106 161.856 21.0704ZM161.856 23.0439C161.943 24.3249 162.45 25.3635 163.377 26.1599C164.312 26.9562 165.488 27.3543 166.905 27.3543C167.814 27.3543 168.662 27.1639 169.449 26.7831C170.236 26.4022 170.957 25.8396 171.613 25.0952L173.409 26.5234C172.509 27.5621 171.521 28.3281 170.445 28.8214C169.379 29.3148 168.172 29.5615 166.826 29.5615C165.716 29.5615 164.68 29.3624 163.718 28.9642C162.756 28.5661 161.93 27.9992 161.239 27.2634C160.636 26.6143 160.173 25.8656 159.849 25.0173C159.526 24.1604 159.364 23.2646 159.364 22.3298C159.364 20.114 160.033 18.3223 161.37 16.9547C162.708 15.5871 164.457 14.9033 166.616 14.9033C168.819 14.9033 170.598 15.6347 171.954 17.0975C173.317 18.5517 173.999 20.4732 173.999 22.8621V23.0439H161.856ZM156.357 18.4997C155.923 18.015 155.426 17.6601 154.867 17.4351C154.318 17.2014 153.688 17.0845 152.979 17.0845C151.605 17.0845 150.474 17.5692 149.587 18.5387C148.71 19.4994 148.271 20.7328 148.271 22.2389C148.271 23.745 148.705 24.974 149.574 25.9262C150.452 26.8783 151.587 27.3543 152.979 27.3543C153.733 27.3543 154.398 27.2245 154.974 26.9648C155.559 26.7052 156.056 26.32 156.463 25.8093L158.099 27.6399C157.354 28.3064 156.57 28.7955 155.745 29.1071C154.93 29.41 154.007 29.5615 152.979 29.5615C151.924 29.5615 150.948 29.3884 150.053 29.0421C149.157 28.6959 148.382 28.1939 147.726 27.5361C147.025 26.8436 146.493 26.0517 146.13 25.1601C145.775 24.26 145.598 23.2862 145.598 22.2389C145.598 21.1916 145.775 20.2178 146.13 19.3177C146.493 18.4175 147.025 17.6212 147.726 16.9287C148.391 16.2623 149.166 15.7602 150.053 15.4227C150.94 15.0765 151.915 14.9033 152.979 14.9033C153.99 14.9033 154.903 15.0505 155.719 15.3448C156.543 15.6391 157.292 16.0848 157.966 16.6821L156.357 18.4997ZM132.143 29.2109V15.2539H134.633V16.8508C135.26 16.219 135.917 15.7516 136.606 15.4486C137.303 15.137 138.049 14.9812 138.844 14.9812C140.477 14.9812 141.766 15.5265 142.71 16.6171C143.655 17.7077 144.127 19.2095 144.127 21.1223V29.2109H141.611V21.369C141.611 19.9062 141.351 18.8373 140.83 18.1622C140.318 17.4784 139.51 17.1365 138.407 17.1365C137.153 17.1365 136.209 17.5 135.573 18.2271C134.946 18.9455 134.633 20.0274 134.633 21.4729V29.2109H132.143ZM122.566 27.2634C123.97 27.2634 125.124 26.7917 126.028 25.8483C126.932 24.9048 127.384 23.693 127.384 22.2129C127.384 20.7415 126.932 19.5341 126.028 18.5906C125.124 17.6385 123.97 17.1624 122.566 17.1624C121.163 17.1624 120.009 17.6342 119.105 18.5776C118.201 19.5211 117.749 20.7328 117.749 22.2129C117.749 23.7017 118.201 24.9178 119.105 25.8612C120.009 26.796 121.163 27.2634 122.566 27.2634ZM129.709 29.2109H127.255V26.9259C126.669 27.7481 125.955 28.367 125.111 28.7825C124.276 29.1893 123.315 29.3927 122.231 29.3927C121.266 29.3927 120.345 29.2109 119.466 28.8474C118.597 28.4752 117.822 27.9386 117.142 27.2375C116.496 26.5623 116.009 25.8007 115.682 24.9524C115.355 24.1042 115.191 23.1824 115.191 22.187C115.191 20.0317 115.833 18.292 117.116 16.9677C118.407 15.6434 120.112 14.9812 122.231 14.9812C123.298 14.9812 124.276 15.202 125.162 15.6434C126.049 16.0762 126.807 16.708 127.436 17.539V15.2539H129.709V29.2109ZM100.637 11.294V26.822H102.568C105.384 26.822 107.504 26.1685 108.929 24.8615C110.363 23.5545 111.079 21.62 111.079 19.058C111.079 16.4873 110.363 14.5528 108.929 13.2545C107.504 11.9475 105.384 11.294 102.568 11.294H100.637ZM102.169 8.89209C105.946 8.89209 108.817 9.75764 110.783 11.4887C112.757 13.2112 113.745 15.7343 113.745 19.058C113.745 22.3731 112.757 24.8962 110.783 26.6273C108.817 28.3497 105.946 29.2109 102.169 29.2109H97.9972V8.89209H102.169ZM82.3137 21.0704H91.539C91.3842 19.8846 90.8853 18.9238 90.0423 18.1881C89.1994 17.4524 88.1758 17.0845 86.9715 17.0845C85.7501 17.0845 84.7007 17.4611 83.8233 18.2141C82.9545 18.9585 82.4513 19.9106 82.3137 21.0704ZM82.3137 23.0439C82.3997 24.3249 82.8986 25.3635 83.8104 26.1599C84.7308 26.9562 85.8877 27.3543 87.2812 27.3543C88.1758 27.3543 89.0101 27.1639 89.7843 26.7831C90.5584 26.4022 91.2681 25.8396 91.9132 25.0952L93.6808 26.5234C92.7949 27.5621 91.8229 28.3281 90.7649 28.8214C89.7155 29.3148 88.5284 29.5615 87.2038 29.5615C86.1114 29.5615 85.0921 29.3624 84.1459 28.9642C83.1997 28.5661 82.3868 27.9992 81.7073 27.2634C81.1138 26.6143 80.6579 25.8656 80.3396 25.0173C80.0214 24.1604 79.8622 23.2646 79.8622 22.3298C79.8622 20.114 80.5203 18.3223 81.8363 16.9547C83.1524 15.5871 84.8727 14.9033 86.9973 14.9033C89.165 14.9033 90.9154 15.6347 92.2487 17.0975C93.5905 18.5517 94.2615 20.4732 94.2615 22.8621V23.0439H82.3137ZM72.9938 11.8523V15.2539H70.906H68.1148L64.362 24.0826C64.2997 24.2298 64.1795 24.5585 64.0014 25.0692C63.8323 25.5712 63.6232 26.1902 63.3739 26.9259C63.1513 26.1469 62.9598 25.5106 62.7996 25.0172C62.6482 24.5239 62.5413 24.2124 62.479 24.0826L58.7797 15.2539H55.9352L61.9315 29.2109L59.4074 35.0015H61.9849L70.0075 17.2426L72.9938 17.3312V26.3156C72.9938 27.4841 73.2949 28.3193 73.8971 28.8213C74.4992 29.3147 75.5111 29.5614 76.9326 29.5614H78.5171V27.2115H77.0363C76.6118 27.2115 76.3009 27.1163 76.1035 26.9259C75.9159 26.7355 75.822 26.4325 75.822 26.017V17.3312H78.5171V15.2539H75.822V11.8523H72.9938ZM40.6309 29.2109V8.89209H44.5696C46.0898 8.89209 47.2892 8.96133 48.1678 9.09982C49.0562 9.22965 49.7916 9.44604 50.3741 9.74899C51.3711 10.2683 52.1262 10.9261 52.6396 11.7224C53.1628 12.5101 53.4244 13.4016 53.4244 14.397C53.4244 15.2193 53.1825 15.9723 52.6988 16.6561C52.225 17.3399 51.5488 17.8982 50.6702 18.3309C52.1114 18.7464 53.2022 19.3956 53.9426 20.2784C54.6928 21.1526 55.068 22.2346 55.068 23.5242C55.068 25.1255 54.3473 26.4758 52.9061 27.575C51.4747 28.6656 49.688 29.2109 47.5459 29.2109H40.6309ZM43.6367 17.6428H46.1244C47.5064 17.6428 48.5725 17.3615 49.3227 16.7989C50.0828 16.2363 50.4629 15.4443 50.4629 14.423C50.4629 13.3497 50.0828 12.5404 49.3227 11.9951C48.5626 11.4498 47.4274 11.1771 45.9171 11.1771H43.6367V17.6428ZM43.6367 26.822H46.7018C48.4294 26.822 49.7373 26.532 50.6258 25.9521C51.5241 25.3722 51.9732 24.5153 51.9732 23.3814C51.9732 22.2649 51.5389 21.421 50.6702 20.8497C49.8015 20.2698 48.5182 19.9798 46.8203 19.9798H43.6367V26.822Z" fill="#3259B4"/>
</svg>
