<svg width="139" height="29" viewBox="0 0 139 29" fill="none" xmlns="http://www.w3.org/2000/svg">
<g clip-path="url(#clip0_741_8199)">
<path fill-rule="evenodd" clip-rule="evenodd" d="M87.3079 23.5625C85.084 23.5625 83.3844 22.9299 82.2094 21.6641C80.633 20.1115 79.8447 17.8742 79.8447 14.9529C79.8447 11.9731 80.633 9.73583 82.2094 8.24217C83.3844 6.97639 85.084 6.34375 87.3079 6.34375C89.5317 6.34375 91.2308 6.97639 92.4063 8.24217C93.9756 9.73583 94.76 11.9731 94.76 14.9529C94.76 17.8742 93.9756 20.1115 92.4063 21.6641C91.2308 22.9299 89.5317 23.5625 87.3079 23.5625ZM90.3794 19.1915C91.1321 18.198 91.5088 16.7853 91.5088 14.9529C91.5088 13.1284 91.1288 11.7192 90.3688 10.7258C89.616 9.72484 88.5954 9.22462 87.3079 9.22462C86.0198 9.22462 84.9925 9.72134 84.2253 10.7148C83.4587 11.7082 83.0748 13.1209 83.0748 14.9529C83.0748 16.7853 83.4587 18.198 84.2253 19.1915C84.9925 20.1849 86.0198 20.6816 87.3079 20.6816C88.5954 20.6816 89.6194 20.1849 90.3794 19.1915Z" fill="black"/>
<path fill-rule="evenodd" clip-rule="evenodd" d="M103.643 17.2604H100.339V23.1106H97.1094V6.84082H103.886C105.448 6.84082 106.694 7.26008 107.622 8.09911C108.551 8.93813 109.016 10.2369 109.016 11.9954C109.016 13.9158 108.551 15.2735 107.622 16.0686C106.694 16.8631 105.367 17.2604 103.643 17.2604ZM105.163 13.8718C105.585 13.4821 105.797 12.8639 105.797 12.0174C105.797 11.1714 105.582 10.5677 105.153 10.2074C104.73 9.84662 104.136 9.66672 103.369 9.66672H100.339V14.457H103.369C104.136 14.457 104.734 14.2616 105.163 13.8718Z" fill="black"/>
<path fill-rule="evenodd" clip-rule="evenodd" d="M120.442 16.8402V6.83984H123.746V16.8402C123.746 18.5697 123.489 19.9159 122.976 20.8799C122.019 22.6459 120.193 23.5289 117.497 23.5289C114.802 23.5289 112.973 22.6459 112.008 20.8799C111.495 19.9159 111.237 18.5697 111.237 16.8402V6.83984H114.542V16.8402C114.542 17.9585 114.668 18.7756 114.921 19.2908C115.316 20.2033 116.174 20.659 117.497 20.659C118.813 20.659 119.668 20.2033 120.063 19.2908C120.316 18.7756 120.442 17.9585 120.442 16.8402Z" fill="black"/>
<path fill-rule="evenodd" clip-rule="evenodd" d="M132.291 20.7586C133.058 20.7586 133.681 20.6701 134.159 20.4937C135.067 20.1549 135.521 19.5258 135.521 18.6063C135.521 18.0691 135.295 17.6533 134.845 17.359C134.395 17.0722 133.688 16.8183 132.724 16.5974L131.077 16.2112C129.458 15.8284 128.34 15.4126 127.721 14.9639C126.672 14.2133 126.148 13.0395 126.148 11.4429C126.148 9.98568 126.655 8.77537 127.668 7.81142C128.681 6.84746 130.169 6.36523 132.132 6.36523C133.772 6.36523 135.169 6.82148 136.324 7.73396C137.485 8.63895 138.093 9.9562 138.149 11.6857H135.025C134.969 10.7068 134.561 10.0117 133.8 9.5994C133.293 9.32706 132.664 9.19113 131.911 9.19113C131.074 9.19113 130.405 9.36753 129.906 9.72083C129.405 10.0741 129.156 10.5674 129.156 11.2C129.156 11.7812 129.403 12.2154 129.895 12.5023C130.211 12.6937 130.887 12.918 131.922 13.1759L134.603 13.849C135.777 14.1433 136.664 14.5371 137.263 15.0298C138.192 15.7954 138.656 16.9028 138.656 18.3524C138.656 19.8386 138.111 21.0749 137.02 22.0608C135.937 23.0398 134.403 23.529 132.418 23.529C130.391 23.529 128.797 23.0468 127.636 22.0833C126.474 21.1119 125.895 19.7796 125.895 18.0876H128.998C129.095 18.8307 129.289 19.3864 129.578 19.7542C130.106 20.4238 131.01 20.7586 132.291 20.7586Z" fill="black"/>
<path fill-rule="evenodd" clip-rule="evenodd" d="M77.6017 23.1096H74.3506L68.4955 12.4617L68.2861 6.83984L69.9177 9.66574L74.5724 18.1979V6.83984H77.6017V23.1096Z" fill="black"/>
<path fill-rule="evenodd" clip-rule="evenodd" d="M45.1847 21.8955C44.0237 23.0069 42.5388 23.5621 40.7304 23.5621C38.4921 23.5621 36.7331 22.8115 35.4523 21.3104C34.1714 19.8022 33.5312 17.7344 33.5312 15.1074C33.5312 12.267 34.2596 10.0777 35.7163 8.54011C36.9827 7.20087 38.5942 6.53125 40.5507 6.53125C43.1684 6.53125 45.0827 7.42874 46.2931 9.22423C46.9615 10.2322 47.3204 11.2441 47.3698 12.2595H44.1186C43.9073 11.4794 43.6365 10.8908 43.3059 10.4935C42.7146 9.78741 41.8387 9.43411 40.6772 9.43411C39.495 9.43411 38.5626 9.93432 37.8802 10.9353C37.1974 11.9287 36.8562 13.3379 36.8562 15.1624C36.8562 16.9873 37.2151 18.3561 37.9329 19.2685C38.6579 20.1735 39.576 20.6263 40.6877 20.6263C41.8281 20.6263 42.6969 20.2365 43.2954 19.4564C43.626 19.0367 43.9006 18.4075 44.1186 17.569H47.3382C47.0564 19.342 46.3386 20.7842 45.1847 21.8955Z" fill="black"/>
<path fill-rule="evenodd" clip-rule="evenodd" d="M67.7896 6.84082L67.9961 23.1106H64.9668V6.84082H67.7896Z" fill="#64DA9C"/>
<path fill-rule="evenodd" clip-rule="evenodd" d="M58.723 19.766H52.9911L51.9144 23.1106H48.5156L54.0678 6.84082H57.7412L63.2512 23.1106H59.7259L58.723 19.766ZM55.8729 10.5607L57.8149 16.9626H53.867L55.8729 10.5607Z" fill="#64DA9C"/>
<mask id="mask0_741_8199" style="mask-type:luminance" maskUnits="userSpaceOnUse" x="0" y="5" width="6" height="24">
<path d="M2.49416 5.4375C2.33055 5.4375 2.1687 5.45466 2.00775 5.48899C1.84679 5.52379 1.69115 5.57479 1.53995 5.64201C1.38831 5.7097 1.24464 5.79265 1.10852 5.89085C0.972392 5.98906 0.846464 6.10061 0.730735 6.22551C0.615005 6.35088 0.511692 6.48627 0.420793 6.63357C0.329451 6.78088 0.252742 6.93581 0.189778 7.09932C0.127258 7.26236 0.0798133 7.43064 0.047888 7.60416C0.0159627 7.77721 0 7.95264 0 8.12902V26.3085C0 26.4849 0.0159627 26.6598 0.047888 26.8333C0.0798133 27.0069 0.127258 27.1751 0.189778 27.3382C0.252742 27.5017 0.329451 27.6566 0.420793 27.8039C0.511692 27.9508 0.615005 28.0866 0.730735 28.212C0.846464 28.3369 0.972392 28.4484 1.10852 28.5466C1.24464 28.6448 1.38831 28.7273 1.53995 28.7955C1.69115 28.8627 1.84679 28.9137 2.00775 28.9485C2.1687 28.9828 2.33055 29 2.49416 29H2.94334C3.10695 29 3.26968 28.9828 3.4302 28.9485C3.59071 28.9137 3.74679 28.8627 3.89799 28.7955C4.04919 28.7273 4.19286 28.6448 4.32898 28.5466C4.46555 28.4484 4.59148 28.3369 4.70721 28.212C4.82294 28.0866 4.92669 27.9508 5.01759 27.8039C5.10849 27.6566 5.1852 27.5017 5.24772 27.3382C5.31024 27.1751 5.35769 27.0069 5.38961 26.8333C5.42154 26.6598 5.4375 26.4849 5.4375 26.3085V8.12902C5.4375 7.95264 5.42154 7.77721 5.38961 7.60416C5.35769 7.43064 5.31024 7.26236 5.24772 7.09932C5.1852 6.93581 5.10849 6.78088 5.01759 6.63357C4.92669 6.48627 4.82294 6.35088 4.70721 6.22551C4.59148 6.10061 4.46555 5.98906 4.32898 5.89085C4.19286 5.79265 4.04919 5.7097 3.89799 5.64201C3.74679 5.57479 3.59071 5.52379 3.4302 5.48899C3.26968 5.45466 3.10695 5.4375 2.94334 5.4375H2.49416Z" fill="white"/>
</mask>
<g mask="url(#mask0_741_8199)">
<path fill-rule="evenodd" clip-rule="evenodd" d="M2.49416 5.4375C2.33055 5.4375 2.1687 5.45466 2.00775 5.48899C1.84679 5.52379 1.69115 5.57479 1.53995 5.64201C1.38831 5.7097 1.24464 5.79265 1.10852 5.89085C0.972392 5.98906 0.846464 6.10061 0.730735 6.22551C0.615005 6.35088 0.511692 6.48627 0.420793 6.63357C0.329451 6.78088 0.252742 6.93581 0.189778 7.09932C0.127258 7.26236 0.0798133 7.43064 0.047888 7.60416C0.0159627 7.77721 0 7.95264 0 8.12902V26.3085C0 26.4849 0.0159627 26.6598 0.047888 26.8333C0.0798133 27.0069 0.127258 27.1751 0.189778 27.3382C0.252742 27.5017 0.329451 27.6566 0.420793 27.8039C0.511692 27.9508 0.615005 28.0866 0.730735 28.212C0.846464 28.3369 0.972392 28.4484 1.10852 28.5466C1.24464 28.6448 1.38831 28.7273 1.53995 28.7955C1.69115 28.8627 1.84679 28.9137 2.00775 28.9485C2.1687 28.9828 2.33055 29 2.49416 29H2.94334C3.10695 29 3.26968 28.9828 3.4302 28.9485C3.59071 28.9137 3.74679 28.8627 3.89799 28.7955C4.04919 28.7273 4.19286 28.6448 4.32898 28.5466C4.46555 28.4484 4.59148 28.3369 4.70721 28.212C4.82294 28.0866 4.92669 27.9508 5.01759 27.8039C5.10849 27.6566 5.1852 27.5017 5.24772 27.3382C5.31024 27.1751 5.35769 27.0069 5.38961 26.8333C5.42154 26.6598 5.4375 26.4849 5.4375 26.3085V8.12902C5.4375 7.95264 5.42154 7.77721 5.38961 7.60416C5.35769 7.43064 5.31024 7.26236 5.24772 7.09932C5.1852 6.93581 5.10849 6.78088 5.01759 6.63357C4.92669 6.48627 4.82294 6.35088 4.70721 6.22551C4.59148 6.10061 4.46555 5.98906 4.32898 5.89085C4.19286 5.79265 4.04919 5.7097 3.89799 5.64201C3.74679 5.57479 3.59071 5.52379 3.4302 5.48899C3.26968 5.45466 3.10695 5.4375 2.94334 5.4375H2.49416Z" fill="url(#paint0_linear_741_8199)"/>
</g>
<mask id="mask1_741_8199" style="mask-type:luminance" maskUnits="userSpaceOnUse" x="0" y="5" width="6" height="24">
<path d="M2.49416 5.4375C2.33055 5.4375 2.1687 5.45466 2.00775 5.48899C1.84679 5.52379 1.69115 5.57479 1.53995 5.64201C1.38831 5.7097 1.24464 5.79265 1.10852 5.89085C0.972392 5.98906 0.846464 6.10061 0.730735 6.22551C0.615005 6.35088 0.511692 6.48627 0.420793 6.63357C0.329451 6.78088 0.252742 6.93581 0.189778 7.09932C0.127258 7.26236 0.0798133 7.43064 0.047888 7.60416C0.0159627 7.77721 0 7.95264 0 8.12902V26.3085C0 26.4849 0.0159627 26.6598 0.047888 26.8333C0.0798133 27.0069 0.127258 27.1751 0.189778 27.3382C0.252742 27.5017 0.329451 27.6566 0.420793 27.8039C0.511692 27.9508 0.615005 28.0866 0.730735 28.212C0.846464 28.3369 0.972392 28.4484 1.10852 28.5466C1.24464 28.6448 1.38831 28.7273 1.53995 28.7955C1.69115 28.8627 1.84679 28.9137 2.00775 28.9485C2.1687 28.9828 2.33055 29 2.49416 29H2.94334C3.10695 29 3.26968 28.9828 3.4302 28.9485C3.59071 28.9137 3.74679 28.8627 3.89799 28.7955C4.04919 28.7273 4.19286 28.6448 4.32898 28.5466C4.46555 28.4484 4.59148 28.3369 4.70721 28.212C4.82294 28.0866 4.92669 27.9508 5.01759 27.8039C5.10849 27.6566 5.1852 27.5017 5.24772 27.3382C5.31024 27.1751 5.35769 27.0069 5.38961 26.8333C5.42154 26.6598 5.4375 26.4849 5.4375 26.3085V8.12902C5.4375 7.95264 5.42154 7.77721 5.38961 7.60416C5.35769 7.43064 5.31024 7.26236 5.24772 7.09932C5.1852 6.93581 5.10849 6.78088 5.01759 6.63357C4.92669 6.48627 4.82294 6.35088 4.70721 6.22551C4.59148 6.10061 4.46555 5.98906 4.32898 5.89085C4.19286 5.79265 4.04919 5.7097 3.89799 5.64201C3.74679 5.57479 3.59071 5.52379 3.4302 5.48899C3.26968 5.45466 3.10695 5.4375 2.94334 5.4375H2.49416Z" fill="white"/>
</mask>
<g mask="url(#mask1_741_8199)">
<path fill-rule="evenodd" clip-rule="evenodd" d="M2.49416 5.4375C2.33055 5.4375 2.1687 5.45466 2.00775 5.48899C1.84679 5.52379 1.69115 5.57479 1.53995 5.64201C1.38831 5.7097 1.24464 5.79265 1.10852 5.89085C0.972392 5.98906 0.846464 6.10061 0.730735 6.22551C0.615005 6.35088 0.511692 6.48627 0.420793 6.63357C0.329451 6.78088 0.252742 6.93581 0.189778 7.09932C0.127258 7.26236 0.0798133 7.43064 0.047888 7.60416C0.0159627 7.77721 0 7.95264 0 8.12902V26.3085C0 26.4849 0.0159627 26.6598 0.047888 26.8333C0.0798133 27.0069 0.127258 27.1751 0.189778 27.3382C0.252742 27.5017 0.329451 27.6566 0.420793 27.8039C0.511692 27.9508 0.615005 28.0866 0.730735 28.212C0.846464 28.3369 0.972392 28.4484 1.10852 28.5466C1.24464 28.6448 1.38831 28.7273 1.53995 28.7955C1.69115 28.8627 1.84679 28.9137 2.00775 28.9485C2.1687 28.9828 2.33055 29 2.49416 29H2.94334C3.10695 29 3.26968 28.9828 3.4302 28.9485C3.59071 28.9137 3.74679 28.8627 3.89799 28.7955C4.04919 28.7273 4.19286 28.6448 4.32898 28.5466C4.46555 28.4484 4.59148 28.3369 4.70721 28.212C4.82294 28.0866 4.92669 27.9508 5.01759 27.8039C5.10849 27.6566 5.1852 27.5017 5.24772 27.3382C5.31024 27.1751 5.35769 27.0069 5.38961 26.8333C5.42154 26.6598 5.4375 26.4849 5.4375 26.3085V8.12902C5.4375 7.95264 5.42154 7.77721 5.38961 7.60416C5.35769 7.43064 5.31024 7.26236 5.24772 7.09932C5.1852 6.93581 5.10849 6.78088 5.01759 6.63357C4.92669 6.48627 4.82294 6.35088 4.70721 6.22551C4.59148 6.10061 4.46555 5.98906 4.32898 5.89085C4.19286 5.79265 4.04919 5.7097 3.89799 5.64201C3.74679 5.57479 3.59071 5.52379 3.4302 5.48899C3.26968 5.45466 3.10695 5.4375 2.94334 5.4375H2.49416Z" fill="url(#paint1_linear_741_8199)"/>
</g>
<mask id="mask2_741_8199" style="mask-type:luminance" maskUnits="userSpaceOnUse" x="19" y="5" width="7" height="24">
<path d="M22.4319 5.4375C22.2679 5.4375 22.106 5.45466 21.9451 5.48899C21.7846 5.52331 21.6285 5.57432 21.4773 5.64201C21.3261 5.7097 21.1825 5.79265 21.0459 5.89085C20.9098 5.98906 20.7839 6.10061 20.6682 6.22551C20.5525 6.35041 20.4491 6.48627 20.3583 6.63357C20.2674 6.7804 20.1902 6.93581 20.1277 7.09885C20.0647 7.26236 20.0178 7.43016 19.9858 7.60368C19.9539 7.77721 19.9375 7.95216 19.9375 8.12902V26.308C19.9375 26.4849 19.9539 26.6598 19.9858 26.8333C20.0178 27.0069 20.0647 27.1747 20.1277 27.3382C20.1902 27.5017 20.2674 27.6566 20.3583 27.8039C20.4491 27.9508 20.5525 28.0866 20.6682 28.2115C20.7839 28.3369 20.9098 28.4484 21.0459 28.5466C21.1825 28.6444 21.3261 28.7273 21.4773 28.795C21.6285 28.8627 21.7846 28.9137 21.9451 28.948C22.106 28.9828 22.2679 29 22.4319 29H22.881C23.0451 29 23.2069 28.9828 23.3679 28.948C23.5279 28.9137 23.684 28.8627 23.8352 28.795C23.9868 28.7273 24.13 28.6444 24.2666 28.5466C24.4027 28.4484 24.529 28.3369 24.6448 28.2115C24.7605 28.0866 24.8638 27.9508 24.9547 27.8039C25.0456 27.6566 25.1227 27.5017 25.1852 27.3382C25.2478 27.1747 25.2952 27.0069 25.3271 26.8333C25.359 26.6598 25.375 26.4849 25.375 26.308V8.12902C25.375 7.95216 25.359 7.77721 25.3271 7.60368C25.2952 7.43016 25.2478 7.26236 25.1852 7.09885C25.1227 6.93581 25.0456 6.7804 24.9547 6.63357C24.8638 6.48627 24.7605 6.35041 24.6448 6.22551C24.529 6.10061 24.4027 5.98906 24.2666 5.89085C24.13 5.79265 23.9868 5.7097 23.8352 5.64201C23.684 5.57432 23.5279 5.52331 23.3679 5.48899C23.2069 5.45466 23.0451 5.4375 22.881 5.4375H22.4319Z" fill="white"/>
</mask>
<g mask="url(#mask2_741_8199)">
<path fill-rule="evenodd" clip-rule="evenodd" d="M22.4319 5.4375C22.2679 5.4375 22.106 5.45466 21.9451 5.48899C21.7846 5.52331 21.6285 5.57432 21.4773 5.64201C21.3261 5.7097 21.1825 5.79265 21.0459 5.89085C20.9098 5.98906 20.7839 6.10061 20.6682 6.22551C20.5525 6.35041 20.4491 6.48627 20.3583 6.63357C20.2674 6.7804 20.1902 6.93581 20.1277 7.09885C20.0647 7.26236 20.0178 7.43016 19.9858 7.60368C19.9539 7.77721 19.9375 7.95216 19.9375 8.12902V26.308C19.9375 26.4849 19.9539 26.6598 19.9858 26.8333C20.0178 27.0069 20.0647 27.1747 20.1277 27.3382C20.1902 27.5017 20.2674 27.6566 20.3583 27.8039C20.4491 27.9508 20.5525 28.0866 20.6682 28.2115C20.7839 28.3369 20.9098 28.4484 21.0459 28.5466C21.1825 28.6444 21.3261 28.7273 21.4773 28.795C21.6285 28.8627 21.7846 28.9137 21.9451 28.948C22.106 28.9828 22.2679 29 22.4319 29H22.881C23.0451 29 23.2069 28.9828 23.3679 28.948C23.5279 28.9137 23.684 28.8627 23.8352 28.795C23.9868 28.7273 24.13 28.6444 24.2666 28.5466C24.4027 28.4484 24.529 28.3369 24.6448 28.2115C24.7605 28.0866 24.8638 27.9508 24.9547 27.8039C25.0456 27.6566 25.1227 27.5017 25.1852 27.3382C25.2478 27.1747 25.2952 27.0069 25.3271 26.8333C25.359 26.6598 25.375 26.4849 25.375 26.308V8.12902C25.375 7.95216 25.359 7.77721 25.3271 7.60368C25.2952 7.43016 25.2478 7.26236 25.1852 7.09885C25.1227 6.93581 25.0456 6.7804 24.9547 6.63357C24.8638 6.48627 24.7605 6.35041 24.6448 6.22551C24.529 6.10061 24.4027 5.98906 24.2666 5.89085C24.13 5.79265 23.9868 5.7097 23.8352 5.64201C23.684 5.57432 23.5279 5.52331 23.3679 5.48899C23.2069 5.45466 23.0451 5.4375 22.881 5.4375H22.4319Z" fill="url(#paint2_linear_741_8199)"/>
</g>
<mask id="mask3_741_8199" style="mask-type:luminance" maskUnits="userSpaceOnUse" x="9" y="0" width="7" height="24">
<path d="M12.4627 0C12.2991 0 12.1368 0.0171617 11.9763 0.051485C11.8158 0.0862851 11.6598 0.137293 11.5081 0.204987C11.3569 0.27268 11.2133 0.355628 11.0772 0.453831C10.9411 0.552034 10.8151 0.663585 10.6994 0.788484C10.5837 0.913382 10.4804 1.04925 10.3895 1.19655C10.2986 1.3429 10.2215 1.49831 10.159 1.66135C10.096 1.82486 10.0486 1.99314 10.0166 2.16666C9.98471 2.33971 9.96875 2.51466 9.96875 2.69152V20.871C9.96875 21.0478 9.98471 21.2228 10.0166 21.3958C10.0486 21.5694 10.096 21.7381 10.159 21.9012C10.2215 22.0647 10.2986 22.2196 10.3895 22.3664C10.4804 22.5133 10.5837 22.6491 10.6994 22.774C10.8151 22.8994 10.9411 23.0109 11.0772 23.1091C11.2133 23.2073 11.3569 23.2903 11.5081 23.3575C11.6598 23.4257 11.8158 23.4767 11.9763 23.511C12.1368 23.5458 12.2991 23.5625 12.4627 23.5625H12.9118C13.0754 23.5625 13.2382 23.5458 13.3987 23.511C13.5592 23.4767 13.7152 23.4257 13.8664 23.3575C14.0176 23.2903 14.1613 23.2073 14.2974 23.1091C14.4339 23.0109 14.5599 22.8994 14.6756 22.774C14.7917 22.6491 14.895 22.5133 14.9859 22.3664C15.0768 22.2196 15.1535 22.0647 15.216 21.9012C15.2786 21.7381 15.3264 21.5694 15.3584 21.3958C15.3898 21.2228 15.4062 21.0478 15.4062 20.871V2.69152C15.4062 2.51466 15.3898 2.33971 15.3584 2.16666C15.3264 1.99314 15.2786 1.82486 15.216 1.66135C15.1535 1.49831 15.0768 1.3429 14.9859 1.19655C14.895 1.04925 14.7917 0.913382 14.6756 0.788484C14.5599 0.663585 14.4339 0.552034 14.2974 0.453831C14.1613 0.355628 14.0176 0.27268 13.8664 0.204987C13.7152 0.137293 13.5592 0.0862851 13.3987 0.051485C13.2382 0.0171617 13.0754 0 12.9118 0H12.4627Z" fill="white"/>
</mask>
<g mask="url(#mask3_741_8199)">
<path fill-rule="evenodd" clip-rule="evenodd" d="M12.4627 0C12.2991 0 12.1368 0.0171617 11.9763 0.051485C11.8158 0.0862851 11.6598 0.137293 11.5081 0.204987C11.3569 0.27268 11.2133 0.355628 11.0772 0.453831C10.9411 0.552034 10.8151 0.663585 10.6994 0.788484C10.5837 0.913382 10.4804 1.04925 10.3895 1.19655C10.2986 1.3429 10.2215 1.49831 10.159 1.66135C10.096 1.82486 10.0486 1.99314 10.0166 2.16666C9.98471 2.33971 9.96875 2.51466 9.96875 2.69152V20.871C9.96875 21.0478 9.98471 21.2228 10.0166 21.3958C10.0486 21.5694 10.096 21.7381 10.159 21.9012C10.2215 22.0647 10.2986 22.2196 10.3895 22.3664C10.4804 22.5133 10.5837 22.6491 10.6994 22.774C10.8151 22.8994 10.9411 23.0109 11.0772 23.1091C11.2133 23.2073 11.3569 23.2903 11.5081 23.3575C11.6598 23.4257 11.8158 23.4767 11.9763 23.511C12.1368 23.5458 12.2991 23.5625 12.4627 23.5625H12.9118C13.0754 23.5625 13.2382 23.5458 13.3987 23.511C13.5592 23.4767 13.7152 23.4257 13.8664 23.3575C14.0176 23.2903 14.1613 23.2073 14.2974 23.1091C14.4339 23.0109 14.5599 22.8994 14.6756 22.774C14.7917 22.6491 14.895 22.5133 14.9859 22.3664C15.0768 22.2196 15.1535 22.0647 15.216 21.9012C15.2786 21.7381 15.3264 21.5694 15.3584 21.3958C15.3898 21.2228 15.4062 21.0478 15.4062 20.871V2.69152C15.4062 2.51466 15.3898 2.33971 15.3584 2.16666C15.3264 1.99314 15.2786 1.82486 15.216 1.66135C15.1535 1.49831 15.0768 1.3429 14.9859 1.19655C14.895 1.04925 14.7917 0.913382 14.6756 0.788484C14.5599 0.663585 14.4339 0.552034 14.2974 0.453831C14.1613 0.355628 14.0176 0.27268 13.8664 0.204987C13.7152 0.137293 13.5592 0.0862851 13.3987 0.051485C13.2382 0.0171617 13.0754 0 12.9118 0H12.4627Z" fill="url(#paint3_linear_741_8199)"/>
</g>
<mask id="mask4_741_8199" style="mask-type:luminance" maskUnits="userSpaceOnUse" x="0" y="5" width="6" height="16">
<path d="M2.49416 5.4375C2.33055 5.4375 2.1687 5.45536 2.00775 5.49107C1.84679 5.52729 1.69115 5.58037 1.53995 5.65031C1.38831 5.72075 1.24464 5.80707 1.10852 5.90926C0.972392 6.01145 0.846464 6.12752 0.730735 6.25749C0.615005 6.38796 0.511692 6.52884 0.420793 6.68212C0.329451 6.83541 0.252742 6.99663 0.189778 7.16678C0.127258 7.33643 0.0798133 7.51154 0.047888 7.69211C0.0159627 7.87218 0 8.05473 0 8.23828V18.043C0 18.227 0.0159627 18.4091 0.047888 18.5896C0.0798133 18.7702 0.127258 18.9448 0.189778 19.115C0.252742 19.2846 0.329451 19.4463 0.420793 19.5991C0.511692 19.7524 0.615005 19.8938 0.730735 20.0238C0.846464 20.1537 0.972392 20.2698 1.10852 20.372C1.24464 20.4742 1.38831 20.5605 1.53995 20.6309C1.69115 20.7014 1.84679 20.7545 2.00775 20.7902C2.1687 20.8259 2.33055 20.8438 2.49416 20.8438H2.94334C3.10695 20.8438 3.26968 20.8259 3.4302 20.7902C3.59071 20.7545 3.74679 20.7014 3.89799 20.6309C4.04919 20.5605 4.19286 20.4742 4.32898 20.372C4.46555 20.2698 4.59148 20.1537 4.70721 20.0238C4.82294 19.8938 4.92669 19.7524 5.01759 19.5991C5.10849 19.4463 5.1852 19.2846 5.24772 19.115C5.31024 18.9448 5.35769 18.7702 5.38961 18.5896C5.42154 18.4091 5.4375 18.227 5.4375 18.043V8.23828C5.4375 8.05473 5.42154 7.87218 5.38961 7.69211C5.35769 7.51154 5.31024 7.33643 5.24772 7.16678C5.1852 6.99663 5.10849 6.83541 5.01759 6.68212C4.92669 6.52884 4.82294 6.38796 4.70721 6.25749C4.59148 6.12752 4.46555 6.01145 4.32898 5.90926C4.19286 5.80707 4.04919 5.72075 3.89799 5.65031C3.74679 5.58037 3.59071 5.52729 3.4302 5.49107C3.26968 5.45536 3.10695 5.4375 2.94334 5.4375H2.49416Z" fill="white"/>
</mask>
<g mask="url(#mask4_741_8199)">
<path fill-rule="evenodd" clip-rule="evenodd" d="M2.49416 5.4375C2.33055 5.4375 2.1687 5.45536 2.00775 5.49107C1.84679 5.52729 1.69115 5.58037 1.53995 5.65031C1.38831 5.72075 1.24464 5.80707 1.10852 5.90926C0.972392 6.01145 0.846464 6.12752 0.730735 6.25749C0.615005 6.38796 0.511692 6.52884 0.420793 6.68212C0.329451 6.83541 0.252742 6.99663 0.189778 7.16678C0.127258 7.33643 0.0798133 7.51154 0.047888 7.69211C0.0159627 7.87218 0 8.05473 0 8.23828V18.043C0 18.227 0.0159627 18.4091 0.047888 18.5896C0.0798133 18.7702 0.127258 18.9448 0.189778 19.115C0.252742 19.2846 0.329451 19.4463 0.420793 19.5991C0.511692 19.7524 0.615005 19.8938 0.730735 20.0238C0.846464 20.1537 0.972392 20.2698 1.10852 20.372C1.24464 20.4742 1.38831 20.5605 1.53995 20.6309C1.69115 20.7014 1.84679 20.7545 2.00775 20.7902C2.1687 20.8259 2.33055 20.8438 2.49416 20.8438H2.94334C3.10695 20.8438 3.26968 20.8259 3.4302 20.7902C3.59071 20.7545 3.74679 20.7014 3.89799 20.6309C4.04919 20.5605 4.19286 20.4742 4.32898 20.372C4.46555 20.2698 4.59148 20.1537 4.70721 20.0238C4.82294 19.8938 4.92669 19.7524 5.01759 19.5991C5.10849 19.4463 5.1852 19.2846 5.24772 19.115C5.31024 18.9448 5.35769 18.7702 5.38961 18.5896C5.42154 18.4091 5.4375 18.227 5.4375 18.043V8.23828C5.4375 8.05473 5.42154 7.87218 5.38961 7.69211C5.35769 7.51154 5.31024 7.33643 5.24772 7.16678C5.1852 6.99663 5.10849 6.83541 5.01759 6.68212C4.92669 6.52884 4.82294 6.38796 4.70721 6.25749C4.59148 6.12752 4.46555 6.01145 4.32898 5.90926C4.19286 5.80707 4.04919 5.72075 3.89799 5.65031C3.74679 5.58037 3.59071 5.52729 3.4302 5.49107C3.26968 5.45536 3.10695 5.4375 2.94334 5.4375H2.49416Z" fill="url(#paint4_linear_741_8199)"/>
</g>
<mask id="mask5_741_8199" style="mask-type:luminance" maskUnits="userSpaceOnUse" x="0" y="5" width="6" height="16">
<path d="M2.49416 5.4375C2.33055 5.4375 2.1687 5.45536 2.00775 5.49107C1.84679 5.52729 1.69115 5.58037 1.53995 5.65031C1.38831 5.72075 1.24464 5.80707 1.10852 5.90926C0.972392 6.01145 0.846464 6.12752 0.730735 6.25749C0.615005 6.38796 0.511692 6.52884 0.420793 6.68212C0.329451 6.83541 0.252742 6.99663 0.189778 7.16678C0.127258 7.33643 0.0798133 7.51154 0.047888 7.69211C0.0159627 7.87218 0 8.05473 0 8.23828V18.043C0 18.227 0.0159627 18.4091 0.047888 18.5896C0.0798133 18.7702 0.127258 18.9448 0.189778 19.115C0.252742 19.2846 0.329451 19.4463 0.420793 19.5991C0.511692 19.7524 0.615005 19.8938 0.730735 20.0238C0.846464 20.1537 0.972392 20.2698 1.10852 20.372C1.24464 20.4742 1.38831 20.5605 1.53995 20.6309C1.69115 20.7014 1.84679 20.7545 2.00775 20.7902C2.1687 20.8259 2.33055 20.8438 2.49416 20.8438H2.94334C3.10695 20.8438 3.26968 20.8259 3.4302 20.7902C3.59071 20.7545 3.74679 20.7014 3.89799 20.6309C4.04919 20.5605 4.19286 20.4742 4.32898 20.372C4.46555 20.2698 4.59148 20.1537 4.70721 20.0238C4.82294 19.8938 4.92669 19.7524 5.01759 19.5991C5.10849 19.4463 5.1852 19.2846 5.24772 19.115C5.31024 18.9448 5.35769 18.7702 5.38961 18.5896C5.42154 18.4091 5.4375 18.227 5.4375 18.043V8.23828C5.4375 8.05473 5.42154 7.87218 5.38961 7.69211C5.35769 7.51154 5.31024 7.33643 5.24772 7.16678C5.1852 6.99663 5.10849 6.83541 5.01759 6.68212C4.92669 6.52884 4.82294 6.38796 4.70721 6.25749C4.59148 6.12752 4.46555 6.01145 4.32898 5.90926C4.19286 5.80707 4.04919 5.72075 3.89799 5.65031C3.74679 5.58037 3.59071 5.52729 3.4302 5.49107C3.26968 5.45536 3.10695 5.4375 2.94334 5.4375H2.49416Z" fill="white"/>
</mask>
<g mask="url(#mask5_741_8199)">
<path fill-rule="evenodd" clip-rule="evenodd" d="M2.49416 5.4375C2.33055 5.4375 2.1687 5.45536 2.00775 5.49107C1.84679 5.52729 1.69115 5.58037 1.53995 5.65031C1.38831 5.72075 1.24464 5.80707 1.10852 5.90926C0.972392 6.01145 0.846464 6.12752 0.730735 6.25749C0.615005 6.38796 0.511692 6.52884 0.420793 6.68212C0.329451 6.83541 0.252742 6.99663 0.189778 7.16678C0.127258 7.33643 0.0798133 7.51154 0.047888 7.69211C0.0159627 7.87218 0 8.05473 0 8.23828V18.043C0 18.227 0.0159627 18.4091 0.047888 18.5896C0.0798133 18.7702 0.127258 18.9448 0.189778 19.115C0.252742 19.2846 0.329451 19.4463 0.420793 19.5991C0.511692 19.7524 0.615005 19.8938 0.730735 20.0238C0.846464 20.1537 0.972392 20.2698 1.10852 20.372C1.24464 20.4742 1.38831 20.5605 1.53995 20.6309C1.69115 20.7014 1.84679 20.7545 2.00775 20.7902C2.1687 20.8259 2.33055 20.8438 2.49416 20.8438H2.94334C3.10695 20.8438 3.26968 20.8259 3.4302 20.7902C3.59071 20.7545 3.74679 20.7014 3.89799 20.6309C4.04919 20.5605 4.19286 20.4742 4.32898 20.372C4.46555 20.2698 4.59148 20.1537 4.70721 20.0238C4.82294 19.8938 4.92669 19.7524 5.01759 19.5991C5.10849 19.4463 5.1852 19.2846 5.24772 19.115C5.31024 18.9448 5.35769 18.7702 5.38961 18.5896C5.42154 18.4091 5.4375 18.227 5.4375 18.043V8.23828C5.4375 8.05473 5.42154 7.87218 5.38961 7.69211C5.35769 7.51154 5.31024 7.33643 5.24772 7.16678C5.1852 6.99663 5.10849 6.83541 5.01759 6.68212C4.92669 6.52884 4.82294 6.38796 4.70721 6.25749C4.59148 6.12752 4.46555 6.01145 4.32898 5.90926C4.19286 5.80707 4.04919 5.72075 3.89799 5.65031C3.74679 5.58037 3.59071 5.52729 3.4302 5.49107C3.26968 5.45536 3.10695 5.4375 2.94334 5.4375H2.49416Z" fill="url(#paint5_linear_741_8199)"/>
</g>
<mask id="mask6_741_8199" style="mask-type:luminance" maskUnits="userSpaceOnUse" x="19" y="15" width="7" height="14">
<path d="M22.4317 15.4062C22.268 15.4062 22.1058 15.4227 21.9452 15.4556C21.7843 15.489 21.6282 15.5379 21.477 15.6029C21.3258 15.6673 21.1821 15.7473 21.046 15.8415C20.9094 15.9352 20.784 16.0427 20.6682 16.1625C20.5521 16.2823 20.4487 16.4126 20.3578 16.5534C20.267 16.6942 20.1902 16.8433 20.1277 16.9996C20.0643 17.1564 20.0173 17.3178 19.9854 17.4843C19.9535 17.6502 19.9375 17.818 19.9375 17.9877V26.4181C19.9375 26.5878 19.9535 26.7556 19.9854 26.922C20.0173 27.0884 20.0643 27.2493 20.1277 27.4062C20.1902 27.563 20.267 27.7116 20.3578 27.8529C20.4487 27.9937 20.5521 28.124 20.6682 28.2438C20.784 28.364 20.9094 28.471 21.046 28.5652C21.1821 28.6589 21.3258 28.7385 21.477 28.8034C21.6282 28.8683 21.7843 28.9172 21.9452 28.9502C22.1058 28.9835 22.268 29 22.4317 29H22.8808C23.0449 29 23.2067 28.9835 23.3677 28.9502C23.5278 28.9172 23.6838 28.8683 23.835 28.8034C23.9867 28.7385 24.1304 28.6589 24.2665 28.5652C24.4026 28.471 24.529 28.364 24.6447 28.2438C24.7604 28.124 24.8638 27.9937 24.9547 27.8529C25.0455 27.7116 25.1227 27.563 25.1852 27.4062C25.2477 27.2493 25.2956 27.0884 25.3276 26.922C25.3595 26.7556 25.375 26.5878 25.375 26.4181V17.9877C25.375 17.818 25.3595 17.6502 25.3276 17.4843C25.2956 17.3178 25.2477 17.1564 25.1852 16.9996C25.1227 16.8433 25.0455 16.6942 24.9547 16.5534C24.8638 16.4126 24.7604 16.2823 24.6447 16.1625C24.529 16.0427 24.4026 15.9352 24.2665 15.8415C24.1304 15.7473 23.9867 15.6673 23.835 15.6029C23.6838 15.5379 23.5278 15.489 23.3677 15.4556C23.2067 15.4227 23.0449 15.4062 22.8808 15.4062H22.4317Z" fill="white"/>
</mask>
<g mask="url(#mask6_741_8199)">
<path fill-rule="evenodd" clip-rule="evenodd" d="M22.4317 15.4062C22.268 15.4062 22.1058 15.4227 21.9452 15.4556C21.7843 15.489 21.6282 15.5379 21.477 15.6029C21.3258 15.6673 21.1821 15.7473 21.046 15.8415C20.9094 15.9352 20.784 16.0427 20.6682 16.1625C20.5521 16.2823 20.4487 16.4126 20.3578 16.5534C20.267 16.6942 20.1902 16.8433 20.1277 16.9996C20.0643 17.1564 20.0173 17.3178 19.9854 17.4843C19.9535 17.6502 19.9375 17.818 19.9375 17.9877V26.4181C19.9375 26.5878 19.9535 26.7556 19.9854 26.922C20.0173 27.0884 20.0643 27.2493 20.1277 27.4062C20.1902 27.563 20.267 27.7116 20.3578 27.8529C20.4487 27.9937 20.5521 28.124 20.6682 28.2438C20.784 28.364 20.9094 28.471 21.046 28.5652C21.1821 28.6589 21.3258 28.7385 21.477 28.8034C21.6282 28.8683 21.7843 28.9172 21.9452 28.9502C22.1058 28.9835 22.268 29 22.4317 29H22.8808C23.0449 29 23.2067 28.9835 23.3677 28.9502C23.5278 28.9172 23.6838 28.8683 23.835 28.8034C23.9867 28.7385 24.1304 28.6589 24.2665 28.5652C24.4026 28.471 24.529 28.364 24.6447 28.2438C24.7604 28.124 24.8638 27.9937 24.9547 27.8529C25.0455 27.7116 25.1227 27.563 25.1852 27.4062C25.2477 27.2493 25.2956 27.0884 25.3276 26.922C25.3595 26.7556 25.375 26.5878 25.375 26.4181V17.9877C25.375 17.818 25.3595 17.6502 25.3276 17.4843C25.2956 17.3178 25.2477 17.1564 25.1852 16.9996C25.1227 16.8433 25.0455 16.6942 24.9547 16.5534C24.8638 16.4126 24.7604 16.2823 24.6447 16.1625C24.529 16.0427 24.4026 15.9352 24.2665 15.8415C24.1304 15.7473 23.9867 15.6673 23.835 15.6029C23.6838 15.5379 23.5278 15.489 23.3677 15.4556C23.2067 15.4227 23.0449 15.4062 22.8808 15.4062H22.4317Z" fill="url(#paint6_linear_741_8199)"/>
</g>
<mask id="mask7_741_8199" style="mask-type:luminance" maskUnits="userSpaceOnUse" x="9" y="13" width="7" height="11">
<path d="M12.4627 13.5938C12.2991 13.5938 12.1373 13.6108 11.9763 13.6454C11.8158 13.6796 11.6598 13.7303 11.5086 13.7977C11.3569 13.865 11.2133 13.9475 11.0772 14.0452C10.9411 14.1429 10.8151 14.2539 10.6994 14.3781C10.5837 14.5024 10.4804 14.638 10.3895 14.7836C10.2986 14.9301 10.2215 15.0847 10.159 15.2469C10.096 15.4096 10.049 15.577 10.0171 15.7491C9.98515 15.9217 9.96875 16.0958 9.96875 16.2717V20.885C9.96875 21.0609 9.98515 21.235 10.0171 21.4071C10.049 21.5798 10.096 21.7472 10.159 21.9098C10.2215 22.072 10.2986 22.2266 10.3895 22.3722C10.4804 22.5187 10.5837 22.6539 10.6994 22.7781C10.8151 22.9024 10.9411 23.0138 11.0772 23.111C11.2133 23.2087 11.3569 23.2917 11.5086 23.3586C11.6598 23.4264 11.8158 23.4771 11.9763 23.5113C12.1373 23.5459 12.2991 23.5625 12.4627 23.5625H12.9118C13.0759 23.5625 13.2382 23.5459 13.3991 23.5113C13.5592 23.4771 13.7152 23.4264 13.8664 23.3586C14.0176 23.2917 14.1613 23.2087 14.2978 23.111C14.4339 23.0138 14.5599 22.9024 14.676 22.7781C14.7917 22.6539 14.895 22.5187 14.9859 22.3722C15.0768 22.2266 15.154 22.072 15.2165 21.9098C15.279 21.7472 15.3264 21.5798 15.3584 21.4071C15.3898 21.235 15.4062 21.0609 15.4062 20.885V16.2717C15.4062 16.0958 15.3898 15.9217 15.3584 15.7491C15.3264 15.577 15.279 15.4096 15.2165 15.2469C15.154 15.0847 15.0768 14.9301 14.9859 14.7836C14.895 14.638 14.7917 14.5024 14.676 14.3781C14.5599 14.2539 14.4339 14.1429 14.2978 14.0452C14.1613 13.9475 14.0176 13.865 13.8664 13.7977C13.7152 13.7303 13.5592 13.6796 13.3991 13.6454C13.2382 13.6108 13.0759 13.5938 12.9118 13.5938H12.4627Z" fill="white"/>
</mask>
<g mask="url(#mask7_741_8199)">
<path fill-rule="evenodd" clip-rule="evenodd" d="M12.4627 13.5938C12.2991 13.5938 12.1373 13.6108 11.9763 13.6454C11.8158 13.6796 11.6598 13.7303 11.5086 13.7977C11.3569 13.865 11.2133 13.9475 11.0772 14.0452C10.9411 14.1429 10.8151 14.2539 10.6994 14.3781C10.5837 14.5024 10.4804 14.638 10.3895 14.7836C10.2986 14.9301 10.2215 15.0847 10.159 15.2469C10.096 15.4096 10.049 15.577 10.0171 15.7491C9.98515 15.9217 9.96875 16.0958 9.96875 16.2717V20.885C9.96875 21.0609 9.98515 21.235 10.0171 21.4071C10.049 21.5798 10.096 21.7472 10.159 21.9098C10.2215 22.072 10.2986 22.2266 10.3895 22.3722C10.4804 22.5187 10.5837 22.6539 10.6994 22.7781C10.8151 22.9024 10.9411 23.0138 11.0772 23.111C11.2133 23.2087 11.3569 23.2917 11.5086 23.3586C11.6598 23.4264 11.8158 23.4771 11.9763 23.5113C12.1373 23.5459 12.2991 23.5625 12.4627 23.5625H12.9118C13.0759 23.5625 13.2382 23.5459 13.3991 23.5113C13.5592 23.4771 13.7152 23.4264 13.8664 23.3586C14.0176 23.2917 14.1613 23.2087 14.2978 23.111C14.4339 23.0138 14.5599 22.9024 14.676 22.7781C14.7917 22.6539 14.895 22.5187 14.9859 22.3722C15.0768 22.2266 15.154 22.072 15.2165 21.9098C15.279 21.7472 15.3264 21.5798 15.3584 21.4071C15.3898 21.235 15.4062 21.0609 15.4062 20.885V16.2717C15.4062 16.0958 15.3898 15.9217 15.3584 15.7491C15.3264 15.577 15.279 15.4096 15.2165 15.2469C15.154 15.0847 15.0768 14.9301 14.9859 14.7836C14.895 14.638 14.7917 14.5024 14.676 14.3781C14.5599 14.2539 14.4339 14.1429 14.2978 14.0452C14.1613 13.9475 14.0176 13.865 13.8664 13.7977C13.7152 13.7303 13.5592 13.6796 13.3991 13.6454C13.2382 13.6108 13.0759 13.5938 12.9118 13.5938H12.4627Z" fill="url(#paint7_linear_741_8199)"/>
</g>
</g>
<defs>
<linearGradient id="paint0_linear_741_8199" x1="271.893" y1="5.42467" x2="271.893" y2="2361.69" gradientUnits="userSpaceOnUse">
<stop stop-color="#241A29"/>
<stop offset="1" stop-color="#707E88"/>
</linearGradient>
<linearGradient id="paint1_linear_741_8199" x1="271.893" y1="5.42467" x2="271.893" y2="2361.69" gradientUnits="userSpaceOnUse">
<stop stop-color="#241A29"/>
<stop offset="1" stop-color="#707E88"/>
</linearGradient>
<linearGradient id="paint2_linear_741_8199" x1="291.827" y1="2361.68" x2="291.827" y2="5.42402" gradientUnits="userSpaceOnUse">
<stop stop-color="#241A29"/>
<stop offset="1" stop-color="#707E88"/>
</linearGradient>
<linearGradient id="paint3_linear_741_8199" x1="281.841" y1="2356.27" x2="281.841" y2="0.0129209" gradientUnits="userSpaceOnUse">
<stop stop-color="#241A29"/>
<stop offset="1" stop-color="#707E88"/>
</linearGradient>
<linearGradient id="paint4_linear_741_8199" x1="271.893" y1="5.42415" x2="271.893" y2="1546.09" gradientUnits="userSpaceOnUse">
<stop stop-color="#63DA9C"/>
<stop offset="1" stop-color="#51B17E"/>
</linearGradient>
<linearGradient id="paint5_linear_741_8199" x1="271.893" y1="5.42415" x2="271.893" y2="1546.09" gradientUnits="userSpaceOnUse">
<stop stop-color="#63DA9C"/>
<stop offset="1" stop-color="#51B17E"/>
</linearGradient>
<linearGradient id="paint6_linear_741_8199" x1="291.807" y1="15.3997" x2="291.807" y2="1374.78" gradientUnits="userSpaceOnUse">
<stop stop-color="#63DA9C"/>
<stop offset="1" stop-color="#51B17E"/>
</linearGradient>
<linearGradient id="paint7_linear_741_8199" x1="281.841" y1="13.6139" x2="281.841" y2="1010.48" gradientUnits="userSpaceOnUse">
<stop stop-color="#63DA9C"/>
<stop offset="1" stop-color="#51B17E"/>
</linearGradient>
<clipPath id="clip0_741_8199">
<rect width="139" height="29" fill="white"/>
</clipPath>
</defs>
</svg>
