<svg version="1.1" id="Layer_1" xmlns="http://www.w3.org/2000/svg" xmlns:xlink="http://www.w3.org/1999/xlink" x="0px" y="0px"
	 width="100%" viewBox="0 0 3172 947" enable-background="new 0 0 3172 947" xml:space="preserve">
<path fill="#000000" opacity="1.000000" stroke="none"
	d="
M2059.000000,948.000000
	C1372.666626,948.000000 686.833313,948.000000 1.000000,948.000000
	C1.000000,632.333313 1.000000,316.666656 1.000000,1.000000
	C1058.333374,1.000000 2115.666748,1.000000 3173.000000,1.000000
	C3173.000000,316.666656 3173.000000,632.333313 3173.000000,948.000000
	C2801.833252,948.000000 2430.666748,948.000000 2059.000000,948.000000
M1637.494385,90.996078
	C1636.190063,89.326820 1634.885620,87.657555 1634.333862,86.951370
	C1625.455322,95.052917 1617.251099,103.841469 1607.778687,110.937469
	C1579.841675,131.865891 1547.744507,144.565659 1515.117188,156.049774
	C1492.701782,163.939575 1469.438843,168.334290 1446.205566,172.815247
	C1437.328857,174.527313 1428.372559,176.321442 1419.382202,176.827805
	C1407.278687,177.509476 1395.106567,177.043228 1382.965210,176.933899
	C1379.538818,176.903046 1378.151978,178.495148 1378.002441,181.692078
	C1377.707886,187.986862 1377.101440,194.278976 1377.090332,200.572998
	C1377.049561,223.782028 1378.026611,246.967804 1382.038330,269.853943
	C1385.753784,291.049591 1389.143188,312.407471 1394.687256,333.156555
	C1408.050781,383.170715 1429.080444,430.038116 1456.173340,474.150665
	C1474.430786,503.877258 1495.359375,531.698486 1519.602661,556.709290
	C1534.698975,572.283508 1551.355957,586.438171 1568.046997,600.348633
	C1586.838379,616.009521 1607.534058,629.007324 1629.567139,639.725342
	C1631.472900,640.652344 1634.516479,640.837769 1636.378906,639.968933
	C1643.002197,636.879150 1649.707153,633.717712 1655.721069,629.615601
	C1671.992554,618.516785 1688.510254,607.647034 1703.821533,595.310486
	C1718.122803,583.787903 1731.675293,571.138611 1744.320312,557.811584
	C1757.623535,543.790894 1769.898315,528.722107 1781.835571,513.494385
	C1800.346313,489.881226 1816.168701,464.432587 1829.926270,437.785065
	C1836.856689,424.361298 1843.030762,410.519073 1848.966797,396.618378
	C1854.310181,384.105865 1859.602173,371.481964 1863.578735,358.497406
	C1868.843140,341.307922 1873.631714,323.882843 1877.113159,306.260406
	C1881.247681,285.332550 1883.886597,264.103302 1886.928467,242.969406
	C1887.748047,237.276733 1887.922485,231.458130 1887.970215,225.693802
	C1888.104004,209.560303 1888.016724,193.424973 1888.016724,177.098389
	C1883.290039,177.098389 1879.154175,177.109207 1875.018311,177.096390
	C1862.123169,177.056412 1849.124023,178.011703 1836.360840,176.690659
	C1822.512451,175.257278 1808.861206,171.813644 1795.163574,169.050278
	C1753.560913,160.657394 1714.676392,145.098892 1678.087402,123.801620
	C1663.146606,115.105042 1648.910522,105.307144 1637.494385,90.996078
M399.000061,356.696930
	C399.012268,371.241669 398.809875,385.723816 401.878174,400.152008
	C407.462799,426.412567 418.839996,449.789612 436.470367,469.789215
	C464.465790,501.546814 500.100891,519.350525 542.178894,522.651123
	C556.744873,523.793579 571.862732,522.200012 586.307190,519.555298
	C606.510864,515.856140 625.133179,507.231598 642.048218,495.400330
	C657.368713,484.684387 670.400696,471.556122 681.157837,456.283569
	C696.505859,434.493195 705.472656,410.055969 707.687256,383.673370
	C708.807312,370.329651 707.359009,356.634094 705.839661,343.237366
	C703.619141,323.658386 696.531372,305.455170 686.120239,288.835236
	C661.776611,249.974060 627.583618,225.298492 581.920044,216.775726
	C564.997009,213.617172 548.130493,212.915939 531.380981,215.270752
	C512.016418,217.993195 493.608215,224.387329 476.664001,234.637466
	C430.909241,262.316101 405.317963,302.825623 399.000061,356.696930
M3087.000000,237.505035
	C3087.000000,232.745239 3087.000000,227.985428 3087.000000,223.000031
	C3069.365967,223.000031 3052.385498,223.160995 3035.411621,222.893524
	C3030.829102,222.821304 3029.889404,224.408386 3029.913818,228.640793
	C3030.079102,257.301239 3030.000000,285.963074 3030.000000,314.624481
	C3030.000000,316.376892 3030.000000,318.129303 3030.000000,319.670593
	C2990.266357,319.670593 2951.198975,319.670593 2911.739502,319.670593
	C2911.739502,287.272675 2911.739502,255.203018 2911.739502,223.000107
	C2894.025635,223.000107 2876.705322,223.118057 2859.388672,222.915451
	C2855.167725,222.866074 2854.957764,224.925430 2854.959473,228.162704
	C2855.009521,323.478485 2855.026367,418.794342 2854.911865,514.109985
	C2854.906982,518.247681 2856.286621,519.123840 2860.111572,519.079468
	C2876.273193,518.891846 2892.437988,519.006348 2908.601807,518.985657
	C2909.697754,518.984253 2910.793701,518.779419 2912.248047,518.633179
	C2912.248047,470.950928 2912.248047,423.550690 2912.248047,376.316711
	C2951.708008,376.316711 2990.775391,376.316711 3030.000000,376.316711
	C3030.000000,378.450317 3030.000000,380.270172 3030.000000,382.090027
	C3030.000000,425.915314 3030.066895,469.740814 3029.898682,513.565491
	C3029.881348,518.053040 3031.209717,519.167908 3035.545898,519.098572
	C3051.205811,518.848083 3066.872070,519.006165 3082.535889,518.989746
	C3083.968506,518.988220 3085.401123,518.842590 3087.000000,518.754761
	C3087.000000,425.099426 3087.000000,331.801605 3087.000000,237.505035
M844.003662,400.524811
	C853.275696,413.293884 862.557373,426.055969 871.817810,438.833496
	C890.637695,464.801208 909.425537,490.792267 928.327576,516.699951
	C929.159302,517.839905 930.987610,518.894348 932.358704,518.903320
	C953.491577,519.041626 974.625549,518.999817 997.506958,518.999817
	C960.418152,467.900879 924.084412,417.842194 887.877930,367.958893
	C892.973022,364.479126 898.093140,361.608307 902.436646,357.841827
	C906.895752,353.975128 911.054321,349.570068 914.548157,344.815491
	C929.021484,325.119324 933.509644,303.376221 927.223511,279.533325
	C923.004700,263.531219 914.250793,250.512009 901.579224,240.130692
	C888.458618,229.381546 873.506042,223.050491 856.307861,223.018570
	C822.143188,222.955139 787.978027,223.073853 753.814026,222.908539
	C749.413330,222.887253 747.823669,223.726028 747.831787,228.604889
	C747.989990,323.766052 747.949036,418.927551 747.948853,514.088989
	C747.948853,515.676331 747.948853,517.263672 747.948853,518.682007
	C766.701843,518.682007 784.775269,518.682007 803.241455,518.682007
	C803.241455,470.626648 803.241455,422.888580 803.241455,375.000275
	C809.958801,375.000275 816.284241,374.860870 822.594910,375.104095
	C824.063538,375.160736 825.952209,376.161224 826.846924,377.336823
	C832.524109,384.796539 837.976440,392.427338 844.003662,400.524811
M1084.500000,223.000031
	C1063.333496,223.000031 1042.165894,223.115143 1021.001404,222.902893
	C1016.768005,222.860443 1015.722961,224.148468 1015.727478,228.253845
	C1015.832336,323.586365 1015.804565,418.919006 1015.813232,514.251648
	C1015.813354,515.826843 1015.960815,517.402039 1016.022644,518.638672
	C1080.115601,518.638672 1143.523560,518.638672 1206.780762,518.638672
	C1206.780762,499.825378 1206.780762,481.373840 1206.780762,462.462708
	C1162.159546,462.462708 1117.754272,462.462708 1073.259644,462.462708
	C1073.259644,433.757446 1073.259644,405.515320 1073.259644,376.873322
	C1113.257446,376.873322 1152.997559,376.873322 1192.731934,376.873322
	C1192.731934,357.732422 1192.731934,338.993652 1192.731934,319.856567
	C1152.725586,319.856567 1112.985596,319.856567 1073.276367,319.856567
	C1073.276367,305.714722 1073.276367,291.975616 1073.276367,277.839722
	C1119.291260,277.839722 1165.031006,277.839722 1210.715088,277.839722
	C1210.715088,259.365143 1210.715088,241.292725 1210.715088,223.000031
	C1168.787109,223.000031 1127.143555,223.000031 1084.500000,223.000031
M2499.000000,275.319519
	C2499.000000,257.908539 2499.000000,240.497574 2499.000000,223.000031
	C2435.320068,223.000031 2372.337891,223.055847 2309.356689,222.887375
	C2304.641357,222.874771 2303.569336,224.203079 2303.575684,228.748749
	C2303.704590,323.562408 2303.671143,418.376282 2303.684326,513.190125
	C2303.684570,515.098633 2303.857178,517.007202 2303.938477,518.690918
	C2368.023926,518.690918 2431.425049,518.690918 2494.840332,518.690918
	C2494.840332,499.924988 2494.840332,481.468567 2494.840332,462.577423
	C2450.266357,462.577423 2405.848389,462.577423 2361.216309,462.577423
	C2361.216309,433.895233 2361.216309,405.648407 2361.216309,377.008667
	C2401.124023,377.008667 2440.858398,377.008667 2480.794922,377.008667
	C2480.794922,357.880554 2480.794922,339.144958 2480.794922,319.839905
	C2440.765137,319.839905 2400.910889,319.839905 2361.366211,319.839905
	C2361.366211,305.529572 2361.366211,291.789581 2361.366211,278.000000
	C2373.229736,278.000000 2384.726807,278.000000 2396.223877,278.000000
	C2428.883789,278.000000 2461.543701,278.024170 2494.203369,277.927124
	C2495.802734,277.922363 2497.398682,276.857483 2499.000000,275.319519
M2739.776855,290.647766
	C2747.554932,299.018524 2755.426758,307.305603 2763.041504,315.822510
	C2764.809082,317.799255 2765.557129,318.502228 2768.062256,316.606476
	C2778.890625,308.412170 2789.972656,300.553497 2800.941650,292.544464
	C2804.154053,290.198914 2807.298584,287.760437 2810.426758,285.400269
	C2773.513672,229.621536 2708.613525,201.875061 2642.607666,218.462494
	C2571.802734,236.255936 2529.163086,296.122620 2525.200439,356.595673
	C2519.760498,439.616272 2573.063232,499.465363 2637.551270,517.466125
	C2705.458252,536.421204 2771.894775,510.278564 2810.107178,452.318237
	C2795.374268,441.457642 2780.628418,430.587463 2765.672363,419.562561
	C2760.389404,425.897217 2755.822021,432.530670 2750.133789,437.997589
	C2722.625488,464.435425 2690.035645,473.119354 2653.211426,463.302155
	C2606.735107,450.911652 2573.377930,402.727814 2582.934326,351.463257
	C2587.366211,327.688873 2598.780273,308.274109 2617.449463,293.067871
	C2636.836670,277.276611 2658.886963,269.935944 2684.066650,270.846619
	C2704.654541,271.591217 2722.695557,278.420715 2739.776855,290.647766
M169.458801,506.040741
	C187.341522,516.184326 206.860687,521.285461 227.089249,522.771912
	C241.971405,523.865601 256.923035,523.132324 271.822632,520.172791
	C299.350433,514.704895 323.254303,502.397308 343.669250,483.563629
	C353.547119,474.450867 362.064117,463.863007 371.930298,453.146820
	C356.505280,441.728943 341.619202,430.709991 326.311462,419.378876
	C322.854401,423.809784 319.827820,428.145508 316.345856,432.078033
	C292.541718,458.962433 262.814240,470.568176 227.094116,465.963196
	C202.094284,462.740234 181.361374,451.270172 165.382751,431.842560
	C142.472260,403.986694 136.170044,372.586517 147.035828,338.073120
	C150.643967,326.612396 156.650162,316.448395 164.283615,307.005585
	C175.658066,292.935028 189.892731,283.388000 206.514893,276.790344
	C219.702148,271.556030 233.303925,270.540863 247.307968,270.892181
	C262.102814,271.263336 275.629120,275.436951 288.413025,282.506134
	C302.914917,290.525299 314.055756,302.172974 323.477142,315.573456
	C325.353760,318.242676 326.533325,318.511993 329.289703,316.384430
	C338.375458,309.371338 347.784088,302.777374 357.044281,295.989075
	C361.830627,292.480377 366.565369,288.901245 371.554352,285.181732
	C366.042755,278.234222 361.178986,271.490692 355.658630,265.336090
	C351.143250,260.302002 345.939178,255.864624 340.877808,251.344788
	C315.722748,228.881180 285.967407,216.955368 252.642883,214.153763
	C235.972656,212.752289 219.226715,214.036072 202.982864,218.411118
	C168.428818,227.717773 139.604568,245.971268 117.859955,274.660522
	C94.550720,305.414093 83.110893,339.787598 85.836441,378.742645
	C87.006622,395.467590 90.942238,411.279816 96.966667,426.773438
	C106.514145,451.327606 121.811134,471.643738 142.390259,487.872650
	C150.731888,494.450958 159.907974,499.971130 169.458801,506.040741
M2263.000000,273.400238
	C2263.000000,256.651154 2263.000000,239.902069 2263.000000,223.000031
	C2254.218506,223.000031 2246.069336,223.000031 2237.920166,223.000031
	C2181.111572,223.000031 2124.302734,223.046326 2067.494385,222.907455
	C2063.197266,222.896942 2061.589844,223.851959 2061.835938,228.404114
	C2062.222412,235.546768 2061.938721,242.725677 2061.938721,249.889236
	C2061.938721,259.493073 2061.938721,269.096924 2061.938721,279.076355
	C2086.199951,279.076355 2109.936035,279.076355 2134.000000,279.076355
	C2134.000000,291.582184 2134.000000,303.706482 2134.000000,315.830811
	C2134.000000,381.802185 2134.036621,447.773621 2133.914062,513.744751
	C2133.906250,517.911438 2135.052734,519.153931 2139.246094,519.093262
	C2155.235596,518.862122 2171.230713,519.006958 2187.223633,518.986511
	C2188.474365,518.984924 2189.724854,518.792542 2191.304688,518.661499
	C2191.304688,438.549652 2191.304688,358.835510 2191.304688,278.909790
	C2215.283691,278.909790 2238.897461,278.909790 2263.000000,278.909790
	C2263.000000,277.261505 2263.000000,275.819427 2263.000000,273.400238
M1974.239502,824.000732
	C1983.750000,824.126160 1987.780396,828.403320 1988.056396,837.958496
	C1988.277100,845.598694 1989.006226,853.224243 1989.504761,860.782166
	C1995.625977,860.782166 2000.717285,860.782166 2006.696533,860.782166
	C2005.672729,859.063232 2004.965088,857.924561 2004.307007,856.757935
	C2003.517578,855.358093 2002.226318,853.981689 2002.099121,852.513062
	C2001.545166,846.121582 2001.203369,839.703796 2001.036743,833.289001
	C2000.860229,826.492981 1998.620483,820.945557 1992.382202,817.485779
	C2002.851318,810.808228 2005.027466,799.314270 2001.421509,787.617310
	C1998.431396,777.918945 1990.256104,772.574890 1977.045166,772.102356
	C1963.910278,771.632507 1950.742188,772.161194 1937.595459,771.906799
	C1933.298706,771.823669 1931.858154,772.933411 1931.897217,777.446655
	C1932.111206,802.249939 1931.999390,827.056030 1931.999390,851.861145
	C1931.999390,854.807678 1931.999390,857.754211 1931.999390,860.767334
	C1936.542236,860.767334 1940.610840,860.767334 1945.061157,860.767334
	C1945.061157,848.473145 1945.061157,836.405762 1945.061157,824.000732
	C1954.728149,824.000732 1964.012451,824.000732 1974.239502,824.000732
M2040.000000,850.478455
	C2040.000000,853.915649 2040.000000,857.352905 2040.000000,860.739624
	C2062.620850,860.739624 2084.684326,860.739624 2106.791260,860.739624
	C2106.880615,860.013977 2106.981201,859.540344 2106.990967,859.064880
	C2107.198242,849.000061 2107.196045,849.000000 2097.108643,849.000000
	C2082.842773,849.000000 2068.577148,849.000000 2054.235352,849.000000
	C2054.235352,839.787903 2054.235352,831.054504 2054.235352,821.936523
	C2070.200928,821.936523 2085.936035,821.936523 2101.673340,821.936523
	C2101.673340,817.662537 2101.673340,813.785339 2101.673340,809.357666
	C2085.650146,809.357666 2069.945801,809.357666 2054.333008,809.357666
	C2054.333008,800.568542 2054.333008,792.342712 2054.333008,783.745239
	C2071.733643,783.745239 2088.802734,783.745239 2105.721191,783.745239
	C2105.721191,779.755432 2105.721191,776.152344 2105.721191,772.229187
	C2103.843750,772.145020 2102.225342,772.010742 2100.607178,772.009460
	C2082.455078,771.994507 2064.300537,772.159607 2046.152588,771.892761
	C2041.347900,771.822083 2039.854248,773.179688 2039.899536,778.041260
	C2040.121460,801.853394 2040.000000,825.668701 2040.000000,850.478455
M1301.500000,772.000000
	C1291.508911,772.000000 1281.510864,772.218750 1271.529907,771.900391
	C1267.075928,771.758301 1265.879517,773.192078 1265.909424,777.550842
	C1266.090942,804.026001 1265.996826,830.502991 1266.009766,856.979370
	C1266.010376,858.249939 1266.152710,859.520325 1266.226074,860.739685
	C1288.623901,860.739685 1310.685913,860.739685 1333.000000,860.739685
	C1333.000000,858.344543 1332.800049,856.184082 1333.043457,854.074707
	C1333.493042,850.179077 1332.152954,848.560303 1328.056641,848.931091
	C1324.422974,849.259949 1320.736084,849.000000 1317.072632,849.000000
	C1304.809570,849.000000 1292.546387,849.000000 1280.247559,849.000000
	C1280.247559,839.761414 1280.247559,831.028015 1280.247559,821.913330
	C1296.224854,821.913330 1311.959351,821.913330 1327.647461,821.913330
	C1327.647461,817.644714 1327.647461,813.771545 1327.647461,809.552429
	C1311.694336,809.552429 1296.086426,809.552429 1280.348633,809.552429
	C1280.348633,800.819946 1280.348633,792.455078 1280.348633,783.717102
	C1297.765625,783.717102 1314.835205,783.717102 1332.000000,783.717102
	C1332.000000,781.179810 1331.758667,778.987976 1332.051514,776.869995
	C1332.624634,772.723938 1330.831543,771.786865 1326.975342,771.916565
	C1318.825073,772.190491 1310.659424,772.000000 1301.500000,772.000000
M1164.000000,785.520996
	C1164.000000,810.601379 1164.000000,835.681702 1164.000000,860.741455
	C1186.615967,860.741455 1208.679565,860.741455 1230.722168,860.741455
	C1231.583496,849.000000 1231.583496,849.000000 1220.120728,849.000000
	C1206.186646,849.000000 1192.252686,849.000000 1178.232178,849.000000
	C1178.232178,839.794861 1178.232178,831.061157 1178.232178,821.942200
	C1194.194458,821.942200 1209.929321,821.942200 1225.680664,821.942200
	C1225.680664,817.664612 1225.680664,813.782959 1225.680664,809.357910
	C1209.662598,809.357910 1193.954224,809.357910 1178.329224,809.357910
	C1178.329224,800.577881 1178.329224,792.351318 1178.329224,783.751953
	C1195.726074,783.751953 1212.795654,783.751953 1229.553589,783.751953
	C1229.553589,779.634460 1229.553589,775.917969 1229.553589,772.308594
	C1228.781616,772.148438 1228.455688,772.021851 1228.129761,772.021606
	C1210.976440,772.007629 1193.822998,772.003235 1176.669678,772.000427
	C1164.000000,771.998352 1164.000000,772.000000 1164.000000,785.520996
M1575.732544,826.172302
	C1572.101685,818.988037 1566.420288,814.523071 1558.509277,812.732117
	C1549.096069,810.601074 1539.659058,808.509399 1530.374023,805.897217
	C1521.919800,803.518738 1519.850098,796.617126 1524.436279,789.106201
	C1528.539307,782.386475 1535.301392,781.867310 1542.350220,781.958618
	C1554.543091,782.116638 1560.553467,786.989929 1562.519287,798.768677
	C1566.625122,798.768677 1570.732788,798.768677 1575.060669,798.768677
	C1574.572632,789.052429 1571.715454,780.650513 1563.500732,775.223816
	C1553.210449,768.425964 1531.050903,767.192444 1519.820312,775.919189
	C1512.737305,781.423035 1507.424438,793.663208 1509.202759,801.762878
	C1511.459839,812.042297 1518.481812,816.873413 1528.223145,819.061340
	C1537.506470,821.146240 1546.736328,823.517700 1555.888184,826.119812
	C1561.326294,827.666077 1563.921143,831.612000 1564.056885,837.095215
	C1564.233276,844.208130 1562.577759,847.089905 1556.625610,849.524597
	C1554.411865,850.430176 1552.078613,851.080505 1549.756592,851.678833
	C1533.822632,855.784363 1520.847046,847.669739 1518.464355,831.998169
	C1515.681519,831.998169 1512.862305,832.137756 1510.063232,831.960205
	C1507.068726,831.770203 1505.749268,832.843506 1505.975586,835.950989
	C1506.791382,847.154541 1513.950073,857.288635 1524.987427,860.931519
	C1534.041260,863.919800 1543.409424,865.133789 1552.926514,862.997559
	C1560.730103,861.245911 1568.092773,858.970093 1573.093506,851.829895
	C1578.636230,843.915833 1578.001953,835.577637 1575.732544,826.172302
M1626.003906,785.713989
	C1627.433838,785.142700 1628.860107,784.085266 1630.294189,784.074524
	C1646.068115,783.955750 1661.843384,784.000000 1677.799072,784.000000
	C1677.799072,779.859253 1677.799072,776.123169 1677.799072,772.000000
	C1657.826782,772.000000 1638.051270,772.141541 1618.280762,771.893372
	C1613.745361,771.836426 1612.746216,773.300049 1612.775879,777.580383
	C1612.959106,804.058044 1612.863770,830.537476 1612.876709,857.016357
	C1612.877441,858.276428 1613.028809,859.536377 1613.108032,860.764893
	C1635.210327,860.764893 1656.949463,860.764893 1678.624634,860.764893
	C1678.624634,856.802246 1678.624634,853.089111 1678.624634,848.861572
	C1660.876831,848.861572 1643.496704,848.861572 1626.328735,848.861572
	C1626.328735,839.597046 1626.328735,830.860229 1626.328735,821.752441
	C1642.392822,821.752441 1658.130249,821.752441 1673.809326,821.752441
	C1673.809326,817.580750 1673.809326,813.794495 1673.809326,809.537231
	C1657.885742,809.537231 1642.144531,809.537231 1626.000122,809.537231
	C1626.000122,801.605957 1626.000122,794.143372 1626.003906,785.713989
M1879.261719,802.499878
	C1879.200684,811.829346 1878.933594,821.163147 1879.131592,830.487122
	C1879.374023,841.900574 1872.253418,850.330933 1860.416992,851.311707
	C1845.821045,852.520996 1835.929810,844.216614 1835.984863,830.442200
	C1836.051514,813.777771 1836.055786,797.112732 1835.979858,780.448425
	C1835.935303,770.662170 1837.435303,772.351318 1827.545776,771.907532
	C1823.055176,771.706055 1821.867065,773.257446 1821.913940,777.579529
	C1822.114502,796.075134 1821.759155,814.578674 1822.109863,833.069763
	C1822.264648,841.231445 1824.912598,848.797913 1831.103882,854.713806
	C1836.534424,859.903015 1843.004272,862.085266 1850.391724,863.314392
	C1860.178345,864.942627 1869.255493,863.461304 1877.527832,858.752686
	C1888.125610,852.720337 1892.910889,842.795654 1892.976074,830.701843
	C1893.071167,813.037842 1893.000610,795.372925 1893.000610,777.708435
	C1893.000610,775.938110 1893.000732,774.167725 1893.000732,771.999146
	C1889.907715,771.999146 1887.415161,772.229675 1884.981689,771.948669
	C1880.632812,771.446594 1879.032593,773.072876 1879.184326,777.505371
	C1879.458008,785.494995 1879.261719,793.500732 1879.261719,802.499878
M1746.388794,851.070618
	C1741.809814,849.095703 1736.616577,847.917603 1732.789307,844.967468
	C1726.327515,839.986572 1724.780273,832.304932 1723.726074,824.414307
	C1721.884644,810.631836 1723.452759,798.158813 1734.310669,788.169434
	C1745.496826,777.878113 1769.405518,780.056519 1774.093872,796.944275
	C1774.428467,798.149048 1775.990112,799.742493 1777.118652,799.862427
	C1780.674194,800.240173 1784.295288,800.001587 1787.940674,800.001587
	C1786.235718,785.293030 1776.467651,773.170532 1759.506958,770.476440
	C1742.987549,767.852539 1726.104126,772.880615 1716.750610,788.540405
	C1708.302612,802.684265 1707.250854,817.786194 1711.137573,833.203674
	C1717.603271,858.851807 1739.194702,867.720642 1760.814331,862.528687
	C1777.583618,858.501587 1786.874023,845.109802 1788.771484,827.997803
	C1786.100098,827.997803 1783.441040,828.195862 1780.823608,827.950378
	C1777.091309,827.600342 1775.802246,828.848145 1774.668579,832.750854
	C1771.126099,844.946228 1763.553467,852.724670 1746.388794,851.070618
M1075.516235,861.000000
	C1077.950195,861.000000 1080.384277,861.000000 1083.195068,861.000000
	C1083.195068,847.672119 1083.195068,834.928711 1083.195068,821.799194
	C1097.670776,821.799194 1111.749023,821.799194 1125.780029,821.799194
	C1125.780029,817.616150 1125.780029,813.835266 1125.780029,809.531860
	C1111.504395,809.531860 1097.434814,809.531860 1083.254761,809.531860
	C1083.254761,800.762451 1083.254761,792.521851 1083.254761,783.886780
	C1099.583984,783.886780 1115.663086,783.886780 1132.000000,783.886780
	C1132.000000,781.688110 1131.794800,779.855408 1132.039795,778.085022
	C1132.687622,773.404724 1131.111694,771.781860 1126.115479,771.876648
	C1109.122437,772.199219 1092.116577,772.172668 1075.122070,771.890320
	C1070.289429,771.810059 1068.859741,773.208984 1068.899170,778.049622
	C1069.112061,804.213318 1068.996338,830.379700 1069.010010,856.545105
	C1069.010742,857.977600 1069.156616,859.409912 1069.243530,861.000000
	C1071.256836,861.000000 1072.906250,861.000000 1075.516235,861.000000
M1376.533691,861.000000
	C1392.631958,861.000000 1408.730347,861.000000 1424.791016,861.000000
	C1425.406982,849.000000 1425.406982,849.000000 1414.041504,849.000000
	C1402.773071,849.000000 1391.504639,849.000000 1379.846924,849.000000
	C1379.846924,823.043091 1379.846924,797.632324 1379.846924,772.000000
	C1377.476685,772.000000 1375.498413,771.999634 1373.520020,772.000061
	C1367.001587,772.001404 1367.000488,772.001526 1367.000366,778.531555
	C1366.999756,804.364807 1367.000000,830.198059 1367.000000,856.031311
	C1367.000000,857.625854 1367.000000,859.220459 1367.000000,860.706543
	C1367.913940,860.872009 1368.228760,860.976074 1368.544312,860.978577
	C1370.877563,860.997131 1373.210693,860.995361 1376.533691,861.000000
z"/>
<path fill="#FE8300" opacity="1.000000" stroke="none"
	d="
M1637.741089,91.254242
	C1648.910522,105.307144 1663.146606,115.105042 1678.087402,123.801620
	C1714.676392,145.098892 1753.560913,160.657394 1795.163574,169.050278
	C1808.861206,171.813644 1822.512451,175.257278 1836.360840,176.690659
	C1849.124023,178.011703 1862.123169,177.056412 1875.018311,177.096390
	C1879.154175,177.109207 1883.290039,177.098389 1888.016724,177.098389
	C1888.016724,193.424973 1888.104004,209.560303 1887.970215,225.693802
	C1887.922485,231.458130 1887.748047,237.276733 1886.928467,242.969406
	C1883.886597,264.103302 1881.247681,285.332550 1877.113159,306.260406
	C1873.631714,323.882843 1868.843140,341.307922 1863.578735,358.497406
	C1859.602173,371.481964 1854.310181,384.105865 1848.966797,396.618378
	C1843.030762,410.519073 1836.856689,424.361298 1829.926270,437.785065
	C1816.168701,464.432587 1800.346313,489.881226 1781.835571,513.494385
	C1769.898315,528.722107 1757.623535,543.790894 1744.320312,557.811584
	C1731.675293,571.138611 1718.122803,583.787903 1703.821533,595.310486
	C1688.510254,607.647034 1671.992554,618.516785 1655.721069,629.615601
	C1649.707153,633.717712 1643.002197,636.879150 1636.378906,639.968933
	C1634.516479,640.837769 1631.472900,640.652344 1629.567139,639.725342
	C1607.534058,629.007324 1586.838379,616.009521 1568.046997,600.348633
	C1551.355957,586.438171 1534.698975,572.283508 1519.602661,556.709290
	C1495.359375,531.698486 1474.430786,503.877258 1456.173340,474.150665
	C1429.080444,430.038116 1408.050781,383.170715 1394.687256,333.156555
	C1389.143188,312.407471 1385.753784,291.049591 1382.038330,269.853943
	C1378.026611,246.967804 1377.049561,223.782028 1377.090332,200.572998
	C1377.101440,194.278976 1377.707886,187.986862 1378.002441,181.692078
	C1378.151978,178.495148 1379.538818,176.903046 1382.965210,176.933899
	C1395.106567,177.043228 1407.278687,177.509476 1419.382202,176.827805
	C1428.372559,176.321442 1437.328857,174.527313 1446.205566,172.815247
	C1469.438843,168.334290 1492.701782,163.939575 1515.117188,156.049774
	C1547.744507,144.565659 1579.841675,131.865891 1607.778687,110.937469
	C1617.251099,103.841469 1625.455322,95.052917 1634.333862,86.951370
	C1634.885620,87.657555 1636.190063,89.326820 1637.741089,91.254242
M1747.180054,513.004089
	C1742.565674,514.981689 1737.968872,517.001221 1733.333862,518.929443
	C1716.417725,525.966858 1699.486084,532.967163 1682.565796,539.994751
	C1671.331543,544.660706 1660.089966,549.309631 1648.903564,554.087891
	C1647.756714,554.577698 1646.189819,555.862488 1646.140015,556.845276
	C1645.868530,562.210205 1646.010742,567.596008 1646.010742,573.360413
	C1647.406006,572.958740 1648.048340,572.844910 1648.632812,572.595520
	C1669.662720,563.623535 1690.710938,554.693604 1711.697388,545.620972
	C1717.576660,543.079346 1724.339844,541.256287 1728.811890,537.082947
	C1736.261230,530.131042 1742.188843,521.548279 1749.195801,513.283020
	C1749.345215,512.941406 1749.494751,512.599792 1749.644287,512.258118
	C1749.071289,512.477295 1748.498291,512.696472 1747.180054,513.004089
M1854.211914,281.998108
	C1845.834106,285.480804 1837.429932,288.901672 1829.083984,292.459198
	C1812.364380,299.586060 1795.694702,306.829987 1778.970947,313.947205
	C1759.716675,322.141327 1740.423462,330.243500 1721.152832,338.399261
	C1706.512085,344.595581 1691.874512,350.799500 1677.246460,357.025848
	C1666.827393,361.460541 1656.426758,365.938293 1646.283081,370.283386
	C1646.283081,376.605042 1646.283081,382.478790 1646.283081,388.606049
	C1648.161255,387.938690 1649.738525,387.470703 1651.242432,386.830627
	C1716.145142,359.206818 1781.033813,331.549805 1845.958496,303.977448
	C1849.698975,302.388885 1852.212158,300.378265 1852.764771,296.042572
	C1853.345093,291.490509 1854.517090,287.013885 1855.787109,282.136597
	C1855.751099,281.884613 1855.715088,281.632660 1855.679077,281.380707
	C1855.447876,281.581329 1855.216553,281.781921 1854.211914,281.998108
M1482.311768,465.181793
	C1518.318604,520.987488 1562.909546,568.278625 1619.768677,604.427551
	C1619.768677,447.591156 1619.768677,291.601990 1619.768677,136.541550
	C1604.974976,144.457092 1590.272217,153.107925 1574.898438,160.330658
	C1559.358887,167.631302 1543.454102,174.428787 1527.162354,179.781433
	C1508.713623,185.842789 1489.725098,190.330231 1470.845459,194.992447
	C1450.445435,200.030167 1429.638062,202.590912 1408.627563,202.863327
	C1403.732788,202.926804 1402.580200,204.581680 1402.957031,208.975876
	C1403.773926,218.505508 1404.225220,228.066360 1405.028198,237.597397
	C1405.912231,248.088867 1406.196777,258.722992 1408.209839,269.007782
	C1412.256348,289.681549 1416.671997,310.326263 1422.057251,330.686218
	C1434.709961,378.522400 1455.495361,422.830414 1482.311768,465.181793
M1699.578613,286.071808
	C1696.607666,287.376007 1693.654419,288.722565 1690.662598,289.977173
	C1676.901733,295.747894 1663.105957,301.437042 1649.398804,307.332428
	C1648.006836,307.931152 1646.252197,309.653809 1646.159302,310.960907
	C1645.787842,316.191742 1646.006104,321.464417 1646.006104,326.964386
	C1647.007690,326.720642 1647.489258,326.670990 1647.915161,326.490082
	C1673.538452,315.608795 1699.168335,304.742706 1724.773926,293.819946
	C1769.061279,274.928070 1813.336304,256.006744 1857.600464,237.060562
	C1859.058228,236.436539 1861.399902,235.548325 1861.533325,234.544464
	C1862.294067,228.820892 1862.509399,223.024811 1862.948120,216.704636
	C1855.310913,220.072083 1848.668701,223.096588 1841.951538,225.944138
	C1823.284546,233.857468 1804.584473,241.692566 1785.901123,249.567581
	C1769.756958,256.372345 1753.606079,263.161133 1737.480835,270.010529
	C1725.084717,275.275818 1712.723999,280.624237 1699.578613,286.071808
M1761.596191,401.080505
	C1783.870361,391.633484 1806.156250,382.213867 1828.389893,372.672272
	C1829.743042,372.091522 1831.206299,370.745422 1831.721069,369.409668
	C1833.990112,363.522400 1835.930054,357.508331 1838.165039,351.030518
	C1836.887451,351.142761 1836.044678,351.019379 1835.376221,351.304657
	C1821.651978,357.161285 1807.953735,363.078979 1794.237671,368.955048
	C1773.363525,377.897736 1752.496460,386.856750 1731.596313,395.738068
	C1703.837524,407.533783 1676.043091,419.246246 1648.301636,431.082550
	C1647.332642,431.495941 1646.150879,432.828613 1646.113770,433.773804
	C1645.903687,439.142792 1646.012207,444.524231 1646.012207,450.542725
	C1684.898193,433.928711 1722.909790,417.688232 1761.596191,401.080505
M1732.350830,456.935364
	C1703.572266,469.131134 1674.793579,481.326874 1646.217041,493.437042
	C1646.217041,499.741608 1646.217041,505.658295 1646.217041,511.756012
	C1646.922607,511.561859 1647.399170,511.487335 1647.829468,511.304291
	C1695.594849,490.987946 1743.357910,470.665649 1791.114014,450.327148
	C1792.319458,449.813812 1793.985718,449.420624 1794.525513,448.459381
	C1798.565430,441.266388 1802.375488,433.944305 1806.257568,426.662659
	C1805.940674,426.339020 1805.623779,426.015411 1805.306885,425.691772
	C1781.204590,435.960846 1757.102173,446.229919 1732.350830,456.935364
M1804.421631,198.104889
	C1804.751099,197.812851 1805.080688,197.520798 1805.410278,197.228790
	C1805.250000,197.183289 1805.091919,197.128021 1804.929321,197.093689
	C1796.314331,195.275253 1787.703125,193.438477 1779.077148,191.674225
	C1778.254028,191.505890 1777.248535,191.577148 1776.478516,191.898575
	C1763.306641,197.396942 1750.157104,202.949219 1737.005493,208.495972
	C1722.360596,214.672501 1707.698730,220.809006 1693.080688,227.048508
	C1678.452759,233.292297 1663.860229,239.619965 1649.284546,245.984955
	C1648.072144,246.514404 1646.217773,247.562622 1646.171387,248.448761
	C1645.883301,253.954712 1646.026489,259.483246 1646.026489,265.735382
	C1699.243286,243.037704 1751.507812,220.746140 1804.421631,198.104889
M1695.413208,182.973846
	C1703.211914,179.543503 1711.010620,176.113174 1719.137329,172.538544
	C1712.859985,169.785141 1707.064819,167.101486 1701.140259,164.742523
	C1699.625732,164.139465 1697.467285,163.996521 1696.002197,164.602905
	C1679.285889,171.521744 1662.646729,178.626862 1646.265503,185.564301
	C1646.265503,191.839340 1646.265503,197.733017 1646.265503,204.086777
	C1662.656372,196.963135 1678.652832,190.010895 1695.413208,182.973846
z"/>
<path fill="#FFFFFF" opacity="1.000000" stroke="none"
	d="
M399.003479,356.221924
	C405.317963,302.825623 430.909241,262.316101 476.664001,234.637466
	C493.608215,224.387329 512.016418,217.993195 531.380981,215.270752
	C548.130493,212.915939 564.997009,213.617172 581.920044,216.775726
	C627.583618,225.298492 661.776611,249.974060 686.120239,288.835236
	C696.531372,305.455170 703.619141,323.658386 705.839661,343.237366
	C707.359009,356.634094 708.807312,370.329651 707.687256,383.673370
	C705.472656,410.055969 696.505859,434.493195 681.157837,456.283569
	C670.400696,471.556122 657.368713,484.684387 642.048218,495.400330
	C625.133179,507.231598 606.510864,515.856140 586.307190,519.555298
	C571.862732,522.200012 556.744873,523.793579 542.178894,522.651123
	C500.100891,519.350525 464.465790,501.546814 436.470367,469.789215
	C418.839996,449.789612 407.462799,426.412567 401.878174,400.152008
	C398.809875,385.723816 399.012268,371.241669 399.003479,356.221924
M502.522247,452.025574
	C518.230286,461.732269 535.461243,466.921570 553.776062,466.713135
	C563.440002,466.603119 573.357849,464.624115 582.668884,461.841797
	C624.815979,449.247375 651.174805,410.529297 650.865845,367.876190
	C650.813904,360.709656 649.512634,353.439148 647.911133,346.416779
	C641.543091,318.494080 625.469666,297.512146 600.938232,283.067047
	C585.104065,273.743256 567.874695,270.121826 549.441467,270.847626
	C537.750305,271.307953 526.566650,273.485504 516.006958,278.097931
	C493.623383,287.875000 476.953094,303.798584 465.956787,325.779175
	C456.354980,344.972290 453.465759,365.275024 457.287445,385.999817
	C462.470856,414.109070 477.499237,436.254883 502.522247,452.025574
z"/>
<path fill="#FFFFFF" opacity="1.000000" stroke="none"
	d="
M3087.000000,238.004410
	C3087.000000,331.801605 3087.000000,425.099426 3087.000000,518.754761
	C3085.401123,518.842590 3083.968506,518.988220 3082.535889,518.989746
	C3066.872070,519.006165 3051.205811,518.848083 3035.545898,519.098572
	C3031.209717,519.167908 3029.881348,518.053040 3029.898682,513.565491
	C3030.066895,469.740814 3030.000000,425.915314 3030.000000,382.090027
	C3030.000000,380.270172 3030.000000,378.450317 3030.000000,376.316711
	C2990.775391,376.316711 2951.708008,376.316711 2912.248047,376.316711
	C2912.248047,423.550690 2912.248047,470.950928 2912.248047,518.633179
	C2910.793701,518.779419 2909.697754,518.984253 2908.601807,518.985657
	C2892.437988,519.006348 2876.273193,518.891846 2860.111572,519.079468
	C2856.286621,519.123840 2854.906982,518.247681 2854.911865,514.109985
	C2855.026367,418.794342 2855.009521,323.478485 2854.959473,228.162704
	C2854.957764,224.925430 2855.167725,222.866074 2859.388672,222.915451
	C2876.705322,223.118057 2894.025635,223.000107 2911.739502,223.000107
	C2911.739502,255.203018 2911.739502,287.272675 2911.739502,319.670593
	C2951.198975,319.670593 2990.266357,319.670593 3030.000000,319.670593
	C3030.000000,318.129303 3030.000000,316.376892 3030.000000,314.624481
	C3030.000000,285.963074 3030.079102,257.301239 3029.913818,228.640793
	C3029.889404,224.408386 3030.829102,222.821304 3035.411621,222.893524
	C3052.385498,223.160995 3069.365967,223.000031 3087.000000,223.000031
	C3087.000000,227.985428 3087.000000,232.745239 3087.000000,238.004410
z"/>
<path fill="#FFFFFF" opacity="1.000000" stroke="none"
	d="
M843.753296,400.263275
	C837.976440,392.427338 832.524109,384.796539 826.846924,377.336823
	C825.952209,376.161224 824.063538,375.160736 822.594910,375.104095
	C816.284241,374.860870 809.958801,375.000275 803.241455,375.000275
	C803.241455,422.888580 803.241455,470.626648 803.241455,518.682007
	C784.775269,518.682007 766.701843,518.682007 747.948853,518.682007
	C747.948853,517.263672 747.948853,515.676331 747.948853,514.088989
	C747.949036,418.927551 747.989990,323.766052 747.831787,228.604889
	C747.823669,223.726028 749.413330,222.887253 753.814026,222.908539
	C787.978027,223.073853 822.143188,222.955139 856.307861,223.018570
	C873.506042,223.050491 888.458618,229.381546 901.579224,240.130692
	C914.250793,250.512009 923.004700,263.531219 927.223511,279.533325
	C933.509644,303.376221 929.021484,325.119324 914.548157,344.815491
	C911.054321,349.570068 906.895752,353.975128 902.436646,357.841827
	C898.093140,361.608307 892.973022,364.479126 887.877930,367.958893
	C924.084412,417.842194 960.418152,467.900879 997.506958,518.999817
	C974.625549,518.999817 953.491577,519.041626 932.358704,518.903320
	C930.987610,518.894348 929.159302,517.839905 928.327576,516.699951
	C909.425537,490.792267 890.637695,464.801208 871.817810,438.833496
	C862.557373,426.055969 853.275696,413.293884 843.753296,400.263275
M864.894897,281.393585
	C860.368530,280.262360 855.866028,278.283783 851.311462,278.155701
	C836.502686,277.739258 821.674927,277.992615 806.854431,278.012939
	C805.597046,278.014648 804.339905,278.200684 803.354126,278.279388
	C803.354126,292.233734 803.354126,305.787476 803.354126,319.455902
	C820.524414,319.455902 837.342163,319.582153 854.156738,319.407013
	C863.735413,319.307251 871.199768,313.810852 873.753662,305.612122
	C876.387451,297.156799 872.826477,287.042603 864.894897,281.393585
z"/>
<path fill="#FFFFFF" opacity="1.000000" stroke="none"
	d="
M1085.000000,223.000031
	C1127.143555,223.000031 1168.787109,223.000031 1210.715088,223.000031
	C1210.715088,241.292725 1210.715088,259.365143 1210.715088,277.839722
	C1165.031006,277.839722 1119.291260,277.839722 1073.276367,277.839722
	C1073.276367,291.975616 1073.276367,305.714722 1073.276367,319.856567
	C1112.985596,319.856567 1152.725586,319.856567 1192.731934,319.856567
	C1192.731934,338.993652 1192.731934,357.732422 1192.731934,376.873322
	C1152.997559,376.873322 1113.257446,376.873322 1073.259644,376.873322
	C1073.259644,405.515320 1073.259644,433.757446 1073.259644,462.462708
	C1117.754272,462.462708 1162.159546,462.462708 1206.780762,462.462708
	C1206.780762,481.373840 1206.780762,499.825378 1206.780762,518.638672
	C1143.523560,518.638672 1080.115601,518.638672 1016.022644,518.638672
	C1015.960815,517.402039 1015.813354,515.826843 1015.813232,514.251648
	C1015.804565,418.919006 1015.832336,323.586365 1015.727478,228.253845
	C1015.722961,224.148468 1016.768005,222.860443 1021.001404,222.902893
	C1042.165894,223.115143 1063.333496,223.000031 1085.000000,223.000031
z"/>
<path fill="#FFFFFF" opacity="1.000000" stroke="none"
	d="
M2498.998047,275.802887
	C2497.398682,276.857483 2495.802734,277.922363 2494.203369,277.927124
	C2461.543701,278.024170 2428.883789,278.000000 2396.223877,278.000000
	C2384.726807,278.000000 2373.229736,278.000000 2361.366211,278.000000
	C2361.366211,291.789581 2361.366211,305.529572 2361.366211,319.839905
	C2400.910889,319.839905 2440.765137,319.839905 2480.794922,319.839905
	C2480.794922,339.144958 2480.794922,357.880554 2480.794922,377.008667
	C2440.858398,377.008667 2401.124023,377.008667 2361.216309,377.008667
	C2361.216309,405.648407 2361.216309,433.895233 2361.216309,462.577423
	C2405.848389,462.577423 2450.266357,462.577423 2494.840332,462.577423
	C2494.840332,481.468567 2494.840332,499.924988 2494.840332,518.690918
	C2431.425049,518.690918 2368.023926,518.690918 2303.938477,518.690918
	C2303.857178,517.007202 2303.684570,515.098633 2303.684326,513.190125
	C2303.671143,418.376282 2303.704590,323.562408 2303.575684,228.748749
	C2303.569336,224.203079 2304.641357,222.874771 2309.356689,222.887375
	C2372.337891,223.055847 2435.320068,223.000031 2499.000000,223.000031
	C2499.000000,240.497574 2499.000000,257.908539 2498.998047,275.802887
z"/>
<path fill="#FFFFFF" opacity="1.000000" stroke="none"
	d="
M2739.482666,290.438110
	C2722.695557,278.420715 2704.654541,271.591217 2684.066650,270.846619
	C2658.886963,269.935944 2636.836670,277.276611 2617.449463,293.067871
	C2598.780273,308.274109 2587.366211,327.688873 2582.934326,351.463257
	C2573.377930,402.727814 2606.735107,450.911652 2653.211426,463.302155
	C2690.035645,473.119354 2722.625488,464.435425 2750.133789,437.997589
	C2755.822021,432.530670 2760.389404,425.897217 2765.672363,419.562561
	C2780.628418,430.587463 2795.374268,441.457642 2810.107178,452.318237
	C2771.894775,510.278564 2705.458252,536.421204 2637.551270,517.466125
	C2573.063232,499.465363 2519.760498,439.616272 2525.200439,356.595673
	C2529.163086,296.122620 2571.802734,236.255936 2642.607666,218.462494
	C2708.613525,201.875061 2773.513672,229.621536 2810.426758,285.400269
	C2807.298584,287.760437 2804.154053,290.198914 2800.941650,292.544464
	C2789.972656,300.553497 2778.890625,308.412170 2768.062256,316.606476
	C2765.557129,318.502228 2764.809082,317.799255 2763.041504,315.822510
	C2755.426758,307.305603 2747.554932,299.018524 2739.482666,290.438110
z"/>
<path fill="#FFFFFF" opacity="1.000000" stroke="none"
	d="
M169.081573,506.006775
	C159.907974,499.971130 150.731888,494.450958 142.390259,487.872650
	C121.811134,471.643738 106.514145,451.327606 96.966667,426.773438
	C90.942238,411.279816 87.006622,395.467590 85.836441,378.742645
	C83.110893,339.787598 94.550720,305.414093 117.859955,274.660522
	C139.604568,245.971268 168.428818,227.717773 202.982864,218.411118
	C219.226715,214.036072 235.972656,212.752289 252.642883,214.153763
	C285.967407,216.955368 315.722748,228.881180 340.877808,251.344788
	C345.939178,255.864624 351.143250,260.302002 355.658630,265.336090
	C361.178986,271.490692 366.042755,278.234222 371.554352,285.181732
	C366.565369,288.901245 361.830627,292.480377 357.044281,295.989075
	C347.784088,302.777374 338.375458,309.371338 329.289703,316.384430
	C326.533325,318.511993 325.353760,318.242676 323.477142,315.573456
	C314.055756,302.172974 302.914917,290.525299 288.413025,282.506134
	C275.629120,275.436951 262.102814,271.263336 247.307968,270.892181
	C233.303925,270.540863 219.702148,271.556030 206.514893,276.790344
	C189.892731,283.388000 175.658066,292.935028 164.283615,307.005585
	C156.650162,316.448395 150.643967,326.612396 147.035828,338.073120
	C136.170044,372.586517 142.472260,403.986694 165.382751,431.842560
	C181.361374,451.270172 202.094284,462.740234 227.094116,465.963196
	C262.814240,470.568176 292.541718,458.962433 316.345856,432.078033
	C319.827820,428.145508 322.854401,423.809784 326.311462,419.378876
	C341.619202,430.709991 356.505280,441.728943 371.930298,453.146820
	C362.064117,463.863007 353.547119,474.450867 343.669250,483.563629
	C323.254303,502.397308 299.350433,514.704895 271.822632,520.172791
	C256.923035,523.132324 241.971405,523.865601 227.089249,522.771912
	C206.860687,521.285461 187.341522,516.184326 169.081573,506.006775
z"/>
<path fill="#FFFFFF" opacity="1.000000" stroke="none"
	d="
M2263.000000,273.888794
	C2263.000000,275.819427 2263.000000,277.261505 2263.000000,278.909790
	C2238.897461,278.909790 2215.283691,278.909790 2191.304688,278.909790
	C2191.304688,358.835510 2191.304688,438.549652 2191.304688,518.661499
	C2189.724854,518.792542 2188.474365,518.984924 2187.223633,518.986511
	C2171.230713,519.006958 2155.235596,518.862122 2139.246094,519.093262
	C2135.052734,519.153931 2133.906250,517.911438 2133.914062,513.744751
	C2134.036621,447.773621 2134.000000,381.802185 2134.000000,315.830811
	C2134.000000,303.706482 2134.000000,291.582184 2134.000000,279.076355
	C2109.936035,279.076355 2086.199951,279.076355 2061.938721,279.076355
	C2061.938721,269.096924 2061.938721,259.493073 2061.938721,249.889236
	C2061.938721,242.725677 2062.222412,235.546768 2061.835938,228.404114
	C2061.589844,223.851959 2063.197266,222.896942 2067.494385,222.907455
	C2124.302734,223.046326 2181.111572,223.000031 2237.920166,223.000031
	C2246.069336,223.000031 2254.218506,223.000031 2263.000000,223.000031
	C2263.000000,239.902069 2263.000000,256.651154 2263.000000,273.888794
z"/>
<path fill="#FFFFFF" opacity="1.000000" stroke="none"
	d="
M1973.768066,824.000732
	C1964.012451,824.000732 1954.728149,824.000732 1945.061157,824.000732
	C1945.061157,836.405762 1945.061157,848.473145 1945.061157,860.767334
	C1940.610840,860.767334 1936.542236,860.767334 1931.999390,860.767334
	C1931.999390,857.754211 1931.999390,854.807678 1931.999390,851.861145
	C1931.999390,827.056030 1932.111206,802.249939 1931.897217,777.446655
	C1931.858154,772.933411 1933.298706,771.823669 1937.595459,771.906799
	C1950.742188,772.161194 1963.910278,771.632507 1977.045166,772.102356
	C1990.256104,772.574890 1998.431396,777.918945 2001.421509,787.617310
	C2005.027466,799.314270 2002.851318,810.808228 1992.382202,817.485779
	C1998.620483,820.945557 2000.860229,826.492981 2001.036743,833.289001
	C2001.203369,839.703796 2001.545166,846.121582 2002.099121,852.513062
	C2002.226318,853.981689 2003.517578,855.358093 2004.307007,856.757935
	C2004.965088,857.924561 2005.672729,859.063232 2006.696533,860.782166
	C2000.717285,860.782166 1995.625977,860.782166 1989.504761,860.782166
	C1989.006226,853.224243 1988.277100,845.598694 1988.056396,837.958496
	C1987.780396,828.403320 1983.750000,824.126160 1973.768066,824.000732
M1972.339111,812.000122
	C1973.669556,811.999939 1975.008789,812.099915 1976.328979,811.983337
	C1984.490601,811.262878 1988.703003,807.353088 1988.999878,800.293579
	C1989.403564,790.693420 1985.890259,784.572449 1978.454102,784.178162
	C1967.408081,783.592346 1956.307861,784.026367 1945.260620,784.026367
	C1945.260620,793.615112 1945.260620,802.674072 1945.260620,811.586914
	C1945.658325,811.801941 1945.795288,811.940552 1945.932617,811.940979
	C1954.414062,811.967896 1962.895508,811.983459 1972.339111,812.000122
z"/>
<path fill="#FFFFFF" opacity="1.000000" stroke="none"
	d="
M2040.000000,849.980713
	C2040.000000,825.668701 2040.121460,801.853394 2039.899536,778.041260
	C2039.854248,773.179688 2041.347900,771.822083 2046.152588,771.892761
	C2064.300537,772.159607 2082.455078,771.994507 2100.607178,772.009460
	C2102.225342,772.010742 2103.843750,772.145020 2105.721191,772.229187
	C2105.721191,776.152344 2105.721191,779.755432 2105.721191,783.745239
	C2088.802734,783.745239 2071.733643,783.745239 2054.333008,783.745239
	C2054.333008,792.342712 2054.333008,800.568542 2054.333008,809.357666
	C2069.945801,809.357666 2085.650146,809.357666 2101.673340,809.357666
	C2101.673340,813.785339 2101.673340,817.662537 2101.673340,821.936523
	C2085.936035,821.936523 2070.200928,821.936523 2054.235352,821.936523
	C2054.235352,831.054504 2054.235352,839.787903 2054.235352,849.000000
	C2068.577148,849.000000 2082.842773,849.000000 2097.108643,849.000000
	C2107.196045,849.000000 2107.198242,849.000061 2106.990967,859.064880
	C2106.981201,859.540344 2106.880615,860.013977 2106.791260,860.739624
	C2084.684326,860.739624 2062.620850,860.739624 2040.000000,860.739624
	C2040.000000,857.352905 2040.000000,853.915649 2040.000000,849.980713
z"/>
<path fill="#FFFFFF" opacity="1.000000" stroke="none"
	d="
M1302.000000,772.000000
	C1310.659424,772.000000 1318.825073,772.190491 1326.975342,771.916565
	C1330.831543,771.786865 1332.624634,772.723938 1332.051514,776.869995
	C1331.758667,778.987976 1332.000000,781.179810 1332.000000,783.717102
	C1314.835205,783.717102 1297.765625,783.717102 1280.348633,783.717102
	C1280.348633,792.455078 1280.348633,800.819946 1280.348633,809.552429
	C1296.086426,809.552429 1311.694336,809.552429 1327.647461,809.552429
	C1327.647461,813.771545 1327.647461,817.644714 1327.647461,821.913330
	C1311.959351,821.913330 1296.224854,821.913330 1280.247559,821.913330
	C1280.247559,831.028015 1280.247559,839.761414 1280.247559,849.000000
	C1292.546387,849.000000 1304.809570,849.000000 1317.072632,849.000000
	C1320.736084,849.000000 1324.422974,849.259949 1328.056641,848.931091
	C1332.152954,848.560303 1333.493042,850.179077 1333.043457,854.074707
	C1332.800049,856.184082 1333.000000,858.344543 1333.000000,860.739685
	C1310.685913,860.739685 1288.623901,860.739685 1266.226074,860.739685
	C1266.152710,859.520325 1266.010376,858.249939 1266.009766,856.979370
	C1265.996826,830.502991 1266.090942,804.026001 1265.909424,777.550842
	C1265.879517,773.192078 1267.075928,771.758301 1271.529907,771.900391
	C1281.510864,772.218750 1291.508911,772.000000 1302.000000,772.000000
z"/>
<path fill="#FFFFFF" opacity="1.000000" stroke="none"
	d="
M1164.000000,785.026428
	C1164.000000,772.000000 1164.000000,771.998352 1176.669678,772.000427
	C1193.822998,772.003235 1210.976440,772.007629 1228.129761,772.021606
	C1228.455688,772.021851 1228.781616,772.148438 1229.553589,772.308594
	C1229.553589,775.917969 1229.553589,779.634460 1229.553589,783.751953
	C1212.795654,783.751953 1195.726074,783.751953 1178.329224,783.751953
	C1178.329224,792.351318 1178.329224,800.577881 1178.329224,809.357910
	C1193.954224,809.357910 1209.662598,809.357910 1225.680664,809.357910
	C1225.680664,813.782959 1225.680664,817.664612 1225.680664,821.942200
	C1209.929321,821.942200 1194.194458,821.942200 1178.232178,821.942200
	C1178.232178,831.061157 1178.232178,839.794861 1178.232178,849.000000
	C1192.252686,849.000000 1206.186646,849.000000 1220.120728,849.000000
	C1231.583496,849.000000 1231.583496,849.000000 1230.722168,860.741455
	C1208.679565,860.741455 1186.615967,860.741455 1164.000000,860.741455
	C1164.000000,835.681702 1164.000000,810.601379 1164.000000,785.026428
z"/>
<path fill="#FEFEFE" opacity="1.000000" stroke="none"
	d="
M1575.859253,826.555542
	C1578.001953,835.577637 1578.636230,843.915833 1573.093506,851.829895
	C1568.092773,858.970093 1560.730103,861.245911 1552.926514,862.997559
	C1543.409424,865.133789 1534.041260,863.919800 1524.987427,860.931519
	C1513.950073,857.288635 1506.791382,847.154541 1505.975586,835.950989
	C1505.749268,832.843506 1507.068726,831.770203 1510.063232,831.960205
	C1512.862305,832.137756 1515.681519,831.998169 1518.464355,831.998169
	C1520.847046,847.669739 1533.822632,855.784363 1549.756592,851.678833
	C1552.078613,851.080505 1554.411865,850.430176 1556.625610,849.524597
	C1562.577759,847.089905 1564.233276,844.208130 1564.056885,837.095215
	C1563.921143,831.612000 1561.326294,827.666077 1555.888184,826.119812
	C1546.736328,823.517700 1537.506470,821.146240 1528.223145,819.061340
	C1518.481812,816.873413 1511.459839,812.042297 1509.202759,801.762878
	C1507.424438,793.663208 1512.737305,781.423035 1519.820312,775.919189
	C1531.050903,767.192444 1553.210449,768.425964 1563.500732,775.223816
	C1571.715454,780.650513 1574.572632,789.052429 1575.060669,798.768677
	C1570.732788,798.768677 1566.625122,798.768677 1562.519287,798.768677
	C1560.553467,786.989929 1554.543091,782.116638 1542.350220,781.958618
	C1535.301392,781.867310 1528.539307,782.386475 1524.436279,789.106201
	C1519.850098,796.617126 1521.919800,803.518738 1530.374023,805.897217
	C1539.659058,808.509399 1549.096069,810.601074 1558.509277,812.732117
	C1566.420288,814.523071 1572.101685,818.988037 1575.859253,826.555542
z"/>
<path fill="#FFFFFF" opacity="1.000000" stroke="none"
	d="
M1626.001953,786.197388
	C1626.000122,794.143372 1626.000122,801.605957 1626.000122,809.537231
	C1642.144531,809.537231 1657.885742,809.537231 1673.809326,809.537231
	C1673.809326,813.794495 1673.809326,817.580750 1673.809326,821.752441
	C1658.130249,821.752441 1642.392822,821.752441 1626.328735,821.752441
	C1626.328735,830.860229 1626.328735,839.597046 1626.328735,848.861572
	C1643.496704,848.861572 1660.876831,848.861572 1678.624634,848.861572
	C1678.624634,853.089111 1678.624634,856.802246 1678.624634,860.764893
	C1656.949463,860.764893 1635.210327,860.764893 1613.108032,860.764893
	C1613.028809,859.536377 1612.877441,858.276428 1612.876709,857.016357
	C1612.863770,830.537476 1612.959106,804.058044 1612.775879,777.580383
	C1612.746216,773.300049 1613.745361,771.836426 1618.280762,771.893372
	C1638.051270,772.141541 1657.826782,772.000000 1677.799072,772.000000
	C1677.799072,776.123169 1677.799072,779.859253 1677.799072,784.000000
	C1661.843384,784.000000 1646.068115,783.955750 1630.294189,784.074524
	C1628.860107,784.085266 1627.433838,785.142700 1626.001953,786.197388
z"/>
<path fill="#FEFEFE" opacity="1.000000" stroke="none"
	d="
M1879.261719,801.999817
	C1879.261719,793.500732 1879.458008,785.494995 1879.184326,777.505371
	C1879.032593,773.072876 1880.632812,771.446594 1884.981689,771.948669
	C1887.415161,772.229675 1889.907715,771.999146 1893.000732,771.999146
	C1893.000732,774.167725 1893.000610,775.938110 1893.000610,777.708435
	C1893.000610,795.372925 1893.071167,813.037842 1892.976074,830.701843
	C1892.910889,842.795654 1888.125610,852.720337 1877.527832,858.752686
	C1869.255493,863.461304 1860.178345,864.942627 1850.391724,863.314392
	C1843.004272,862.085266 1836.534424,859.903015 1831.103882,854.713806
	C1824.912598,848.797913 1822.264648,841.231445 1822.109863,833.069763
	C1821.759155,814.578674 1822.114502,796.075134 1821.913940,777.579529
	C1821.867065,773.257446 1823.055176,771.706055 1827.545776,771.907532
	C1837.435303,772.351318 1835.935303,770.662170 1835.979858,780.448425
	C1836.055786,797.112732 1836.051514,813.777771 1835.984863,830.442200
	C1835.929810,844.216614 1845.821045,852.520996 1860.416992,851.311707
	C1872.253418,850.330933 1879.374023,841.900574 1879.131592,830.487122
	C1878.933594,821.163147 1879.200684,811.829346 1879.261719,801.999817
z"/>
<path fill="#FEFEFE" opacity="1.000000" stroke="none"
	d="
M1746.728760,851.341980
	C1763.553467,852.724670 1771.126099,844.946228 1774.668579,832.750854
	C1775.802246,828.848145 1777.091309,827.600342 1780.823608,827.950378
	C1783.441040,828.195862 1786.100098,827.997803 1788.771484,827.997803
	C1786.874023,845.109802 1777.583618,858.501587 1760.814331,862.528687
	C1739.194702,867.720642 1717.603271,858.851807 1711.137573,833.203674
	C1707.250854,817.786194 1708.302612,802.684265 1716.750610,788.540405
	C1726.104126,772.880615 1742.987549,767.852539 1759.506958,770.476440
	C1776.467651,773.170532 1786.235718,785.293030 1787.940674,800.001587
	C1784.295288,800.001587 1780.674194,800.240173 1777.118652,799.862427
	C1775.990112,799.742493 1774.428467,798.149048 1774.093872,796.944275
	C1769.405518,780.056519 1745.496826,777.878113 1734.310669,788.169434
	C1723.452759,798.158813 1721.884644,810.631836 1723.726074,824.414307
	C1724.780273,832.304932 1726.327515,839.986572 1732.789307,844.967468
	C1736.616577,847.917603 1741.809814,849.095703 1746.728760,851.341980
z"/>
<path fill="#FFFFFF" opacity="1.000000" stroke="none"
	d="
M1075.036011,861.000000
	C1072.906250,861.000000 1071.256836,861.000000 1069.243530,861.000000
	C1069.156616,859.409912 1069.010742,857.977600 1069.010010,856.545105
	C1068.996338,830.379700 1069.112061,804.213318 1068.899170,778.049622
	C1068.859741,773.208984 1070.289429,771.810059 1075.122070,771.890320
	C1092.116577,772.172668 1109.122437,772.199219 1126.115479,771.876648
	C1131.111694,771.781860 1132.687622,773.404724 1132.039795,778.085022
	C1131.794800,779.855408 1132.000000,781.688110 1132.000000,783.886780
	C1115.663086,783.886780 1099.583984,783.886780 1083.254761,783.886780
	C1083.254761,792.521851 1083.254761,800.762451 1083.254761,809.531860
	C1097.434814,809.531860 1111.504395,809.531860 1125.780029,809.531860
	C1125.780029,813.835266 1125.780029,817.616150 1125.780029,821.799194
	C1111.749023,821.799194 1097.670776,821.799194 1083.195068,821.799194
	C1083.195068,834.928711 1083.195068,847.672119 1083.195068,861.000000
	C1080.384277,861.000000 1077.950195,861.000000 1075.036011,861.000000
z"/>
<path fill="#FFFFFF" opacity="1.000000" stroke="none"
	d="
M1376.038818,861.000000
	C1373.210693,860.995361 1370.877563,860.997131 1368.544312,860.978577
	C1368.228760,860.976074 1367.913940,860.872009 1367.000000,860.706543
	C1367.000000,859.220459 1367.000000,857.625854 1367.000000,856.031311
	C1367.000000,830.198059 1366.999756,804.364807 1367.000366,778.531555
	C1367.000488,772.001526 1367.001587,772.001404 1373.520020,772.000061
	C1375.498413,771.999634 1377.476685,772.000000 1379.846924,772.000000
	C1379.846924,797.632324 1379.846924,823.043091 1379.846924,849.000000
	C1391.504639,849.000000 1402.773071,849.000000 1414.041504,849.000000
	C1425.406982,849.000000 1425.406982,849.000000 1424.791016,861.000000
	C1408.730347,861.000000 1392.631958,861.000000 1376.038818,861.000000
z"/>
<path fill="#000000" opacity="1.000000" stroke="none"
	d="
M1482.147461,464.855957
	C1455.495361,422.830414 1434.709961,378.522400 1422.057251,330.686218
	C1416.671997,310.326263 1412.256348,289.681549 1408.209839,269.007782
	C1406.196777,258.722992 1405.912231,248.088867 1405.028198,237.597397
	C1404.225220,228.066360 1403.773926,218.505508 1402.957031,208.975876
	C1402.580200,204.581680 1403.732788,202.926804 1408.627563,202.863327
	C1429.638062,202.590912 1450.445435,200.030167 1470.845459,194.992447
	C1489.725098,190.330231 1508.713623,185.842789 1527.162354,179.781433
	C1543.454102,174.428787 1559.358887,167.631302 1574.898438,160.330658
	C1590.272217,153.107925 1604.974976,144.457092 1619.768677,136.541550
	C1619.768677,291.601990 1619.768677,447.591156 1619.768677,604.427551
	C1562.909546,568.278625 1518.318604,520.987488 1482.147461,464.855957
z"/>
<path fill="#010000" opacity="1.000000" stroke="none"
	d="
M1699.963135,286.003784
	C1712.723999,280.624237 1725.084717,275.275818 1737.480835,270.010529
	C1753.606079,263.161133 1769.756958,256.372345 1785.901123,249.567581
	C1804.584473,241.692566 1823.284546,233.857468 1841.951538,225.944138
	C1848.668701,223.096588 1855.310913,220.072083 1862.948120,216.704636
	C1862.509399,223.024811 1862.294067,228.820892 1861.533325,234.544464
	C1861.399902,235.548325 1859.058228,236.436539 1857.600464,237.060562
	C1813.336304,256.006744 1769.061279,274.928070 1724.773926,293.819946
	C1699.168335,304.742706 1673.538452,315.608795 1647.915161,326.490082
	C1647.489258,326.670990 1647.007690,326.720642 1646.006104,326.964386
	C1646.006104,321.464417 1645.787842,316.191742 1646.159302,310.960907
	C1646.252197,309.653809 1648.006836,307.931152 1649.398804,307.332428
	C1663.105957,301.437042 1676.901733,295.747894 1690.662598,289.977173
	C1693.654419,288.722565 1696.607666,287.376007 1699.963135,286.003784
z"/>
<path fill="#010000" opacity="1.000000" stroke="none"
	d="
M1855.430420,282.504272
	C1854.517090,287.013885 1853.345093,291.490509 1852.764771,296.042572
	C1852.212158,300.378265 1849.698975,302.388885 1845.958496,303.977448
	C1781.033813,331.549805 1716.145142,359.206818 1651.242432,386.830627
	C1649.738525,387.470703 1648.161255,387.938690 1646.283081,388.606049
	C1646.283081,382.478790 1646.283081,376.605042 1646.283081,370.283386
	C1656.426758,365.938293 1666.827393,361.460541 1677.246460,357.025848
	C1691.874512,350.799500 1706.512085,344.595581 1721.152832,338.399261
	C1740.423462,330.243500 1759.716675,322.141327 1778.970947,313.947205
	C1795.694702,306.829987 1812.364380,299.586060 1829.083984,292.459198
	C1837.429932,288.901672 1845.834106,285.480804 1854.707642,282.122620
	C1855.203369,282.247101 1855.430420,282.504272 1855.430420,282.504272
z"/>
<path fill="#010000" opacity="1.000000" stroke="none"
	d="
M1761.258789,401.264130
	C1722.909790,417.688232 1684.898193,433.928711 1646.012207,450.542725
	C1646.012207,444.524231 1645.903687,439.142792 1646.113770,433.773804
	C1646.150879,432.828613 1647.332642,431.495941 1648.301636,431.082550
	C1676.043091,419.246246 1703.837524,407.533783 1731.596313,395.738068
	C1752.496460,386.856750 1773.363525,377.897736 1794.237671,368.955048
	C1807.953735,363.078979 1821.651978,357.161285 1835.376221,351.304657
	C1836.044678,351.019379 1836.887451,351.142761 1838.165039,351.030518
	C1835.930054,357.508331 1833.990112,363.522400 1831.721069,369.409668
	C1831.206299,370.745422 1829.743042,372.091522 1828.389893,372.672272
	C1806.156250,382.213867 1783.870361,391.633484 1761.258789,401.264130
z"/>
<path fill="#010000" opacity="1.000000" stroke="none"
	d="
M1732.675293,456.717163
	C1757.102173,446.229919 1781.204590,435.960846 1805.306885,425.691772
	C1805.623779,426.015411 1805.940674,426.339020 1806.257568,426.662659
	C1802.375488,433.944305 1798.565430,441.266388 1794.525513,448.459381
	C1793.985718,449.420624 1792.319458,449.813812 1791.114014,450.327148
	C1743.357910,470.665649 1695.594849,490.987946 1647.829468,511.304291
	C1647.399170,511.487335 1646.922607,511.561859 1646.217041,511.756012
	C1646.217041,505.658295 1646.217041,499.741608 1646.217041,493.437042
	C1674.793579,481.326874 1703.572266,469.131134 1732.675293,456.717163
z"/>
<path fill="#010000" opacity="1.000000" stroke="none"
	d="
M1804.096924,198.279724
	C1751.507812,220.746140 1699.243286,243.037704 1646.026489,265.735382
	C1646.026489,259.483246 1645.883301,253.954712 1646.171387,248.448761
	C1646.217773,247.562622 1648.072144,246.514404 1649.284546,245.984955
	C1663.860229,239.619965 1678.452759,233.292297 1693.080688,227.048508
	C1707.698730,220.809006 1722.360596,214.672501 1737.005493,208.495972
	C1750.157104,202.949219 1763.306641,197.396942 1776.478516,191.898575
	C1777.248535,191.577148 1778.254028,191.505890 1779.077148,191.674225
	C1787.703125,193.438477 1796.314331,195.275253 1804.929321,197.093689
	C1805.091919,197.128021 1805.250000,197.183289 1805.410278,197.228775
	C1805.080688,197.520798 1804.751099,197.812851 1804.096924,198.279724
z"/>
<path fill="#010100" opacity="1.000000" stroke="none"
	d="
M1748.757202,513.652222
	C1742.188843,521.548279 1736.261230,530.131042 1728.811890,537.082947
	C1724.339844,541.256287 1717.576660,543.079346 1711.697388,545.620972
	C1690.710938,554.693604 1669.662720,563.623535 1648.632812,572.595520
	C1648.048340,572.844910 1647.406006,572.958740 1646.010742,573.360413
	C1646.010742,567.596008 1645.868530,562.210205 1646.140015,556.845276
	C1646.189819,555.862488 1647.756714,554.577698 1648.903564,554.087891
	C1660.089966,549.309631 1671.331543,544.660706 1682.565796,539.994751
	C1699.486084,532.967163 1716.417725,525.966858 1733.333862,518.929443
	C1737.968872,517.001221 1742.565674,514.981689 1747.747803,513.158630
	C1748.462769,513.426208 1748.609985,513.539246 1748.757202,513.652222
z"/>
<path fill="#010000" opacity="1.000000" stroke="none"
	d="
M1695.031250,183.016251
	C1678.652832,190.010895 1662.656372,196.963135 1646.265503,204.086777
	C1646.265503,197.733017 1646.265503,191.839340 1646.265503,185.564301
	C1662.646729,178.626862 1679.285889,171.521744 1696.002197,164.602905
	C1697.467285,163.996521 1699.625732,164.139465 1701.140259,164.742523
	C1707.064819,167.101486 1712.859985,169.785141 1719.137329,172.538544
	C1711.010620,176.113174 1703.211914,179.543503 1695.031250,183.016251
z"/>
<path fill="#010100" opacity="1.000000" stroke="none"
	d="
M1748.120361,513.114380
	C1748.498291,512.696472 1749.071289,512.477295 1749.644287,512.258179
	C1749.494751,512.599792 1749.345215,512.941406 1748.976562,513.467651
	C1748.609985,513.539246 1748.462769,513.426208 1748.120361,513.114380
z"/>
<path fill="#010000" opacity="1.000000" stroke="none"
	d="
M1855.094238,282.114807
	C1855.216553,281.781921 1855.447876,281.581329 1855.679077,281.380676
	C1855.715088,281.632660 1855.751099,281.884613 1855.608765,282.320435
	C1855.430420,282.504272 1855.203369,282.247101 1855.094238,282.114807
z"/>
<path fill="#000000" opacity="1.000000" stroke="none"
	d="
M502.184540,451.877075
	C477.499237,436.254883 462.470856,414.109070 457.287445,385.999817
	C453.465759,365.275024 456.354980,344.972290 465.956787,325.779175
	C476.953094,303.798584 493.623383,287.875000 516.006958,278.097931
	C526.566650,273.485504 537.750305,271.307953 549.441467,270.847626
	C567.874695,270.121826 585.104065,273.743256 600.938232,283.067047
	C625.469666,297.512146 641.543091,318.494080 647.911133,346.416779
	C649.512634,353.439148 650.813904,360.709656 650.865845,367.876190
	C651.174805,410.529297 624.815979,449.247375 582.668884,461.841797
	C573.357849,464.624115 563.440002,466.603119 553.776062,466.713135
	C535.461243,466.921570 518.230286,461.732269 502.184540,451.877075
z"/>
<path fill="#000000" opacity="1.000000" stroke="none"
	d="
M865.155518,281.662109
	C872.826477,287.042603 876.387451,297.156799 873.753662,305.612122
	C871.199768,313.810852 863.735413,319.307251 854.156738,319.407013
	C837.342163,319.582153 820.524414,319.455902 803.354126,319.455902
	C803.354126,305.787476 803.354126,292.233734 803.354126,278.279388
	C804.339905,278.200684 805.597046,278.014648 806.854431,278.012939
	C821.674927,277.992615 836.502686,277.739258 851.311462,278.155701
	C855.866028,278.283783 860.368530,280.262360 865.155518,281.662109
z"/>
<path fill="#010101" opacity="1.000000" stroke="none"
	d="
M1971.858032,812.000122
	C1962.895508,811.983459 1954.414062,811.967896 1945.932617,811.940979
	C1945.795288,811.940552 1945.658325,811.801941 1945.260620,811.586914
	C1945.260620,802.674072 1945.260620,793.615112 1945.260620,784.026367
	C1956.307861,784.026367 1967.408081,783.592346 1978.454102,784.178162
	C1985.890259,784.572449 1989.403564,790.693420 1988.999878,800.293579
	C1988.703003,807.353088 1984.490601,811.262878 1976.328979,811.983337
	C1975.008789,812.099915 1973.669556,811.999939 1971.858032,812.000122
z"/>
</svg>
