<svg width="121" height="40" viewBox="0 0 121 40" fill="none" xmlns="http://www.w3.org/2000/svg">
<path d="M69.6795 0.054325C68.4856 0.292981 67.4657 1.24164 67.1597 2.41106C67.0457 2.85854 67.0457 3.6282 67.1597 4.07568C67.3157 4.67829 67.5497 5.06611 68.0296 5.54342C68.7256 6.23552 69.3555 6.49805 70.3454 6.49805C71.2753 6.49805 72.0072 6.19376 72.6492 5.54939C73.3451 4.85132 73.6451 4.06375 73.5911 3.06736C73.5251 1.86811 72.8651 0.871723 71.7732 0.32878C71.1853 0.0364258 70.3334 -0.076936 69.6795 0.054325Z" fill="#EC5C44"/>
<path d="M36.7096 10.3463C34.8918 10.5969 32.69 11.5157 31.1182 12.6971L30.7102 12.9954V11.8379V10.6744H28.3405H25.9707V22.1299V33.5854H28.3405H30.7042L30.7282 27.0343C30.7522 19.8329 30.7282 20.2983 31.1302 19.2064C31.8681 17.1898 33.6499 15.9428 36.2777 15.5967C36.6496 15.549 37.1596 15.5072 37.4056 15.5072H37.8495V12.882V10.2568L37.5675 10.2628C37.4056 10.2687 37.0216 10.3045 36.7096 10.3463Z" fill="#EC5C44"/>
<path d="M10.4033 10.3819C7.31961 10.7756 4.35591 12.488 2.4661 14.9581C-1.84147 20.5844 -0.347616 28.5138 5.71177 32.2547C8.96345 34.2594 13.079 34.5518 16.6247 33.0303C18.5445 32.2129 20.2903 30.8466 21.4722 29.2536L21.6522 29.003L19.7684 27.6009L17.8786 26.1928L17.5726 26.5747C16.7987 27.5413 15.6828 28.3646 14.5489 28.8061C12.983 29.4147 11.1412 29.4624 9.61738 28.9255C8.55549 28.5555 7.79956 28.0902 6.98965 27.3205C6.04774 26.4255 5.4658 25.5246 5.06984 24.3313C4.78787 23.4901 4.71587 22.9054 4.75187 21.8433C4.78787 20.7694 4.94985 20.0832 5.38781 19.1704C5.80776 18.2933 6.17973 17.7683 6.83366 17.1179C7.88356 16.0678 9.08943 15.4235 10.5653 15.1073C11.2972 14.9521 12.6771 14.97 13.421 15.1371C15.1008 15.5189 16.6427 16.4915 17.6266 17.7921C17.8006 18.0189 17.9085 18.1143 17.9565 18.0845C17.9925 18.0547 18.8385 17.4222 19.8404 16.6764C20.8363 15.9366 21.6522 15.3161 21.6522 15.3041C21.6522 15.2862 21.4842 15.0655 21.2802 14.8089C19.3724 12.4104 16.6007 10.8293 13.559 10.4117C12.8271 10.3103 11.1172 10.2924 10.4033 10.3819Z" fill="#EC5C44"/>
<path d="M83.7341 10.4117C81.3584 10.7578 79.7505 11.6587 78.6466 13.2696C78.1547 13.9916 77.8967 14.5703 77.6567 15.4891C77.2488 17.0523 77.3748 18.8721 77.9927 20.1429C78.2747 20.7276 78.8386 21.4913 79.2346 21.8195C80.3205 22.7204 82.1503 23.5318 84.616 24.1941C87.6457 25.0175 88.5576 25.4709 89.0616 26.4315C89.2116 26.7179 89.2356 26.8134 89.2356 27.2907C89.2356 27.7501 89.2116 27.8754 89.0736 28.1677C88.8876 28.5675 88.4616 28.9971 88.0717 29.194C87.3158 29.5758 86.0499 29.8085 85.162 29.7369C83.3981 29.5937 81.4603 28.7704 79.7685 27.4518C79.5645 27.2907 79.4026 27.2012 79.3726 27.237C79.3426 27.2668 78.7846 28.0007 78.1427 28.8718L76.9668 30.4529L77.3688 30.8288C78.2327 31.6283 79.2826 32.3383 80.3925 32.8693C83.8841 34.522 88.4976 34.3251 91.2154 32.4039C92.6012 31.4254 93.4111 30.2441 93.8671 28.5198C93.9991 28.0246 94.0231 27.8157 94.0291 26.9924C94.0351 25.7454 93.8851 25.0592 93.4051 24.0987C92.4692 22.2371 90.6994 21.1393 86.6858 19.9222C84.3221 19.2062 83.5781 18.884 82.9422 18.3053C81.6163 17.1001 82.2463 15.2803 84.1721 14.7553C84.718 14.6061 86.1699 14.6061 86.8658 14.7493C87.9817 14.9879 89.4215 15.5846 90.1955 16.1335C90.4774 16.3304 90.5014 16.3364 90.5914 16.2349C90.6454 16.1812 91.2094 15.4116 91.8453 14.5285L92.9972 12.9236L92.8592 12.8102C92.7812 12.7505 92.4572 12.5298 92.1453 12.315C90.6394 11.3067 88.9536 10.6563 87.1718 10.4117C86.3379 10.2924 84.55 10.2984 83.7341 10.4117Z" fill="#EC5C44"/>
<path d="M106.951 10.3819C102.103 11.0382 98.2158 14.7552 97.2199 19.6835C96.422 23.6153 97.5858 27.7441 100.274 30.5364C103.345 33.7284 107.959 34.8083 112.35 33.3704C114 32.8334 115.842 31.7774 117.216 30.5841C117.684 30.1844 118.482 29.3013 118.482 29.1999C118.476 29.1641 117.702 28.5973 116.754 27.935L115.032 26.7298L114.858 26.9506C114.462 27.4458 113.616 28.2214 113.124 28.5436C111.126 29.8383 108.481 30.1605 106.213 29.3908C104.389 28.7703 102.739 27.2608 101.959 25.5127C101.767 25.0771 101.443 24.0748 101.443 23.9196C101.443 23.8003 101.503 23.8003 110.719 23.8003H120L119.964 22.4101C119.91 20.4353 119.718 19.2181 119.232 17.7325C117.96 13.8901 115.008 11.3782 110.743 10.5191C110.035 10.3759 109.771 10.358 108.643 10.3401C107.935 10.3341 107.173 10.352 106.951 10.3819ZM110.023 14.6657C111.522 14.9999 112.68 15.6263 113.628 16.6168C114.42 17.4461 114.948 18.4305 115.332 19.7849L115.368 19.9221H108.499C103.789 19.9221 101.623 19.9042 101.623 19.8625C101.623 19.761 102.013 18.7826 102.193 18.4246C102.757 17.3148 103.849 16.1036 104.779 15.5488C105.649 15.0357 106.555 14.7075 107.533 14.5524C108.067 14.4688 109.429 14.5345 110.023 14.6657Z" fill="#EC5C44"/>
<path d="M42.2467 17.6073C42.2647 24.403 42.2707 24.5582 42.3966 25.2025C42.9726 28.1679 44.6104 30.6618 47.0282 32.2548C50.1419 34.3132 54.0655 34.5698 57.3711 32.9231C60.3228 31.4553 62.4166 28.7287 63.1186 25.4412L63.2565 24.7849L63.2745 17.7266L63.2925 10.6743H60.9528H58.613L58.589 17.4581C58.571 24.1823 58.571 24.2539 58.445 24.7252C57.8211 27.0402 56.0873 28.7287 53.8495 29.2C53.3095 29.3194 52.2356 29.3134 51.6657 29.1941C50.3758 28.9315 49.182 28.1917 48.318 27.1237C47.8561 26.5569 47.3401 25.5605 47.1362 24.8446L47.0042 24.3672L46.9862 17.5178L46.9622 10.6743H44.5924H42.2227L42.2467 17.6073Z" fill="#EC5C44"/>
<path d="M67.9668 22.1299V33.5854H70.3366H72.7063V22.1299V10.6744H70.3366H67.9668V22.1299Z" fill="#EC5C44"/>
</svg>
