<svg width="192" height="40" viewBox="0 0 192 40" fill="none" xmlns="http://www.w3.org/2000/svg">
<path fill-rule="evenodd" clip-rule="evenodd" d="M15.9584 29.7755V36C26.4406 36 34.6568 25.9078 31.2569 14.8707C30.5116 12.4999 29.2037 10.3441 27.4443 8.58687C25.6849 6.82966 23.5261 5.52308 21.1521 4.77844C10.1048 1.38153 0 9.58789 0 19.9642H6.2328C6.24217 18.3793 6.63501 16.8201 7.37784 15.4194C8.12067 14.0188 9.19152 12.8181 10.4992 11.9198C11.8068 11.0215 13.3125 10.452 14.888 10.2599C16.4636 10.0679 18.0622 10.2589 19.5479 10.8168C20.8279 11.2798 21.9904 12.0181 22.9531 12.9795C23.9158 13.9408 24.6552 15.1016 25.1188 16.3798C27.655 23.2331 22.6176 29.7114 16.0541 29.7738V23.6444H9.82134V29.7755H5.09983V25.8143H1.13867V29.7755H5.09983V34.5868H9.82134V29.7755H15.9584ZM50.144 11.3746C52.7891 11.3746 55.1498 12.0411 56.9437 13.2681C57.9829 13.9289 58.7374 14.8719 59.3064 16.2788C59.8734 17.4111 60.1558 18.9202 60.1558 20.5239C60.1558 22.1277 59.8752 23.6368 59.3064 24.8638C58.7915 26.0293 57.9772 27.038 56.9457 27.7873C55.0569 29.1076 52.7903 29.768 50.1457 29.768H44.3852V11.3746H50.144ZM49.579 14.4951H47.785V26.7592H49.6719C51.7499 26.7592 53.3561 26.2896 54.583 25.5322C55.9103 24.5893 56.6688 22.8832 56.6688 20.5334C56.6688 18.1836 55.9994 16.5703 54.583 15.7221C53.2612 14.8738 51.5624 14.4951 49.579 14.4951ZM63.4484 11.2376C63.692 11.1399 63.9531 11.0931 64.2156 11.1001H64.2081C64.7769 11.1001 65.2528 11.2894 65.5354 11.6681C65.7219 11.8526 65.8684 12.0733 65.9663 12.3166C66.0642 12.5598 66.1111 12.8205 66.1041 13.0825C66.1041 13.6078 65.8953 14.1116 65.5232 14.483C65.1514 14.8545 64.6467 15.0631 64.1207 15.0631C63.5947 15.0631 63.0902 14.8545 62.7182 14.483C62.3464 14.1116 62.1373 13.6078 62.1373 13.0825C62.1268 12.8112 62.1815 12.5412 62.2965 12.2952C62.4117 12.0492 62.5841 11.8342 62.7992 11.6681C62.9839 11.4818 63.2047 11.3353 63.4484 11.2376ZM65.8066 16.7597H62.5148V29.6826H65.8066V16.7597ZM77.4358 17.7336C76.5269 16.9761 75.4583 16.4814 74.3186 16.4814C73.4863 16.463 72.6597 16.6225 71.894 16.9491C71.1286 17.2756 70.4418 17.7617 69.8795 18.3748C68.7001 19.6224 68.0563 21.2814 68.0858 22.9968C68.0858 24.79 68.6546 26.3919 69.7924 27.6188C70.9301 28.8457 72.4357 29.412 74.2314 29.412C75.3868 29.4301 76.5158 29.0652 77.4415 28.3743V28.6565C77.4415 29.694 77.1591 30.55 76.5921 31.1181C76.0251 31.6861 75.2648 31.9664 74.2314 31.9664C72.7144 31.9664 71.7758 31.3981 70.6438 29.7963L68.3682 31.9664L68.4631 32.061C68.9352 32.7218 69.69 33.3864 70.6343 34.0416C71.5786 34.6968 72.8053 34.9882 74.2219 34.9882C76.2054 34.9882 77.7164 34.4202 78.8485 33.195C79.9805 31.9701 80.6424 30.4592 80.6424 28.4785V16.7597H77.4358V17.7336ZM74.5006 26.4827C75.4486 26.4827 76.2071 26.1968 76.7761 25.536L76.797 25.5303C77.3637 24.8771 77.6464 24.0155 77.6464 22.9836C77.6464 21.9516 77.3657 21.1015 76.797 20.4368C76.228 19.7722 75.4695 19.4901 74.5215 19.4901C73.5735 19.4901 72.8149 19.776 72.2459 20.4368C71.6772 21.0977 71.3757 21.9573 71.3757 22.9893C71.3757 24.0212 71.6563 24.8714 72.2251 25.536C72.7941 26.2006 73.5526 26.4827 74.5006 26.4827ZM86.9946 16.7578H83.6896L83.6687 16.7597V29.6809H86.9946V16.7578ZM84.5082 11.2376C84.7513 11.1405 85.0121 11.0937 85.2738 11.1C85.5358 11.0934 85.7965 11.14 86.0401 11.237C86.284 11.3342 86.5053 11.4798 86.6911 11.665C86.8768 11.8503 87.0229 12.0713 87.1202 12.3146C87.2178 12.558 87.2648 12.8186 87.2581 13.0807C87.2581 13.6059 87.0492 14.1097 86.6772 14.4811C86.3054 14.8526 85.8007 15.0613 85.2747 15.0613C84.7486 15.0613 84.2442 14.8526 83.8724 14.4811C83.5003 14.1097 83.2915 13.6059 83.2915 13.0807C83.2848 12.8188 83.3317 12.5583 83.4291 12.3151C83.5264 12.0719 83.6722 11.8509 83.8577 11.6657C84.0433 11.4805 84.2645 11.3348 84.5082 11.2376ZM90.8457 13.2681H94.0523L94.1509 16.8525H97.1639V19.7779H94.1413V24.6745C94.1413 25.5303 94.2381 26.0965 94.5205 26.3786C94.7103 26.6626 95.279 26.7573 96.0375 26.7573L97.1753 26.6626V29.588H96.9858C96.454 29.6667 95.9166 29.6982 95.3796 29.6826C93.7811 29.6826 92.5448 29.306 91.8849 28.6451C91.225 27.9843 90.8457 26.7649 90.8457 25.0607V19.6832H88.9497V16.7597H90.8457V13.2681ZM115.676 11.3746H112.371L112.375 11.386V29.768H115.676V11.3746ZM147.032 26.6721C147.617 26.2225 148.155 25.715 148.638 25.1573V25.1459L150.809 27.3159C149.488 29.2017 147.599 30.2395 145.238 30.2395C144.37 30.2544 143.51 30.0855 142.712 29.7442C141.915 29.4028 141.199 28.8966 140.611 28.2588C139.377 27.0319 138.715 25.341 138.715 23.4475C138.694 21.658 139.375 19.9313 140.611 18.6361C141.933 17.3164 143.444 16.6555 145.238 16.6555C147.411 16.6555 149.205 17.5038 150.622 19.297L148.45 21.3798C147.506 20.2475 146.374 19.5867 145.335 19.5867C144.888 19.5663 144.442 19.6493 144.033 19.8293C143.623 20.0093 143.261 20.2814 142.974 20.6243C142.309 21.3798 142.026 22.2281 142.026 23.3604C142.026 24.4927 142.312 25.3391 142.974 26.0965C143.273 26.423 143.636 26.6844 144.04 26.8646C144.445 27.0447 144.882 27.1397 145.325 27.1436C145.927 27.1467 146.518 26.9835 147.032 26.6721ZM160.057 17.1233C160.805 17.4639 161.456 17.9844 161.953 18.638L161.921 18.6229C162.404 19.1895 162.731 19.8722 162.869 20.6035C163.141 21.3949 163.269 22.2285 163.248 23.065V24.292H154.56C154.658 25.1365 154.939 25.8011 155.508 26.2726C156.159 26.7748 156.961 27.0418 157.783 27.03C158.343 27.0508 158.898 26.92 159.39 26.6513C159.747 26.4973 160.07 26.2725 160.338 25.9904C160.437 25.8911 160.536 25.8034 160.631 25.7195C160.809 25.5618 160.972 25.4172 161.096 25.233L163.267 27.3159L163.172 27.4106C161.756 29.2037 159.96 30.052 157.789 30.052C155.806 30.052 154.292 29.3854 153.067 28.1585C151.843 26.9315 151.274 25.3277 151.274 23.3471C151.239 21.6067 151.807 19.9076 152.88 18.5358C154.014 17.216 155.525 16.5552 157.319 16.5552C158.263 16.5325 159.2 16.7269 160.057 17.1233ZM155.72 20.149C155.308 20.5704 155.015 21.093 154.871 21.6638H159.883C159.789 21.0958 159.6 20.5277 159.221 20.149C158.843 19.6776 158.185 19.4882 157.427 19.4882C157.112 19.4744 156.798 19.526 156.504 19.6397C156.21 19.7535 155.944 19.9269 155.72 20.149ZM170.454 16.5685C172.153 16.5685 173.565 16.9472 174.513 17.7954L174.519 17.7973C175.564 18.6456 176.036 19.8669 176.036 21.3817V29.6826H172.826V28.6451C171.692 29.4991 170.551 29.9706 169.331 29.9706C168.112 29.9706 167.063 29.6866 166.216 28.9328C165.368 28.1793 164.989 27.2363 164.989 26.0094C164.989 24.6953 165.467 23.5592 166.506 22.8018C167.545 22.0444 168.867 21.6657 170.473 21.6657C171.275 21.6602 172.073 21.7882 172.834 22.0444V21.3836C172.844 21.1122 172.789 20.8423 172.674 20.5963C172.559 20.3502 172.387 20.1352 172.172 19.9692C171.687 19.5858 171.083 19.3848 170.465 19.4011C169.144 19.4011 168.199 19.8802 167.35 21.2946L165.264 19.314C165.728 18.3673 166.585 17.7026 167.435 17.2312C168.391 16.8227 169.415 16.5979 170.454 16.5685ZM170.275 24.398C169.608 24.398 169.138 24.4946 168.759 24.7767L168.76 24.771C168.585 24.8896 168.436 25.0429 168.322 25.2213C168.208 25.3998 168.132 25.5997 168.099 25.8087C168.099 26.1874 168.283 26.4714 168.571 26.7554C168.859 27.0394 169.329 27.1341 169.898 27.1341C170.939 27.1533 171.95 26.7832 172.731 26.0965V24.8695C171.942 24.5853 171.114 24.4262 170.275 24.398ZM184.806 16.47C186.412 16.47 187.635 16.9472 188.583 17.9848C189.433 19.0224 189.905 20.4375 190 22.23V29.7869H186.71V22.2413C186.724 21.4933 186.492 20.7614 186.048 20.1585C185.843 19.9078 185.581 19.7087 185.285 19.5772C184.988 19.4457 184.665 19.3853 184.342 19.4011C183.982 19.39 183.624 19.4605 183.296 19.6075C182.967 19.7544 182.676 19.9739 182.445 20.2494C181.973 20.8137 181.784 21.66 181.784 22.6068V29.7717H178.478V16.8487H181.691V17.6061C182.445 16.8487 183.484 16.47 184.806 16.47ZM104.256 16.5685C105.955 16.5685 107.367 16.9472 108.315 17.7954L108.317 17.7973C109.265 18.6456 109.834 19.8669 109.834 21.3817V29.6809H106.624V28.6432C105.49 29.4972 104.349 29.9686 103.129 29.9686C101.91 29.9686 100.862 29.6846 100.014 28.9311C99.1662 28.1774 98.7869 27.2345 98.7869 26.0075C98.7869 24.6934 99.2648 23.5573 100.304 22.7999C101.343 22.0425 102.665 21.6638 104.271 21.6638C105.073 21.6583 105.871 21.7863 106.632 22.0425V21.3817C106.642 21.1103 106.588 20.8404 106.473 20.5943C106.357 20.3483 106.185 20.1333 105.97 19.9673C105.485 19.5839 104.881 19.3829 104.263 19.3992C102.942 19.3992 101.997 19.8783 101.148 21.2927L99.0621 19.3121C99.5265 18.3654 100.384 17.7008 101.233 17.2293C102.19 16.821 103.216 16.5968 104.256 16.5685ZM103.979 24.398C103.311 24.398 102.841 24.4946 102.462 24.7767L102.464 24.771C102.169 25.0638 101.943 25.4182 101.802 25.8087C101.802 26.1874 101.986 26.4714 102.274 26.7554C102.562 27.0394 103.033 27.1341 103.601 27.1341C104.642 27.1533 105.653 26.7832 106.434 26.0965V24.8695C105.645 24.5853 104.817 24.4262 103.979 24.398ZM122.244 28.4659C123.798 29.5019 125.625 30.0545 127.494 30.0538C129.996 30.0438 132.392 29.0468 134.161 27.2796C135.93 25.5126 136.927 23.119 136.937 20.6205C136.937 18.7546 136.383 16.9306 135.344 15.3792C134.306 13.8279 132.83 12.6188 131.104 11.9049C129.378 11.191 127.478 11.0044 125.645 11.3687C123.813 11.733 122.129 12.6318 120.808 13.9515C119.487 15.2711 118.588 16.9523 118.224 18.7825C117.86 20.6126 118.048 22.5095 118.763 24.2331C119.479 25.9568 120.69 27.4298 122.244 28.4659ZM124.08 15.425C125.091 14.7527 126.279 14.3948 127.494 14.3966L127.486 14.4004C128.293 14.3989 129.092 14.5565 129.837 14.8641C130.583 15.1717 131.26 15.6233 131.83 16.193C132.401 16.7626 132.853 17.4391 133.16 18.1836C133.468 18.9281 133.626 19.726 133.624 20.5315C133.623 21.7444 133.262 22.9298 132.587 23.9377C131.911 24.9457 130.951 25.7309 129.829 26.1941C128.706 26.6573 127.472 26.7776 126.28 26.5399C125.089 26.3021 123.996 25.7169 123.138 24.8584C122.28 23.9998 121.696 22.9065 121.461 21.7166C121.225 20.5268 121.348 19.2939 121.815 18.174C122.281 17.0541 123.069 16.0974 124.08 15.425Z" fill="#0080FF"/>
</svg>
