<?xml version="1.0" encoding="UTF-8"?> <svg xmlns="http://www.w3.org/2000/svg" xmlns:xlink="http://www.w3.org/1999/xlink" width="240px" height="70px" viewBox="0 0 240 70" version="1.1"><title>logo-exein</title><g id="logo-exein" stroke="none" stroke-width="1" fill="none" fill-rule="evenodd"><g id="Exein_BW" transform="translate(0.000000, 28.000000)" fill="#000000"><path d="M122.108385,19.4431 C121.995916,19.2761 121.999933,19.0611 122.117423,18.8981 L132.634243,4.3611 C132.839096,4.0251 132.870226,3.7321 132.727632,3.4891 C132.502695,3.1061 131.989556,3.1061 131.820854,3.1061 L129.749222,3.1061 C129.179849,3.1061 128.699849,3.3771 128.321272,3.9101 L119.673238,16.2501 C119.47441,16.5321 119.045623,16.5331 118.844787,16.2521 L110.107381,3.9601 C109.827213,3.4091 109.286962,3.1061 108.587046,3.1061 L106.639933,3.1061 C106.297506,3.1061 106.027381,3.2171 105.838594,3.4361 C105.726126,3.5651 105.501188,3.9161 105.844619,4.3881 L116.344368,18.9471 C116.461858,19.1101 116.46487,19.3261 116.352402,19.4931 L105.182862,35.8941 C105.006126,36.2411 104.993071,36.5371 105.143699,36.7731 C105.292318,37.0041 105.564452,37.1211 105.950059,37.1211 L108.084954,37.1211 C108.611146,37.1211 109.048971,36.8851 109.390393,36.4151 L118.780519,22.4341 C118.977339,22.1391 119.423197,22.1391 119.620017,22.4341 L129.018176,36.4271 C129.352569,36.8871 129.789389,37.1211 130.313573,37.1211 L132.449473,37.1211 C132.901356,37.1211 133.200603,36.9901 133.340184,36.7321 C133.477757,36.4811 133.426544,36.1821 133.189556,35.8511 L122.108385,19.4431 Z" id="Fill-1"></path><path d="M192.166895,3.1062 L190.285054,3.1062 C189.731749,3.1062 189.282879,3.5412 189.282879,4.0782 L189.282879,36.1492 C189.282879,36.6862 189.731749,37.1212 190.285054,37.1212 L192.166895,37.1212 C192.860787,37.1212 193.292586,36.7222 193.292586,36.0812 L193.292586,4.1472 C193.292586,3.5052 192.860787,3.1062 192.166895,3.1062" id="Fill-3"></path><path d="M238.321105,3.1062 L236.562778,3.1062 C235.868887,3.1062 235.438092,3.5052 235.438092,4.1472 L235.438092,28.5052 C235.438092,28.9832 234.801439,29.1742 234.52328,28.7802 L216.718092,3.6232 C216.508218,3.2802 216.12964,3.1062 215.589389,3.1062 L213.893322,3.1062 C213.306879,3.1062 212.8319,3.5672 212.8319,4.1362 L212.8319,36.0812 C212.8319,36.6552 213.3119,37.1212 213.904368,37.1212 L215.714912,37.1212 C216.419849,37.1212 216.840603,36.7322 216.840603,36.0812 L216.840603,10.1002 L235.524452,36.3842 C235.902025,36.8732 236.356921,37.1212 236.877088,37.1212 L238.321105,37.1212 C239.014996,37.1212 239.446795,36.7222 239.446795,36.0812 L239.446795,4.1472 C239.446795,3.5052 239.014996,3.1062 238.321105,3.1062" id="Fill-5"></path><path d="M88.6379247,33.9573 L74.1515649,33.9573 C73.3331548,33.9573 72.6703933,33.3143 72.6703933,32.5203 L72.6703933,21.3893 C72.5458745,21.3893 85.5139079,21.3863 85.5139079,21.3863 C86.3393473,21.3863 86.7480502,21.0413 88.4631967,19.3023 C88.7142427,19.0483 88.6851213,18.7613 88.5746611,18.5723 C88.3939079,18.2643 87.8857908,18.2223 87.3636151,18.2223 C87.3636151,18.2223 72.6944937,18.2203 72.6703933,18.2183 L72.6764184,6.2703 L86.7872134,6.2703 C87.6126527,6.2703 88.0223598,5.9253 89.7375063,4.1863 C89.9875481,3.9333 89.959431,3.6453 89.8489707,3.4563 C89.6682176,3.1483 89.1601004,3.1063 88.6379247,3.1063 L69.7180921,3.1063 C69.1316485,3.1063 68.6566695,3.5673 68.6566695,4.1363 L68.6566695,36.0813 C68.6566695,36.6553 69.1366695,37.1213 69.7291381,37.1213 L86.7872134,37.1223 C87.6126527,37.1223 88.0223598,36.7763 89.7375063,35.0383 C89.9875481,34.7843 89.959431,34.4973 89.8489707,34.3073 C89.6682176,33.9993 89.1601004,33.9573 88.6379247,33.9573" id="Fill-7"></path><path d="M169.518326,33.9573 L155.032971,33.9573 C154.213556,33.9573 153.550795,33.3143 153.550795,32.5203 L153.550795,21.3893 C153.426276,21.3893 166.39431,21.3863 166.39431,21.3863 C167.219749,21.3863 167.628452,21.0413 169.343598,19.3023 C169.594644,19.0483 169.565523,18.7613 169.455063,18.5723 C169.27431,18.2643 168.766192,18.2223 168.244017,18.2223 C168.244017,18.2223 153.5759,18.2203 153.550795,18.2183 L153.55682,6.2703 L167.668619,6.2703 C168.493054,6.2703 168.902762,5.9253 170.617908,4.1863 C170.86795,3.9333 170.839833,3.6453 170.729372,3.4563 C170.548619,3.1483 170.041506,3.1063 169.518326,3.1063 L150.599498,3.1063 C150.01205,3.1063 149.537071,3.5673 149.537071,4.1363 L149.537071,36.0813 C149.537071,36.6553 150.017071,37.1213 150.60954,37.1213 L167.668619,37.1223 C168.493054,37.1223 168.902762,36.7763 170.617908,35.0383 C170.86795,34.7843 170.839833,34.4973 170.729372,34.3073 C170.548619,33.9993 170.041506,33.9573 169.518326,33.9573" id="Fill-9"></path><path d="M33.9068787,2.6228 C33.5955816,2.6228 33.2943264,2.5008 33.0774226,2.2748 C33.0211883,2.2188 32.9739916,2.1628 32.926795,2.0958 C32.888636,2.0308 32.8514812,1.9638 32.823364,1.8988 C32.7952469,1.8238 32.7661255,1.7478 32.7570879,1.6728 C32.7380084,1.5978 32.7289707,1.5228 32.7289707,1.4468 C32.7289707,1.1368 32.8514812,0.8358 33.0774226,0.6098 C33.5202678,0.1768 34.3025272,0.1768 34.7453724,0.6098 C34.9622762,0.8358 35.0847866,1.1368 35.0847866,1.4468 C35.0847866,1.5228 35.0747448,1.5978 35.0657071,1.6728 C35.0466276,1.7478 35.0285523,1.8238 34.9903933,1.8988 C34.9622762,1.9638 34.9251213,2.0308 34.8869623,2.0958 C34.8397657,2.1628 34.792569,2.2188 34.7453724,2.2748 C34.519431,2.5008 34.2181757,2.6228 33.9068787,2.6228" id="Fill-11"></path><path d="M16.539113,1.447 C16.539113,0.798 17.0663096,0.271 17.7170209,0.271 C18.366728,0.271 18.8949289,0.798 18.8949289,1.447 C18.8949289,2.096 18.366728,2.623 17.7170209,2.623 C17.0663096,2.623 16.539113,2.096 16.539113,1.447 M21.9295732,1.447 C21.9295732,0.798 22.4577741,0.271 23.1165188,0.271 C23.7571883,0.271 24.2853891,0.798 24.2853891,1.447 C24.2853891,2.096 23.7571883,2.623 23.1165188,2.623 C22.4577741,2.623 21.9295732,2.096 21.9295732,1.447 M27.3290711,1.447 C27.3290711,0.798 27.857272,0.271 28.5069791,0.271 C29.1566862,0.271 29.684887,0.798 29.684887,1.447 C29.684887,2.096 29.1566862,2.623 28.5069791,2.623 C27.857272,2.623 27.3290711,2.096 27.3290711,1.447" id="Fill-13"></path><path d="M12.3174226,2.6228 C12.2421088,2.6228 12.166795,2.6138 12.0814393,2.5948 C12.0161674,2.5848 11.9408536,2.5578 11.8645356,2.5288 C11.7992636,2.5008 11.7239498,2.4628 11.6677155,2.4258 C11.6014393,2.3788 11.5351632,2.3308 11.4879665,2.2748 C11.4317322,2.2188 11.3845356,2.1628 11.3373389,2.0958 C11.2901423,2.0308 11.2620251,1.9638 11.2248703,1.8988 C11.195749,1.8238 11.1766695,1.7478 11.1585941,1.6728 C11.1485523,1.5978 11.1395146,1.5228 11.1395146,1.4468 C11.1395146,1.1368 11.2620251,0.8358 11.4879665,0.6098 C11.5351632,0.5628 11.6014393,0.5068 11.6677155,0.4688 C11.7239498,0.4218 11.7992636,0.3838 11.8645356,0.3558 C11.9408536,0.3278 12.0161674,0.3088 12.0814393,0.2898 C12.4680502,0.2148 12.8737406,0.3368 13.1468787,0.6098 C13.3728201,0.8358 13.4953305,1.1368 13.4953305,1.4468 C13.4953305,1.5228 13.4862929,1.5978 13.4672134,1.6728 C13.4571715,1.7478 13.4290544,1.8238 13.4009372,1.8988 C13.3728201,1.9638 13.3356653,2.0308 13.2975063,2.0958 C13.2503096,2.1628 13.203113,2.2188 13.1468787,2.2748 C12.9299749,2.5008 12.6287197,2.6228 12.3174226,2.6228" id="Fill-15"></path><path d="M13.9948117,6.6965 C13.6644351,6.1315 13.8632636,5.4175 14.4286192,5.0965 C14.9939749,4.7675 15.7099582,4.9655 16.0403347,5.5205 C16.3596653,6.0845 16.161841,6.8095 15.6065272,7.1295 C15.4177406,7.2325 15.2199163,7.2885 15.0130544,7.2885 C14.607364,7.2885 14.2117155,7.0725 13.9948117,6.6965 M16.6900418,11.3625 C16.3697071,10.8075 16.5574895,10.0825 17.1238494,9.7625 C17.689205,9.4335 18.4051883,9.6315 18.7345607,10.1865 C19.0548954,10.7505 18.867113,11.4755 18.3017573,11.7945 C18.1129707,11.8985 17.9151464,11.9545 17.7173222,11.9545 C17.3116318,11.9545 16.9159833,11.7385 16.6900418,11.3625 M19.3943096,16.0285 C19.0649372,15.4725 19.2627615,14.7485 19.8281172,14.4285 C20.383431,14.0995 21.1094561,14.2975 21.4297908,14.8615 C21.7591632,15.4165 21.5623431,16.1405 21.0060251,16.4605 C20.8172385,16.5735 20.6103766,16.6205 20.4125523,16.6205 C20.0068619,16.6205 19.6112134,16.4135 19.3943096,16.0285" id="Fill-17"></path><path d="M23.1074812,21.2864 C23.0321674,21.2864 22.9568536,21.2774 22.8805356,21.2674 C22.8052218,21.2484 22.7309121,21.2294 22.664636,21.1924 C22.588318,21.1644 22.523046,21.1364 22.4577741,21.0884 C22.3914979,21.0414 22.3342594,20.9944 22.2780251,20.9384 C22.2217908,20.8914 22.1745941,20.8254 22.1273975,20.7594 C22.0892385,20.7034 22.0520837,20.6284 22.0239665,20.5614 C21.9958494,20.4874 21.9767699,20.4114 21.9576904,20.3364 C21.9386109,20.2614 21.9386109,20.1854 21.9386109,20.1104 C21.9386109,19.8004 22.0611213,19.4994 22.2780251,19.2824 C22.3342594,19.2264 22.3914979,19.1794 22.4577741,19.1324 C22.523046,19.0954 22.588318,19.0574 22.664636,19.0284 C22.7309121,18.9914 22.8052218,18.9724 22.8805356,18.9534 C23.2671464,18.8784 23.6728368,19.0104 23.9459749,19.2824 C24.1628787,19.4994 24.2853891,19.8004 24.2853891,20.1104 C24.2853891,20.1854 24.2853891,20.2614 24.2663096,20.3364 C24.2472301,20.4114 24.2291548,20.4874 24.2010377,20.5614 C24.1719163,20.6284 24.1337573,20.7034 24.0875649,20.7594 C24.0494059,20.8254 24.0022092,20.8914 23.9459749,20.9384 C23.7300753,21.1644 23.4187782,21.2864 23.1074812,21.2864" id="Fill-19"></path><path d="M30.6177741,7.1291 C30.0534226,6.8091 29.864636,6.0851 30.1839665,5.5201 C30.5143431,4.9651 31.2303264,4.7681 31.795682,5.0971 C32.3610377,5.4171 32.5498243,6.1311 32.2284854,6.6961 C32.0125858,7.0721 31.6169372,7.2891 31.2022092,7.2891 C31.0043849,7.2891 30.8065607,7.2321 30.6177741,7.1291 M27.9225439,11.7951 C27.3571883,11.4751 27.1684017,10.7511 27.4897406,10.1861 C27.819113,9.6311 28.5350962,9.4341 29.1004519,9.7631 C29.6658075,10.0831 29.8545941,10.8071 29.5342594,11.3621 C29.308318,11.7381 28.9126695,11.9551 28.5069791,11.9551 C28.3091548,11.9551 28.1113305,11.8981 27.9225439,11.7951 M25.2182762,16.4611 C24.6619582,16.1411 24.4641339,15.4171 24.7945105,14.8611 C25.1148452,14.2971 25.8398661,14.1001 26.3961841,14.4281 C26.9615397,14.7491 27.159364,15.4731 26.8299916,16.0281 C26.6130879,16.4141 26.2174393,16.6201 25.811749,16.6201 C25.6139247,16.6201 25.4070628,16.5731 25.2182762,16.4611" id="Fill-21"></path><path d="M12.3174226,2.6228 C12.2421088,2.6228 12.166795,2.6138 12.0814393,2.5948 C12.0161674,2.5848 11.9408536,2.5578 11.8645356,2.5288 C11.7992636,2.5008 11.7239498,2.4628 11.6677155,2.4258 C11.6014393,2.3788 11.5351632,2.3308 11.4879665,2.2748 C11.4317322,2.2188 11.3845356,2.1628 11.3373389,2.0958 C11.2901423,2.0308 11.2620251,1.9638 11.2248703,1.8988 C11.195749,1.8238 11.1766695,1.7478 11.1585941,1.6728 C11.1485523,1.5978 11.1395146,1.5228 11.1395146,1.4468 C11.1395146,1.1368 11.2620251,0.8358 11.4879665,0.6098 C11.5351632,0.5628 11.6014393,0.5068 11.6677155,0.4688 C11.7239498,0.4218 11.7992636,0.3838 11.8645356,0.3558 C11.9408536,0.3278 12.0161674,0.3088 12.0814393,0.2898 C12.4680502,0.2148 12.8737406,0.3368 13.1468787,0.6098 C13.3728201,0.8358 13.4953305,1.1368 13.4953305,1.4468 C13.4953305,1.5228 13.4862929,1.5978 13.4672134,1.6728 C13.4571715,1.7478 13.4290544,1.8238 13.4009372,1.8988 C13.3728201,1.9638 13.3356653,2.0308 13.2975063,2.0958 C13.2503096,2.1628 13.203113,2.2188 13.1468787,2.2748 C12.9299749,2.5008 12.6287197,2.6228 12.3174226,2.6228" id="Fill-23"></path><path d="M9.02882008,7.1291 C8.46346444,6.8091 8.27467782,6.0851 8.59501255,5.5201 C8.92438494,4.9651 9.64137238,4.7681 10.206728,5.0971 C10.7720837,5.4171 10.9598661,6.1311 10.6395314,6.6961 C10.4236318,7.0721 10.0179414,7.2891 9.61325523,7.2891 C9.41442678,7.2891 9.21660251,7.2321 9.02882008,7.1291 M6.33258577,11.7951 C5.76823431,11.4751 5.57041004,10.7511 5.89978243,10.1861 C6.22112134,9.6311 6.94614226,9.4341 7.50145607,9.7631 C8.06681172,10.0831 8.26564017,10.8071 7.9352636,11.3621 C7.71835983,11.7381 7.3227113,11.9551 6.91702092,11.9551 C6.72020084,11.9551 6.51233473,11.8981 6.33258577,11.7951 M3.62932218,16.4611 C3.06396653,16.1411 2.87517992,15.4171 3.19551464,14.8611 C3.52488703,14.2971 4.24087029,14.1001 4.80723013,14.4281 C5.37158159,14.7491 5.5603682,15.4731 5.24103766,16.0281 C5.02413389,16.4141 4.62848536,16.6201 4.21275314,16.6201 C4.01492887,16.6201 3.8171046,16.5731 3.62932218,16.4611" id="Fill-25"></path><path d="M1.5180251,21.2864 C1.20672803,21.2864 0.905472803,21.1644 0.688569038,20.9384 C0.632334728,20.8914 0.585138075,20.8254 0.537941423,20.7594 C0.499782427,20.7034 0.462627615,20.6284 0.43451046,20.5614 C0.406393305,20.4874 0.377271967,20.4114 0.36823431,20.3364 C0.349154812,20.2614 0.340117155,20.1854 0.340117155,20.1104 C0.340117155,19.8004 0.471665272,19.4994 0.688569038,19.2824 C1.12237657,18.8414 1.91367364,18.8414 2.35651883,19.2824 C2.40371548,19.3294 2.45994979,19.3954 2.49810879,19.4614 C2.54430126,19.5174 2.58246025,19.5934 2.61158159,19.6594 C2.63969874,19.7344 2.65777406,19.8094 2.67685356,19.8854 C2.69593305,19.9604 2.69593305,20.0354 2.69593305,20.1104 C2.69593305,20.1854 2.69593305,20.2614 2.67685356,20.3364 C2.65777406,20.4114 2.63969874,20.4874 2.61158159,20.5614 C2.58246025,20.6284 2.54430126,20.7034 2.49810879,20.7594 C2.45994979,20.8254 2.40371548,20.8914 2.35651883,20.9384 C2.13057741,21.1644 1.82932218,21.2864 1.5180251,21.2864" id="Fill-27"></path><path d="M3.19541423,25.3596 C2.8750795,24.8046 3.06386611,24.0796 3.62922176,23.7596 C4.19457741,23.4316 4.91056067,23.6286 5.24093724,24.1926 C5.56026778,24.7476 5.37148117,25.4726 4.80712971,25.7926 C4.6183431,25.9046 4.42051883,25.9516 4.22269456,25.9516 C3.80796653,25.9516 3.41231799,25.7456 3.19541423,25.3596 M5.89968201,30.0256 C5.57030962,29.4706 5.76813389,28.7456 6.33348954,28.4256 C6.88980753,28.0966 7.61482845,28.2946 7.93516318,28.8586 C8.26553975,29.4146 8.06771548,30.1386 7.50235983,30.4586 C7.32261088,30.5706 7.11574895,30.6176 6.91792469,30.6176 C6.51223431,30.6176 6.11658577,30.4116 5.89968201,30.0256 M8.59491213,34.7006 C8.27457741,34.1366 8.46336402,33.4126 9.02871967,33.0916 C9.59407531,32.7626 10.3100586,32.9606 10.6404351,33.5246 C10.9597657,34.0806 10.7719833,34.8046 10.2066276,35.1236 C10.017841,35.2366 9.82001674,35.2836 9.61315481,35.2836 C9.20746444,35.2836 8.8118159,35.0766 8.59491213,34.7006" id="Fill-29"></path><path d="M12.3174226,39.9495 C12.0061255,39.9495 11.7048703,39.8275 11.4789289,39.6015 C11.3754979,39.4985 11.2901423,39.3665 11.2248703,39.2255 C11.1676318,39.0845 11.1395146,38.9335 11.1395146,38.7735 C11.1395146,38.6985 11.1485523,38.6225 11.1585941,38.5485 C11.1766695,38.4735 11.195749,38.3985 11.2339079,38.3225 C11.2620251,38.2565 11.2901423,38.1905 11.3373389,38.1255 C11.3845356,38.0585 11.4317322,38.0035 11.4789289,37.9465 C11.5351632,37.8895 11.6014393,37.8435 11.6677155,37.7955 C11.7239498,37.7575 11.7992636,37.7205 11.8645356,37.6925 C11.9408536,37.6635 12.0161674,37.6355 12.0814393,37.6265 C12.4680502,37.5415 12.8737406,37.6735 13.1468787,37.9465 C13.3637824,38.1625 13.4953305,38.4635 13.4953305,38.7735 C13.4953305,38.9335 13.4672134,39.0845 13.4009372,39.2255 C13.3447029,39.3665 13.2593473,39.4985 13.1468787,39.6015 C12.9299749,39.8275 12.6287197,39.9495 12.3174226,39.9495" id="Fill-31"></path><path d="M19.8282176,25.7922 C19.2628619,25.4722 19.0650377,24.7482 19.39441,24.1932 C19.7147448,23.6282 20.4407699,23.4312 21.0061255,23.7602 C21.5624435,24.0802 21.7592636,24.8052 21.4298912,25.3692 C21.2129874,25.7452 20.8173389,25.9522 20.4126527,25.9522 C20.2138243,25.9522 20.0069623,25.9052 19.8282176,25.7922 M17.1239498,30.4582 C16.55759,30.1382 16.3698075,29.4142 16.6901423,28.8582 C17.0195146,28.2942 17.7365021,28.0972 18.3008536,28.4262 C18.8662092,28.7462 19.0549958,29.4702 18.7346611,30.0342 C18.5177573,30.4112 18.1221088,30.6182 17.7073808,30.6182 C17.5095565,30.6182 17.3117322,30.5712 17.1239498,30.4582 M14.4287197,35.1242 C13.863364,34.8042 13.6645356,34.0892 13.9949121,33.5242 C14.3152469,32.9602 15.0402678,32.7722 15.6066276,33.0922 C16.1719833,33.4122 16.3597657,34.1362 16.0404351,34.7002 C15.8134895,35.0772 15.417841,35.2842 15.0131548,35.2842 C14.8143264,35.2842 14.6074644,35.2372 14.4287197,35.1242" id="Fill-33"></path><path d="M23.1074812,21.2864 C23.0321674,21.2864 22.9568536,21.2774 22.8805356,21.2674 C22.8052218,21.2484 22.7309121,21.2294 22.664636,21.1924 C22.588318,21.1644 22.523046,21.1364 22.4577741,21.0884 C22.3914979,21.0414 22.3342594,20.9944 22.2780251,20.9384 C22.2217908,20.8914 22.1745941,20.8254 22.1273975,20.7594 C22.0892385,20.7034 22.0520837,20.6284 22.0239665,20.5614 C21.9958494,20.4874 21.9767699,20.4114 21.9576904,20.3364 C21.9386109,20.2614 21.9386109,20.1854 21.9386109,20.1104 C21.9386109,19.8004 22.0611213,19.4994 22.2780251,19.2824 C22.3342594,19.2264 22.3914979,19.1794 22.4577741,19.1324 C22.523046,19.0954 22.588318,19.0574 22.664636,19.0284 C22.7309121,18.9914 22.8052218,18.9724 22.8805356,18.9534 C23.2671464,18.8784 23.6728368,19.0104 23.9459749,19.2824 C24.1628787,19.4994 24.2853891,19.8004 24.2853891,20.1104 C24.2853891,20.1854 24.2853891,20.2614 24.2663096,20.3364 C24.2472301,20.4114 24.2291548,20.4874 24.2010377,20.5614 C24.1719163,20.6284 24.1337573,20.7034 24.0875649,20.7594 C24.0494059,20.8254 24.0022092,20.8914 23.9459749,20.9384 C23.7300753,21.1644 23.4187782,21.2864 23.1074812,21.2864" id="Fill-35"></path><path d="M13.9948117,6.6965 C13.6644351,6.1315 13.8632636,5.4175 14.4286192,5.0965 C14.9939749,4.7675 15.7099582,4.9655 16.0403347,5.5205 C16.3596653,6.0845 16.161841,6.8095 15.6065272,7.1295 C15.4177406,7.2325 15.2199163,7.2885 15.0130544,7.2885 C14.607364,7.2885 14.2117155,7.0725 13.9948117,6.6965 M16.6900418,11.3625 C16.3697071,10.8075 16.5574895,10.0825 17.1238494,9.7625 C17.689205,9.4335 18.4051883,9.6315 18.7345607,10.1865 C19.0548954,10.7505 18.867113,11.4755 18.3017573,11.7945 C18.1129707,11.8985 17.9151464,11.9545 17.7173222,11.9545 C17.3025941,11.9545 16.9159833,11.7475 16.6900418,11.3625 M19.3943096,16.0285 C19.0649372,15.4725 19.2627615,14.7485 19.8281172,14.4285 C20.383431,14.0995 21.1094561,14.2975 21.4297908,14.8615 C21.7591632,15.4165 21.5623431,16.1405 21.0060251,16.4605 C20.8172385,16.5735 20.6103766,16.6205 20.4125523,16.6205 C20.0068619,16.6205 19.6112134,16.4135 19.3943096,16.0285" id="Fill-37"></path><path d="M12.3174226,39.9495 C12.0061255,39.9495 11.7048703,39.8275 11.4789289,39.6015 C11.3754979,39.4985 11.2901423,39.3665 11.2248703,39.2255 C11.1676318,39.0845 11.1395146,38.9335 11.1395146,38.7735 C11.1395146,38.6985 11.1485523,38.6225 11.1585941,38.5485 C11.1766695,38.4735 11.195749,38.3985 11.2339079,38.3225 C11.2620251,38.2565 11.2901423,38.1905 11.3373389,38.1255 C11.3845356,38.0585 11.4317322,38.0035 11.4789289,37.9465 C11.5351632,37.8895 11.6014393,37.8435 11.6677155,37.7955 C11.7239498,37.7575 11.7992636,37.7205 11.8645356,37.6925 C11.9408536,37.6635 12.0161674,37.6355 12.0814393,37.6265 C12.4680502,37.5415 12.8737406,37.6735 13.1468787,37.9465 C13.3637824,38.1625 13.4953305,38.4635 13.4953305,38.7735 C13.4953305,38.9335 13.4672134,39.0845 13.4009372,39.2255 C13.3447029,39.3665 13.2593473,39.4985 13.1468787,39.6015 C12.9299749,39.8275 12.6287197,39.9495 12.3174226,39.9495" id="Fill-39"></path><path d="M16.539113,38.7737 C16.539113,38.1257 17.0663096,37.5977 17.7170209,37.5977 C18.366728,37.5977 18.8949289,38.1257 18.8949289,38.7737 C18.8949289,39.4227 18.366728,39.9497 17.7170209,39.9497 C17.0663096,39.9497 16.539113,39.4227 16.539113,38.7737 M21.9386109,38.7737 C21.9386109,38.1257 22.4577741,37.5977 23.1074812,37.5977 C23.7672301,37.5977 24.2944268,38.1257 24.2944268,38.7737 C24.2944268,39.4227 23.7672301,39.9497 23.1074812,39.9497 C22.4577741,39.9497 21.9386109,39.4227 21.9386109,38.7737 M27.3290711,38.7737 C27.3290711,38.1257 27.857272,37.5977 28.5069791,37.5977 C29.1566862,37.5977 29.684887,38.1257 29.684887,38.7737 C29.684887,39.4227 29.1566862,39.9497 28.5069791,39.9497 C27.857272,39.9497 27.3290711,39.4227 27.3290711,38.7737" id="Fill-41"></path><path d="M33.9068787,39.9495 C33.5955816,39.9495 33.2943264,39.8275 33.0774226,39.6015 C32.964954,39.4985 32.8795983,39.3665 32.823364,39.2255 C32.7570879,39.0845 32.7289707,38.9335 32.7289707,38.7735 C32.7289707,38.4635 32.8514812,38.1625 33.0774226,37.9465 C33.1246192,37.8895 33.1908954,37.8435 33.2571715,37.7955 C33.3134059,37.7575 33.3887197,37.7205 33.4539916,37.6925 C33.5303096,37.6635 33.6056234,37.6355 33.6799331,37.6265 C33.8315649,37.5885 33.9821925,37.5885 34.1328201,37.6265 C34.2081339,37.6355 34.2834477,37.6635 34.3587615,37.6925 C34.4250377,37.7205 34.5003515,37.7575 34.5565858,37.7955 C34.6228619,37.8435 34.6891381,37.8895 34.7363347,37.9465 C34.9622762,38.1625 35.0847866,38.4635 35.0847866,38.7735 C35.0847866,38.9335 35.0566695,39.0845 34.999431,39.2255 C34.9331548,39.3665 34.8488033,39.4985 34.7363347,39.6015 C34.519431,39.8275 34.2181757,39.9495 33.9068787,39.9495" id="Fill-43"></path><path d="M24.7844686,25.3689 C24.4641339,24.8049 24.6529205,24.0799 25.2182762,23.7599 C25.7836318,23.4319 26.5096569,23.6289 26.8299916,24.1929 C27.159364,24.7479 26.9615397,25.4729 26.3961841,25.7919 C26.2174393,25.9049 26.0095732,25.9519 25.811749,25.9519 C25.4070628,25.9519 25.0114142,25.7449 24.7844686,25.3689 M27.4897406,30.0349 C27.1694059,29.4709 27.3571883,28.7459 27.9225439,28.4259 C28.4878996,28.0969 29.2038828,28.2949 29.5342594,28.8589 C29.8545941,29.4139 29.6658075,30.1389 29.1004519,30.4579 C28.9126695,30.5709 28.7148452,30.6179 28.5069791,30.6179 C28.1022929,30.6179 27.7066444,30.4109 27.4897406,30.0349 M30.1839665,34.7009 C29.864636,34.1369 30.0534226,33.4119 30.6177741,33.0919 C31.1831297,32.7719 31.9091548,32.9609 32.2294895,33.5249 C32.5588619,34.0899 32.3610377,34.8049 31.795682,35.1239 C31.6169372,35.2369 31.4100753,35.2839 31.2112469,35.2839 C30.8065607,35.2839 30.4109121,35.0769 30.1839665,34.7009" id="Fill-45"></path><path d="M23.1074812,21.2864 C23.0321674,21.2864 22.9568536,21.2774 22.8805356,21.2674 C22.8052218,21.2484 22.7309121,21.2294 22.664636,21.1924 C22.588318,21.1644 22.523046,21.1364 22.4577741,21.0884 C22.3914979,21.0414 22.3342594,20.9944 22.2780251,20.9384 C22.2217908,20.8914 22.1745941,20.8254 22.1273975,20.7594 C22.0892385,20.7034 22.0520837,20.6284 22.0239665,20.5614 C21.9958494,20.4874 21.9767699,20.4114 21.9576904,20.3364 C21.9386109,20.2614 21.9386109,20.1854 21.9386109,20.1104 C21.9386109,19.8004 22.0611213,19.4994 22.2780251,19.2824 C22.3342594,19.2264 22.3914979,19.1794 22.4577741,19.1324 C22.523046,19.0954 22.588318,19.0574 22.664636,19.0284 C22.7309121,18.9914 22.8052218,18.9724 22.8805356,18.9534 C23.2671464,18.8784 23.6728368,19.0104 23.9459749,19.2824 C24.1628787,19.4994 24.2853891,19.8004 24.2853891,20.1104 C24.2853891,20.1854 24.2853891,20.2614 24.2663096,20.3364 C24.2472301,20.4114 24.2291548,20.4874 24.2010377,20.5614 C24.1719163,20.6284 24.1337573,20.7034 24.0875649,20.7594 C24.0494059,20.8254 24.0022092,20.8914 23.9459749,20.9384 C23.7300753,21.1644 23.4187782,21.2864 23.1074812,21.2864" id="Fill-47"></path><path d="M19.8282176,25.7922 C19.2628619,25.4722 19.0650377,24.7482 19.39441,24.1932 C19.7147448,23.6282 20.4407699,23.4312 21.0061255,23.7602 C21.5624435,24.0802 21.7592636,24.8052 21.4298912,25.3592 C21.2129874,25.7452 20.8173389,25.9522 20.4126527,25.9522 C20.2138243,25.9522 20.0069623,25.9052 19.8282176,25.7922 M17.1239498,30.4582 C16.5676318,30.1382 16.3698075,29.4142 16.6901423,28.8582 C17.0195146,28.2942 17.7365021,28.0972 18.3008536,28.4262 C18.8662092,28.7462 19.0549958,29.4702 18.7346611,30.0252 C18.5177573,30.4112 18.1221088,30.6182 17.7073808,30.6182 C17.5095565,30.6182 17.3117322,30.5712 17.1239498,30.4582 M14.4287197,35.1242 C13.863364,34.8042 13.6745774,34.0802 13.9949121,33.5242 C14.3242845,32.9602 15.0402678,32.7632 15.6066276,33.0922 C16.1719833,33.4122 16.3597657,34.1362 16.0404351,34.7002 C15.8134895,35.0772 15.417841,35.2842 15.0131548,35.2842 C14.8143264,35.2842 14.6165021,35.2372 14.4287197,35.1242" id="Fill-49"></path><path d="M33.9068787,2.6228 C33.5955816,2.6228 33.2943264,2.5008 33.0774226,2.2748 C33.0211883,2.2188 32.9739916,2.1628 32.926795,2.0958 C32.888636,2.0308 32.8514812,1.9638 32.823364,1.8988 C32.7952469,1.8238 32.7661255,1.7478 32.7570879,1.6728 C32.7380084,1.5978 32.7289707,1.5228 32.7289707,1.4468 C32.7289707,1.1368 32.8514812,0.8358 33.0774226,0.6098 C33.5202678,0.1768 34.3025272,0.1768 34.7453724,0.6098 C34.9622762,0.8358 35.0847866,1.1368 35.0847866,1.4468 C35.0847866,1.5228 35.0747448,1.5978 35.0657071,1.6728 C35.0466276,1.7478 35.0285523,1.8238 34.9903933,1.8988 C34.9622762,1.9638 34.9251213,2.0308 34.8869623,2.0958 C34.8397657,2.1628 34.792569,2.2188 34.7453724,2.2748 C34.519431,2.5008 34.2181757,2.6228 33.9068787,2.6228" id="Fill-51"></path><path d="M30.6177741,7.1291 C30.0534226,6.8091 29.864636,6.0851 30.1940084,5.5201 C30.5143431,4.9651 31.2303264,4.7681 31.795682,5.0971 C32.3610377,5.4171 32.5498243,6.1311 32.2284854,6.6961 C32.0125858,7.0721 31.6169372,7.2891 31.2112469,7.2891 C31.0043849,7.2891 30.8065607,7.2321 30.6177741,7.1291 M27.9225439,11.7951 C27.3571883,11.4751 27.1684017,10.7511 27.4897406,10.1861 C27.819113,9.6311 28.5350962,9.4341 29.1004519,9.7631 C29.6658075,10.0831 29.8545941,10.8071 29.5342594,11.3621 C29.308318,11.7381 28.9126695,11.9551 28.5069791,11.9551 C28.3091548,11.9551 28.1113305,11.8981 27.9225439,11.7951 M25.2182762,16.4611 C24.6619582,16.1411 24.4641339,15.4171 24.7945105,14.8611 C25.1148452,14.2971 25.8398661,14.1001 26.3961841,14.4281 C26.9615397,14.7491 27.159364,15.4731 26.8299916,16.0281 C26.6130879,16.4141 26.2174393,16.6201 25.811749,16.6201 C25.6139247,16.6201 25.4070628,16.5731 25.2182762,16.4611" id="Fill-53"></path><path d="M23.1074812,21.2864 C23.0321674,21.2864 22.9568536,21.2774 22.8805356,21.2674 C22.8052218,21.2484 22.7309121,21.2294 22.664636,21.1924 C22.588318,21.1644 22.523046,21.1364 22.4577741,21.0884 C22.3914979,21.0414 22.3342594,20.9944 22.2780251,20.9384 C22.2217908,20.8914 22.1745941,20.8254 22.1273975,20.7594 C22.0892385,20.7034 22.0520837,20.6284 22.0239665,20.5614 C21.9958494,20.4874 21.9767699,20.4114 21.9576904,20.3364 C21.9386109,20.2614 21.9386109,20.1854 21.9386109,20.1104 C21.9386109,19.8004 22.0611213,19.4994 22.2780251,19.2824 C22.3342594,19.2264 22.3914979,19.1794 22.4577741,19.1324 C22.523046,19.0954 22.588318,19.0574 22.664636,19.0284 C22.7309121,18.9914 22.8052218,18.9724 22.8805356,18.9534 C23.2671464,18.8784 23.6728368,19.0104 23.9459749,19.2824 C24.1628787,19.4994 24.2853891,19.8004 24.2853891,20.1104 C24.2853891,20.1854 24.2853891,20.2614 24.2663096,20.3364 C24.2472301,20.4114 24.2291548,20.4874 24.2010377,20.5614 C24.1719163,20.6284 24.1337573,20.7034 24.0875649,20.7594 C24.0494059,20.8254 24.0022092,20.8914 23.9459749,20.9384 C23.7300753,21.1644 23.4187782,21.2864 23.1074812,21.2864" id="Fill-55"></path><path d="M24.7942092,25.3596 C24.4638326,24.8046 24.6626611,24.0796 25.2280167,23.7596 C25.7833305,23.4316 26.5093556,23.6286 26.8296904,24.1926 C27.1590628,24.7476 26.9612385,25.4726 26.3958828,25.7926 C26.2171381,25.9046 26.009272,25.9516 25.8124519,25.9516 C25.4067615,25.9516 25.011113,25.7456 24.7942092,25.3596 M27.4894393,30.0256 C27.1590628,29.4706 27.356887,28.7456 27.9232469,28.4256 C28.4886025,28.0966 29.2045858,28.2946 29.5339582,28.8586 C29.8552971,29.4146 29.6665105,30.1386 29.1011548,30.4586 C28.9123682,30.5706 28.7145439,30.6176 28.5066778,30.6176 C28.1019916,30.6176 27.7063431,30.4116 27.4894393,30.0256 M30.1846695,34.7006 C29.8643347,34.1366 30.0531213,33.4126 30.6174728,33.0916 C31.1828285,32.7626 31.8998159,32.9606 32.2291883,33.5246 C32.549523,34.0806 32.3617406,34.8046 31.7953808,35.1236 C31.6075983,35.2366 31.4097741,35.2836 31.2119498,35.2836 C30.8062594,35.2836 30.4106109,35.0766 30.1846695,34.7006" id="Fill-57"></path><path d="M33.9068787,39.9495 C33.5955816,39.9495 33.2943264,39.8275 33.0774226,39.6015 C32.964954,39.4985 32.8795983,39.3665 32.823364,39.2255 C32.7570879,39.0845 32.7289707,38.9335 32.7289707,38.7735 C32.7289707,38.4635 32.8514812,38.1625 33.0774226,37.9465 C33.1246192,37.8895 33.1908954,37.8435 33.2571715,37.7955 C33.3134059,37.7575 33.3887197,37.7205 33.4539916,37.6925 C33.5303096,37.6635 33.6056234,37.6355 33.6799331,37.6265 C33.8315649,37.5885 33.9821925,37.5885 34.1328201,37.6265 C34.2081339,37.6355 34.2834477,37.6635 34.3587615,37.6925 C34.4250377,37.7205 34.5003515,37.7575 34.5565858,37.7955 C34.6228619,37.8435 34.6891381,37.8895 34.7363347,37.9465 C34.9622762,38.1625 35.0847866,38.4635 35.0847866,38.7735 C35.0847866,38.9335 35.0566695,39.0845 34.999431,39.2255 C34.9331548,39.3665 34.8488033,39.4985 34.7363347,39.6015 C34.519431,39.8275 34.2181757,39.9495 33.9068787,39.9495" id="Fill-59"></path><path d="M41.4171715,25.7922 C40.8518159,25.4722 40.6539916,24.7482 40.983364,24.1932 C41.3047029,23.6282 42.0297238,23.4312 42.5950795,23.7602 C43.1604351,24.0802 43.3492218,24.8052 43.028887,25.3692 C42.8019414,25.7452 42.4062929,25.9522 42.0016067,25.9522 C41.8037824,25.9522 41.5969205,25.9052 41.4171715,25.7922 M38.7129038,30.4582 C38.1565858,30.1382 37.9587615,29.4142 38.2881339,28.8582 C38.6094728,28.2942 39.3344937,28.0972 39.8908117,28.4262 C40.4561674,28.7462 40.6539916,29.4702 40.3246192,30.0342 C40.1077155,30.4112 39.7120669,30.6182 39.3063766,30.6182 C39.1085523,30.6182 38.9006862,30.5712 38.7129038,30.4582 M36.0176736,35.1242 C35.452318,34.8042 35.2635314,34.0892 35.5838661,33.5242 C35.9142427,32.9602 36.6302259,32.7722 37.1955816,33.0922 C37.7609372,33.4122 37.9497238,34.1362 37.6293891,34.7002 C37.4124854,35.0772 37.0168368,35.2842 36.6021088,35.2842 C36.4042845,35.2842 36.2064603,35.2372 36.0176736,35.1242" id="Fill-61"></path><path d="M44.7062762,21.2864 C44.3949791,21.2864 44.0937238,21.1644 43.8677824,20.9384 C43.8205858,20.8914 43.7643515,20.8254 43.7261925,20.7594 C43.6789958,20.7034 43.6408368,20.6284 43.6127197,20.5614 C43.5846025,20.4874 43.565523,20.4114 43.5474477,20.3364 C43.5374059,20.2614 43.5283682,20.1854 43.5283682,20.1104 C43.5283682,19.8004 43.6508787,19.4994 43.8677824,19.2824 C44.1409205,19.0004 44.5556485,18.8784 44.9322176,18.9534 C45.0075314,18.9724 45.0828452,18.9914 45.1491213,19.0284 C45.2244351,19.0574 45.2907113,19.0954 45.3559833,19.1324 C45.4222594,19.1794 45.4784937,19.2264 45.5357322,19.2824 C45.752636,19.4994 45.8841841,19.8004 45.8841841,20.1104 C45.8841841,20.1854 45.8751464,20.2614 45.8560669,20.3364 C45.8460251,20.4114 45.8179079,20.4874 45.7897908,20.5614 C45.7616736,20.6284 45.7245188,20.7034 45.6863598,20.7594 C45.6391632,20.8254 45.5919665,20.8914 45.5357322,20.9384 C45.4784937,20.9944 45.4222594,21.0414 45.3559833,21.0884 C45.2907113,21.1364 45.2244351,21.1644 45.1491213,21.1924 C45.0828452,21.2294 45.0075314,21.2484 44.9322176,21.2674 C44.8569038,21.2774 44.78159,21.2864 44.7062762,21.2864" id="Fill-63"></path><path d="M35.5837657,6.6965 C35.263431,6.1315 35.4522176,5.4175 36.0175732,5.0965 C36.5829289,4.7675 37.2989121,4.9655 37.6292887,5.5205 C37.9496234,6.0845 37.7608368,6.8095 37.1954812,7.1295 C37.0066946,7.2325 36.8088703,7.2885 36.611046,7.2885 C36.196318,7.2885 35.8006695,7.0725 35.5837657,6.6965 M38.2880335,11.3625 C37.9586611,10.8075 38.1564854,10.0825 38.7128033,9.7625 C39.278159,9.4335 40.0031799,9.6315 40.3245188,10.1865 C40.6538912,10.7505 40.4560669,11.4755 39.8907113,11.7945 C39.7119665,11.8985 39.5041004,11.9545 39.3062762,11.9545 C38.9005858,11.9545 38.5049372,11.7475 38.2880335,11.3625 M40.9832636,16.0285 C40.6538912,15.4725 40.8517155,14.7485 41.4170711,14.4285 C41.9824268,14.0995 42.69841,14.2975 43.0287866,14.8615 C43.3491213,15.4165 43.1603347,16.1405 42.5949791,16.4605 C42.4061925,16.5735 42.2093724,16.6205 42.0015063,16.6205 C41.5968201,16.6205 41.2001674,16.4135 40.9832636,16.0285" id="Fill-65"></path><path d="M33.9078828,37.6013 L12.9967531,37.6013 L3.56043515,21.2873 L23.1118996,21.2873 C23.7626109,21.2873 24.2898075,20.7603 24.2898075,20.1113 C24.2898075,19.4613 23.7626109,18.9343 23.1118996,18.9343 L3.56143933,18.9353 L12.9967531,2.6213 L33.9078828,2.6213 C34.5585941,2.6213 35.0857908,2.0953 35.0857908,1.4453 C35.0857908,0.7963 34.5585941,0.2693 33.9078828,0.2693 L12.3169205,0.2693 C11.8951632,0.2693 11.5065439,0.4943 11.2956653,0.8573 L0.500686192,19.5233 C0.484619247,19.5513 0.478594142,19.5813 0.464535565,19.6103 C0.449472803,19.6433 0.43641841,19.6743 0.424368201,19.7083 C0.376167364,19.8383 0.343029289,19.9733 0.343029289,20.1103 C0.343029289,20.1103 0.343029289,20.1113 0.343029289,20.1113 C0.343029289,20.1123 0.343029289,20.1133 0.343029289,20.1133 C0.343029289,20.2503 0.376167364,20.3853 0.424368201,20.5153 C0.43641841,20.5493 0.449472803,20.5803 0.464535565,20.6133 C0.478594142,20.6423 0.484619247,20.6723 0.500686192,20.7003 L11.2956653,39.3653 C11.5065439,39.7293 11.8951632,39.9533 12.3169205,39.9533 L33.9078828,39.9533 C34.5585941,39.9533 35.0857908,39.4273 35.0857908,38.7773 C35.0857908,38.1273 34.5585941,37.6013 33.9078828,37.6013" id="Fill-67"></path></g></g></svg>
