<svg width="252" height="56" viewBox="0 0 252 56" fill="none" xmlns="http://www.w3.org/2000/svg">
<path d="M244.435 56C248.381 56 251.58 52.801 251.58 48.8547C251.58 44.9085 248.381 41.7095 244.435 41.7095C240.489 41.7095 237.29 44.9085 237.29 48.8547C237.29 52.801 240.489 56 244.435 56Z" fill="#2AC684"/>
<path d="M60.7378 0C65.3662 0.114398 67.7037 2.37145 67.7501 6.76805L67.682 41.4431H95.1407C99.7909 41.4679 102.116 43.7929 102.116 48.4214C102.094 52.9572 99.8125 55.2482 95.2768 55.2946H60.7378C56.1556 55.2946 53.8522 53.0623 53.8306 48.5946V6.9783C53.8522 2.41782 56.1556 0.0927554 60.7378 0Z" fill="#002836"/>
<path d="M128.795 0C133.553 0.040194 138.222 1.28002 142.374 3.60509C146.733 5.9549 150.323 9.51361 152.713 13.8515C157.654 22.3942 157.669 32.922 152.756 41.4833C150.385 45.7964 146.823 49.3397 142.495 51.6833C133.939 56.5221 123.467 56.5004 114.934 51.6246C110.615 49.2593 107.068 45.7037 104.715 41.3782C99.858 32.7983 99.8982 22.2891 104.827 13.7494C107.204 9.41468 110.794 5.87142 115.16 3.54944C119.334 1.23365 124.024 0.0154592 128.795 0ZM122.005 15.5087C119.822 16.6712 118.026 18.4429 116.829 20.6103C115.608 22.7251 114.962 25.1244 114.949 27.5638C114.946 29.9755 115.574 32.3438 116.764 34.4401C117.948 36.5982 119.726 38.3729 121.884 39.5602C126.148 42.0089 131.389 42.0213 135.665 39.5911C137.829 38.4131 139.61 36.6446 140.803 34.4896C142.003 32.3995 142.64 30.0311 142.649 27.6226C142.649 25.18 142.009 22.7807 140.797 20.6597C139.61 18.4862 137.81 16.7083 135.628 15.5396C131.404 13.1589 126.244 13.1465 122.005 15.5087Z" fill="#002836"/>
<path d="M219.785 55.7496C219.272 55.83 218.753 55.8702 218.233 55.8733H218.199C214.792 55.8393 211.595 54.2253 209.539 51.5045C207.943 49.3773 206.765 46.9657 206.064 44.3994L206.023 44.2727C205.288 41.9723 200.925 25.4619 199.391 19.6523C199.15 18.7371 198.977 18.0878 198.9 17.8003C198.343 19.9027 192.63 41.6075 191.776 44.2696L191.736 44.3963C191.037 46.9626 189.856 49.3742 188.261 51.5014C186.208 54.2191 183.008 55.8331 179.601 55.8702H179.567C178.985 55.8671 178.407 55.8176 177.835 55.7187C175.074 55.2054 172.604 53.6811 170.903 51.4457C169.345 49.4206 168.12 47.1574 167.276 44.7426C166.89 43.7192 166.525 42.6278 166.176 41.4962C165.032 37.7767 164.076 33.5563 163.146 29.4411L163.044 28.9958L160.647 19.4235L158.026 8.95139C157.089 5.16697 159.386 1.33926 163.164 0.380787C163.276 0.352961 163.387 0.328226 163.498 0.306583C167.193 -0.420001 170.81 1.87106 171.735 5.51944L173.664 13.2243L177.854 29.9543L179.251 35.5382C179.375 35.9896 179.502 36.4286 179.631 36.8615C180.574 33.7697 181.456 29.9883 182.303 26.3307C183.379 21.1518 184.792 16.0503 186.532 11.0569C187.392 8.64839 188.632 6.39443 190.206 4.37855C192.259 1.66081 195.459 0.0468678 198.866 0.00976562H198.955C202.363 0.0437759 205.56 1.65772 207.616 4.37855C209.19 6.39443 210.429 8.64839 211.289 11.0569C213.03 16.0503 214.443 21.1549 215.519 26.3307C216.285 29.6204 217.077 33.0091 217.909 35.903L218.001 35.5382L219.399 29.9543L223.588 13.2243L225.518 5.51944C226.328 2.32865 229.231 0.114888 232.524 0.176725C232.938 0.182909 233.349 0.229287 233.754 0.309675C233.866 0.331318 233.977 0.356053 234.088 0.383879C234.159 0.40243 234.227 0.424073 234.298 0.442624C237.962 1.49385 240.139 5.25354 239.227 8.95448L236.605 19.4266L234.209 28.9989L234.107 29.4442C233.176 33.5625 232.214 37.7798 231.077 41.4993C230.727 42.634 230.362 43.7254 229.976 44.7457C229.132 47.1604 227.908 49.4237 226.349 51.4488C226.266 51.554 226.179 51.656 226.093 51.758C226.006 51.86 225.919 51.959 225.836 52.0517C225.753 52.1476 225.666 52.2403 225.579 52.3331C225.493 52.4259 225.406 52.5155 225.323 52.6021C225.239 52.6887 225.153 52.7752 225.066 52.8587C224.98 52.9422 224.893 53.0226 224.81 53.103C224.726 53.1803 224.639 53.2576 224.553 53.3349C224.466 53.4091 224.38 53.4833 224.296 53.5575C224.213 53.6317 224.126 53.6997 224.04 53.7646C223.953 53.8296 223.866 53.8945 223.783 53.9625C223.7 54.0243 223.613 54.0862 223.526 54.148C223.44 54.2099 223.356 54.2686 223.27 54.3243C223.186 54.3799 223.1 54.4356 223.016 54.4881C222.933 54.5407 222.846 54.5902 222.763 54.6427C222.679 54.6922 222.596 54.7386 222.509 54.7849C222.423 54.8313 222.342 54.8746 222.256 54.9179C222.172 54.9612 222.089 55.0014 222.005 55.0416C221.922 55.0818 221.838 55.1189 221.755 55.1529C221.671 55.1869 221.588 55.224 221.504 55.258C221.421 55.292 221.337 55.3229 221.254 55.3538C221.17 55.3848 221.09 55.4126 221.007 55.4404C220.923 55.4682 220.843 55.4961 220.759 55.5208C220.676 55.5455 220.595 55.5703 220.515 55.5919C220.435 55.6136 220.351 55.6352 220.271 55.6568C220.141 55.6878 220.014 55.7187 219.881 55.7372L219.785 55.7496Z" fill="#002836"/>
<path d="M6.21302 0.0683594C2.88928 0.0745431 0.196284 2.67169 0.187008 5.99852V15.4689C0.180824 15.608 0.171549 15.7471 0.168457 15.8893C0.168457 15.9481 0.168457 16.0068 0.168457 16.0687C0.168457 16.1305 0.168457 16.1862 0.168457 16.248V48.598C0.1901 53.0657 2.49353 55.298 7.07565 55.298C11.6794 55.2517 13.9952 52.9606 14.0199 48.4248V35.9894L41.6487 35.9554C46.1597 35.9554 48.4508 33.652 48.5219 29.0482C48.5002 24.5125 46.2123 22.2091 41.6549 22.1411H14.023V13.9198H41.5497C46.1999 13.8518 48.525 11.468 48.525 6.77148C48.5033 2.37488 46.339 0.139472 42.0321 0.0714512H6.66752" fill="#002836"/>
</svg>
