<svg width="1025" height="155" viewBox="0 0 1025 155" fill="none" xmlns="http://www.w3.org/2000/svg">
<path d="M45.8536 47.1286C60.1828 47.1286 67.1427 53.0196 67.1427 62.9735C67.1427 72.7242 61.2063 78.6153 46.0583 78.6153C30.9102 78.6153 25.3832 72.5211 25.3832 62.9735C25.3832 53.4259 31.1149 47.1286 45.8536 47.1286ZM47.4912 138.745C22.9268 138.745 17.1951 136.104 17.1951 128.791C17.1951 124.119 21.6986 119.447 31.729 119.447H68.5757C76.5591 119.447 79.2203 123.103 79.2203 127.369C79.2203 135.088 73.6933 138.745 47.4912 138.745ZM47.9006 154.996C84.3378 155.199 96.8248 145.245 96.8248 127.369C96.8248 112.54 88.2272 103.602 67.7569 103.602C57.1123 103.602 44.8301 104.211 33.3667 104.211C27.635 104.211 24.9738 102.789 24.9738 99.1325C24.9738 97.5074 25.9973 96.2885 27.2256 94.2571L29.2726 91.0069C34.1855 92.4289 39.7125 93.0383 45.8536 93.0383C72.0556 93.0383 86.1802 84.3032 86.1802 67.4426C86.1802 54.6448 77.1732 49.5662 65.3004 47.3317V47.1286C72.0556 47.5348 76.7638 47.5348 81.472 47.5348H93.9589V29.0491H46.8771C20.8798 29.0491 5.52699 40.8312 5.52699 61.7547C5.52699 75.9745 13.3057 86.1315 27.635 90.6006L20.2656 93.8508C12.4869 96.4917 8.18814 101.57 8.18814 106.446C8.18814 113.555 13.5104 118.025 22.9268 119.243C7.98344 121.072 0 127.369 0 135.495C0 147.48 10.4399 155.199 47.9006 154.996Z" fill="#231F20"/>
<path d="M125.642 124.525V76.1776C125.642 59.5201 132.397 53.6291 149.592 53.6291H159.008V29.0491H153.481C138.947 29.0491 130.35 35.5496 126.051 60.3327H125.642V29.0491H103.534V124.525H125.642Z" fill="#231F20"/>
<path d="M210.13 127.166C240.631 127.166 259.259 107.868 259.259 76.5839C259.259 45.0972 239.607 26.6114 210.13 26.6114C180.448 26.6114 160.796 45.0972 160.796 76.5839C160.796 107.868 179.22 127.166 210.13 127.166ZM210.13 46.5191C227.12 46.5191 237.355 58.0981 237.355 76.3808C237.355 94.8665 227.53 107.055 209.925 107.055C192.525 107.055 182.904 94.8665 182.904 76.3808C182.904 58.0981 192.935 46.5191 210.13 46.5191Z" fill="#231F20"/>
<path d="M332.928 124.525H355.036V29.0491H332.928V85.5221C332.928 99.1325 324.33 107.258 310.206 107.258C295.262 107.258 290.145 97.1011 290.145 85.5221V29.0491H268.037V91.4132C268.037 111.93 276.839 127.166 299.971 127.166C316.142 127.166 328.424 118.837 332.723 98.3199H332.928V124.525Z" fill="#231F20"/>
<path d="M391.516 68.052C391.516 54.4416 400.114 46.316 414.238 46.316C429.182 46.316 434.299 56.473 434.299 68.052V124.525H456.407V62.3641C456.407 41.6438 447.605 26.6114 424.473 26.6114C408.302 26.6114 396.02 34.9401 391.721 55.2542H391.516V29.0491H369.408V124.525H391.516V68.052Z" fill="#231F20"/>
<path d="M512.13 107.258C494.935 107.258 487.156 96.2885 487.156 77.1933C487.156 57.4887 495.344 46.1129 512.13 46.1129C527.892 46.1129 537.718 57.895 537.718 76.1776V77.8028C537.718 96.6948 527.892 107.258 512.13 107.258ZM537.718 124.525H559.826V0H537.718V56.473H537.513C533.214 36.7684 522.365 26.4082 503.123 26.6114C478.968 26.4082 465.253 45.5034 465.253 77.1933C465.253 108.071 478.149 127.166 503.123 127.166C521.751 127.166 533.01 116.806 537.308 97.5074H537.718V124.525Z" fill="#231F20"/>
<path d="M643.711 68.8646L665 65.4112C661.111 40.8312 647.805 26.6114 618.942 26.6114C589.669 26.6114 569.404 45.3003 569.404 76.9902C569.404 109.493 589.26 127.166 619.556 127.166C647.396 127.166 661.315 111.93 665.205 87.5535L644.12 83.2875C641.05 96.8979 635.318 107.055 619.146 107.055C602.77 107.055 591.921 96.2885 591.921 76.7871C591.921 56.2699 602.975 46.5191 618.737 46.5191C633.68 46.5191 640.845 55.4573 643.711 68.8646Z" fill="#231F20"/>
<path d="M719.689 127.166C750.19 127.166 768.818 107.868 768.818 76.5839C768.818 45.0972 749.167 26.6114 719.689 26.6114C690.007 26.6114 670.356 45.0972 670.356 76.5839C670.356 107.868 688.779 127.166 719.689 127.166ZM719.689 46.5191C736.68 46.5191 746.915 58.0981 746.915 76.3808C746.915 94.8665 737.089 107.055 719.485 107.055C702.085 107.055 692.464 94.8665 692.464 76.3808C692.464 58.0981 702.494 46.5191 719.689 46.5191Z" fill="#231F20"/>
<path d="M830.615 124.525L868.28 29.0491H845.149L831.843 66.0206C827.34 78.8185 822.631 92.4289 818.333 104.617H817.923C813.829 92.4289 808.916 78.8185 804.413 66.0206L791.312 29.0491H767.361L805.436 124.525H830.615Z" fill="#231F20"/>
<path d="M914.978 45.0972C930.126 45.0972 937.905 52.8165 939.133 67.6457H888.776C891.233 52.2071 900.444 45.0972 914.978 45.0972ZM915.592 126.963C940.976 126.963 954.077 114.368 958.99 96.0854L939.747 90.6006C936.882 100.351 931.15 107.868 915.797 107.868C900.035 107.868 890.619 99.9451 888.572 83.897H959.194C959.604 78.8185 959.604 74.9588 959.604 71.0991C959.604 44.894 944.865 26.6114 915.592 26.6114C885.706 26.6114 866.464 45.7066 866.464 78.0059C866.464 109.493 886.115 126.963 915.592 126.963Z" fill="#231F20"/>
<path d="M991.633 124.525V76.1776C991.633 59.5201 998.389 53.6291 1015.58 53.6291H1025V29.0491H1019.47C1004.94 29.0491 996.341 35.5496 992.043 60.3327H991.633V29.0491H969.525V124.525H991.633Z" fill="#231F20"/>
</svg>
