<svg id="svg" version="1.1" xmlns="http://www.w3.org/2000/svg" xmlns:xlink="http://www.w3.org/1999/xlink" width="400" height="125" viewBox="0, 0, 400,125"><g id="svgg"><path id="path0" d="M90.833 6.496 C 90.517 6.696,90.361 16.596,90.666 17.165 C 90.915 17.631,159.773 17.703,160.238 17.238 C 160.637 16.839,160.630 7.354,160.231 6.744 L 159.962 6.333 125.522 6.336 C 104.133 6.337,90.989 6.398,90.833 6.496 " stroke="none" fill="#f48c1c" fill-rule="evenodd"/><path id="path1" d="M326.583 3.664 C 326.400 3.744,325.725 3.819,325.083 3.830 C 323.529 3.857,320.174 4.331,317.583 4.890 C 314.409 5.575,315.055 5.396,311.417 6.595 C 298.611 10.812,287.919 19.290,281.039 30.684 C 279.811 32.719,277.264 37.849,276.829 39.167 C 276.754 39.396,276.532 39.996,276.337 40.500 C 275.032 43.877,274.040 47.729,273.420 51.833 C 273.288 52.704,273.138 53.567,273.086 53.750 C 272.542 55.657,272.543 68.465,273.087 70.833 C 273.140 71.063,273.290 71.925,273.421 72.750 C 274.204 77.696,275.282 81.547,277.199 86.250 C 278.659 89.833,282.387 96.383,284.239 98.618 C 284.375 98.782,284.697 99.187,284.956 99.518 C 290.010 105.984,296.716 111.335,304.521 115.130 C 306.520 116.102,310.308 117.667,310.663 117.667 C 310.759 117.667,310.968 117.735,311.127 117.819 C 311.286 117.903,311.942 118.130,312.583 118.322 C 313.225 118.515,313.979 118.746,314.259 118.835 C 315.165 119.125,318.379 119.803,320.167 120.083 C 320.946 120.205,321.733 120.350,321.917 120.406 C 323.905 121.012,337.006 121.013,339.750 120.407 C 340.025 120.346,340.887 120.197,341.667 120.076 C 343.932 119.725,345.062 119.496,345.373 119.326 C 345.532 119.238,345.805 119.167,345.979 119.167 C 346.153 119.167,346.697 119.047,347.189 118.902 C 349.197 118.307,351.782 117.461,352.275 117.238 C 352.564 117.107,352.871 117.000,352.958 117.000 C 353.045 117.000,353.333 116.897,353.599 116.771 C 353.866 116.645,354.346 116.438,354.667 116.312 C 372.514 109.303,386.724 90.213,388.519 70.833 C 388.608 69.871,388.763 68.824,388.864 68.507 C 389.113 67.720,389.113 56.780,388.864 55.993 C 388.763 55.676,388.608 54.629,388.519 53.667 C 388.091 49.050,386.913 44.360,384.876 39.167 C 377.750 20.998,361.066 7.504,342.000 4.489 C 341.404 4.395,340.542 4.242,340.083 4.150 C 337.866 3.702,327.358 3.324,326.583 3.664 M11.097 6.593 C 10.694 6.997,10.692 117.501,11.095 117.905 C 11.331 118.141,14.449 118.167,42.919 118.167 L 74.481 118.167 74.741 117.796 C 75.132 117.238,75.129 107.653,74.738 107.262 C 74.502 107.026,71.922 107.000,48.822 107.000 L 23.167 107.000 23.125 56.708 L 23.083 6.417 17.222 6.373 C 12.058 6.334,11.330 6.360,11.097 6.593 M169.095 6.595 C 168.951 6.739,168.833 6.878,168.833 6.904 C 168.833 6.999,171.108 13.032,173.332 18.833 C 173.490 19.246,174.391 21.608,175.334 24.083 C 178.350 31.997,180.028 36.394,180.360 37.250 C 180.538 37.708,180.781 38.346,180.901 38.667 C 181.228 39.545,183.493 45.464,183.866 46.417 C 184.045 46.875,184.255 47.438,184.333 47.667 C 184.411 47.896,184.621 48.458,184.799 48.917 C 184.977 49.375,185.666 51.175,186.331 52.917 C 186.996 54.658,187.686 56.458,187.866 56.917 C 188.045 57.375,188.255 57.938,188.333 58.167 C 188.411 58.396,188.620 58.958,188.798 59.417 C 189.075 60.132,190.940 64.996,191.833 67.333 C 191.990 67.746,192.890 70.108,193.832 72.583 C 194.774 75.058,195.674 77.421,195.832 77.833 C 195.990 78.246,196.890 80.608,197.832 83.083 C 198.774 85.558,199.674 87.921,199.832 88.333 C 199.990 88.746,200.777 90.808,201.581 92.917 C 202.384 95.025,203.172 97.087,203.332 97.500 C 203.492 97.912,204.166 99.675,204.831 101.417 C 205.496 103.158,206.186 104.958,206.366 105.417 C 206.545 105.875,206.755 106.438,206.833 106.667 C 206.911 106.896,207.121 107.458,207.299 107.917 C 207.477 108.375,208.166 110.175,208.831 111.917 C 209.496 113.658,210.187 115.458,210.367 115.917 C 210.547 116.375,210.738 116.900,210.791 117.083 C 210.845 117.267,210.997 117.585,211.130 117.792 L 211.372 118.167 217.582 118.167 C 222.351 118.167,223.831 118.118,223.958 117.958 C 224.049 117.844,224.401 117.000,224.741 116.083 C 225.556 113.884,226.155 112.327,226.344 111.917 C 226.428 111.733,226.986 110.271,227.583 108.667 C 228.181 107.063,228.744 105.600,228.834 105.417 C 228.925 105.233,229.534 103.658,230.188 101.917 C 230.843 100.175,231.508 98.412,231.668 98.000 C 231.827 97.587,232.122 96.800,232.324 96.250 C 232.525 95.700,232.760 95.100,232.844 94.917 C 232.929 94.733,233.304 93.758,233.679 92.750 C 234.579 90.327,235.156 88.825,235.345 88.417 C 235.429 88.233,236.034 86.658,236.688 84.917 C 237.343 83.175,238.010 81.412,238.171 81.000 C 238.332 80.587,238.890 79.125,239.412 77.750 C 241.062 73.398,241.627 71.932,241.852 71.417 C 241.932 71.233,242.304 70.258,242.679 69.250 C 243.579 66.827,244.156 65.325,244.345 64.917 C 244.429 64.733,245.034 63.158,245.688 61.417 C 246.343 59.675,247.008 57.913,247.168 57.500 C 247.327 57.087,247.622 56.300,247.824 55.750 C 248.025 55.200,248.260 54.600,248.344 54.417 C 248.429 54.233,248.804 53.258,249.179 52.250 C 250.072 49.845,250.655 48.328,250.844 47.917 C 250.928 47.733,251.565 46.083,252.260 44.250 C 253.451 41.106,255.529 35.654,256.168 34.000 C 256.327 33.587,256.622 32.800,256.824 32.250 C 257.025 31.700,257.260 31.100,257.344 30.917 C 257.429 30.733,257.804 29.758,258.179 28.750 C 259.079 26.327,259.656 24.825,259.845 24.417 C 259.929 24.233,260.534 22.658,261.188 20.917 C 261.843 19.175,262.509 17.412,262.668 17.000 C 263.342 15.259,265.900 8.540,266.078 8.045 C 266.185 7.749,266.323 7.455,266.386 7.392 C 266.576 7.202,266.515 6.872,266.238 6.595 C 266.009 6.366,265.186 6.333,259.729 6.333 L 253.481 6.333 253.175 7.042 C 253.006 7.431,249.592 16.525,245.589 27.250 C 241.585 37.975,238.207 47.012,238.082 47.333 C 237.957 47.654,237.618 48.554,237.328 49.333 C 236.815 50.713,236.598 51.294,236.083 52.667 C 235.946 53.033,235.721 53.633,235.583 54.000 C 235.446 54.367,235.212 54.985,235.065 55.375 C 234.917 55.765,234.692 56.365,234.565 56.708 C 234.437 57.052,234.229 57.615,234.102 57.958 C 233.808 58.754,233.444 59.723,233.102 60.625 C 232.766 61.511,232.506 62.206,231.838 64.000 C 231.549 64.779,231.208 65.679,231.082 66.000 C 230.899 66.465,218.420 99.825,217.872 101.314 C 217.747 101.654,217.597 101.361,216.846 99.314 C 216.362 97.996,215.908 96.767,215.837 96.583 C 215.494 95.704,215.162 94.829,214.825 93.917 C 214.233 92.314,214.217 92.273,214.017 91.776 C 213.912 91.516,213.672 90.841,213.483 90.276 C 213.294 89.712,213.043 89.025,212.926 88.750 C 212.479 87.698,212.316 87.271,211.983 86.276 C 211.794 85.712,211.543 85.025,211.426 84.750 C 210.979 83.698,210.816 83.271,210.483 82.276 C 210.294 81.712,210.041 81.025,209.923 80.750 C 209.804 80.475,209.463 79.575,209.166 78.750 C 208.869 77.925,208.531 77.025,208.416 76.750 C 208.300 76.475,204.777 67.063,200.586 55.833 C 196.395 44.604,192.908 35.267,192.837 35.083 C 192.498 34.215,192.162 33.331,191.825 32.417 C 191.233 30.814,191.217 30.773,191.017 30.276 C 190.912 30.016,190.672 29.341,190.483 28.776 C 190.294 28.212,190.043 27.525,189.926 27.250 C 189.479 26.198,189.316 25.771,188.983 24.776 C 188.794 24.212,188.543 23.525,188.426 23.250 C 187.979 22.198,187.816 21.771,187.483 20.776 C 187.294 20.212,187.041 19.525,186.923 19.250 C 186.804 18.975,186.463 18.075,186.166 17.250 C 185.869 16.425,185.531 15.525,185.415 15.250 C 185.300 14.975,184.553 12.988,183.756 10.833 C 182.958 8.679,182.188 6.785,182.044 6.625 C 181.664 6.202,169.516 6.174,169.095 6.595 M334.539 14.829 C 334.930 14.919,336.037 15.063,337.000 15.149 C 340.448 15.458,345.003 16.562,347.750 17.754 C 350.839 19.094,351.215 19.277,353.500 20.552 C 357.815 22.959,361.657 26.226,365.397 30.669 C 378.343 46.049,379.605 72.775,368.201 90.083 C 361.090 100.877,349.276 108.209,337.167 109.344 C 336.204 109.434,335.097 109.581,334.706 109.671 C 333.776 109.883,328.200 109.881,327.010 109.667 C 326.500 109.576,325.371 109.430,324.500 109.343 C 321.278 109.023,317.384 108.105,314.640 107.019 C 314.426 106.934,313.837 106.700,313.333 106.500 C 299.555 101.022,289.164 87.717,286.585 72.250 C 286.463 71.517,286.318 70.767,286.262 70.583 C 285.856 69.236,285.495 59.123,285.814 58.000 C 285.905 57.679,286.053 56.592,286.143 55.583 C 286.326 53.549,286.857 50.500,287.319 48.833 C 287.686 47.510,288.217 45.728,288.338 45.417 C 288.409 45.233,288.751 44.296,289.098 43.333 C 293.233 31.869,303.176 21.686,314.083 17.744 C 314.542 17.578,314.992 17.389,315.083 17.324 C 315.175 17.259,315.512 17.150,315.833 17.083 C 316.154 17.016,316.492 16.904,316.583 16.833 C 316.675 16.763,317.125 16.616,317.583 16.506 C 318.042 16.397,318.867 16.194,319.417 16.056 C 321.852 15.442,324.513 15.023,326.083 15.006 C 326.633 15.000,327.196 14.922,327.333 14.833 C 327.660 14.622,333.618 14.619,334.539 14.829 M90.671 54.658 C 90.361 55.239,90.521 117.806,90.833 118.004 C 91.233 118.256,161.714 118.220,161.967 117.967 C 162.308 117.625,162.248 107.233,161.903 107.101 C 161.758 107.046,148.446 107.000,132.320 107.000 L 103.000 107.000 103.000 86.250 L 103.000 65.500 129.633 65.500 C 150.126 65.500,156.313 65.454,156.467 65.300 C 156.753 65.014,156.753 54.819,156.467 54.533 C 156.066 54.133,90.886 54.256,90.671 54.658 " stroke="none" fill="#142c4c" fill-rule="evenodd"/></g></svg>