<svg xmlns="http://www.w3.org/2000/svg" xmlns:xlink="http://www.w3.org/1999/xlink" id="a" viewBox="20.87 17.84 424.46 173.63"><defs><linearGradient id="b" x1="96.77" x2="104.64" y1="148.19" y2="140.32" gradientUnits="userSpaceOnUse"><stop offset=".38" stop-color="#5b96f7"/><stop offset="1" stop-color="#37cb89"/></linearGradient><linearGradient xlink:href="#b" id="c" x1="51.19" x2="59.06" y1="129.84" y2="121.97"/><linearGradient id="d" x1="34.74" x2="101.69" y1="177.6" y2="110.66" gradientUnits="userSpaceOnUse"><stop offset="0" stop-color="#5b96f7"/><stop offset=".42" stop-color="#34b1e6"/><stop offset="1" stop-color="#37cb89"/></linearGradient><linearGradient id="e" x1="24.69" x2="24.69" y1="107.45" y2="39.37" gradientUnits="userSpaceOnUse"><stop offset="0" stop-color="#5b96f7"/><stop offset="1" stop-color="#34b1e6"/></linearGradient><linearGradient id="f" x1="68.06" x2="68.06" y1="85.93" y2="17.85" gradientUnits="userSpaceOnUse"><stop offset=".31" stop-color="#34b1e6"/><stop offset="1" stop-color="#37cb89"/></linearGradient><linearGradient id="g" x1="136.39" x2="449.4" y1="141.63" y2="141.63" gradientTransform="translate(-4.06 -4.94)" gradientUnits="userSpaceOnUse"><stop offset="0" stop-color="#37cb89"/><stop offset=".58" stop-color="#34b1e6"/><stop offset="1" stop-color="#5b96f7"/></linearGradient><style>.i{fill:url(#g)}</style></defs><path d="M106.27 144.26c0 3.07-2.49 5.57-5.57 5.57s-5.57-2.49-5.57-5.57 2.49-5.57 5.57-5.57 5.57 2.49 5.57 5.57" style="fill:url(#b)"/><path d="M60.69 125.9c0 3.07-2.49 5.57-5.57 5.57s-5.57-2.49-5.57-5.57 2.49-5.57 5.57-5.57 5.57 2.49 5.57 5.57" style="fill:url(#c)"/><path d="M68.21 96.79c-26.15 0-47.34 21.2-47.34 47.34 0 4.33.59 8.53 1.68 12.51 6.45.21 11.62 5.5 11.62 12 0 2.34-.67 4.52-1.83 6.37 8.68 10.08 21.53 16.46 35.88 16.46 26.15 0 47.34-21.19 47.34-47.34s-21.2-47.34-47.34-47.34Zm-26.02 29.12c0-7.15 5.8-12.95 12.95-12.95s12.95 5.8 12.95 12.95-5.8 12.95-12.95 12.95-12.95-5.8-12.95-12.95m22.21 42.21c-4.08 0-7.38-3.31-7.38-7.38s3.31-7.38 7.38-7.38 7.38 3.31 7.38 7.38-3.31 7.38-7.38 7.38m16.42-43.91c-3.07 0-5.57-2.49-5.57-5.57s2.49-5.57 5.57-5.57 5.57 2.49 5.57 5.57-2.49 5.57-5.57 5.57m19.9 31.45c-6.28 0-11.37-5.09-11.37-11.37s5.09-11.37 11.37-11.37 11.37 5.09 11.37 11.37-5.09 11.37-11.37 11.37" style="fill:url(#d)"/><path d="M116.67 104.88c0 1.42-1.15 2.58-2.58 2.58s-2.58-1.15-2.58-2.58V41.95c0-1.42 1.15-2.58 2.58-2.58s2.58 1.15 2.58 2.58z" style="fill:#50d086"/><path d="M27.26 104.88c0 1.42-1.15 2.58-2.58 2.58s-2.58-1.15-2.58-2.58V41.95c0-1.42 1.15-2.58 2.58-2.58s2.58 1.15 2.58 2.58z" style="fill:url(#e)"/><path d="M70.64 83.35c0 1.42-1.15 2.58-2.58 2.58s-2.58-1.15-2.58-2.58V20.42c0-1.42 1.15-2.58 2.58-2.58s2.58 1.15 2.58 2.58z" style="fill:url(#f)"/><path d="M132.33 102.76h17.44l18.42 44.93h.78l18.42-44.93h17.44v66.87h-13.71V126.1h-.56l-17.31 43.2h-9.34l-17.31-43.36h-.56v43.69h-13.71z" class="i"/><path d="M239.04 170.61c-5.16 0-9.6-1.05-13.31-3.15s-6.57-5.08-8.57-8.95-3-8.44-3-13.73 1-9.69 3-13.58c2-3.9 4.83-6.93 8.47-9.11 3.65-2.18 7.93-3.26 12.85-3.26 3.31 0 6.39.53 9.26 1.58 2.86 1.06 5.37 2.64 7.51 4.75q3.21 3.165 5.01 7.95c1.2 3.19 1.8 6.92 1.8 11.18v3.82h-42.35v-8.62h29.26c0-2-.44-3.78-1.31-5.32a9.4 9.4 0 0 0-3.61-3.64q-2.295-1.32-5.34-1.32c-3.045 0-3.98.48-5.6 1.45s-2.89 2.26-3.8 3.89-1.38 3.42-1.4 5.4v8.2c0 2.48.46 4.63 1.39 6.43s2.24 3.2 3.93 4.18 3.71 1.47 6.04 1.47c1.55 0 2.96-.22 4.25-.65 1.28-.44 2.38-1.09 3.3-1.96s1.61-1.94 2.09-3.2l12.87.85c-.65 3.09-1.99 5.79-4 8.08-2.01 2.3-4.6 4.08-7.77 5.35s-6.82 1.91-10.96 1.91Z" class="i"/><path d="M297.81 119.48v10.45h-30.2v-10.45zm-23.35-12.02h13.91v46.76c0 1.28.2 2.28.59 2.99s.94 1.2 1.65 1.49c.71.28 1.53.42 2.47.42.65 0 1.31-.06 1.96-.18s1.15-.21 1.5-.28l2.19 10.35c-.7.22-1.68.47-2.94.77-1.26.29-2.8.47-4.6.54-3.35.13-6.29-.32-8.8-1.34s-4.47-2.61-5.86-4.77-2.08-4.88-2.06-8.16v-48.59Z" class="i"/><path d="M328.99 170.61c-5.07 0-9.45-1.08-13.14-3.25s-6.54-5.19-8.54-9.08q-3-5.835-3-13.53c0-7.695 1-9.71 3-13.6s4.85-6.91 8.54-9.08 8.07-3.25 13.14-3.25 9.45 1.08 13.14 3.25 6.54 5.19 8.54 9.08 3 8.42 3 13.6-1 9.65-3 13.53c-2 3.89-4.85 6.91-8.54 9.08s-8.07 3.25-13.14 3.25m.07-10.77c2.31 0 4.23-.66 5.78-1.98q2.325-1.98 3.51-5.4c.79-2.29 1.19-4.89 1.19-7.8s-.4-5.52-1.19-7.8c-.8-2.29-1.97-4.09-3.51-5.42-1.55-1.33-3.47-1.99-5.78-1.99s-4.28.66-5.86 1.99-2.76 3.14-3.56 5.42c-.8 2.29-1.19 4.89-1.19 7.8s.4 5.52 1.19 7.8c.79 2.29 1.98 4.09 3.56 5.4 1.58 1.32 3.53 1.98 5.86 1.98" class="i"/><path d="M362.76 169.63v-50.15h13.49v8.75h.52c.91-3.11 2.45-5.47 4.6-7.07s4.64-2.4 7.44-2.4c.7 0 1.45.04 2.25.13s1.51.21 2.12.36v12.34c-.65-.2-1.56-.37-2.71-.52s-2.21-.23-3.17-.23c-2.05 0-3.87.44-5.47 1.32s-2.86 2.11-3.79 3.67c-.93 1.57-1.39 3.37-1.39 5.42v28.38h-13.91Z" class="i"/><path d="M420.65 170.61c-5.07 0-9.45-1.08-13.14-3.25s-6.54-5.19-8.54-9.08q-3-5.835-3-13.53c0-7.695 1-9.71 3-13.6s4.85-6.91 8.54-9.08 8.07-3.25 13.14-3.25 9.45 1.08 13.14 3.25 6.54 5.19 8.54 9.08 3 8.42 3 13.6-1 9.65-3 13.53c-2 3.89-4.85 6.91-8.54 9.08s-8.07 3.25-13.14 3.25m.07-10.77c2.31 0 4.23-.66 5.78-1.98q2.325-1.98 3.51-5.4c.79-2.29 1.19-4.89 1.19-7.8s-.4-5.52-1.19-7.8c-.8-2.29-1.97-4.09-3.51-5.42-1.55-1.33-3.47-1.99-5.78-1.99s-4.28.66-5.86 1.99-2.76 3.14-3.56 5.42c-.8 2.29-1.19 4.89-1.19 7.8s.4 5.52 1.19 7.8c.79 2.29 1.98 4.09 3.56 5.4 1.58 1.32 3.53 1.98 5.86 1.98" class="i"/><path d="M0 0h453.54v255.12H0z" style="fill:none"/></svg>