<svg width="120" height="40" viewBox="0 0 120 40" fill="none" xmlns="http://www.w3.org/2000/svg">
<path d="M16.2253 33.9374C14.4503 34.2502 12.644 34.3439 10.7755 34.5937L5.07619 17.8438V35.3126C3.30112 35.5 1.68173 35.75 0 36V4H4.73383L11.2114 22.1565V4H16.2253V33.9374ZM26.0354 15.7188C27.9663 15.7188 30.9249 15.625 32.6999 15.625V20.6249C30.4887 20.6249 27.904 20.6249 26.0354 20.7186V28.1563C28.9629 27.9688 31.8903 27.7186 34.8487 27.6248V32.4371L21.0524 33.531V4H34.8487V9.00001H26.0354V15.7188ZM53.3786 9.00012H48.209V32.0001C46.5273 32.0001 44.8455 32.0001 43.2264 32.0624V9.00012H38.0567V4H53.3789L53.3786 9.00012ZM61.4757 15.3751H68.2961V20.375H61.4757V31.7189H56.586V4H70.5072V9.00001H61.4757V15.3751ZM78.6042 27.3437C81.4383 27.4061 84.3033 27.6252 87.0751 27.7812V32.7187C82.6218 32.4373 78.1683 32.1564 73.6215 32.0624V4H78.6042V27.3437ZM91.2793 33.0625C92.8676 33.1564 94.5493 33.2502 96.1687 33.4374V4H91.2793V33.0625ZM118 4L111.678 19.2188L118 36C116.131 35.75 114.263 35.4062 112.394 35.0937L108.813 25.8439L105.169 34.3439C103.363 34.0311 101.619 33.9374 99.8129 33.6874L106.228 19.0311L100.436 4H105.792L109.062 12.4063L112.55 4H118Z" fill="#D81F26"/>
</svg>
