<svg width="1952" height="275" viewBox="0 0 1952 275" fill="none" xmlns="http://www.w3.org/2000/svg">
<g clip-path="url(#clip0_568_8008)">
<path d="M49.6802 141C48.8626 140.998 48.06 140.78 47.3534 140.369C46.6467 139.957 46.061 139.367 45.6554 138.657C45.2497 137.947 45.0384 137.143 45.0428 136.325C45.0471 135.507 45.267 134.705 45.6802 134L121.49 2.32984C121.797 1.79996 122.205 1.33566 122.691 0.963458C123.177 0.591254 123.732 0.318434 124.323 0.160575C124.915 0.00271492 125.531 -0.0370925 126.138 0.043425C126.745 0.123942 127.33 0.323208 127.86 0.629845C128.39 0.936481 128.854 1.34448 129.227 1.83056C129.599 2.31663 129.872 2.87125 130.03 3.46276C130.187 4.05427 130.227 4.67108 130.147 5.27798C130.066 5.88487 129.867 6.46996 129.56 6.99984L53.7102 138.62C53.3105 139.339 52.7264 139.938 52.0181 140.357C51.3098 140.775 50.5028 140.997 49.6802 141ZM72.0702 141C71.2538 140.995 70.4531 140.775 69.7482 140.363C69.0434 139.951 68.4591 139.361 68.0541 138.652C67.649 137.943 67.4373 137.14 67.4401 136.324C67.4429 135.507 67.6602 134.706 68.0702 134L132.37 21.9298C132.986 20.8597 134.001 20.0778 135.193 19.7562C136.384 19.4346 137.655 19.5995 138.725 20.2148C139.795 20.8301 140.577 21.8454 140.899 23.0372C141.221 24.229 141.056 25.4997 140.44 26.5698L76.1102 138.62C75.7081 139.339 75.1221 139.938 74.4122 140.356C73.7023 140.775 72.8941 140.997 72.0702 141ZM95.3302 141C94.5113 141.001 93.7068 140.784 93.0002 140.37C92.471 140.063 92.0075 139.654 91.6361 139.168C91.2648 138.681 90.9929 138.126 90.8359 137.535C90.679 136.943 90.6401 136.327 90.7215 135.72C90.8029 135.114 91.0029 134.529 91.3102 134L144.53 42.4598C144.823 41.9034 145.225 41.4119 145.712 41.0149C146.2 40.6179 146.763 40.3237 147.367 40.1499C147.971 39.9761 148.604 39.9264 149.228 40.0037C149.852 40.0809 150.454 40.2837 150.997 40.5996C151.541 40.9156 152.015 41.3383 152.39 41.8422C152.766 42.3461 153.036 42.9209 153.184 43.5319C153.332 44.143 153.355 44.7776 153.251 45.3976C153.147 46.0177 152.919 46.6103 152.58 47.1398L99.3602 138.64C98.9563 139.354 98.3708 139.948 97.663 140.362C96.9552 140.777 96.1504 140.997 95.3302 141ZM119 141C118.193 141.003 117.4 140.792 116.7 140.39C116.168 140.083 115.701 139.675 115.327 139.187C114.952 138.699 114.679 138.143 114.521 137.549C114.363 136.955 114.324 136.335 114.406 135.726C114.488 135.117 114.69 134.531 115 134L155.6 62.8098C155.888 62.2505 156.285 61.7551 156.769 61.3535C157.253 60.9519 157.814 60.6525 158.417 60.4732C159.019 60.2939 159.652 60.2386 160.277 60.3104C160.902 60.3822 161.506 60.5797 162.052 60.8911C162.599 61.2025 163.076 61.6212 163.457 62.1222C163.837 62.6231 164.112 63.1958 164.265 63.8058C164.418 64.4158 164.446 65.0505 164.347 65.6716C164.248 66.2927 164.025 66.8874 163.69 67.4198L123.09 138.61C122.685 139.338 122.092 139.944 121.372 140.365C120.653 140.785 119.834 141.005 119 141ZM4.65024 219C3.45298 218.944 2.32314 218.43 1.4955 217.563C0.667856 216.696 0.206055 215.543 0.206055 214.345C0.206055 213.146 0.667856 211.994 1.4955 211.127C2.32314 210.26 3.45298 209.745 4.65024 209.69L153.71 209.52C154.908 209.575 156.037 210.09 156.865 210.957C157.693 211.824 158.154 212.976 158.154 214.175C158.154 215.373 157.693 216.526 156.865 217.393C156.037 218.26 154.908 218.774 153.71 218.83L4.66024 219H4.65024ZM16.1802 199.83C14.983 199.774 13.8531 199.26 13.0255 198.393C12.1979 197.526 11.7361 196.373 11.7361 195.175C11.7361 193.976 12.1979 192.824 13.0255 191.957C13.8531 191.09 14.983 190.575 16.1802 190.52L142.51 190.13C143.707 190.185 144.837 190.7 145.665 191.567C146.493 192.434 146.954 193.586 146.954 194.785C146.954 195.983 146.493 197.136 145.665 198.003C144.837 198.87 143.707 199.384 142.51 199.44L16.1802 199.83ZM130.88 179.3L27.8802 179.02C27.2508 179.049 26.622 178.95 26.0318 178.729C25.4416 178.509 24.9023 178.171 24.4465 177.735C23.9907 177.3 23.628 176.777 23.3801 176.198C23.1322 175.619 23.0044 174.995 23.0044 174.365C23.0044 173.735 23.1322 173.111 23.3801 172.532C23.628 171.952 23.9907 171.429 24.4465 170.994C24.9023 170.559 25.4416 170.221 26.0318 170C26.622 169.779 27.2508 169.681 27.8802 169.71L130.88 169.99C132.078 170.045 133.207 170.56 134.035 171.427C134.863 172.294 135.324 173.446 135.324 174.645C135.324 175.843 134.863 176.996 134.035 177.863C133.207 178.73 132.078 179.244 130.88 179.3ZM40.0002 159.25C38.803 159.194 37.6731 158.68 36.8455 157.813C36.0179 156.946 35.5561 155.793 35.5561 154.595C35.5561 153.396 36.0179 152.244 36.8455 151.377C37.6731 150.51 38.803 149.995 40.0002 149.94L119.09 149.47C120.288 149.525 121.417 150.04 122.245 150.907C123.073 151.774 123.534 152.926 123.534 154.125C123.534 155.323 123.073 156.476 122.245 157.343C121.417 158.21 120.288 158.724 119.09 158.78L40.0002 159.25ZM244.5 218.93C243.677 218.929 242.868 218.711 242.157 218.296C241.445 217.882 240.857 217.286 240.45 216.57L166.19 86.0798C165.641 85.0116 165.526 83.7727 165.868 82.6215C166.211 81.4702 166.984 80.4957 168.028 79.901C169.071 79.3064 170.304 79.1376 171.469 79.4299C172.634 79.7222 173.641 80.453 174.28 81.4698L248.54 212C249.15 213.071 249.309 214.341 248.983 215.53C248.657 216.719 247.871 217.73 246.8 218.34C246.098 218.734 245.305 218.938 244.5 218.93ZM222.12 218.53C221.298 218.531 220.489 218.315 219.778 217.902C219.066 217.489 218.477 216.895 218.07 216.18L155 105.47C154.666 104.937 154.442 104.343 154.343 103.722C154.245 103.1 154.273 102.466 154.426 101.856C154.579 101.246 154.854 100.673 155.234 100.172C155.614 99.6712 156.092 99.2525 156.638 98.9411C157.185 98.6297 157.789 98.4322 158.413 98.3604C159.038 98.2886 159.671 98.3439 160.274 98.5232C160.877 98.7025 161.437 99.0019 161.921 99.4035C162.405 99.8051 162.803 100.3 163.09 100.86L226.17 211.57C226.78 212.643 226.94 213.914 226.614 215.105C226.287 216.295 225.502 217.308 224.43 217.92C223.728 218.324 222.931 218.534 222.12 218.53ZM198.25 218.82C197.423 218.822 196.609 218.603 195.895 218.184C195.181 217.766 194.592 217.163 194.19 216.44L143.34 125.59C142.776 124.515 142.654 123.262 142.999 122.098C143.345 120.934 144.131 119.951 145.191 119.358C146.25 118.765 147.499 118.609 148.672 118.923C149.845 119.237 150.849 119.997 151.47 121.04L202.31 211.89C202.709 212.598 202.915 213.398 202.907 214.211C202.9 215.023 202.68 215.819 202.27 216.52C201.859 217.221 201.272 217.803 200.567 218.206C199.861 218.61 199.063 218.821 198.25 218.82ZM175.09 218.24C174.266 218.241 173.457 218.024 172.745 217.609C172.034 217.194 171.445 216.597 171.04 215.88L131.51 146.13C130.968 145.061 130.858 143.824 131.205 142.676C131.551 141.528 132.326 140.558 133.369 139.967C134.412 139.376 135.642 139.21 136.805 139.503C137.967 139.796 138.972 140.525 139.61 141.54L179.14 211.29C179.443 211.821 179.637 212.407 179.712 213.014C179.787 213.621 179.742 214.237 179.578 214.826C179.415 215.415 179.136 215.966 178.759 216.447C178.382 216.928 177.913 217.33 177.38 217.63C176.685 218.033 175.894 218.244 175.09 218.24ZM419.66 5.22984H327.09V216.5H353.55V135.07H419.66C454.35 135.07 482.58 105.95 482.58 70.1498C482.58 34.3498 454.35 5.22984 419.66 5.22984ZM419.66 107.76H353.55V32.5398H419.66C439.76 32.5398 456.11 49.4098 456.11 70.1498C456.11 90.8898 439.76 107.76 419.66 107.76ZM558 59.3198C515.09 59.3198 480.18 95.3198 480.18 139.61C480.18 183.9 515.09 219.89 558 219.89C600.91 219.89 635.8 183.89 635.8 139.62C635.8 95.3498 600.87 59.3198 558 59.3198ZM609.33 139.62C609.33 168.83 586.33 192.62 558 192.62C529.67 192.62 506.65 168.86 506.65 139.62C506.65 110.38 529.65 86.6199 558 86.6199C586.35 86.6199 609.3 110.41 609.3 139.62H609.33ZM654.76 5.22984H681.22V216.51H654.76V5.22984ZM830.11 62.6998V79.4198C816.119 66.5321 797.803 59.3599 778.78 59.3198C735.88 59.3198 700.97 95.3198 700.97 139.61C700.97 183.9 735.88 219.89 778.78 219.89C797.803 219.85 816.119 212.678 830.11 199.79V216.51H856.58V62.6998H830.11ZM830.11 139.61C830.11 168.82 807.11 192.61 778.78 192.61C750.45 192.61 727.43 168.85 727.43 139.61C727.43 110.37 750.43 86.6098 778.78 86.6098C807.13 86.6098 830.11 110.4 830.11 139.61ZM963.35 59.6898C952.634 60.7246 942.255 63.995 932.881 69.2899C923.507 74.5847 915.348 81.7863 908.93 90.4298V62.6998H882.46V216.52H908.93V145.17C908.93 114.17 933.41 88.3798 963.49 87.5998H964.67V59.5998L963.35 59.6898ZM1140.26 100.31L1078.26 82.8198C1066.04 78.3998 1063.26 67.3098 1064.72 58.4098C1067.21 43.3398 1082.36 28.1198 1110.59 28.1198C1127.25 28.1198 1139.71 32.4898 1147.59 41.1198C1156.3 50.6098 1157.83 63.5099 1158.09 68.6199L1158.16 70.0598L1184.31 64.7798L1184.21 63.6498C1183.14 52.3698 1179.29 36.0898 1167.06 22.6498C1153.94 8.13984 1134.93 0.809845 1110.57 0.809845C1066.89 0.809845 1042.95 27.4398 1038.57 53.8098C1034.51 78.4198 1047.24 100.52 1070.33 108.81L1133.49 126.66C1153.49 131.86 1165.1 145.57 1163.17 161.66C1161.17 178.2 1144.91 194.89 1113.03 194.89C1093.62 194.89 1079.03 189.73 1069.72 179.56C1063.72 173.03 1059.82 164.43 1058.13 154.01L1057.93 152.74L1032 158L1032.2 159.21C1034.83 174.69 1040.92 187.77 1050.28 198.09C1064.79 214.09 1085.91 222.22 1113.06 222.22C1160.83 222.22 1186.15 192.58 1189.46 165.04C1192.5 140 1178.45 110.23 1140.26 100.31ZM1230.11 5.26984C1220.67 5.26984 1213 13.1898 1213 22.9298C1213 32.6698 1220.67 40.5898 1230.11 40.5898C1239.55 40.5898 1247.23 32.6698 1247.23 22.9298C1247.23 13.1898 1239.55 5.26984 1230.11 5.26984ZM1216.88 62.6998H1243.35V216.51H1216.88V62.6998ZM1396.21 62.6998V79.4198C1382.22 66.5321 1363.9 59.3599 1344.88 59.3198C1301.98 59.3198 1267.07 95.3199 1267.07 139.6C1267.07 183.88 1301.98 219.89 1344.88 219.89C1363.9 219.847 1382.22 212.671 1396.21 199.78V240.12C1396.22 241.004 1396.06 241.881 1395.74 242.703C1395.41 243.525 1394.93 244.274 1394.31 244.908C1393.69 245.542 1392.96 246.049 1392.15 246.399C1391.34 246.75 1390.46 246.937 1389.58 246.95H1296.13V274.26H1389.58C1407.83 274.26 1422.68 258.95 1422.68 240.12V62.6998H1396.21ZM1396.21 139.6C1396.21 168.82 1373.21 192.6 1344.88 192.6C1316.55 192.6 1293.54 168.84 1293.54 139.6C1293.54 110.36 1316.54 86.5998 1344.88 86.5998C1373.22 86.5998 1396.21 110.4 1396.21 139.6ZM1521.17 59.3198C1511.39 59.3684 1501.75 61.7096 1493.04 66.1555C1484.33 70.6014 1476.78 77.0281 1471 84.9198V62.6998H1444.53V216.5H1471V131.91C1471 107.39 1490.33 87.4398 1514.1 87.4398C1537.87 87.4398 1557.2 107.44 1557.2 131.91V216.5H1584.45V124.6C1584.43 88.5998 1556.05 59.3198 1521.17 59.3198ZM1731.43 62.6998V79.4198C1717.44 66.5297 1699.12 59.3574 1680.09 59.3198C1637.19 59.3198 1602.28 95.3198 1602.28 139.61C1602.28 183.9 1637.19 219.89 1680.09 219.89C1699.12 219.852 1717.44 212.68 1731.43 199.79V216.51H1757.89V62.6998H1731.43ZM1731.43 139.61C1731.43 168.82 1708.43 192.61 1680.09 192.61C1651.75 192.61 1628.74 168.85 1628.74 139.61C1628.74 110.37 1651.74 86.6098 1680.09 86.6098C1708.44 86.6098 1731.43 110.4 1731.43 139.61ZM1783.03 5.22984H1809.5V216.51H1783.03V5.22984ZM1913.19 124.64L1869.61 112.64C1862.15 110 1862.03 103.75 1862.61 100.27C1864.08 91.5198 1873.49 82.6998 1891.19 82.6998C1901.85 82.6998 1909.71 85.2998 1914.55 90.4298C1918.55 94.7098 1920.06 100.21 1920.55 104.07L1920.89 106.5L1947.07 102.95L1946.76 100.48C1945.28 89.2299 1941 79.6998 1934 72.1798C1924 61.3998 1909.58 55.9298 1891.23 55.9298C1858.07 55.9298 1839.85 75.9298 1836.49 95.7798C1833.29 114.78 1843.42 131.78 1861.78 138.27L1906.52 150.57C1918.59 153.65 1925.68 161.39 1924.58 170.3C1923.38 179.96 1913.16 189.71 1893.01 189.71C1880.37 189.71 1871.01 186.57 1865.2 180.37C1861.51 176.45 1859.1 171.23 1858.05 164.84L1857.24 159.95L1831.16 165.09L1831.99 169.79C1833.99 181.24 1838.61 190.95 1845.78 198.65C1856.78 210.51 1872.78 216.52 1893.01 216.52C1929.16 216.52 1948.36 194.28 1950.91 173.62C1953.24 154.59 1942.49 132.07 1913.19 124.64Z" fill="#687EE6"/>
</g>
<defs>
<clipPath id="clip0_568_8008">
<rect width="1951.2" height="274.26" fill="white"/>
</clipPath>
</defs>
</svg>
