<?xml version="1.0" encoding="UTF-8"?>
<svg id="Layer_1" data-name="Layer 1" xmlns="http://www.w3.org/2000/svg" xmlns:xlink="http://www.w3.org/1999/xlink" viewBox="0 0 970 134">
  <defs>
    <style>
      .cls-1 {
        fill: url(#linear-gradient);
      }

      .cls-1, .cls-2, .cls-3, .cls-4 {
        stroke-width: 0px;
      }

      .cls-2 {
        fill: #150f2f;
      }

      .cls-3 {
        fill: #d0ceea;
      }

      .cls-4 {
        fill: #fff;
      }
    </style>
    <linearGradient id="linear-gradient" x1="2.05" y1="67" x2="102.21" y2="67" gradientUnits="userSpaceOnUse">
      <stop offset="0" stop-color="#602fcd"/>
      <stop offset="1" stop-color="#6f719c"/>
    </linearGradient>
  </defs>
  <g>
    <path class="cls-1" d="M102.21,30.2c0-3.57-2.08-6.81-5.33-8.3L55.94,3.11c-1.21-.55-2.51-.83-3.81-.83s-2.6.28-3.81.83L7.37,21.9c-3.25,1.49-5.33,4.73-5.33,8.3v49.5c0,10.48,5.07,21.54,14.29,31.13,8.51,8.87,20.19,16.11,32.87,20.4.95.32,1.94.48,2.93.48s1.98-.16,2.93-.48c12.68-4.29,24.35-11.54,32.87-20.4,9.21-9.59,14.29-20.65,14.29-31.13V30.2Z"/>
    <g>
      <path class="cls-3" d="M93.07,30.2L52.13,11.42v35.46h36.32l-1.88,10.91h-34.43v64.8c23.29-7.88,40.95-26.03,40.95-42.88V30.2ZM64.92,108.78c-2.1,1.27-4.32,2.44-6.64,3.5l7.89-46.12h6.04l-7.29,42.62ZM79.71,96.59c-2.09,2.54-4.53,4.96-7.27,7.21l6.44-37.64h6.04l-5.21,30.42Z"/>
      <path class="cls-4" d="M52.13,11.42L11.18,30.2v49.5c0,16.85,17.66,35,40.95,42.88V57.79H17.7l-1.88-10.91h36.31V11.42ZM38.08,66.17l7.92,46.29c-2.31-1.04-4.53-2.2-6.63-3.45l-7.33-42.83h6.04ZM25.37,66.17l6.49,37.94c-2.72-2.19-5.14-4.55-7.24-7.03l-5.29-30.92h6.04Z"/>
    </g>
  </g>
  <g>
    <path class="cls-2" d="M154.59,107.67V26.33h44.7c23.5,0,31.68,9.91,31.68,29.15v1.53c0,18.66-8.18,28.69-31.68,28.69h-28.69v21.97h-16.01s0,0,0,0ZM198.02,70.49c11.87,0,16.94-2.53,16.94-13.59v-1.42c0-11.64-4.84-13.82-16.94-13.82h-27.42v28.84h27.42Z"/>
    <path class="cls-2" d="M341.11,79.67v-25.23c0-17.28,8.18-28.11,27.3-28.11h29.61c19.12,0,27.3,10.83,27.3,28.11v25.23c0,17.17-8.18,27.99-27.3,27.99h-29.61c-19.12,0-27.3-10.83-27.3-27.99ZM398.02,92.34c7.72,0,11.29-2.19,11.29-12.1v-26.38c0-10.02-3.23-12.21-11.29-12.21h-29.61c-7.95,0-11.29,2.19-11.29,12.21v26.38c0,9.91,3.57,12.1,11.29,12.1h29.61Z"/>
    <path class="cls-2" d="M464.07,107.67V41.77h-27.76s0,0,0,0v-15.44h71.54s0,0,0,0v15.44h-27.76v65.9h-16.01s0,0,0,0Z"/>
    <path class="cls-2" d="M522.25,107.67V26.33h67.49s-2.64,15.32-2.64,15.32h-48.95v17.74h44.21v14.17h-44.21v18.78h48.95s2.64,15.32,2.64,15.32c0,0-67.49,0-67.49,0,0,0,0,0,0,0Z"/>
    <path class="cls-2" d="M721.28,107.67V41.77h-27.76s0,0,0,0v-15.44h71.54s0,0,0,0v15.44h-27.76v65.9h-16.01Z"/>
    <polygon class="cls-2" points="967.95 41.77 967.95 26.33 945.94 26.33 945.94 26.33 929.92 26.33 929.92 26.33 907.91 26.33 907.91 41.77 929.92 41.77 929.92 92.23 907.91 92.23 907.91 107.67 929.92 107.67 945.94 107.67 967.95 107.67 967.95 92.23 945.94 92.23 945.94 41.77 967.95 41.77"/>
    <path class="cls-2" d="M856.33,26.33h-16.89l-39.23,81.33h17.86l6.55-14.05h46.6l6.38,14.05h17.84l-39.11-81.33ZM830.61,80.48l17.4-37.44,17.17,37.44h-34.56Z"/>
    <path class="cls-2" d="M325.44,56.44v-.73c0-19.47-8.99-29.38-32.6-29.38h-44.7v81.33h16.01v-22.31h28.34l13.75,22.31h18.53l-16.14-23.93c12.33-3.69,16.82-13.25,16.82-27.3ZM291.57,70.49h-27.42v-28.84h27.42c12.1,0,16.93,2.19,16.93,13.82v1.42c0,11.06-5.07,13.59-16.93,13.59Z"/>
    <path class="cls-2" d="M666.67,76.21v4.04c0,9.91-3.57,12.1-11.29,12.1h-25.69c-7.72,0-11.29-2.19-11.29-12.1v-26.38c0-10.02,3.34-12.21,11.29-12.21h25.69c8.06,0,11.29,2.19,11.29,12.21v2.8h16.01v-2.23c0-17.28-8.18-28.11-27.3-28.11h-25.69c-19.12,0-27.3,10.83-27.3,28.11v25.23c0,17.17,8.18,27.99,27.3,27.99h25.69c19.12,0,27.3-10.83,27.3-27.99v-3.47h-16.01Z"/>
  </g>
</svg>