<?xml version="1.0" encoding="UTF-8"?>
<svg id="Layer_2" xmlns="http://www.w3.org/2000/svg" viewBox="0 0 143.39 36.83">
  <defs>
    <style>
      .cls-1 {
        fill: #895ae8;
      }
    </style>
  </defs>
  <g id="main">
    <g>
      <g>
        <path class="cls-1" d="M69.35,19.18c0,1.77-.34,3.27-1.03,4.49-.69,1.22-1.61,2.14-2.78,2.77-1.17.63-2.47.94-3.91.94s-2.76-.32-3.92-.95c-1.16-.63-2.09-1.56-2.77-2.78-.68-1.22-1.03-2.71-1.03-4.47s.34-3.27,1.03-4.49c.68-1.22,1.61-2.14,2.77-2.77,1.16-.63,2.47-.94,3.92-.94s2.74.31,3.91.94c1.17.63,2.09,1.55,2.78,2.77s1.03,2.71,1.03,4.49ZM65.06,19.18c0-.98-.13-1.81-.4-2.49-.26-.68-.65-1.19-1.16-1.54-.51-.35-1.13-.53-1.86-.53s-1.35.18-1.86.53c-.51.35-.9.86-1.16,1.54-.27.68-.4,1.5-.4,2.49s.13,1.81.4,2.49c.26.68.65,1.19,1.16,1.54.51.35,1.13.53,1.86.53s1.35-.18,1.86-.53c.51-.35.9-.86,1.16-1.54.27-.68.4-1.5.4-2.49ZM60.16,21.3h3.29l1.25,1.57,1.96,2.23,2.67,3.27h-3.73l-1.89-2.22-1.22-1.76-2.34-3.09Z"/>
        <path class="cls-1" d="M72.55,27.16v-15.96h6.8c1.19,0,2.23.23,3.11.7.88.47,1.57,1.12,2.05,1.96.49.84.73,1.82.73,2.94s-.25,2.12-.75,2.95c-.5.83-1.2,1.47-2.1,1.93s-1.96.68-3.18.68h-4.1v-3.26h3.27c.54,0,.99-.09,1.36-.28.37-.19.66-.45.85-.8.2-.35.3-.75.3-1.21s-.1-.87-.3-1.21c-.2-.34-.48-.6-.86-.78-.37-.18-.83-.27-1.36-.27h-1.64v12.61h-4.19Z"/>
        <path class="cls-1" d="M102.6,19.18c0,1.77-.34,3.27-1.03,4.49-.69,1.22-1.61,2.14-2.78,2.77-1.17.63-2.47.94-3.91.94s-2.76-.32-3.92-.95c-1.16-.63-2.09-1.56-2.77-2.78-.68-1.22-1.03-2.71-1.03-4.47s.34-3.27,1.03-4.49c.68-1.22,1.61-2.14,2.77-2.77,1.16-.63,2.47-.94,3.92-.94s2.74.31,3.91.94c1.17.63,2.09,1.55,2.78,2.77s1.03,2.71,1.03,4.49ZM98.31,19.18c0-.98-.13-1.81-.4-2.49-.26-.68-.65-1.19-1.16-1.54-.51-.35-1.13-.53-1.86-.53s-1.35.18-1.86.53c-.51.35-.9.86-1.16,1.54-.27.68-.4,1.5-.4,2.49s.13,1.81.4,2.49c.26.68.65,1.19,1.16,1.54.51.35,1.13.53,1.86.53s1.35-.18,1.86-.53c.51-.35.9-.86,1.16-1.54.27-.68.4-1.5.4-2.49Z"/>
        <path class="cls-1" d="M109.92,11.2v15.96h-4.19v-15.96h4.19Z"/>
        <path class="cls-1" d="M128.04,11.2v15.96h-3.51l-5.96-8.65h-.09v8.65h-4.19v-15.96h3.57l5.87,8.63h.12v-8.63h4.18Z"/>
        <path class="cls-1" d="M129.64,14.57v-3.38h13.75v3.38h-4.82v12.59h-4.12v-12.59h-4.82Z"/>
      </g>
      <g>
        <path class="cls-1" d="M35.07,36.83c-.4,0-.8-.15-1.11-.46l-1.08-1.08c-.61-.61-.61-1.6,0-2.21.61-.61,1.6-.61,2.21,0l1.08,1.08c.61.61.61,1.6,0,2.21-.31.3-.71.46-1.11.46Z"/>
        <path class="cls-1" d="M18.37,0C8.23,0,0,8.23,0,18.37s8.23,18.37,18.37,18.37,18.37-8.23,18.37-18.37S28.52,0,18.37,0ZM29.42,29.63c-.3.31-.71.46-1.1.46s-.8-.15-1.1-.46l-4.55-4.55c-.61-.61-.61-1.6,0-2.21.61-.61,1.6-.61,2.21,0l4.55,4.55c.61.61.61,1.6,0,2.21Z"/>
      </g>
    </g>
  </g>
</svg>