<svg width="2953" height="1273" viewBox="0 0 2953 1273" fill="none" xmlns="http://www.w3.org/2000/svg">
<path d="M1312.81 40.924C1308.37 23.4629 1295.86 13.53 1278.26 7.3757C1220.98 -12.633 1160.61 8.89282 1124.48 61.9346C1102.7 93.9085 1089.93 129.747 1078.17 166.072C1061.54 217.282 1045.19 268.577 1028.45 319.73C1026.21 326.571 1022.41 332.897 1017.28 343.803C1013.3 337.563 1011.96 334.3 1009.64 332.01C972.028 294.798 935.13 256.812 896.286 220.946C869.064 195.813 836.947 177.808 799.878 170.308C733.44 156.883 646.849 185.794 639.779 264.14C639.464 267.489 632.394 272.871 628.501 272.842C604.742 272.671 583.073 279.913 563.208 291.563C523.82 314.692 490.329 343.03 487.037 393.41C486.407 403.171 479.451 402.484 472.839 403.515C416.42 412.159 379.551 451.232 374.627 509.14C370.792 507.795 368.072 507.136 365.639 505.934C301.949 474.476 238.373 442.816 174.626 411.501C146.402 397.646 118.292 383.334 89.3238 371.254C65.2217 361.179 41.2054 363.526 21.5116 382.676C2.67643 401.024 -4.16491 423.294 2.47605 449.314C9.43188 476.68 24.4313 499.007 44.0965 518.644C57.4071 531.954 82.1676 549.845 98.7127 558.833C157.308 590.75 147.718 587.286 189.797 607.037C235.539 628.506 249.88 637.494 286.635 652.751C303.065 659.564 335.383 682.091 346.289 695.373C395.037 754.598 471.408 848.945 520.957 907.455C583.474 981.278 632.279 1029.83 713.202 1084.96C727.829 1094.92 749.412 1125.78 762.351 1145.07C765.728 1150.11 771.911 1152.51 777.808 1151.05C786.968 1148.79 791.519 1138.46 787.025 1130.18C775.575 1109.09 762.551 1093.72 752.246 1077.57C759.288 1074.57 766.873 1071.22 774.545 1068.13C820.23 1049.86 855.782 1018.92 883.749 979.188C887.04 974.523 887.384 962.729 884.035 959.552C876.85 952.71 869.093 958.235 863.883 965.534C845.42 991.468 823.579 1014.23 795.813 1029.8C777.293 1040.19 757.141 1047.92 737.132 1055.22C731.522 1057.28 722.19 1055.73 717.295 1052.12C688.098 1030.74 657.527 1010.53 631.535 985.629C597.214 952.768 565.412 917.015 534.783 880.576C493.105 830.969 452.315 780.532 413.7 728.549C392.375 699.81 375.171 667.321 343.827 648.429C309.678 627.847 273.782 610.1 238.058 592.238C215.216 580.817 191.314 571.428 166.496 560.493C178.461 544.005 189.368 529.092 200.13 514.121C202.678 510.571 204.997 506.822 207 502.929C210.836 495.458 213.584 487.328 204.453 482.204C195.407 477.138 190.541 483.664 186.104 490.42C179.091 501.154 172.479 512.26 164.693 522.422C143.654 549.873 143.31 549.931 113.34 533.328C80.7936 515.323 50.9951 494.055 35.6808 458.36C32.0169 449.858 29.8128 440.04 29.7555 430.794C29.5551 402.77 54.5446 386.111 79.8489 397.847C124.332 418.514 168.386 440.126 212.382 461.823C264.508 487.528 316.233 514.064 368.53 539.425C378.721 544.377 378.978 548.986 375.028 558.117C368.788 572.487 363.464 587.315 358.655 602.228C355.993 610.501 356.508 619.231 367.385 621.35C377.375 623.296 379.952 615.596 382.499 607.924C387.337 593.383 392.747 579.042 397.928 564.615L402.766 563.871C433.108 603.888 463.422 643.877 493.249 683.208C475.644 696.89 458.097 710.487 440.55 724.17C438.69 725.63 435.856 727.204 435.541 729.093C435.226 731.068 434.997 733.044 434.825 735.047C434.138 743.005 441.495 749.732 449.109 747.356C449.968 747.098 450.769 746.726 451.485 746.24C468.002 735.047 483.516 722.395 499.489 710.373C507.876 704.075 514.202 703.016 523.562 711.918C566.786 752.966 617.423 780.532 677.449 787.144C707.591 790.465 736.016 783.881 755.223 757.919C762.236 748.444 764.87 735.734 770.108 722.996H805.66C803.284 732.242 801.252 739.856 799.363 747.499C788.886 790.293 798.246 829.767 819.887 867.008C824.094 874.278 829.39 883.667 839.724 878.372C851.202 872.446 846.05 862.628 841.212 854.928C819.285 820.092 814.448 782.736 826.07 743.807C829.762 731.441 836.231 718.245 845.363 709.514C867.261 688.589 884.894 666.777 880.915 633.315C922.449 629.794 947.21 606.121 959.404 569.338C968.02 543.29 964.957 516.325 956.942 490.448C953.021 477.767 951.79 470.182 966.274 462.253C982.704 453.265 996.473 439.238 1010.84 426.787C1016.74 421.691 1021.69 414.363 1014.36 407.035C1006.81 399.45 1000.02 404.259 993.267 410.012C977.838 423.151 961.952 435.746 943.975 450.431C937.019 434.315 931.38 421.892 926.228 409.268C907.765 364.041 889.473 318.757 871.096 273.501C870.524 272.069 869.894 270.667 869.236 269.293C864.599 259.675 859.246 249.742 846.679 255.095C835.201 259.99 836.031 269.722 840.038 279.369C847.366 296.973 855.524 314.234 862.423 331.981C885.008 390.061 907.307 448.255 929.376 506.535C931.294 511.573 930.808 517.527 931.724 525.771C890.79 514.779 855.324 518.987 828.216 557.573C808.093 530.179 787.54 506.22 771.539 479.542C739.937 426.844 711.284 372.371 680.598 319.071C655.122 274.789 672.297 230.649 700.349 213.703C735.672 192.378 773.457 190.66 811.9 203.055C848.254 214.763 877.337 238.55 903.557 264.999C937.42 299.177 969.68 334.987 1001.48 371.111C1011.07 381.989 1017.14 396.072 1024.21 409.011C1035.55 429.792 1051.03 445.851 1073.13 455.125C1082.92 459.219 1092.28 460.306 1097.4 448.828C1102.24 438.008 1095.49 430.909 1086.47 427.502C1061.57 418.085 1052.01 395.9 1040.87 374.918C1039.52 372.371 1039.5 368.192 1040.56 365.415C1053.15 332.611 1066.09 299.921 1079.11 266.774C1095.51 274.817 1109.88 282.203 1124.54 288.929C1132.47 292.565 1141.2 293.338 1145.41 283.748C1149.9 273.529 1142.23 269.722 1134.3 265.915C1120.59 259.389 1107.05 252.461 1094 244.733C1091.02 242.958 1088.13 236.661 1088.99 233.426C1101.27 186.424 1113.09 139.107 1136.65 96.1127C1152.31 67.5451 1172.11 40.9526 1205.75 34.2258C1226.44 30.0752 1248.94 33.1094 1270.38 35.3135C1282.06 36.5158 1287.3 46.3341 1282.15 57.9271C1272.47 79.5961 1262.83 101.351 1251.55 122.19C1231.94 158.486 1223.75 196.729 1228.56 237.863C1228.82 240.153 1229.02 242.471 1229.08 244.761C1230.08 286.525 1233.37 278.968 1197.85 289.616C1192.21 291.305 1184.57 299.406 1184.68 304.415C1184.88 314.119 1194.01 314.291 1202.23 312.688C1209.18 311.343 1216.25 310.455 1225.79 308.967C1223.61 327.773 1220.43 345.378 1219.72 363.068C1217.89 409.211 1218.12 455.44 1215.6 501.526C1214.02 530.351 1211.3 559.491 1205 587.601C1190.49 652.436 1161.9 712.462 1138.62 774.349C1114.78 837.753 1063.25 864.202 1006.95 887.016C973.802 900.47 938.966 905.136 903.271 904.077C900.895 904.02 897.889 903.19 896.229 904.306C894.712 905.336 893.223 906.424 891.763 907.54C885.323 912.521 885.237 922.597 891.993 927.177C893.195 927.979 894.368 928.465 895.571 928.465C918.356 928.15 941.37 927.32 963.812 923.599C1021.49 914.067 1072.59 889.593 1116.95 851.321C1118.33 850.148 1120.13 849.461 1122.28 848.258C1128.09 865.405 1133.1 882.15 1139.43 898.409C1150.16 925.918 1162.96 952.682 1172.63 980.534L1172.34 980.648C1180.16 1000.2 1188 1019.86 1194.33 1036.09C1196.73 1042.22 1203.32 1045.57 1209.7 1043.88C1217.43 1041.85 1221.44 1033.38 1218.2 1026.08C1201.48 988.348 1176.38 918.389 1164.99 888.763C1153.08 857.733 1153.17 826.99 1166.1 795.474C1187.43 743.492 1208.41 691.251 1226.53 638.095C1240.01 598.45 1250.75 557.344 1247.4 514.693C1242.68 454.839 1248.03 395.671 1255.44 336.361C1259.28 305.761 1260.97 274.474 1259.36 243.731C1257.36 205.116 1265.46 170.337 1284.1 136.789C1295.6 116.064 1305.62 94.2807 1313.81 72.0392C1318.1 60.3316 1317.5 49.8549 1312.75 41.0099L1312.81 40.924ZM652.431 751.965C637.06 746.068 623.177 741.889 610.296 735.62C557.483 709.829 519.154 667.664 484.432 621.807C461.446 591.465 438.861 560.808 416.391 530.094C392.776 497.833 402.68 474.39 429.244 453.751C445.56 441.07 463.593 428.704 486.236 431.796C492.59 432.655 500.29 436.176 504.097 441.042C541.081 488.244 577.52 535.876 613.845 583.593C638.291 615.71 662.307 648.114 687.84 682.177C664.167 696.461 653.719 719.933 652.431 751.993V751.965ZM725.739 744.408C716.293 750.963 704.672 754.369 693.937 759.092C682.802 757.26 673.327 746.039 678.394 735.162C684.262 722.51 695.054 712.09 704.042 700.984C705.244 699.495 709.652 698.379 710.482 699.209C718.955 707.711 728.487 715.783 734.356 725.916C736.417 729.465 730.835 740.858 725.739 744.379V744.408ZM854.15 563.9C867.432 546.267 886.325 543.576 906.677 545.98C912.803 546.696 919.071 547.526 924.768 549.616C927.344 550.56 930.407 554.768 930.407 557.487C930.407 574.863 905.16 600.053 881.43 600.139C874.016 594.872 861.65 586.713 850.315 577.296C848.798 576.036 851.402 567.506 854.122 563.9H854.15ZM841.556 631.168C845.706 632.256 850.315 642.99 849.742 648.772C847.366 673.16 823.007 691.824 795.641 692.024C780.298 692.139 778.094 689.648 780.298 674.563C784.449 645.938 814.19 624.069 841.556 631.168ZM727.171 465.23C752.675 512.547 785.966 554.081 821.175 594.27C823.579 597.018 825.554 600.11 826.413 601.255C809.267 610.816 789.687 616.999 777.178 629.994C764.469 643.219 758.715 663.142 749.183 681.548C729.661 673.819 710.683 659.449 696.027 640.872C669.205 606.894 644.531 571.256 618.253 536.849C588.197 497.49 557.969 458.245 526.568 419.945C512.542 402.828 511.855 385.424 522.045 368.449C544.831 330.493 578.178 307.078 623.119 302.211C634.14 301.009 640.266 305.045 645.991 316.037C672.154 366.245 700.321 415.394 727.171 465.23Z" fill="url(#paint0_radial_7039_17187)"/>
<path d="M2768.92 1269.79V1207.3L2724.29 1014.74H2766.37L2779.76 1079.14L2785.5 1153.58H2793.63L2799.21 1079.14L2812.6 1014.74H2854.68L2810.05 1207.46V1269.79H2768.92Z" fill="url(#paint1_radial_7039_17187)"/>
<path d="M2568.78 1269.79V1051.08H2530.04V1014.74H2648.8V1051.08H2609.91V1269.79H2568.78Z" fill="url(#paint2_radial_7039_17187)"/>
<path d="M2402.9 1269.79V1014.74H2444.18V1269.79H2402.9Z" fill="url(#paint3_radial_7039_17187)"/>
<path d="M2191.1 1269.79V1014.74H2247.05C2268.51 1014.74 2283.98 1019.15 2293.44 1027.97C2303 1036.79 2308.15 1051.35 2308.9 1071.65C2309.11 1078.45 2309.27 1084.61 2309.38 1090.14C2309.48 1095.56 2309.48 1100.98 2309.38 1106.4C2309.27 1111.71 2309.11 1117.56 2308.9 1123.93C2308.47 1136.9 2306.29 1147.47 2302.36 1155.65C2298.43 1163.73 2292.27 1169.84 2283.87 1173.99L2312.72 1269.79H2269.05L2245.14 1180.84H2232.38V1269.79H2191.1ZM2232.38 1144.5H2246.89C2253.8 1144.5 2258.9 1142.95 2262.19 1139.87C2265.59 1136.68 2267.45 1132.06 2267.77 1126C2268.09 1120.05 2268.3 1113.89 2268.41 1107.51C2268.51 1101.03 2268.51 1094.6 2268.41 1088.22C2268.3 1081.74 2268.09 1075.53 2267.77 1069.57C2267.45 1063.52 2265.59 1058.95 2262.19 1055.87C2258.9 1052.68 2253.85 1051.08 2247.05 1051.08H2232.38V1144.5Z" fill="url(#paint4_radial_7039_17187)"/>
<path d="M2035.16 1272.66C2013.58 1272.66 1998.12 1268.19 1988.77 1259.27C1979.42 1250.24 1974.58 1235.25 1974.26 1214.32C1973.84 1181.27 1973.63 1148 1973.63 1114.53C1973.63 1080.95 1973.84 1047.68 1974.26 1014.74H2015.55C2015.12 1036.74 2014.86 1059.53 2014.75 1083.12C2014.75 1106.61 2014.81 1130.1 2014.91 1153.58C2015.02 1177.07 2015.18 1199.81 2015.39 1221.81C2015.39 1227.44 2017.09 1231.74 2020.49 1234.72C2023.89 1237.59 2028.78 1239.02 2035.16 1239.02C2041.64 1239.02 2046.47 1237.59 2049.66 1234.72C2052.96 1231.74 2054.6 1227.44 2054.6 1221.81C2054.82 1199.81 2054.98 1177.07 2055.08 1153.58C2055.3 1130.1 2055.35 1106.61 2055.24 1083.12C2055.24 1059.53 2055.03 1036.74 2054.6 1014.74H2095.73C2096.26 1047.68 2096.53 1080.95 2096.53 1114.53C2096.53 1148 2096.26 1181.27 2095.73 1214.32C2095.41 1235.25 2090.63 1250.24 2081.38 1259.27C2072.14 1268.19 2056.73 1272.66 2035.16 1272.66Z" fill="url(#paint5_radial_7039_17187)"/>
<path d="M1820.89 1272.82C1799.21 1272.82 1783.75 1268.3 1774.5 1259.27C1765.36 1250.24 1760.58 1235.25 1760.16 1214.32C1759.94 1203.9 1759.78 1192.53 1759.68 1180.2C1759.57 1167.88 1759.52 1155.23 1759.52 1142.26C1759.52 1129.3 1759.57 1116.65 1759.68 1104.32C1759.78 1091.89 1759.94 1080.41 1760.16 1069.89C1760.47 1051.83 1765.36 1037.64 1774.82 1027.33C1784.39 1017.02 1799.74 1011.87 1820.89 1011.87C1841.72 1011.87 1856.81 1016.39 1866.16 1025.42C1875.51 1034.35 1880.45 1049.22 1880.99 1070.05C1881.09 1073.77 1881.15 1077.92 1881.15 1082.49C1881.15 1087.06 1881.09 1091.68 1880.99 1096.35C1880.88 1100.92 1880.77 1105.02 1880.67 1108.63H1839.54C1839.65 1104.27 1839.75 1099.38 1839.86 1093.96C1839.97 1088.44 1840.02 1082.91 1840.02 1077.39C1840.02 1071.86 1839.97 1066.92 1839.86 1062.56C1839.75 1056.93 1838.05 1052.68 1834.76 1049.81C1831.57 1046.94 1826.95 1045.5 1820.89 1045.5C1814.62 1045.5 1809.84 1046.94 1806.54 1049.81C1803.25 1052.68 1801.49 1056.93 1801.28 1062.56C1800.86 1074.89 1800.54 1087.8 1800.33 1101.3C1800.22 1114.79 1800.17 1128.45 1800.17 1142.26C1800.17 1156.08 1800.22 1169.73 1800.33 1183.23C1800.54 1196.62 1800.86 1209.48 1801.28 1221.81C1801.49 1227.55 1803.25 1231.9 1806.54 1234.88C1809.84 1237.75 1814.62 1239.18 1820.89 1239.18C1827.48 1239.18 1832.47 1237.75 1835.87 1234.88C1839.27 1231.9 1841.03 1227.55 1841.13 1221.81C1841.24 1217.45 1841.29 1212.46 1841.29 1206.82C1841.4 1201.19 1841.4 1195.56 1841.29 1189.93C1841.29 1184.29 1841.24 1179.35 1841.13 1175.1H1882.26C1882.47 1181.16 1882.58 1187.69 1882.58 1194.71C1882.58 1201.62 1882.47 1208.15 1882.26 1214.32C1881.73 1235.25 1876.68 1250.24 1867.12 1259.27C1857.66 1268.3 1842.25 1272.82 1820.89 1272.82Z" fill="url(#paint6_radial_7039_17187)"/>
<path d="M1569.4 1269.79V1014.74H1670.14V1051.08H1610.68V1122.18H1666.95V1158.52H1610.68V1233.44H1670.14V1269.79H1569.4Z" fill="url(#paint7_radial_7039_17187)"/>
<path d="M1415.28 1272.66C1394.13 1272.66 1379.04 1268.14 1370.01 1259.11C1360.98 1250.08 1355.98 1235.09 1355.03 1214.16C1354.92 1210.01 1354.87 1205.71 1354.87 1201.24C1354.87 1196.78 1354.97 1192.37 1355.19 1188.01C1355.4 1183.55 1355.72 1179.19 1356.14 1174.94H1394.88C1394.45 1183.12 1394.19 1191.25 1394.08 1199.33C1394.08 1207.3 1394.35 1214.74 1394.88 1221.65C1395.41 1227.39 1397.27 1231.74 1400.46 1234.72C1403.75 1237.59 1408.69 1239.02 1415.28 1239.02C1421.76 1239.02 1426.49 1237.59 1429.47 1234.72C1432.44 1231.74 1434.2 1227.39 1434.73 1221.65C1435.15 1217.4 1435.42 1213.36 1435.53 1209.53C1435.74 1205.71 1435.74 1201.83 1435.53 1197.9C1435.42 1193.96 1435.15 1189.82 1434.73 1185.46C1434.41 1180.15 1433.08 1175.47 1430.74 1171.44C1428.51 1167.4 1424.74 1164.69 1419.43 1163.31L1395.67 1157.25C1385.37 1154.59 1377.24 1150.77 1371.29 1145.77C1365.33 1140.67 1361.03 1134.29 1358.37 1126.64C1355.82 1118.99 1354.39 1109.96 1354.07 1099.54C1353.96 1094.34 1353.91 1089.34 1353.91 1084.56C1353.91 1079.67 1353.96 1074.83 1354.07 1070.05C1354.6 1056.13 1356.89 1044.92 1360.92 1036.42C1365.07 1027.81 1371.5 1021.59 1380.21 1017.77C1389.03 1013.84 1400.72 1011.87 1415.28 1011.87C1435.79 1011.87 1450.62 1016.39 1459.76 1025.42C1469 1034.35 1474.05 1049.22 1474.9 1070.05C1475.11 1074.94 1475.17 1080.95 1475.06 1088.07C1474.95 1095.19 1474.74 1102.04 1474.42 1108.63H1434.89C1435.21 1100.98 1435.42 1093.33 1435.53 1085.67C1435.63 1077.92 1435.53 1070.21 1435.21 1062.56C1435 1056.93 1433.14 1052.68 1429.63 1049.81C1426.23 1046.94 1421.45 1045.5 1415.28 1045.5C1408.69 1045.5 1403.86 1046.94 1400.78 1049.81C1397.69 1052.68 1395.83 1056.93 1395.2 1062.56C1394.67 1068.72 1394.4 1074.89 1394.4 1081.05C1394.4 1087.22 1394.67 1093.38 1395.2 1099.54C1395.73 1105.07 1397.11 1109.74 1399.34 1113.57C1401.68 1117.4 1405.72 1120 1411.46 1121.38L1432.34 1126.32C1443.28 1128.98 1451.89 1132.97 1458.16 1138.28C1464.43 1143.49 1468.9 1150.02 1471.55 1157.89C1474.32 1165.75 1475.86 1174.94 1476.18 1185.46C1476.28 1188.97 1476.33 1192.32 1476.33 1195.51C1476.33 1198.59 1476.28 1201.67 1476.18 1204.75C1476.18 1207.73 1476.07 1210.86 1475.86 1214.16C1475.01 1235.09 1470.01 1250.08 1460.87 1259.11C1451.84 1268.14 1436.64 1272.66 1415.28 1272.66Z" fill="url(#paint8_radial_7039_17187)"/>
<path d="M2300.73 869.289C2300.61 868.262 2300.09 866.519 2300.42 866.344C2302.03 865.511 2303.14 866.368 2303.7 868.026C2302.7 868.439 2301.71 868.875 2300.71 869.288L2300.73 869.289Z" fill="#F7F7F7"/>
<path d="M1154.58 301.063C1176.06 300.083 1195.54 291.473 1215.37 284.594C1224.8 281.328 1233.65 276.05 1242.26 270.887C1260.52 259.928 1281.34 259.829 1301.33 257.345C1310.03 256.261 1315.47 255.402 1316.02 245.791C1316.61 235.142 1322.13 232.738 1331.84 235.825C1341.42 238.858 1351.62 242.888 1359.1 231.487C1359.3 231.17 1359.81 230.831 1360.14 230.878C1379.91 233.601 1386.95 217.674 1398.35 206.673C1407.19 198.139 1419.8 205.735 1430.66 207.734C1432.21 208.025 1433.65 208.951 1435.71 209.834C1442.31 200.515 1449.58 202.425 1459.14 206.342C1470.38 210.937 1483.26 208.303 1495.43 208.671C1496.2 208.706 1497.28 208.564 1497.71 208.065C1515.07 187.964 1535.06 195.109 1555.01 202.562C1561.93 205.132 1568.3 206.09 1574.66 200.982C1581.06 195.832 1588.31 196.611 1596.37 196.566C1617.3 196.453 1638.18 200.499 1659.18 197.093C1663.91 196.313 1667.46 194.052 1671.37 192.039C1676.07 189.641 1680.59 186.323 1686.26 188.048C1709.83 195.26 1732.88 186.603 1756.18 185.781C1757.83 185.725 1759.72 184.892 1761.05 185.477C1778.22 192.812 1797.54 190.544 1814.74 197.704C1821.36 200.452 1828.45 200.954 1835.4 200.051C1849.22 198.239 1863.54 209.261 1877.14 198.179C1878.72 196.879 1882.38 198.234 1884.69 200.862C1890.84 207.803 1897.55 214.255 1903.87 221.054C1904.91 222.194 1905.2 224.584 1907.09 224.258C1921.5 221.782 1924.06 230.649 1925.65 242.057C1926.41 247.582 1928.97 253.504 1935.6 255.987C1938.42 257.037 1942.25 258.914 1940.56 263.217C1937.91 269.928 1941.84 274.868 1944.31 280.342C1948.78 290.258 1947.27 301.193 1949.45 311.515C1944 328.955 1935.09 344.922 1927.2 361.23C1922.47 370.997 1912.34 377.775 1910.72 389.765C1909.28 400.506 1902.69 406.483 1892.56 410.804C1885.86 413.673 1876.78 412.603 1872.56 421.102C1866.99 432.335 1857.9 440.96 1849.4 449.94C1846.21 453.29 1841.97 456.674 1837.47 455.588C1826.81 453.029 1822.57 459.777 1818.01 466.989C1812.72 475.365 1807.98 484.954 1797.39 487.403C1773.32 492.951 1759.11 514.747 1736.74 523.298C1730.49 525.692 1722.13 527.376 1718.31 532.628C1708.22 546.426 1696.24 543.791 1682.87 540.124C1667.94 536.032 1666.19 537.275 1665.91 552.75C1665.73 563.275 1661.09 567.935 1651.11 568.481C1643.68 568.884 1636.26 569.353 1628.85 570.045C1623.33 570.566 1617.39 572.098 1615.58 577.72C1609.82 595.691 1594.27 601.226 1579.12 603.449C1560.23 606.236 1552.15 624.522 1533.1 627.076C1541.57 635.849 1549.63 640.275 1558.01 639.566C1567.76 638.76 1574.5 643.818 1580.95 648.458C1591.04 655.69 1603.85 660.888 1613.66 659.687C1626.41 658.129 1635.48 663.426 1646.05 666.244C1666.14 676.01 1683.09 691.387 1704.5 698.793C1706.03 699.327 1707.88 699.751 1708.91 700.868C1726.19 719.79 1753.56 723.629 1770.89 742.51C1776.77 748.922 1785.01 749.797 1793.26 749.854C1810.81 769.017 1831.9 779.675 1858.55 776.776C1862.88 776.299 1866.42 777.181 1869.8 780.286C1881.41 790.952 1896.08 791.019 1910.57 791.492C1932.23 797.035 1952.77 807.586 1976.09 805.967C1978.58 805.797 1981.68 807.62 1983.74 809.389C1988.05 813.095 1993.13 813.271 1998.28 814.582C2022.94 820.877 2050.48 819.306 2069.81 840.88C2074.57 846.214 2082.55 848.154 2088.93 851.703C2099.56 857.625 2117.71 855.934 2116.89 875.643C2116.86 876.703 2118.73 878.325 2120.04 878.887C2131.15 883.715 2137.61 896.59 2151.43 896.837C2153.8 896.88 2155.31 899.405 2157.09 901.174C2167.27 911.358 2175.93 924.152 2192.77 923.937C2198.35 932.585 2203.35 941.632 2215.46 942.904C2219.59 943.342 2222.18 947.762 2223.95 951.435C2227.11 958.001 2228.02 963.447 2217.4 963.326C2209.61 963.237 2201.85 965.009 2194.03 965.561C2186.09 966.102 2178.19 966.315 2173.74 957.44C2171.58 953.141 2167.34 952.296 2163 953.791C2156.94 955.888 2151.6 954.387 2146.53 951.09C2143.7 949.242 2140.64 947.023 2137.35 948.374C2124.99 953.482 2115.25 946.673 2104.58 942.431C2093.81 938.158 2082.85 934.471 2072.95 928.27C2066.94 924.505 2060.22 924.052 2053.84 926.281C2046.2 928.971 2040.29 927.117 2034.49 922.039C2024.2 913.021 2013.13 905.051 2001 898.642C1994.76 895.347 1990.32 890.746 1989.87 883.385C1989.11 871.441 1982.98 868.463 1971.5 869.762C1960.7 871 1948.08 868.584 1940.95 861.725C1931.9 853.019 1926.34 843.133 1910.97 843.28C1898.32 843.407 1886.68 835.485 1874.81 830.489C1861.3 824.82 1845.27 827.243 1832.89 818.026C1821.56 809.594 1809.27 807.844 1795.41 809.077C1779.55 810.472 1765.5 805.781 1757.23 790.359C1755.74 787.57 1755.12 783.96 1751.97 783.063C1724.63 796.228 1700.91 790.71 1676.66 774.682C1661.82 764.863 1644.9 755.774 1625.17 759.629C1620.25 760.593 1616.73 757.388 1612.55 755.861C1598.15 750.59 1588.57 731.042 1568.89 740.856C1567.72 741.433 1565.15 739.649 1563.41 738.613C1549.35 730.29 1531.42 730.58 1518.86 718.671C1517.48 717.351 1513.98 717.667 1511.62 718.069C1504 719.387 1497.01 718.649 1491.16 712.128C1483.47 721.522 1478.21 731.626 1469.13 738.326C1465.83 740.739 1464.96 744.306 1463.9 747.902C1453.87 781.762 1453.41 817.304 1446.13 851.765C1442.08 870.925 1440.2 889.072 1424.8 902.412C1439.71 924.723 1435.86 943.012 1413.81 957.033C1410.35 959.234 1406.08 961.021 1405.09 965.42C1403.57 972.237 1399.59 974.577 1393.41 972.238C1387.44 970.004 1382.68 966.751 1383.4 958.725C1384.52 946.343 1380.87 944.17 1369.56 949.576C1357.39 955.384 1338.53 988.68 1339.72 1007.05C1340.45 1018.42 1337.28 1025.31 1329.95 1033.67C1315.35 1050.35 1312.34 1052.09 1292.82 1042.24C1289.95 1033.72 1291.41 1027.77 1300.63 1023.62C1315.84 1016.8 1318.74 1002.09 1308.44 988.735C1318.16 971.035 1324.61 952.628 1320.87 931.984C1321.75 929.703 1321.98 926.598 1323.62 925.303C1334.97 916.424 1329.39 905.673 1324.09 898.307C1318.41 890.427 1319.89 885.356 1323.97 878.728C1325.63 875.995 1326.76 872.936 1328.13 870.026C1337.41 856.787 1334.01 841.747 1333.02 827.572C1332.13 814.733 1334.07 811.002 1346.42 812.757C1348.72 808.366 1347.07 803.972 1346.24 799.616C1345.86 797.617 1344.38 794.873 1346.25 793.838C1361.69 785.35 1351.41 772.857 1351.48 762.014C1366.45 736.246 1368.35 708.16 1367.57 679.81C1362.01 677.451 1357.61 678.233 1354.39 680.54C1346.72 686.061 1338.23 684.702 1332.16 680.513C1322.98 674.166 1314.44 676.435 1305.29 678.061C1297.87 656.591 1311.89 621.986 1345.12 618.688C1352.1 618.008 1350.82 610.763 1357.81 609.332C1367.48 607.346 1376.48 600.595 1386.33 597.007C1390.59 595.44 1391.53 590.816 1392.6 586.822C1396.45 572.163 1398.14 556.46 1402.46 542.699C1408.45 523.617 1413.42 505.477 1412.37 485.542C1412.2 482.23 1414.7 478.63 1416.4 475.39C1421.48 465.671 1426.13 456.385 1423.47 444.389C1421.55 435.679 1425.21 427.183 1433.13 421.836C1437.61 418.824 1440.55 415.5 1439.45 409.795C1441.04 393.642 1451.71 380.196 1450.58 362.291C1450.04 353.728 1464.88 344.62 1462.23 331.274C1462.07 330.465 1463.47 329.196 1464.35 328.354C1468.77 324.075 1466.39 320.535 1463.71 316.418C1460.41 311.37 1457.1 312.409 1452.12 313.834C1440.07 317.326 1427.38 322.764 1415.46 321.683C1400.13 320.284 1388.06 323.288 1376.57 332.665C1365.43 341.737 1352.47 349.878 1338.22 347.761C1316.12 344.489 1297.48 356.46 1276.66 358.13C1264.74 359.086 1260.5 357.223 1261.84 344.814C1262.76 336.27 1260.4 331.646 1251.49 332.604C1245.74 333.218 1241.77 330.822 1238.64 326.805C1228.02 313.202 1214.92 310.13 1198 313.262C1183.93 315.852 1168.97 316.34 1154.84 311.022C1153.98 310.915 1153.13 310.807 1152.27 310.7C1153.04 307.48 1153.81 304.239 1154.58 301.019L1154.58 301.063ZM1756.38 368.412C1762.76 362.663 1770.98 360.503 1778.84 358.65C1796.3 354.539 1808.62 343.363 1820.65 331.257C1826.18 325.689 1829.99 317.78 1824.86 312.641C1817.71 305.47 1813.77 291.321 1800.47 293.746C1773.18 298.746 1747.49 291.6 1722.97 282.547C1706.94 276.624 1694.98 278.463 1683.03 288.316C1678.01 292.439 1672.52 294.136 1666.6 296.155C1656.2 299.681 1645.1 294.035 1635.1 299.627C1629.68 302.657 1623.85 302.403 1618.26 300.196C1610.11 296.959 1603.11 297.881 1596.68 304.246C1590.5 310.364 1583.89 311.181 1577.03 304.763C1574.38 302.287 1571.16 298.795 1567.3 301.077C1557.46 306.902 1545.73 307.208 1536.4 310.923C1534.34 321.951 1538.3 326.25 1547.85 328.241C1555.8 329.892 1560.64 336.979 1558.96 345.224C1556.35 358.158 1553.46 371.405 1546.73 382.795C1543.57 388.162 1541.59 392.819 1542.46 398.728C1544.77 414.418 1533.38 428.342 1536.63 444.234C1537.02 446.166 1534.78 448.701 1533.55 450.869C1531.36 454.802 1531.57 459.422 1530.49 463.305C1526.65 476.857 1535.5 492.743 1522.5 504.555C1518.94 507.79 1520.53 512.291 1524.36 515.275C1527.88 518.014 1531.84 519.525 1535.67 516.244C1544.62 508.604 1555.55 504.52 1565.72 499.051C1571.42 495.974 1575.76 491.713 1575.89 484.616C1591.16 479.481 1606.37 474.075 1621.78 469.303C1635.85 464.92 1649.43 457.313 1657.51 446.575C1665.98 435.292 1672.72 432.491 1684.71 437.451C1688.77 439.124 1693.75 436.725 1692.73 432.798C1689.45 419.981 1697.16 415.681 1706.57 411.772C1709.68 410.474 1711.67 407.832 1713.33 404.789C1715.87 400.173 1720.29 397.577 1725.3 396.775C1744.46 393.697 1752.64 386.377 1756.36 368.454L1756.38 368.412Z" fill="#72FFE7"/>
<path d="M1317.33 842.364C1313.19 854.101 1307.13 856.686 1297.31 849.672C1289.95 844.413 1282.62 842.631 1274.09 845.166C1271.45 839.481 1269.29 833.676 1269.97 827.239C1278.91 818.315 1278.64 817.454 1264.48 808.326C1259.56 802.118 1262.81 797.621 1268.73 796.686C1275.38 795.628 1283.49 797.623 1285.44 804.763C1287.99 814.072 1292.45 816.615 1301.76 818.809C1311.62 821.11 1315.86 831.94 1317.31 842.341L1317.33 842.364Z" fill="#72FFE7"/>
<path d="M1545.19 1001.72C1538.68 1012.53 1528.69 1004.58 1520.48 1006.34C1517.2 999.145 1518.49 993.395 1526.49 990.976C1536.18 988.018 1541.14 994.339 1545.19 1001.75L1545.19 1001.72Z" fill="#72FFE7"/>
<path d="M2274.4 322.405C2283 343.23 2284.71 364.366 2283.58 387.173C2282.8 403.121 2280.97 419.147 2280.63 435.171C2280.46 443.416 2280.48 451.896 2278.56 459.835C2275.8 471.143 2276.03 479.993 2285.81 488.708C2295.2 497.062 2292.45 512.178 2282.26 519.416C2271.23 527.235 2271.11 529.749 2281.19 539.593C2281.48 539.88 2281.74 540.232 2281.89 540.619C2287.02 552.067 2291.64 562.615 2305.67 567.792C2313.15 570.559 2305.21 591.047 2295.78 592.476C2288.46 593.573 2281.03 594.064 2275.3 599.418C2275.13 605.98 2277.98 611.459 2282.08 615.216C2291.56 623.909 2291.3 634.582 2289.54 645.499C2287.85 656.023 2289.07 665.034 2293.99 675.117C2301.07 689.587 2303.37 705.985 2299.34 722.246C2297.13 731.203 2296.66 739.05 2303.68 746.432C2308.37 751.339 2307.82 758.383 2305.06 763.757C2301.41 770.815 2296.42 776.733 2297.45 785.775C2297.95 790.085 2293.16 792.343 2288.29 791.407C2277.11 789.274 2262.3 772.196 2262.09 760.712C2259.28 756.52 2251.2 758.047 2250.31 751.517C2249.56 746.082 2248.02 741.164 2244.87 736.703C2235.66 743.328 2234.23 748.845 2242.03 754.447C2256.87 765.108 2254.17 780.715 2255.28 795.32C2255.59 799.283 2252.68 803.252 2254.81 807.328C2257.15 809.87 2260.49 809.873 2262.99 809.306C2273.57 806.966 2280.06 809.948 2283.06 821.062C2286.42 833.442 2278.92 840.525 2271.25 847.285C2268.95 849.329 2265.36 850.325 2263.96 853.41C2260.76 860.5 2255.9 861.536 2248.83 859.242C2239.08 856.064 2233.7 861.2 2235.12 870.404C2236.71 880.661 2232.37 882.089 2224.35 880.699C2218.36 879.658 2213.29 879.726 2212.91 887.579C2212.32 899.048 2205.83 900.073 2196.67 897.204C2192.35 895.844 2187.82 895.11 2183.4 894.097C2172.06 875.305 2184.18 853.952 2177.04 834.651C2176.74 833.832 2178.15 832.497 2178.48 831.326C2183.36 814.154 2187.01 797.112 2176.78 780.305C2174.51 776.573 2173.09 771.886 2172.73 767.52C2171.09 748.626 2163.04 730.298 2167.55 710.84C2168.27 707.793 2167 705.176 2165.5 702.652C2168.96 686.083 2165.37 669.369 2165.4 652.79C2165.43 640.107 2161.63 625.946 2145.7 619.299C2133.35 614.136 2121.37 616.327 2109.17 615.647C2089.37 614.559 2069.37 608.475 2050.11 619.27C2038.81 625.608 2026.44 625.866 2013.97 622.664C2009.56 621.541 2004.47 619.725 2000.75 622.793C1985.68 635.183 1966 635.167 1949.18 642.667C1940.07 646.731 1930.94 649.178 1920.49 648.36C1911.46 647.649 1901.07 648.961 1906.67 663.388C1907.35 665.188 1906.07 666.931 1905.34 668.802C1901.51 678.393 1893.72 683.042 1884.93 686.42C1878.48 688.91 1877.39 692.615 1877.56 699.623C1877.86 713.504 1875.89 727.482 1861.75 735.491C1852.83 740.543 1844.09 745.962 1834.88 750.462C1831.11 752.308 1826.8 753.472 1822.04 750.486C1810.91 743.509 1799.35 737.23 1789.24 728.712C1786.8 724.901 1786.33 719.885 1788.31 716.799C1800.07 698.497 1807.35 676.61 1828.91 665.918C1840.38 660.213 1847.45 648.383 1842.33 637.356C1829.77 610.282 1846.79 597.993 1865.13 585.889C1869.32 583.122 1875.81 580.369 1879.97 581.673C1891.13 585.177 1895.23 578.817 1901.38 571.678C1919.69 550.407 1939.63 530.54 1957.91 509.267C1967.36 498.277 1975.38 485.853 1982.58 473.236C1985.71 467.733 1988.49 462.869 1993.93 459.531C2005.39 452.519 2006.67 437.338 2016.58 429.636C2038.96 412.275 2051.84 386.329 2073.63 368.482C2077.64 365.192 2080.86 360.028 2083.36 354.59C2086.84 347.121 2091.05 339.197 2099.95 335.981C2113.91 330.904 2121.96 319.943 2128.71 307.469C2135.28 295.292 2142.19 283.228 2157.68 280.61C2161.87 279.902 2163.56 276.795 2162.88 273.512C2159.49 257.588 2170.41 251.333 2181.75 246.372C2186.86 244.137 2190.31 241.736 2193.8 237.345C2200.2 229.295 2209.39 224.108 2218.65 219.812C2225.32 216.741 2231.34 218.559 2235.9 224.917C2240.69 231.603 2246.69 237.028 2253.91 241.214C2259.45 244.435 2263.6 250.543 2263.81 255.849C2264.37 270.413 2269.78 284.583 2265.94 299.707C2263.91 307.682 2265.38 317.199 2274.42 322.472L2274.4 322.405ZM2139.85 390.956C2134.79 395.297 2128.51 394.943 2128.41 400.714C2128.16 415.728 2115.73 425.501 2112.37 439.265C2110.94 445.071 2105.11 447.872 2098.49 447.56C2087.11 447.05 2075.94 452.246 2070.18 459.811C2059.58 473.794 2045.65 484.298 2035.06 497.97C2033.32 500.233 2031.35 502.567 2030.47 505.202C2023.93 524.864 2012.98 540.215 1992.21 546.915C1988.49 548.123 1985.42 551.283 1981.72 553.776C1987.29 559.612 1987.98 566.415 1987.14 573.504C1986.5 578.88 1987.54 581.99 1994.07 582.251C2019.1 583.305 2043.56 580.244 2067.66 573.547C2074.41 571.678 2079.86 565.705 2087.25 566.406C2105.63 568.12 2123.29 562.209 2141.46 561.914C2152.26 561.738 2165.82 537.858 2158.35 530.776C2143.91 517.111 2150.11 503.91 2155.03 489.84C2158.37 480.258 2157.94 471.437 2151.35 462.958C2146.48 456.687 2143.08 449.373 2145.75 441.026C2151.22 423.963 2143.74 408.732 2139.83 390.91L2139.85 390.956Z" fill="#72FFE7"/>
<path d="M2825.15 371.524C2841.22 376.033 2857.38 380.527 2869.5 392.957C2879.15 402.836 2894.01 400.746 2904.45 409.776C2920.41 423.575 2934.9 437.553 2937.23 459.929C2938.35 474.114 2939.82 489.786 2926.27 498.149C2914.91 505.167 2916.07 511.651 2920.13 521.36C2924.48 531.754 2920.47 536.174 2909.37 538.806C2897.09 541.705 2889.14 555.219 2874.77 554.024C2874.33 553.991 2873.66 555.204 2873.28 555.906C2865.51 570.585 2855.88 581.584 2836.81 575.724C2834.86 575.115 2832.1 576.903 2829.8 577.751C2819.15 581.679 2819.59 591.807 2817.32 600.361C2814.32 611.695 2807.93 614.543 2797.38 609.336C2791.89 606.605 2786.21 604.414 2778.93 606.112C2779.61 617.541 2774.48 624.069 2763.47 627.815C2757.75 629.76 2753.81 636.554 2748.64 640.599C2740.46 647.012 2734.05 656.81 2722.66 657.583C2704.17 658.828 2691.6 671.603 2678.2 681.282C2668.61 688.211 2660.44 695.753 2648.14 696.282C2641.98 696.558 2636.31 699.06 2632.66 703.262C2617.29 720.987 2605.89 741.884 2582.26 752.157C2572.88 756.246 2565.84 766.728 2554.26 767.974C2552.35 786.362 2538.01 792.785 2524.65 797.42C2507.32 803.422 2492.27 813.489 2477.65 823.211C2467.99 829.625 2460.95 833.776 2450.09 829.85C2441.74 826.842 2433.58 826.416 2424.69 829.323C2406.08 835.43 2397.67 835.693 2387.77 818.114C2385.15 813.47 2380.34 808.731 2375.67 812.946C2366.34 821.422 2357.07 816.596 2347.59 815.209C2344.64 810.076 2343.36 805 2344.92 798.807C2348.44 784.832 2352.74 770.938 2350.83 756.052C2350.34 752.252 2351.39 746.641 2353.95 744.373C2365.18 734.444 2360.92 722.573 2359.16 711.064C2358.67 707.84 2356.33 704.191 2358.23 701.542C2369.63 685.693 2362.16 663.911 2375.71 648.331C2380.09 643.298 2379.89 634.273 2381.65 627.031C2383.4 619.832 2385.62 613.444 2390.94 607.351C2396.06 601.509 2398.5 592.458 2395.81 584.245C2392.45 574.012 2395.84 566.205 2403.27 560.068C2408.31 555.903 2411.67 550.395 2410.02 545.159C2406.95 535.457 2413.25 529.503 2416.57 522.377C2425.45 503.22 2437.39 485.662 2445.38 465.974C2447.25 461.353 2448.2 458.058 2445.96 453.642C2443.25 448.35 2444.64 442.807 2447.2 438.104C2457.01 420.145 2461.81 400.643 2464.96 380.774C2467.24 366.486 2479.89 358.545 2484.54 345.738C2486.09 341.448 2487.42 337.805 2487.44 333.091C2487.53 307.573 2512.1 281.097 2535.77 279.238C2544.72 278.55 2551.3 280.564 2555.52 288.381C2559.57 295.854 2563.89 295.243 2570.24 290.776C2581.13 283.146 2586.61 285.013 2592.4 296.798C2594.9 301.898 2597.38 307.04 2600.3 311.904C2605.83 321.169 2612.97 323.136 2622.91 317.738C2634.6 311.386 2645.95 307.665 2657.76 320.094C2662.44 325.045 2672.34 325.002 2679.85 327.329C2687.88 329.826 2697.03 329.02 2703.3 336.767C2704.8 338.627 2709.68 338.789 2712.74 338.217C2719.65 336.913 2725.8 336.926 2730.99 342.534C2732.04 343.652 2734.03 344.817 2735.35 344.605C2753.02 341.595 2767.94 349.96 2782.98 356.805C2795.12 333.905 2802.69 329.683 2812.93 339.516C2811.89 351.372 2803.61 358.021 2794.66 363.801C2798.14 374.486 2803.35 380.139 2814.65 374.577C2817.87 373 2821.64 372.526 2825.17 371.547L2825.15 371.524ZM2576.59 675.605C2585.1 671.32 2593.48 666.671 2603.42 666.609C2606.96 667.601 2609.7 664.66 2610.62 662.891C2619.39 646.183 2635.24 639.829 2651.45 633.788C2653.71 632.937 2655.94 631.751 2657.89 630.301C2672.52 619.495 2689.96 613.302 2703.86 601.047C2712.39 593.509 2721.49 586.633 2729.9 578.799C2748.63 561.389 2767.99 544.556 2788.1 528.776C2794.59 523.677 2797.3 519.095 2796.44 511.571C2797.71 506.706 2805.1 505.238 2802.76 497.981C2798.71 485.417 2796.35 472.358 2790.9 460.133C2780.87 437.741 2765.5 422.502 2740.45 417.927C2729.09 415.847 2717.63 412.432 2707.94 406.048C2690.59 394.603 2671.01 390.543 2651.27 386.538C2645.91 385.455 2640.46 385.494 2635.31 387.217C2621.26 391.867 2606.57 394.368 2592.7 399.053C2582.37 402.54 2565.01 402.031 2569.37 422.078C2569.78 423.99 2566.93 427.565 2564.7 428.95C2555.58 434.585 2553.06 443.52 2551.36 453.09C2548.54 468.776 2543.6 483.421 2532.39 495.477C2526.74 501.567 2519.48 507.207 2522.76 517.633C2523.59 520.24 2521.45 523.668 2518.82 524.89C2499.68 533.747 2501.12 551.121 2501.27 567.625C2501.36 577.993 2499.09 587.233 2493.04 595.641C2491.37 597.952 2488.56 600.91 2489 603.002C2491.72 616.198 2482.36 624.228 2476.78 633.888C2473.91 638.834 2468.82 644.413 2472.45 649.84C2481.7 663.718 2474.25 678.177 2473.99 691.927C2473.78 703.136 2461.37 716.719 2485.91 710.962C2486.27 710.878 2486.86 710.988 2487.08 711.248C2496.35 721.497 2505.74 714.864 2515.09 711.46C2535.73 706.366 2552.2 693.195 2570.2 682.992C2572.88 681.463 2574.54 678.111 2576.68 675.612L2576.59 675.605Z" fill="#72FFE7"/>
<path d="M2358.68 336.476C2354.98 342.822 2352.1 349.228 2342.68 349.904C2337.45 350.292 2332.81 354.62 2335.9 362.243C2339.91 372.125 2335.39 380.845 2329.98 388.769C2323.32 398.526 2314.41 392.178 2306.32 391.336L2306.5 391.659C2307.61 389.749 2305.88 389.245 2304.9 388.353C2302.93 386.569 2300.96 384.785 2298.99 383.002C2299.43 381.573 2299.89 380.146 2300.32 378.739C2302.79 369.579 2308.75 363.534 2317.06 359.234C2325.51 354.877 2330.3 347.903 2331.81 338.274C2332.68 332.782 2332.4 326.364 2337.34 322.456C2341.22 319.378 2345.94 317.535 2351.02 320.081C2357.85 323.508 2359.06 329.641 2358.66 336.475L2358.68 336.476Z" fill="#72FFE7"/>
<path d="M2040.48 968.474C2043.42 960.39 2049.69 955.894 2059.14 958.808C2066.37 961.025 2072.96 965.342 2072.4 974.199C2072.05 979.753 2056.63 984.479 2047.28 982.481C2040.67 981.063 2038.34 976.75 2040.48 968.452L2040.48 968.474Z" fill="#72FFE7"/>
<path d="M2572.8 570.62C2572.71 572.075 2572.65 573.51 2572.57 574.964C2571.4 582.361 2568.06 588.888 2565.1 595.687C2562.59 601.501 2558.16 603.365 2553.55 602.515C2548.46 601.563 2546.16 596.19 2545.59 591.234C2544.04 577.792 2559.48 566.249 2572.82 570.644L2572.8 570.62Z" fill="#72FFE7"/>
<defs>
<radialGradient id="paint0_radial_7039_17187" cx="0" cy="0" r="1" gradientUnits="userSpaceOnUse" gradientTransform="translate(1313.01 1237.91) rotate(-151.131) scale(2468.03 664065)">
<stop stop-color="#3B9BFF"/>
<stop offset="0.0520833" stop-color="#0052FF"/>
<stop offset="0.546875" stop-color="#72FFE7"/>
<stop offset="0.986598" stop-color="#72FFE7"/>
</radialGradient>
<radialGradient id="paint1_radial_7039_17187" cx="0" cy="0" r="1" gradientUnits="userSpaceOnUse" gradientTransform="translate(2890.53 1344.76) rotate(-162.488) scale(1497.33 103212)">
<stop stop-color="#0052FF"/>
<stop offset="1" stop-color="#72FFE7"/>
</radialGradient>
<radialGradient id="paint2_radial_7039_17187" cx="0" cy="0" r="1" gradientUnits="userSpaceOnUse" gradientTransform="translate(2890.53 1344.76) rotate(-162.488) scale(1497.33 103212)">
<stop stop-color="#0052FF"/>
<stop offset="1" stop-color="#72FFE7"/>
</radialGradient>
<radialGradient id="paint3_radial_7039_17187" cx="0" cy="0" r="1" gradientUnits="userSpaceOnUse" gradientTransform="translate(2890.53 1344.76) rotate(-162.488) scale(1497.33 103212)">
<stop stop-color="#0052FF"/>
<stop offset="1" stop-color="#72FFE7"/>
</radialGradient>
<radialGradient id="paint4_radial_7039_17187" cx="0" cy="0" r="1" gradientUnits="userSpaceOnUse" gradientTransform="translate(2890.53 1344.76) rotate(-162.488) scale(1497.33 103212)">
<stop stop-color="#0052FF"/>
<stop offset="1" stop-color="#72FFE7"/>
</radialGradient>
<radialGradient id="paint5_radial_7039_17187" cx="0" cy="0" r="1" gradientUnits="userSpaceOnUse" gradientTransform="translate(2890.53 1344.76) rotate(-162.488) scale(1497.33 103212)">
<stop stop-color="#0052FF"/>
<stop offset="1" stop-color="#72FFE7"/>
</radialGradient>
<radialGradient id="paint6_radial_7039_17187" cx="0" cy="0" r="1" gradientUnits="userSpaceOnUse" gradientTransform="translate(2890.53 1344.76) rotate(-162.488) scale(1497.33 103212)">
<stop stop-color="#0052FF"/>
<stop offset="1" stop-color="#72FFE7"/>
</radialGradient>
<radialGradient id="paint7_radial_7039_17187" cx="0" cy="0" r="1" gradientUnits="userSpaceOnUse" gradientTransform="translate(2890.53 1344.76) rotate(-162.488) scale(1497.33 103212)">
<stop stop-color="#0052FF"/>
<stop offset="1" stop-color="#72FFE7"/>
</radialGradient>
<radialGradient id="paint8_radial_7039_17187" cx="0" cy="0" r="1" gradientUnits="userSpaceOnUse" gradientTransform="translate(2890.53 1344.76) rotate(-162.488) scale(1497.33 103212)">
<stop stop-color="#0052FF"/>
<stop offset="1" stop-color="#72FFE7"/>
</radialGradient>
</defs>
</svg>
