<svg width="130" height="22" viewBox="0 0 130 22" fill="none" xmlns="http://www.w3.org/2000/svg">
<g clip-path="url(#clip0_775_8078)">
<path d="M129.738 13.881C128.794 15.4 127.169 16.2381 125.177 16.2381C122.085 16.2381 119.936 13.7762 119.936 10.2667C119.936 6.80956 121.98 4.34766 124.915 4.34766C127.641 4.34766 129.79 6.75718 129.79 9.79528C129.79 10.1096 129.79 10.3191 129.738 10.6858H121.613C121.718 11.9953 122.032 12.8858 122.766 13.6191C123.395 14.3 124.234 14.7191 125.125 14.7191C126.54 14.7191 127.746 14.0381 128.323 12.8334L129.738 13.881ZM128.061 9.27147C127.903 7.17623 126.698 5.81432 125.02 5.81432C123.919 5.81432 122.923 6.39051 122.294 7.38575C121.98 7.96194 121.823 8.43337 121.718 9.27147H128.061Z" fill="#FF008C"/>
<path d="M116.843 15.9757V0.942383H118.468V15.9757H116.843Z" fill="#FF008C"/>
<path d="M113.069 3.24802V1.3623H114.956V3.24802H113.069ZM113.173 15.9766V4.6623H114.798V15.9766H113.173Z" fill="#FF008C"/>
<path d="M103.423 6.02334C104.262 4.92334 105.31 4.39953 106.673 4.39953C109.609 4.39953 111.653 6.80905 111.653 10.3186C111.653 13.8281 109.609 16.2376 106.673 16.2376C105.363 16.2376 104.367 15.7662 103.476 14.7186L103.214 15.9757H101.798V0.942383H103.423V6.02334ZM103.371 10.3186C103.371 12.8852 104.734 14.771 106.673 14.771C108.56 14.771 109.976 12.8852 109.976 10.371C109.976 7.80429 108.56 5.91857 106.673 5.91857C104.734 5.91857 103.371 7.75191 103.371 10.3186Z" fill="#FF008C"/>
<path d="M100.226 10.3194C100.226 13.829 98.1814 16.2385 95.1935 16.2385C92.2056 16.2385 90.1613 13.829 90.1613 10.3194C90.1613 6.80992 92.2056 4.40039 95.1935 4.40039C98.1814 4.40039 100.226 6.80992 100.226 10.3194ZM91.9435 10.3194C91.9435 12.8861 93.3588 14.7718 95.2459 14.7718C97.133 14.7718 98.5484 12.8861 98.5484 10.3718C98.5484 7.80515 97.1854 5.91944 95.2459 5.91944C93.3064 5.91944 91.9435 7.75277 91.9435 10.3194Z" fill="#FF008C"/>
<path d="M88.6411 1.83301V15.9235H87.0161V3.87587L82.8226 10.7378L78.629 3.87587V15.9759H77.004V1.83301H79.1532L82.8226 7.85682L86.4919 1.83301H88.6411Z" fill="#FF008C"/>
<path d="M58.3952 18.1758H14.5726L18.0847 21.6853L58.3952 18.1758Z" fill="#FF008C"/>
<path d="M65.4194 15.9762V8.9572C65.4194 7.64768 66.3105 6.54768 67.621 6.54768C68.9315 6.54768 69.8226 7.64768 69.8226 8.9572V15.9239H72.5484V8.9572C72.5484 6.07625 70.6089 3.77148 67.7259 3.77148C66.4154 3.77148 65.4194 4.50482 65.4194 4.50482V4.08577H62.6936V15.9762H65.4194Z" fill="#FF008C"/>
<path d="M56.4557 3.77148C53.3105 3.77148 51.1089 6.49529 51.1089 10.0048C51.1089 13.6715 53.9395 16.2381 56.7178 16.2381C58.1331 16.2381 59.9678 15.7667 61.4879 13.5667L59.129 12.2048C57.2944 14.9286 54.2016 13.5667 53.8347 10.8429H61.5928C62.3266 6.60006 59.5484 3.77148 56.4557 3.77148ZM58.8145 8.48577H53.992C54.5686 5.70958 58.2903 5.55244 58.8145 8.48577Z" fill="#FF008C"/>
<path d="M50.2702 13.1472C50.0081 13.3044 49.746 13.4615 49.379 13.4615C48.9597 13.4615 48.121 13.1472 48.121 11.9948V6.9139H50.4274V4.08532H48.121V1.09961H45.3952V4.08532H43.9799V6.9139H45.3952V12.0472C45.3952 14.7187 47.3871 16.2901 49.4315 16.2901C50.1653 16.2901 51.2137 16.0282 52.0524 15.5568L50.2702 13.1472Z" fill="#FF008C"/>
<path d="M40.258 4.08594V11.0526C40.258 12.3621 39.3669 13.4621 38.0564 13.4621C36.7459 13.4621 35.8548 12.3621 35.8548 11.0526V4.08594H33.1814V11.0526C33.1814 13.9336 35.1209 16.2383 38.004 16.2383C39.3145 16.2383 40.3104 15.505 40.3104 15.505V15.924H42.9838V4.08594H40.258Z" fill="#FF008C"/>
<path d="M28.0443 9.63783L32.7096 4.08544H28.883L25.6855 8.22354V0.104492H22.9072V15.9759H25.6855V11.0521L29.6693 15.9759H33.4435L28.0443 9.63783Z" fill="#FF008C"/>
<path d="M18.6613 4.08577V4.60958C17.8226 4.08577 17.1412 3.77148 16.0928 3.77148C13.0001 3.77148 10.6936 6.54768 10.6936 10.0048C10.6936 13.462 13.0525 16.2381 16.0928 16.2381C17.0888 16.2381 17.8226 15.9239 18.6613 15.4001V15.9239H21.3347V4.08577H18.6613ZM16.0928 13.4096C14.5726 13.4096 13.4718 11.9429 13.4718 10.0572C13.4718 8.17148 14.5726 6.70482 16.0928 6.70482C17.613 6.70482 18.6613 8.17148 18.6613 10.0572C18.6613 11.8905 17.613 13.4096 16.0928 13.4096Z" fill="#FF008C"/>
<path d="M2.93543 15.9758V11.3663H4.92737L8.38705 15.9758H11.8991L7.70559 10.4234C9.01608 9.48056 9.85479 7.96151 9.85479 6.23294C9.85479 3.40437 7.54834 1.09961 4.71769 1.09961H0.0523682V15.9234H2.93543V15.9758ZM2.93543 3.92818H4.77011C6.02817 3.92818 7.07656 4.9758 7.07656 6.23294C7.07656 7.49008 6.02817 8.5377 4.77011 8.5377H2.93543V3.92818Z" fill="#FF008C"/>
</g>
<defs>
<clipPath id="clip0_775_8078">
<rect width="130" height="22" fill="white"/>
</clipPath>
</defs>
</svg>
