<svg height="36" viewBox="0 0 180 36" fill="none" xmlns="http://www.w3.org/2000/svg">
  <path
    d="M17.709 2.013c-1.012.16-2.018.35-3.019.568-.66.138-1.33.275-1.98.439-.653.163-1.227.284-1.819.473-.592.19-1.14.37-1.715.586a10.865 10.865 0 0 0-3.019 1.764 9.195 9.195 0 0 0-1.492 1.532c-.296.412-.562.843-.798 1.292a3.177 3.177 0 0 0-.394 1.428 4.816 4.816 0 0 0 1.972 3.547c.352.292.72.56 1.09.86a26.035 26.035 0 0 0 3.55 2.023c1.27.603 2.55 1.177 3.842 1.722 1.226.516 2.47.955 3.73 1.377l1.09.362c1.14.378 2.306.731 3.43 1.136.703.258 1.458.49 2.161.809.752.303 1.47.684 2.144 1.136.434.31.802.706 1.08 1.162.279.448.435.962.455 1.49.012.503-.128.998-.403 1.42a6.803 6.803 0 0 1-3.13 2.358 51.317 51.317 0 0 1-5.455 1.937c-1.054.31-2.11.62-3.172.86-1.064.242-2.162.569-3.234.861-1.072.293-2.152.517-3.233.75l-1.86.387-1.107.232-2.324.5-2.65.576-.772.18c-.232.053-1.08.25-.446.216.858-.052 3.242-.25 8.276-.93 1.827-.3 3.662-.56 5.489-.86a96.048 96.048 0 0 0 6.792-1.343c.643-.155 1.277-.31 1.92-.49l1.253-.371c1.766-.542 4.596-1.506 5.274-1.799 2.573-1.119 4.16-1.963 4.991-3.968.295-.719.41-1.5.335-2.273a5.178 5.178 0 0 0-.687-2.014 7.14 7.14 0 0 0-1.337-1.532 14.5 14.5 0 0 0-3.105-2.117 21.6 21.6 0 0 0-.969-.474l-1.226-.534a34.814 34.814 0 0 0-1.715-.654c-1.536-.525-3.096-.99-4.649-1.498a32.785 32.785 0 0 1-2.572-.946c-.36-.15-.715-.307-1.064-.474a16.084 16.084 0 0 1-1.2-.645c-.395-.233-1.278-.792-1.055-1.48.154-.483.686-.672 1.123-.862.406-.155.822-.284 1.244-.387 1.277-.327 2.573-.55 3.867-.86l1.132-.25a21.176 21.176 0 0 0 3.002-.792c.858-.319 1.878-.861 2.187-1.722a4.552 4.552 0 0 0-.78-3.83 42.141 42.141 0 0 0-.807-1.17c-.377-.526-.797-1.025-1.209-1.524a.506.506 0 0 0-.6-.155c-.249.086-.943.86-6.45 1.936"
    fill="#C00" />
  <path
    d="m102.174 13.504.078-.172.085-.147.078-.137.077-.12.051-.113.052-.086.043-.086.06-.052.137-.232.077-.138.094-.137.206-.336.12-.18.129-.19h.189l.06.077.128.181.129.241.146.327.154.396.171.474v.086l.052.137.069.181.094.232V14.27l-.06.086-.043.052h-.643l-1.046.086h-1.287V14.2l.06-.103.077-.138.069-.12.06-.104.06-.086.051-.086.043-.06v-.06l.18.06Zm-6.723 5.01h.154c.575.163.858.542.412 1.05a4.367 4.367 0 0 0-.36.516l-.095.155c-.099.147-.16.315-.18.49v.095c.072.27.194.525.36.75.262.437.548.86.858 1.265.285-.345.54-.714.763-1.102.24-.336.523-.628.772-.956a3.867 3.867 0 0 1 1.098-1.058 3.67 3.67 0 0 1 1.484-.422c.514-.06 1.02-.078 1.535-.103 1.046-.052 2.092-.172 3.13-.276.452-.1.922-.079 1.363.06.324.223.614.493.858.801.326.344.643.689.952 1.05.309.362.695.86 1.098 1.265.254.247.526.474.814.68l.155.095c.514.258.857-.077.986-.602a3.296 3.296 0 0 0-.635-2.16 16.237 16.237 0 0 1-.54-1.085c-.146-.302-.283-.767 0-1.06.283-.292.6-.232.858-.3.257-.07.634-.181.952-.241.634-.13 1.269-.302 1.921-.38.36 0 .96-.31 1.269 0 .309.31 0 1.18-.137 1.619a10.172 10.172 0 0 0-.601 2.255c-.085.72.112 1.446.549 2.023a1.142 1.142 0 0 0 1.407.473c.408-.296.722-.706.9-1.179.343-.809.583-1.661.858-2.496a51.55 51.55 0 0 1 .789-2.255c.206-.543.446-1.076.66-1.619.137-.352.317-.68.463-1.024.146-.344.155-.671.446-.86.292-.19.789.421.961.645.326.413.609.86.909 1.291.269.54.663 1.005 1.149 1.36.909.465 1.715-.62 2.238-1.205.352-.396.712-.81 1.081-1.205l1.175-1.283c.248-.275.583-.809.994-.86.412-.052.438.387.472.662.154 1.335.215 2.695.42 4.038.078.499.18.99.266 1.489l.129.697c.063.333.131.666.206.998.154.689.317 1.369.523 2.04.136.597.433 1.145.857 1.584a1.367 1.367 0 0 0 1.052.252 1.357 1.357 0 0 0 .904-.596c.068-.148.114-.304.137-.465a3.692 3.692 0 0 0 0-1.007c-.094-1.18-.429-2.333-.446-3.52 0-.491 0-.982.077-1.464.086-1.136.232-2.272.292-3.443a12.38 12.38 0 0 0-.198-4.235 4.756 4.756 0 0 0-1.149-1.98 3.599 3.599 0 0 0-.857-.688 2.735 2.735 0 0 0-1.081-.319 4.063 4.063 0 0 0-2.435.93c-.569.426-1.1.901-1.587 1.42a37.08 37.08 0 0 0-2.573 2.884c-.223.292-.497.86-.952.774-.454-.086-.857-.86-.986-1.29-.129-.431-.343-.793-.532-1.18-.188-.387-.488-.981-.729-1.48a5.09 5.09 0 0 0-.686-1.188 2.69 2.69 0 0 0-1.277-.75 1.539 1.539 0 0 0-1.175-.051c-.455.267-.369.947-.395 1.386-.026.439-.069.766-.103 1.162a23.4 23.4 0 0 1-.369 2.84c-.058.452-.266.87-.591 1.188a1.616 1.616 0 0 1-.944.19h-2.59l-1.483.103c-.455 0-.918.069-1.381.069a3.5 3.5 0 0 1-1.629-.112 1.82 1.82 0 0 1-.755-.956c-.249-.516-.558-1.007-.858-1.497-.3-.49-.523-.861-.789-1.317-.386-.629-.771-1.257-1.166-1.877a28.71 28.71 0 0 0-.798-1.213 2.174 2.174 0 0 0-.9-.861.605.605 0 0 0-.688.227.607.607 0 0 0-.101.238c-.051.232 0 .464-.043.697a3.544 3.544 0 0 1-.249.714c-.21.456-.457.893-.737 1.309-.918 1.411-1.595 2.978-2.41 4.45l-.472.817c-.206.38-.343.698-.806.861-.463.164-.857.052-1.269.155-.412.104-.66.568-.746 1.042-.086.473-.086.809-.146 1.222a3.655 3.655 0 0 0-.086.921l.009-.077Zm-55.907 8.263c-.42 0-.857.095-1.26.069a1.095 1.095 0 0 1-.978-.749c-.196-.532-.35-1.08-.463-1.635a4.579 4.579 0 0 1-.155-1.533.923.923 0 0 1 .31-.688c.368-.302.857-.104 1.269-.319a1.178 1.178 0 0 0 .497-.981c.042-.628.042-1.258 0-1.885-.095-1.584 0-3.202-.189-4.769 0-.361-.163-.783-.566-.86-.806-.216-.815-1.008-.857-1.722-.058-.45-.01-.906.137-1.334a2.089 2.089 0 0 1 1.398-1.007c.531-.164 1.063-.31 1.603-.457.54-.146 1.107-.223 1.664-.318l1.715-.267a33.224 33.224 0 0 1 1.716-.224c.591-.06 1.063-.12 1.595-.155a53.66 53.66 0 0 1 1.878-.094c.626-.018 1.123 0 1.715 0 .592 0 1.106 0 1.664.043.557.043 1.14.069 1.715.146.81.058 1.595.3 2.298.706.73.482 1.218 1.455.49 2.178-.73.723-1.905.61-2.848.61h-2.324c-.746 0-1.492.104-2.238.147l-2.084.146c-.72.052-1.441.12-2.162.198-.574.052-1.149.112-1.715.216a2.67 2.67 0 0 0-1.39.516.99.99 0 0 0-.17 1.016c.214.645 1.2.482 1.715.473 1.183 0 2.35-.232 3.533-.31l1.62-.086c.655-.035 1.31-.035 1.965 0 .576.024 1.15.094 1.715.207.681.157 1.343.39 1.972.697.815.284.686 1.3.55 1.954a1.173 1.173 0 0 1-.498.86 5.129 5.129 0 0 1-2.505.345c-.78 0-1.569.086-2.34.164a106.66 106.66 0 0 0-3.68.387c-.746.095-1.5.224-2.247.301a2.864 2.864 0 0 0-1.578.362l-.077.069h-.051v.077l-.052.095c-.051.31-.377 1.343-.051 1.592H43.198c.626 0 1.243-.051 1.87-.103l3.593-.301c.78-.07 1.586-.112 2.375-.181a81.72 81.72 0 0 1 3.55-.215 5.511 5.511 0 0 0 2.084-.31c.78-.345 1.433-.947 2.196-1.343.969-.5 1.955-.938 2.933-1.403 1.2-.577 2.367-1.23 3.585-1.722l2.821-1.222c.463-.184.915-.394 1.355-.628.3-.172 1.072-.551.858-1.016-.103-.241-.412-.275-.644-.301a23.672 23.672 0 0 0-4.536.267c-2.239.387-2.573.68-3.173.069a2.165 2.165 0 0 1-.283-1.834 4.79 4.79 0 0 1 .592-1.85c.643-.861 2.778-.939 3.773-1.008.514 0 1.038-.051 1.552-.06.73 0 1.45.043 2.17.043s1.252.069 1.87.13c.734.028 1.464.131 2.178.31.225.068.445.152.66.249a4.916 4.916 0 0 1 1.853 1.377c.284.363.481.787.574 1.24.057.212.074.434.051.654a1.64 1.64 0 0 1-.171.62l-.043.051a1.866 1.866 0 0 1-.463.56 10.719 10.719 0 0 1-3.096 1.42c-.506.206-1.003.447-1.5.671-1.399.629-2.78 1.291-4.203 1.86-1.166.473-2.341.963-3.43 1.54-.367.151-.691.39-.944.697-.18.328.215.328.48.336.286.015.572.015.858 0 .863-.069 1.721-.149 2.573-.24.858-.096 1.775-.173 2.659-.285.883-.112 1.663-.215 2.486-.301.895-.09 1.794-.133 2.693-.13.901-.02 1.802.036 2.693.164h.377a.966.966 0 0 0 .97-.43c.287-.649.53-1.316.729-1.997.291-.86.591-1.679.857-2.514l.129-.344c.343-.947.686-1.894 1.063-2.823.155-.379.309-.75.43-1.136.067-.294.159-.582.273-.861.232-.448.644-.732 1.107-.405.365.302.657.681.857 1.11.233.405.41.84.524 1.292.076.447.025.906-.146 1.325-.146.457-.335.913-.455 1.386-.266 1.007.73 1.816 1.492 2.273.716.388 1.458.724 2.222 1.007.55.256 1.124.455 1.715.594a1.47 1.47 0 0 0 1.106-.086c.453-.44.753-1.013.858-1.636.206-.689.36-1.394.514-2.091.13-.568.228-1.143.292-1.722.051-.465.094-.938.12-1.403v-1.8c-.026-.43.098-.856.352-1.204a.856.856 0 0 1 1.269.19l.111.137c.18.308.322.638.42.981.172.61.287 1.236.344 1.868.05.517.094 1.042.111 1.558a31.533 31.533 0 0 1-.309 5.389c-.137.963-.343 1.893-.549 2.849a7.777 7.777 0 0 1-.437 1.54 3.71 3.71 0 0 1-.592.861 1.813 1.813 0 0 1-.386.327c-.53.265-1.132.35-1.715.241a9.032 9.032 0 0 1-2.264-.542c-.463-.16-.918-.347-1.364-.56-.454-.215-.909-.43-1.346-.68a14.46 14.46 0 0 1-1.286-.809 7.84 7.84 0 0 1-1.115-.92c-.3-.302-.515-.69-.798-1.008-.283-.318-.523-.447-.72 0-.107.306-.19.62-.249.938-.12.551-.283 1.102-.454 1.644-.172.543-.858 2.015-1.655 1.326-.25-.224-.43-.508-.815-.508a5.755 5.755 0 0 0-1.132.241c-.395.086-.806.138-1.21.215l-2.28.482c-.507.095-1.013.164-1.51.25-.497.086-.978.146-1.467.215-.488.07-1.003.155-1.509.215l-2.358.276c-.635.086-1.252.146-1.887.215l-1.57.164c-.874.091-1.752.155-2.632.19a17.44 17.44 0 0 1-4.014-.139 1.933 1.933 0 0 1-.943-.31c-.154-.154 0-.413-.154-.593l-.052-.052h-.369l-.111.077-.069.086-.051.095v.112a2.33 2.33 0 0 1-2.118 1.36l-14.005 1.636m130.474-7.128c-1.801.243-3.62.332-5.437.267a5.683 5.683 0 0 1-2.152-.439c-1.492-.973 3.73-2.711 4.374-2.935 1.809-.637 5.454-1.722 5.454-1.722s3.43-.86 3.533-2.677c.129-2.22-2.178-3.227-3.936-3.778a18.744 18.744 0 0 0-2.204-.362 18.167 18.167 0 0 0-4.331.086c-.969.112-3.036.172-3.328 1.386-.154.62-.857 1.885-.265 2.445.591.56 1.638.344 2.401.275 1.055-.103 2.101-.301 3.156-.405.78-.077 1.792-.25 2.427.319.78.706-1.295 1.369-1.715 1.54-1.57.663-3.216 1.146-4.794 1.791-1.578.646-2.959 1.197-4.408 1.877-.653.326-1.288.685-1.904 1.076l-.3-.207-1.819.19-1.818.146c-1.217.103-2.452.137-3.679.19a3.076 3.076 0 0 1-2.049-.405c-1.055-.99-.463-2.359.231-3.323a9.646 9.646 0 0 1 2.925-2.47 10.57 10.57 0 0 1 2.384-1.05 12.14 12.14 0 0 1 1.715-.397c.086.164.18.319.266.474a7.375 7.375 0 0 0 1.535-.542c.42-.216 1.003-.646 1.012-1.171a2.083 2.083 0 0 0-1.038-1.584 3.42 3.42 0 0 0-1.852-.473 14.954 14.954 0 0 0-2.136.129c-.495.068-.985.171-1.466.31-.8.23-1.571.55-2.299.955a11.316 11.316 0 0 0-2.675 2.057 7.307 7.307 0 0 0-.961 1.257 8.508 8.508 0 0 0-.814 1.85 8.075 8.075 0 0 0 .42 5.647 6.642 6.642 0 0 0 2.504 2.806 6.77 6.77 0 0 0 4.708.861 9.486 9.486 0 0 0 1.861-.542c.644-.222 1.272-.49 1.878-.8.466-.29.964-.524 1.484-.698.206.258.317.577.54.861.22.24.464.457.729.646a3.585 3.585 0 0 0 1.784.628c1.634.19 3.277.293 4.923.31a37.525 37.525 0 0 0 3.936-.19c.857-.077 1.715-.189 2.53-.292a21.229 21.229 0 0 0 6.217-1.722 6.423 6.423 0 0 0 2.187-1.652 5.179 5.179 0 0 0-.797-.396 10.976 10.976 0 0 0-5.395-.474c-.857.104-1.646.181-2.47.258l-1.08.087m-28.524 1.893a2.13 2.13 0 0 0-.103-.86 2.334 2.334 0 0 0-1.569-1.386 2.378 2.378 0 0 0-1.81.387 2.328 2.328 0 0 0-.514 3.15 2.296 2.296 0 0 0 2.422.666 2.3 2.3 0 0 0 1.583-1.957"
    fill="#1A1919" />
</svg>
