<svg width="204" height="30" viewBox="0 0 204 30" fill="none" xmlns="http://www.w3.org/2000/svg">
<path fill-rule="evenodd" clip-rule="evenodd" d="M9.44554 6V29.9406H17.1683V6H21.1485L25.3663 0H0V6H9.44554ZM68.3168 19.8416L75.802 29.9406V30H84.6535L76.099 19.3069L76.8713 18.9505C82.5742 16.5743 83.3465 13.1287 83.3465 10.099C83.3465 5.0495 79.6634 0 71.4059 0H56.3168V30H64.1584V19.8416H68.3168ZM71.4653 14.5545H64.099H64.0396V5.76238H71.3465C74.3168 5.76238 75.6238 8.13861 75.6238 10.2772C75.6238 12.8911 74.0198 14.5545 71.4653 14.5545ZM43.8416 29.9994V18.1776H30.8317V29.9994H23.0495V10.93L30.7129 0.0587615H30.8317V11.9399H43.8416V0.0587615H51.505V29.9994H43.8416ZM134.792 24.8317L136.871 29.9406H145.188L131.347 0H122.97L109.129 29.9406H117.327L119.406 24.8317H134.792ZM132.238 18.7129H121.96L127.129 6.35643L132.238 18.7129ZM148.693 29.9406V6H139.247V0H156.356L160.752 6H156.356V25.0693L152.911 29.9406H148.693ZM109.307 0V6.11881H93.089V11.8812H108.356V17.7624H93.089V23.7624H107.168L104.317 29.9406H90.1781L85.4257 24.0594V0H109.307Z" fill="#1A1A1A"/>
<path fill-rule="evenodd" clip-rule="evenodd" d="M173.109 6.83168L169.129 0H160.277L169.069 12.5347L173.109 6.83168ZM175.545 19.2475L182.436 29.9406H190.99L180.356 14.8515L190.396 0H181.723L160.574 29.9406H168.535L175.545 19.2475Z" fill="#D23200"/>
<path d="M194.973 4.99V0.971808H193.753V-1.90735e-06H197.268V0.971808H196.062V4.99H194.973Z" fill="#1A1A1A"/>
<path d="M197.347 4.99L198.153 -1.90735e-06H199.476L200.634 3.85277L201.792 -1.90735e-06H203.122L203.929 4.99H202.826L202.261 1.43359L201.165 4.99H200.11L199.008 1.43359L198.443 4.99H197.347Z" fill="#1A1A1A"/>
</svg>
