<svg width="1335" height="471" viewBox="0 0 1335 471" fill="none" xmlns="http://www.w3.org/2000/svg">
<rect width="1335" height="471" fill="#0A0E19"/>
<g clip-path="url(#clip0_2_369)">
<path d="M223.009 256.746L227.004 252.86L228.286 251.585C228.286 251.585 262.808 229.193 283.517 229.193H285.304C265.953 228.215 247.628 220.379 233.753 207.15L182.517 157.101H179.132L173.497 162.632V165.943L223.199 214.573C228.862 220.205 232.021 227.798 231.985 235.698C231.95 243.597 228.723 251.163 223.009 256.746Z" fill="url(#paint0_linear_2_369)"/>
<path d="M258.542 189.075L220.908 152.269H217.523L211.889 157.779V161.09L251.267 199.624C260.921 209.062 274.011 214.365 287.66 214.367H316.169L318.566 212.043V204.209L316.169 201.886H290.162C278.302 201.885 266.928 197.277 258.542 189.075Z" fill="url(#paint1_linear_2_369)"/>
<path d="M258.542 282.468L220.908 319.275H217.523L211.889 313.744V310.433L251.267 271.92C260.921 262.482 274.011 257.179 287.66 257.177H316.169L318.566 259.5V267.314L316.169 269.658H290.162C278.302 269.658 266.928 274.266 258.542 282.468Z" fill="url(#paint2_linear_2_369)"/>
<path d="M199.191 215.806L176.212 193.352H172.848L167.192 198.883V202.173L189.079 223.599C190.693 225.175 191.974 227.046 192.848 229.107C193.722 231.167 194.172 233.376 194.172 235.607C194.172 237.838 193.722 240.047 192.848 242.108C191.974 244.168 190.693 246.04 189.079 247.616L168.811 267.458V270.748L174.467 276.279H177.831L199.17 255.429C201.833 252.83 203.947 249.742 205.389 246.344C206.831 242.945 207.575 239.302 207.577 235.622C207.579 231.942 206.839 228.298 205.4 224.898C203.962 221.497 201.852 218.408 199.191 215.806Z" fill="url(#paint3_linear_2_369)"/>
<path d="M337.845 229.192H283.519C262.802 229.205 242.938 237.259 228.288 251.584L172.952 305.704V309.015L178.607 314.546H181.992L233.586 264.148C240.834 257.037 249.445 251.396 258.926 247.546C268.407 243.697 278.572 241.715 288.838 241.714H337.887L340.242 239.473V231.659L337.845 229.192Z" fill="url(#paint4_linear_2_369)"/>
<path d="M364.777 202.461H429.952L431.529 204.003V212.413L429.952 213.955H405.522L403.945 215.498V268.96L402.368 270.502H392.402L390.826 268.96V215.498L389.249 213.955H364.777L363.2 212.413V204.085L364.777 202.461Z" fill="white"/>
<path d="M454.592 204.086L456.169 202.543H493.487C508.772 202.543 517.287 209.432 517.287 222.859C517.287 231.433 513.082 237.684 505.303 240.666L504.462 242.846L518.674 268.261L517.287 270.543H506.964L505.576 269.741L490.67 243.38L489.282 242.599H469.267L467.69 244.141V269.021L466.114 270.564H456.127L454.55 269.021L454.592 204.086ZM467.732 215.477V229.871L469.309 231.413H492.436C499.984 231.413 503.789 228.555 503.789 222.9C503.789 216.731 499.984 213.976 492.436 213.976H469.309L467.732 215.477Z" fill="white"/>
<path d="M590.138 256.581H557.109L555.679 257.486L550.15 269.659L548.699 270.563H539.028L537.577 268.384L567.411 203.16L568.861 202.255H579.247L580.698 203.16L610.511 268.384L609.081 270.563H598.569L597.139 269.659L591.589 257.486L590.138 256.581ZM585.281 243.298L575.169 221.132H572.288L562.155 243.298L563.605 245.354H583.81L585.281 243.298Z" fill="white"/>
<path d="M626.238 236.553C626.238 216.628 640.955 201.392 661.306 201.392C681.027 201.392 690.32 213.297 693.137 221.399L691.644 223.455H681.132L679.808 222.735C677.831 219.72 675.09 217.257 671.852 215.585C668.614 213.913 664.988 213.089 661.327 213.194C648.292 213.194 639.883 223.825 639.883 236.574C639.883 249.322 648.355 260.035 661.306 260.035C672.512 260.035 677.873 254.154 679.997 250.474L681.364 249.692H691.665L693.158 251.749C690.572 259.398 681.7 271.838 661.306 271.838C640.913 271.838 626.238 256.478 626.238 236.553Z" fill="white"/>
<path d="M720.004 202.461H777.085L778.661 204.003V212.023L777.085 213.565H733.123L731.546 215.107V227.444L733.123 228.986H759.403L760.98 230.529V238.754L759.403 240.296H733.123L731.546 241.858V257.547L733.123 259.09H777.085L778.661 260.632V268.857L777.085 270.399H720.004L718.427 268.857V204.085L720.004 202.461Z" fill="white"/>
<path d="M1060.62 202.461H1117.7L1119.28 204.003V212.023L1117.7 213.565H1073.74L1072.16 215.107V227.444L1073.74 228.986H1100L1101.57 230.529V238.754L1100 240.296H1073.74L1072.16 241.858V257.547L1073.74 259.09H1117.7L1119.28 260.632V268.857L1117.7 270.399H1060.62L1059.02 268.857V204.085L1060.62 202.461Z" fill="white"/>
<path d="M848.861 256.581H815.832L814.402 257.486L808.873 269.659L807.422 270.563H797.625L796.174 268.384L826.008 203.16L827.459 202.255H837.845L839.295 203.16L869.213 268.384L867.783 270.563H857.271L855.82 269.659L850.291 257.486L848.861 256.581ZM843.878 243.298L833.787 221.132H830.906L820.752 243.298L822.202 245.354H842.407L843.878 243.298Z" fill="white"/>
<path d="M892.108 204.086L893.685 202.543H929.427C944.606 202.543 952.743 209.432 952.743 220.926C952.763 223.442 952.089 225.917 950.79 228.088C949.491 230.26 947.616 232.048 945.363 233.264V235.957C948.145 237.404 950.456 239.585 952.032 242.254C953.608 244.922 954.386 247.97 954.277 251.05C954.277 262.935 946.057 270.502 929.994 270.502H893.685L892.108 268.96V204.086ZM905.038 215.004V228.596L906.615 230.138H927.976C935.524 230.138 939.245 227.362 939.245 221.79C939.245 216.217 935.419 213.462 927.976 213.462H906.615L905.038 215.004ZM905.038 242.496V258.103L906.615 259.645H928.354C936.89 259.645 940.801 256.396 940.801 250.248C940.801 244.1 936.596 240.954 928.354 240.954H906.615L905.038 242.496Z" fill="white"/>
<path d="M1034.26 270.564H981.275L979.698 269.021V204.086L981.275 202.543H991.241L992.817 204.086V257.424L994.394 258.966H1034.34L1035.92 260.509V269.021L1034.26 270.564Z" fill="white"/>
<path d="M1176.95 270.563H1144.04L1142.49 269.042V260.817L1144.04 259.295H1176.95L1178.5 260.817V269.042L1176.95 270.563Z" fill="url(#paint5_linear_2_369)"/>
</g>
<defs>
<linearGradient id="paint0_linear_2_369" x1="191.515" y1="166.115" x2="236.139" y2="271.206" gradientUnits="userSpaceOnUse">
<stop stop-color="#75A7FF"/>
<stop offset="0.479167" stop-color="#497EDC"/>
<stop offset="1" stop-color="#456BE0" stop-opacity="0"/>
</linearGradient>
<linearGradient id="paint1_linear_2_369" x1="314.525" y1="151.741" x2="215.395" y2="152.931" gradientUnits="userSpaceOnUse">
<stop stop-color="#DBDBDB" stop-opacity="0.08"/>
<stop offset="0.510417" stop-color="#DCDCDC"/>
</linearGradient>
<linearGradient id="paint2_linear_2_369" x1="314.525" y1="256.649" x2="215.395" y2="257.839" gradientUnits="userSpaceOnUse">
<stop stop-color="#DBDBDB" stop-opacity="0.08"/>
<stop offset="0.510417" stop-color="#DCDCDC"/>
</linearGradient>
<linearGradient id="paint3_linear_2_369" x1="272.538" y1="277.041" x2="245.598" y2="174.873" gradientUnits="userSpaceOnUse">
<stop stop-color="#DBDBDB" stop-opacity="0.08"/>
<stop offset="0.510417" stop-color="#DCDCDC"/>
</linearGradient>
<linearGradient id="paint4_linear_2_369" x1="333.905" y1="228.467" x2="178.456" y2="230.596" gradientUnits="userSpaceOnUse">
<stop stop-color="#DBDBDB" stop-opacity="0.08"/>
<stop offset="0.510417" stop-color="#DCDCDC"/>
</linearGradient>
<linearGradient id="paint5_linear_2_369" x1="1177" y1="245.781" x2="1151.84" y2="231.642" gradientUnits="userSpaceOnUse">
<stop stop-color="#497EDC"/>
<stop offset="1" stop-color="#AEC2FF"/>
</linearGradient>
<clipPath id="clip0_2_369">
<rect width="1017" height="166.721" fill="white" transform="translate(160 152)"/>
</clipPath>
</defs>
</svg>
