<svg xmlns="http://www.w3.org/2000/svg" width="100" height="31" viewBox="0 0 100 31" fill="none"><path d="M14.8278 0.469238H0V4.35703H14.8278V0.469238Z" fill="url(#paint0_linear_80_674092)"></path><path d="M21.725 9.60506C22.5566 8.27742 24.3137 6.94849 26.518 6.94849C30.3857 6.94849 33.4846 10.4793 33.4846 15.2413C33.4846 20.0033 30.3844 23.5341 26.518 23.5341C24.3137 23.5341 22.5553 22.2065 21.725 20.8137V30.5306H17.635V7.20646H21.725V9.60376V9.60506ZM29.3947 15.2413C29.3947 12.844 27.6697 10.8363 25.5592 10.8363C23.4486 10.8363 21.7237 12.844 21.7237 15.2413C21.7237 17.6386 23.4486 19.6464 25.5592 19.6464C27.6697 19.6464 29.3947 17.6386 29.3947 15.2413Z" fill="#141217"></path><path d="M58.665 7.20654L53.2961 23.2737H49.4606L46.1367 12.4545L42.8128 23.2737H38.9773L33.6084 7.20654H37.9542L41.0223 17.2478L44.1547 7.20654H48.1174L51.2498 17.2478L54.3179 7.20654H58.6637H58.665Z" fill="#141217"></path><path d="M60.2351 0.469238H64.3251V4.35703H60.2351V0.469238ZM60.2351 7.20643H64.3251V23.2735H60.2351V7.20643Z" fill="#141217"></path><path d="M82.1683 13.945V23.275H78.0784V14.2043C78.0784 11.6129 76.5771 10.8351 75.0745 10.8351C73.221 10.8351 71.4306 12.0663 71.4306 14.7229V23.275H67.3406V7.20654H71.4306V9.60384C71.9421 8.63189 73.5398 6.94727 76.0321 6.94727C79.5154 6.94727 82.1683 9.08529 82.1683 13.9437V13.945Z" fill="#141217"></path><path d="M100 0.469238V23.2736H95.91V20.8124C95.0784 22.2052 93.3213 23.5328 91.117 23.5328C87.2494 23.5328 84.1504 20.002 84.1504 15.24C84.1504 10.478 87.2506 6.94716 91.117 6.94716C93.3213 6.94716 95.0797 8.27479 95.91 9.60373V0.469238H100ZM95.91 15.24C95.91 12.8427 94.1851 10.835 92.0746 10.835C89.964 10.835 88.2391 12.8427 88.2391 15.24C88.2391 17.6373 89.964 19.645 92.0746 19.645C94.1851 19.645 95.91 17.6373 95.91 15.24Z" fill="#141217"></path><path d="M7.41388 23.5329C3.32648 23.5329 0 20.1624 0 16.0179V7.20654H4.08997V16.2772C4.08997 18.1351 5.58098 19.6464 7.41388 19.6464C9.24679 19.6464 10.7378 18.1351 10.7378 16.2772V7.20654H14.8278V16.0179C14.8278 20.1624 11.5013 23.5329 7.41388 23.5329Z" fill="#141217"></path><defs><linearGradient id="paint0_linear_80_674092" x1="-0.475439" y1="1.45302" x2="14.1989" y2="5.68981" gradientUnits="userSpaceOnUse"><stop stop-color="#F2583C"></stop><stop offset="0.541667" stop-color="#9214C4"></stop><stop offset="1" stop-color="#1E71ED"></stop></linearGradient></defs></svg>
