<svg width="198" height="46" viewBox="0 0 198 46" fill="none" xmlns="http://www.w3.org/2000/svg">
<path d="M60.3963 19.4732L63.3515 9.88574H67.2256L70.156 19.4732L73.4589 9.88574H77.482L71.6708 26.5521H68.9143L65.2637 14.9527L61.638 26.5521H58.8814L53.0703 9.88574H57.0934L60.3963 19.4732Z" fill="black"/>
<path d="M79.4941 9.88574H83.2192V26.5521H79.4941V9.88574Z" fill="black"/>
<path d="M87.3159 9.88574H91.0409V16.741L97.3239 9.88574H101.918L95.2875 17.2626C95.8587 18.0574 96.9265 19.5477 98.4662 21.7086C100.006 23.8695 101.148 25.484 101.918 26.5521H97.5722L92.68 19.97L91.0161 21.8328V26.5521H87.291V9.88574H87.3159Z" fill="black"/>
<path d="M104.229 9.88574H107.954V26.5521H104.229V9.88574Z" fill="black"/>
<path d="M126.976 16.0704L122.482 25.186H120.271L115.801 16.0704V26.5521H112.076V9.88574H117.117L121.414 19.051L125.735 9.88574H130.751V26.5521H127.026V16.0704H126.976Z" fill="black"/>
<path d="M146.817 9.88574V13.1892H138.522V16.6417H145.973V19.8209H138.522V23.2734H147.09V26.5521H134.822V9.88574H146.817Z" fill="black"/>
<path d="M163.109 12.0715C164.698 13.5369 165.493 15.5488 165.493 18.132C165.493 20.7151 164.723 22.7767 163.159 24.2918C161.619 25.8069 159.235 26.5521 156.056 26.5521H150.369V9.88574H156.255C159.26 9.88574 161.52 10.6309 163.109 12.0715ZM160.402 21.9819C161.321 21.1125 161.768 19.8706 161.768 18.2313C161.768 16.592 161.321 15.3253 160.402 14.4559C159.483 13.5618 158.092 13.1395 156.205 13.1395H154.119V23.2734H156.478C158.167 23.2734 159.483 22.8512 160.402 21.9819Z" fill="black"/>
<path d="M168.721 9.88574H172.446V26.5521H168.721V9.88574Z" fill="black"/>
<path d="M188.414 26.5521L186.875 22.9505H179.896L178.357 26.5521H174.408L181.61 9.88574H185.211L192.413 26.5521H188.414ZM183.373 14.8533L181.287 19.6968H185.459L183.373 14.8533Z" fill="black"/>
<path d="M59.8491 34.1269V36.1388H63.0775V37.2814H59.8491V40.2867H58.6074V32.9844H63.4749V34.1269H59.8491Z" fill="black"/>
<path d="M77.2821 39.2436C76.5371 39.9639 75.6431 40.3116 74.5504 40.3116C73.4577 40.3116 72.5637 39.9639 71.8187 39.2436C71.0737 38.5233 70.7012 37.6291 70.7012 36.5611C70.7012 35.493 71.0737 34.5989 71.8187 33.8786C72.5637 33.1583 73.4577 32.8105 74.5504 32.8105C75.6431 32.8105 76.5371 33.1583 77.2821 33.8786C78.0271 34.5989 78.3997 35.493 78.3997 36.5611C78.3997 37.6291 78.0271 38.5233 77.2821 39.2436ZM76.3881 34.6982C75.8914 34.1766 75.2706 33.9283 74.5504 33.9283C73.8302 33.9283 73.2094 34.1766 72.7127 34.6982C72.216 35.2198 71.9677 35.8408 71.9677 36.5611C71.9677 37.3062 72.216 37.9272 72.7127 38.4239C73.2094 38.9207 73.8302 39.1939 74.5504 39.1939C75.2706 39.1939 75.8914 38.9455 76.3881 38.4239C76.8848 37.9023 77.1331 37.2814 77.1331 36.5611C77.1331 35.8159 76.8848 35.195 76.3881 34.6982Z" fill="black"/>
<path d="M87.8371 38.5982C88.16 38.9956 88.6318 39.1943 89.203 39.1943C89.7742 39.1943 90.2212 38.9956 90.5689 38.5982C90.9165 38.2008 91.0655 37.6792 91.0655 37.0086V32.96H92.3072V37.0582C92.3072 38.1014 92.0092 38.9211 91.438 39.4924C90.8669 40.0636 90.1218 40.3369 89.2278 40.3369C88.3338 40.3369 87.5888 40.0636 87.0176 39.4924C86.4464 38.9211 86.1484 38.1263 86.1484 37.0582V32.96H87.3901V37.0086C87.3405 37.6792 87.5143 38.2008 87.8371 38.5982Z" fill="black"/>
<path d="M105.94 32.96H107.182V40.2623H105.841L101.718 34.947V40.2623H100.477V32.96H101.718L105.965 38.3995V32.96H105.94Z" fill="black"/>
<path d="M120.964 33.9286C121.66 34.5744 122.007 35.4438 122.007 36.5863C122.007 37.7289 121.66 38.623 120.989 39.2688C120.319 39.9394 119.276 40.2623 117.86 40.2623H115.451V32.96H117.959C119.251 32.96 120.269 33.2829 120.964 33.9286ZM120.79 36.6111C120.79 34.947 119.822 34.1025 117.935 34.1025H116.693V39.0949H118.059C118.953 39.0949 119.623 38.8962 120.095 38.474C120.542 38.0518 120.79 37.4308 120.79 36.6111Z" fill="black"/>
<path d="M130.898 38.5982L130.178 40.2623H128.861L132.065 32.96H133.381L136.585 40.2623H135.268L134.548 38.5982H130.898ZM134.052 37.4556L132.735 34.4502L131.419 37.4556H134.052Z" fill="black"/>
<path d="M146.048 34.1021V40.2619H144.806V34.1021H142.596V32.9844H148.258V34.1021H146.048Z" fill="black"/>
<path d="M155.857 32.96H157.099V40.2623H155.857V32.96Z" fill="black"/>
<path d="M171.452 39.2436C170.707 39.9639 169.813 40.3116 168.72 40.3116C167.628 40.3116 166.734 39.9639 165.989 39.2436C165.244 38.5233 164.871 37.6291 164.871 36.5611C164.871 35.493 165.244 34.5989 165.989 33.8786C166.734 33.1583 167.628 32.8105 168.72 32.8105C169.813 32.8105 170.707 33.1583 171.452 33.8786C172.197 34.5989 172.57 35.493 172.57 36.5611C172.57 37.6291 172.197 38.5233 171.452 39.2436ZM170.558 34.6982C170.061 34.1766 169.441 33.9283 168.72 33.9283C168 33.9283 167.379 34.1766 166.883 34.6982C166.386 35.2198 166.138 35.8408 166.138 36.5611C166.138 37.3062 166.386 37.9272 166.883 38.4239C167.379 38.9207 168 39.1939 168.72 39.1939C169.441 39.1939 170.061 38.9455 170.558 38.4239C171.055 37.9023 171.303 37.2814 171.303 36.5611C171.303 35.8159 171.055 35.195 170.558 34.6982Z" fill="black"/>
<path d="M185.831 32.96H187.072V40.2623H185.731L181.609 34.947V40.2623H180.367V32.96H181.609L185.855 38.3995V32.96H185.831Z" fill="black"/>
<path d="M26.8965 35.8656C33.1794 34.9714 37.9972 29.5816 37.9972 23.074C37.9972 19.0999 36.2092 15.5729 33.4029 13.1885L26.8965 19.696V35.8656Z" fill="black"/>
<path d="M23.2452 35.866V19.6965L16.7388 13.1641C13.9326 15.5237 12.1445 19.0755 12.1445 23.0496C12.1445 29.582 16.9623 34.9718 23.2452 35.866Z" fill="black"/>
<path d="M36.308 11.8227C39.3128 14.8281 40.9519 18.827 40.9519 23.0494C40.9519 27.2719 39.288 31.2957 36.308 34.2762C33.3031 37.2816 29.3048 38.9209 25.0831 38.9209C20.8613 38.9209 16.8382 37.2568 13.8582 34.2762C10.8781 31.2957 9.18943 27.2967 9.18943 23.0494C9.18943 18.8021 10.8533 14.8032 13.8334 11.8227C14.0817 11.5743 14.3549 11.3259 14.628 11.0775L11.0023 7.45117C10.7291 7.69955 10.4808 7.94793 10.2076 8.19631C8.27058 10.1337 6.75571 12.3691 5.71269 14.8777C4.62001 17.4609 4.04883 20.2179 4.04883 23.0494C4.04883 25.881 4.59517 28.638 5.71269 31.2211C6.78055 33.7298 8.29541 35.9652 10.2076 37.9026C12.1447 39.8399 14.3797 41.3551 16.8879 42.3983C19.4706 43.4911 22.2272 44.0624 25.0582 44.0624C27.8893 44.0624 30.6458 43.516 33.2286 42.3983C35.7368 41.3302 37.9718 39.8151 39.9089 37.9026C41.8459 35.9652 43.3608 33.7298 44.4038 31.2211C45.4965 28.638 46.0676 25.881 46.0676 23.0494C46.0676 20.2179 45.5213 17.4609 44.4038 14.8777C43.3359 12.3691 41.8211 10.1337 39.9089 8.19631C39.6605 7.94793 39.3873 7.69955 39.1142 7.45117L35.5133 11.0775C35.7864 11.3011 36.0348 11.5494 36.308 11.8227Z" fill="black"/>
<path d="M25.0581 15.0266C28.6789 15.0266 31.6142 12.0908 31.6142 8.46934C31.6142 4.84788 28.6789 1.91211 25.0581 1.91211C21.4372 1.91211 18.502 4.84788 18.502 8.46934C18.502 12.0908 21.4372 15.0266 25.0581 15.0266Z" fill="black"/>
</svg>
