<svg id="Layer_1" data-name="Layer 1" xmlns="http://www.w3.org/2000/svg" viewBox="0 0 1419.34 681.42"><defs><style>.cls-1{fill:#0254ec;}</style></defs><path class="cls-1" d="M1352.42,66.92c15.87,15.87,46.71,23.8,65,27.28a2.35,2.35,0,0,1,0,4.62c-18.3,3.47-49.14,11.41-65,27.28-14.94,14.94-22.85,43.13-26.63,61.66a2.35,2.35,0,0,1-4.63-.11c-2.69-17.28-9.69-43.3-27.93-61.55-15.87-15.87-46.7-23.81-65-27.28a2.35,2.35,0,0,1,0-4.62c18.31-3.48,49.14-11.41,65-27.28s23.81-46.7,27.29-65a2.35,2.35,0,0,1,4.61,0C1328.61,20.22,1336.55,51.05,1352.42,66.92ZM673.47,190V674.18a7.24,7.24,0,0,0,7.23,7.24H788.37a7.24,7.24,0,0,0,7.23-7.24V190a7.23,7.23,0,0,0-7.23-7.23H680.7A7.23,7.23,0,0,0,673.47,190Zm168.11,482.1a6.43,6.43,0,0,0,5.84,9.31h390.9a7.29,7.29,0,0,0,7.35-7.24v-94.8a7.29,7.29,0,0,0-7.35-7.24H1041.11a6.43,6.43,0,0,1-5.74-9.5l205.05-370.36a6.43,6.43,0,0,0-5.73-9.5H847.55A7.29,7.29,0,0,0,840.2,190V295a7.29,7.29,0,0,0,7.35,7.23h172a6.43,6.43,0,0,1,5.84,9.31ZM628.24,182.74H515.09a7.24,7.24,0,0,0-6.76,4.67L428.65,396a2.58,2.58,0,0,1-4.75.15L328.78,188.89A12.7,12.7,0,0,0,318,181.43h-.08s-.05,0-.08,0a12.69,12.69,0,0,0-11.13,7.48L211.59,396.16a2.58,2.58,0,0,1-4.75-.15l-79.68-208.6a7.24,7.24,0,0,0-6.76-4.67H7.25a7.28,7.28,0,0,0-6.76,9.91l187.13,487a2.58,2.58,0,0,0,4.72.22l114-228.14a12.78,12.78,0,0,1,22.91,0l114,228.14a2.58,2.58,0,0,0,4.72-.22L635,192.65A7.28,7.28,0,0,0,628.24,182.74Z"/></svg>