<svg width="115" height="40" viewBox="0 0 115 40" fill="none" xmlns="http://www.w3.org/2000/svg">
<path d="M0 12.5215H6.78222L10.7314 22.3957L14.7319 12.5215H21.3355L11.3919 35.897H4.74648L7.46836 29.7028L0 12.5215Z" fill="#6101D1"/>
<path d="M28.2157 12.1279C23.1199 12.1279 19.8984 16.5943 19.8984 21.0421C19.8984 26.0471 23.4303 30.0153 28.119 30.0153C31.6165 30.0153 32.9353 27.9327 32.9353 27.9327V29.555H38.8507V12.5211H32.9353V14.0697C32.9353 14.0697 31.464 12.1279 28.2157 12.1279V12.1279ZM29.4739 17.6019C31.8251 17.6019 33.0385 19.4202 33.0385 21.0608C33.0385 22.8274 31.7386 24.5611 29.4739 24.5611C27.597 24.5611 25.9008 23.0621 25.9008 21.136C25.9008 19.1826 27.2651 17.6019 29.4739 17.6019Z" fill="#6101D1"/>
<path d="M40.8867 29.5553V5H47.0739V14.1291C47.0739 14.1291 48.5435 12.1305 51.6213 12.1305C55.3862 12.1305 57.592 14.8719 57.592 18.7893V29.5553H51.4501V20.2641C51.4501 18.9384 50.804 17.6577 49.3403 17.6577C47.8504 17.6577 47.0739 18.9578 47.0739 20.2641V29.5553H40.8867Z" fill="#6101D1"/>
<path d="M68.1386 12.1289C62.303 12.1289 58.8281 16.4656 58.8281 21.1119C58.8281 26.3995 63.0354 30.0142 68.1607 30.0142C73.1284 30.0142 77.4753 26.5635 77.4753 21.2006C77.4753 15.3326 72.924 12.1289 68.1386 12.1289V12.1289ZM68.1943 17.651C70.2557 17.651 71.682 19.3289 71.682 21.1182C71.682 22.6444 70.3529 24.5267 68.1943 24.5267C66.2164 24.5267 64.732 22.9761 64.732 21.1015C64.732 19.2957 65.9662 17.651 68.1943 17.651V17.651Z" fill="#6101D1"/>
<path d="M87.7831 12.1289C81.9475 12.1289 78.4727 16.4656 78.4727 21.1119C78.4727 26.3995 82.6799 30.0142 87.8052 30.0142C92.7729 30.0142 97.1198 26.5635 97.1198 21.2006C97.1198 15.3326 92.5685 12.1289 87.7831 12.1289V12.1289ZM87.8389 17.651C89.9002 17.651 91.3265 19.3289 91.3265 21.1182C91.3265 22.6444 89.9975 24.5267 87.8389 24.5267C85.8609 24.5267 84.3766 22.9761 84.3766 21.1015C84.3766 19.2957 85.6107 17.651 87.8389 17.651V17.651Z" fill="#6101D1"/>
<path d="M102.007 29.9171C104.276 29.9171 106.115 28.1195 106.115 25.9019C106.115 23.6844 104.276 21.8867 102.007 21.8867C99.7379 21.8867 97.8984 23.6844 97.8984 25.9019C97.8984 28.1195 99.7379 29.9171 102.007 29.9171Z" fill="#6101D1"/>
<path d="M107.463 20.4116H100.066L106.631 5H114L107.463 20.4116Z" fill="#6101D1"/>
</svg>
