<svg width="70" height="126" viewBox="0 0 70 126" fill="none" xmlns="http://www.w3.org/2000/svg">
<path d="M7 0H5V18L35 36L65 18V0H63V16.8676L35 33.6676L7 16.8676V0Z" fill="white" fill-opacity="0.04"/>
<path d="M70 27L40 45V81L70 99V96.6676L42 79.8676V46.1324L70 29.3324V27Z" fill="white" fill-opacity="0.04"/>
<path d="M65 126V108L35 90L5 108V126H7V109.132L35 92.3324L63 109.132V126H65Z" fill="white" fill-opacity="0.04"/>
<path d="M0 99L30 81V45L0 27V29.3324L28 46.1324V79.8676L0 96.6676V99Z" fill="white" fill-opacity="0.04"/>
</svg>
