<svg xmlns="http://www.w3.org/2000/svg" width="247" height="87" fill="none">
  <path
    d="M81.615 18.753c-.816-.058-1.864.466-2.505 1.107-3.32 3.088-7.107 5.243-11.534 6-.467.059-1.224-.174-1.573-.524-2.564-2.738-5.476-4.893-9.03-6.175-.932-.35-1.048-.932-1.107-1.748-.35-4.485.408-8.738 2.505-12.757 1.165-2.156.99-2.855-.757-4.37h-1.748c-.582.758-1.281 1.399-1.747 2.214-2.389 4.544-3.437 9.438-3.03 14.564v.757c-6.175-.058-11.36 1.923-14.505 7.573-2.33-.466-4.602-1.048-6.932-1.398-6.816-1.106-13.574-.932-20.273 1.165-4.427 1.34-7.98 3.729-9.379 8.506v3.204c1.864 7.165 7.165 11.068 13.399 14.039 0 .175 0 .291-.059.35-.058.233-.174.465-.233.699-2.97 7.747-1.747 14.796 3.554 21.146.757.874.932 1.69.699 2.738-.583 2.855-1.049 5.65-1.573 8.738 2.854-1.456 5.534-2.738 8.156-4.078.873-.466 1.573-.524 2.563-.058 5.534 2.505 11.127 2.796 16.719.291 1.98-.873 3.786-2.213 5.767-3.32.175.233.466.524.7.815 3.203 3.554 6.932 6.35 11.65 7.574 6.466 1.689 11.535-1.34 13.05-7.807.29-1.281.407-2.563.465-3.903.175-5.65-.932-11.068-3.087-16.253-1.398-3.378-3.146-6.582-4.719-10.02 4.835-5.068 5.01-11.01 2.447-17.418.699-.233 1.223-.35 1.748-.524 4.427-1.34 8.33-3.67 11.534-7.049.582-.582.874-1.806.699-2.563-.175-.583-1.165-1.456-1.864-1.515ZM31.982 51.667c3.553-1.165 6.7-2.97 9.612-5.417 1.282.99 2.505 1.864 3.553 2.68-.699 2.737-1.398 5.359-1.98 8.038-.175.874-.175 1.806-.233 2.738-.058.816-.408 1.165-1.282 1.224-4.427 0-9.146-3.554-10.311-7.806-.175-.758-.175-1.224.64-1.457Zm-10.136-3.67c.116-4.369 1.456-7.98 5.126-10.544.35-.233.816-.524 1.165-.466 4.37.466 8.68.932 13.166 1.456-2.33 5.768-12.7 10.72-19.457 9.554ZM18.117 28.25c7.224-.524 14.214.466 20.914 3.262 2.68 1.107 3.611 2.505 3.437 4.602 0 .117-.117.291-.117.35-3.204-.466-6.408-.99-9.612-1.398-4.893-.583-9.787-.466-14.622.116-.757.117-1.747-.116-2.388-.524-1.748-1.049-3.204-3.03-4.078-5.36 2.155-.35 4.31-.873 6.466-1.048ZM9.204 30.52c1.34 1.864 2.622 3.67 3.962 5.417-2.272.874-4.72 1.806-7.224 2.797-2.388-3.495-.932-7.05 3.262-8.214ZM7.398 40.774c3.146-1.981 11.01-3.845 16.02-3.787-.932 1.631-2.038 3.204-2.738 4.893-.699 1.748-.932 3.67-1.398 5.651-4.718-.815-8.68-2.97-11.884-6.757Zm24.467 36.35c-7.456-1.922-12.7-6.466-14.971-13.98-.932-3.146-.583-6.234.64-9.205.292-.699.408-1.456 1.515-1.34 1.049.117 1.282.7 1.515 1.573 1.864 8.447 7.107 13.923 15.263 16.486 2.388.758 5.068.758 7.573.816 1.398 0 2.155.35 2.447 1.864-3.962 3.554-8.68 5.185-13.982 3.787Zm17.535-8.68c-3.146-6.174-1.456-16.952 3.32-21.146 2.214 3.903 4.137 7.865 5.302 12.175.291 1.049-.583 2.564-1.282 3.729-1.69 2.738-4.31 4.31-7.34 5.243Zm11.01 12.06c-4.777-2.098-7.748-5.535-9.961-9.962 3.67-1.34 6.699-3.379 8.796-6.99 1.631 5.708 1.922 11.184 1.165 16.951Zm2.272.698c.233-2.621.466-5.242.64-7.748 1.923.641 3.846 1.224 5.768 1.865.291.116.64.582.583.873-.466 4.777-3.787 5.943-6.99 5.01Zm7.282-9.67c0 .35.058.7.058.99 0 .117-.058.292-.116.758-1.457-.466-2.797-.816-4.078-1.398-1.864-.816-3.088-2.04-3.437-4.37-1.049-7.165-3.67-13.864-7.107-20.272-.292-.524-.525-.99-.816-1.515 1.631-1.048 3.262-1.048 4.544.466 1.806 2.04 3.554 4.253 4.893 6.583 3.437 5.767 5.593 12 6.059 18.758ZM159.909 52.25c-1.223-.816-2.68-1.282-4.194-1.922.291-.117.641-.292.932-.408 4.194-1.748 6.291-5.01 6.408-9.496.116-4.485-1.515-8.097-5.651-10.31-2.621-1.399-5.476-1.865-8.447-1.865-7.107-.058-14.272 0-21.379 0-.408 0-.816.058-1.34.058v1.69c0 7.398 0 14.796-.058 22.195 0 .64-.117 1.398-.466 1.922-3.321 4.894-7.515 8.855-12.816 11.535-3.845 1.98-7.865 3.029-12.234 2.038-4.252-.932-7.69-4.543-8.097-8.563.466-.117.932-.175 1.34-.291 3.204-1.107 6.524-1.98 9.495-3.437 4.427-2.156 8.331-5.185 10.661-9.729s.699-9.262-4.02-11.36c-3.437-1.514-6.932-1.281-10.31.117-9.555 3.903-15.438 14.33-13.924 24.525 1.34 8.797 8.156 14.913 17.069 15.088 6.524.175 12.292-2.155 17.301-6.117 2.156-1.689 3.962-3.786 5.942-5.709V74.62c.467.058.758.116 1.049.116 7.457 0 14.913.059 22.428-.058 2.214-.058 4.486-.35 6.583-.99 4.777-1.398 7.806-4.66 8.447-9.67.582-4.66-.408-8.972-4.719-11.768Zm-62.682-8.855c2.272-2.388 4.835-4.31 8.331-4.544.64-.058 1.398 0 2.038.175 2.505.641 3.438 2.563 2.214 4.835-1.864 3.554-4.951 5.768-8.33 7.573-2.855 1.573-5.884 2.622-9.438 2.971.408-4.485 2.272-7.98 5.185-11.01Zm39.963-5.884c3.845 0 7.573-.174 11.301.059 2.214.116 3.379 1.922 3.321 4.194-.058 2.389-1.457 4.136-3.845 4.253-3.554.174-7.107.058-10.777.058v-8.564Zm11.709 27.846c-3.612.292-7.224.175-10.894.175-.291 0-.757-.582-.757-.874-.058-3.087-.058-6.175-.058-9.437 3.961 0 7.689-.116 11.36.058 2.738.117 4.427 2.097 4.543 4.719.117 2.97-1.339 5.126-4.194 5.36ZM197.833 29.064c-1.922-.466-3.903-.815-5.884-.815-6.699-.117-13.398-.058-20.039-.058-.292 0-.583.058-.874.058-.058.233-.117.408-.117.64v44.857c0 .932.408 1.107 1.224 1.107 2.912-.059 5.825-.059 8.738 0 1.107 0 1.281-.466 1.281-1.398-.058-4.195 0-8.39 0-12.642 0-.524.059-1.048.059-1.69h8.388c3.554-.057 7.107-.465 10.253-2.213 6.117-3.437 7.748-9.03 7.282-15.554-.524-6.233-4.194-10.777-10.311-12.292Zm-5.651 20.331c-3.262.35-6.641.059-10.02.059v-11.71c3.263 0 6.35-.116 9.438.059 3.145.174 4.893 2.213 5.068 5.476.116 3.262-1.457 5.767-4.486 6.116ZM247 38.036v-9.729h-33.205v46.546c3.262 0 6.466-.058 9.67 0 1.107 0 1.398-.291 1.398-1.398-.058-5.01 0-9.962 0-14.972v-1.69h4.253c4.66 0 9.321 0 13.981-.057.408 0 1.223-.466 1.223-.7.117-2.912.059-5.767.059-8.854H224.98v-9.263c7.34.117 14.68.117 22.02.117Z"
    fill="#fff" />
</svg>
