<svg width="92" height="32" fill="none" xmlns="http://www.w3.org/2000/svg"><path d="M30.376 6.873c-.304-.022-.694.173-.933.412-1.236 1.15-2.645 1.951-4.293 2.233-.173.022-.455-.065-.585-.195-.954-1.019-2.038-1.821-3.36-2.298-.347-.13-.39-.347-.412-.65-.13-1.67.151-3.253.932-4.749.433-.802.368-1.062-.282-1.626h-.65c-.217.282-.477.52-.651.824-.889 1.691-1.28 3.512-1.127 5.42v.282c-2.299-.022-4.228.716-5.4 2.819-.866-.174-1.712-.39-2.58-.52-2.536-.413-5.05-.348-7.544.433C1.843 9.757.52 10.646 0 12.424v1.192c.694 2.667 2.667 4.12 4.987 5.225 0 .065 0 .109-.022.13-.022.087-.065.174-.087.26-1.105 2.884-.65 5.507 1.323 7.87.282.326.347.63.26 1.02-.217 1.062-.39 2.103-.585 3.252 1.062-.542 2.06-1.019 3.035-1.518.325-.173.585-.195.954-.021 2.06.932 4.141 1.04 6.223.108.737-.325 1.409-.824 2.146-1.236.065.087.173.195.26.304 1.193 1.322 2.58 2.363 4.337 2.818 2.406.63 4.293-.498 4.856-2.905.109-.477.152-.954.174-1.453.065-2.103-.347-4.12-1.15-6.049-.52-1.257-1.17-2.45-1.756-3.729 1.8-1.886 1.865-4.098.91-6.483.261-.086.456-.13.651-.195 1.648-.498 3.1-1.366 4.293-2.623.217-.217.325-.672.26-.954-.065-.217-.433-.542-.693-.564Zm-18.473 12.25c1.323-.434 2.493-1.106 3.577-2.016.477.368.933.693 1.323.997-.26 1.019-.52 1.995-.737 2.992-.065.325-.065.672-.087 1.019-.021.304-.152.434-.477.455-1.648 0-3.404-1.322-3.837-2.905-.065-.282-.065-.455.238-.542Zm-3.772-1.366c.043-1.626.542-2.97 1.908-3.924.13-.087.303-.195.433-.174 1.626.174 3.23.347 4.9.542-.867 2.147-4.726 3.99-7.241 3.556Zm-1.388-7.35c2.688-.195 5.29.174 7.784 1.214.997.412 1.344.932 1.279 1.713 0 .043-.044.109-.044.13-1.192-.173-2.385-.368-3.577-.52-1.821-.217-3.643-.174-5.442.043a1.419 1.419 0 0 1-.889-.195c-.65-.39-1.192-1.127-1.518-1.995.802-.13 1.605-.325 2.407-.39Zm-3.317.846c.498.694.975 1.366 1.474 2.016-.846.325-1.756.672-2.689 1.04-.888-1.3-.346-2.623 1.215-3.056Zm-.672 3.816c1.17-.738 4.097-1.431 5.962-1.41-.347.607-.759 1.193-1.02 1.821-.26.651-.346 1.366-.52 2.104-1.756-.304-3.23-1.106-4.422-2.515Zm9.106 13.529c-2.775-.716-4.727-2.407-5.572-5.204-.347-1.17-.217-2.32.238-3.425.109-.26.152-.542.564-.5.39.044.477.261.564.586.693 3.144 2.645 5.182 5.68 6.136.889.282 1.886.282 2.819.304.52 0 .802.13.91.694-1.474 1.322-3.23 1.93-5.203 1.409Zm6.526-3.23c-1.171-2.299-.542-6.31 1.236-7.871.824 1.453 1.54 2.927 1.973 4.531.108.39-.217.954-.477 1.388-.63 1.019-1.605 1.604-2.732 1.951Zm4.098 4.487c-1.778-.78-2.884-2.06-3.708-3.707 1.366-.499 2.494-1.258 3.274-2.602.607 2.125.715 4.163.434 6.31Zm.845.26c.087-.975.174-1.95.239-2.883.715.238 1.43.455 2.146.694.109.043.239.216.217.325-.174 1.778-1.41 2.211-2.602 1.864Zm2.71-3.599c0 .13.022.26.022.369 0 .043-.022.108-.043.282-.542-.174-1.041-.304-1.518-.52-.694-.304-1.15-.76-1.28-1.627-.39-2.666-1.365-5.16-2.644-7.545-.109-.195-.195-.368-.304-.564.607-.39 1.214-.39 1.691.174.672.759 1.323 1.583 1.822 2.45 1.279 2.146 2.08 4.466 2.254 6.981ZM59.516 19.34c-.456-.304-.998-.477-1.562-.716.109-.043.239-.108.347-.152 1.561-.65 2.342-1.864 2.385-3.534.044-1.67-.563-3.013-2.103-3.837-.975-.52-2.038-.694-3.144-.694-2.645-.022-5.312 0-7.957 0-.151 0-.303.021-.498.021v.63c0 2.753 0 5.506-.022 8.26 0 .238-.044.52-.174.715-1.235 1.822-2.796 3.296-4.77 4.293-1.43.738-2.926 1.128-4.553.76-1.582-.348-2.862-1.692-3.013-3.188.173-.043.347-.065.498-.108 1.193-.412 2.429-.738 3.534-1.28 1.648-.802 3.1-1.93 3.968-3.62.867-1.692.26-3.448-1.496-4.228-1.279-.564-2.58-.477-3.838.043-3.555 1.453-5.745 5.334-5.181 9.128.498 3.274 3.035 5.55 6.352 5.616 2.429.064 4.575-.803 6.44-2.277.802-.629 1.474-1.41 2.211-2.125v4.618c.174.022.282.044.39.044 2.776 0 5.55.021 8.348-.022.824-.022 1.67-.13 2.45-.369 1.778-.52 2.905-1.734 3.144-3.599.217-1.734-.152-3.339-1.756-4.38Zm-23.33-3.296c.846-.889 1.8-1.604 3.1-1.691.24-.022.521 0 .76.065.932.238 1.279.954.823 1.8-.693 1.322-1.843 2.146-3.1 2.818a8.912 8.912 0 0 1-3.512 1.106c.151-1.67.845-2.97 1.93-4.098Zm14.874-2.19c1.43 0 2.818-.065 4.206.022.824.043 1.257.715 1.236 1.56-.022.89-.542 1.54-1.431 1.584-1.323.065-2.645.021-4.011.021v-3.187Zm4.358 10.364c-1.345.108-2.689.065-4.055.065-.108 0-.282-.217-.282-.325-.021-1.15-.021-2.298-.021-3.513 1.474 0 2.862-.043 4.228.022 1.019.043 1.647.78 1.69 1.756.044 1.106-.498 1.908-1.56 1.995ZM73.63 10.71c-.715-.173-1.453-.303-2.19-.303-2.493-.043-4.986-.021-7.458-.021-.108 0-.217.021-.325.021-.022.087-.044.152-.044.239V27.34c0 .347.152.412.456.412a81.243 81.243 0 0 1 3.252 0c.412 0 .477-.173.477-.52-.022-1.561 0-3.122 0-4.705 0-.195.022-.39.022-.629h3.122c1.322-.021 2.645-.173 3.816-.823 2.276-1.28 2.883-3.361 2.71-5.79-.195-2.32-1.561-4.01-3.838-4.574Zm-2.103 7.568c-1.214.13-2.472.021-3.73.021v-4.358c1.215 0 2.364-.043 3.513.022 1.171.065 1.821.824 1.886 2.038.044 1.214-.542 2.146-1.669 2.277ZM91.93 14.05v-3.621H79.57v17.323c1.215 0 2.408-.021 3.6 0 .412 0 .52-.108.52-.52-.021-1.865 0-3.708 0-5.572v-.63h1.583c1.735 0 3.47 0 5.204-.02.151 0 .455-.174.455-.26.043-1.085.022-2.147.022-3.297h-7.22v-3.447c2.732.043 5.464.043 8.195.043Z" fill="#BABABA"/></svg>