<svg xmlns="http://www.w3.org/2000/svg" viewBox="0 0 512 512"><path d="M512 254.4c0-1.3 0-2.7-.1-4.3-.1-4.6-.2-9.8-.3-15.4-.5-15.9-1.3-31.8-2.5-46.8-1.7-20.6-4.2-37.8-7.7-50.7-7.4-27.4-28.8-48.9-56.2-56.3-16.2-4.3-47.8-7-92.4-8.7-21.2-.8-43.9-1.3-66.6-1.6-7.9-.1-15.3-.2-21.9-.2h-16.8c-6.6.1-14 .1-21.9.2-22.7.3-45.4.8-66.6 1.6-44.6 1.7-76.3 4.4-92.4 8.7-27.4 7.4-48.8 28.8-56.2 56.3-3.5 12.9-5.9 30.1-7.7 50.7-1.3 15-2.1 30.9-2.5 46.8-.2 5.5-.2 10.7-.3 15.4 0 1.7-.1 3.1-.1 4.3v3.2c0 1.3 0 2.7.1 4.3.1 4.6.2 9.8.3 15.4.5 15.9 1.3 31.8 2.5 46.8 1.7 20.6 4.2 37.8 7.7 50.7 7.3 27.4 28.8 49 56.2 56.3 16.1 4.3 47.8 7 92.4 8.7 21.2.8 43.9 1.3 66.6 1.6 7.9.1 15.3.2 21.9.2h16.8c6.6-.1 14-.1 21.9-.2 22.7-.3 45.4-.8 66.6-1.6 44.6-1.7 76.3-4.4 92.4-8.7 27.4-7.3 48.9-28.9 56.2-56.3 3.5-12.9 5.9-30.1 7.7-50.7 1.3-15 2.1-30.9 2.5-46.8.2-5.5.2-10.7.3-15.4 0-1.7.1-3.1.1-4.3v-3.2zm-41.1 3c0 1.2 0 2.5-.1 4.1-.1 4.5-.2 9.4-.3 14.7-.4 15.2-1.2 30.4-2.4 44.5-1.5 18.4-3.7 33.5-6.4 43.6-3.5 13.2-13.9 23.7-27.1 27.1-12 3.2-42.2 5.8-83.3 7.3-20.8.8-43.2 1.3-65.5 1.6-7.8.1-15.1.2-21.6.2h-16.3l-21.6-.2c-22.3-.3-44.7-.8-65.5-1.6-41.1-1.6-71.4-4.1-83.3-7.3-13.1-3.5-23.5-13.9-27.1-27.1-2.7-10.1-4.9-25.2-6.4-43.6-1.2-14.1-1.9-29.3-2.4-44.5-.2-5.3-.2-10.3-.3-14.7 0-1.5-.1-2.9-.1-4.1v-2.7c0-1.2 0-2.5.1-4.1.1-4.5.2-9.4.3-14.7.4-15.2 1.2-30.4 2.4-44.5 1.5-18.4 3.7-33.5 6.4-43.6 3.5-13.2 13.9-23.7 27.1-27.1 12-3.2 42.2-5.8 83.3-7.3 20.8-.8 43.2-1.3 65.5-1.6 7.8-.1 15.1-.2 21.6-.2h16.3l21.6.2c22.3.3 44.7.8 65.5 1.6 41.1 1.6 71.4 4.1 83.3 7.3 13.1 3.5 23.5 13.9 27.1 27.1 2.7 10.1 4.9 25.2 6.4 43.6 1.2 14.1 1.9 29.3 2.4 44.5.2 5.3.2 10.3.3 14.7 0 1.5.1 2.9.1 4.1v2.7zm-265.8 75.2 132.6-77.1-132.6-76v153.1z"/></svg>