<?xml version="1.0" encoding="UTF-8"?>
<!DOCTYPE svg PUBLIC "-//W3C//DTD SVG 1.1//EN" "http://www.w3.org/Graphics/SVG/1.1/DTD/svg11.dtd">
<!-- Creator: CorelDRAW -->
<svg xmlns="http://www.w3.org/2000/svg" xml:space="preserve" width="9.20613in" height="2.17504in" style="shape-rendering:geometricPrecision; text-rendering:geometricPrecision; image-rendering:optimizeQuality; fill-rule:evenodd; clip-rule:evenodd"
viewBox="0 0 9.24082 2.18323"
 xmlns:xlink="http://www.w3.org/1999/xlink">
 <defs>
  <style type="text/css">
   <![CDATA[
    .fil0 {fill:none}
    .fil4 {fill:#FEFEFE}
    .fil1 {fill:#0000C8}
    .fil5 {fill:#6464FF}
    .fil2 {fill:url(#id0)}
    .fil3 {fill:url(#id1)}
   ]]>
  </style>
  <linearGradient id="id0" gradientUnits="userSpaceOnUse" x1="0.812084" y1="1.30427" x2="1.40034" y2="0.878874">
   <stop offset="0" style="stop-color:#0044FF"/>
   <stop offset="1" style="stop-color:#E10019"/>
  </linearGradient>
  <linearGradient id="id1" gradientUnits="userSpaceOnUse" x1="0.87602" y1="1.37442" x2="1.3364" y2="0.808713">
   <stop offset="0" style="stop-color:#0044FF"/>
   <stop offset="0.490196" style="stop-color:#CF3868"/>
   <stop offset="1" style="stop-color:#CC0018"/>
  </linearGradient>
 </defs>
 <g id="Layer_x0020_1">
  <metadata id="CorelCorpID_0Corel-Layer"/>
  <polygon class="fil0" points="-0,0 9.24082,0 9.24082,2.18323 -0,2.18323 "/>
  <g id="_492426008">
   <path id="_492433312" class="fil1" d="M2.00448 1.6637l0.383459 -0.932022 0.222358 0 0.379464 0.932022 -0.209037 0 -0.0945359 -0.244983 -0.384787 0 -0.0958677 0.244983 -0.201054 0zm0.356831 -0.399432l0.266295 0 -0.133145 -0.343522 -0.133149 0.343522zm1.08932 0.410845c-0.0593448,0 -0.114892,-0.0102629 -0.166625,-0.0308165 -0.0517336,-0.0212886 -0.0970019,-0.0505915 -0.135809,-0.0878771 -0.0380444,-0.0372777 -0.0680942,-0.0806452 -0.0901573,-0.130099 -0.0213044,-0.0502121 -0.0319546,-0.104238 -0.0319546,-0.162053 0,-0.05859 0.0106502,-0.112612 0.0319546,-0.162061 0.0220631,-0.0502121 0.0525002,-0.093955 0.0912994,-0.131249 0.0387992,-0.0372777 0.0836881,-0.0661933 0.134667,-0.086735 0.0517336,-0.0212965 0.107281,-0.0319427 0.166625,-0.0319427 0.0441263,0 0.086735,0.00608188 0.127822,0.0182496 0.0410873,0.0121717 0.0791198,0.029295 0.114125,0.051366 0.0357563,0.0220631 0.0661854,0.0486906 0.0912994,0.0798865l-0.111845 0.110703c-0.0289117,-0.0357681 -0.0623917,-0.062771 -0.100428,-0.0810365 -0.0372856,-0.0182536 -0.0776063,-0.0273942 -0.120974,-0.0273942 -0.0357602,0 -0.0692363,0.0068604 -0.100432,0.0205535 -0.0311958,0.0129344 -0.0582027,0.0311958 -0.0810285,0.0547804 -0.0228298,0.0228179 -0.040704,0.0502121 -0.0536383,0.0821588 -0.0129344,0.0311958 -0.0194035,0.0654346 -0.0194035,0.10272 0,0.036519 0.00646916,0.0707538 0.0194035,0.102712 0.0129344,0.0311879 0.0311958,0.0585821 0.0547804,0.0821746 0.0235846,0.0228179 0.0509787,0.0407 0.0821667,0.0536383 0.0319585,0.0129344 0.0665806,0.0194035 0.103854,0.0194035 0.041846,0 0.0810325,-0.00875728 0.117551,-0.02626 0.036519,-0.0174948 0.0688529,-0.0426008 0.0970019,-0.075326l0.108427 0.107289c-0.02511,0.0304371 -0.0551598,0.0566734 -0.0901652,0.0787483 -0.0349975,0.0220631 -0.0730419,0.0391786 -0.114121,0.0513502 -0.0403285,0.0114129 -0.0817913,0.0171154 -0.124396,0.0171154zm0.802437 0c-0.0593408,0 -0.114884,-0.0102629 -0.166618,-0.0308165 -0.0517375,-0.0212886 -0.0970137,-0.0505915 -0.135813,-0.0878771 -0.0380404,-0.0372777 -0.0680942,-0.0806452 -0.0901534,-0.130099 -0.0213044,-0.0502121 -0.0319625,-0.104238 -0.0319625,-0.162053 0,-0.05859 0.0106581,-0.112612 0.0319625,-0.162061 0.0220592,-0.0502121 0.0524923,-0.093955 0.0912994,-0.131249 0.0387992,-0.0372777 0.0836881,-0.0661933 0.134667,-0.086735 0.0517336,-0.0212965 0.107277,-0.0319427 0.166618,-0.0319427 0.0441302,0 0.0867548,0.00608188 0.127842,0.0182496 0.0410873,0.0121717 0.0791277,0.029295 0.114125,0.051366 0.0357563,0.0220631 0.0661933,0.0486906 0.0912994,0.0798865l-0.111845 0.110703c-0.0289077,-0.0357681 -0.0623838,-0.062771 -0.100428,-0.0810365 -0.0372817,-0.0182536 -0.077626,-0.0273942 -0.120994,-0.0273942 -0.0357563,0 -0.0692323,0.0068604 -0.100428,0.0205535 -0.0311919,0.0129344 -0.0582027,0.0311958 -0.0810285,0.0547804 -0.0228258,0.0228179 -0.0407079,0.0502121 -0.0536423,0.0821588 -0.0129304,0.0311958 -0.0193956,0.0654346 -0.0193956,0.10272 0,0.036519 0.00646521,0.0707538 0.0193956,0.102712 0.0129344,0.0311879 0.0311958,0.0585821 0.0547883,0.0821746 0.0235806,0.0228179 0.0509669,0.0407 0.0821627,0.0536383 0.0319546,0.0129344 0.0665727,0.0194035 0.103858,0.0194035 0.0418658,0 0.0810444,-0.00875728 0.117563,-0.02626 0.0365229,-0.0174948 0.0688608,-0.0426008 0.0970098,-0.075326l0.108419 0.107289c-0.025106,0.0304371 -0.0551598,0.0566734 -0.0901573,0.0787483 -0.0349975,0.0220631 -0.0730379,0.0391786 -0.114125,0.0513502 -0.0403246,0.0114129 -0.081811,0.0171154 -0.12442,0.0171154zm0.766673 0c-0.0722752,0 -0.135046,-0.0144558 -0.188301,-0.0433596 -0.0525002,-0.0289156 -0.0932002,-0.069995 -0.12212,-0.123258 -0.0289077,-0.0540256 -0.0433636,-0.117164 -0.0433636,-0.189455l0 -0.454213 0.165483 0 0 0.454213c0,0.0410873 0.00760334,0.0772269 0.0228258,0.108431 0.0159733,0.0304252 0.0380365,0.0540098 0.0661933,0.0707459 0.0289077,0.0159812 0.0623838,0.0239798 0.100424,0.0239798 0.0380444,0 0.071141,-0.00799853 0.09929,-0.0239798 0.0281529,-0.016736 0.0498367,-0.0403206 0.0650513,-0.0707459 0.0159812,-0.0312037 0.0239719,-0.0673433 0.0239719,-0.108431l0 -0.454213 0.164337 0 0 0.454213c0,0.0715244 -0.0144558,0.134295 -0.0433675,0.188317 -0.0289156,0.053259 -0.069999,0.0947256 -0.123258,0.124396 -0.0524923,0.0289038 -0.114884,0.0433596 -0.187167,0.0433596z"/>
   <path id="_492433096" class="fil1" d="M5.51745 1.6637l0 -0.932022 0.193063 0 0 0.416749 0.407423 -0.416749 0.235672 0 -0.452695 0.443377 0.474 0.488645 -0.258304 0 -0.406095 -0.432723 0 0.432723 -0.193063 0zm0.916385 0l0 -0.798873 0.157493 0 0.39716 0.515846 0 -0.515846 0.155209 0 0 0.798873 -0.14608 0 -0.407431 -0.534099 0 0.534099 -0.156351 0zm1.24629 0.0125629c-0.0593487,0 -0.114509,-0.0102748 -0.165483,-0.0308165 -0.0509787,-0.0213123 -0.0958677,-0.0505915 -0.134667,-0.0878771 -0.0380444,-0.0380404 -0.0680942,-0.0817952 -0.0901652,-0.131249 -0.0213044,-0.0502121 -0.0319546,-0.104238 -0.0319546,-0.162053 0,-0.0578233 0.0106502,-0.111462 0.0319546,-0.160923 0.022071,-0.0502121 0.0521208,-0.093959 0.0901652,-0.131237 0.0387992,-0.0380404 0.0836881,-0.0673433 0.134667,-0.087885 0.0509748,-0.0212965 0.106135,-0.0319427 0.165483,-0.0319427 0.0593369,0 0.114505,0.0106463 0.165475,0.0319427 0.0517415,0.0205417 0.0966304,0.0498446 0.134671,0.087885 0.0387992,0.0372777 0.0688529,0.0810246 0.0901573,0.131237 0.0213044,0.0494612 0.0319546,0.1031 0.0319546,0.160923 0,0.0578154 -0.0106502,0.111841 -0.0319546,0.162053 -0.0213044,0.0494533 -0.0513581,0.0932081 -0.0901573,0.131249 -0.0380404,0.0372856 -0.0829294,0.0665648 -0.134671,0.0878771 -0.0509708,0.0205417 -0.106139,0.0308165 -0.165475,0.0308165zm0 -0.15179c0.036519,0 0.069995,-0.00646521 0.100424,-0.0194035 0.0304371,-0.0136931 0.0570685,-0.0319585 0.0798865,-0.0547765 0.0228258,-0.0235846 0.0407079,-0.051366 0.0536423,-0.0833127 0.0129304,-0.0319585 0.0193956,-0.0661933 0.0193956,-0.102712 0,-0.0372856 -0.00646521,-0.0715244 -0.0193956,-0.10272 -0.0129344,-0.0319467 -0.0308165,-0.0593408 -0.0536423,-0.0821588 -0.0228179,-0.0235846 -0.0494494,-0.041846 -0.0798865,-0.0547804 -0.0304292,-0.0136931 -0.0639052,-0.0205535 -0.100424,-0.0205535 -0.0357642,0 -0.0688608,0.0068604 -0.09929,0.0205535 -0.0304331,0.0129344 -0.0570685,0.0311958 -0.0798865,0.0547804 -0.0228298,0.0228179 -0.0407079,0.0502121 -0.0536462,0.0821588 -0.0129265,0.0311958 -0.0193956,0.0650552 -0.0193956,0.101578 0,0.0372777 0.00646916,0.0718958 0.0193956,0.103854 0.0129383,0.0319467 0.0308165,0.0597281 0.0536462,0.0833127 0.0228179,0.0228179 0.0494533,0.0410833 0.0798865,0.0547765 0.0304292,0.0129383 0.0635258,0.0194035 0.09929,0.0194035zm0.375773 0.139227l0.304715 -0.413125 -0.288737 -0.385747 0.197438 0 0.189447 0.262485 0.188301 -0.262485 0.190589 0 -0.284169 0.385747 0.308141 0.413125 -0.197438 0 -0.208847 -0.289879 -0.208851 0.289879 -0.190589 0z"/>
   <path id="_492432592" class="fil2" d="M1.1869 0.393248l0.219782 0.106791 0.223492 0.108624c0.0177556,0.00912875 0.0383921,0.0268686 0.0568077,0.050303 0.0172261,0.021913 0.0291764,0.0445452 0.0344719,0.063269l0.054978 0.244848 0.0544327 0.242457c0.00382143,0.0194944 0.00284137,0.0463907 -0.00379377,0.0750455 -0.00663119,0.0286034 -0.017562,0.0531246 -0.0295479,0.0689478l-0.155703 0.193842 -0.155378 0.193419c-0.0128316,0.0152383 -0.0346023,0.0313895 -0.061376,0.0441421 -0.0270148,0.0128672 -0.0535079,0.0196327 -0.0735003,0.019862l-0.247365 -0.000861501 -0.251037 -0.000889164c-0.0196841,-0.00102748 -0.0450866,-0.00812499 -0.0708921,-0.020921 -0.0263311,-0.0130371 -0.0477106,-0.0293385 -0.0603486,-0.0446716l-0.153497 -0.193889 -0.152035 -0.192028 -1.58074e-005 -4.34703e-005c-0.0126894,-0.0157165 -0.024371,-0.041356 -0.0312788,-0.0714967 -0.0062281,-0.0272005 -0.00736623,-0.0527966 -0.00415734,-0.0719788l0.0569935 -0.245682 0.0558553 -0.240778c0.00473826,-0.0195102 0.0175264,-0.0440077 0.0365269,-0.0675844 0.0178228,-0.0220987 0.0375978,-0.0390442 0.0548713,-0.0482954l0.2258 -0.107747 0.22054 -0.105241 0.00101562 7.90368e-006c0.0181864,-0.0087968 0.0458176,-0.014361 0.0767289,-0.0142543 0.0309232,0.000118555 0.0585031,0.00586453 0.0766222,0.0147996l0.00100772 3.95184e-006zm-0.0807559 0.216774l0.19807 0.0953935 0.198074 0.0953816 0.0489198 0.214336 0.0489198 0.214332 -0.13707 0.171877 -0.137066 0.17187 -0.219849 0 -0.219837 0 -0.137074 -0.17187 -0.137066 -0.171877 0.0489238 -0.214332 0.0489198 -0.214336 0.198066 -0.0953816 0.198066 -0.0953935z"/>
   <path id="_492433504" class="fil3" d="M1.1869 0.393248l0.219782 0.106791 0.223492 0.108624c0.0177556,0.00912875 0.0383921,0.0268686 0.0568077,0.050303 0.0172261,0.021913 0.0291764,0.0445452 0.0344719,0.063269l0.054978 0.244848 0.0544327 0.242457c0.00382143,0.0194944 0.00284137,0.0463907 -0.00379377,0.0750455 -0.00663119,0.0286034 -0.017562,0.0531246 -0.0295479,0.0689478l-0.155703 0.193842 -0.155378 0.193419c-0.0128316,0.0152383 -0.0346023,0.0313895 -0.061376,0.0441421 -0.0270148,0.0128672 -0.0535079,0.0196327 -0.0735003,0.019862l-0.247365 -0.000861501 -0.251037 -0.000889164c-0.0196841,-0.00102748 -0.0450866,-0.00812499 -0.0708921,-0.020921 -0.0263311,-0.0130371 -0.0477106,-0.0293385 -0.0603486,-0.0446716l-0.153497 -0.193889 -0.152035 -0.192028 -1.58074e-005 -4.34703e-005c-0.0126894,-0.0157165 -0.024371,-0.041356 -0.0312788,-0.0714967 -0.0062281,-0.0272005 -0.00736623,-0.0527966 -0.00415734,-0.0719788l0.0569935 -0.245682 0.0558553 -0.240778c0.00473826,-0.0195102 0.0175264,-0.0440077 0.0365269,-0.0675844 0.0178228,-0.0220987 0.0375978,-0.0390442 0.0548713,-0.0482954l0.2258 -0.107747 0.22054 -0.105241 0.00101562 7.90368e-006c0.0181864,-0.0087968 0.0458176,-0.014361 0.0767289,-0.0142543 0.0309232,0.000118555 0.0585031,0.00586453 0.0766222,0.0147996l0.00100772 3.95184e-006zm-0.0807559 0.216774l0.19807 0.0953935 0.198074 0.0953816 0.0489198 0.214336 0.0489198 0.214332 -0.13707 0.171877 -0.137066 0.17187 -0.219849 0 -0.219837 0 -0.137074 -0.17187 -0.137066 -0.171877 0.0489238 -0.214332 0.0489198 -0.214336 0.198066 -0.0953816 0.198066 -0.0953935z"/>
   <polygon id="_492433360" class="fil4" points="0.837541,1.26563 0.837533,1.26563 0.837533,1.26563 0.837533,0.950769 0.837533,0.950754 0.837541,0.950754 1.10353,0.819078 1.10353,0.81907 1.10354,0.81907 1.10355,0.81907 1.10355,0.819078 1.36954,0.950754 1.36955,0.950754 1.36955,0.950769 1.36955,1.26563 1.36955,1.26563 1.36954,1.26563 1.10355,1.3973 1.10355,1.3973 1.10354,1.3973 1.10353,1.3973 1.10353,1.3973 "/>
   <polygon id="_492426152" class="fil5" points="1.32443,0.95518 1.10355,1.06297 1.10355,1.06298 1.10354,1.06298 1.10353,1.06298 1.10353,1.06297 0.882652,0.95518 1.10353,0.847393 1.10353,0.847374 1.10354,0.847374 1.10355,0.847374 1.10355,0.847393 "/>
   <polygon id="_492426296" class="fil5" points="0.862825,0.975757 1.08868,1.0867 1.08868,1.3576 0.862825,1.24667 "/>
   <polygon id="_492426032" class="fil5" points="1.34425,0.975757 1.1184,1.0867 1.1184,1.3576 1.34425,1.24667 "/>
  </g>
 </g>
</svg>
