<svg width="62" height="40" viewBox="0 0 62 40" fill="none" xmlns="http://www.w3.org/2000/svg">
<g clip-path="url(#clip0_2602_32139)">
<path d="M46.0671 22.6288C45.7417 21.1223 45.1191 19.8767 44.2209 18.7427C42.3805 16.4173 39.3993 14.9475 35.3642 14.9475C29.0912 14.9475 25.2344 19.0257 24.0922 23.3244C23.0664 20.2933 20.3212 18.2484 17.4214 17.3844C19.6041 15.8611 20.7467 13.6821 20.7467 11.1946C20.7467 8.88568 19.7427 6.78397 18.0622 5.41615C15.5966 3.40955 12.2359 3 8.09476 3C4.91597 3 3.71676 3 0 3V36.4634C2.29353 36.4634 4.65101 36.4537 6.94914 36.4634C8.99382 36.4724 10.9907 36.4608 12.8527 36.3894C18.7466 36.1633 22.7808 33.323 24.072 29.058C24.5154 30.9542 25.3683 32.5002 26.4819 33.6734C28.7515 36.0651 32.0421 37 35.3559 37C39.4361 37 42.386 35.8671 44.4012 34.1311L41.5168 30.8855C40.0653 31.9332 38.1998 32.5508 36.1048 32.5508C31.9959 32.5385 30.1839 30.0495 30.0216 27.6562H46.0669V36.4634H52.0769V3.16712H46.0669V22.6288H46.0671ZM6.17566 7.52094L7.84567 7.52006C9.45841 7.52006 10.7321 7.68609 11.6494 8.02694C13.4604 8.69962 14.3213 10.0782 14.3213 11.8003C14.3233 13.2565 13.7414 15.5447 10.5419 16.1702C10.0067 16.2748 9.23578 16.3327 8.14651 16.3327C6.60829 16.3327 6.17566 16.3327 6.17566 16.3327V7.52094V7.52094ZM12.97 31.5657C12.2177 31.6952 11.2977 31.724 10.5504 31.724C8.2898 31.724 6.1752 31.724 6.1752 31.724L6.17543 20.807C6.17543 20.807 8.47196 20.807 10.0902 20.807C11.3258 20.807 12.7239 20.94 13.525 21.1408C16.2714 21.8307 17.8492 23.7159 17.8492 26.2124C17.8492 28.7975 16.3963 30.9747 12.97 31.5657ZM30.1322 23.4957C30.6619 21.0582 32.5439 19.3038 35.3177 19.3038C38.0945 19.3038 39.9416 20.8757 40.4202 23.4957H30.1322Z" fill="#0067A4"/>
<path d="M61.9995 3.16602H56.0918V36.4621H61.9995V3.16602Z" fill="#0067A4"/>
</g>
<defs>
<clipPath id="clip0_2602_32139">
<rect width="62" height="40" fill="white"/>
</clipPath>
</defs>
</svg>
