<svg width="120" height="29" viewBox="0 0 120 29" fill="none" xmlns="http://www.w3.org/2000/svg">
<path d="M40.2178 20.362C39.2066 19.8454 38.358 19.0601 37.7653 18.0928C37.1727 17.1254 36.8591 16.0135 36.8591 14.8796C36.8591 13.7457 37.1727 12.6339 37.7653 11.6665C38.358 10.6992 39.2066 9.9139 40.2178 9.39727C41.3067 8.84947 42.5124 8.57324 43.7317 8.59224C44.9041 8.56778 46.063 8.84502 47.097 9.39727C48.0421 9.90846 48.789 10.7201 49.2193 11.7034L46.4603 13.1773C45.8236 12.0575 44.907 11.4976 43.7104 11.4976C43.2856 11.4842 42.8624 11.5578 42.4672 11.714C42.0719 11.8701 41.7129 12.1055 41.4123 12.4055C41.1007 12.7352 40.8594 13.1246 40.7031 13.5502C40.5467 13.9757 40.4786 14.4285 40.5028 14.8811C40.4779 15.3334 40.5458 15.7859 40.7022 16.2111C40.8585 16.6362 41.1002 17.025 41.4123 17.3537C41.7129 17.6538 42.0719 17.8892 42.4672 18.0453C42.8624 18.2015 43.2856 18.2751 43.7104 18.2617C44.282 18.2748 44.8452 18.1234 45.3328 17.8255C45.8205 17.5277 46.2119 17.096 46.4603 16.582L49.2132 18.0952C48.7698 19.0549 48.0275 19.8458 47.097 20.3499C46.0621 20.9124 44.8976 21.1942 43.7195 21.167C42.5044 21.1841 41.3031 20.9079 40.2178 20.362Z" fill="#0D0220"/>
<path d="M63.165 8.77374L57.6471 21.7329C57.0852 23.1452 56.392 24.1369 55.5673 24.7079C54.6842 25.2995 53.638 25.601 52.5749 25.5704C51.9345 25.5659 51.2986 25.4638 50.6891 25.2677C50.1322 25.1026 49.6159 24.8232 49.1732 24.4476L50.4708 21.9296C50.7453 22.1737 51.0617 22.3664 51.4046 22.4986C51.7424 22.6287 52.1007 22.6974 52.4627 22.7013C52.8851 22.7199 53.3016 22.5963 53.6451 22.3503C54.0073 22.0315 54.2879 21.631 54.4637 21.1821L54.5092 21.0671L49.2187 8.77374H52.8811L56.304 17.051L59.7603 8.76466L63.165 8.77374Z" fill="#0D0220"/>
<path d="M66.641 20.3623C65.6298 19.8456 64.7812 19.0604 64.1886 18.093C63.5959 17.1257 63.2823 16.0138 63.2823 14.8799C63.2823 13.746 63.5959 12.6341 64.1886 11.6668C64.7812 10.6994 65.6298 9.91415 66.641 9.39752C67.7299 8.84972 68.9356 8.57349 70.1549 8.59249C71.3314 8.56594 72.4948 8.84324 73.5323 9.39752C74.4705 9.91112 75.2099 10.7228 75.6334 11.7037L72.8835 13.1775C72.2468 12.0577 71.3292 11.4979 70.1306 11.4979C69.7062 11.4848 69.2837 11.5587 68.889 11.7148C68.4943 11.871 68.1358 12.1061 67.8355 12.4058C67.5239 12.7355 67.2826 13.1249 67.1263 13.5504C66.9699 13.976 66.9018 14.4288 66.926 14.8814C66.9011 15.3336 66.969 15.7862 67.1254 16.2113C67.2817 16.6365 67.5234 17.0253 67.8355 17.354C68.1368 17.6548 68.4968 17.8906 68.8932 18.0468C69.2895 18.203 69.7138 18.2762 70.1397 18.2619C70.7117 18.2756 71.2756 18.1245 71.7638 17.8266C72.2521 17.5287 72.644 17.0967 72.8926 16.5822L75.6424 18.0955C75.207 19.0594 74.4697 19.8559 73.5414 20.3653C72.5066 20.9278 71.342 21.2096 70.164 21.1824C68.9404 21.1982 67.7313 20.9167 66.641 20.3623Z" fill="#0D0220"/>
<path d="M79.8401 20.3621C78.8487 19.8526 78.0184 19.0784 77.4419 18.1256C76.8584 17.1449 76.5592 16.0217 76.5779 14.8813C76.5591 13.7398 76.8583 12.6156 77.4419 11.6339C78.0184 10.6811 78.8487 9.90683 79.8401 9.39737C80.9128 8.84973 82.1038 8.5733 83.3085 8.59234C84.5095 8.5718 85.6969 8.84837 86.7648 9.39737C87.7516 9.90891 88.5773 10.683 89.1508 11.6339C89.7345 12.6156 90.0336 13.7398 90.0149 14.8813C90.0335 16.0217 89.7344 17.1449 89.1508 18.1256C88.5773 19.0765 87.7516 19.8506 86.7648 20.3621C85.6969 20.9111 84.5095 21.1877 83.3085 21.1671C82.1038 21.1862 80.9128 20.9097 79.8401 20.3621ZM85.549 17.3357C86.1542 16.6628 86.4681 15.7783 86.4222 14.8752C86.4679 13.9712 86.1541 13.0858 85.549 12.4117C85.2609 12.1111 84.9123 11.8748 84.5261 11.7183C84.14 11.5618 83.725 11.4887 83.3085 11.5038C82.8903 11.4893 82.4737 11.5626 82.0856 11.719C81.6976 11.8754 81.3468 12.1114 81.0559 12.4117C80.7525 12.7435 80.5181 13.1321 80.3661 13.555C80.2142 13.9778 80.1477 14.4265 80.1706 14.8752C80.1449 15.3262 80.2098 15.7777 80.3613 16.2033C80.5128 16.629 80.7479 17.0201 81.0528 17.3538C81.3437 17.6541 81.6945 17.8901 82.0826 18.0465C82.4706 18.2029 82.8872 18.2763 83.3055 18.2618C83.7204 18.2755 84.1337 18.2018 84.5182 18.0453C84.9027 17.8889 85.2498 17.6533 85.5369 17.3538L85.549 17.3357Z" fill="#0D0220"/>
<path d="M104.783 4.14319V20.9852H101.396V19.5779C100.517 20.6372 99.2437 21.1668 97.5762 21.1668C96.4851 21.1821 95.4085 20.9163 94.4504 20.3951C93.5283 19.8844 92.7718 19.1209 92.2705 18.1949C91.721 17.1726 91.4463 16.0256 91.4731 14.8658C91.4515 13.7162 91.7261 12.5803 92.2705 11.567C92.7749 10.6373 93.537 9.8724 94.4655 9.36377C95.4237 8.84252 96.5002 8.57672 97.5913 8.59203C99.1517 8.59203 100.371 9.08433 101.251 10.0689V4.14319H104.783ZM100.417 17.3535C100.721 17.0225 100.956 16.6345 101.108 16.2122C101.261 15.7898 101.328 15.3414 101.305 14.893C101.328 14.4442 101.261 13.9954 101.108 13.5726C100.956 13.1497 100.721 12.7612 100.417 12.4295C99.8214 11.8402 99.0166 11.5095 98.178 11.5095C97.3393 11.5095 96.5346 11.8402 95.939 12.4295C95.6352 12.7612 95.4003 13.1497 95.2479 13.5726C95.0954 13.9954 95.0284 14.4442 95.0507 14.893C95.0283 15.3414 95.0953 15.7898 95.2478 16.2122C95.4002 16.6345 95.6352 17.0225 95.939 17.3535C96.5346 17.9429 97.3393 18.2736 98.178 18.2736C99.0166 18.2736 99.8214 17.9429 100.417 17.3535Z" fill="#0D0220"/>
<path d="M119.928 15.8796H110.675C110.822 16.6068 111.246 17.2487 111.857 17.6713C112.542 18.1281 113.353 18.3579 114.176 18.328C114.754 18.338 115.328 18.2426 115.871 18.0465C116.385 17.839 116.852 17.5303 117.245 17.1386L119.133 19.1814C117.981 20.507 116.304 21.1688 114.101 21.1668C112.833 21.1915 111.578 20.9156 110.438 20.3617C109.423 19.8652 108.571 19.0892 107.982 18.1252C107.399 17.1446 107.1 16.0214 107.118 14.8809C107.102 13.7448 107.398 12.626 107.973 11.6456C108.53 10.6946 109.34 9.9163 110.314 9.39701C111.34 8.85229 112.487 8.57537 113.649 8.59198C114.78 8.57609 115.896 8.84131 116.899 9.36372C117.857 9.86777 118.65 10.6356 119.185 11.576C119.75 12.6029 120.03 13.7614 119.997 14.9323C119.997 14.9717 119.973 15.2895 119.928 15.8796ZM111.63 11.9453C111.074 12.418 110.716 13.0826 110.629 13.8065H116.653C116.561 13.0876 116.204 12.4286 115.653 11.9574C115.093 11.4898 114.381 11.2433 113.652 11.2643C112.917 11.2425 112.199 11.4865 111.63 11.9513V11.9453Z" fill="#0D0220"/>
<path fill-rule="evenodd" clip-rule="evenodd" d="M24.7044 6.54008L13.8272 0.263281C13.5279 0.0908024 13.1884 0 12.8428 0C12.4973 0 12.1578 0.0908024 11.8585 0.263281L9.63264 1.5344L22.4709 8.95776V20.0572L19.262 21.9079L9.63264 16.3582V14.5787C9.98734 14.2491 10.2336 13.82 10.339 13.3479C10.4445 12.8758 10.404 12.3829 10.2231 11.9342C10.0421 11.4855 9.72918 11.1021 9.3255 10.8345C8.92182 10.567 8.44638 10.4279 7.96188 10.4355C7.47739 10.4432 7.00661 10.5973 6.61164 10.8775C6.21667 11.1577 5.91607 11.5508 5.74948 12.0051C5.5829 12.4593 5.55816 12.9532 5.67852 13.4217C5.79889 13.8903 6.0587 14.3114 6.4237 14.6295V18.209L19.2645 25.6095L24.7044 22.4749C25.0038 22.3026 25.2525 22.0548 25.4255 21.7563C25.5985 21.4577 25.6897 21.119 25.69 20.7741V8.24084C25.6897 7.89595 25.5985 7.55722 25.4255 7.25868C25.2525 6.96014 25.0038 6.7123 24.7044 6.54008Z" fill="#0D0220"/>
<path fill-rule="evenodd" clip-rule="evenodd" d="M19.2638 14.3399V10.8062L6.42042 3.40573L0.983055 6.53778C0.683982 6.71074 0.435724 6.95915 0.263182 7.25811C0.0906391 7.55707 -0.000122347 7.89606 3.02695e-07 8.24108V20.7743C-0.000191281 21.119 0.0905645 21.4577 0.263136 21.7563C0.435708 22.0548 0.684008 22.3028 0.983055 22.4751L11.8578 28.7367C12.1571 28.9091 12.4965 28.9999 12.8421 28.9999C13.1877 28.9999 13.5272 28.9091 13.8264 28.7367L16.0447 27.4655L3.21148 20.0574V8.95799L6.42042 7.10724L16.0447 12.657V14.373C15.689 14.7004 15.441 15.1277 15.3334 15.5986C15.2258 16.0695 15.2638 16.5619 15.4421 17.0109C15.6205 17.4599 15.931 17.8443 16.3327 18.1136C16.7344 18.3829 17.2083 18.5244 17.6922 18.5194C18.176 18.5144 18.647 18.3632 19.043 18.0857C19.439 17.8082 19.7415 17.4174 19.9105 16.9649C20.0796 16.5123 20.1073 16.0192 19.9901 15.5507C19.8728 15.0821 19.616 14.6599 19.2536 14.3399H19.2638Z" fill="#0D0220"/>
</svg>
