<svg height="40" viewBox="0 0 140 40" fill="none" xmlns="http://www.w3.org/2000/svg">
  <path
    d="m34.897 21.073.985 12.563-17.448 3.126L16.927 24.2l2.492-.347c.406.174.696.232 1.16.347.753.174 1.623.406 2.898-.29.29-.173.928-.694 1.16-1.041l10.26-1.795ZM7.942 36.01c-.29-.464-.812-.985-1.623-1.621-1.16-.927-.754-2.548-.058-3.532.87-1.679 5.449-3.879 5.217-6.6-.116-.984-.232-2.258-1.16-3.184a2.4 2.4 0 0 0 0 .695s-.405-.463-.58-1.158c-.173-.232-.347-.347-.521-.695-.116.405-.116.81-.116.81s-.29-.752-.348-1.33c-.174.289-.232.81-.232.81s-.405-1.158-.29-1.795c-.173-.521-.753-1.621-.58-4.053.986.695 3.19.522 4.059-.752.29-.405.463-1.563-.116-3.821-.406-1.447-1.392-3.59-1.797-4.4l-.058.058c.232.637.637 2.026.811 2.72.464 2.027.638 2.722.406 3.648-.174.81-.638 1.332-1.855 1.91-1.16.58-2.782-.868-2.84-.926-1.16-.926-2.03-2.431-2.145-3.126-.116-.81.463-1.273.753-1.91-.405.115-.87.347-.87.347s.523-.579 1.218-1.042c.29-.174.464-.29.754-.521h-.754s.696-.405 1.45-.637H5.622L8.405 4.69c.87-.347 1.681-.231 2.145.406.638.868 1.275 1.331 2.609 1.679.811-.348 1.101-.58 2.145-.869.927-1.042 1.68-1.158 1.68-1.158s-.521.463-.579.984c.522-.405 1.101-.752 1.101-.752s-.232.29-.405.695l.058.057a16.291 16.291 0 0 1 1.333-.636s-.232.231-.464.579c.464 0 1.391 0 1.74.057 2.144.058 2.608-2.257 3.42-2.605 1.043-.347 1.507-.579 3.245 1.158 1.508 1.505 2.667 4.11 2.087 4.69-.463.463-1.449-.174-2.55-1.506-.58-.694-.986-1.563-1.218-2.605-.115-.868-.753-1.39-.753-1.39s.406.869.406 1.622c0 .405.058 1.91.695 2.778-.058.116-.116.637-.174.695-.753-.926-2.434-1.563-2.666-1.794.927.752 3.014 2.431 3.826 4.052.753 1.563.29 2.953.695 3.3.116.116 1.623 1.968 1.913 2.952.522 1.68.058 3.416-.637 4.458l-1.855.29a2.457 2.457 0 0 1-.696-.232c.116-.231.406-.81.406-.926l-.116-.174c-.58.81-1.565 1.621-2.377 2.084-1.043.58-2.26.521-3.072.232-2.26-.695-4.406-2.2-4.87-2.605 0 0 0 .29.059.405.58.637 1.854 1.795 3.13 2.605l-2.667.29 1.275 9.841c-.58.058-.637.116-1.275.232-.522-1.91-1.565-3.126-2.724-3.879-.986-.637-2.377-.81-3.71-.52l-.058.115c.927-.116 2.029.058 3.13.753 1.101.694 1.971 2.489 2.319 3.531.406 1.39.695 2.837-.406 4.4-.812 1.1-3.13 1.737-4.985.405.521.81 1.16 1.447 2.087 1.563 1.333.174 2.608-.058 3.536-.926.753-.753 1.159-2.374 1.043-4.11l1.217-.174.406 3.068 19.767-2.373-1.739-15.747-.985.173L32.926 0 0 3.821l4.058 32.767 3.884-.578Z"
    fill="#632CA6" />
  <path
    d="M23.598 18.786c.87.636 1.623 1.032 2.378.984.463-.058.927-.811 1.217-1.505.232-.463.232-.984-.115-1.147-.172-.057-.87-.057-1.378 0-.985.115-1.97.464-2.203.637-.348.231-.172.81.115 1.032l-.014-.001Zm.244-6.784v.057l.057.115c.232.463.464.927.928 1.147.115 0 .232-.057.348-.057.275-.009.55.03.812.115v-.347c-.057-.58.115-1.62-1.034-2.2-.463-.232-1.033-.115-1.263.115h.115c.29.115.115.232.058.347-.058.232-.115.29 0 .695M18.621 12.128c.29-.232-1.332-.58-2.61.232-.927.636-.927 1.968-.057 2.72.115.057.173.115.232.172.232-.115.58-.232.87-.348.58-.171 1.033-.288 1.449-.347.172-.232.405-.58.348-1.216-.058-.868-.753-.695-.232-1.215v.002Zm12.754 16.269-3.304-2.2-2.783 4.631-3.246-.984-2.84 4.342.115 1.376 15.535-2.836-.928-9.668-2.55 5.339ZM118.863 24.198c-2.941 0-4.524-1.695-4.524-4.97 0-3.275 1.47-4.97 4.524-4.97 2.94 0 4.41 1.695 4.41 4.97 0 3.275-1.47 4.97-4.41 4.97Zm0-12.198c-4.75 0-7.238 2.372-7.238 7.228.226 4.857 2.714 7.228 7.238 7.228 4.749 0 7.124-2.371 7.124-7.228.113-4.856-2.262-7.228-7.124-7.228ZM135.817 14.259c1.47 0 2.827.226 4.071.79v-2.371c-1.244-.452-2.601-.678-4.185-.678-5.202 0-7.803 2.372-7.803 7.115 0 4.97 2.601 7.454 7.69 7.454 1.81 0 3.167-.226 4.411-.79v-7.567h-4.411l-.904 2.372h2.601v3.388c-.566.113-1.131.226-1.697.226-3.279 0-4.976-1.695-4.976-5.196 0-3.162 1.81-4.743 5.203-4.743ZM102.709 24.032h-3.167V14.32h3.167c2.94 0 4.523 1.469 4.523 4.518-.113 3.501-1.583 5.195-4.523 5.195Zm.339-11.971h-6.22v14.343h6.22c4.523 0 6.785-2.485 6.785-7.567 0-4.518-2.262-6.776-6.785-6.776ZM49.22 24.05h-3.166v-9.712h3.166c3.054 0 4.524 1.468 4.524 4.518 0 3.5-1.583 5.195-4.524 5.195Zm.34-11.971h-6.22v14.344h6.22c4.523 0 6.785-2.485 6.785-7.567 0-4.518-2.262-6.777-6.785-6.777ZM90.387 22.451l1.81 3.953h2.827l-6.22-14.343h-2.94l-6.107 14.343h2.714l4.863-11.633 2.262 5.421h-2.94l-.905 2.26h4.636Zm-23.409 0 1.81 3.953h2.94l-6.333-14.343h-2.827L56.46 26.404h2.714l4.75-11.633 2.375 5.421h-3.054l-.904 2.26h4.636Zm3.166-8.132h4.185v12.085h2.714V14.32h4.071v-2.258h-10.97v2.258Z"
    fill="#632CA6" />
</svg>
