<svg width="109" height="40" viewBox="0 0 109 40" fill="none" xmlns="http://www.w3.org/2000/svg">
<path d="M13.8066 3H14.7314C17.9421 3.06991 21.1005 4.36318 23.3689 6.65262C22.5313 7.50897 21.6763 8.33038 20.8562 9.18673C19.5824 8.03327 18.0468 7.14196 16.3716 6.82738C13.8938 6.30309 11.224 6.77495 9.14751 8.19056C6.87907 9.67608 5.3435 12.1927 5.01196 14.8841C4.64552 17.5406 5.39585 20.3368 7.12336 22.3991C8.78107 24.4089 11.3113 25.6672 13.9287 25.7546C16.3716 25.8944 18.9193 25.1429 20.6991 23.4302C22.0951 22.2243 22.7407 20.3893 22.9501 18.6066C20.0535 18.6066 17.1569 18.6241 14.2602 18.6066V15.0065H26.4575C27.0857 18.8688 26.1783 23.2205 23.2468 25.9818C21.2924 27.9392 18.5877 29.0926 15.8307 29.3198C13.1609 29.582 10.4039 29.0752 8.03074 27.7819C5.18646 26.2614 2.91801 23.6923 1.80124 20.6689C0.75426 17.8901 0.736811 14.7443 1.71399 11.948C2.60392 9.39645 4.31398 7.14196 6.51263 5.56907C8.62403 4.01365 11.1891 3.15729 13.8066 3Z" fill="#3780FF"/>
<path d="M83.7754 3.90918H87.5096V28.8658C86.2707 28.8658 85.0143 28.8833 83.7754 28.8483C83.7928 20.5469 83.7754 12.2281 83.7754 3.90918V3.90918Z" fill="#38B137"/>
<path d="M34.7631 12.5593C37.0664 12.1224 39.5617 12.6118 41.4637 13.9924C43.1912 15.2158 44.3952 17.1382 44.7617 19.2354C45.2328 21.6647 44.6395 24.3211 43.0691 26.2435C41.3765 28.3932 38.602 29.5466 35.8973 29.3719C33.4194 29.232 31.0114 27.9912 29.5456 25.9639C27.8879 23.7269 27.4866 20.651 28.394 18.0295C29.3013 15.2158 31.8664 13.0662 34.7631 12.5593V12.5593ZM35.2866 15.8799C34.3443 16.1246 33.4718 16.6663 32.8436 17.4353C31.151 19.4626 31.2557 22.7657 33.1228 24.6532C34.1872 25.7367 35.7926 26.2435 37.2758 25.9464C38.6543 25.7018 39.8583 24.7755 40.5214 23.5521C41.6731 21.4724 41.3416 18.6062 39.5792 16.9809C38.4449 15.9323 36.7872 15.4954 35.2866 15.8799Z" fill="#FA3913"/>
<path d="M53.2615 12.5596C55.8964 12.0528 58.7756 12.7868 60.7474 14.6394C63.9581 17.523 64.3071 22.9233 61.5675 26.2438C59.9098 28.341 57.2225 29.4945 54.5702 29.3722C52.04 29.3023 49.5447 28.0439 48.0441 25.9642C46.3514 23.6748 45.985 20.529 46.9447 17.8551C47.9045 15.1287 50.4172 13.049 53.2615 12.5596V12.5596ZM53.785 15.8802C52.8427 16.1249 51.9702 16.6666 51.342 17.4181C49.6669 19.4105 49.7367 22.6611 51.534 24.5661C52.5984 25.7021 54.2561 26.2613 55.7917 25.9467C57.1527 25.6846 58.3742 24.7758 59.0373 23.5524C60.1715 21.4552 59.84 18.5891 58.0601 16.9638C56.9259 15.9152 55.2682 15.4957 53.785 15.8802Z" fill="#FCBD06"/>
<path d="M68.9474 13.5728C70.9541 12.3145 73.6239 11.965 75.7876 13.0486C76.4682 13.3457 77.0265 13.8525 77.5675 14.3593C77.5849 13.8874 77.5675 13.3981 77.5849 12.9087C78.7541 12.9262 79.9232 12.9087 81.1098 12.9262V28.3406C81.0923 30.665 80.499 33.1292 78.8239 34.8244C76.9916 36.6944 74.1823 37.2712 71.6521 36.8867C68.9474 36.4847 66.5917 34.5099 65.5447 32.0107C66.5917 31.5039 67.691 31.1019 68.7729 30.6301C69.3836 32.0631 70.6225 33.2865 72.1756 33.5661C73.7286 33.8458 75.5259 33.4613 76.538 32.168C77.6198 30.8398 77.6198 29.0222 77.5675 27.3969C76.7648 28.1833 75.84 28.8824 74.7232 29.1445C72.2977 29.8261 69.6279 28.9872 67.7608 27.3444C65.8763 25.7016 64.7595 23.1675 64.8642 20.6509C64.9165 17.8022 66.5219 15.0584 68.9474 13.5728V13.5728ZM72.5595 15.8099C71.495 15.9846 70.5004 16.5788 69.8199 17.4002C68.1796 19.3576 68.1796 22.4859 69.8373 24.4084C70.7796 25.5444 72.2977 26.1735 73.7635 26.0162C75.142 25.8764 76.4158 25.0026 77.0963 23.7967C78.248 21.7519 78.0561 18.9731 76.5031 17.1905C75.5433 16.0895 74.0078 15.5477 72.5595 15.8099V15.8099Z" fill="#3780FF"/>
<path d="M91.9992 14.4653C94.0932 12.5079 97.3214 11.8438 100.009 12.8749C102.556 13.8361 104.179 16.2654 104.999 18.7646C101.213 20.3375 97.4435 21.8929 93.6569 23.4658C94.1804 24.4619 94.9831 25.3707 96.065 25.7377C97.5831 26.2795 99.3979 26.0873 100.672 25.0736C101.178 24.6891 101.579 24.1823 101.963 23.693C102.923 24.3396 103.882 24.9688 104.842 25.6154C103.481 27.6602 101.195 29.0933 98.7348 29.3204C96.0126 29.6525 93.116 28.6039 91.3536 26.4718C88.457 23.1162 88.7362 17.4888 91.9992 14.4653V14.4653ZM93.8663 17.6985C93.2731 18.5548 93.0288 19.6034 93.0462 20.6346C95.5764 19.586 98.1066 18.5374 100.637 17.4713C100.218 16.4926 99.2059 15.8984 98.1764 15.7411C96.5187 15.444 94.7912 16.3353 93.8663 17.6985V17.6985Z" fill="#FA3913"/>
</svg>
