<svg xmlns="http://www.w3.org/2000/svg" width="161" height="49" viewBox="0 0 161 49" fill="none"><g clip-path="url(#clip0_404_1830)"><path fill-rule="evenodd" clip-rule="evenodd" d="M86.9521 11.5693V37.4304H82.5018V27.2221H72.5742V37.4304H68.1239V11.5693H72.5742V22.7985H82.5018V11.5693H86.9521ZM95.8322 32.8401C94.7846 32.1051 93.7987 30.9652 93.7987 29.9443H108.348C108.473 29.34 108.53 28.7237 108.519 28.1068C108.571 25.6358 107.639 23.2444 105.924 21.4544C104.217 19.6282 102.024 18.7152 99.3445 18.7152C96.5145 18.7152 94.1981 19.6226 92.3952 21.4374C91.5109 22.3001 90.8145 23.3343 90.3492 24.4757C89.884 25.6172 89.6599 26.8416 89.6907 28.0728C89.6907 30.7792 90.6036 33.0204 92.4294 34.7967C94.2552 36.5729 96.6515 37.4509 99.6183 37.4304C103.151 37.4304 105.82 36.1374 107.625 33.5513L104.411 31.6457C103.384 33.177 101.768 33.9086 99.6697 33.9086C98.3107 33.9511 96.9712 33.5782 95.8322 32.8401ZM104.411 26.8818H93.7987C93.7987 25.5207 94.6751 24.1596 95.6507 23.377C96.6934 22.572 97.9874 22.1565 99.3068 22.203C100.521 22.1775 101.708 22.5666 102.669 23.3055C103.644 24.0405 104.411 25.861 104.411 26.8818ZM111.258 11.5693V37.4304H115.708V11.5693H111.258ZM122.212 15.3532C122.013 15.5583 121.773 15.7208 121.508 15.8308C121.243 15.9408 120.959 15.996 120.672 15.9929C120.378 15.9966 120.087 15.9419 119.816 15.832C119.544 15.7222 119.297 15.5594 119.09 15.3533C118.883 15.1472 118.719 14.9019 118.608 14.6319C118.498 14.3619 118.443 14.0726 118.447 13.7811C118.447 13.1945 118.681 12.632 119.098 12.2172C119.516 11.8024 120.082 11.5693 120.672 11.5693C121.262 11.5693 121.828 11.8024 122.245 12.2172C122.662 12.632 122.897 13.1945 122.897 13.7811C122.897 14.0758 122.836 14.3673 122.719 14.6377C122.601 14.9082 122.428 15.1517 122.212 15.3532ZM118.447 18.7152V37.4304H122.897V18.7152H118.447ZM128.374 34.7252C129.692 36.0425 131.374 36.9401 133.207 37.3038C135.04 37.6674 136.94 37.4806 138.665 36.7672C140.391 36.0537 141.864 34.8459 142.896 33.2976C143.929 31.7492 144.475 29.9304 144.464 28.0728C144.464 26.8439 144.22 25.6271 143.747 24.4918C143.274 23.3565 142.581 22.3249 141.706 21.456C140.832 20.587 139.794 19.8977 138.652 19.4275C137.51 18.9572 136.286 18.7152 135.05 18.7152C133.813 18.7152 132.589 18.9572 131.447 19.4275C130.305 19.8977 129.267 20.587 128.393 21.456C127.519 22.3249 126.825 23.3565 126.352 24.4918C125.879 25.6271 125.635 26.8439 125.635 28.0728C125.607 29.3093 125.836 30.5383 126.307 31.6829C126.778 32.8276 127.482 33.8633 128.374 34.7252ZM135.05 33.8575C134.283 33.8759 133.521 33.7395 132.809 33.4564C132.097 33.1733 131.45 32.7495 130.907 32.2106C130.356 31.6729 129.923 31.0278 129.634 30.3158C129.345 29.6038 129.208 28.8401 129.23 28.0728C129.208 27.3055 129.345 26.5419 129.634 25.8298C129.923 25.1178 130.356 24.4727 130.907 23.935C132.024 22.8782 133.507 22.2887 135.05 22.2887C136.592 22.2887 138.075 22.8782 139.192 23.935C139.743 24.4727 140.176 25.1178 140.465 25.8298C140.754 26.5419 140.891 27.3055 140.869 28.0728C140.891 28.8401 140.754 29.6038 140.465 30.3158C140.176 31.0278 139.743 31.6729 139.192 32.2106C138.649 32.7495 138.003 33.1733 137.291 33.4564C136.579 33.7395 135.816 33.8759 135.05 33.8575ZM151.824 25.5105C151.173 25.1702 150.848 24.6802 150.848 24.0882C150.835 23.8102 150.899 23.534 151.032 23.2893C151.165 23.0446 151.363 22.8408 151.605 22.6998C152.167 22.3535 152.82 22.1806 153.481 22.203C155.112 22.203 156.241 22.8836 156.866 24.2447L160.146 22.4276C159.545 21.2788 158.615 20.3336 157.472 19.7122C156.259 19.0311 154.884 18.6867 153.491 18.7152C151.791 18.6582 150.124 19.1858 148.77 20.209C148.167 20.6742 147.683 21.2746 147.357 21.9611C147.032 22.6477 146.874 23.401 146.898 24.1596C146.862 25.23 147.213 26.2777 147.887 27.1132C148.546 27.8629 149.391 28.4273 150.338 28.75C151.297 29.0789 152.245 29.3749 153.183 29.6381C154.022 29.8305 154.833 30.129 155.596 30.5262C156.281 30.8846 156.618 31.3474 156.606 31.9145C156.606 33.2439 155.585 33.9086 153.542 33.9086C151.5 33.9086 150.167 33.0545 149.544 31.3463L146.175 33.2688C146.74 34.5635 147.715 35.639 148.952 36.3313C150.35 37.0965 151.929 37.476 153.525 37.4304C155.545 37.4304 157.216 36.9438 158.537 35.9707C159.184 35.522 159.708 34.9189 160.061 34.2169C160.413 33.5148 160.582 32.736 160.553 31.952C160.598 30.8655 160.238 29.8007 159.543 28.9609C158.921 28.1738 158.083 27.5828 157.13 27.2595C156.168 26.9193 155.209 26.6402 154.248 26.4054C153.417 26.1862 152.609 25.89 151.834 25.5207L151.824 25.5105Z" fill="white"></path><path fill-rule="evenodd" clip-rule="evenodd" d="M34.3803 0.30937C35.0295 0.645101 35.5179 1.2234 35.7381 1.91706C35.9583 2.61072 35.8922 3.36292 35.5545 4.00819L28.4135 17.6465C28.0549 18.2888 27.5299 18.8241 26.8931 19.1968C26.2562 19.5694 25.5306 19.766 24.7916 19.766C24.0526 19.766 23.327 19.5694 22.6902 19.1968C22.0533 18.8241 21.5284 18.2888 21.1698 17.6465L14.0048 4.00819C13.6846 3.37085 13.6265 2.63468 13.8427 1.95549C14.0589 1.27629 14.5325 0.707372 15.1632 0.36913C15.794 0.030887 16.5324 -0.0501348 17.2222 0.143212C17.9119 0.336558 18.499 0.789101 18.859 1.40506L18.9001 1.47652L23.2785 9.80993C23.4855 10.2089 23.8427 10.5103 24.2723 10.6486C24.702 10.7869 25.1691 10.7509 25.5721 10.5483C25.8835 10.3886 26.1372 10.1365 26.2979 9.82694L30.6626 1.47652C30.8295 1.15714 31.0581 0.873588 31.3353 0.642062C31.6125 0.410535 31.9329 0.235576 32.2781 0.127185C32.6234 0.0187927 32.9868 -0.0209076 33.3475 0.0103527C33.7082 0.0416129 34.0591 0.143221 34.3803 0.30937Z" fill="#828428"></path><path fill-rule="evenodd" clip-rule="evenodd" d="M17.7533 20.8894L4.03263 13.7878C3.38403 13.4577 2.63038 13.3959 1.93616 13.6161C1.24195 13.8363 0.663551 14.3205 0.327221 14.9631C-0.00910932 15.6057 -0.0760612 16.3544 0.140979 17.0459C0.35802 17.7373 0.841427 18.3153 1.48569 18.6538L9.86937 22.9889C10.1471 23.1327 10.3799 23.3494 10.5423 23.6154C10.7047 23.8815 10.7906 24.1868 10.7906 24.4981C10.7906 24.8093 10.7047 25.1146 10.5423 25.3807C10.3799 25.6468 10.1471 25.8635 9.86937 26.0072L1.48569 30.3457L1.4138 30.3832C0.794118 30.7411 0.338845 31.3246 0.144332 32.0102C-0.0501817 32.6959 0.0313289 33.4298 0.371612 34.0568C0.711896 34.6838 1.28425 35.1545 1.96754 35.3694C2.65083 35.5844 3.39144 35.5266 4.03263 35.2083L17.7533 28.1101C18.3995 27.7542 18.9382 27.2327 19.3132 26.5999C19.6882 25.9671 19.886 25.2461 19.886 24.5117C19.886 23.7773 19.6882 23.0562 19.3132 22.4234C18.9382 21.7907 18.3995 21.2692 17.7533 20.9132V20.8894Z" fill="#E1FF01"></path><path fill-rule="evenodd" clip-rule="evenodd" d="M48.9841 14.9726C49.3156 15.6055 49.386 16.342 49.1802 17.0256C48.9743 17.7092 48.5086 18.2862 47.8818 18.634L47.8099 18.6714L39.4296 22.993C39.1519 23.1367 38.9191 23.3534 38.7567 23.6195C38.5943 23.8856 38.5084 24.1908 38.5084 24.5021C38.5084 24.8133 38.5943 25.1186 38.7567 25.3847C38.9191 25.6508 39.1519 25.8675 39.4296 26.0112L47.8099 30.3464C48.1337 30.5112 48.4216 30.7381 48.6569 31.014C48.8921 31.2898 49.0702 31.6092 49.1808 31.9538C49.2914 32.2983 49.3324 32.6612 49.3013 33.0215C49.2703 33.3819 49.1678 33.7325 48.9999 34.0534C48.832 34.3742 48.6019 34.6589 48.3228 34.8909C48.0438 35.123 47.7213 35.298 47.374 35.4057C47.0267 35.5134 46.6614 35.5518 46.2991 35.5186C45.9368 35.4854 45.5846 35.3813 45.263 35.2123L31.5423 28.1107C30.8961 27.7548 30.3574 27.2333 29.9824 26.6005C29.6073 25.9678 29.4095 25.2467 29.4095 24.5123C29.4095 23.7779 29.6073 23.0568 29.9824 22.4241C30.3574 21.7913 30.8961 21.2698 31.5423 20.9139L45.263 13.8157C45.9109 13.4792 46.6666 13.4121 47.3643 13.629C48.062 13.8459 48.6445 14.3291 48.9841 14.9726Z" fill="#828428"></path><path fill-rule="evenodd" clip-rule="evenodd" d="M24.6478 29.2158C25.3866 29.215 26.1121 29.4113 26.7485 29.7842C27.385 30.1571 27.9091 30.6929 28.2663 31.3358L35.4073 44.9741C35.7275 45.6114 35.7856 46.3476 35.5694 47.0268C35.3532 47.706 34.8796 48.2749 34.2488 48.6131C33.6181 48.9514 32.8797 49.0324 32.1899 48.8391C31.5001 48.6457 30.9131 48.1932 30.553 47.5772L30.5154 47.5057L26.1643 39.1928C26.0198 38.9167 25.8017 38.6853 25.5341 38.5239C25.2664 38.3624 24.9592 38.277 24.6461 38.277C24.333 38.277 24.0259 38.3624 23.7582 38.5239C23.4905 38.6853 23.2725 38.9167 23.1279 39.1928L18.7666 47.5228C18.6007 47.8447 18.3725 48.1308 18.0949 48.3646C17.8174 48.5985 17.4961 48.7755 17.1495 48.8855C16.8029 48.9954 16.4378 49.0361 16.0753 49.0053C15.7128 48.9744 15.36 48.8726 15.0372 48.7056C14.7144 48.5387 14.4281 48.31 14.1946 48.0326C13.9611 47.7553 13.7851 47.4347 13.6767 47.0895C13.5684 46.7443 13.5298 46.3811 13.5632 46.021C13.5965 45.6609 13.7012 45.3108 13.8712 44.9911L21.0157 31.3528C21.3726 30.7054 21.8981 30.1655 22.5371 29.7895C23.1762 29.4135 23.9052 29.2154 24.6478 29.2158Z" fill="#828428"></path></g><defs><clipPath id="clip0_404_1830"><rect width="160.553" height="49" fill="white"></rect></clipPath></defs></svg>