<svg xmlns="http://www.w3.org/2000/svg" width="617" height="138" fill="none"><path fill="#0078FB" fill-rule="evenodd" d="M117.807.98291H39.2691L0 68.9991l39.2691 68.0159h78.5379l39.27-68.0159L117.807.98291zM97.6137 35.9595H59.4629L40.3874 68.9991l19.0755 33.0399h38.1508l19.0753-33.0399-19.0753-33.0396z" clip-rule="evenodd"/><path fill="#737373" d="M67.0873 49.1542H89.853l11.383 19.7157-11.383 19.7158H67.0873L55.7044 68.8699l11.3829-19.7157z"/><path fill="#464646" d="M89.853 88.5857L78.6166 68.87 67.0873 88.5857H89.853z"/><path fill="#C7C7C7" d="M89.853 49.1543H67.0873L78.6166 68.87 89.853 49.1543z"/><path fill="#989898" d="M89.853 49.1542L78.6166 68.87h22.6784L89.853 49.1542zM78.6166 68.8699L67.0873 49.1542 55.7044 68.8699h22.9122z"/><path fill="#0058FB" d="M117.807 137.015l39.27-68.016h-40.388l-19.0753 33.04 20.1933 34.976z"/><path fill="#0078FB" d="M117.807 137.015l20.194-34.976H97.6137l20.1933 34.976z"/><path fill="#4CBAFB" d="M138.083 35.9594H97.6137L116.689 68.999l21.394-33.0396z"/><path fill="#9DDAFB" d="M138.083 36.0076L116.689 68.999h40.388l-18.994-32.9914z"/><path fill="#0069E4" d="M78.5383 137.015l19.0754-34.976 20.1933 34.976H78.5383z"/><path fill="#0101D7" d="M0 68.999h40.3874l-21.312 33.04h40.3875l19.6577 34.976H39.2691l-20.1937-34.976L0 68.999z"/><path fill="#0035FB" fill-rule="evenodd" d="M40.3874 68.999L19.1502 35.9594 0 68.999h40.3874l19.0755 33.04H19.1502l21.2372-33.04z" clip-rule="evenodd"/><path fill="#0027FB" d="M97.6137 35.9595L79.1206.98291 59.4629 35.9595h38.1508z"/><path fill="#37A0FB" d="M117.807.98291L97.6137 35.9595h40.4693L117.807.98291z"/><path fill="#0101D7" d="M397.364 71.9066h3.78l1.89 3.2733-1.89 3.2733h-3.78l-1.889-3.2733 1.889-3.2733z"/><path fill="#000" d="M206.117 89.215V49.1407h5.08V89.215h-5.08zm51.745-31.6644c-.941-1.0536-2.39-2.0131-4.347-2.8785-1.956-.8655-4.139-1.2982-6.547-1.2982-3.086 0-5.362.5832-6.83 1.7497-1.467 1.1665-2.201 2.7657-2.201 4.7976 0 1.4299.376 2.5588 1.129 3.3866.753.8278 1.9 1.5052 3.443 2.0319 1.58.5268 3.575 1.0724 5.983 1.6369 2.784.602 5.193 1.3358 7.225 2.2012 2.032.8655 3.593 2.032 4.684 3.4995 1.092 1.4299 1.637 3.3489 1.637 5.7571 0 2.5588-.64 4.666-1.919 6.3216-1.279 1.6557-3.029 2.8786-5.249 3.6688-2.182.7902-4.647 1.1853-7.394 1.1853-6.246 0-11.684-1.8814-16.312-5.6443l2.427-4.2896c.828.8278 1.938 1.6556 3.33 2.4835 1.43.8278 3.048 1.5239 4.854 2.0883 1.844.5268 3.782.7902 5.814.7902 2.86 0 5.08-.5079 6.66-1.5239 1.58-1.0536 2.371-2.5776 2.371-4.5719 0-1.5051-.452-2.7092-1.355-3.6123-.865-.9031-2.164-1.6556-3.894-2.2577-1.731-.6021-3.839-1.2041-6.322-1.8062-2.709-.6773-4.986-1.411-6.83-2.2012-1.843-.8279-3.236-1.9003-4.176-3.2173-.903-1.317-1.355-3.0291-1.355-5.1363 0-2.5587.621-4.7224 1.863-6.4909 1.241-1.7685 2.953-3.1043 5.136-4.0074 2.182-.9031 4.647-1.3546 7.394-1.3546 2.672 0 5.099.4139 7.281 1.2417 2.22.8278 4.177 1.9379 5.87 3.3301l-2.37 4.1203zm40.659 31.9466c-2.822 0-5.381-.5644-7.676-1.6933-2.295-1.1288-4.289-2.6528-5.983-4.5718-1.656-1.9567-2.935-4.1391-3.838-6.5474-.903-2.4458-1.354-4.9481-1.354-7.5069 0-2.6716.47-5.2115 1.411-7.6197.978-2.4459 2.314-4.6095 4.007-6.4909 1.731-1.9191 3.744-3.4242 6.039-4.5155 2.295-1.1288 4.798-1.6932 7.507-1.6932 2.823 0 5.381.5832 7.677 1.7497 2.295 1.1665 4.27 2.728 5.926 4.6847 1.656 1.9567 2.935 4.1391 3.838 6.5474.903 2.4082 1.355 4.8729 1.355 7.394 0 2.6716-.471 5.2304-1.411 7.6762-.941 2.4082-2.277 4.5718-4.008 6.4909-1.693 1.8814-3.688 3.3678-5.983 4.459-2.295 1.0912-4.797 1.6368-7.507 1.6368zm-13.715-20.3194c0 2.032.319 4.0075.959 5.9265.678 1.8814 1.618 3.5559 2.823 5.0234 1.204 1.4675 2.652 2.634 4.346 3.4995 1.693.8654 3.574 1.2982 5.644 1.2982 2.145 0 4.064-.4516 5.757-1.3547 1.693-.9031 3.123-2.1071 4.29-3.6123 1.204-1.5052 2.107-3.1984 2.709-5.0798.639-1.8815.96-3.7817.96-5.7008 0-2.0319-.339-3.9886-1.016-5.87-.64-1.8814-1.581-3.5559-2.823-5.0234-1.204-1.5052-2.652-2.6716-4.346-3.4995-1.656-.8654-3.499-1.2981-5.531-1.2981-2.145 0-4.064.4515-5.757 1.3546-1.694.8654-3.142 2.0507-4.346 3.5559-1.167 1.5051-2.07 3.1984-2.71 5.0798-.64 1.8438-.959 3.744-.959 5.7007zm52.813-20.0371l13.264 33.6963 13.208-33.6963h5.362L353.197 89.215h-4.628l-16.312-40.0743h5.362zm59.721 0h4.289l16.369 40.0743h-5.775l-4.385-11.7401-8.354-22.4642-13.151 34.2043h-5.418l16.425-40.0743zm39.552 40.0743V49.1407h5.08v35.5589h22.351v4.5154h-27.431zm73.713-4.5154v4.5154H483.4V49.1407h26.697v4.5154H488.48v12.9818h18.795v4.2332H488.48v13.8285h22.125zm25.596-26.1894V89.215h-5.08V49.1407h4.29l24.496 31.3257V49.1971h5.08V89.215h-4.629l-24.157-30.7048zM617 53.6561h-13.828V89.215h-5.08V53.6561h-13.829v-4.5154H617v4.5154z"/></svg>