<svg width="186" height="58" viewBox="0 0 186 58" fill="none" xmlns="http://www.w3.org/2000/svg">
<g clip-path="url(#clip0_1218_810)">
<path fill-rule="evenodd" clip-rule="evenodd" d="M19.6206 2.36184C18.5587 3.55824 17.9177 4.70199 17.5729 5.77338C16.9727 7.63895 17.2168 9.45542 17.9759 11.2257C18.7446 13.018 20.0236 14.7162 21.4134 16.2621C22.3378 17.2906 23.2449 18.1838 24.0698 18.9959C24.5086 19.4283 24.924 19.8375 25.3067 20.2321C26.1985 21.1225 27.1026 21.9367 27.9537 22.7027C31.6888 26.0637 34.3978 28.5014 30.4886 32.4252L27.7695 35.1547C28.1155 35.5056 28.509 35.8878 28.9446 36.3109C29.0984 36.46 29.2579 36.6148 29.4217 36.7748C30.1067 37.4422 30.8586 38.1869 31.6043 38.9933C33.0868 40.5965 34.6007 42.4998 35.5517 44.6281C36.2677 46.2295 36.675 47.984 36.4973 49.8342L37.1478 49.1813H37.1507L45.6488 40.6511L47.2396 39.0543C52.8102 33.4628 52.8102 24.3977 47.2396 18.8062L36.9165 8.44418L30.8123 2.31729C27.734 -0.772409 22.7433 -0.772438 19.6652 2.31725L19.6206 2.36184Z" fill="url(#paint0_linear_1218_810)"/>
<path fill-rule="evenodd" clip-rule="evenodd" d="M31.7969 54.5468C32.8588 53.3502 33.5 52.2065 33.8446 51.135C34.4446 49.2696 34.2009 47.4534 33.4419 45.6827C32.6733 43.8905 31.3939 42.1922 30.0042 40.6463C29.0798 39.6179 28.1728 38.7247 27.3481 37.9126C26.9092 37.4805 26.4934 37.071 26.1108 36.6764C25.2192 35.7859 24.3152 34.9718 23.4638 34.2058C19.7289 30.8448 17.0198 28.4071 20.9289 24.4833L23.6482 21.7541C23.3022 21.4027 22.9086 21.0207 22.4727 20.5979C22.3191 20.4488 22.1599 20.2938 21.9956 20.134C21.3108 19.4663 20.5592 18.7216 19.8131 17.9151C18.3308 16.3123 16.817 14.4086 15.8657 12.2807C15.1501 10.6789 14.7427 8.92439 14.9205 7.07422L14.2697 7.72745H14.2671L5.76897 16.2573L4.17785 17.8542C-1.39262 23.4457 -1.39262 32.5111 4.17785 38.1023L14.5013 48.4643L20.6055 54.5914C23.6836 57.6808 28.6742 57.6811 31.7526 54.5914L31.7969 54.5468Z" fill="url(#paint1_linear_1218_810)"/>
<path d="M94.9023 2.74834C94.9023 2.36485 95.2104 2.05396 95.5904 2.05396H101.695C102.075 2.05396 102.383 2.36485 102.383 2.74834V42.2815C102.383 42.6649 102.075 42.9759 101.695 42.9759H95.5904C95.2104 42.9759 94.9023 42.6649 94.9023 42.2815V2.74834Z" fill="#000219"/>
<path fill-rule="evenodd" clip-rule="evenodd" d="M60.3525 29.2585C60.3525 20.7282 66.2914 14.7917 74.8569 14.7917C83.3653 14.7917 89.304 20.7282 89.304 29.2585C89.304 37.7311 83.3653 43.6677 74.8569 43.6677C66.2914 43.6677 60.3525 37.7311 60.3525 29.2585ZM67.8331 29.2585C67.8331 33.6966 70.6882 36.8089 74.8569 36.8089C78.9683 36.8089 81.8234 33.6966 81.8234 29.2585C81.8234 24.7629 78.9683 21.6504 74.8569 21.6504C70.6882 21.6504 67.8331 24.7629 67.8331 29.2585Z" fill="#000219"/>
<path d="M118.016 7.07378C118.016 9.60979 115.961 11.5118 113.448 11.5118C110.879 11.5118 108.88 9.60979 108.88 7.07378C108.88 4.48013 110.879 2.57812 113.448 2.57812C115.961 2.57812 118.016 4.48013 118.016 7.07378Z" fill="#000219"/>
<path d="M109.736 42.2814C109.736 42.6649 110.044 42.9758 110.424 42.9758H116.529C116.909 42.9758 117.217 42.6649 117.217 42.2814V16.1776C117.217 15.7941 116.909 15.4832 116.529 15.4832H110.424C110.044 15.4832 109.736 15.7941 109.736 16.1776V42.2814Z" fill="#000219"/>
<path fill-rule="evenodd" clip-rule="evenodd" d="M145.32 15.4834C144.94 15.4834 144.632 15.7943 144.632 16.1778V16.9819C142.519 15.5986 139.835 14.7917 136.808 14.7917C129.271 14.7917 123.218 20.3248 123.218 28.5669C123.218 35.6562 129.271 41.8233 136.808 41.8233C139.835 41.8233 142.519 41.0163 144.632 39.633V41.7601C144.632 46.2559 141.833 48.6766 138.179 48.6766C134.57 48.6766 132.244 46.9342 131.658 44.3284C131.581 43.9852 131.292 43.7198 130.943 43.7198H124.708C124.305 43.7198 123.987 44.0681 124.044 44.4702C124.96 50.9879 130.642 55.5353 138.179 55.5353C146.288 55.5353 152.112 50.3479 152.112 41.7601V16.1778C152.112 15.7943 151.805 15.4834 151.424 15.4834H145.32ZM136.769 35.2188C133.131 34.6463 130.698 31.4885 130.698 28.5669C130.698 24.1866 133.668 21.3047 137.95 21.3047C139.631 21.3047 142.874 22.1911 144.632 24.8745C145.263 25.9113 145.626 27.1383 145.626 28.4853C145.626 32.4276 142.375 35.3842 138.402 35.3842C137.838 35.3842 137.292 35.3273 136.769 35.2188Z" fill="#000219"/>
<path fill-rule="evenodd" clip-rule="evenodd" d="M171.552 14.7917C162.987 14.7917 157.049 20.7282 157.049 29.2585C157.049 37.7311 162.987 43.6677 171.552 43.6677C180.061 43.6677 186 37.7311 186 29.2585C186 20.7282 180.061 14.7917 171.552 14.7917ZM171.552 36.8089C167.385 36.8089 164.528 33.6966 164.528 29.2585C164.528 24.7629 167.385 21.6504 171.552 21.6504C175.664 21.6504 178.519 24.7629 178.519 29.2585C178.519 33.6966 175.664 36.8089 171.552 36.8089Z" fill="#000219"/>
</g>
<defs>
<linearGradient id="paint0_linear_1218_810" x1="21.5152" y1="5.88986" x2="48.737" y2="42.1355" gradientUnits="userSpaceOnUse">
<stop stop-color="#182D82"/>
<stop offset="1" stop-color="#5726F4"/>
</linearGradient>
<linearGradient id="paint1_linear_1218_810" x1="4.27888" y1="12.9641" x2="28.4957" y2="56.7513" gradientUnits="userSpaceOnUse">
<stop stop-color="#4668F0"/>
<stop offset="1" stop-color="#591EF4"/>
</linearGradient>
<clipPath id="clip0_1218_810">
<rect width="186" height="58" fill="white"/>
</clipPath>
</defs>
</svg>
