<svg width="20" height="20" viewBox="0 0 20 20" fill="none" xmlns="http://www.w3.org/2000/svg">
<mask id="mask0_1188_14789" style="mask-type:alpha" maskUnits="userSpaceOnUse" x="0" y="0" width="20" height="20">
<circle cx="10" cy="10" r="10" fill="#D9D9D9"/>
</mask>
<g mask="url(#mask0_1188_14789)">
<path d="M0 -1H31V21H0V-1Z" fill="#EE1C25"/>
<path d="M4.91249 12.1819L7.03122 5.96191L9.14996 12.1819L3.5 8.38082H10.5624L4.91249 12.1819Z" fill="#FFFF00"/>
<path d="M14.1018 6.08109L11.9214 6.55393L13.3758 4.89542L13.2331 7.12756L12.0231 5.15144L14.1018 6.08109Z" fill="#FFFF00"/>
<path d="M16.3026 8.80996L14.1054 8.41826L16.1033 7.44156L15.0872 9.44485L14.7551 7.16417L16.3026 8.80996Z" fill="#FFFF00"/>
<path d="M15.982 12.6393L14.1391 11.4047L16.3703 11.3104L14.6076 12.7339L15.2549 10.519L15.982 12.6393Z" fill="#FFFF00"/>
<path d="M13.2104 15.1402L11.9978 13.3049L14.0932 14.0612L11.9054 14.708L13.3767 12.9096L13.2104 15.1402Z" fill="#FFFF00"/>
</g>
</svg>
