<svg width="20" height="20" viewBox="0 0 20 20" fill="none" xmlns="http://www.w3.org/2000/svg">
<path d="M10 20C15.5228 20 20 15.5228 20 10C20 4.47715 15.5228 0 10 0C4.47715 0 0 4.47715 0 10C0 15.5228 4.47715 20 10 20Z" fill="white"/>
<path d="M2.06742 3.91162C1.28191 4.93361 0.689609 6.11154 0.344727 7.39119H5.54699L2.06742 3.91162Z" fill="#0052B4"/>
<path d="M19.6553 7.39115C19.3104 6.11154 18.7181 4.93361 17.9326 3.91162L14.4531 7.39115H19.6553Z" fill="#0052B4"/>
<path d="M0.344727 12.6089C0.689648 13.8885 1.28195 15.0664 2.06742 16.0884L5.54688 12.6089H0.344727Z" fill="#0052B4"/>
<path d="M16.0884 2.06746C15.0664 1.28195 13.8885 0.689648 12.6089 0.344727V5.54695L16.0884 2.06746Z" fill="#0052B4"/>
<path d="M3.91162 17.9326C4.93361 18.7181 6.11154 19.3104 7.39115 19.6553V14.4531L3.91162 17.9326Z" fill="#0052B4"/>
<path d="M7.39111 0.344727C6.1115 0.689648 4.93357 1.28195 3.91162 2.06742L7.39111 5.54691V0.344727Z" fill="#0052B4"/>
<path d="M12.6089 19.6553C13.8885 19.3104 15.0664 18.7181 16.0884 17.9326L12.6089 14.4531V19.6553Z" fill="#0052B4"/>
<path d="M14.4531 12.6089L17.9326 16.0884C18.7181 15.0665 19.3104 13.8885 19.6553 12.6089H14.4531Z" fill="#0052B4"/>
<path d="M19.9154 8.69566H11.3044H11.3044V0.0846484C10.8774 0.0290625 10.4421 0 10 0C9.55785 0 9.12262 0.0290625 8.69566 0.0846484V8.69559V8.69563H0.0846484C0.0290625 9.12262 0 9.55793 0 10C0 10.4421 0.0290625 10.8774 0.0846484 11.3043H8.69559H8.69563V19.9154C9.12262 19.9709 9.55785 20 10 20C10.4421 20 10.8774 19.971 11.3043 19.9154V11.3044V11.3044H19.9154C19.9709 10.8774 20 10.4421 20 10C20 9.55793 19.9709 9.12262 19.9154 8.69566Z" fill="#D80027"/>
<path d="M12.6089 12.6089L17.0712 17.0713C17.2765 16.8661 17.4722 16.6516 17.659 16.4293L13.8387 12.6089H12.6089V12.6089Z" fill="#D80027"/>
<path d="M7.39109 12.6089H7.39102L2.92871 17.0712C3.13387 17.2764 3.34836 17.4722 3.5707 17.659L7.39109 13.8385V12.6089Z" fill="#D80027"/>
<path d="M7.39146 7.39117V7.39109L2.92912 2.92871C2.72389 3.13387 2.52811 3.34836 2.34131 3.5707L6.16174 7.39113H7.39146V7.39117Z" fill="#D80027"/>
<path d="M12.6089 7.3915L17.0713 2.92908C16.8661 2.72385 16.6516 2.52807 16.4293 2.34131L12.6089 6.16174V7.3915Z" fill="#D80027"/>
<circle opacity="0.1" cx="10" cy="10" r="9.5" stroke="#1A1A1A"/>
</svg>
