<svg width="1600" height="300" viewBox="0 0 1600 300" fill="none" xmlns="http://www.w3.org/2000/svg">
<mask id="mask0_1_3" style="mask-type:alpha" maskUnits="userSpaceOnUse" x="0" y="0" width="1600" height="300">
<rect width="1600" height="300" fill="url(#paint0_linear_1_3)"/>
</mask>
<g mask="url(#mask0_1_3)">
<g opacity="0.05">
<path d="M-48 227L5 257V319L-48 349L-101 319V257L-48 227Z" stroke="#1A1A1A"/>
<path d="M-48 43L5 73V135L-48 165L-101 135V73L-48 43Z" stroke="#1A1A1A"/>
<path d="M5 135L58 165V227L5 257L-48 227V165L5 135Z" stroke="#1A1A1A"/>
<path d="M5 -49L58 -19V43L5 73L-48 43V-19L5 -49Z" stroke="#1A1A1A"/>
<path d="M58 227L111 257V319L58 349L5 319V257L58 227Z" stroke="#1A1A1A"/>
<path d="M58 43L111 73V135L58 165L5 135V73L58 43Z" stroke="#1A1A1A"/>
<path d="M111 135L164 165V227L111 257L58 227V165L111 135Z" stroke="#1A1A1A"/>
<path d="M111 -49L164 -19V43L111 73L58 43V-19L111 -49Z" stroke="#1A1A1A"/>
<path d="M164 227L217 257V319L164 349L111 319V257L164 227Z" stroke="#1A1A1A"/>
<path d="M164 43L217 73V135L164 165L111 135V73L164 43Z" stroke="#1A1A1A"/>
<path d="M217 135L270 165V227L217 257L164 227V165L217 135Z" stroke="#1A1A1A"/>
<path d="M217 -49L270 -19V43L217 73L164 43V-19L217 -49Z" stroke="#1A1A1A"/>
<path d="M270 227L323 257V319L270 349L217 319V257L270 227Z" stroke="#1A1A1A"/>
<path d="M270 43L323 73V135L270 165L217 135V73L270 43Z" stroke="#1A1A1A"/>
<path d="M323 135L376 165V227L323 257L270 227V165L323 135Z" stroke="#1A1A1A"/>
<path d="M323 -49L376 -19V43L323 73L270 43V-19L323 -49Z" stroke="#1A1A1A"/>
<path d="M376 227L429 257V319L376 349L323 319V257L376 227Z" stroke="#1A1A1A"/>
<path d="M376 43L429 73V135L376 165L323 135V73L376 43Z" stroke="#1A1A1A"/>
<path d="M429 135L482 165V227L429 257L376 227V165L429 135Z" stroke="#1A1A1A"/>
<path d="M429 -49L482 -19V43L429 73L376 43V-19L429 -49Z" stroke="#1A1A1A"/>
<path d="M482 227L535 257V319L482 349L429 319V257L482 227Z" stroke="#1A1A1A"/>
<path d="M482 43L535 73V135L482 165L429 135V73L482 43Z" stroke="#1A1A1A"/>
<path d="M535 135L588 165V227L535 257L482 227V165L535 135Z" stroke="#1A1A1A"/>
<path d="M535 -49L588 -19V43L535 73L482 43V-19L535 -49Z" stroke="#1A1A1A"/>
<path d="M588 227L641 257V319L588 349L535 319V257L588 227Z" stroke="#1A1A1A"/>
<path d="M588 43L641 73V135L588 165L535 135V73L588 43Z" stroke="#1A1A1A"/>
<path d="M641 135L694 165V227L641 257L588 227V165L641 135Z" stroke="#1A1A1A"/>
<path d="M641 -49L694 -19V43L641 73L588 43V-19L641 -49Z" stroke="#1A1A1A"/>
<path d="M694 227L747 257V319L694 349L641 319V257L694 227Z" stroke="#1A1A1A"/>
<path d="M694 43L747 73V135L694 165L641 135V73L694 43Z" stroke="#1A1A1A"/>
<path d="M747 135L800 165V227L747 257L694 227V165L747 135Z" stroke="#1A1A1A"/>
<path d="M747 -49L800 -19V43L747 73L694 43V-19L747 -49Z" stroke="#1A1A1A"/>
<path d="M800 227L853 257V319L800 349L747 319V257L800 227Z" stroke="#1A1A1A"/>
<path d="M800 43L853 73V135L800 165L747 135V73L800 43Z" stroke="#1A1A1A"/>
<path d="M853 135L906 165V227L853 257L800 227V165L853 135Z" stroke="#1A1A1A"/>
<path d="M853 -49L906 -19V43L853 73L800 43V-19L853 -49Z" stroke="#1A1A1A"/>
<path d="M906 227L959 257V319L906 349L853 319V257L906 227Z" stroke="#1A1A1A"/>
<path d="M906 43L959 73V135L906 165L853 135V73L906 43Z" stroke="#1A1A1A"/>
<path d="M959 135L1012 165V227L959 257L906 227V165L959 135Z" stroke="#1A1A1A"/>
<path d="M959 -49L1012 -19V43L959 73L906 43V-19L959 -49Z" stroke="#1A1A1A"/>
<path d="M1012 227L1065 257V319L1012 349L959 319V257L1012 227Z" stroke="#1A1A1A"/>
<path d="M1012 43L1065 73V135L1012 165L959 135V73L1012 43Z" stroke="#1A1A1A"/>
<path d="M1065 135L1118 165V227L1065 257L1012 227V165L1065 135Z" stroke="#1A1A1A"/>
<path d="M1065 -49L1118 -19V43L1065 73L1012 43V-19L1065 -49Z" stroke="#1A1A1A"/>
<path d="M1118 227L1171 257V319L1118 349L1065 319V257L1118 227Z" stroke="#1A1A1A"/>
<path d="M1118 43L1171 73V135L1118 165L1065 135V73L1118 43Z" stroke="#1A1A1A"/>
<path d="M1171 135L1224 165V227L1171 257L1118 227V165L1171 135Z" stroke="#1A1A1A"/>
<path d="M1171 -49L1224 -19V43L1171 73L1118 43V-19L1171 -49Z" stroke="#1A1A1A"/>
<path d="M1224 227L1277 257V319L1224 349L1171 319V257L1224 227Z" stroke="#1A1A1A"/>
<path d="M1224 43L1277 73V135L1224 165L1171 135V73L1224 43Z" stroke="#1A1A1A"/>
<path d="M1277 135L1330 165V227L1277 257L1224 227V165L1277 135Z" stroke="#1A1A1A"/>
<path d="M1277 -49L1330 -19V43L1277 73L1224 43V-19L1277 -49Z" stroke="#1A1A1A"/>
<path d="M1330 227L1383 257V319L1330 349L1277 319V257L1330 227Z" stroke="#1A1A1A"/>
<path d="M1330 43L1383 73V135L1330 165L1277 135V73L1330 43Z" stroke="#1A1A1A"/>
<path d="M1383 135L1436 165V227L1383 257L1330 227V165L1383 135Z" stroke="#1A1A1A"/>
<path d="M1383 -49L1436 -19V43L1383 73L1330 43V-19L1383 -49Z" stroke="#1A1A1A"/>
<path d="M1436 227L1489 257V319L1436 349L1383 319V257L1436 227Z" stroke="#1A1A1A"/>
<path d="M1542 227L1595 257V319L1542 349L1489 319V257L1542 227Z" stroke="#1A1A1A"/>
<path d="M1436 43L1489 73V135L1436 165L1383 135V73L1436 43Z" stroke="#1A1A1A"/>
<path d="M1542 43L1595 73V135L1542 165L1489 135V73L1542 43Z" stroke="#1A1A1A"/>
<path d="M1489 135L1542 165V227L1489 257L1436 227V165L1489 135Z" stroke="#1A1A1A"/>
<path d="M1595 135L1648 165V227L1595 257L1542 227V165L1595 135Z" stroke="#1A1A1A"/>
<path d="M1489 -49L1542 -19V43L1489 73L1436 43V-19L1489 -49Z" stroke="#1A1A1A"/>
<path d="M1595 -49L1648 -19V43L1595 73L1542 43V-19L1595 -49Z" stroke="#1A1A1A"/>
</g>
</g>
<path d="M694 43L694.985 41.2595L694 40.7018L693.015 41.2595L694 43ZM747 73L746.015 74.7405L747 75.2982L747.985 74.7405L747 73ZM800 43L800.985 41.2595L800 40.7018L799.015 41.2595L800 43ZM853 73L852.015 74.7405L853 75.2982L853.985 74.7405L853 73ZM906 43L906.985 41.2595L906 40.7018L905.015 41.2595L906 43ZM640.015 71.2595C639.054 71.8036 638.715 73.0239 639.259 73.9852C639.804 74.9465 641.024 75.2846 641.985 74.7405L640.015 71.2595ZM958.015 74.7405C958.976 75.2846 960.196 74.9465 960.741 73.9852C961.285 73.0239 960.946 71.8036 959.985 71.2595L958.015 74.7405ZM641.99 74.738C642.951 74.1939 643.289 72.9736 642.745 72.0123C642.201 71.051 640.98 70.7129 640.019 71.257L641.99 74.738ZM648.844 66.262C647.882 66.8061 647.544 68.0264 648.088 68.9877C648.633 69.949 649.853 70.2871 650.814 69.743L648.844 66.262ZM650.823 69.738C651.784 69.1939 652.122 67.9736 651.578 67.0123C651.034 66.051 649.814 65.7129 648.853 66.257L650.823 69.738ZM657.677 61.262C656.716 61.8061 656.378 63.0264 656.922 63.9877C657.466 64.949 658.686 65.2871 659.647 64.743L657.677 61.262ZM659.656 64.738C660.618 64.1939 660.956 62.9736 660.412 62.0123C659.867 61.051 658.647 60.7129 657.686 61.257L659.656 64.738ZM666.51 56.262C665.549 56.8061 665.211 58.0264 665.755 58.9877C666.299 59.949 667.52 60.2871 668.481 59.743L666.51 56.262ZM668.49 59.738C669.451 59.1939 669.789 57.9736 669.245 57.0123C668.701 56.051 667.48 55.7129 666.519 56.257L668.49 59.738ZM675.344 51.262C674.382 51.8061 674.044 53.0264 674.588 53.9877C675.133 54.949 676.353 55.2871 677.314 54.743L675.344 51.262ZM677.323 54.738C678.284 54.1939 678.622 52.9736 678.078 52.0123C677.534 51.051 676.314 50.7129 675.353 51.257L677.323 54.738ZM684.177 46.262C683.216 46.8061 682.878 48.0264 683.422 48.9877C683.966 49.949 685.186 50.2871 686.147 49.743L684.177 46.262ZM686.156 49.738C687.118 49.1939 687.456 47.9736 686.912 47.0123C686.367 46.0511 685.147 45.7129 684.186 46.257L686.156 49.738ZM693.01 41.262C692.049 41.8061 691.711 43.0264 692.255 43.9877C692.799 44.949 694.02 45.2871 694.981 44.743L693.01 41.262ZM693.019 44.743C693.98 45.2871 695.201 44.949 695.745 43.9877C696.289 43.0264 695.951 41.8061 694.99 41.262L693.019 44.743ZM703.814 46.257C702.853 45.7129 701.633 46.051 701.088 47.0123C700.544 47.9736 700.882 49.1939 701.844 49.738L703.814 46.257ZM701.853 49.743C702.814 50.2871 704.034 49.949 704.578 48.9877C705.122 48.0264 704.784 46.8061 703.823 46.262L701.853 49.743ZM712.647 51.257C711.686 50.7129 710.466 51.051 709.922 52.0123C709.378 52.9736 709.716 54.1939 710.677 54.738L712.647 51.257ZM710.686 54.743C711.647 55.2871 712.867 54.949 713.412 53.9877C713.956 53.0264 713.618 51.8061 712.656 51.262L710.686 54.743ZM721.481 56.257C720.52 55.7129 719.299 56.051 718.755 57.0123C718.211 57.9736 718.549 59.1939 719.51 59.738L721.481 56.257ZM719.519 59.743C720.48 60.2871 721.701 59.949 722.245 58.9877C722.789 58.0264 722.451 56.8061 721.49 56.262L719.519 59.743ZM730.314 61.257C729.353 60.7129 728.133 61.051 727.588 62.0123C727.044 62.9736 727.382 64.1939 728.344 64.738L730.314 61.257ZM728.353 64.743C729.314 65.2871 730.534 64.949 731.078 63.9877C731.622 63.0264 731.284 61.8061 730.323 61.262L728.353 64.743ZM739.147 66.257C738.186 65.7129 736.966 66.051 736.422 67.0123C735.878 67.9736 736.216 69.1939 737.177 69.738L739.147 66.257ZM737.186 69.743C738.147 70.2871 739.367 69.9489 739.912 68.9877C740.456 68.0264 740.118 66.8061 739.156 66.262L737.186 69.743ZM747.981 71.257C747.02 70.7129 745.799 71.051 745.255 72.0123C744.711 72.9736 745.049 74.1939 746.01 74.738L747.981 71.257ZM747.99 74.738C748.951 74.1939 749.289 72.9736 748.745 72.0123C748.201 71.051 746.98 70.7129 746.019 71.257L747.99 74.738ZM754.844 66.262C753.882 66.8061 753.544 68.0264 754.088 68.9877C754.633 69.949 755.853 70.2871 756.814 69.743L754.844 66.262ZM756.823 69.738C757.784 69.1939 758.122 67.9736 757.578 67.0123C757.034 66.051 755.814 65.7129 754.853 66.257L756.823 69.738ZM763.677 61.262C762.716 61.8061 762.378 63.0264 762.922 63.9877C763.466 64.949 764.686 65.2871 765.647 64.743L763.677 61.262ZM765.656 64.738C766.618 64.1939 766.956 62.9736 766.412 62.0123C765.867 61.051 764.647 60.7129 763.686 61.257L765.656 64.738ZM772.51 56.262C771.549 56.8061 771.211 58.0264 771.755 58.9877C772.299 59.949 773.52 60.2871 774.481 59.743L772.51 56.262ZM774.49 59.738C775.451 59.1939 775.789 57.9736 775.245 57.0123C774.701 56.051 773.48 55.7129 772.519 56.257L774.49 59.738ZM781.344 51.262C780.382 51.8061 780.044 53.0264 780.588 53.9877C781.133 54.949 782.353 55.2871 783.314 54.743L781.344 51.262ZM783.323 54.738C784.284 54.1939 784.622 52.9736 784.078 52.0123C783.534 51.051 782.314 50.7129 781.353 51.257L783.323 54.738ZM790.177 46.262C789.216 46.8061 788.878 48.0264 789.422 48.9877C789.966 49.949 791.186 50.2871 792.147 49.743L790.177 46.262ZM792.156 49.738C793.118 49.1939 793.456 47.9736 792.912 47.0123C792.367 46.0511 791.147 45.7129 790.186 46.257L792.156 49.738ZM799.01 41.262C798.049 41.8061 797.711 43.0264 798.255 43.9877C798.799 44.949 800.02 45.2871 800.981 44.743L799.01 41.262ZM799.019 44.743C799.98 45.2871 801.201 44.949 801.745 43.9877C802.289 43.0264 801.951 41.8061 800.99 41.262L799.019 44.743ZM809.814 46.257C808.853 45.7129 807.633 46.051 807.088 47.0123C806.544 47.9736 806.882 49.1939 807.844 49.738L809.814 46.257ZM807.853 49.743C808.814 50.2871 810.034 49.949 810.578 48.9877C811.122 48.0264 810.784 46.8061 809.823 46.262L807.853 49.743ZM818.647 51.257C817.686 50.7129 816.466 51.051 815.922 52.0123C815.378 52.9736 815.716 54.1939 816.677 54.738L818.647 51.257ZM816.686 54.743C817.647 55.2871 818.867 54.949 819.412 53.9877C819.956 53.0264 819.618 51.8061 818.656 51.262L816.686 54.743ZM827.481 56.257C826.52 55.7129 825.299 56.051 824.755 57.0123C824.211 57.9736 824.549 59.1939 825.51 59.738L827.481 56.257ZM825.519 59.743C826.48 60.2871 827.701 59.949 828.245 58.9877C828.789 58.0264 828.451 56.8061 827.49 56.262L825.519 59.743ZM836.314 61.257C835.353 60.7129 834.133 61.051 833.588 62.0123C833.044 62.9736 833.382 64.1939 834.344 64.738L836.314 61.257ZM834.353 64.743C835.314 65.2871 836.534 64.949 837.078 63.9877C837.622 63.0264 837.284 61.8061 836.323 61.262L834.353 64.743ZM845.147 66.257C844.186 65.7129 842.966 66.051 842.422 67.0123C841.878 67.9736 842.216 69.1939 843.177 69.738L845.147 66.257ZM843.186 69.743C844.147 70.2871 845.367 69.9489 845.912 68.9877C846.456 68.0264 846.118 66.8061 845.156 66.262L843.186 69.743ZM853.981 71.257C853.02 70.7129 851.799 71.051 851.255 72.0123C850.711 72.9736 851.049 74.1939 852.01 74.738L853.981 71.257ZM853.99 74.738C854.951 74.1939 855.289 72.9736 854.745 72.0123C854.201 71.051 852.98 70.7129 852.019 71.257L853.99 74.738ZM860.844 66.262C859.882 66.8061 859.544 68.0264 860.088 68.9877C860.633 69.949 861.853 70.2871 862.814 69.743L860.844 66.262ZM862.823 69.738C863.784 69.1939 864.122 67.9736 863.578 67.0123C863.034 66.051 861.814 65.7129 860.853 66.257L862.823 69.738ZM869.677 61.262C868.716 61.8061 868.378 63.0264 868.922 63.9877C869.466 64.949 870.686 65.2871 871.647 64.743L869.677 61.262ZM871.656 64.738C872.618 64.1939 872.956 62.9736 872.412 62.0123C871.867 61.051 870.647 60.7129 869.686 61.257L871.656 64.738ZM878.51 56.262C877.549 56.8061 877.211 58.0264 877.755 58.9877C878.299 59.949 879.52 60.2871 880.481 59.743L878.51 56.262ZM880.49 59.738C881.451 59.1939 881.789 57.9736 881.245 57.0123C880.701 56.051 879.48 55.7129 878.519 56.257L880.49 59.738ZM887.344 51.262C886.382 51.8061 886.044 53.0264 886.588 53.9877C887.133 54.949 888.353 55.2871 889.314 54.743L887.344 51.262ZM889.323 54.738C890.284 54.1939 890.622 52.9736 890.078 52.0123C889.534 51.051 888.314 50.7129 887.353 51.257L889.323 54.738ZM896.177 46.262C895.216 46.8061 894.878 48.0264 895.422 48.9877C895.966 49.949 897.186 50.2871 898.147 49.743L896.177 46.262ZM898.156 49.738C899.118 49.1939 899.456 47.9736 898.912 47.0123C898.367 46.0511 897.147 45.7129 896.186 46.257L898.156 49.738ZM905.01 41.262C904.049 41.8061 903.711 43.0264 904.255 43.9877C904.799 44.949 906.02 45.2871 906.981 44.743L905.01 41.262ZM905.019 44.743C905.98 45.2871 907.201 44.949 907.745 43.9877C908.289 43.0264 907.951 41.8061 906.99 41.262L905.019 44.743ZM915.814 46.257C914.853 45.7129 913.633 46.051 913.088 47.0123C912.544 47.9736 912.882 49.1939 913.844 49.738L915.814 46.257ZM913.853 49.743C914.814 50.2871 916.034 49.949 916.578 48.9877C917.122 48.0264 916.784 46.8061 915.823 46.262L913.853 49.743ZM924.647 51.257C923.686 50.7129 922.466 51.051 921.922 52.0123C921.378 52.9736 921.716 54.1939 922.677 54.738L924.647 51.257ZM922.686 54.743C923.647 55.2871 924.867 54.949 925.412 53.9877C925.956 53.0264 925.618 51.8061 924.656 51.262L922.686 54.743ZM933.481 56.257C932.52 55.7129 931.299 56.051 930.755 57.0123C930.211 57.9736 930.549 59.1939 931.51 59.738L933.481 56.257ZM931.519 59.743C932.48 60.2871 933.701 59.949 934.245 58.9877C934.789 58.0264 934.451 56.8061 933.49 56.262L931.519 59.743ZM942.314 61.257C941.353 60.7129 940.133 61.051 939.588 62.0123C939.044 62.9736 939.382 64.1939 940.344 64.738L942.314 61.257ZM940.353 64.743C941.314 65.2871 942.534 64.949 943.078 63.9877C943.622 63.0264 943.284 61.8061 942.323 61.262L940.353 64.743ZM951.147 66.257C950.186 65.7129 948.966 66.051 948.422 67.0123C947.878 67.9736 948.216 69.1939 949.177 69.738L951.147 66.257ZM949.186 69.743C950.147 70.2871 951.367 69.9489 951.912 68.9877C952.456 68.0264 952.118 66.8061 951.156 66.262L949.186 69.743ZM959.981 71.257C959.02 70.7129 957.799 71.051 957.255 72.0123C956.711 72.9736 957.049 74.1939 958.01 74.738L959.981 71.257ZM641.985 74.7405L641.99 74.738L640.019 71.257L640.015 71.2595L641.985 74.7405ZM650.814 69.743L650.823 69.738L648.853 66.257L648.844 66.262L650.814 69.743ZM659.647 64.743L659.656 64.738L657.686 61.257L657.677 61.262L659.647 64.743ZM668.481 59.743L668.49 59.738L666.519 56.257L666.51 56.262L668.481 59.743ZM677.314 54.743L677.323 54.738L675.353 51.257L675.344 51.262L677.314 54.743ZM686.147 49.743L686.156 49.738L684.186 46.257L684.177 46.262L686.147 49.743ZM694.981 44.743L694.985 44.7405L693.015 41.2595L693.01 41.262L694.981 44.743ZM693.015 44.7405L693.019 44.743L694.99 41.262L694.985 41.2595L693.015 44.7405ZM701.844 49.738L701.853 49.743L703.823 46.262L703.814 46.257L701.844 49.738ZM710.677 54.738L710.686 54.743L712.656 51.262L712.647 51.257L710.677 54.738ZM719.51 59.738L719.519 59.743L721.49 56.262L721.481 56.257L719.51 59.738ZM728.344 64.738L728.353 64.743L730.323 61.262L730.314 61.257L728.344 64.738ZM737.177 69.738L737.186 69.743L739.156 66.262L739.147 66.257L737.177 69.738ZM746.01 74.738L746.015 74.7405L747.985 71.2595L747.981 71.257L746.01 74.738ZM747.985 74.7405L747.99 74.738L746.019 71.257L746.015 71.2595L747.985 74.7405ZM756.814 69.743L756.823 69.738L754.853 66.257L754.844 66.262L756.814 69.743ZM765.647 64.743L765.656 64.738L763.686 61.257L763.677 61.262L765.647 64.743ZM774.481 59.743L774.49 59.738L772.519 56.257L772.51 56.262L774.481 59.743ZM783.314 54.743L783.323 54.738L781.353 51.257L781.344 51.262L783.314 54.743ZM792.147 49.743L792.156 49.738L790.186 46.257L790.177 46.262L792.147 49.743ZM800.981 44.743L800.985 44.7405L799.015 41.2595L799.01 41.262L800.981 44.743ZM799.015 44.7405L799.019 44.743L800.99 41.262L800.985 41.2595L799.015 44.7405ZM807.844 49.738L807.853 49.743L809.823 46.262L809.814 46.257L807.844 49.738ZM816.677 54.738L816.686 54.743L818.656 51.262L818.647 51.257L816.677 54.738ZM825.51 59.738L825.519 59.743L827.49 56.262L827.481 56.257L825.51 59.738ZM834.344 64.738L834.353 64.743L836.323 61.262L836.314 61.257L834.344 64.738ZM843.177 69.738L843.186 69.743L845.156 66.262L845.147 66.257L843.177 69.738ZM852.01 74.738L852.015 74.7405L853.985 71.2595L853.981 71.257L852.01 74.738ZM853.985 74.7405L853.99 74.738L852.019 71.257L852.015 71.2595L853.985 74.7405ZM862.814 69.743L862.823 69.738L860.853 66.257L860.844 66.262L862.814 69.743ZM871.647 64.743L871.656 64.738L869.686 61.257L869.677 61.262L871.647 64.743ZM880.481 59.743L880.49 59.738L878.519 56.257L878.51 56.262L880.481 59.743ZM889.314 54.743L889.323 54.738L887.353 51.257L887.344 51.262L889.314 54.743ZM898.147 49.743L898.156 49.738L896.186 46.257L896.177 46.262L898.147 49.743ZM906.981 44.743L906.985 44.7405L905.015 41.2595L905.01 41.262L906.981 44.743ZM905.015 44.7405L905.019 44.743L906.99 41.262L906.985 41.2595L905.015 44.7405ZM913.844 49.738L913.853 49.743L915.823 46.262L915.814 46.257L913.844 49.738ZM922.677 54.738L922.686 54.743L924.656 51.262L924.647 51.257L922.677 54.738ZM931.51 59.738L931.519 59.743L933.49 56.262L933.481 56.257L931.51 59.738ZM940.344 64.738L940.353 64.743L942.323 61.262L942.314 61.257L940.344 64.738ZM949.177 69.738L949.186 69.743L951.156 66.262L951.147 66.257L949.177 69.738ZM958.01 74.738L958.015 74.7405L959.985 71.2595L959.981 71.257L958.01 74.738Z" fill="#FFE100"/>
<path d="M270 43L270.985 41.2595L270 40.7018L269.015 41.2595L270 43ZM323 73H325V71.8339L323.985 71.2595L323 73ZM217 73L216.015 71.2595L215 71.8339V73H217ZM323 135H321V136.166L322.015 136.741L323 135ZM376 165H378V163.834L376.985 163.259L376 165ZM376 227H374V228.166L375.015 228.741L376 227ZM429 257L428.015 258.741L429 259.298L429.985 258.741L429 257ZM482 227L482.985 225.259L482 224.702L481.015 225.259L482 227ZM535 257L534.015 258.741L535 259.298L535.985 258.741L535 257ZM588 227L588.985 225.259L588 224.702L587.015 225.259L588 227ZM641 257L640.015 258.741L641 259.298L641.985 258.741L641 257ZM694 227L694.985 225.259L694 224.702L693.015 225.259L694 227ZM747 257L746.015 258.741L747 259.298L747.985 258.741L747 257ZM800 227L800.985 225.259L800 224.702L799.015 225.259L800 227ZM853 257L852.015 258.741L853 259.298L853.985 258.741L853 257ZM906 227L906.985 225.259L906 224.702L905.015 225.259L906 227ZM959 257L958.015 258.741L959 259.298L959.985 258.741L959 257ZM1012 227L1012.99 225.259L1012 224.702L1011.01 225.259L1012 227ZM1065 257L1064.01 258.741L1065 259.298L1065.99 258.741L1065 257ZM1118 227L1118.99 225.259L1118 224.702L1117.01 225.259L1118 227ZM1171 257L1170.01 258.741L1171 259.298L1171.99 258.741L1171 257ZM1224 227L1224.99 228.741L1226 228.166V227H1224ZM1224 165L1223.01 163.259L1222 163.834V165H1224ZM1277 135L1277.99 136.741L1279 136.166V135H1277ZM1277 73L1276.01 71.2595L1275 71.8339V73H1277ZM1330 43L1330.99 41.2595L1330 40.7018L1329.01 41.2595L1330 43ZM1383 73H1385V71.8339L1383.99 71.2595L1383 73ZM1383 135H1381V136.166L1382.01 136.741L1383 135ZM1436 165H1438V163.834L1436.99 163.259L1436 165ZM1436 227H1434V228.166L1435.01 228.741L1436 227ZM1488.01 258.741C1488.98 259.285 1490.2 258.946 1490.74 257.985C1491.28 257.024 1490.95 255.804 1489.99 255.259L1488.01 258.741ZM217 135L217.985 136.741L219 136.166V135H217ZM164 165L163.015 163.259L162 163.834V165H164ZM164 227L164.985 228.741L166 228.166V227H164ZM110.015 255.259C109.054 255.804 108.715 257.024 109.259 257.985C109.804 258.946 111.024 259.285 111.985 258.741L110.015 255.259ZM111.99 258.738C112.951 258.194 113.289 256.974 112.745 256.012C112.201 255.051 110.98 254.713 110.019 255.257L111.99 258.738ZM118.844 250.262C117.882 250.806 117.544 252.026 118.088 252.988C118.633 253.949 119.853 254.287 120.814 253.743L118.844 250.262ZM120.823 253.738C121.784 253.194 122.122 251.974 121.578 251.012C121.034 250.051 119.814 249.713 118.853 250.257L120.823 253.738ZM127.677 245.262C126.716 245.806 126.378 247.026 126.922 247.988C127.466 248.949 128.686 249.287 129.647 248.743L127.677 245.262ZM129.656 248.738C130.618 248.194 130.956 246.974 130.412 246.012C129.867 245.051 128.647 244.713 127.686 245.257L129.656 248.738ZM136.51 240.262C135.549 240.806 135.211 242.026 135.755 242.988C136.299 243.949 137.52 244.287 138.481 243.743L136.51 240.262ZM138.49 243.738C139.451 243.194 139.789 241.974 139.245 241.012C138.701 240.051 137.48 239.713 136.519 240.257L138.49 243.738ZM145.344 235.262C144.382 235.806 144.044 237.026 144.588 237.988C145.133 238.949 146.353 239.287 147.314 238.743L145.344 235.262ZM147.323 238.738C148.284 238.194 148.622 236.974 148.078 236.012C147.534 235.051 146.314 234.713 145.353 235.257L147.323 238.738ZM154.177 230.262C153.216 230.806 152.878 232.026 153.422 232.988C153.966 233.949 155.186 234.287 156.147 233.743L154.177 230.262ZM156.156 233.738C157.118 233.194 157.456 231.974 156.912 231.012C156.367 230.051 155.147 229.713 154.186 230.257L156.156 233.738ZM163.01 225.262C162.049 225.806 161.711 227.026 162.255 227.988C162.799 228.949 164.02 229.287 164.981 228.743L163.01 225.262ZM166 226.995C166 225.89 165.105 224.995 164 224.995C162.895 224.995 162 225.89 162 226.995H166ZM162 216.672C162 217.776 162.895 218.672 164 218.672C165.105 218.672 166 217.776 166 216.672H162ZM166 216.662C166 215.557 165.105 214.662 164 214.662C162.895 214.662 162 215.557 162 216.662H166ZM162 206.338C162 207.443 162.895 208.338 164 208.338C165.105 208.338 166 207.443 166 206.338H162ZM166 206.328C166 205.224 165.105 204.328 164 204.328C162.895 204.328 162 205.224 162 206.328H166ZM162 196.005C162 197.11 162.895 198.005 164 198.005C165.105 198.005 166 197.11 166 196.005H162ZM166 195.995C166 194.89 165.105 193.995 164 193.995C162.895 193.995 162 194.89 162 195.995H166ZM162 185.672C162 186.776 162.895 187.672 164 187.672C165.105 187.672 166 186.776 166 185.672H162ZM166 185.662C166 184.557 165.105 183.662 164 183.662C162.895 183.662 162 184.557 162 185.662H166ZM162 175.338C162 176.443 162.895 177.338 164 177.338C165.105 177.338 166 176.443 166 175.338H162ZM166 175.328C166 174.224 165.105 173.328 164 173.328C162.895 173.328 162 174.224 162 175.328H166ZM162 165.005C162 166.11 162.895 167.005 164 167.005C165.105 167.005 166 166.11 166 165.005H162ZM164.99 166.738C165.951 166.194 166.289 164.974 165.745 164.012C165.201 163.051 163.98 162.713 163.019 163.257L164.99 166.738ZM171.844 158.262C170.882 158.806 170.544 160.026 171.088 160.988C171.633 161.949 172.853 162.287 173.814 161.743L171.844 158.262ZM173.823 161.738C174.784 161.194 175.122 159.974 174.578 159.012C174.034 158.051 172.814 157.713 171.853 158.257L173.823 161.738ZM180.677 153.262C179.716 153.806 179.378 155.026 179.922 155.988C180.466 156.949 181.686 157.287 182.647 156.743L180.677 153.262ZM182.656 156.738C183.618 156.194 183.956 154.974 183.412 154.012C182.867 153.051 181.647 152.713 180.686 153.257L182.656 156.738ZM189.51 148.262C188.549 148.806 188.211 150.026 188.755 150.988C189.299 151.949 190.52 152.287 191.481 151.743L189.51 148.262ZM191.49 151.738C192.451 151.194 192.789 149.974 192.245 149.012C191.701 148.051 190.48 147.713 189.519 148.257L191.49 151.738ZM198.344 143.262C197.382 143.806 197.044 145.026 197.588 145.988C198.133 146.949 199.353 147.287 200.314 146.743L198.344 143.262ZM200.323 146.738C201.284 146.194 201.622 144.974 201.078 144.012C200.534 143.051 199.314 142.713 198.353 143.257L200.323 146.738ZM207.177 138.262C206.216 138.806 205.878 140.026 206.422 140.988C206.966 141.949 208.186 142.287 209.147 141.743L207.177 138.262ZM209.156 141.738C210.118 141.194 210.456 139.974 209.912 139.012C209.367 138.051 208.147 137.713 207.186 138.257L209.156 141.738ZM216.01 133.262C215.049 133.806 214.711 135.026 215.255 135.988C215.799 136.949 217.02 137.287 217.981 136.743L216.01 133.262ZM219 134.995C219 133.89 218.105 132.995 217 132.995C215.895 132.995 215 133.89 215 134.995H219ZM215 124.672C215 125.776 215.895 126.672 217 126.672C218.105 126.672 219 125.776 219 124.672H215ZM219 124.662C219 123.557 218.105 122.662 217 122.662C215.895 122.662 215 123.557 215 124.662H219ZM215 114.338C215 115.443 215.895 116.338 217 116.338C218.105 116.338 219 115.443 219 114.338H215ZM219 114.328C219 113.224 218.105 112.328 217 112.328C215.895 112.328 215 113.224 215 114.328H219ZM215 104.005C215 105.11 215.895 106.005 217 106.005C218.105 106.005 219 105.11 219 104.005H215ZM219 103.995C219 102.89 218.105 101.995 217 101.995C215.895 101.995 215 102.89 215 103.995H219ZM215 93.6718C215 94.7764 215.895 95.6718 217 95.6718C218.105 95.6718 219 94.7764 219 93.6718H215ZM219 93.6615C219 92.5569 218.105 91.6615 217 91.6615C215.895 91.6615 215 92.5569 215 93.6615H219ZM215 83.3385C215 84.4431 215.895 85.3385 217 85.3385C218.105 85.3385 219 84.4431 219 83.3385H215ZM219 83.3282C219 82.2236 218.105 81.3282 217 81.3282C215.895 81.3282 215 82.2236 215 83.3282H219ZM215 73.0052C215 74.1097 215.895 75.0052 217 75.0052C218.105 75.0052 219 74.1097 219 73.0052H215ZM217.99 74.738C218.951 74.1939 219.289 72.9736 218.745 72.0123C218.201 71.051 216.98 70.7129 216.019 71.257L217.99 74.738ZM224.844 66.262C223.882 66.8061 223.544 68.0264 224.088 68.9877C224.633 69.949 225.853 70.2871 226.814 69.743L224.844 66.262ZM226.823 69.738C227.784 69.1939 228.122 67.9736 227.578 67.0123C227.034 66.051 225.814 65.7129 224.853 66.257L226.823 69.738ZM233.677 61.262C232.716 61.8061 232.378 63.0264 232.922 63.9877C233.466 64.949 234.686 65.2871 235.647 64.743L233.677 61.262ZM235.656 64.738C236.618 64.1939 236.956 62.9736 236.412 62.0123C235.867 61.051 234.647 60.7129 233.686 61.257L235.656 64.738ZM242.51 56.262C241.549 56.8061 241.211 58.0264 241.755 58.9877C242.299 59.949 243.52 60.2871 244.481 59.743L242.51 56.262ZM244.49 59.738C245.451 59.1939 245.789 57.9736 245.245 57.0123C244.701 56.051 243.48 55.7129 242.519 56.257L244.49 59.738ZM251.344 51.262C250.382 51.8061 250.044 53.0264 250.588 53.9877C251.133 54.949 252.353 55.2871 253.314 54.743L251.344 51.262ZM253.323 54.738C254.284 54.1939 254.622 52.9736 254.078 52.0123C253.534 51.051 252.314 50.7129 251.353 51.257L253.323 54.738ZM260.177 46.262C259.216 46.8061 258.878 48.0264 259.422 48.9877C259.966 49.949 261.186 50.2871 262.147 49.743L260.177 46.262ZM262.156 49.738C263.118 49.1939 263.456 47.9736 262.912 47.0123C262.367 46.0511 261.147 45.7129 260.186 46.257L262.156 49.738ZM269.01 41.262C268.049 41.8061 267.711 43.0264 268.255 43.9877C268.799 44.949 270.02 45.2871 270.981 44.743L269.01 41.262ZM269.019 44.743C269.98 45.2871 271.201 44.949 271.745 43.9877C272.289 43.0264 271.951 41.8061 270.99 41.262L269.019 44.743ZM279.814 46.257C278.853 45.7129 277.633 46.051 277.088 47.0123C276.544 47.9736 276.882 49.1939 277.844 49.738L279.814 46.257ZM277.853 49.743C278.814 50.2871 280.034 49.949 280.578 48.9877C281.122 48.0264 280.784 46.8061 279.823 46.262L277.853 49.743ZM288.647 51.257C287.686 50.7129 286.466 51.051 285.922 52.0123C285.378 52.9736 285.716 54.1939 286.677 54.738L288.647 51.257ZM286.686 54.743C287.647 55.2871 288.867 54.949 289.412 53.9877C289.956 53.0264 289.618 51.8061 288.656 51.262L286.686 54.743ZM297.481 56.257C296.52 55.7129 295.299 56.051 294.755 57.0123C294.211 57.9736 294.549 59.1939 295.51 59.738L297.481 56.257ZM295.519 59.743C296.48 60.2871 297.701 59.949 298.245 58.9877C298.789 58.0264 298.451 56.8061 297.49 56.262L295.519 59.743ZM306.314 61.257C305.353 60.7129 304.133 61.051 303.588 62.0123C303.044 62.9736 303.382 64.1939 304.344 64.738L306.314 61.257ZM304.353 64.743C305.314 65.2871 306.534 64.949 307.078 63.9877C307.622 63.0264 307.284 61.8061 306.323 61.262L304.353 64.743ZM315.147 66.257C314.186 65.7129 312.966 66.051 312.422 67.0123C311.878 67.9736 312.216 69.1939 313.177 69.738L315.147 66.257ZM313.186 69.743C314.147 70.2871 315.367 69.9489 315.912 68.9877C316.456 68.0264 316.118 66.8061 315.156 66.262L313.186 69.743ZM323.981 71.257C323.02 70.7129 321.799 71.051 321.255 72.0123C320.711 72.9736 321.049 74.1939 322.01 74.738L323.981 71.257ZM321 73.0052C321 74.1097 321.895 75.0052 323 75.0052C324.105 75.0052 325 74.1097 325 73.0052H321ZM325 83.3282C325 82.2236 324.105 81.3282 323 81.3282C321.895 81.3282 321 82.2236 321 83.3282H325ZM321 83.3385C321 84.4431 321.895 85.3385 323 85.3385C324.105 85.3385 325 84.4431 325 83.3385H321ZM325 93.6615C325 92.5569 324.105 91.6615 323 91.6615C321.895 91.6615 321 92.5569 321 93.6615H325ZM321 93.6718C321 94.7764 321.895 95.6718 323 95.6718C324.105 95.6718 325 94.7764 325 93.6718H321ZM325 103.995C325 102.89 324.105 101.995 323 101.995C321.895 101.995 321 102.89 321 103.995H325ZM321 104.005C321 105.11 321.895 106.005 323 106.005C324.105 106.005 325 105.11 325 104.005H321ZM325 114.328C325 113.224 324.105 112.328 323 112.328C321.895 112.328 321 113.224 321 114.328H325ZM321 114.338C321 115.443 321.895 116.338 323 116.338C324.105 116.338 325 115.443 325 114.338H321ZM325 124.662C325 123.557 324.105 122.662 323 122.662C321.895 122.662 321 123.557 321 124.662H325ZM321 124.672C321 125.776 321.895 126.672 323 126.672C324.105 126.672 325 125.776 325 124.672H321ZM325 134.995C325 133.89 324.105 132.995 323 132.995C321.895 132.995 321 133.89 321 134.995H325ZM322.019 136.743C322.98 137.287 324.201 136.949 324.745 135.988C325.289 135.026 324.951 133.806 323.99 133.262L322.019 136.743ZM332.814 138.257C331.853 137.713 330.633 138.051 330.088 139.012C329.544 139.974 329.882 141.194 330.844 141.738L332.814 138.257ZM330.853 141.743C331.814 142.287 333.034 141.949 333.578 140.988C334.122 140.026 333.784 138.806 332.823 138.262L330.853 141.743ZM341.647 143.257C340.686 142.713 339.466 143.051 338.922 144.012C338.378 144.974 338.716 146.194 339.677 146.738L341.647 143.257ZM339.686 146.743C340.647 147.287 341.867 146.949 342.412 145.988C342.956 145.026 342.618 143.806 341.656 143.262L339.686 146.743ZM350.481 148.257C349.52 147.713 348.299 148.051 347.755 149.012C347.211 149.974 347.549 151.194 348.51 151.738L350.481 148.257ZM348.519 151.743C349.48 152.287 350.701 151.949 351.245 150.988C351.789 150.026 351.451 148.806 350.49 148.262L348.519 151.743ZM359.314 153.257C358.353 152.713 357.133 153.051 356.588 154.012C356.044 154.974 356.382 156.194 357.344 156.738L359.314 153.257ZM357.353 156.743C358.314 157.287 359.534 156.949 360.078 155.988C360.622 155.026 360.284 153.806 359.323 153.262L357.353 156.743ZM368.147 158.257C367.186 157.713 365.966 158.051 365.422 159.012C364.878 159.974 365.216 161.194 366.177 161.738L368.147 158.257ZM366.186 161.743C367.147 162.287 368.367 161.949 368.912 160.988C369.456 160.026 369.118 158.806 368.156 158.262L366.186 161.743ZM376.981 163.257C376.02 162.713 374.799 163.051 374.255 164.012C373.711 164.974 374.049 166.194 375.01 166.738L376.981 163.257ZM374 165.005C374 166.11 374.895 167.005 376 167.005C377.105 167.005 378 166.11 378 165.005H374ZM378 175.328C378 174.224 377.105 173.328 376 173.328C374.895 173.328 374 174.224 374 175.328H378ZM374 175.338C374 176.443 374.895 177.338 376 177.338C377.105 177.338 378 176.443 378 175.338H374ZM378 185.662C378 184.557 377.105 183.662 376 183.662C374.895 183.662 374 184.557 374 185.662H378ZM374 185.672C374 186.776 374.895 187.672 376 187.672C377.105 187.672 378 186.776 378 185.672H374ZM378 195.995C378 194.89 377.105 193.995 376 193.995C374.895 193.995 374 194.89 374 195.995H378ZM374 196.005C374 197.11 374.895 198.005 376 198.005C377.105 198.005 378 197.11 378 196.005H374ZM378 206.328C378 205.224 377.105 204.328 376 204.328C374.895 204.328 374 205.224 374 206.328H378ZM374 206.338C374 207.443 374.895 208.338 376 208.338C377.105 208.338 378 207.443 378 206.338H374ZM378 216.662C378 215.557 377.105 214.662 376 214.662C374.895 214.662 374 215.557 374 216.662H378ZM374 216.672C374 217.776 374.895 218.672 376 218.672C377.105 218.672 378 217.776 378 216.672H374ZM378 226.995C378 225.89 377.105 224.995 376 224.995C374.895 224.995 374 225.89 374 226.995H378ZM375.019 228.743C375.98 229.287 377.201 228.949 377.745 227.988C378.289 227.026 377.951 225.806 376.99 225.262L375.019 228.743ZM385.814 230.257C384.853 229.713 383.633 230.051 383.088 231.012C382.544 231.974 382.882 233.194 383.844 233.738L385.814 230.257ZM383.853 233.743C384.814 234.287 386.034 233.949 386.578 232.988C387.122 232.026 386.784 230.806 385.823 230.262L383.853 233.743ZM394.647 235.257C393.686 234.713 392.466 235.051 391.922 236.012C391.378 236.974 391.716 238.194 392.677 238.738L394.647 235.257ZM392.686 238.743C393.647 239.287 394.867 238.949 395.412 237.988C395.956 237.026 395.618 235.806 394.656 235.262L392.686 238.743ZM403.481 240.257C402.52 239.713 401.299 240.051 400.755 241.012C400.211 241.974 400.549 243.194 401.51 243.738L403.481 240.257ZM401.519 243.743C402.48 244.287 403.701 243.949 404.245 242.988C404.789 242.026 404.451 240.806 403.49 240.262L401.519 243.743ZM412.314 245.257C411.353 244.713 410.133 245.051 409.588 246.012C409.044 246.974 409.382 248.194 410.344 248.738L412.314 245.257ZM410.353 248.743C411.314 249.287 412.534 248.949 413.078 247.988C413.622 247.026 413.284 245.806 412.323 245.262L410.353 248.743ZM421.147 250.257C420.186 249.713 418.966 250.051 418.422 251.012C417.878 251.974 418.216 253.194 419.177 253.738L421.147 250.257ZM419.186 253.743C420.147 254.287 421.367 253.949 421.912 252.988C422.456 252.026 422.118 250.806 421.156 250.262L419.186 253.743ZM429.981 255.257C429.02 254.713 427.799 255.051 427.255 256.012C426.711 256.974 427.049 258.194 428.01 258.738L429.981 255.257ZM429.99 258.738C430.951 258.194 431.289 256.974 430.745 256.012C430.201 255.051 428.98 254.713 428.019 255.257L429.99 258.738ZM436.844 250.262C435.882 250.806 435.544 252.026 436.088 252.988C436.633 253.949 437.853 254.287 438.814 253.743L436.844 250.262ZM438.823 253.738C439.784 253.194 440.122 251.974 439.578 251.012C439.034 250.051 437.814 249.713 436.853 250.257L438.823 253.738ZM445.677 245.262C444.716 245.806 444.378 247.026 444.922 247.988C445.466 248.949 446.686 249.287 447.647 248.743L445.677 245.262ZM447.656 248.738C448.618 248.194 448.956 246.974 448.412 246.012C447.867 245.051 446.647 244.713 445.686 245.257L447.656 248.738ZM454.51 240.262C453.549 240.806 453.211 242.026 453.755 242.988C454.299 243.949 455.52 244.287 456.481 243.743L454.51 240.262ZM456.49 243.738C457.451 243.194 457.789 241.974 457.245 241.012C456.701 240.051 455.48 239.713 454.519 240.257L456.49 243.738ZM463.344 235.262C462.382 235.806 462.044 237.026 462.588 237.988C463.133 238.949 464.353 239.287 465.314 238.743L463.344 235.262ZM465.323 238.738C466.284 238.194 466.622 236.974 466.078 236.012C465.534 235.051 464.314 234.713 463.353 235.257L465.323 238.738ZM472.177 230.262C471.216 230.806 470.878 232.026 471.422 232.988C471.966 233.949 473.186 234.287 474.147 233.743L472.177 230.262ZM474.156 233.738C475.118 233.194 475.456 231.974 474.912 231.012C474.367 230.051 473.147 229.713 472.186 230.257L474.156 233.738ZM481.01 225.262C480.049 225.806 479.711 227.026 480.255 227.988C480.799 228.949 482.02 229.287 482.981 228.743L481.01 225.262ZM481.019 228.743C481.98 229.287 483.201 228.949 483.745 227.988C484.289 227.026 483.951 225.806 482.99 225.262L481.019 228.743ZM491.814 230.257C490.853 229.713 489.633 230.051 489.088 231.012C488.544 231.974 488.882 233.194 489.844 233.738L491.814 230.257ZM489.853 233.743C490.814 234.287 492.034 233.949 492.578 232.988C493.122 232.026 492.784 230.806 491.823 230.262L489.853 233.743ZM500.647 235.257C499.686 234.713 498.466 235.051 497.922 236.012C497.378 236.974 497.716 238.194 498.677 238.738L500.647 235.257ZM498.686 238.743C499.647 239.287 500.867 238.949 501.412 237.988C501.956 237.026 501.618 235.806 500.656 235.262L498.686 238.743ZM509.481 240.257C508.52 239.713 507.299 240.051 506.755 241.012C506.211 241.974 506.549 243.194 507.51 243.738L509.481 240.257ZM507.519 243.743C508.48 244.287 509.701 243.949 510.245 242.988C510.789 242.026 510.451 240.806 509.49 240.262L507.519 243.743ZM518.314 245.257C517.353 244.713 516.133 245.051 515.588 246.012C515.044 246.974 515.382 248.194 516.344 248.738L518.314 245.257ZM516.353 248.743C517.314 249.287 518.534 248.949 519.078 247.988C519.622 247.026 519.284 245.806 518.323 245.262L516.353 248.743ZM527.147 250.257C526.186 249.713 524.966 250.051 524.422 251.012C523.878 251.974 524.216 253.194 525.177 253.738L527.147 250.257ZM525.186 253.743C526.147 254.287 527.367 253.949 527.912 252.988C528.456 252.026 528.118 250.806 527.156 250.262L525.186 253.743ZM535.981 255.257C535.02 254.713 533.799 255.051 533.255 256.012C532.711 256.974 533.049 258.194 534.01 258.738L535.981 255.257ZM535.99 258.738C536.951 258.194 537.289 256.974 536.745 256.012C536.201 255.051 534.98 254.713 534.019 255.257L535.99 258.738ZM542.844 250.262C541.882 250.806 541.544 252.026 542.088 252.988C542.633 253.949 543.853 254.287 544.814 253.743L542.844 250.262ZM544.823 253.738C545.784 253.194 546.122 251.974 545.578 251.012C545.034 250.051 543.814 249.713 542.853 250.257L544.823 253.738ZM551.677 245.262C550.716 245.806 550.378 247.026 550.922 247.988C551.466 248.949 552.686 249.287 553.647 248.743L551.677 245.262ZM553.656 248.738C554.618 248.194 554.956 246.974 554.412 246.012C553.867 245.051 552.647 244.713 551.686 245.257L553.656 248.738ZM560.51 240.262C559.549 240.806 559.211 242.026 559.755 242.988C560.299 243.949 561.52 244.287 562.481 243.743L560.51 240.262ZM562.49 243.738C563.451 243.194 563.789 241.974 563.245 241.012C562.701 240.051 561.48 239.713 560.519 240.257L562.49 243.738ZM569.344 235.262C568.382 235.806 568.044 237.026 568.588 237.988C569.133 238.949 570.353 239.287 571.314 238.743L569.344 235.262ZM571.323 238.738C572.284 238.194 572.622 236.974 572.078 236.012C571.534 235.051 570.314 234.713 569.353 235.257L571.323 238.738ZM578.177 230.262C577.216 230.806 576.878 232.026 577.422 232.988C577.966 233.949 579.186 234.287 580.147 233.743L578.177 230.262ZM580.156 233.738C581.118 233.194 581.456 231.974 580.912 231.012C580.367 230.051 579.147 229.713 578.186 230.257L580.156 233.738ZM587.01 225.262C586.049 225.806 585.711 227.026 586.255 227.988C586.799 228.949 588.02 229.287 588.981 228.743L587.01 225.262ZM587.019 228.743C587.98 229.287 589.201 228.949 589.745 227.988C590.289 227.026 589.951 225.806 588.99 225.262L587.019 228.743ZM597.814 230.257C596.853 229.713 595.633 230.051 595.088 231.012C594.544 231.974 594.882 233.194 595.844 233.738L597.814 230.257ZM595.853 233.743C596.814 234.287 598.034 233.949 598.578 232.988C599.122 232.026 598.784 230.806 597.823 230.262L595.853 233.743ZM606.647 235.257C605.686 234.713 604.466 235.051 603.922 236.012C603.378 236.974 603.716 238.194 604.677 238.738L606.647 235.257ZM604.686 238.743C605.647 239.287 606.867 238.949 607.412 237.988C607.956 237.026 607.618 235.806 606.656 235.262L604.686 238.743ZM615.481 240.257C614.52 239.713 613.299 240.051 612.755 241.012C612.211 241.974 612.549 243.194 613.51 243.738L615.481 240.257ZM613.519 243.743C614.48 244.287 615.701 243.949 616.245 242.988C616.789 242.026 616.451 240.806 615.49 240.262L613.519 243.743ZM624.314 245.257C623.353 244.713 622.133 245.051 621.588 246.012C621.044 246.974 621.382 248.194 622.344 248.738L624.314 245.257ZM622.353 248.743C623.314 249.287 624.534 248.949 625.078 247.988C625.622 247.026 625.284 245.806 624.323 245.262L622.353 248.743ZM633.147 250.257C632.186 249.713 630.966 250.051 630.422 251.012C629.878 251.974 630.216 253.194 631.177 253.738L633.147 250.257ZM631.186 253.743C632.147 254.287 633.367 253.949 633.912 252.988C634.456 252.026 634.118 250.806 633.156 250.262L631.186 253.743ZM641.981 255.257C641.02 254.713 639.799 255.051 639.255 256.012C638.711 256.974 639.049 258.194 640.01 258.738L641.981 255.257ZM641.99 258.738C642.951 258.194 643.289 256.974 642.745 256.012C642.201 255.051 640.98 254.713 640.019 255.257L641.99 258.738ZM648.844 250.262C647.882 250.806 647.544 252.026 648.088 252.988C648.633 253.949 649.853 254.287 650.814 253.743L648.844 250.262ZM650.823 253.738C651.784 253.194 652.122 251.974 651.578 251.012C651.034 250.051 649.814 249.713 648.853 250.257L650.823 253.738ZM657.677 245.262C656.716 245.806 656.378 247.026 656.922 247.988C657.466 248.949 658.686 249.287 659.647 248.743L657.677 245.262ZM659.656 248.738C660.618 248.194 660.956 246.974 660.412 246.012C659.867 245.051 658.647 244.713 657.686 245.257L659.656 248.738ZM666.51 240.262C665.549 240.806 665.211 242.026 665.755 242.988C666.299 243.949 667.52 244.287 668.481 243.743L666.51 240.262ZM668.49 243.738C669.451 243.194 669.789 241.974 669.245 241.012C668.701 240.051 667.48 239.713 666.519 240.257L668.49 243.738ZM675.344 235.262C674.382 235.806 674.044 237.026 674.588 237.988C675.133 238.949 676.353 239.287 677.314 238.743L675.344 235.262ZM677.323 238.738C678.284 238.194 678.622 236.974 678.078 236.012C677.534 235.051 676.314 234.713 675.353 235.257L677.323 238.738ZM684.177 230.262C683.216 230.806 682.878 232.026 683.422 232.988C683.966 233.949 685.186 234.287 686.147 233.743L684.177 230.262ZM686.156 233.738C687.118 233.194 687.456 231.974 686.912 231.012C686.367 230.051 685.147 229.713 684.186 230.257L686.156 233.738ZM693.01 225.262C692.049 225.806 691.711 227.026 692.255 227.988C692.799 228.949 694.02 229.287 694.981 228.743L693.01 225.262ZM693.019 228.743C693.98 229.287 695.201 228.949 695.745 227.988C696.289 227.026 695.951 225.806 694.99 225.262L693.019 228.743ZM703.814 230.257C702.853 229.713 701.633 230.051 701.088 231.012C700.544 231.974 700.882 233.194 701.844 233.738L703.814 230.257ZM701.853 233.743C702.814 234.287 704.034 233.949 704.578 232.988C705.122 232.026 704.784 230.806 703.823 230.262L701.853 233.743ZM712.647 235.257C711.686 234.713 710.466 235.051 709.922 236.012C709.378 236.974 709.716 238.194 710.677 238.738L712.647 235.257ZM710.686 238.743C711.647 239.287 712.867 238.949 713.412 237.988C713.956 237.026 713.618 235.806 712.656 235.262L710.686 238.743ZM721.481 240.257C720.52 239.713 719.299 240.051 718.755 241.012C718.211 241.974 718.549 243.194 719.51 243.738L721.481 240.257ZM719.519 243.743C720.48 244.287 721.701 243.949 722.245 242.988C722.789 242.026 722.451 240.806 721.49 240.262L719.519 243.743ZM730.314 245.257C729.353 244.713 728.133 245.051 727.588 246.012C727.044 246.974 727.382 248.194 728.344 248.738L730.314 245.257ZM728.353 248.743C729.314 249.287 730.534 248.949 731.078 247.988C731.622 247.026 731.284 245.806 730.323 245.262L728.353 248.743ZM739.147 250.257C738.186 249.713 736.966 250.051 736.422 251.012C735.878 251.974 736.216 253.194 737.177 253.738L739.147 250.257ZM737.186 253.743C738.147 254.287 739.367 253.949 739.912 252.988C740.456 252.026 740.118 250.806 739.156 250.262L737.186 253.743ZM747.981 255.257C747.02 254.713 745.799 255.051 745.255 256.012C744.711 256.974 745.049 258.194 746.01 258.738L747.981 255.257ZM747.99 258.738C748.951 258.194 749.289 256.974 748.745 256.012C748.201 255.051 746.98 254.713 746.019 255.257L747.99 258.738ZM754.844 250.262C753.882 250.806 753.544 252.026 754.088 252.988C754.633 253.949 755.853 254.287 756.814 253.743L754.844 250.262ZM756.823 253.738C757.784 253.194 758.122 251.974 757.578 251.012C757.034 250.051 755.814 249.713 754.853 250.257L756.823 253.738ZM763.677 245.262C762.716 245.806 762.378 247.026 762.922 247.988C763.466 248.949 764.686 249.287 765.647 248.743L763.677 245.262ZM765.656 248.738C766.618 248.194 766.956 246.974 766.412 246.012C765.867 245.051 764.647 244.713 763.686 245.257L765.656 248.738ZM772.51 240.262C771.549 240.806 771.211 242.026 771.755 242.988C772.299 243.949 773.52 244.287 774.481 243.743L772.51 240.262ZM774.49 243.738C775.451 243.194 775.789 241.974 775.245 241.012C774.701 240.051 773.48 239.713 772.519 240.257L774.49 243.738ZM781.344 235.262C780.382 235.806 780.044 237.026 780.588 237.988C781.133 238.949 782.353 239.287 783.314 238.743L781.344 235.262ZM783.323 238.738C784.284 238.194 784.622 236.974 784.078 236.012C783.534 235.051 782.314 234.713 781.353 235.257L783.323 238.738ZM790.177 230.262C789.216 230.806 788.878 232.026 789.422 232.988C789.966 233.949 791.186 234.287 792.147 233.743L790.177 230.262ZM792.156 233.738C793.118 233.194 793.456 231.974 792.912 231.012C792.367 230.051 791.147 229.713 790.186 230.257L792.156 233.738ZM799.01 225.262C798.049 225.806 797.711 227.026 798.255 227.988C798.799 228.949 800.02 229.287 800.981 228.743L799.01 225.262ZM799.019 228.743C799.98 229.287 801.201 228.949 801.745 227.988C802.289 227.026 801.951 225.806 800.99 225.262L799.019 228.743ZM809.814 230.257C808.853 229.713 807.633 230.051 807.088 231.012C806.544 231.974 806.882 233.194 807.844 233.738L809.814 230.257ZM807.853 233.743C808.814 234.287 810.034 233.949 810.578 232.988C811.122 232.026 810.784 230.806 809.823 230.262L807.853 233.743ZM818.647 235.257C817.686 234.713 816.466 235.051 815.922 236.012C815.378 236.974 815.716 238.194 816.677 238.738L818.647 235.257ZM816.686 238.743C817.647 239.287 818.867 238.949 819.412 237.988C819.956 237.026 819.618 235.806 818.656 235.262L816.686 238.743ZM827.481 240.257C826.52 239.713 825.299 240.051 824.755 241.012C824.211 241.974 824.549 243.194 825.51 243.738L827.481 240.257ZM825.519 243.743C826.48 244.287 827.701 243.949 828.245 242.988C828.789 242.026 828.451 240.806 827.49 240.262L825.519 243.743ZM836.314 245.257C835.353 244.713 834.133 245.051 833.588 246.012C833.044 246.974 833.382 248.194 834.344 248.738L836.314 245.257ZM834.353 248.743C835.314 249.287 836.534 248.949 837.078 247.988C837.622 247.026 837.284 245.806 836.323 245.262L834.353 248.743ZM845.147 250.257C844.186 249.713 842.966 250.051 842.422 251.012C841.878 251.974 842.216 253.194 843.177 253.738L845.147 250.257ZM843.186 253.743C844.147 254.287 845.367 253.949 845.912 252.988C846.456 252.026 846.118 250.806 845.156 250.262L843.186 253.743ZM853.981 255.257C853.02 254.713 851.799 255.051 851.255 256.012C850.711 256.974 851.049 258.194 852.01 258.738L853.981 255.257ZM853.99 258.738C854.951 258.194 855.289 256.974 854.745 256.012C854.201 255.051 852.98 254.713 852.019 255.257L853.99 258.738ZM860.844 250.262C859.882 250.806 859.544 252.026 860.088 252.988C860.633 253.949 861.853 254.287 862.814 253.743L860.844 250.262ZM862.823 253.738C863.784 253.194 864.122 251.974 863.578 251.012C863.034 250.051 861.814 249.713 860.853 250.257L862.823 253.738ZM869.677 245.262C868.716 245.806 868.378 247.026 868.922 247.988C869.466 248.949 870.686 249.287 871.647 248.743L869.677 245.262ZM871.656 248.738C872.618 248.194 872.956 246.974 872.412 246.012C871.867 245.051 870.647 244.713 869.686 245.257L871.656 248.738ZM878.51 240.262C877.549 240.806 877.211 242.026 877.755 242.988C878.299 243.949 879.52 244.287 880.481 243.743L878.51 240.262ZM880.49 243.738C881.451 243.194 881.789 241.974 881.245 241.012C880.701 240.051 879.48 239.713 878.519 240.257L880.49 243.738ZM887.344 235.262C886.382 235.806 886.044 237.026 886.588 237.988C887.133 238.949 888.353 239.287 889.314 238.743L887.344 235.262ZM889.323 238.738C890.284 238.194 890.622 236.974 890.078 236.012C889.534 235.051 888.314 234.713 887.353 235.257L889.323 238.738ZM896.177 230.262C895.216 230.806 894.878 232.026 895.422 232.988C895.966 233.949 897.186 234.287 898.147 233.743L896.177 230.262ZM898.156 233.738C899.118 233.194 899.456 231.974 898.912 231.012C898.367 230.051 897.147 229.713 896.186 230.257L898.156 233.738ZM905.01 225.262C904.049 225.806 903.711 227.026 904.255 227.988C904.799 228.949 906.02 229.287 906.981 228.743L905.01 225.262ZM905.019 228.743C905.98 229.287 907.201 228.949 907.745 227.988C908.289 227.026 907.951 225.806 906.99 225.262L905.019 228.743ZM915.814 230.257C914.853 229.713 913.633 230.051 913.088 231.012C912.544 231.974 912.882 233.194 913.844 233.738L915.814 230.257ZM913.853 233.743C914.814 234.287 916.034 233.949 916.578 232.988C917.122 232.026 916.784 230.806 915.823 230.262L913.853 233.743ZM924.647 235.257C923.686 234.713 922.466 235.051 921.922 236.012C921.378 236.974 921.716 238.194 922.677 238.738L924.647 235.257ZM922.686 238.743C923.647 239.287 924.867 238.949 925.412 237.988C925.956 237.026 925.618 235.806 924.656 235.262L922.686 238.743ZM933.481 240.257C932.52 239.713 931.299 240.051 930.755 241.012C930.211 241.974 930.549 243.194 931.51 243.738L933.481 240.257ZM931.519 243.743C932.48 244.287 933.701 243.949 934.245 242.988C934.789 242.026 934.451 240.806 933.49 240.262L931.519 243.743ZM942.314 245.257C941.353 244.713 940.133 245.051 939.588 246.012C939.044 246.974 939.382 248.194 940.344 248.738L942.314 245.257ZM940.353 248.743C941.314 249.287 942.534 248.949 943.078 247.988C943.622 247.026 943.284 245.806 942.323 245.262L940.353 248.743ZM951.147 250.257C950.186 249.713 948.966 250.051 948.422 251.012C947.878 251.974 948.216 253.194 949.177 253.738L951.147 250.257ZM949.186 253.743C950.147 254.287 951.367 253.949 951.912 252.988C952.456 252.026 952.118 250.806 951.156 250.262L949.186 253.743ZM959.981 255.257C959.02 254.713 957.799 255.051 957.255 256.012C956.711 256.974 957.049 258.194 958.01 258.738L959.981 255.257ZM959.99 258.738C960.951 258.194 961.289 256.974 960.745 256.012C960.201 255.051 958.98 254.713 958.019 255.257L959.99 258.738ZM966.844 250.262C965.882 250.806 965.544 252.026 966.088 252.988C966.633 253.949 967.853 254.287 968.814 253.743L966.844 250.262ZM968.823 253.738C969.784 253.194 970.122 251.974 969.578 251.012C969.034 250.051 967.814 249.713 966.853 250.257L968.823 253.738ZM975.677 245.262C974.716 245.806 974.378 247.026 974.922 247.988C975.466 248.949 976.686 249.287 977.647 248.743L975.677 245.262ZM977.656 248.738C978.618 248.194 978.956 246.974 978.412 246.012C977.867 245.051 976.647 244.713 975.686 245.257L977.656 248.738ZM984.51 240.262C983.549 240.806 983.211 242.026 983.755 242.988C984.299 243.949 985.52 244.287 986.481 243.743L984.51 240.262ZM986.49 243.738C987.451 243.194 987.789 241.974 987.245 241.012C986.701 240.051 985.48 239.713 984.519 240.257L986.49 243.738ZM993.344 235.262C992.382 235.806 992.044 237.026 992.588 237.988C993.133 238.949 994.353 239.287 995.314 238.743L993.344 235.262ZM995.323 238.738C996.284 238.194 996.622 236.974 996.078 236.012C995.534 235.051 994.314 234.713 993.353 235.257L995.323 238.738ZM1002.18 230.262C1001.22 230.806 1000.88 232.026 1001.42 232.988C1001.97 233.949 1003.19 234.287 1004.15 233.743L1002.18 230.262ZM1004.16 233.738C1005.12 233.194 1005.46 231.974 1004.91 231.012C1004.37 230.051 1003.15 229.713 1002.19 230.257L1004.16 233.738ZM1011.01 225.262C1010.05 225.806 1009.71 227.026 1010.26 227.988C1010.8 228.949 1012.02 229.287 1012.98 228.743L1011.01 225.262ZM1011.02 228.743C1011.98 229.287 1013.2 228.949 1013.74 227.988C1014.29 227.026 1013.95 225.806 1012.99 225.262L1011.02 228.743ZM1021.81 230.257C1020.85 229.713 1019.63 230.051 1019.09 231.012C1018.54 231.974 1018.88 233.194 1019.84 233.738L1021.81 230.257ZM1019.85 233.743C1020.81 234.287 1022.03 233.949 1022.58 232.988C1023.12 232.026 1022.78 230.806 1021.82 230.262L1019.85 233.743ZM1030.65 235.257C1029.69 234.713 1028.47 235.051 1027.92 236.012C1027.38 236.974 1027.72 238.194 1028.68 238.738L1030.65 235.257ZM1028.69 238.743C1029.65 239.287 1030.87 238.949 1031.41 237.988C1031.96 237.026 1031.62 235.806 1030.66 235.262L1028.69 238.743ZM1039.48 240.257C1038.52 239.713 1037.3 240.051 1036.76 241.012C1036.21 241.974 1036.55 243.194 1037.51 243.738L1039.48 240.257ZM1037.52 243.743C1038.48 244.287 1039.7 243.949 1040.24 242.988C1040.79 242.026 1040.45 240.806 1039.49 240.262L1037.52 243.743ZM1048.31 245.257C1047.35 244.713 1046.13 245.051 1045.59 246.012C1045.04 246.974 1045.38 248.194 1046.34 248.738L1048.31 245.257ZM1046.35 248.743C1047.31 249.287 1048.53 248.949 1049.08 247.988C1049.62 247.026 1049.28 245.806 1048.32 245.262L1046.35 248.743ZM1057.15 250.257C1056.19 249.713 1054.97 250.051 1054.42 251.012C1053.88 251.974 1054.22 253.194 1055.18 253.738L1057.15 250.257ZM1055.19 253.743C1056.15 254.287 1057.37 253.949 1057.91 252.988C1058.46 252.026 1058.12 250.806 1057.16 250.262L1055.19 253.743ZM1065.98 255.257C1065.02 254.713 1063.8 255.051 1063.26 256.012C1062.71 256.974 1063.05 258.194 1064.01 258.738L1065.98 255.257ZM1065.99 258.738C1066.95 258.194 1067.29 256.974 1066.74 256.012C1066.2 255.051 1064.98 254.713 1064.02 255.257L1065.99 258.738ZM1072.84 250.262C1071.88 250.806 1071.54 252.026 1072.09 252.988C1072.63 253.949 1073.85 254.287 1074.81 253.743L1072.84 250.262ZM1074.82 253.738C1075.78 253.194 1076.12 251.974 1075.58 251.012C1075.03 250.051 1073.81 249.713 1072.85 250.257L1074.82 253.738ZM1081.68 245.262C1080.72 245.806 1080.38 247.026 1080.92 247.988C1081.47 248.949 1082.69 249.287 1083.65 248.743L1081.68 245.262ZM1083.66 248.738C1084.62 248.194 1084.96 246.974 1084.41 246.012C1083.87 245.051 1082.65 244.713 1081.69 245.257L1083.66 248.738ZM1090.51 240.262C1089.55 240.806 1089.21 242.026 1089.76 242.988C1090.3 243.949 1091.52 244.287 1092.48 243.743L1090.51 240.262ZM1092.49 243.738C1093.45 243.194 1093.79 241.974 1093.24 241.012C1092.7 240.051 1091.48 239.713 1090.52 240.257L1092.49 243.738ZM1099.34 235.262C1098.38 235.806 1098.04 237.026 1098.59 237.988C1099.13 238.949 1100.35 239.287 1101.31 238.743L1099.34 235.262ZM1101.32 238.738C1102.28 238.194 1102.62 236.974 1102.08 236.012C1101.53 235.051 1100.31 234.713 1099.35 235.257L1101.32 238.738ZM1108.18 230.262C1107.22 230.806 1106.88 232.026 1107.42 232.988C1107.97 233.949 1109.19 234.287 1110.15 233.743L1108.18 230.262ZM1110.16 233.738C1111.12 233.194 1111.46 231.974 1110.91 231.012C1110.37 230.051 1109.15 229.713 1108.19 230.257L1110.16 233.738ZM1117.01 225.262C1116.05 225.806 1115.71 227.026 1116.26 227.988C1116.8 228.949 1118.02 229.287 1118.98 228.743L1117.01 225.262ZM1117.02 228.743C1117.98 229.287 1119.2 228.949 1119.74 227.988C1120.29 227.026 1119.95 225.806 1118.99 225.262L1117.02 228.743ZM1127.81 230.257C1126.85 229.713 1125.63 230.051 1125.09 231.012C1124.54 231.974 1124.88 233.194 1125.84 233.738L1127.81 230.257ZM1125.85 233.743C1126.81 234.287 1128.03 233.949 1128.58 232.988C1129.12 232.026 1128.78 230.806 1127.82 230.262L1125.85 233.743ZM1136.65 235.257C1135.69 234.713 1134.47 235.051 1133.92 236.012C1133.38 236.974 1133.72 238.194 1134.68 238.738L1136.65 235.257ZM1134.69 238.743C1135.65 239.287 1136.87 238.949 1137.41 237.988C1137.96 237.026 1137.62 235.806 1136.66 235.262L1134.69 238.743ZM1145.48 240.257C1144.52 239.713 1143.3 240.051 1142.76 241.012C1142.21 241.974 1142.55 243.194 1143.51 243.738L1145.48 240.257ZM1143.52 243.743C1144.48 244.287 1145.7 243.949 1146.24 242.988C1146.79 242.026 1146.45 240.806 1145.49 240.262L1143.52 243.743ZM1154.31 245.257C1153.35 244.713 1152.13 245.051 1151.59 246.012C1151.04 246.974 1151.38 248.194 1152.34 248.738L1154.31 245.257ZM1152.35 248.743C1153.31 249.287 1154.53 248.949 1155.08 247.988C1155.62 247.026 1155.28 245.806 1154.32 245.262L1152.35 248.743ZM1163.15 250.257C1162.19 249.713 1160.97 250.051 1160.42 251.012C1159.88 251.974 1160.22 253.194 1161.18 253.738L1163.15 250.257ZM1161.19 253.743C1162.15 254.287 1163.37 253.949 1163.91 252.988C1164.46 252.026 1164.12 250.806 1163.16 250.262L1161.19 253.743ZM1171.98 255.257C1171.02 254.713 1169.8 255.051 1169.26 256.012C1168.71 256.974 1169.05 258.194 1170.01 258.738L1171.98 255.257ZM1171.99 258.738C1172.95 258.194 1173.29 256.974 1172.74 256.012C1172.2 255.051 1170.98 254.713 1170.02 255.257L1171.99 258.738ZM1178.84 250.262C1177.88 250.806 1177.54 252.026 1178.09 252.988C1178.63 253.949 1179.85 254.287 1180.81 253.743L1178.84 250.262ZM1180.82 253.738C1181.78 253.194 1182.12 251.974 1181.58 251.012C1181.03 250.051 1179.81 249.713 1178.85 250.257L1180.82 253.738ZM1187.68 245.262C1186.72 245.806 1186.38 247.026 1186.92 247.988C1187.47 248.949 1188.69 249.287 1189.65 248.743L1187.68 245.262ZM1189.66 248.738C1190.62 248.194 1190.96 246.974 1190.41 246.012C1189.87 245.051 1188.65 244.713 1187.69 245.257L1189.66 248.738ZM1196.51 240.262C1195.55 240.806 1195.21 242.026 1195.76 242.988C1196.3 243.949 1197.52 244.287 1198.48 243.743L1196.51 240.262ZM1198.49 243.738C1199.45 243.194 1199.79 241.974 1199.24 241.012C1198.7 240.051 1197.48 239.713 1196.52 240.257L1198.49 243.738ZM1205.34 235.262C1204.38 235.806 1204.04 237.026 1204.59 237.988C1205.13 238.949 1206.35 239.287 1207.31 238.743L1205.34 235.262ZM1207.32 238.738C1208.28 238.194 1208.62 236.974 1208.08 236.012C1207.53 235.051 1206.31 234.713 1205.35 235.257L1207.32 238.738ZM1214.18 230.262C1213.22 230.806 1212.88 232.026 1213.42 232.988C1213.97 233.949 1215.19 234.287 1216.15 233.743L1214.18 230.262ZM1216.16 233.738C1217.12 233.194 1217.46 231.974 1216.91 231.012C1216.37 230.051 1215.15 229.713 1214.19 230.257L1216.16 233.738ZM1223.01 225.262C1222.05 225.806 1221.71 227.026 1222.26 227.988C1222.8 228.949 1224.02 229.287 1224.98 228.743L1223.01 225.262ZM1226 226.995C1226 225.89 1225.1 224.995 1224 224.995C1222.9 224.995 1222 225.89 1222 226.995H1226ZM1222 216.672C1222 217.776 1222.9 218.672 1224 218.672C1225.1 218.672 1226 217.776 1226 216.672H1222ZM1226 216.662C1226 215.557 1225.1 214.662 1224 214.662C1222.9 214.662 1222 215.557 1222 216.662H1226ZM1222 206.338C1222 207.443 1222.9 208.338 1224 208.338C1225.1 208.338 1226 207.443 1226 206.338H1222ZM1226 206.328C1226 205.224 1225.1 204.328 1224 204.328C1222.9 204.328 1222 205.224 1222 206.328H1226ZM1222 196.005C1222 197.11 1222.9 198.005 1224 198.005C1225.1 198.005 1226 197.11 1226 196.005H1222ZM1226 195.995C1226 194.89 1225.1 193.995 1224 193.995C1222.9 193.995 1222 194.89 1222 195.995H1226ZM1222 185.672C1222 186.776 1222.9 187.672 1224 187.672C1225.1 187.672 1226 186.776 1226 185.672H1222ZM1226 185.662C1226 184.557 1225.1 183.662 1224 183.662C1222.9 183.662 1222 184.557 1222 185.662H1226ZM1222 175.338C1222 176.443 1222.9 177.338 1224 177.338C1225.1 177.338 1226 176.443 1226 175.338H1222ZM1226 175.328C1226 174.224 1225.1 173.328 1224 173.328C1222.9 173.328 1222 174.224 1222 175.328H1226ZM1222 165.005C1222 166.11 1222.9 167.005 1224 167.005C1225.1 167.005 1226 166.11 1226 165.005H1222ZM1224.99 166.738C1225.95 166.194 1226.29 164.974 1225.74 164.012C1225.2 163.051 1223.98 162.713 1223.02 163.257L1224.99 166.738ZM1231.84 158.262C1230.88 158.806 1230.54 160.026 1231.09 160.988C1231.63 161.949 1232.85 162.287 1233.81 161.743L1231.84 158.262ZM1233.82 161.738C1234.78 161.194 1235.12 159.974 1234.58 159.012C1234.03 158.051 1232.81 157.713 1231.85 158.257L1233.82 161.738ZM1240.68 153.262C1239.72 153.806 1239.38 155.026 1239.92 155.988C1240.47 156.949 1241.69 157.287 1242.65 156.743L1240.68 153.262ZM1242.66 156.738C1243.62 156.194 1243.96 154.974 1243.41 154.012C1242.87 153.051 1241.65 152.713 1240.69 153.257L1242.66 156.738ZM1249.51 148.262C1248.55 148.806 1248.21 150.026 1248.76 150.988C1249.3 151.949 1250.52 152.287 1251.48 151.743L1249.51 148.262ZM1251.49 151.738C1252.45 151.194 1252.79 149.974 1252.24 149.012C1251.7 148.051 1250.48 147.713 1249.52 148.257L1251.49 151.738ZM1258.34 143.262C1257.38 143.806 1257.04 145.026 1257.59 145.988C1258.13 146.949 1259.35 147.287 1260.31 146.743L1258.34 143.262ZM1260.32 146.738C1261.28 146.194 1261.62 144.974 1261.08 144.012C1260.53 143.051 1259.31 142.713 1258.35 143.257L1260.32 146.738ZM1267.18 138.262C1266.22 138.806 1265.88 140.026 1266.42 140.988C1266.97 141.949 1268.19 142.287 1269.15 141.743L1267.18 138.262ZM1269.16 141.738C1270.12 141.194 1270.46 139.974 1269.91 139.012C1269.37 138.051 1268.15 137.713 1267.19 138.257L1269.16 141.738ZM1276.01 133.262C1275.05 133.806 1274.71 135.026 1275.26 135.988C1275.8 136.949 1277.02 137.287 1277.98 136.743L1276.01 133.262ZM1279 134.995C1279 133.89 1278.1 132.995 1277 132.995C1275.9 132.995 1275 133.89 1275 134.995H1279ZM1275 124.672C1275 125.776 1275.9 126.672 1277 126.672C1278.1 126.672 1279 125.776 1279 124.672H1275ZM1279 124.662C1279 123.557 1278.1 122.662 1277 122.662C1275.9 122.662 1275 123.557 1275 124.662H1279ZM1275 114.338C1275 115.443 1275.9 116.338 1277 116.338C1278.1 116.338 1279 115.443 1279 114.338H1275ZM1279 114.328C1279 113.224 1278.1 112.328 1277 112.328C1275.9 112.328 1275 113.224 1275 114.328H1279ZM1275 104.005C1275 105.11 1275.9 106.005 1277 106.005C1278.1 106.005 1279 105.11 1279 104.005H1275ZM1279 103.995C1279 102.89 1278.1 101.995 1277 101.995C1275.9 101.995 1275 102.89 1275 103.995H1279ZM1275 93.6718C1275 94.7764 1275.9 95.6718 1277 95.6718C1278.1 95.6718 1279 94.7764 1279 93.6718H1275ZM1279 93.6615C1279 92.5569 1278.1 91.6615 1277 91.6615C1275.9 91.6615 1275 92.5569 1275 93.6615H1279ZM1275 83.3385C1275 84.4431 1275.9 85.3385 1277 85.3385C1278.1 85.3385 1279 84.4431 1279 83.3385H1275ZM1279 83.3282C1279 82.2236 1278.1 81.3282 1277 81.3282C1275.9 81.3282 1275 82.2236 1275 83.3282H1279ZM1275 73.0052C1275 74.1097 1275.9 75.0052 1277 75.0052C1278.1 75.0052 1279 74.1097 1279 73.0052H1275ZM1277.99 74.738C1278.95 74.1939 1279.29 72.9736 1278.74 72.0123C1278.2 71.051 1276.98 70.7129 1276.02 71.257L1277.99 74.738ZM1284.84 66.262C1283.88 66.8061 1283.54 68.0264 1284.09 68.9877C1284.63 69.949 1285.85 70.2871 1286.81 69.743L1284.84 66.262ZM1286.82 69.738C1287.78 69.1939 1288.12 67.9736 1287.58 67.0123C1287.03 66.051 1285.81 65.7129 1284.85 66.257L1286.82 69.738ZM1293.68 61.262C1292.72 61.8061 1292.38 63.0264 1292.92 63.9877C1293.47 64.949 1294.69 65.2871 1295.65 64.743L1293.68 61.262ZM1295.66 64.738C1296.62 64.1939 1296.96 62.9736 1296.41 62.0123C1295.87 61.051 1294.65 60.7129 1293.69 61.257L1295.66 64.738ZM1302.51 56.262C1301.55 56.8061 1301.21 58.0264 1301.76 58.9877C1302.3 59.949 1303.52 60.2871 1304.48 59.743L1302.51 56.262ZM1304.49 59.738C1305.45 59.1939 1305.79 57.9736 1305.24 57.0123C1304.7 56.051 1303.48 55.7129 1302.52 56.257L1304.49 59.738ZM1311.34 51.262C1310.38 51.8061 1310.04 53.0264 1310.59 53.9877C1311.13 54.949 1312.35 55.2871 1313.31 54.743L1311.34 51.262ZM1313.32 54.738C1314.28 54.1939 1314.62 52.9736 1314.08 52.0123C1313.53 51.051 1312.31 50.7129 1311.35 51.257L1313.32 54.738ZM1320.18 46.262C1319.22 46.8061 1318.88 48.0264 1319.42 48.9877C1319.97 49.949 1321.19 50.2871 1322.15 49.743L1320.18 46.262ZM1322.16 49.738C1323.12 49.1939 1323.46 47.9736 1322.91 47.0123C1322.37 46.0511 1321.15 45.7129 1320.19 46.257L1322.16 49.738ZM1329.01 41.262C1328.05 41.8061 1327.71 43.0264 1328.26 43.9877C1328.8 44.949 1330.02 45.2871 1330.98 44.743L1329.01 41.262ZM1329.02 44.743C1329.98 45.2871 1331.2 44.949 1331.74 43.9877C1332.29 43.0264 1331.95 41.8061 1330.99 41.262L1329.02 44.743ZM1339.81 46.257C1338.85 45.7129 1337.63 46.051 1337.09 47.0123C1336.54 47.9736 1336.88 49.1939 1337.84 49.738L1339.81 46.257ZM1337.85 49.743C1338.81 50.2871 1340.03 49.949 1340.58 48.9877C1341.12 48.0264 1340.78 46.8061 1339.82 46.262L1337.85 49.743ZM1348.65 51.257C1347.69 50.7129 1346.47 51.051 1345.92 52.0123C1345.38 52.9736 1345.72 54.1939 1346.68 54.738L1348.65 51.257ZM1346.69 54.743C1347.65 55.2871 1348.87 54.949 1349.41 53.9877C1349.96 53.0264 1349.62 51.8061 1348.66 51.262L1346.69 54.743ZM1357.48 56.257C1356.52 55.7129 1355.3 56.051 1354.76 57.0123C1354.21 57.9736 1354.55 59.1939 1355.51 59.738L1357.48 56.257ZM1355.52 59.743C1356.48 60.2871 1357.7 59.949 1358.24 58.9877C1358.79 58.0264 1358.45 56.8061 1357.49 56.262L1355.52 59.743ZM1366.31 61.257C1365.35 60.7129 1364.13 61.051 1363.59 62.0123C1363.04 62.9736 1363.38 64.1939 1364.34 64.738L1366.31 61.257ZM1364.35 64.743C1365.31 65.2871 1366.53 64.949 1367.08 63.9877C1367.62 63.0264 1367.28 61.8061 1366.32 61.262L1364.35 64.743ZM1375.15 66.257C1374.19 65.7129 1372.97 66.051 1372.42 67.0123C1371.88 67.9736 1372.22 69.1939 1373.18 69.738L1375.15 66.257ZM1373.19 69.743C1374.15 70.2871 1375.37 69.9489 1375.91 68.9877C1376.46 68.0264 1376.12 66.8061 1375.16 66.262L1373.19 69.743ZM1383.98 71.257C1383.02 70.7129 1381.8 71.051 1381.26 72.0123C1380.71 72.9736 1381.05 74.1939 1382.01 74.738L1383.98 71.257ZM1381 73.0052C1381 74.1097 1381.9 75.0052 1383 75.0052C1384.1 75.0052 1385 74.1097 1385 73.0052H1381ZM1385 83.3282C1385 82.2236 1384.1 81.3282 1383 81.3282C1381.9 81.3282 1381 82.2236 1381 83.3282H1385ZM1381 83.3385C1381 84.4431 1381.9 85.3385 1383 85.3385C1384.1 85.3385 1385 84.4431 1385 83.3385H1381ZM1385 93.6615C1385 92.5569 1384.1 91.6615 1383 91.6615C1381.9 91.6615 1381 92.5569 1381 93.6615H1385ZM1381 93.6718C1381 94.7764 1381.9 95.6718 1383 95.6718C1384.1 95.6718 1385 94.7764 1385 93.6718H1381ZM1385 103.995C1385 102.89 1384.1 101.995 1383 101.995C1381.9 101.995 1381 102.89 1381 103.995H1385ZM1381 104.005C1381 105.11 1381.9 106.005 1383 106.005C1384.1 106.005 1385 105.11 1385 104.005H1381ZM1385 114.328C1385 113.224 1384.1 112.328 1383 112.328C1381.9 112.328 1381 113.224 1381 114.328H1385ZM1381 114.338C1381 115.443 1381.9 116.338 1383 116.338C1384.1 116.338 1385 115.443 1385 114.338H1381ZM1385 124.662C1385 123.557 1384.1 122.662 1383 122.662C1381.9 122.662 1381 123.557 1381 124.662H1385ZM1381 124.672C1381 125.776 1381.9 126.672 1383 126.672C1384.1 126.672 1385 125.776 1385 124.672H1381ZM1385 134.995C1385 133.89 1384.1 132.995 1383 132.995C1381.9 132.995 1381 133.89 1381 134.995H1385ZM1382.02 136.743C1382.98 137.287 1384.2 136.949 1384.74 135.988C1385.29 135.026 1384.95 133.806 1383.99 133.262L1382.02 136.743ZM1392.81 138.257C1391.85 137.713 1390.63 138.051 1390.09 139.012C1389.54 139.974 1389.88 141.194 1390.84 141.738L1392.81 138.257ZM1390.85 141.743C1391.81 142.287 1393.03 141.949 1393.58 140.988C1394.12 140.026 1393.78 138.806 1392.82 138.262L1390.85 141.743ZM1401.65 143.257C1400.69 142.713 1399.47 143.051 1398.92 144.012C1398.38 144.974 1398.72 146.194 1399.68 146.738L1401.65 143.257ZM1399.69 146.743C1400.65 147.287 1401.87 146.949 1402.41 145.988C1402.96 145.026 1402.62 143.806 1401.66 143.262L1399.69 146.743ZM1410.48 148.257C1409.52 147.713 1408.3 148.051 1407.76 149.012C1407.21 149.974 1407.55 151.194 1408.51 151.738L1410.48 148.257ZM1408.52 151.743C1409.48 152.287 1410.7 151.949 1411.24 150.988C1411.79 150.026 1411.45 148.806 1410.49 148.262L1408.52 151.743ZM1419.31 153.257C1418.35 152.713 1417.13 153.051 1416.59 154.012C1416.04 154.974 1416.38 156.194 1417.34 156.738L1419.31 153.257ZM1417.35 156.743C1418.31 157.287 1419.53 156.949 1420.08 155.988C1420.62 155.026 1420.28 153.806 1419.32 153.262L1417.35 156.743ZM1428.15 158.257C1427.19 157.713 1425.97 158.051 1425.42 159.012C1424.88 159.974 1425.22 161.194 1426.18 161.738L1428.15 158.257ZM1426.19 161.743C1427.15 162.287 1428.37 161.949 1428.91 160.988C1429.46 160.026 1429.12 158.806 1428.16 158.262L1426.19 161.743ZM1436.98 163.257C1436.02 162.713 1434.8 163.051 1434.26 164.012C1433.71 164.974 1434.05 166.194 1435.01 166.738L1436.98 163.257ZM1434 165.005C1434 166.11 1434.9 167.005 1436 167.005C1437.1 167.005 1438 166.11 1438 165.005H1434ZM1438 175.328C1438 174.224 1437.1 173.328 1436 173.328C1434.9 173.328 1434 174.224 1434 175.328H1438ZM1434 175.338C1434 176.443 1434.9 177.338 1436 177.338C1437.1 177.338 1438 176.443 1438 175.338H1434ZM1438 185.662C1438 184.557 1437.1 183.662 1436 183.662C1434.9 183.662 1434 184.557 1434 185.662H1438ZM1434 185.672C1434 186.776 1434.9 187.672 1436 187.672C1437.1 187.672 1438 186.776 1438 185.672H1434ZM1438 195.995C1438 194.89 1437.1 193.995 1436 193.995C1434.9 193.995 1434 194.89 1434 195.995H1438ZM1434 196.005C1434 197.11 1434.9 198.005 1436 198.005C1437.1 198.005 1438 197.11 1438 196.005H1434ZM1438 206.328C1438 205.224 1437.1 204.328 1436 204.328C1434.9 204.328 1434 205.224 1434 206.328H1438ZM1434 206.338C1434 207.443 1434.9 208.338 1436 208.338C1437.1 208.338 1438 207.443 1438 206.338H1434ZM1438 216.662C1438 215.557 1437.1 214.662 1436 214.662C1434.9 214.662 1434 215.557 1434 216.662H1438ZM1434 216.672C1434 217.776 1434.9 218.672 1436 218.672C1437.1 218.672 1438 217.776 1438 216.672H1434ZM1438 226.995C1438 225.89 1437.1 224.995 1436 224.995C1434.9 224.995 1434 225.89 1434 226.995H1438ZM1435.02 228.743C1435.98 229.287 1437.2 228.949 1437.74 227.988C1438.29 227.026 1437.95 225.806 1436.99 225.262L1435.02 228.743ZM1445.81 230.257C1444.85 229.713 1443.63 230.051 1443.09 231.012C1442.54 231.974 1442.88 233.194 1443.84 233.738L1445.81 230.257ZM1443.85 233.743C1444.81 234.287 1446.03 233.949 1446.58 232.988C1447.12 232.026 1446.78 230.806 1445.82 230.262L1443.85 233.743ZM1454.65 235.257C1453.69 234.713 1452.47 235.051 1451.92 236.012C1451.38 236.974 1451.72 238.194 1452.68 238.738L1454.65 235.257ZM1452.69 238.743C1453.65 239.287 1454.87 238.949 1455.41 237.988C1455.96 237.026 1455.62 235.806 1454.66 235.262L1452.69 238.743ZM1463.48 240.257C1462.52 239.713 1461.3 240.051 1460.76 241.012C1460.21 241.974 1460.55 243.194 1461.51 243.738L1463.48 240.257ZM1461.52 243.743C1462.48 244.287 1463.7 243.949 1464.24 242.988C1464.79 242.026 1464.45 240.806 1463.49 240.262L1461.52 243.743ZM1472.31 245.257C1471.35 244.713 1470.13 245.051 1469.59 246.012C1469.04 246.974 1469.38 248.194 1470.34 248.738L1472.31 245.257ZM1470.35 248.743C1471.31 249.287 1472.53 248.949 1473.08 247.988C1473.62 247.026 1473.28 245.806 1472.32 245.262L1470.35 248.743ZM1481.15 250.257C1480.19 249.713 1478.97 250.051 1478.42 251.012C1477.88 251.974 1478.22 253.194 1479.18 253.738L1481.15 250.257ZM1479.19 253.743C1480.15 254.287 1481.37 253.949 1481.91 252.988C1482.46 252.026 1482.12 250.806 1481.16 250.262L1479.19 253.743ZM1489.98 255.257C1489.02 254.713 1487.8 255.051 1487.26 256.012C1486.71 256.974 1487.05 258.194 1488.01 258.738L1489.98 255.257ZM111.985 258.741L111.99 258.738L110.019 255.257L110.015 255.259L111.985 258.741ZM120.814 253.743L120.823 253.738L118.853 250.257L118.844 250.262L120.814 253.743ZM129.647 248.743L129.656 248.738L127.686 245.257L127.677 245.262L129.647 248.743ZM138.481 243.743L138.49 243.738L136.519 240.257L136.51 240.262L138.481 243.743ZM147.314 238.743L147.323 238.738L145.353 235.257L145.344 235.262L147.314 238.743ZM156.147 233.743L156.156 233.738L154.186 230.257L154.177 230.262L156.147 233.743ZM164.981 228.743L164.985 228.741L163.015 225.259L163.01 225.262L164.981 228.743ZM166 227V226.995H162V227H166ZM166 216.672V216.662H162V216.672H166ZM166 206.338V206.328H162V206.338H166ZM166 196.005V195.995H162V196.005H166ZM166 185.672V185.662H162V185.672H166ZM166 175.338V175.328H162V175.338H166ZM166 165.005V165H162V165.005H166ZM164.985 166.741L164.99 166.738L163.019 163.257L163.015 163.259L164.985 166.741ZM173.814 161.743L173.823 161.738L171.853 158.257L171.844 158.262L173.814 161.743ZM182.647 156.743L182.656 156.738L180.686 153.257L180.677 153.262L182.647 156.743ZM191.481 151.743L191.49 151.738L189.519 148.257L189.51 148.262L191.481 151.743ZM200.314 146.743L200.323 146.738L198.353 143.257L198.344 143.262L200.314 146.743ZM209.147 141.743L209.156 141.738L207.186 138.257L207.177 138.262L209.147 141.743ZM217.981 136.743L217.985 136.741L216.015 133.259L216.01 133.262L217.981 136.743ZM219 135V134.995H215V135H219ZM219 124.672V124.662H215V124.672H219ZM219 114.338V114.328H215V114.338H219ZM219 104.005V103.995H215V104.005H219ZM219 93.6718V93.6615H215V93.6718H219ZM219 83.3385V83.3282H215V83.3385H219ZM219 73.0052V73H215V73.0052H219ZM217.985 74.7405L217.99 74.738L216.019 71.257L216.015 71.2595L217.985 74.7405ZM226.814 69.743L226.823 69.738L224.853 66.257L224.844 66.262L226.814 69.743ZM235.647 64.743L235.656 64.738L233.686 61.257L233.677 61.262L235.647 64.743ZM244.481 59.743L244.49 59.738L242.519 56.257L242.51 56.262L244.481 59.743ZM253.314 54.743L253.323 54.738L251.353 51.257L251.344 51.262L253.314 54.743ZM262.147 49.743L262.156 49.738L260.186 46.257L260.177 46.262L262.147 49.743ZM270.981 44.743L270.985 44.7405L269.015 41.2595L269.01 41.262L270.981 44.743ZM269.015 44.7405L269.019 44.743L270.99 41.262L270.985 41.2595L269.015 44.7405ZM277.844 49.738L277.853 49.743L279.823 46.262L279.814 46.257L277.844 49.738ZM286.677 54.738L286.686 54.743L288.656 51.262L288.647 51.257L286.677 54.738ZM295.51 59.738L295.519 59.743L297.49 56.262L297.481 56.257L295.51 59.738ZM304.344 64.738L304.353 64.743L306.323 61.262L306.314 61.257L304.344 64.738ZM313.177 69.738L313.186 69.743L315.156 66.262L315.147 66.257L313.177 69.738ZM322.01 74.738L322.015 74.7405L323.985 71.2595L323.981 71.257L322.01 74.738ZM321 73V73.0052H325V73H321ZM321 83.3282V83.3385H325V83.3282H321ZM321 93.6615V93.6718H325V93.6615H321ZM321 103.995V104.005H325V103.995H321ZM321 114.328V114.338H325V114.328H321ZM321 124.662V124.672H325V124.662H321ZM321 134.995V135H325V134.995H321ZM322.015 136.741L322.019 136.743L323.99 133.262L323.985 133.259L322.015 136.741ZM330.844 141.738L330.853 141.743L332.823 138.262L332.814 138.257L330.844 141.738ZM339.677 146.738L339.686 146.743L341.656 143.262L341.647 143.257L339.677 146.738ZM348.51 151.738L348.519 151.743L350.49 148.262L350.481 148.257L348.51 151.738ZM357.344 156.738L357.353 156.743L359.323 153.262L359.314 153.257L357.344 156.738ZM366.177 161.738L366.186 161.743L368.156 158.262L368.147 158.257L366.177 161.738ZM375.01 166.738L375.015 166.741L376.985 163.259L376.981 163.257L375.01 166.738ZM374 165V165.005H378V165H374ZM374 175.328V175.338H378V175.328H374ZM374 185.662V185.672H378V185.662H374ZM374 195.995V196.005H378V195.995H374ZM374 206.328V206.338H378V206.328H374ZM374 216.662V216.672H378V216.662H374ZM374 226.995V227H378V226.995H374ZM375.015 228.741L375.019 228.743L376.99 225.262L376.985 225.259L375.015 228.741ZM383.844 233.738L383.853 233.743L385.823 230.262L385.814 230.257L383.844 233.738ZM392.677 238.738L392.686 238.743L394.656 235.262L394.647 235.257L392.677 238.738ZM401.51 243.738L401.519 243.743L403.49 240.262L403.481 240.257L401.51 243.738ZM410.344 248.738L410.353 248.743L412.323 245.262L412.314 245.257L410.344 248.738ZM419.177 253.738L419.186 253.743L421.156 250.262L421.147 250.257L419.177 253.738ZM428.01 258.738L428.015 258.741L429.985 255.259L429.981 255.257L428.01 258.738ZM429.985 258.741L429.99 258.738L428.019 255.257L428.015 255.259L429.985 258.741ZM438.814 253.743L438.823 253.738L436.853 250.257L436.844 250.262L438.814 253.743ZM447.647 248.743L447.656 248.738L445.686 245.257L445.677 245.262L447.647 248.743ZM456.481 243.743L456.49 243.738L454.519 240.257L454.51 240.262L456.481 243.743ZM465.314 238.743L465.323 238.738L463.353 235.257L463.344 235.262L465.314 238.743ZM474.147 233.743L474.156 233.738L472.186 230.257L472.177 230.262L474.147 233.743ZM482.981 228.743L482.985 228.741L481.015 225.259L481.01 225.262L482.981 228.743ZM481.015 228.741L481.019 228.743L482.99 225.262L482.985 225.259L481.015 228.741ZM489.844 233.738L489.853 233.743L491.823 230.262L491.814 230.257L489.844 233.738ZM498.677 238.738L498.686 238.743L500.656 235.262L500.647 235.257L498.677 238.738ZM507.51 243.738L507.519 243.743L509.49 240.262L509.481 240.257L507.51 243.738ZM516.344 248.738L516.353 248.743L518.323 245.262L518.314 245.257L516.344 248.738ZM525.177 253.738L525.186 253.743L527.156 250.262L527.147 250.257L525.177 253.738ZM534.01 258.738L534.015 258.741L535.985 255.259L535.981 255.257L534.01 258.738ZM535.985 258.741L535.99 258.738L534.019 255.257L534.015 255.259L535.985 258.741ZM544.814 253.743L544.823 253.738L542.853 250.257L542.844 250.262L544.814 253.743ZM553.647 248.743L553.656 248.738L551.686 245.257L551.677 245.262L553.647 248.743ZM562.481 243.743L562.49 243.738L560.519 240.257L560.51 240.262L562.481 243.743ZM571.314 238.743L571.323 238.738L569.353 235.257L569.344 235.262L571.314 238.743ZM580.147 233.743L580.156 233.738L578.186 230.257L578.177 230.262L580.147 233.743ZM588.981 228.743L588.985 228.741L587.015 225.259L587.01 225.262L588.981 228.743ZM587.015 228.741L587.019 228.743L588.99 225.262L588.985 225.259L587.015 228.741ZM595.844 233.738L595.853 233.743L597.823 230.262L597.814 230.257L595.844 233.738ZM604.677 238.738L604.686 238.743L606.656 235.262L606.647 235.257L604.677 238.738ZM613.51 243.738L613.519 243.743L615.49 240.262L615.481 240.257L613.51 243.738ZM622.344 248.738L622.353 248.743L624.323 245.262L624.314 245.257L622.344 248.738ZM631.177 253.738L631.186 253.743L633.156 250.262L633.147 250.257L631.177 253.738ZM640.01 258.738L640.015 258.741L641.985 255.259L641.981 255.257L640.01 258.738ZM641.985 258.741L641.99 258.738L640.019 255.257L640.015 255.259L641.985 258.741ZM650.814 253.743L650.823 253.738L648.853 250.257L648.844 250.262L650.814 253.743ZM659.647 248.743L659.656 248.738L657.686 245.257L657.677 245.262L659.647 248.743ZM668.481 243.743L668.49 243.738L666.519 240.257L666.51 240.262L668.481 243.743ZM677.314 238.743L677.323 238.738L675.353 235.257L675.344 235.262L677.314 238.743ZM686.147 233.743L686.156 233.738L684.186 230.257L684.177 230.262L686.147 233.743ZM694.981 228.743L694.985 228.741L693.015 225.259L693.01 225.262L694.981 228.743ZM693.015 228.741L693.019 228.743L694.99 225.262L694.985 225.259L693.015 228.741ZM701.844 233.738L701.853 233.743L703.823 230.262L703.814 230.257L701.844 233.738ZM710.677 238.738L710.686 238.743L712.656 235.262L712.647 235.257L710.677 238.738ZM719.51 243.738L719.519 243.743L721.49 240.262L721.481 240.257L719.51 243.738ZM728.344 248.738L728.353 248.743L730.323 245.262L730.314 245.257L728.344 248.738ZM737.177 253.738L737.186 253.743L739.156 250.262L739.147 250.257L737.177 253.738ZM746.01 258.738L746.015 258.741L747.985 255.259L747.981 255.257L746.01 258.738ZM747.985 258.741L747.99 258.738L746.019 255.257L746.015 255.259L747.985 258.741ZM756.814 253.743L756.823 253.738L754.853 250.257L754.844 250.262L756.814 253.743ZM765.647 248.743L765.656 248.738L763.686 245.257L763.677 245.262L765.647 248.743ZM774.481 243.743L774.49 243.738L772.519 240.257L772.51 240.262L774.481 243.743ZM783.314 238.743L783.323 238.738L781.353 235.257L781.344 235.262L783.314 238.743ZM792.147 233.743L792.156 233.738L790.186 230.257L790.177 230.262L792.147 233.743ZM800.981 228.743L800.985 228.741L799.015 225.259L799.01 225.262L800.981 228.743ZM799.015 228.741L799.019 228.743L800.99 225.262L800.985 225.259L799.015 228.741ZM807.844 233.738L807.853 233.743L809.823 230.262L809.814 230.257L807.844 233.738ZM816.677 238.738L816.686 238.743L818.656 235.262L818.647 235.257L816.677 238.738ZM825.51 243.738L825.519 243.743L827.49 240.262L827.481 240.257L825.51 243.738ZM834.344 248.738L834.353 248.743L836.323 245.262L836.314 245.257L834.344 248.738ZM843.177 253.738L843.186 253.743L845.156 250.262L845.147 250.257L843.177 253.738ZM852.01 258.738L852.015 258.741L853.985 255.259L853.981 255.257L852.01 258.738ZM853.985 258.741L853.99 258.738L852.019 255.257L852.015 255.259L853.985 258.741ZM862.814 253.743L862.823 253.738L860.853 250.257L860.844 250.262L862.814 253.743ZM871.647 248.743L871.656 248.738L869.686 245.257L869.677 245.262L871.647 248.743ZM880.481 243.743L880.49 243.738L878.519 240.257L878.51 240.262L880.481 243.743ZM889.314 238.743L889.323 238.738L887.353 235.257L887.344 235.262L889.314 238.743ZM898.147 233.743L898.156 233.738L896.186 230.257L896.177 230.262L898.147 233.743ZM906.981 228.743L906.985 228.741L905.015 225.259L905.01 225.262L906.981 228.743ZM905.015 228.741L905.019 228.743L906.99 225.262L906.985 225.259L905.015 228.741ZM913.844 233.738L913.853 233.743L915.823 230.262L915.814 230.257L913.844 233.738ZM922.677 238.738L922.686 238.743L924.656 235.262L924.647 235.257L922.677 238.738ZM931.51 243.738L931.519 243.743L933.49 240.262L933.481 240.257L931.51 243.738ZM940.344 248.738L940.353 248.743L942.323 245.262L942.314 245.257L940.344 248.738ZM949.177 253.738L949.186 253.743L951.156 250.262L951.147 250.257L949.177 253.738ZM958.01 258.738L958.015 258.741L959.985 255.259L959.981 255.257L958.01 258.738ZM959.985 258.741L959.99 258.738L958.019 255.257L958.015 255.259L959.985 258.741ZM968.814 253.743L968.823 253.738L966.853 250.257L966.844 250.262L968.814 253.743ZM977.647 248.743L977.656 248.738L975.686 245.257L975.677 245.262L977.647 248.743ZM986.481 243.743L986.49 243.738L984.519 240.257L984.51 240.262L986.481 243.743ZM995.314 238.743L995.323 238.738L993.353 235.257L993.344 235.262L995.314 238.743ZM1004.15 233.743L1004.16 233.738L1002.19 230.257L1002.18 230.262L1004.15 233.743ZM1012.98 228.743L1012.99 228.741L1011.01 225.259L1011.01 225.262L1012.98 228.743ZM1011.01 228.741L1011.02 228.743L1012.99 225.262L1012.99 225.259L1011.01 228.741ZM1019.84 233.738L1019.85 233.743L1021.82 230.262L1021.81 230.257L1019.84 233.738ZM1028.68 238.738L1028.69 238.743L1030.66 235.262L1030.65 235.257L1028.68 238.738ZM1037.51 243.738L1037.52 243.743L1039.49 240.262L1039.48 240.257L1037.51 243.738ZM1046.34 248.738L1046.35 248.743L1048.32 245.262L1048.31 245.257L1046.34 248.738ZM1055.18 253.738L1055.19 253.743L1057.16 250.262L1057.15 250.257L1055.18 253.738ZM1064.01 258.738L1064.01 258.741L1065.99 255.259L1065.98 255.257L1064.01 258.738ZM1065.99 258.741L1065.99 258.738L1064.02 255.257L1064.01 255.259L1065.99 258.741ZM1074.81 253.743L1074.82 253.738L1072.85 250.257L1072.84 250.262L1074.81 253.743ZM1083.65 248.743L1083.66 248.738L1081.69 245.257L1081.68 245.262L1083.65 248.743ZM1092.48 243.743L1092.49 243.738L1090.52 240.257L1090.51 240.262L1092.48 243.743ZM1101.31 238.743L1101.32 238.738L1099.35 235.257L1099.34 235.262L1101.31 238.743ZM1110.15 233.743L1110.16 233.738L1108.19 230.257L1108.18 230.262L1110.15 233.743ZM1118.98 228.743L1118.99 228.741L1117.01 225.259L1117.01 225.262L1118.98 228.743ZM1117.01 228.741L1117.02 228.743L1118.99 225.262L1118.99 225.259L1117.01 228.741ZM1125.84 233.738L1125.85 233.743L1127.82 230.262L1127.81 230.257L1125.84 233.738ZM1134.68 238.738L1134.69 238.743L1136.66 235.262L1136.65 235.257L1134.68 238.738ZM1143.51 243.738L1143.52 243.743L1145.49 240.262L1145.48 240.257L1143.51 243.738ZM1152.34 248.738L1152.35 248.743L1154.32 245.262L1154.31 245.257L1152.34 248.738ZM1161.18 253.738L1161.19 253.743L1163.16 250.262L1163.15 250.257L1161.18 253.738ZM1170.01 258.738L1170.01 258.741L1171.99 255.259L1171.98 255.257L1170.01 258.738ZM1171.99 258.741L1171.99 258.738L1170.02 255.257L1170.01 255.259L1171.99 258.741ZM1180.81 253.743L1180.82 253.738L1178.85 250.257L1178.84 250.262L1180.81 253.743ZM1189.65 248.743L1189.66 248.738L1187.69 245.257L1187.68 245.262L1189.65 248.743ZM1198.48 243.743L1198.49 243.738L1196.52 240.257L1196.51 240.262L1198.48 243.743ZM1207.31 238.743L1207.32 238.738L1205.35 235.257L1205.34 235.262L1207.31 238.743ZM1216.15 233.743L1216.16 233.738L1214.19 230.257L1214.18 230.262L1216.15 233.743ZM1224.98 228.743L1224.99 228.741L1223.01 225.259L1223.01 225.262L1224.98 228.743ZM1226 227V226.995H1222V227H1226ZM1226 216.672V216.662H1222V216.672H1226ZM1226 206.338V206.328H1222V206.338H1226ZM1226 196.005V195.995H1222V196.005H1226ZM1226 185.672V185.662H1222V185.672H1226ZM1226 175.338V175.328H1222V175.338H1226ZM1226 165.005V165H1222V165.005H1226ZM1224.99 166.741L1224.99 166.738L1223.02 163.257L1223.01 163.259L1224.99 166.741ZM1233.81 161.743L1233.82 161.738L1231.85 158.257L1231.84 158.262L1233.81 161.743ZM1242.65 156.743L1242.66 156.738L1240.69 153.257L1240.68 153.262L1242.65 156.743ZM1251.48 151.743L1251.49 151.738L1249.52 148.257L1249.51 148.262L1251.48 151.743ZM1260.31 146.743L1260.32 146.738L1258.35 143.257L1258.34 143.262L1260.31 146.743ZM1269.15 141.743L1269.16 141.738L1267.19 138.257L1267.18 138.262L1269.15 141.743ZM1277.98 136.743L1277.99 136.741L1276.01 133.259L1276.01 133.262L1277.98 136.743ZM1279 135V134.995H1275V135H1279ZM1279 124.672V124.662H1275V124.672H1279ZM1279 114.338V114.328H1275V114.338H1279ZM1279 104.005V103.995H1275V104.005H1279ZM1279 93.6718V93.6615H1275V93.6718H1279ZM1279 83.3385V83.3282H1275V83.3385H1279ZM1279 73.0052V73H1275V73.0052H1279ZM1277.99 74.7405L1277.99 74.738L1276.02 71.257L1276.01 71.2595L1277.99 74.7405ZM1286.81 69.743L1286.82 69.738L1284.85 66.257L1284.84 66.262L1286.81 69.743ZM1295.65 64.743L1295.66 64.738L1293.69 61.257L1293.68 61.262L1295.65 64.743ZM1304.48 59.743L1304.49 59.738L1302.52 56.257L1302.51 56.262L1304.48 59.743ZM1313.31 54.743L1313.32 54.738L1311.35 51.257L1311.34 51.262L1313.31 54.743ZM1322.15 49.743L1322.16 49.738L1320.19 46.257L1320.18 46.262L1322.15 49.743ZM1330.98 44.743L1330.99 44.7405L1329.01 41.2595L1329.01 41.262L1330.98 44.743ZM1329.01 44.7405L1329.02 44.743L1330.99 41.262L1330.99 41.2595L1329.01 44.7405ZM1337.84 49.738L1337.85 49.743L1339.82 46.262L1339.81 46.257L1337.84 49.738ZM1346.68 54.738L1346.69 54.743L1348.66 51.262L1348.65 51.257L1346.68 54.738ZM1355.51 59.738L1355.52 59.743L1357.49 56.262L1357.48 56.257L1355.51 59.738ZM1364.34 64.738L1364.35 64.743L1366.32 61.262L1366.31 61.257L1364.34 64.738ZM1373.18 69.738L1373.19 69.743L1375.16 66.262L1375.15 66.257L1373.18 69.738ZM1382.01 74.738L1382.01 74.7405L1383.99 71.2595L1383.98 71.257L1382.01 74.738ZM1381 73V73.0052H1385V73H1381ZM1381 83.3282V83.3385H1385V83.3282H1381ZM1381 93.6615V93.6718H1385V93.6615H1381ZM1381 103.995V104.005H1385V103.995H1381ZM1381 114.328V114.338H1385V114.328H1381ZM1381 124.662V124.672H1385V124.662H1381ZM1381 134.995V135H1385V134.995H1381ZM1382.01 136.741L1382.02 136.743L1383.99 133.262L1383.99 133.259L1382.01 136.741ZM1390.84 141.738L1390.85 141.743L1392.82 138.262L1392.81 138.257L1390.84 141.738ZM1399.68 146.738L1399.69 146.743L1401.66 143.262L1401.65 143.257L1399.68 146.738ZM1408.51 151.738L1408.52 151.743L1410.49 148.262L1410.48 148.257L1408.51 151.738ZM1417.34 156.738L1417.35 156.743L1419.32 153.262L1419.31 153.257L1417.34 156.738ZM1426.18 161.738L1426.19 161.743L1428.16 158.262L1428.15 158.257L1426.18 161.738ZM1435.01 166.738L1435.01 166.741L1436.99 163.259L1436.98 163.257L1435.01 166.738ZM1434 165V165.005H1438V165H1434ZM1434 175.328V175.338H1438V175.328H1434ZM1434 185.662V185.672H1438V185.662H1434ZM1434 195.995V196.005H1438V195.995H1434ZM1434 206.328V206.338H1438V206.328H1434ZM1434 216.662V216.672H1438V216.662H1434ZM1434 226.995V227H1438V226.995H1434ZM1435.01 228.741L1435.02 228.743L1436.99 225.262L1436.99 225.259L1435.01 228.741ZM1443.84 233.738L1443.85 233.743L1445.82 230.262L1445.81 230.257L1443.84 233.738ZM1452.68 238.738L1452.69 238.743L1454.66 235.262L1454.65 235.257L1452.68 238.738ZM1461.51 243.738L1461.52 243.743L1463.49 240.262L1463.48 240.257L1461.51 243.738ZM1470.34 248.738L1470.35 248.743L1472.32 245.262L1472.31 245.257L1470.34 248.738ZM1479.18 253.738L1479.19 253.743L1481.16 250.262L1481.15 250.257L1479.18 253.738ZM1488.01 258.738L1488.01 258.741L1489.99 255.259L1489.98 255.257L1488.01 258.738Z" fill="#FFE100"/>
<path d="M376 43L429 73V135L482 165" stroke="url(#paint1_linear_1_3)"/>
<path d="M1224 43L1171 73V135L1118 165" stroke="url(#paint2_linear_1_3)"/>
<path d="M1330 143.141L1349 153.591V176.409L1330 186.859L1311 176.409V153.591L1330 143.141Z" stroke="#1A1A1A" stroke-width="2"/>
<path d="M270 143.141L289 153.591V176.409L270 186.859L251 176.409V153.591L270 143.141Z" stroke="#1A1A1A" stroke-width="2"/>
<path d="M1403 245V269L1383 280L1363 269V245L1383 234L1403 245Z" fill="#1A1A1A"/>
<path d="M1383 300V279" stroke="url(#paint3_linear_1_3)"/>
<path d="M237 245V269L217 280L197 269V245L217 234L237 245Z" fill="#1A1A1A"/>
<path d="M217 300V279" stroke="url(#paint4_linear_1_3)"/>
<path d="M1297 245V269L1277 280L1257 269V245L1277 234L1297 245Z" fill="#FFE100"/>
<path d="M1277 300V279" stroke="url(#paint5_linear_1_3)"/>
<path d="M343 245V269L323 280L303 269V245L323 234L343 245Z" fill="#FFE100"/>
<path d="M323 300V279" stroke="url(#paint6_linear_1_3)"/>
<defs>
<linearGradient id="paint0_linear_1_3" x1="1600" y1="150" x2="0" y2="150" gradientUnits="userSpaceOnUse">
<stop offset="0.0356456" stop-color="#FFE100" stop-opacity="0"/>
<stop offset="0.102579" stop-color="#FFE100"/>
<stop offset="0.897512" stop-color="#FFE100"/>
<stop offset="0.963737" stop-color="#FFE100" stop-opacity="0"/>
</linearGradient>
<linearGradient id="paint1_linear_1_3" x1="376" y1="43" x2="482.099" y2="164.914" gradientUnits="userSpaceOnUse">
<stop stop-color="#1A1A1A" stop-opacity="0"/>
<stop offset="0.526042" stop-color="#1A1A1A"/>
<stop offset="1" stop-color="#1A1A1A" stop-opacity="0"/>
</linearGradient>
<linearGradient id="paint2_linear_1_3" x1="1224" y1="43" x2="1117.9" y2="164.914" gradientUnits="userSpaceOnUse">
<stop stop-color="#1A1A1A" stop-opacity="0"/>
<stop offset="0.526042" stop-color="#1A1A1A"/>
<stop offset="1" stop-color="#1A1A1A" stop-opacity="0"/>
</linearGradient>
<linearGradient id="paint3_linear_1_3" x1="1383" y1="279" x2="1383" y2="300" gradientUnits="userSpaceOnUse">
<stop stop-color="#1A1A1A"/>
<stop offset="1" stop-color="#1A1A1A" stop-opacity="0"/>
</linearGradient>
<linearGradient id="paint4_linear_1_3" x1="217" y1="279" x2="217" y2="300" gradientUnits="userSpaceOnUse">
<stop stop-color="#1A1A1A"/>
<stop offset="1" stop-color="#1A1A1A" stop-opacity="0"/>
</linearGradient>
<linearGradient id="paint5_linear_1_3" x1="1277" y1="279" x2="1277" y2="300" gradientUnits="userSpaceOnUse">
<stop stop-color="#FFE100"/>
<stop offset="1" stop-color="#FFE100" stop-opacity="0"/>
</linearGradient>
<linearGradient id="paint6_linear_1_3" x1="323" y1="279" x2="323" y2="300" gradientUnits="userSpaceOnUse">
<stop stop-color="#FFE100"/>
<stop offset="1" stop-color="#FFE100" stop-opacity="0"/>
</linearGradient>
</defs>
</svg>
