<svg width="171" height="196" viewBox="0 0 171 196" fill="none" xmlns="http://www.w3.org/2000/svg">
<path opacity="0.3" d="M104.095 -161C39.1568 -119.923 -5.16584 -96.5 1.70024 -4C7.10554 68.8204 104.627 38 124.227 99.5C145.579 166.5 169.646 195 203 195" stroke="#C7C9D1" stroke-dasharray="4 4"/>
<path fill-rule="evenodd" clip-rule="evenodd" d="M41.8885 56.5611C42.0678 55.8138 42.8042 55.3615 43.5332 55.5509C44.9727 55.925 46.8987 55.8576 48.824 55.5523C50.7244 55.2509 52.4717 54.7432 53.48 54.3571C54.1818 54.0884 54.9669 54.4563 55.2336 55.1789C55.5003 55.9016 55.1475 56.7052 54.4457 56.974C53.2599 57.428 51.3339 57.9823 49.2576 58.3116C47.2063 58.6369 44.8521 58.7687 42.8839 58.2573C42.1549 58.0679 41.7092 57.3085 41.8885 56.5611Z" fill="#FFE100"/>
<path fill-rule="evenodd" clip-rule="evenodd" d="M59.3923 64.6316C51.7028 62.9558 51.5542 54.5158 53.1782 50.1315L70.5875 57.0369L70.0753 58.4197C72.1396 59.5371 74.1513 62.3378 74.8992 63.5985C76.7947 63.0069 77.8986 60.9941 78.2136 60.0617L83.9331 62.3304C82.2217 66.9508 78.7278 69.0044 77.1947 69.4537L77.4577 70.9574C83.8412 72.2206 87.3764 67.0548 88.4611 64.1264L95.8489 67.0568L89.6911 67.693C86.678 73.663 80.1869 74.248 77.318 73.7943C77.4441 77.3894 73.9637 84.4989 69.5826 84.3472C61.9543 84.0832 59.1295 71.2445 59.3923 64.6316ZM64.6268 59.534C60.6952 59.6394 61.9845 68.0617 63.1235 72.2685C63.8001 74.954 64.585 76.9649 65.4216 78.4091C67.3548 77.2243 68.0262 75.3732 68.117 74.5295C65.8975 69.8632 64.9309 63.3539 64.6268 59.534ZM65.6891 59.6115C65.9556 62.2625 66.7533 66.1185 67.2157 68.1078C69.6311 70.3886 72.7366 70.0238 74.5833 69.3472C73.8032 65.6718 69.9587 60.322 65.6891 59.6115ZM74.7459 70.61C72.1076 71.751 69.1459 70.7717 67.8649 70.0446C69.2009 75.0063 71.3072 77.837 72.7456 79.1236C74.1213 77.0615 74.9704 73.8765 74.7459 70.61ZM71.8116 80.2671C70.792 79.2026 69.6062 77.1449 69.0264 76.0098C68.159 78.0518 67.0102 79.1246 66.2154 79.5953C68.1172 82.0233 70.1845 81.8631 71.8116 80.2671Z" fill="#FFE100"/>
<path fill-rule="evenodd" clip-rule="evenodd" d="M48.9318 37.5416C48.5826 38.2215 48.8382 39.0671 49.5027 39.4305C50.815 40.1481 52.2039 41.5304 53.4388 43.0892C54.6576 44.6278 55.6293 46.214 56.1299 47.1986C56.4783 47.8839 57.2999 48.1533 57.9649 47.8003C58.6299 47.4474 58.8865 46.6057 58.5381 45.9204C57.9493 44.7625 56.8748 43.0181 55.5431 41.337C54.2275 39.6762 52.5617 37.9498 50.7676 36.9687C50.103 36.6053 49.2811 36.8618 48.9318 37.5416Z" fill="#FFE100"/>
<path fill-rule="evenodd" clip-rule="evenodd" d="M67.1651 43.6441C60.3632 39.5719 54.8012 45.7468 53.1772 50.1311L70.5865 57.0365L71.0987 55.6536C73.3559 56.2503 76.6612 55.5586 78.0317 55.1382C79.0595 56.8893 78.5806 59.1499 78.2126 60.0613L83.9322 62.33C85.6436 57.7096 84.3712 53.7654 83.5211 52.3709L84.688 51.4343C90.252 54.9101 89.5448 61.1976 88.4601 64.126L95.8479 67.0563L91.6787 62.3239C93.2937 55.7993 88.8435 50.8745 86.4165 49.2276C88.8324 46.6407 90.8358 38.9454 87.4791 36.0279C81.6347 30.9481 71.2409 38.5436 67.1651 43.6441ZM67.7659 51.0563C64.9097 48.2584 71.3087 42.8857 74.8731 40.5445C77.1109 39.015 78.9936 38.0622 80.5487 37.5666C81.2214 39.7851 80.525 41.6263 80.0476 42.3166C75.3828 44.2523 70.4594 48.4254 67.7659 51.0563ZM68.6061 51.7334C70.5166 49.9458 73.6006 47.6295 75.2294 46.4697C78.4992 46.4439 80.5734 48.8633 81.51 50.6439C78.5558 52.838 72.2407 54.1581 68.6061 51.7334ZM82.4466 49.817C81.2212 47.1435 78.3858 45.8234 76.9633 45.4781C81.1618 42.7117 84.5568 42.0631 86.4578 42.1011C86.1491 44.5864 84.7235 47.5427 82.4466 49.817ZM86.5017 40.6045C85.0558 40.691 82.8446 41.4014 81.6802 41.8446C82.3541 39.7258 82.1925 38.1333 81.9053 37.2334C84.8882 36.7429 86.3223 38.2919 86.5017 40.6045Z" fill="#FFE100"/>
</svg>
