<svg width="782" height="449" viewBox="0 0 782 449" fill="none" xmlns="http://www.w3.org/2000/svg"><g clip-path="url(#clip0_2194_4916)"><path d="M133.333 43.18l133.334 78.632v150.427l-133.334 78.633L0 272.239" stroke="url(#paint0_linear_2194_4916)" stroke-width="2"/><path d="M533.333 121.812L666.667 43.18v-150.428L533.333-185.88 400-107.248V43.18l133.333 78.632z" stroke="url(#paint1_linear_2194_4916)" stroke-width="2"/><path d="M266.333 121.812L399.667 43.18v-150.428L266.333-185.88 133-107.248V43.18l133.333 78.632z" stroke="url(#paint2_linear_2194_4916)" stroke-width="2"/><path d="M800 121.812l133.333-78.633v-150.427L800-185.881l-133.333 78.633V43.179L800 121.812z" stroke="url(#paint3_linear_2194_4916)" stroke-width="2"/><path d="M533.333 579.932L666.666 501.3V350.873L533.333 272.24 400 350.873V501.3l133.333 78.632z" stroke="url(#paint4_linear_2194_4916)" stroke-width="2"/><path d="M266.669 579.932L400.002 501.3V350.873L266.669 272.24l-133.334 78.633V501.3l133.334 78.632z" stroke="url(#paint5_linear_2194_4916)" stroke-width="2"/><path d="M800 579.932L933.333 501.3V350.873L800 272.24l-133.333 78.633V501.3L800 579.932z" stroke="url(#paint6_linear_2194_4916)" stroke-width="2"/><path d="M400 350.872l133.334-78.633V121.812L400 43.179l-133.333 78.633v150.427L400 350.872z" stroke="#F2F2F2" stroke-width="2"/><g filter="url(#filter0_i_2194_4916)"><path d="M264.755 74.379a10.49 10.49 0 0110.49 0l30.213 17.444a10.489 10.489 0 015.245 9.084v34.887a10.49 10.49 0 01-5.245 9.085l-30.213 17.444a10.494 10.494 0 01-10.49 0l-30.213-17.444a10.49 10.49 0 01-5.245-9.085v-34.887c0-3.748 1.999-7.21 5.245-9.084l30.213-17.444z" fill="#4A8CFF"/></g><path d="M247.167 107.149v17.069a6.987 6.987 0 007.011 6.95h24.88a1.273 1.273 0 001.277-1.261v-17.068a6.985 6.985 0 00-7.012-6.951H248.45a1.277 1.277 0 00-1.183.775 1.269 1.269 0 00-.1.486zm34.751 6.658l10.272-7.503c.892-.74 1.584-.554 1.584.784v22.881c0 1.522-.846 1.337-1.584.782l-10.272-7.487v-9.457z" fill="#fff"/><g filter="url(#filter1_i_2194_4916)"><path d="M130.637 305.87a8.725 8.725 0 018.726 0l29.379 16.961a8.727 8.727 0 014.363 7.558v33.923a8.727 8.727 0 01-4.363 7.558l-29.379 16.961a8.725 8.725 0 01-8.726 0l-29.379-16.961a8.728 8.728 0 01-4.363-7.558v-33.923a8.728 8.728 0 014.363-7.558l29.379-16.961z" fill="#0AC285"/></g><path d="M156.466 339.863l-.012-.013-7.151-7.167c-1.877-1.886-4.384-2.938-6.991-2.932-.184.053-.793-.136-.917.573a7.156 7.156 0 01-2.133 4.264 6.628 6.628 0 01-4.261 1.849 6.629 6.629 0 01-4.261-1.848 7.155 7.155 0 01-2.134-4.265c-.123-.707-.733-.52-.917-.573-2.607-.005-5.113 1.046-6.989 2.932l-7.164 7.18a1.954 1.954 0 00-.536 1.351c0 .506.193.992.536 1.351l4.261 4.44c.317.336.744.537 1.196.563.451.026.896-.125 1.247-.424l2.282-1.84a.88.88 0 01.969-.1c.154.08.284.203.374.356.09.153.137.329.135.508v18.072c0 .507.193.993.537 1.351.344.358.81.56 1.297.56h18.335c.486 0 .953-.202 1.296-.56a1.95 1.95 0 00.537-1.351v-18.079a.993.993 0 01.136-.509.928.928 0 01.374-.356.895.895 0 01.498-.095.897.897 0 01.47.196l2.257 1.816c.352.305.799.462 1.256.44.456-.021.889-.22 1.212-.556l4.261-4.44a1.95 1.95 0 00.534-1.347 1.95 1.95 0 00-.534-1.347z" fill="#fff"/><g filter="url(#filter2_i_2194_4916)"><path d="M527.595 212.424a10.933 10.933 0 0110.81 0l46.222 26.282a10.936 10.936 0 015.531 9.507v52.276c0 3.932-2.112 7.562-5.531 9.506l-46.222 26.282a10.933 10.933 0 01-10.81 0l-46.222-26.282a10.936 10.936 0 01-5.531-9.506v-52.276c0-3.933 2.112-7.563 5.531-9.507l46.222-26.282z" fill="#FFE100"/></g><path d="M514.52 303.312l33.572-49.38" stroke="#191919" stroke-width=".137" stroke-linecap="round"/><path fill-rule="evenodd" clip-rule="evenodd" d="M543.396 237.643a1.772 1.772 0 01.777 2.392c-.888 1.726-1.369 4.2-1.553 6.744-.181 2.511-.06 4.887.125 6.285a1.78 1.78 0 01-1.538 1.995 1.787 1.787 0 01-2.007-1.53c-.218-1.645-.345-4.262-.147-7.006.196-2.71.722-5.749 1.936-8.108a1.793 1.793 0 012.407-.772z" fill="#1A1A1A"/><path d="M533.246 265.747c1.09-5.151-9.993-5.992-15.672-5.768-22.385.479-13.028 14.124-.634 15.646 5.1.626 14.943-3.439 16.306-9.878z" fill="#CFEDFC"/><path d="M505.908 262.92c.619-.507 1.422-.966 2.429-1.36l.314.981 1.599 2.013 2.342 2.111 1.799-.266 8.993-.927 9.453 1.006c-.297.943-.779 1.829-1.398 2.65-2.798-.557-9.33-.722-12.877-.729-.95 1.109-1.293 4.88-1.368 7.132a8.294 8.294 0 01-.227-.024 19.26 19.26 0 01-2.912-.592c-.087-1.761.524-4.279.968-5.677-2.781.151-5.722 1.517-7.345 2.468a12.235 12.235 0 01-1.922-1.891l3.605-1.97c-.556-.281-2.315-3.039-3.453-4.925z" fill="#00ACE6"/><path d="M531.15 271.905l3.24 2.179-14.64 21.535-3.518-2.365-2.702-3.962-1.353-6.541 2.423-5.747 5.815 1.764 10.735-6.863z" fill="#FFE100"/><path fill-rule="evenodd" clip-rule="evenodd" d="M565.041 252.193a1.795 1.795 0 00-2.522.175c-1.279 1.462-3.41 2.828-5.715 3.945-2.275 1.103-4.538 1.877-5.912 2.227a1.777 1.777 0 00-1.288 2.163 1.79 1.79 0 002.176 1.281c1.616-.411 4.105-1.27 6.591-2.475 2.457-1.191 5.097-2.808 6.846-4.808a1.77 1.77 0 00-.176-2.508z" fill="#1A1A1A"/><path d="M542.572 272.266c4.356-2.896 9.221 6.919 11.11 12.188 7.815 20.626-8.242 17.112-14.22 6.352-2.46-4.428-2.336-14.919 3.11-18.54z" fill="#CFEDFC"/><path d="M555.421 296.196c.243-.763.373-1.68.365-2.76l-1.037.076-2.485-.728-2.855-1.381-.424-1.767-2.497-8.682-4.481-8.385c-.772.628-1.423 1.406-1.961 2.287 1.57 2.385 4.169 8.377 5.503 11.663-.684 1.295-4.09 3.025-6.173 3.936l.108.202a19.191 19.191 0 001.645 2.478c1.683-.579 3.814-2.088 4.958-3.023.9 2.634.721 5.872.436 7.732.839.469 1.679.832 2.492 1.073l.497-4.078c.471.41 3.715 1.008 5.909 1.357z" fill="#00ACE6"/><path d="M537.631 276.263l-3.24-2.178-14.641 21.535 3.518 2.365 4.704 1.017 6.609-1.189 4.459-4.377-3.813-4.709 2.404-12.464z" fill="#FFE100"/><path fill-rule="evenodd" clip-rule="evenodd" d="M548.093 253.911c-4.995-3.35-15.546-5.621-19.885 3.682-8.167-2.272-25-2.432-27.565 7.214-1.473 5.541 6.369 12.06 10.888 12.952-1.407 3.524-2.58 11.97 3.979 17.559l-1.012 8.025-.004.005.003-.002v.002l.002-.003 7.109-3.929c7.661 3.97 15.104-.261 17.869-2.872 2.517 3.838 11.522 8.645 16.143 5.221 8.046-5.962 1.624-21.435-3.539-28.125 7.07-7.478 1.003-16.376-3.987-19.731l-.001.002zm-13.698 20.176l-.001.001-1.574-1.058c-1.998 2.304-6.079 4.048-7.87 4.632.181 2.58 2.35 4.571 3.425 5.253l.001-.002c1.028.736 3.706 2.009 6.19 1.212-.122-1.87-.015-6.286 1.39-8.989l-1.561-1.049zm-10.511 15.461l-.001.001c-5.258-3.535-6.794-8.59-6.905-10.676l-1.951-.105c-3.442 7.757 1.944 13.771 5.277 16.019l.001-.002c3.333 2.241 10.964 4.984 16.928-1.09l-.826-1.762c-1.986.674-7.269 1.141-12.523-2.385zm-6.29-29.436c5.578-.219 16.455.604 15.434 5.647-4.851-.732-13.249-1.406-19.716.056-1.026-.363-3.136-1.761-4.047-4.572 2.046-.644 4.783-1.055 8.329-1.131zm3.987 6.435c2.616-.006 7.656.106 11.039.543-2.137 5.234-9.933 8.568-14.744 8.486-.302-2.552.154-6.618 3.705-9.029zm-2.605.26c-1.282 1.42-3.37 4.909-2.721 8.606-4.138-.67-7.86-2.686-10.027-5.044 2.025-1.456 6.171-3.312 12.748-3.562zm-7.776-.266c-1.585.406-4.498 1.315-6.124 2.303-1.513-2.542-1.106-5.224 2.478-6.937.354 1.151 1.354 2.93 3.646 4.634zm42.485 17.832c-1.874-5.229-6.696-14.96-11.021-12.138 2.49 4.204 6.25 11.702 7.295 18.215.721.811 2.812 2.238 5.775 2.03-.162-2.127-.798-4.806-2.049-8.107zm-7.491-1.281c-.968-2.416-2.952-7.026-4.62-9.985-4.088 3.923-4.294 12.36-2.424 16.768 2.494-.672 6.118-2.608 7.044-6.783zm.728 2.501c-.847 1.712-3.324 4.939-7.016 5.718 2.168 3.569 5.435 6.252 8.443 7.373.604-2.412.791-6.929-1.427-13.091zm3.147 7.077c.211 1.614.449 4.64.133 6.509 2.935.449 5.286-.926 5.549-4.872-1.206.103-3.238-.158-5.682-1.637z" fill="#1A1A1A"/></g><defs><linearGradient id="paint0_linear_2194_4916" x1="267" y1="269.851" x2="119" y2="125.351" gradientUnits="userSpaceOnUse"><stop stop-color="#F2F2F2"/><stop offset=".461" stop-color="#F2F2F2"/><stop offset="1" stop-color="#F2F2F2" stop-opacity="0"/></linearGradient><linearGradient id="paint1_linear_2194_4916" x1="533.333" y1="121.812" x2="533.333" y2="-31.649" gradientUnits="userSpaceOnUse"><stop stop-color="#F2F2F2"/><stop offset="1" stop-color="#F2F2F2" stop-opacity="0"/></linearGradient><linearGradient id="paint2_linear_2194_4916" x1="266.333" y1="121.812" x2="266.333" y2="-31.649" gradientUnits="userSpaceOnUse"><stop stop-color="#F2F2F2"/><stop offset="1" stop-color="#F2F2F2" stop-opacity="0"/></linearGradient><linearGradient id="paint3_linear_2194_4916" x1="800" y1="121.812" x2="800" y2="-31.65" gradientUnits="userSpaceOnUse"><stop stop-color="#F2F2F2"/><stop offset="1" stop-color="#F2F2F2" stop-opacity="0"/></linearGradient><linearGradient id="paint4_linear_2194_4916" x1="533.333" y1="272.35" x2="533.332" y2="443.85" gradientUnits="userSpaceOnUse"><stop stop-color="#F2F2F2"/><stop offset="1" stop-color="#F2F2F2" stop-opacity="0"/></linearGradient><linearGradient id="paint5_linear_2194_4916" x1="266.668" y1="272.35" x2="266.668" y2="443.85" gradientUnits="userSpaceOnUse"><stop stop-color="#F2F2F2"/><stop offset="1" stop-color="#F2F2F2" stop-opacity="0"/></linearGradient><linearGradient id="paint6_linear_2194_4916" x1="799.999" y1="272.35" x2="799.999" y2="443.85" gradientUnits="userSpaceOnUse"><stop stop-color="#F2F2F2"/><stop offset="1" stop-color="#F2F2F2" stop-opacity="0"/></linearGradient><filter id="filter0_i_2194_4916" x="229.297" y="72.973" width="89.273" height="95.999" filterUnits="userSpaceOnUse" color-interpolation-filters="sRGB"><feFlood flood-opacity="0" result="BackgroundImageFix"/><feBlend in="SourceGraphic" in2="BackgroundImageFix" result="shape"/><feColorMatrix in="SourceAlpha" values="0 0 0 0 0 0 0 0 0 0 0 0 0 0 0 0 0 0 127 0" result="hardAlpha"/><feOffset dx="9.178" dy="5.245"/><feGaussianBlur stdDeviation="3.934"/><feComposite in2="hardAlpha" operator="arithmetic" k2="-1" k3="1"/><feColorMatrix values="0 0 0 0 0 0 0 0 0 0 0 0 0 0 0 0 0 0 0.1 0"/><feBlend in2="shape" result="effect1_innerShadow_2194_4916"/></filter><filter id="filter1_i_2194_4916" x="96.895" y="304.701" width="82.755" height="89.663" filterUnits="userSpaceOnUse" color-interpolation-filters="sRGB"><feFlood flood-opacity="0" result="BackgroundImageFix"/><feBlend in="SourceGraphic" in2="BackgroundImageFix" result="shape"/><feColorMatrix in="SourceAlpha" values="0 0 0 0 0 0 0 0 0 0 0 0 0 0 0 0 0 0 127 0" result="hardAlpha"/><feOffset dx="7.636" dy="4.363"/><feGaussianBlur stdDeviation="3.272"/><feComposite in2="hardAlpha" operator="arithmetic" k2="-1" k3="1"/><feColorMatrix values="0 0 0 0 0 0 0 0 0 0 0 0 0 0 0 0 0 0 0.1 0"/><feBlend in2="shape" result="effect1_innerShadow_2194_4916"/></filter><filter id="filter2_i_2194_4916" x="475.842" y="210.995" width="122.517" height="132.179" filterUnits="userSpaceOnUse" color-interpolation-filters="sRGB"><feFlood flood-opacity="0" result="BackgroundImageFix"/><feBlend in="SourceGraphic" in2="BackgroundImageFix" result="shape"/><feColorMatrix in="SourceAlpha" values="0 0 0 0 0 0 0 0 0 0 0 0 0 0 0 0 0 0 127 0" result="hardAlpha"/><feOffset dx="9.569" dy="5.468"/><feGaussianBlur stdDeviation="4.101"/><feComposite in2="hardAlpha" operator="arithmetic" k2="-1" k3="1"/><feColorMatrix values="0 0 0 0 0 0 0 0 0 0 0 0 0 0 0 0 0 0 0.1 0"/><feBlend in2="shape" result="effect1_innerShadow_2194_4916"/></filter><clipPath id="clip0_2194_4916"><path fill="#fff" d="M0 0h782v449H0z"/></clipPath></defs></svg>