<svg width="26" height="30" viewBox="0 0 26 30" fill="none" xmlns="http://www.w3.org/2000/svg">
<path d="M26 7.17391V22.8261L13 30L0 22.8261V7.17391L13 0L26 7.17391Z" fill="#FFE100"/>
<path d="M20.5 11.25V10.3125H18.625V11.25C18.625 11.8125 18.25 12.1875 17.6875 12.1875H16.75C16.4688 11.8125 16.1875 11.5312 15.8125 11.25V10.3125C15.8125 8.71875 14.5938 7.5 13 7.5C11.4062 7.5 10.1875 8.71875 10.1875 10.3125V11.25C9.8125 11.5312 9.53125 11.8125 9.25 12.1875H8.3125C7.75 12.1875 7.375 11.8125 7.375 11.25V10.3125H5.5V11.25C5.5 12.8438 6.71875 14.0625 8.3125 14.0625H8.40625C8.3125 14.3438 8.3125 14.7188 8.3125 15H5.5V16.875H8.3125V17.8125C6.71875 17.8125 5.5 19.0312 5.5 20.625V21.5625H7.375V20.625C7.375 20.0625 7.75 19.6875 8.3125 19.6875H8.6875C9.4375 21.375 11.125 22.5 13 22.5C14.875 22.5 16.5625 21.375 17.3125 19.6875H17.6875C18.25 19.6875 18.625 20.0625 18.625 20.625V21.5625H20.5V20.625C20.5 19.0312 19.2812 17.8125 17.6875 17.8125V16.875H20.5V15H17.6875C17.6875 14.7188 17.6875 14.3438 17.5938 14.0625H17.6875C19.2812 14.0625 20.5 12.8438 20.5 11.25Z" fill="#212121"/>
</svg>
