<svg width="26" height="30" viewBox="0 0 26 30" fill="none" xmlns="http://www.w3.org/2000/svg">
<path d="M26 7.17391V22.8261L13 30L0 22.8261V7.17391L13 0L26 7.17391Z" fill="#FFE100"/>
<path d="M20.132 16.7385C19.6256 16.4511 19.0405 16.3301 18.4605 16.3927C17.8805 16.4554 17.3353 16.6986 16.9031 17.0875C16.4709 17.4764 16.1739 17.9911 16.0545 18.5577C15.9351 19.1244 15.9995 19.714 16.2384 20.2421C15.3042 20.9323 14.1707 21.3058 13.0059 21.3072C12.5915 21.304 12.1787 21.2543 11.7755 21.1591C11.4407 21.8857 10.9308 22.5194 10.2908 23.0041C11.5618 23.4841 12.9389 23.6187 14.2799 23.3941C15.6209 23.1694 16.8771 22.5937 17.9188 21.7262C18.5669 21.9253 19.2662 21.8808 19.8834 21.6013C20.5006 21.3218 20.9927 20.8268 21.2658 20.2106C21.539 19.5944 21.5742 18.9001 21.3647 18.2598C21.1552 17.6195 20.7157 17.078 20.1298 16.7385H20.132Z" fill="#212121"/>
<path d="M15.6934 8.62503C15.551 8.01387 15.2018 7.4696 14.704 7.083C14.2061 6.6964 13.5898 6.49083 12.9577 6.50058C12.3256 6.51032 11.7159 6.73479 11.2304 7.13655C10.7449 7.53831 10.4129 8.09307 10.2898 8.70832C10.1666 9.32357 10.2598 9.96212 10.5537 10.5175C10.8476 11.0728 11.3245 11.5114 11.9049 11.7601C12.4853 12.0088 13.134 12.0525 13.743 11.884C14.3519 11.7156 14.8843 11.345 15.2512 10.8342C15.9644 11.1548 16.6012 11.6214 17.12 12.2032C17.6387 12.7851 18.0277 13.4691 18.2615 14.2105C18.4252 14.1912 18.5898 14.1802 18.7546 14.1776C19.399 14.1778 20.0373 14.3022 20.6339 14.544C20.4047 13.2146 19.8277 11.9683 18.9607 10.9295C18.0937 9.89083 16.967 9.09617 15.6934 8.62503Z" fill="#212121"/>
<path d="M9.65535 17.7428C9.43467 17.3639 9.12546 17.0432 8.75376 16.8076C8.38207 16.572 7.95876 16.4285 7.5195 16.3892C7.49523 16.2014 7.48158 16.0125 7.4786 15.8232C7.48203 14.4407 8.01472 13.1111 8.96883 12.1035C8.49969 11.4487 8.20048 10.6891 8.09769 9.89215C7.21295 10.6113 6.50015 11.5164 6.01073 12.542C5.52132 13.5677 5.26749 14.6884 5.26757 15.8232C5.27144 16.2522 5.31212 16.68 5.38918 17.1022C5.00656 17.4526 4.73149 17.9032 4.59567 18.402C4.45985 18.9007 4.4688 19.4274 4.62149 19.9214C4.77418 20.4153 5.0644 20.8564 5.45871 21.1939C5.85302 21.5313 6.33539 21.7513 6.85024 21.8287C7.36508 21.906 7.89147 21.8374 8.36875 21.6308C8.84603 21.4243 9.2548 21.0881 9.54795 20.6611C9.8411 20.2341 10.0067 19.7336 10.0257 19.2173C10.0447 18.701 9.91634 18.1899 9.65535 17.7428Z" fill="#212121"/>
</svg>
