<svg width="64" height="64" viewBox="0 0 64 64" fill="none" xmlns="http://www.w3.org/2000/svg">
<path d="M30.6344 10.3734C31.4777 9.87554 32.5223 9.87554 33.3656 10.3734L49.6654 19.9957C50.4921 20.4838 51 21.3765 51 22.3415V41.6585C51 42.6235 50.4921 43.5162 49.6654 44.0043L33.3656 53.6266C32.5223 54.1245 31.4777 54.1245 30.6344 53.6266L14.3346 44.0043C13.5079 43.5162 13 42.6235 13 41.6585V22.3415C13 21.3765 13.5079 20.4838 14.3346 19.9957L30.6344 10.3734Z" fill="#659AD2"/>
<path fill-rule="evenodd" clip-rule="evenodd" d="M51 42.9652C50.7712 43.3897 50.4312 43.7517 50.0063 44.0048L33.8532 53.6267C33.0175 54.1244 31.9823 54.1244 31.1466 53.6267L14.9936 44.0048C14.5687 43.7517 14.2288 43.3899 14 42.9655L32.5003 32L51 42.9652Z" fill="#D9D9D9"/>
<path fill-rule="evenodd" clip-rule="evenodd" d="M51 42.9652C50.7712 43.3897 50.4312 43.7517 50.0063 44.0048L33.8532 53.6267C33.0175 54.1244 31.9823 54.1244 31.1466 53.6267L14.9936 44.0048C14.5687 43.7517 14.2288 43.3899 14 42.9655L32.5003 32L51 42.9652Z" fill="#004482"/>
<path fill-rule="evenodd" clip-rule="evenodd" d="M32 45C39.1797 45 45 39.1797 45 32C45 24.8203 39.1797 19 32 19C24.8203 19 19 24.8203 19 32C19 39.1797 24.8203 45 32 45ZM32.0002 38.5001C35.59 38.5001 38.5002 35.5899 38.5002 32.0001C38.5002 28.4102 35.59 25.5001 32.0002 25.5001C28.4103 25.5001 25.5002 28.4102 25.5002 32.0001C25.5002 35.5899 28.4103 38.5001 32.0002 38.5001Z" fill="white"/>
<path fill-rule="evenodd" clip-rule="evenodd" d="M50.6721 21C50.8838 21.3935 51 21.8401 51 22.3032V41.6873C51 42.1542 50.8819 42.6042 50.667 43L32 32.0064L50.6721 21Z" fill="#00599C"/>
<path d="M47.2065 29.7744H48.5503V33.8058H47.2065V29.7744Z" fill="white"/>
<path d="M45.8625 32.4631L45.8625 31.1193L49.8939 31.1193L49.8939 32.4631L45.8625 32.4631Z" fill="white"/>
<path d="M41.8313 29.7744H43.1751V33.8058H41.8313V29.7744Z" fill="white"/>
<path d="M40.4875 32.4631L40.4875 31.1193L44.5189 31.1193L44.5189 32.4631L40.4875 32.4631Z" fill="white"/>
</svg>
