<svg width="26" height="30" viewBox="0 0 26 30" fill="none" xmlns="http://www.w3.org/2000/svg">
<path d="M26 7.17391V22.8261L13 30L0 22.8261V7.17391L13 0L26 7.17391Z" fill="#FFE100"/>
<path fill-rule="evenodd" clip-rule="evenodd" d="M8 8C7.44772 8 7 8.44772 7 9V21C7 21.5523 7.44772 22 8 22H18C18.5523 22 19 21.5523 19 21V9C19 8.44772 18.5523 8 18 8H8ZM9.75 10.5C9.33579 10.5 9 10.8358 9 11.25C9 11.6642 9.33579 12 9.75 12H16.25C16.6642 12 17 11.6642 17 11.25C17 10.8358 16.6642 10.5 16.25 10.5H9.75ZM9 15C9 14.5858 9.33579 14.25 9.75 14.25H16.25C16.6642 14.25 17 14.5858 17 15C17 15.4142 16.6642 15.75 16.25 15.75H9.75C9.33579 15.75 9 15.4142 9 15ZM9.75 18C9.33579 18 9 18.3358 9 18.75C9 19.1642 9.33579 19.5 9.75 19.5H13.25C13.6642 19.5 14 19.1642 14 18.75C14 18.3358 13.6642 18 13.25 18H9.75Z" fill="#1A1A1A"/>
</svg>
