<svg width="26" height="30" viewBox="0 0 26 30" fill="none" xmlns="http://www.w3.org/2000/svg">
<path fill-rule="evenodd" clip-rule="evenodd" d="M26 22.8261V7.17391L13 0L0 7.17391V22.8261L13 30L26 22.8261ZM15 8C15 8.83934 14.483 9.55793 13.75 9.85462V17.7865L18.25 15.5365V12.8546C17.517 12.5579 17 11.8393 17 11C17 9.89543 17.8954 9 19 9C20.1046 9 21 9.89543 21 11C21 11.8393 20.483 12.5579 19.75 12.8546V16C19.75 16.2841 19.5895 16.5438 19.3354 16.6708L13.75 19.4635V23.25C13.75 23.6642 13.4142 24 13 24C12.5858 24 12.25 23.6642 12.25 23.25V21.4635L6.66459 18.6708C6.4105 18.5438 6.25 18.2841 6.25 18V14.8546C5.51704 14.5579 5 13.8393 5 13C5 11.8954 5.89543 11 7 11C8.10457 11 9 11.8954 9 13C9 13.8393 8.48296 14.5579 7.75 14.8546V17.5365L12.25 19.7865V9.85462C11.517 9.55793 11 8.83934 11 8C11 6.89543 11.8954 6 13 6C14.1046 6 15 6.89543 15 8Z" fill="#1A1A1A"/>
</svg>
