<svg width="26" height="30" viewBox="0 0 26 30" fill="none" xmlns="http://www.w3.org/2000/svg">
<path d="M26 7.17391V22.8261L13 30L0 22.8261V7.17391L13 0L26 7.17391Z" fill="currentColor"/>
<g clip-path="url(#clip0_1006_3473)">
<path fill-rule="evenodd" clip-rule="evenodd" d="M13.0005 7.00018C8.58049 7.00018 5.00049 10.5802 5.00049 15.0002C5.00049 18.5402 7.29049 21.5302 10.4705 22.5902C10.8705 22.6602 11.0205 22.4202 11.0205 22.2102C11.0205 22.0202 11.0105 21.3902 11.0105 20.7202C9.00049 21.0902 8.48049 20.2302 8.32049 19.7802C8.23049 19.5502 7.84049 18.8402 7.50049 18.6502C7.22049 18.5002 6.82049 18.1302 7.49049 18.1202C8.12049 18.1102 8.57049 18.7002 8.72049 18.9402C9.44049 20.1502 10.5905 19.8102 11.0505 19.6002C11.1205 19.0802 11.3305 18.7302 11.5605 18.5302C9.78049 18.3302 7.92049 17.6402 7.92049 14.5802C7.92049 13.7102 8.23049 12.9902 8.74049 12.4302C8.66049 12.2302 8.38049 11.4102 8.82049 10.3102C8.82049 10.3102 9.49049 10.1002 11.0205 11.1302C11.6605 10.9502 12.3405 10.8602 13.0205 10.8602C13.7005 10.8602 14.3805 10.9502 15.0205 11.1302C16.5505 10.0902 17.2205 10.3102 17.2205 10.3102C17.6605 11.4102 17.3805 12.2302 17.3005 12.4302C17.8105 12.9902 18.1205 13.7002 18.1205 14.5802C18.1205 17.6502 16.2505 18.3302 14.4705 18.5302C14.7605 18.7802 15.0105 19.2602 15.0105 20.0102C15.0105 21.0802 15.0005 21.9402 15.0005 22.2102C15.0005 22.4202 15.1505 22.6702 15.5505 22.5902C17.1386 22.054 18.5187 21.0334 19.4963 19.6718C20.474 18.3103 21.0001 16.6764 21.0005 15.0002C21.0005 10.5802 17.4205 7.00018 13.0005 7.00018Z" fill="white"/>
</g>
<defs>
<clipPath id="clip0_1006_3473">
<rect width="16" height="16" fill="white" transform="translate(5 7)"/>
</clipPath>
</defs>
</svg>
