<svg width="64" height="64" viewBox="0 0 64 64" fill="none" xmlns="http://www.w3.org/2000/svg">
<path d="M4.82992 27.2669C4.70528 27.2669 4.67412 27.2044 4.73644 27.1105L5.39081 26.2661C5.45313 26.1722 5.60893 26.1097 5.73358 26.1097H16.8579C16.9825 26.1097 17.0137 26.2035 16.9514 26.2973L16.4216 27.1105C16.3593 27.2044 16.2035 27.2982 16.11 27.2982L4.82992 27.2669Z" fill="#00ACD7"/>
<path d="M0.124642 30.1445C2.64094e-07 30.1445 -0.0311606 30.0819 0.0311604 29.9881L0.685532 29.1436C0.747853 29.0498 0.903655 28.9872 1.0283 28.9872H15.2375C15.3621 28.9872 15.4245 29.0811 15.3933 29.1749L15.144 29.9255C15.1129 30.0506 14.9882 30.1132 14.8636 30.1132L0.124642 30.1445Z" fill="#00ACD7"/>
<path d="M7.66549 33.0219C7.54085 33.0219 7.50969 32.9281 7.57201 32.8343L8.00826 32.0523C8.07058 31.9585 8.19522 31.8647 8.31987 31.8647H14.552C14.6766 31.8647 14.7389 31.9585 14.7389 32.0836L14.6766 32.8343C14.6766 32.9594 14.552 33.0532 14.4585 33.0532L7.66549 33.0219Z" fill="#00ACD7"/>
<path d="M40.0102 26.704C38.047 27.2044 36.7071 27.5797 34.7752 28.0802C34.3078 28.2053 34.2766 28.2365 33.8715 27.7674C33.4041 27.2357 33.0613 26.8916 32.407 26.5789C30.4439 25.6093 28.5431 25.8908 26.7669 27.048C24.648 28.4242 23.5574 30.4572 23.5886 32.9906C23.6197 35.4928 25.3335 37.557 27.7952 37.9011C29.9141 38.1826 31.6903 37.4319 33.0925 35.8368C33.373 35.4928 33.6222 35.1175 33.9338 34.6796C32.8121 34.6796 31.4098 34.6796 27.9199 34.6796C27.2655 34.6796 27.1097 34.273 27.3278 33.7413C27.7329 32.7717 28.4808 31.1453 28.917 30.3321C29.0105 30.1444 29.2286 29.8317 29.696 29.8317C31.2852 29.8317 37.1434 29.8317 41.0384 29.8317C40.9761 30.6761 40.9761 31.5206 40.8515 32.3651C40.5087 34.617 39.6674 36.6813 38.2963 38.4954C36.0528 41.4667 33.1237 43.312 29.4156 43.8124C26.3618 44.219 23.5262 43.6248 21.0334 41.7481C18.7275 39.9966 17.4188 37.6822 17.076 34.8047C16.6709 31.3955 17.668 28.3304 19.7246 25.6406C21.937 22.7318 24.8661 20.8865 28.4496 20.2297C31.3787 19.698 34.1831 20.042 36.7071 21.7622C38.3586 22.8569 39.5427 24.3582 40.3218 26.1723C40.5087 26.4538 40.3841 26.6102 40.0102 26.704Z" fill="#00ACD7"/>
<path d="M50.3243 44C47.4887 43.9374 44.9024 43.1242 42.7212 41.2476C40.8827 39.6525 39.7298 37.6195 39.3558 35.2112C38.7949 31.6769 39.7609 28.5492 41.8798 25.7656C44.1546 22.763 46.8967 21.1992 50.6048 20.5424C53.7832 19.9794 56.7746 20.2921 59.4855 22.1375C61.9472 23.8264 63.4741 26.1096 63.8792 29.1122C64.4089 33.3346 63.1936 36.775 60.2957 39.7151C58.2391 41.8106 55.7151 43.1242 52.8172 43.7185C51.9758 43.8749 51.1345 43.9062 50.3243 44ZM57.7406 31.3642C57.7094 30.9576 57.7094 30.6448 57.6471 30.332C57.0862 27.2356 54.2506 25.4841 51.2903 26.1722C48.3924 26.829 46.5228 28.6743 45.8372 31.6144C45.2763 34.054 46.4604 36.5248 48.704 37.5257C50.4178 38.2763 52.1317 38.1825 53.7832 37.338C56.2448 36.0557 57.5847 34.054 57.7406 31.3642Z" fill="#00ACD7"/>
</svg>
