<svg width="26" height="30" viewBox="0 0 26 30" fill="none" xmlns="http://www.w3.org/2000/svg">
<path fill-rule="evenodd" clip-rule="evenodd" d="M26 7.17391V22.8261L13 30L0 22.8261V7.17391L13 0L26 7.17391ZM13.8377 16.9989C13.5805 17.1312 13.2923 17.2005 12.9994 17.2005C12.7065 17.2005 12.4183 17.1312 12.1612 16.9989L6 13.8299V18.8502C6 19.2878 6.18437 19.7074 6.51256 20.0169C6.84075 20.3263 7.28587 20.5001 7.75 20.5001H18.25C18.7141 20.5001 19.1592 20.3263 19.4874 20.0169C19.8156 19.7074 20 19.2878 20 18.8502V13.8299L13.8377 16.9989ZM12.7212 16.0327C12.8067 16.0767 12.9026 16.0998 13 16.0998C13.0974 16.0998 13.1933 16.0767 13.2788 16.0327L19.6955 12.7328C19.7876 12.6856 19.8645 12.6158 19.9181 12.5308C19.9717 12.4458 20 12.3488 20 12.2499V11.15C20 10.7124 19.8156 10.2927 19.4874 9.98326C19.1592 9.67383 18.7141 9.5 18.25 9.5H7.75C7.28587 9.5 6.84075 9.67383 6.51256 9.98326C6.18437 10.2927 6 10.7124 6 11.15V12.2499C6.00004 12.3488 6.02834 12.4458 6.08192 12.5308C6.13551 12.6158 6.2124 12.6856 6.3045 12.7328L12.7212 16.0327Z" fill="#1A1A1A"/>
</svg>
