<svg width="26" height="30" viewBox="0 0 26 30" fill="none" xmlns="http://www.w3.org/2000/svg">
<path fill-rule="evenodd" clip-rule="evenodd" d="M13 30L26 22.8261V7.17391L13 0L0 7.17391V22.8261L13 30ZM21 15C21 19.4183 17.4183 23 13 23C8.58172 23 5 19.4183 5 15C5 10.5817 8.58172 7 13 7C17.4183 7 21 10.5817 21 15ZM13 9C13.5523 9 14 9.44772 14 10V14.4854L17.0812 16.6863C17.5307 17.0073 17.6347 17.6318 17.3137 18.0812C16.9927 18.5307 16.3682 18.6347 15.9188 18.3137L12.4188 15.8137L12 15.5146V15V10C12 9.44772 12.4477 9 13 9Z" fill="#1A1A1A"/>
</svg>
