<svg width="26" height="30" viewBox="0 0 26 30" fill="none" xmlns="http://www.w3.org/2000/svg">
<path fill-rule="evenodd" clip-rule="evenodd" d="M26 22.8261V7.17391L13 0L0 7.17391V22.8261L13 30L26 22.8261ZM18.905 10.8148C18.214 11.9658 18.832 13.4578 20.135 13.7838C20.74 13.9348 21 14.3298 21 14.7808V15.2188C21 15.6688 20.742 16.0648 20.135 16.2158C18.832 16.5408 18.214 18.0328 18.905 19.1848C19.226 19.7208 19.129 20.1828 18.811 20.5008L18.501 20.8108C18.182 21.1298 17.72 21.2258 17.185 20.9048C16.034 20.2138 14.542 20.8318 14.216 22.1348C14.064 22.7418 13.669 22.9998 13.219 22.9998H12.781C12.331 22.9998 11.935 22.7418 11.784 22.1348C11.459 20.8318 9.967 20.2138 8.815 20.9048C8.281 21.2258 7.818 21.1298 7.499 20.8108L7.189 20.5008C6.87 20.1828 6.773 19.7208 7.095 19.1848C7.786 18.0338 7.168 16.5418 5.865 16.2158C5.258 16.0638 5 15.6688 5 15.2188V14.7808C5 14.3298 5.26 13.9348 5.865 13.7838C7.168 13.4588 7.786 11.9668 7.095 10.8148C6.773 10.2788 6.87 9.81576 7.188 9.49776L7.498 9.18776C7.816 8.86976 8.279 8.77276 8.815 9.09476C9.966 9.78576 11.458 9.16776 11.784 7.86476C11.936 7.25776 12.331 6.99976 12.781 6.99976H13.219C13.669 6.99976 14.065 7.25776 14.216 7.86476C14.541 9.16776 16.033 9.78576 17.185 9.09476C17.721 8.77376 18.183 8.87076 18.501 9.18876L18.811 9.49876C19.13 9.81676 19.227 10.2788 18.905 10.8148ZM10 14.9998C10 16.6568 11.343 17.9998 13 17.9998C14.657 17.9998 16 16.6568 16 14.9998C16 13.3428 14.657 11.9998 13 11.9998C11.343 11.9998 10 13.3428 10 14.9998Z" fill="#1A1A1A"/>
</svg>
