<svg width="64" height="64" viewBox="0 0 64 64" fill="none" xmlns="http://www.w3.org/2000/svg">
<path fill-rule="evenodd" clip-rule="evenodd" d="M33.0313 11.6146C32.5881 10.7948 31.4119 10.7948 30.9687 11.6146C30.5735 12.3454 29.5647 12.4447 29.0346 11.8051C28.4399 11.0875 27.2863 11.317 27.0115 12.2075C26.7666 13.0013 25.7965 13.2956 25.1518 12.7716C24.4286 12.1839 23.3419 12.634 23.2461 13.561C23.1607 14.3874 22.2667 14.8652 21.5321 14.4771C20.7082 14.0417 19.7302 14.6952 19.8171 15.6231C19.8945 16.4502 19.1109 17.0933 18.3148 16.856C17.4217 16.5897 16.59 17.4215 16.8562 18.3145C17.0936 19.1107 16.4505 19.8943 15.6233 19.8168C14.6955 19.7299 14.042 20.7079 14.4774 21.5319C14.8655 22.2664 14.3876 23.1605 13.5612 23.2458C12.6343 23.3416 12.1841 24.4283 12.7719 25.1515C13.2958 25.7962 13.0016 26.7663 12.2077 27.0113C11.3172 27.2861 11.0878 28.4397 11.8053 29.0343C12.445 29.5644 12.3456 30.5733 11.6148 30.9684C10.7951 31.4116 10.7951 32.5879 11.6148 33.0311C12.3456 33.4262 12.445 34.4351 11.8053 34.9652C11.0878 35.5598 11.3172 36.7135 12.2077 36.9882C13.0016 37.2332 13.2958 38.2033 12.7719 38.848C12.1841 39.5712 12.6343 40.6579 13.5612 40.7537C14.3876 40.839 14.8655 41.7331 14.4774 42.4676C14.042 43.2916 14.6955 44.2696 15.6233 44.1827C16.4505 44.1052 17.0936 44.8888 16.8562 45.685C16.59 46.578 17.4217 47.4098 18.3148 47.1435C19.1109 46.9062 19.8945 47.5493 19.8171 48.3764C19.7302 49.3043 20.7082 49.9578 21.5321 49.5224C22.2667 49.1343 23.1607 49.6122 23.2461 50.4385C23.3419 51.3655 24.4286 51.8156 25.1518 51.2279C25.7965 50.7039 26.7666 50.9982 27.0115 51.792C27.2863 52.6825 28.4399 52.912 29.0346 52.1944C29.5647 51.5548 30.5735 51.6541 30.9687 52.3849C31.4119 53.2047 32.5881 53.2047 33.0313 52.3849C33.4265 51.6541 34.4353 51.5548 34.9654 52.1944C35.5601 52.912 36.7137 52.6825 36.9885 51.792C37.2334 50.9982 38.2035 50.7039 38.8482 51.2279C39.5714 51.8156 40.6581 51.3655 40.7539 50.4385C40.8393 49.6122 41.7333 49.1343 42.4679 49.5224C43.2918 49.9578 44.2698 49.3043 44.1829 48.3764C44.1055 47.5493 44.8891 46.9062 45.6852 47.1435C46.5783 47.4098 47.41 46.578 47.1438 45.685C46.9064 44.8888 47.5495 44.1052 48.3767 44.1827C49.3045 44.2696 49.958 43.2916 49.5226 42.4676C49.1345 41.7331 49.6124 40.839 50.4388 40.7537C51.3657 40.6579 51.8159 39.5712 51.2281 38.848C50.7042 38.2033 50.9984 37.2332 51.7923 36.9882C52.6828 36.7135 52.9122 35.5598 52.1947 34.9652C51.555 34.4351 51.6544 33.4262 52.3852 33.0311C53.2049 32.5879 53.2049 31.4116 52.3852 30.9684C51.6544 30.5733 51.555 29.5644 52.1947 29.0343C52.9122 28.4397 52.6828 27.2861 51.7923 27.0113C50.9984 26.7663 50.7042 25.7962 51.2281 25.1515C51.8159 24.4283 51.3657 23.3416 50.4388 23.2458C49.6124 23.1605 49.1345 22.2664 49.5226 21.5319C49.958 20.7079 49.3045 19.7299 48.3767 19.8168C47.5495 19.8943 46.9064 19.1107 47.1438 18.3145C47.41 17.4215 46.5783 16.5897 45.6852 16.856C44.8891 17.0933 44.1055 16.4502 44.1829 15.6231C44.2698 14.6952 43.2918 14.0417 42.4679 14.4771C41.7333 14.8652 40.8393 14.3874 40.7539 13.561C40.6581 12.634 39.5714 12.1839 38.8482 12.7716C38.2035 13.2956 37.2334 13.0013 36.9885 12.2075C36.7137 11.317 35.5601 11.0875 34.9654 11.8051C34.4353 12.4447 33.4265 12.3454 33.0313 11.6146ZM38.4171 46.4319C36.4563 47.3053 34.2847 47.7906 31.9997 47.7906C29.5869 47.7906 27.3005 47.2494 25.2553 46.2818L25.0764 45.3678C24.7287 43.5911 23.0066 42.4327 21.2299 42.7804L20.5821 42.9072C20.1035 42.4063 19.6576 41.8739 19.2477 41.3136H32.2407C32.3434 41.3136 32.3691 41.228 32.3691 41.1852V36.5641C32.3691 36.4614 32.2835 36.4357 32.2407 36.4357H28.347V33.5047H32.4546C34.1662 33.5047 34.8793 35.1307 35.0219 35.9436C35.0433 36.0007 35.176 36.5855 35.5354 38.4681C35.8948 40.3508 37.2683 41.2922 37.9315 41.2922H44.7673C44.3398 41.8787 43.8728 42.4347 43.3703 42.9562L42.4718 42.7804C40.6952 42.4327 38.973 43.5911 38.6254 45.3678L38.4171 46.4319ZM47.7511 33.0982H46.0613C45.873 33.0982 45.8402 33.2694 45.8474 33.355V34.7242C45.8474 35.1521 45.3339 36.3929 43.7721 36.3929C42.5227 36.3929 42.1391 35.6513 42.1034 35.2804C42.0606 34.4247 41.5044 32.4051 39.6217 31.1728C39.8526 30.9929 40.072 30.827 40.2794 30.6703L40.2798 30.67C41.8973 29.4473 42.788 28.774 42.788 26.2521C42.788 24.1769 40.2421 21.417 36.8404 21.417H20.2841C22.5499 18.9108 25.6086 17.135 29.0645 16.4852L29.6238 17.0445C30.9039 18.3246 32.9794 18.3246 34.2596 17.0445L34.8369 16.4671C39.5583 17.3238 43.5482 20.28 45.8047 24.3336L45.2254 25.544C44.4438 27.177 45.1341 29.1344 46.7671 29.9159L47.7047 30.3647C47.7602 30.9028 47.7886 31.449 47.7886 32.0018C47.7886 32.3704 47.7759 32.736 47.7511 33.0982ZM18.9933 26.1665C19.3637 27.6465 18.6566 29.2317 17.2271 29.9159L16.295 30.362C16.2394 30.901 16.2109 31.4481 16.2109 32.0018C16.2109 33.4789 16.4137 34.9086 16.793 36.2646H21.2441V26.1665H18.9933ZM33.225 15.5561C33.225 16.2651 32.6503 16.8398 31.9413 16.8398C31.2324 16.8398 30.6577 16.2651 30.6577 15.5561C30.6577 14.8472 31.2324 14.2725 31.9413 14.2725C32.6503 14.2725 33.225 14.8472 33.225 15.5561ZM17.8215 27.1938C17.8215 27.9028 17.2468 28.4775 16.5379 28.4775C15.829 28.4775 15.2542 27.9028 15.2542 27.1938C15.2542 26.4849 15.829 25.9102 16.5379 25.9102C17.2468 25.9102 17.8215 26.4849 17.8215 27.1938ZM47.2166 28.5213C47.9255 28.5213 48.5002 27.9466 48.5002 27.2376C48.5002 26.5287 47.9255 25.954 47.2166 25.954C46.5076 25.954 45.9329 26.5287 45.9329 27.2376C45.9329 27.9466 46.5076 28.5213 47.2166 28.5213ZM42.6817 45.3364C42.6817 46.0454 42.107 46.6201 41.3981 46.6201C40.6891 46.6201 40.1144 46.0454 40.1144 45.3364C40.1144 44.6275 40.6891 44.0528 41.3981 44.0528C42.107 44.0528 42.6817 44.6275 42.6817 45.3364ZM22.3567 46.6201C23.0657 46.6201 23.6404 46.0454 23.6404 45.3364C23.6404 44.6275 23.0657 44.0528 22.3567 44.0528C21.6478 44.0528 21.0731 44.6275 21.0731 45.3364C21.0731 46.0454 21.6478 46.6201 22.3567 46.6201ZM33.6099 26.2522H28.3684V29.2473H33.6099C34.3801 29.2473 35.6638 28.905 35.6638 27.8353C35.6638 26.7014 34.2518 26.2522 33.6099 26.2522Z" fill="black"/>
</svg>
