<svg width="26" height="30" viewBox="0 0 26 30" fill="none" xmlns="http://www.w3.org/2000/svg">
<path d="M26 7.17391V22.8261L13 30L0 22.8261V7.17391L13 0L26 7.17391Z" fill="#FFE100"/>
<path fill-rule="evenodd" clip-rule="evenodd" d="M10.866 7.0011C9.98158 7.00175 9.26582 7.71804 9.26647 8.60068C9.26582 9.48333 9.98224 10.1996 10.8666 10.2003H12.4668V8.60134C12.4675 7.71869 11.7511 7.0024 10.866 7.0011C10.8666 7.0011 10.8666 7.0011 10.866 7.0011V7.0011ZM10.866 11.2675H6.60017C5.71577 11.2682 4.99935 11.9845 5 12.8671C4.99869 13.7498 5.71511 14.466 6.59952 14.4674H10.866C11.7504 14.4667 12.4668 13.7504 12.4662 12.8678C12.4668 11.9845 11.7504 11.2682 10.866 11.2675Z" fill="#1A1A1A"/>
<path fill-rule="evenodd" clip-rule="evenodd" d="M21.0008 12.866C21.0015 11.9834 20.2851 11.2671 19.4007 11.2664C18.5163 11.2671 17.7998 11.9834 17.8005 12.866V14.4663H19.4007C20.2851 14.4656 21.0015 13.7493 21.0008 12.866ZM16.7344 12.866V8.59959C16.735 7.7176 16.0193 7.0013 15.1348 7C14.2504 7.00065 13.534 7.71694 13.5347 8.59959V12.866C13.5334 13.7487 14.2498 14.4649 15.1342 14.4663C16.0186 14.4656 16.735 13.7493 16.7344 12.866Z" fill="#1A1A1A"/>
<path fill-rule="evenodd" clip-rule="evenodd" d="M15.1309 22.9979C16.0153 22.9973 16.7318 22.281 16.7311 21.3983C16.7318 20.5157 16.0153 19.7994 15.1309 19.7987H13.5308V21.3983C13.5301 22.2803 14.2465 22.9966 15.1309 22.9979ZM15.1309 18.7308H19.3974C20.2818 18.7302 20.9982 18.0139 20.9976 17.1312C20.9989 16.2486 20.2825 15.5323 19.3981 15.531H15.1316C14.2472 15.5317 13.5308 16.2479 13.5314 17.1306C13.5308 18.0139 14.2465 18.7302 15.1309 18.7308Z" fill="#1A1A1A"/>
<path fill-rule="evenodd" clip-rule="evenodd" d="M5 17.1334C4.99935 18.016 5.71576 18.7323 6.60017 18.733C7.48458 18.7323 8.201 18.016 8.20035 17.1334V15.5338H6.60017C5.71576 15.5345 4.99935 16.2508 5 17.1334ZM9.26647 17.1334V21.3998C9.26517 22.2825 9.98158 22.9988 10.866 23.0001C11.7504 22.9994 12.4668 22.2831 12.4662 21.4005V17.1347C12.4675 16.2521 11.7511 15.5358 10.8666 15.5345C9.98158 15.5345 9.26582 16.2508 9.26647 17.1334C9.26647 17.1334 9.26647 17.1341 9.26647 17.1334Z" fill="#1A1A1A"/>
</svg>
