<svg width="222" height="32" fill="none" xmlns="http://www.w3.org/2000/svg"><path d="M157.502 21.757v-1.413h-2.521c-1.75 0-2.431.292-2.431 1.482 0 .928.607 1.27 1.854 1.27 1.554 0 2.673-.554 3.098-1.305v-.034Zm4.374-5.472v9.848h-3.945l-.37-1.517c-.553.91-1.973 1.783-4.4 1.783-3.102 0-4.858-1.402-4.858-4.41 0-3.314 1.973-4.514 5.919-4.514h3.294v-.084c0-1.7-.493-2.153-2.89-2.153-1.201-.001-2.4.08-3.59.242v-3.685a37.468 37.468 0 0 1 4.143-.237c4.853 0 6.658 1.576 6.658 4.727h.039ZM73.101 17.35l-2.145-6.988h-.32l-2.2 6.988H73.1Zm1.278 4.114h-7.206l-1.48 4.643h-4.798L67.71 5.992h6.234l6.762 20.116h-4.902l-1.425-4.643Zm67.429-2.469c0-2.499-.37-4.228-2.703-4.228-2.332 0-2.89 1.517-2.89 4.258 0 2.573.553 4.168 2.89 4.168 2.338 0 2.703-1.862 2.703-4.198Zm4.483 0c0 4.169-1.065 7.408-5.647 7.408-2.703 0-3.768-.82-4.296-2.099l-.266 1.823h-4.034V5.948h4.404v7.3c.607-.85 1.751-1.705 4.192-1.705 4.587 0 5.647 2.806 5.647 7.409v.044Zm-22.297 2.79v-1.412h-2.496c-1.751 0-2.431.291-2.431 1.482 0 .923.607 1.269 1.859 1.269 1.529 0 2.644-.553 3.068-1.304v-.035Zm4.375-5.472v9.848h-3.946l-.37-1.516c-.557.909-1.973 1.783-4.404 1.783-3.102 0-4.858-1.403-4.858-4.41 0-3.314 1.973-4.514 5.918-4.514h3.285v-.084c0-1.7-.493-2.154-2.89-2.154-1.2-.004-2.398.077-3.586.242v-3.684a37.423 37.423 0 0 1 4.143-.237c4.888 0 6.688 1.575 6.688 4.726h.02Zm-20.098 2.682c0-2.47-.37-4.223-2.703-4.223-2.333 0-2.895 1.517-2.895 4.223 0 2.578.557 4.173 2.89 4.173s2.713-1.862 2.713-4.203l-.005.03Zm4.483 0c0 4.173-1.065 7.438-5.647 7.438-2.703 0-3.768-.825-4.296-2.099l-.266 1.822h-4.03V5.952h4.4v7.3c.606-.845 1.751-1.699 4.192-1.699 4.587 0 5.647 2.79 5.647 7.409v.034Zm-22.11-7.161h4.404v14.322h-4.404V11.835Zm-.212-4.04c0-2.075.424-2.233 2.431-2.233 2.008 0 2.432.158 2.432 2.233 0 2.074-.4 2.281-2.432 2.281-2.031 0-2.426-.266-2.426-2.311l-.005.03Zm-7.635-1.818h4.44v20.18h-4.44V5.977Zm138.051 6.85a4.946 4.946 0 0 1 1.144 3.458v9.858h-2.279V17.06a4.445 4.445 0 0 0-.606-2.618 2.44 2.44 0 0 0-2.151-.864 4.577 4.577 0 0 0-2.342.543 3.213 3.213 0 0 0-1.386 1.976v10.046h-2.279V17.06a4.777 4.777 0 0 0-.572-2.632 2.308 2.308 0 0 0-2.012-.845 4.57 4.57 0 0 0-2.382.528 3.55 3.55 0 0 0-1.44 2.065v9.967h-2.254V11.82h2.278v1.886a3.492 3.492 0 0 1 1.657-1.674 5.914 5.914 0 0 1 2.466-.494c2.121 0 3.512.786 4.168 2.341.705-1.555 2.195-2.34 4.439-2.34 1.583 0 2.771.424 3.531 1.264l.02.024Zm-26.174 10.945a2.723 2.723 0 0 0 1.252-1.645c.281-1.063.404-2.16.365-3.26.036-1.1-.095-2.198-.389-3.26a2.811 2.811 0 0 0-1.283-1.663 4.924 4.924 0 0 0-2.431-.494 4.96 4.96 0 0 0-2.466.494 2.784 2.784 0 0 0-1.253 1.654 11.13 11.13 0 0 0-.375 3.275c-.04 1.097.091 2.193.39 3.25.2.694.657 1.286 1.277 1.654.756.37 1.593.54 2.432.494a5.04 5.04 0 0 0 2.52-.494l-.039-.005Zm-6.076 1.724a4.439 4.439 0 0 1-2.175-2.282 12.99 12.99 0 0 1 0-8.688 4.439 4.439 0 0 1 2.175-2.281 8.292 8.292 0 0 1 3.59-.682 8.19 8.19 0 0 1 3.595.682 4.512 4.512 0 0 1 2.151 2.281 13.102 13.102 0 0 1 0 8.688 4.512 4.512 0 0 1-2.151 2.282 8.104 8.104 0 0 1-3.595.681 8.209 8.209 0 0 1-3.581-.716l-.009.035Zm-12.942 0a4.493 4.493 0 0 1-2.18-2.282 13.102 13.102 0 0 1 0-8.688c.427-1 1.202-1.81 2.18-2.281a8.296 8.296 0 0 1 3.591-.682 11.595 11.595 0 0 1 3.674.523v2.065a10.157 10.157 0 0 0-3.645-.607 5.227 5.227 0 0 0-2.466.493 2.783 2.783 0 0 0-1.277 1.65 10.52 10.52 0 0 0-.39 3.24c-.04 1.084.092 2.167.39 3.21a2.73 2.73 0 0 0 1.277 1.62 5.385 5.385 0 0 0 2.501.47 9.617 9.617 0 0 0 3.644-.608v2.064a9.402 9.402 0 0 1-1.672.366c-.682.102-1.371.155-2.061.158a8.208 8.208 0 0 1-3.561-.692l-.005-.02Zm-8.715.553a.827.827 0 0 1-.547-.494 3.003 3.003 0 0 1-.143-1.19 1.88 1.88 0 0 1 .375-1.403 3.214 3.214 0 0 1 2.806 0 1.877 1.877 0 0 1 .375 1.403 1.936 1.936 0 0 1-.375 1.447 2.09 2.09 0 0 1-1.401.336 3.452 3.452 0 0 1-1.085-.134l-.005.035Zm-130.987.494c-2.432.108-2.16-1.146-.755-3.082 3.295-4.445 9.538-10.59 9.72-14.955.415-5.68-5.316-7.562-11.204-7.507-3.837.154-7.625.92-11.22 2.267C12.501 6.787 6.218 12.437 2.272 18.69-1.919 24.888-.537 30.8 8.3 31.003c6.777-.272 11.18-2.154 15.782-4.51 0 0-12.7 3.65-17.38.963a2.053 2.053 0 0 1-1.144-1.709c0-2.212 3.645-4.509 5.701-5.245V16.67a13.482 13.482 0 0 0 13.553-2.252c.09.363.117.739.08 1.11h.922a2.68 2.68 0 0 0-.43-1.762 2.813 2.813 0 0 0-2.283-1.304c.539.26.996.663 1.322 1.165a12.376 12.376 0 0 1-11.65 2.332l3.039-3.003-.839-2.183a109.316 109.316 0 0 1 19.491-5.21L32.6 4.035l.986-.607c5.016 1.392 8.325 2.435 8.123 5.102a6.618 6.618 0 0 1-.493 1.526c-1.48 2.894-5.805 7.724-7.56 9.734a37.418 37.418 0 0 0-3.113 3.907 6.791 6.791 0 0 0-1.37 3.566c.103 8.766 25.803-4.095 30.77-7.507-7.34 3.126-15.255 6.193-23.984 6.756l-.005.03Z" fill="#F60"/></svg>