<svg width="172" height="26" fill="none" xmlns="http://www.w3.org/2000/svg"><path d="M8.24 8.352c2.462 0 4.506 1.26 5.48 2.619V8.686h3.752v16.959h-2.7a1.075 1.075 0 0 1-.76-.31 1.059 1.059 0 0 1-.313-.754V23.36C12.746 24.74 10.701 26 8.24 26 3.553 26 0 22.02 0 17.174c0-4.845 3.554-8.823 8.24-8.823Zm.675 3.387c-3.038 0-5.103 2.384-5.103 5.436 0 3.054 2.045 5.437 5.103 5.437 3.037 0 5.102-2.383 5.102-5.437 0-3.052-2.045-5.436-5.102-5.436ZM21.74 8.686h3.772v2.305c1.033-1.694 2.978-2.64 5.202-2.64 3.97 0 6.532 2.778 6.532 7.091v10.203h-2.7a1.075 1.075 0 0 1-.992-.656 1.053 1.053 0 0 1-.08-.408v-8.528c0-2.679-1.37-4.314-3.555-4.314-2.501 0-4.407 1.93-4.407 5.555v8.351h-2.7a1.076 1.076 0 0 1-.76-.31 1.06 1.06 0 0 1-.312-.754V8.686Zm26.723-.334c2.463 0 4.507 1.26 5.48 2.619V.217h3.753v25.448h-2.7a1.076 1.076 0 0 1-.76-.31 1.057 1.057 0 0 1-.313-.754V23.38c-.953 1.358-3.017 2.62-5.48 2.62-4.685 0-8.239-3.98-8.239-8.825.02-4.845 3.574-8.823 8.26-8.823Zm.676 3.387c-3.038 0-5.103 2.384-5.103 5.436 0 3.054 2.045 5.437 5.103 5.437 3.037 0 5.102-2.383 5.102-5.437 0-3.052-2.065-5.436-5.102-5.436Zm12.826-3.053h3.752V11.7a4.782 4.782 0 0 1 1.745-2.303 4.843 4.843 0 0 1 2.762-.888c.493-.001.985.045 1.47.138v3.84a6.11 6.11 0 0 0-1.887-.314c-2.164 0-4.11 1.792-4.11 5.2v8.272h-2.7a1.076 1.076 0 0 1-.76-.31 1.059 1.059 0 0 1-.312-.754V8.686h.04ZM81.86 26c-5.063 0-8.955-3.9-8.955-8.825 0-4.923 3.892-8.823 8.955-8.823 5.063 0 8.954 3.9 8.954 8.823C90.814 22.1 86.923 26 81.86 26Zm0-3.467c3.018 0 5.122-2.344 5.122-5.358 0-3.013-2.124-5.357-5.122-5.357-3.038 0-5.163 2.343-5.163 5.357 0 3.014 2.125 5.358 5.163 5.358Zm13.877-17.55a2.548 2.548 0 0 1-1.778-.737 2.508 2.508 0 0 1-.743-1.764 2.517 2.517 0 0 1 .753-1.75A2.557 2.557 0 0 1 95.74 0c.665 0 1.304.263 1.775.73.471.467.736 1.1.736 1.762 0 .66-.265 1.294-.736 1.762-.47.467-1.11.73-1.776.73m-1.866 3.702h3.752v16.959h-2.68a1.075 1.075 0 0 1-.76-.31 1.059 1.059 0 0 1-.313-.754l.001-15.895Zm15.089-.334c2.462 0 4.507 1.26 5.48 2.619V.217h3.752v25.448h-2.7a1.074 1.074 0 0 1-.992-.656 1.038 1.038 0 0 1-.08-.408V23.38c-.953 1.358-3.018 2.62-5.48 2.62-4.685 0-8.239-3.98-8.239-8.825.019-4.845 3.573-8.823 8.259-8.823Zm.695 3.387c-3.038 0-5.102 2.384-5.102 5.436 0 3.054 2.044 5.437 5.102 5.437 3.038 0 5.103-2.383 5.103-5.437 0-3.052-2.065-5.436-5.103-5.436Z" fill="#000"/><path d="M159.71 19.243a1.92 1.92 0 0 1-1.37-.541 1.886 1.886 0 0 1-.422-2.08 1.885 1.885 0 0 1 1.052-1.026 1.92 1.92 0 0 1 2.065.432c.35.353.547.83.547 1.325s-.197.971-.547 1.324c-.35.354-.825.557-1.325.566Zm-20.986 0a1.923 1.923 0 0 1-1.37-.541 1.877 1.877 0 0 1 0-2.698 1.912 1.912 0 0 1 1.37-.542c.5.009.976.212 1.326.566a1.883 1.883 0 0 1 0 2.65c-.35.353-.826.556-1.326.565Zm21.661-11.345 3.813-6.519a.778.778 0 0 0-.589-1.159.797.797 0 0 0-.581.16.789.789 0 0 0-.2.23l-3.852 6.599a23.423 23.423 0 0 0-9.749-2.088 23.815 23.815 0 0 0-9.768 2.068L135.608.591a.779.779 0 0 0-.475-.369.793.793 0 0 0-.831.272.761.761 0 0 0-.138.272.76.76 0 0 0 .073.593l3.793 6.52a22.383 22.383 0 0 0-8.092 7.44 22.147 22.147 0 0 0-3.543 10.365H172a22.037 22.037 0 0 0-3.526-10.359 22.261 22.261 0 0 0-8.089-7.427Z" fill="#3DDC84"/></svg>