<svg width="118" height="40" fill="none" xmlns="http://www.w3.org/2000/svg"><path d="M27.446 21.255c-.049-5.062 4.173-7.494 4.362-7.61-2.376-3.44-6.066-3.913-7.38-3.966-3.141-.318-6.131 1.834-7.728 1.834-1.597 0-4.056-1.79-6.66-1.737-3.429.048-6.589 1.973-8.356 5.013-3.554 6.109-.906 15.18 2.566 20.145 1.7 2.427 3.715 5.163 6.373 5.061 2.562-.101 3.526-1.64 6.613-1.64 3.087 0 3.958 1.64 6.66 1.592 2.751-.053 4.494-2.48 6.18-4.917 1.937-2.822 2.74-5.549 2.789-5.694-.063-.024-5.36-2.036-5.42-8.081ZM22.369 6.388C23.78 4.695 24.73 2.345 24.472 0c-2.03.082-4.49 1.341-5.945 3.035-1.305 1.496-2.449 3.889-2.137 6.186 2.254.173 4.572-1.144 5.979-2.833ZM45.253 26.23l-2.337 7.02h-3.004l7.649-22.31h3.506l7.678 22.31h-3.106l-2.406-7.02h-7.98Zm7.381-2.253-2.2-6.422c-.502-1.457-.833-2.78-1.169-4.073h-.063a70.48 70.48 0 0 1-1.135 4.039l-2.2 6.451 6.767.005Zm8.39-1.52c0-2.05-.064-3.71-.137-5.23h2.64l.136 2.75h.063c1.203-1.954 3.106-3.112 5.745-3.112 3.91 0 6.846 3.276 6.846 8.144 0 5.762-3.54 8.604-7.347 8.604-2.138 0-4.007-.927-4.976-2.514h-.063v8.704h-2.907V22.456Zm2.902 4.27c0 .434.063.825.136 1.192.535 2.017 2.303 3.411 4.411 3.411 3.107 0 4.913-2.514 4.913-6.19 0-3.214-1.704-5.954-4.81-5.954-2.002 0-3.871 1.423-4.446 3.609-.102.362-.2.796-.2 1.191l-.004 2.741Zm15.43-4.27c0-2.05-.064-3.71-.137-5.23h2.64l.135 2.75h.064c1.202-1.954 3.106-3.112 5.745-3.112 3.91 0 6.846 3.276 6.846 8.144 0 5.762-3.54 8.604-7.347 8.604-2.138 0-4.008-.927-4.977-2.514h-.063v8.704h-2.907V22.456Zm2.906 4.27c0 .434.064.825.137 1.192.535 2.017 2.303 3.411 4.41 3.411 3.107 0 4.914-2.514 4.914-6.19 0-3.214-1.704-5.954-4.81-5.954-2.002 0-3.872 1.423-4.446 3.609-.102.362-.2.796-.2 1.191l-.005 2.741Zm15.43-16.98h2.941v23.499h-2.941V9.747Zm8.852 16.02c.063 3.937 2.605 5.563 5.541 5.563 2.103 0 3.374-.362 4.474-.825l.502 2.085c-1.032.463-2.805.994-5.375.994-4.977 0-7.952-3.243-7.952-8.078 0-4.834 2.873-8.641 7.581-8.641 5.278 0 6.681 4.598 6.681 7.546 0 .598-.064 1.057-.103 1.356h-11.349Zm8.618-2.084c.034-1.853-.769-4.734-4.075-4.734-2.975 0-4.275 2.717-4.509 4.733h8.584Z" fill="#000"/></svg>