<svg height="34" viewBox="0 0 62 34" fill="none" xmlns="http://www.w3.org/2000/svg">
  <path
    d="M46.067 19.629a9.234 9.234 0 0 0-1.846-3.886c-1.84-2.326-4.822-3.796-8.857-3.796-6.273 0-10.13 4.079-11.272 8.377-1.026-3.03-3.77-5.076-6.67-5.94 2.182-1.523 3.325-3.702 3.325-6.19 0-2.308-1.004-4.41-2.685-5.778C15.597.41 12.236 0 8.095 0H0v33.463c2.294 0 4.651-.01 6.95 0 2.044.01 4.04-.002 5.903-.074 5.894-.226 9.928-3.066 11.219-7.331.443 1.896 1.296 3.442 2.41 4.615 2.27 2.392 5.56 3.327 8.874 3.327 4.08 0 7.03-1.133 9.045-2.869l-2.884-3.245c-1.452 1.047-3.317 1.665-5.412 1.665-4.11-.013-5.921-2.502-6.083-4.895h16.045v8.807h6.01V.167h-6.01V19.63ZM6.176 4.52l1.67-.001c1.612 0 2.886.166 3.803.507 1.811.673 2.672 2.051 2.672 3.773.002 1.456-.58 3.745-3.78 4.37-.534.105-1.305.163-2.394.163H6.176V4.52Zm6.794 24.045c-.752.13-1.672.158-2.42.158H6.175V17.807h3.915c1.236 0 2.634.133 3.435.334 2.746.69 4.324 2.575 4.324 5.071 0 2.585-1.453 4.763-4.879 5.354Zm17.162-8.07c.53-2.438 2.412-4.192 5.186-4.192 2.776 0 4.624 1.572 5.102 4.192H30.132ZM62 .166h-5.908v33.296h5.907V.166Z"
    fill="#0067A4" />
</svg>
