<svg height="32" viewBox="0 0 174 32" fill="none" xmlns="http://www.w3.org/2000/svg">
  <path d="m0 2.178 5.314 1.535v21.245L0 26.492V2.178Z" fill="#3259B4" />
  <path d="m8.383 13.038 5.196 1.298v11.45l-5.196 1.062v-13.81Z" fill="#3C8CFF" />
  <path d="m17.24 10.796 4.842-1.299v14.046l-4.842-1.416V10.796Z" fill="#00C8D2" />
  <path d="m25.273.999 5.315 1.534v23.842l-5.315 1.299V.998Z" fill="#78E6DD" />
  <path
    d="M161.856 17.07h9.376c-.157-1.186-.664-2.146-1.521-2.882-.857-.736-1.897-1.104-3.121-1.104-1.242 0-2.308.377-3.2 1.13-.883.744-1.395 1.696-1.534 2.856Zm0 1.974c.087 1.28.594 2.32 1.521 3.116.935.796 2.111 1.194 3.528 1.194.909 0 1.757-.19 2.544-.571.787-.381 1.508-.944 2.164-1.688l1.796 1.428c-.9 1.039-1.888 1.805-2.964 2.298-1.066.494-2.273.74-3.619.74a8.045 8.045 0 0 1-3.108-.597 7.06 7.06 0 0 1-2.479-1.7 6.865 6.865 0 0 1-1.39-2.247 7.557 7.557 0 0 1-.485-2.688c0-2.215.669-4.007 2.006-5.375 1.338-1.367 3.087-2.05 5.246-2.05 2.203 0 3.982.73 5.338 2.193 1.363 1.454 2.045 3.376 2.045 5.765v.182h-12.143Zm-5.499-4.545a3.99 3.99 0 0 0-1.49-1.064c-.549-.234-1.179-.35-1.888-.35-1.374 0-2.505.484-3.392 1.453-.877.961-1.316 2.195-1.316 3.7 0 1.507.434 2.736 1.303 3.688.878.952 2.013 1.428 3.405 1.428.754 0 1.419-.13 1.995-.39a3.91 3.91 0 0 0 1.489-1.155l1.636 1.83c-.745.667-1.529 1.156-2.354 1.468-.815.303-1.738.454-2.766.454-1.055 0-2.031-.173-2.926-.52a6.605 6.605 0 0 1-2.327-1.505 7.046 7.046 0 0 1-1.596-2.376 7.891 7.891 0 0 1-.532-2.921c0-1.048.177-2.021.532-2.922.363-.9.895-1.696 1.596-2.389a6.53 6.53 0 0 1 2.327-1.506c.887-.346 1.862-.519 2.926-.519 1.011 0 1.924.147 2.74.441.824.295 1.573.74 2.247 1.338l-1.609 1.817Zm-24.214 10.712V11.254h2.49v1.597c.627-.632 1.284-1.1 1.973-1.403a5.42 5.42 0 0 1 2.238-.467c1.633 0 2.922.545 3.866 1.636.945 1.09 1.417 2.592 1.417 4.505v8.089h-2.516v-7.842c0-1.463-.26-2.532-.781-3.207-.512-.684-1.32-1.026-2.423-1.026-1.254 0-2.198.364-2.834 1.09-.627.72-.94 1.801-.94 3.247v7.738h-2.49Zm-9.577-1.948c1.404 0 2.558-.472 3.462-1.415.904-.943 1.356-2.155 1.356-3.635 0-1.472-.452-2.68-1.356-3.623-.904-.952-2.058-1.428-3.462-1.428-1.403 0-2.557.472-3.461 1.415-.904.944-1.356 2.156-1.356 3.636 0 1.488.452 2.704 1.356 3.648.904.935 2.058 1.402 3.461 1.402Zm7.143 1.948h-2.454v-2.285c-.586.822-1.3 1.44-2.144 1.856-.835.407-1.796.61-2.881.61a7.161 7.161 0 0 1-2.764-.545 7.12 7.12 0 0 1-2.324-1.61 6.838 6.838 0 0 1-1.46-2.285 7.625 7.625 0 0 1-.491-2.765c0-2.155.642-3.895 1.925-5.22 1.291-1.324 2.996-1.986 5.114-1.986 1.068 0 2.046.22 2.932.662a6.289 6.289 0 0 1 2.274 1.896v-2.285h2.273V25.21ZM100.637 7.294v15.528h1.931c2.816 0 4.936-.654 6.361-1.96 1.434-1.308 2.15-3.242 2.15-5.804 0-2.57-.716-4.505-2.15-5.804-1.425-1.307-3.545-1.96-6.361-1.96h-1.931Zm1.532-2.402c3.777 0 6.648.865 8.614 2.596 1.974 1.723 2.962 4.246 2.962 7.57 0 3.315-.988 5.838-2.962 7.569-1.966 1.723-4.837 2.584-8.614 2.584h-4.172V4.89h4.172ZM82.314 17.07h9.225c-.155-1.186-.654-2.146-1.497-2.882-.843-.736-1.866-1.104-3.07-1.104-1.222 0-2.271.377-3.149 1.13-.868.744-1.372 1.696-1.51 2.856Zm0 1.974c.086 1.28.585 2.32 1.496 3.116.92.796 2.078 1.194 3.471 1.194.895 0 1.73-.19 2.503-.571.774-.381 1.484-.944 2.13-1.688l1.767 1.428c-.886 1.039-1.858 1.805-2.916 2.298-1.05.494-2.237.74-3.561.74a7.802 7.802 0 0 1-3.058-.597 6.942 6.942 0 0 1-2.439-1.7 6.872 6.872 0 0 1-1.367-2.247 7.658 7.658 0 0 1-.478-2.688c0-2.215.658-4.007 1.974-5.375 1.316-1.367 3.037-2.05 5.161-2.05 2.168 0 3.918.73 5.252 2.193 1.342 1.454 2.013 3.376 2.013 5.765v.182H82.314Zm-9.32-11.192v3.402h-4.879l-3.753 8.828a21.24 21.24 0 0 0-.36.987l-.628 1.857a58.048 58.048 0 0 0-.574-1.909c-.152-.493-.259-.805-.321-.935l-3.7-8.828h-2.844l5.996 13.957L59.407 31h2.578l8.022-17.759 2.987.089v8.984c0 1.169.3 2.004.903 2.506.602.493 1.614.74 3.036.74h1.584v-2.35h-1.48c-.425 0-.736-.095-.934-.285-.187-.19-.281-.494-.281-.91v-8.685h2.695v-2.077h-2.695V7.852h-2.828ZM40.63 25.211V4.89h3.939c1.52 0 2.72.07 3.598.209.888.13 1.624.346 2.206.649.997.52 1.752 1.177 2.266 1.973.523.788.784 1.68.784 2.675 0 .822-.242 1.575-.725 2.259-.474.684-1.15 1.242-2.029 1.675 1.441.415 2.532 1.064 3.273 1.947.75.874 1.125 1.956 1.125 3.246 0 1.601-.72 2.951-2.162 4.05-1.431 1.091-3.218 1.637-5.36 1.637H40.63Zm3.006-11.568h2.487c1.382 0 2.448-.282 3.199-.844.76-.563 1.14-1.355 1.14-2.376 0-1.074-.38-1.883-1.14-2.428-.76-.545-1.896-.818-3.406-.818h-2.28v6.466Zm0 9.179h3.065c1.727 0 3.035-.29 3.924-.87.898-.58 1.347-1.437 1.347-2.57 0-1.117-.434-1.961-1.303-2.533-.869-.58-2.152-.87-3.85-.87h-3.183v6.843Z"
    fill="#3259B4" />
</svg>
