<svg height="40" viewBox="0 0 112 40" fill="none" xmlns="http://www.w3.org/2000/svg">
  <path
    d="M76.011 28.929c-.006.006-.013.006-.013.012-4.77 3.36-10.42 6.889-16.497 10.593l-.24.138a.18.18 0 0 0-.044.252c.057.081.17.1.252.044l.202-.107c5.157-2.675 11.077-5.852 17.034-9.111a.694.694 0 0 1 .095-.05 7.5 7.5 0 0 1-.789-1.771Zm31.303-25.211c-7.516-8.251-55.891-.83-76.46 3.642l-.479.1a.177.177 0 0 0-.145.207c.019.1.113.164.208.145l.474-.094c17.04-3.02 52.483-7.203 60.107.32 2.329 2.298 1.773 5.25-.928 8.74 1.452.93 2.487 2.393 2.954 4.22 10.539-6.957 17.614-13.607 14.269-17.28Z"
    fill="#D03027" />
  <path
    d="M79.054 26.763c.094 2.901 1.944 5.28 4.348 5.28 4.664 0 6.652-5.7 6.513-9.506-.1-2.907-1.994-5.28-4.399-5.28-4.007-.007-6.601 5.67-6.462 9.506Zm-2.462-.157c-.17-4.954 3.73-10.022 9.398-10.022 3.786 0 6.267 2.512 6.405 6.361.184 5.225-3.464 10.022-9.39 10.022-3.8 0-6.28-2.506-6.413-6.36ZM22.918 25.3c-.202.075-.46.15-.789.22-.322.075-.915.175-1.773.314-.594.094-1.004.213-1.238.383-.22.163-.353.358-.39.603-.045.257.037.458.258.621.227.157.606.239 1.142.239.404 0 .796-.063 1.174-.189.385-.125.713-.295.96-.508.183-.157.315-.358.416-.603.063-.163.145-.521.24-1.08Zm4.923-3.046c-.02.453-.101.854-.221 1.551l-.833 4.653c-.07.415.082.735.467.961l-.026.182-4.77-.006-.045-1.18a9.621 9.621 0 0 1-2.291.973c-.757.194-1.37.276-2.285.276-1.54 0-2.423-.157-3.035-.69-.619-.547-.922-.911-.89-1.665.025-.433.252-.992.574-1.381.328-.396.783-.653 1.269-.885.492-.233 1.073-.402 1.912-.534.846-.138 2.02-.27 3.591-.402.827-.07 1.332-.258 1.565-.352.328-.125.46-.27.505-.534.088-.477-.063-.753-.707-.879-1.716-.339-4.941.22-6.601.628l.902-2.423c2.19-.32 4.241-.522 6.406-.522 3.452 0 4.55.974 4.512 2.23Zm13.834 7.34 1.653-9.299h4.57l-1.654 9.3h-4.57Zm1.906-11.452c.138-.766 1.35-1.382 2.7-1.382 1.358 0 2.349.622 2.216 1.382-.145.766-1.35 1.387-2.714 1.387-1.35 0-2.335-.621-2.202-1.387Zm20.54 7.177c-.208.069-.473.144-.795.22-.322.075-.915.17-1.773.307-.587.094-1.004.214-1.23.383a.95.95 0 0 0-.398.597c-.05.257.044.465.258.621.234.157.612.233 1.149.233a3.94 3.94 0 0 0 1.174-.176c.391-.132.713-.295.965-.509.177-.157.31-.364.404-.602.063-.158.145-.515.246-1.074Zm4.923-3.052c-.019.459-.1.86-.227 1.551l-.827 4.66c-.07.407.082.734.467.96l-.025.163-4.771.007-.038-1.187a9.24 9.24 0 0 1-2.291.973c-.757.2-1.37.283-2.297.283-1.54 0-2.417-.151-3.03-.691-.625-.553-.921-.91-.89-1.664.02-.44.247-.998.575-1.382.328-.401.782-.653 1.275-.885.492-.232 1.073-.402 1.906-.54.845-.132 2.026-.27 3.597-.402.82-.069 1.325-.251 1.559-.345.334-.126.46-.27.511-.54.082-.471-.063-.747-.7-.88-1.73-.338-4.942.22-6.602.629l.896-2.424c2.197-.32 4.241-.521 6.406-.521 3.44.006 4.538.986 4.506 2.235Zm-55.75 3.987c-1.49.295-2.323.409-3.794.409-2.183 0-3.919-1.08-3.824-3.058.07-1.32 1.634-4.094 5.617-4.094 1.256 0 2.234.22 3.553.966l.58-3.227c-1.792-.672-2.978-.772-4.518-.76C5.682 16.547.67 18.908.046 23.711c-.63 4.88 5.358 6.104 8.015 6.091 1.534-.006 3.13-.069 4.62-.22l.612-3.328Zm37.122-6.009.328-1.896 4.777-1.036-.51 2.926h2.34l-.441 1.871-2.272-.006-1.382 7.478s-4.601-.031-4.62 0l1.376-7.46h-1.73l.354-1.883h1.78v.006Zm18.618 9.35 2.341-12.973 4.531.125-2.221 12.841-4.651.007Zm-33.406-7.12c-.599 0-1.142.181-1.621.54-.48.363-.783.891-.903 1.588-.145.81-.057 1.394.265 1.752.328.358.795.54 1.414.54.416 0 .846-.075 1.161-.232.391-.208.663-.421.896-.767.253-.357.417-.76.505-1.224.133-.735.02-1.28-.322-1.645-.334-.364-.795-.553-1.395-.553ZM27.31 32.802l2.228-12.457h4.014l-.31 1.588c.348-.477.903-.866 1.673-1.18.777-.314 1.648-.547 2.594-.547 1.048 0 1.692.057 2.474.459.777.408 1.326.998 1.616 1.764.303.754.366 1.608.202 2.53-.272 1.54-1.023 2.745-2.26 3.636-1.224.892-2.328 1.125-3.9 1.13a5.957 5.957 0 0 1-1.407-.15c-.379-.1-.682-.22-.91-.364-.22-.145-.453-.352-.75-.678l-.745 4.27H27.31Zm82.94-9.186c-.026-.747-.404-1.256-1.181-1.256-1.874 0-3.868 3.655-4.209 5.124 3.073.006 5.465-1.814 5.39-3.868Zm.404 5.727.359.245c-.915 1.852-2.777 3.34-4.96 3.34-1.786 0-3.257-1.187-3.333-3.41-.145-3.987 3.61-7.685 6.684-7.685 1.319 0 2.543.571 2.594 1.984.113 3.171-4.361 4.138-7.308 4.207-.095.333-.133.666-.114 1.168.05 1.312.846 2.418 2.499 2.418 1.426 0 2.853-1.143 3.579-2.267Z"
    fill="#004977" />
  <path
    d="M92.328 23.516c.315-.044.827-.1 1.047-.1.335 0 .65.063.67.395.006.195-.348 1.608-.423 1.934l-.713 3.127c-.29 1.281-.6 2.619-.878 3.68h1.83l1.03-4.954c3.136-3.253 4.348-4.314 5.086-4.314.334 0 .562.176.581.571.019.572-.341 1.872-.461 2.248l-1.048 3.61c-.24.81-.416 1.546-.397 2.067.031.79.51 1.143 1.23 1.143 1.338 0 2.31-1.388 3.156-2.75l-.246-.447c-.341.547-1.136 1.746-1.761 1.746-.196 0-.385-.132-.391-.458-.019-.421.157-1.055.284-1.476l1.167-4.232c.316-1.168.461-1.915.455-2.317-.032-.791-.493-1.162-1.206-1.162-1.205 0-2.802.88-6.191 4.754h-.05l.429-1.89c.233-1.037.46-2.117.675-2.864-1.174.42-2.853.892-3.888 1.093l.013.596Z"
    fill="#004977" />
</svg>
