<svg height="40" viewBox="0 0 121 40" fill="none" xmlns="http://www.w3.org/2000/svg">
  <path d="m113.006 12.657-6.682-1.552-1.193-.478-30.668.239v14.806l38.543.12V12.656Z" fill="#fff" />
  <path
    d="M100.476 24.358a3.415 3.415 0 0 0-.358-3.104 3.696 3.696 0 0 0-2.506-1.314l-20.763-.239c-.12 0-.24-.119-.359-.119a.223.223 0 0 1 0-.358c.12-.239.24-.358.478-.358l20.882-.24a7.501 7.501 0 0 0 6.086-4.536l1.194-3.105c0-.12.119-.239 0-.358a13.615 13.615 0 0 0-4.484-7.406 13.596 13.596 0 0 0-21.65 5.973A6.512 6.512 0 0 0 74.701 8a6.215 6.215 0 0 0-5.49 5.493c-.08.718-.039 1.444.12 2.149a8.711 8.711 0 0 0-6.006 2.636 8.721 8.721 0 0 0-2.467 6.08c-.02.441.02.883.12 1.314a.381.381 0 0 0 .358.358H99.64c.239 0 .478-.12.478-.358l.358-1.314Z"
    fill="#F48120" />
  <path
    d="M107.038 10.985h-.597c-.119 0-.238.12-.358.239l-.835 2.865a3.402 3.402 0 0 0-.197 1.596c.062.54.252 1.057.555 1.509a3.693 3.693 0 0 0 2.506 1.313l4.415.24c.119 0 .239.119.358.119a.226.226 0 0 1 .09.179.227.227 0 0 1-.09.18c-.119.238-.239.357-.477.357l-4.535.239a7.507 7.507 0 0 0-6.086 4.537l-.238 1.075c-.12.12 0 .358.238.358h15.752a.318.318 0 0 0 .345-.213.323.323 0 0 0 .013-.145c.284-1.012.444-2.054.477-3.105a11.419 11.419 0 0 0-3.341-8 11.404 11.404 0 0 0-7.995-3.343Z"
    fill="#FAAD3F" />
  <path
    d="M119.926 32.478a1.076 1.076 0 0 1-1.053-1.285 1.072 1.072 0 0 1 1.946-.387 1.075 1.075 0 0 1-.893 1.672Zm0-1.91a.834.834 0 0 0-.819.998.84.84 0 0 0 .656.657.837.837 0 0 0 .998-.82.811.811 0 0 0-.512-.778.816.816 0 0 0-.323-.058Zm.477 1.432h-.238l-.239-.358h-.239V32h-.238v-1.075h.596a.316.316 0 0 1 .358.358c0 .12-.119.24-.238.359l.238.358Zm-.358-.597c.12 0 .12 0 .12-.12a.122.122 0 0 0-.034-.085.127.127 0 0 0-.04-.026.114.114 0 0 0-.046-.008h-.358v.358h.358v-.12ZM13.007 30.328h2.625v7.165h4.535v2.268h-7.16v-9.433Zm9.904 4.657a4.904 4.904 0 0 1 3.187-4.592 4.896 4.896 0 0 1 1.945-.303 4.794 4.794 0 0 1 4.655 2.977c.249.608.37 1.261.356 1.918a4.904 4.904 0 0 1-3.186 4.592 4.894 4.894 0 0 1-1.945.303 4.864 4.864 0 0 1-4.635-2.99 4.872 4.872 0 0 1-.377-1.905Zm7.518 0a2.455 2.455 0 0 0-2.386-2.627 2.509 2.509 0 0 0-2.387 2.508 2.511 2.511 0 0 0 2.387 2.507c1.431.239 2.386-.955 2.386-2.388Zm5.847.597v-5.254h2.625v5.254c0 1.313.716 2.03 1.79 2.03a1.67 1.67 0 0 0 1.79-1.91v-5.374h2.626v5.254c0 3.105-1.79 4.418-4.416 4.418-2.744-.12-4.415-1.433-4.415-4.418Zm12.768-5.254h3.7c3.34 0 5.37 1.91 5.37 4.657 0 2.746-2.03 4.776-5.37 4.776h-3.58v-9.433h-.12Zm3.7 7.045a2.396 2.396 0 0 0 2.625-2.388 2.401 2.401 0 0 0-1.64-2.276 2.394 2.394 0 0 0-.985-.112H51.67v4.776h1.074Zm9.069-7.045h7.517v2.269h-4.892v1.552h4.415v2.15h-4.415v3.462h-2.625v-9.433Zm11.217 0h2.625v7.165h4.534v2.268h-7.16v-9.433Zm13.961-.12h2.625l4.058 9.553H90.81l-.716-1.672h-3.7l-.715 1.672h-2.745l4.057-9.552Zm2.387 5.852-1.074-2.627-1.074 2.627h2.148Zm7.637-5.732h4.415a4.077 4.077 0 0 1 3.103 1.075 3.129 3.129 0 0 1 .765 2.787 3.13 3.13 0 0 1-1.839 2.228l2.267 3.343h-2.983l-1.91-2.866H99.64v2.866h-2.625v-9.433Zm4.296 4.538c.835 0 1.432-.478 1.432-1.075 0-.716-.597-1.075-1.432-1.075h-1.67v2.269h1.67v-.12Zm7.756-4.538h7.637v2.15h-5.012v1.432h4.535v2.15h-4.535v1.432h5.132v2.27h-7.757v-9.434ZM7.279 36.18a2.358 2.358 0 0 1-2.148 1.433 2.508 2.508 0 0 1-2.386-2.508 2.511 2.511 0 0 1 2.386-2.507A2.502 2.502 0 0 1 7.4 34.149h2.744a4.937 4.937 0 0 0-5.012-3.94 4.966 4.966 0 0 0-4.715 2.978A4.976 4.976 0 0 0 0 35.104 4.872 4.872 0 0 0 5.012 40a5.15 5.15 0 0 0 5.012-3.821H7.279Z"
    fill="#404041" />
</svg>
