<svg width="120" height="34" fill="none" xmlns="http://www.w3.org/2000/svg"><path d="M69.68.054c-1.194.239-2.214 1.188-2.52 2.357-.114.447-.114 1.217 0 1.665.156.602.39.99.87 1.467.696.692 1.326.955 2.315.955.93 0 1.662-.304 2.304-.949.696-.698.996-1.485.942-2.482-.066-1.199-.726-2.195-1.818-2.738-.588-.293-1.44-.406-2.093-.275ZM36.71 10.346c-1.818.25-4.02 1.17-5.592 2.35l-.408.3v-2.322h-4.74v22.911h4.734l.024-6.55c.024-7.202 0-6.737.402-7.829.738-2.016 2.52-3.263 5.148-3.61.372-.047.882-.089 1.128-.089h.444v-5.25l-.282.006c-.162.006-.546.041-.858.083ZM10.403 10.382c-3.083.393-6.047 2.106-7.937 4.576-4.307 5.626-2.814 13.556 3.246 17.297 3.251 2.004 7.367 2.297 10.913.775 1.92-.817 3.665-2.184 4.847-3.777l.18-.25-1.884-1.402-1.89-1.408-.305.382a7.518 7.518 0 0 1-3.024 2.231c-1.566.609-3.408.656-4.932.12-1.062-.37-1.817-.836-2.627-1.606-.942-.895-1.524-1.796-1.92-2.989-.282-.841-.354-1.426-.318-2.488.036-1.074.198-1.76.636-2.673.42-.877.792-1.402 1.446-2.052 1.05-1.05 2.255-1.695 3.731-2.01.732-.156 2.112-.138 2.856.029 1.68.382 3.222 1.354 4.206 2.655.174.227.282.322.33.292.035-.03.881-.662 1.883-1.408.996-.74 1.812-1.36 1.812-1.372 0-.018-.168-.239-.372-.495a11.958 11.958 0 0 0-7.721-4.397c-.732-.102-2.442-.12-3.156-.03ZM83.734 10.412c-2.376.346-3.983 1.247-5.087 2.858-.492.722-.75 1.3-.99 2.22-.408 1.563-.282 3.382.336 4.653.282.585.846 1.349 1.242 1.677 1.085.9 2.915 1.712 5.381 2.374 3.03.824 3.942 1.277 4.446 2.238.15.286.174.382.174.859 0 .46-.024.585-.162.877-.186.4-.612.83-1.002 1.026-.756.382-2.022.615-2.91.543-1.764-.143-3.702-.966-5.394-2.285-.204-.161-.365-.25-.395-.215-.03.03-.588.764-1.23 1.635l-1.176 1.581.402.376c.864.8 1.914 1.51 3.023 2.04 3.492 1.653 8.106 1.456 10.823-.465 1.386-.978 2.196-2.16 2.652-3.884.132-.495.156-.704.162-1.527.006-1.247-.144-1.933-.624-2.894-.936-1.862-2.706-2.96-6.72-4.177-2.363-.716-3.107-1.038-3.743-1.617-1.326-1.205-.696-3.024 1.23-3.55.546-.149 1.998-.149 2.694-.006 1.116.24 2.555.836 3.33 1.385.281.197.305.203.395.101.054-.053.618-.823 1.254-1.706l1.152-1.605-.138-.114c-.078-.06-.402-.28-.714-.495a11.795 11.795 0 0 0-4.973-1.903c-.834-.12-2.622-.113-3.438 0ZM106.951 10.382c-4.848.656-8.735 4.373-9.731 9.302-.798 3.931.366 8.06 3.054 10.852 3.071 3.192 7.685 4.273 12.076 2.834 1.65-.536 3.492-1.592 4.866-2.786.468-.4 1.266-1.282 1.266-1.384-.006-.036-.78-.603-1.728-1.265l-1.722-1.205-.174.22c-.396.496-1.242 1.271-1.734 1.594-1.998 1.294-4.643 1.617-6.911.847-1.824-.62-3.474-2.13-4.254-3.878-.192-.436-.516-1.438-.516-1.593 0-.12.06-.12 9.276-.12H120l-.036-1.39c-.054-1.975-.246-3.192-.732-4.677-1.272-3.843-4.224-6.355-8.489-7.214-.708-.143-.972-.16-2.1-.179-.708-.006-1.47.012-1.692.042Zm3.072 4.284c1.499.334 2.657.96 3.605 1.95.792.83 1.32 1.815 1.704 3.169l.036.137h-6.869c-4.71 0-6.876-.018-6.876-.06 0-.1.39-1.08.57-1.437.564-1.11 1.656-2.321 2.586-2.876a7.727 7.727 0 0 1 2.754-.996c.534-.084 1.896-.018 2.49.113ZM42.247 17.607c.018 6.796.024 6.951.15 7.596.576 2.965 2.213 5.459 4.631 7.052 3.114 2.058 7.038 2.315 10.343.668 2.952-1.468 5.046-4.194 5.748-7.482l.138-.656.018-7.058.017-7.053h-4.679l-.024 6.784c-.018 6.724-.018 6.796-.144 7.267-.624 2.315-2.358 4.004-4.596 4.475-.54.12-1.613.113-2.183-.006-1.29-.262-2.484-1.002-3.348-2.07-.462-.567-.978-1.563-1.182-2.28l-.132-.477-.018-6.85-.024-6.843h-4.74l.025 6.933ZM67.967 22.13v11.455h4.74V10.674h-4.74V22.13Z" fill="#EC5C44"/></svg>