<svg width="190" height="32" fill="none" xmlns="http://www.w3.org/2000/svg"><path fill-rule="evenodd" clip-rule="evenodd" d="M15.958 25.776V32c10.483 0 18.699-10.092 15.299-21.13a15.415 15.415 0 0 0-3.813-6.283A15.445 15.445 0 0 0 21.152.778C10.105-2.618 0 5.588 0 15.964h6.233a9.824 9.824 0 0 1 4.266-8.044 9.857 9.857 0 0 1 9.049-1.103 9.293 9.293 0 0 1 5.57 5.563c2.537 6.853-2.5 13.331-9.064 13.394v-6.13H9.821v6.132H5.1v-3.962H1.139v3.962h3.96v4.81h4.722v-4.81h6.137ZM50.144 7.375c2.645 0 5.006.666 6.8 1.893 1.039.66 1.793 1.604 2.362 3.01.567 1.133.85 2.642.85 4.246 0 1.604-.28 3.113-.85 4.34a7.219 7.219 0 0 1-2.36 2.923c-1.89 1.32-4.156 1.981-6.8 1.981h-5.76V7.375h5.758Zm-.565 3.12h-1.794V22.76h1.887c2.078 0 3.684-.47 4.911-1.227 1.327-.943 2.086-2.649 2.086-4.999 0-2.35-.67-3.963-2.086-4.81-1.322-.85-3.02-1.228-5.004-1.228Zm13.87-3.257c.243-.098.504-.145.767-.138h-.008c.569 0 1.045.19 1.327.568a1.92 1.92 0 0 1 .57 1.415 1.978 1.978 0 0 1-1.984 1.98 1.985 1.985 0 0 1-1.984-1.98 1.704 1.704 0 0 1 .662-1.415 1.92 1.92 0 0 1 .65-.43Zm2.358 5.522h-3.292v12.923h3.292V12.76Zm11.629.974c-.91-.758-1.978-1.253-3.117-1.253a5.85 5.85 0 0 0-4.44 1.894 6.564 6.564 0 0 0-1.793 4.622c0 1.793.569 3.395 1.706 4.622 1.138 1.227 2.644 1.793 4.44 1.793a5.23 5.23 0 0 0 3.21-1.038v.283c0 1.037-.283 1.893-.85 2.461-.567.568-1.327.848-2.36.848-1.518 0-2.456-.568-3.588-2.17l-2.276 2.17.095.095c.472.66 1.227 1.325 2.171 1.98.945.656 2.171.947 3.588.947 1.983 0 3.494-.568 4.627-1.793 1.132-1.225 1.793-2.736 1.793-4.716v-11.72h-3.206v.975ZM74.5 22.483c.948 0 1.706-.286 2.275-.947l.021-.006c.567-.653.85-1.515.85-2.546 0-1.032-.281-1.883-.85-2.547-.569-.665-1.328-.947-2.275-.947-.949 0-1.707.286-2.276.947-.569.66-.87 1.52-.87 2.552s.28 1.882.85 2.547c.568.665 1.327.947 2.275.947Zm12.494-9.725H83.69l-.021.002v12.92h3.326V12.759Zm-2.487-5.52c.243-.098.504-.144.766-.138a1.939 1.939 0 0 1 1.846 1.215c.098.243.145.504.138.766a1.979 1.979 0 0 1-1.983 1.98 1.984 1.984 0 0 1-1.984-1.98 1.927 1.927 0 0 1 1.217-1.843Zm6.338 2.03h3.206l.099 3.584h3.013v2.926H94.14v4.896c0 .856.097 1.422.38 1.705.19.284.758.378 1.516.378l1.138-.094v2.925h-.19c-.531.079-1.068.11-1.605.095-1.599 0-2.835-.377-3.495-1.038-.66-.66-1.04-1.88-1.04-3.584v-5.378H88.95V12.76h1.896V9.268Zm24.83-1.893h-3.305l.004.011v18.382h3.301V7.375Zm31.356 15.297c.585-.45 1.123-.957 1.606-1.515v-.011l2.171 2.17c-1.321 1.886-3.21 2.924-5.571 2.924a6.152 6.152 0 0 1-4.627-1.981c-1.234-1.227-1.896-2.918-1.896-4.811a6.853 6.853 0 0 1 1.896-4.812c1.322-1.32 2.833-1.98 4.627-1.98 2.173 0 3.967.848 5.384 2.641l-2.172 2.083c-.944-1.133-2.076-1.793-3.115-1.793a2.905 2.905 0 0 0-2.361 1.037c-.665.756-.948 1.604-.948 2.736 0 1.133.286 1.98.948 2.736a3.23 3.23 0 0 0 2.351 1.048 3.262 3.262 0 0 0 1.707-.472Zm13.025-9.549c.748.34 1.399.861 1.896 1.515l-.032-.015c.483.567.81 1.25.948 1.98.272.792.4 1.625.379 2.462v1.227h-8.688c.098.845.379 1.51.948 1.98a3.64 3.64 0 0 0 2.275.758c.56.02 1.115-.11 1.607-.379.357-.154.68-.378.948-.66.099-.1.198-.188.293-.271.178-.158.341-.303.465-.487l2.171 2.083-.095.095c-1.416 1.793-3.212 2.641-5.383 2.641-1.983 0-3.497-.667-4.722-1.893-1.224-1.227-1.793-2.831-1.793-4.812a7.563 7.563 0 0 1 1.606-4.811c1.134-1.32 2.645-1.98 4.439-1.98a6.17 6.17 0 0 1 2.738.567Zm-4.337 3.026a3.333 3.333 0 0 0-.849 1.515h5.012c-.094-.568-.283-1.136-.662-1.515-.378-.471-1.036-.66-1.794-.66a2.281 2.281 0 0 0-1.707.66Zm14.734-3.58c1.699 0 3.111.378 4.059 1.226l.006.002c1.045.849 1.517 2.07 1.517 3.585v8.3h-3.21v-1.037c-1.134.854-2.275 1.326-3.495 1.326-1.219 0-2.268-.284-3.115-1.038-.848-.754-1.227-1.697-1.227-2.924 0-1.314.478-2.45 1.517-3.207 1.039-.758 2.361-1.136 3.967-1.136.802-.006 1.6.122 2.361.378v-.66a1.71 1.71 0 0 0-.662-1.415 2.64 2.64 0 0 0-1.707-.568c-1.321 0-2.266.48-3.115 1.894l-2.086-1.981c.464-.947 1.321-1.611 2.171-2.083a8.279 8.279 0 0 1 3.019-.662Zm-.179 7.829c-.667 0-1.137.097-1.516.379l.001-.006a1.556 1.556 0 0 0-.661 1.038c0 .378.184.662.472.946.288.284.758.38 1.327.38a4.174 4.174 0 0 0 2.833-1.039V20.87a8.041 8.041 0 0 0-2.456-.471Zm14.531-7.928c1.606 0 2.829.477 3.777 1.515.85 1.037 1.322 2.453 1.417 4.245v7.557h-3.29V18.24a3.404 3.404 0 0 0-.662-2.082 2.073 2.073 0 0 0-1.706-.758 2.38 2.38 0 0 0-1.897.848c-.472.565-.661 1.411-.661 2.358v7.165h-3.306V12.849h3.213v.757c.754-.757 1.793-1.136 3.115-1.136Zm-80.55.098c1.699 0 3.111.38 4.059 1.227l.002.002c.948.849 1.517 2.07 1.517 3.585v8.299h-3.21v-1.038c-1.134.854-2.275 1.326-3.495 1.326-1.219 0-2.267-.284-3.115-1.038-.848-.754-1.227-1.697-1.227-2.924 0-1.314.478-2.45 1.517-3.207 1.039-.758 2.361-1.136 3.967-1.136.802-.006 1.6.122 2.361.378v-.66a1.71 1.71 0 0 0-.662-1.415 2.64 2.64 0 0 0-1.707-.568c-1.321 0-2.266.48-3.115 1.894l-2.086-1.98c.465-.948 1.322-1.612 2.171-2.084a8.279 8.279 0 0 1 3.023-.66Zm-.277 7.83c-.668 0-1.138.097-1.517.379l.002-.006a2.803 2.803 0 0 0-.662 1.038c0 .378.184.662.472.946.288.284.759.38 1.327.38a4.174 4.174 0 0 0 2.833-1.039V20.87a8.04 8.04 0 0 0-2.455-.471Zm18.265 4.068a9.458 9.458 0 0 0 5.25 1.588 9.486 9.486 0 0 0 6.667-2.774 9.465 9.465 0 0 0 2.776-6.66c0-1.865-.554-3.69-1.593-5.24a9.46 9.46 0 0 0-14.536-1.428 9.428 9.428 0 0 0 1.436 14.514Zm1.836-13.041a6.149 6.149 0 0 1 3.414-1.028l-.008.003a6.13 6.13 0 0 1 5.674 3.784 6.13 6.13 0 0 1-3.331 8.01 6.15 6.15 0 0 1-6.691-1.336 6.124 6.124 0 0 1 .942-9.433Z" fill="#0080FF"/></svg>