<svg width="40" height="40" fill="none" xmlns="http://www.w3.org/2000/svg"><path d="M37.616 35.78a1.235 1.235 0 0 1 .376.92 1.295 1.295 0 0 1-2.216.92 1.28 1.28 0 0 1-.376-.92 1.3 1.3 0 0 1 1.296-1.304 1.236 1.236 0 0 1 .92.384Zm.152-.148a1.465 1.465 0 0 0-1.072-.44 1.508 1.508 0 1 0 1.4 2.082 1.51 1.51 0 0 0-.328-1.646v.004Zm-.848.996a.75.75 0 0 1-.28.036h-.26v-.6h.252c.16 0 .28.02.348.06.068.04.112.124.112.24a.256.256 0 0 1-.172.26v.004Zm-.832.888h.292v-.648h.232c.152 0 .264.016.324.052.104.064.156.188.156.38v.132l.004.052a.114.114 0 0 1 .004.02c0 .008.004.012.008.012h.272l-.008-.016a.177.177 0 0 1-.016-.084v-.244a.46.46 0 0 0-.096-.26c-.06-.088-.156-.14-.284-.164a.679.679 0 0 0 .24-.08c.108-.072.16-.184.16-.328 0-.208-.08-.348-.256-.42-.096-.04-.244-.06-.452-.06h-.58v1.656Z" fill="#E4002B"/><path d="M38.345 24.812c.108-2.132-.288-4.432-2.144-6.512-1.908-2.056-5.128-3.8-11.748-4.208.344-1.072.644-2.056.96-3.06 3.96.14 7.484.424 10.48.812.24-1.072.368-2.12.612-3.136a19.004 19.004 0 0 0-.968-1.296c-1.424-.168-2.848-.52-4.376-.72a79.805 79.805 0 0 0-6.576-.564 3416.573 3416.573 0 0 0-5.204 15.62c9.848.852 13.64 3.508 13.42 7.252-.2 2.024-2.044 3.86-4.48 4.08-2.888.196-4.212-.976-5.08-2.256a385.502 385.502 0 0 1-2.348-3.56c-.22-.368-.512-.128-.776.128-.583.566-1.169 1.13-1.756 1.692-.376.328-.292.612-.16.888.52 1.227 1.049 2.451 1.584 3.672.86.528 4.916 1.248 7.948 1.024a13.467 13.467 0 0 0 6.748-2.568c2.1-1.628 3.628-3.82 3.864-7.288Z" fill="#fff"/><path d="M3.892 31.852c.38.515.782 1.01 1.208 1.484a84.57 84.57 0 0 0 12.08 1.168l-.04-1.38c-2.716-.152-3.964-.568-4.18-1.104-.184-.428-.216-1.068-.252-1.696a208.06 208.06 0 0 1-.2-13.22c1.52-.028 3.032-.04 4.62-.06.768-.348 1.492-.696 2.26-1.04l.004-1.572c-2.352.008-4.584.048-6.824.112.064-1.908.14-3.664.252-5.38.08-1.128.86-1.952 1.664-2.016 1.292-.052 2.448.464 3.572.96.616.3 1.228.6 1.86.92.304.08.664.152.88-.108.376-.448.732-.86 1.1-1.292.2-.296.116-.464.032-.572-.768-.604-1.544-1.2-2.328-1.784-.472-.32-1.22-.388-1.96-.388-.292 0-.584.008-.86.016-.756.04-1.72.16-3.296.548-3.552.956-7.816 3.432-8.268 7.48a79.25 79.25 0 0 0-.148 1.996c-1.004.08-1.92.156-2.78.24-.06.767-.107 1.536-.14 2.304.872-.052 1.784-.1 2.8-.144a91.583 91.583 0 0 0 .388 12.412c.068.596.132 1.188.056 1.568-.064.364-.652.556-1.5.548Z" fill="#fff"/><path d="M36.508 8.708c-.248 1.012-.376 2.064-.612 3.136-3-.388-6.52-.672-10.48-.812-.32 1-.62 1.988-.96 3.06 6.62.408 9.84 2.152 11.748 4.208 1.856 2.08 2.248 4.38 2.14 6.512-.24 3.468-1.764 5.66-3.864 7.284-2.12 1.6-4.692 2.392-6.748 2.568-3.028.224-7.08-.496-7.944-1.024a297.643 297.643 0 0 1-1.584-3.672c-.132-.276-.216-.56.16-.888.587-.562 1.172-1.126 1.756-1.692.264-.256.556-.496.776-.128a379.26 379.26 0 0 0 2.344 3.56c.868 1.28 2.192 2.452 5.088 2.256 2.428-.216 4.28-2.056 4.476-4.08.212-3.744-3.576-6.4-13.428-7.252a4984.647 4984.647 0 0 1 5.208-15.612c2.34.108 4.504.3 6.576.568 1.528.192 2.952.548 4.376.712A20 20 0 0 0 0 20a19.904 19.904 0 0 0 3.892 11.852c.848.008 1.436-.184 1.5-.548.076-.384.012-.972-.056-1.568-.4-3.928-.54-8.164-.392-12.412-.934.04-1.867.089-2.8.144.04-.788.08-1.532.144-2.304.864-.084 1.776-.16 2.78-.24.04-.68.088-1.332.148-1.992.452-4.052 4.716-6.532 8.268-7.484a17.416 17.416 0 0 1 3.296-.544c.276-.012.568-.02.864-.02.736 0 1.48.068 1.956.388.768.576 1.52 1.148 2.328 1.784.08.108.168.28-.032.572L20.8 8.92c-.216.26-.576.192-.88.112a72.573 72.573 0 0 0-1.86-.92c-1.12-.5-2.28-1.016-3.572-.96-.804.06-1.584.884-1.664 2.012a169.727 169.727 0 0 0-.252 5.38c2.24-.064 4.472-.104 6.828-.116l-.004 1.576c-.768.344-1.492.692-2.264 1.04-1.588.02-3.1.032-4.62.06-.074 4.408-.007 8.817.2 13.22.04.628.072 1.268.252 1.692.216.54 1.464.952 4.184 1.108l.04 1.376a84.492 84.492 0 0 1-12.08-1.16A20 20 0 0 0 40 20a19.903 19.903 0 0 0-3.492-11.296v.004Z" fill="#E4002B"/></svg>