<svg height="34" viewBox="0 0 105 34" fill="none" xmlns="http://www.w3.org/2000/svg">
  <path
    d="M13.807 0h.924c3.211.07 6.37 1.363 8.638 3.653-.838.856-1.693 1.677-2.513 2.534-1.274-1.154-2.81-2.045-4.484-2.36-2.478-.524-5.148-.052-7.224 1.364-2.269 1.485-3.804 4.002-4.136 6.693-.366 2.657.384 5.453 2.111 7.515 1.658 2.01 4.188 3.268 6.806 3.356 2.443.14 4.99-.612 6.77-2.325 1.396-1.206 2.042-3.04 2.251-4.823-2.896 0-5.793.017-8.69 0v-3.6h12.197c.629 3.862-.279 8.214-3.21 10.975-1.955 1.957-4.66 3.11-7.416 3.338-2.67.262-5.427-.245-7.8-1.538-2.845-1.52-5.113-4.09-6.23-7.113C.754 14.89.737 11.744 1.714 8.948c.89-2.552 2.6-4.806 4.799-6.379C8.624 1.014 11.189.157 13.807 0Z"
    fill="#3780FF" />
  <path d="M83.775.91h3.735v24.956c-1.24 0-2.496.017-3.735-.018.018-8.301 0-16.62 0-24.939Z" fill="#38B137" />
  <path
    d="M34.763 9.56c2.303-.438 4.799.052 6.7 1.432 1.728 1.224 2.932 3.146 3.299 5.243.47 2.43-.123 5.086-1.693 7.009-1.693 2.15-4.467 3.303-7.172 3.128-2.478-.14-4.886-1.38-6.351-3.408-1.658-2.237-2.06-5.313-1.152-7.934.907-2.814 3.472-4.964 6.37-5.47Zm.524 3.32a4.69 4.69 0 0 0-2.443 1.555c-1.693 2.028-1.588 5.33.279 7.218 1.064 1.084 2.67 1.59 4.153 1.293 1.378-.244 2.582-1.17 3.245-2.394 1.152-2.08.82-4.946-.942-6.571-1.134-1.049-2.792-1.486-4.292-1.101Z"
    fill="#FA3913" />
  <path
    d="M53.261 9.56c2.635-.507 5.515.227 7.486 2.08 3.211 2.883 3.56 8.283.82 11.604-1.657 2.097-4.345 3.25-6.997 3.128-2.53-.07-5.025-1.328-6.526-3.408-1.693-2.29-2.059-5.435-1.1-8.109.96-2.726 3.473-4.806 6.317-5.295Zm.524 3.32a4.77 4.77 0 0 0-2.443 1.538c-1.675 1.992-1.605 5.243.192 7.148 1.064 1.136 2.722 1.695 4.258 1.38 1.36-.261 2.582-1.17 3.245-2.394 1.135-2.097.803-4.963-.977-6.588-1.134-1.049-2.792-1.468-4.275-1.084Z"
    fill="#FCBD06" />
  <path
    d="M68.947 10.573c2.007-1.258 4.677-1.608 6.84-.524.681.297 1.24.803 1.78 1.31.018-.472 0-.96.018-1.45 1.17.017 2.338 0 3.525.017v15.415c-.018 2.324-.611 4.788-2.286 6.483-1.832 1.87-4.642 2.447-7.172 2.063-2.705-.402-5.06-2.377-6.107-4.876 1.047-.507 2.146-.91 3.228-1.381.61 1.433 1.85 2.657 3.403 2.936 1.553.28 3.35-.105 4.362-1.398 1.082-1.328 1.082-3.146 1.03-4.771-.803.786-1.728 1.485-2.845 1.748-2.425.681-5.095-.158-6.962-1.8-1.885-1.643-3.001-4.177-2.897-6.694.052-2.849 1.658-5.593 4.083-7.078Zm3.612 2.237c-1.064.175-2.059.769-2.74 1.59-1.64 1.958-1.64 5.086.018 7.008.943 1.136 2.46 1.765 3.926 1.608 1.379-.14 2.653-1.013 3.333-2.22 1.152-2.044.96-4.823-.593-6.605a4.29 4.29 0 0 0-3.944-1.381Z"
    fill="#3780FF" />
  <path
    d="M92 11.465c2.093-1.957 5.321-2.621 8.009-1.59 2.547.961 4.17 3.39 4.99 5.89-3.786 1.572-7.555 3.128-11.342 4.7.523.997 1.326 1.906 2.408 2.273 1.518.541 3.333.35 4.607-.664.506-.385.907-.892 1.291-1.381.96.647 1.919 1.276 2.879 1.922-1.361 2.045-3.647 3.478-6.107 3.705-2.722.332-5.619-.716-7.381-2.848-2.897-3.356-2.618-8.983.645-12.007Zm1.866 3.233c-.593.857-.837 1.905-.82 2.937 2.53-1.049 5.06-2.098 7.591-3.164-.419-.978-1.431-1.573-2.46-1.73-1.658-.297-3.386.594-4.31 1.957Z"
    fill="#FA3913" />
</svg>
