<svg xmlns="http://www.w3.org/2000/svg" width="128" height="34" fill="none">
  <path fill="#069"
    d="M94.31 2.436C94.31 1.09 95.424 0 96.8 0h28.71c1.375 0 2.49 1.09 2.49 2.436v29.128c0 1.346-1.115 2.436-2.49 2.436H96.8c-1.376 0-2.49-1.09-2.49-2.436V2.436Z" />
  <path fill="#000" fill-rule="evenodd"
    d="M0 28.48h14.06v-4.63H5.088V6.19H0v22.29ZM21.178 28.48V13.127H16.09V28.48h5.088ZM18.634 11.03c1.775 0 2.88-1.179 2.88-2.653-.034-1.506-1.105-2.652-2.846-2.652-1.74 0-2.879 1.146-2.879 2.652 0 1.474 1.104 2.653 2.812 2.653h.033ZM23.541 28.48h5.089v-8.574c0-.459.033-.917.167-1.245.368-.917 1.205-1.866 2.61-1.866 1.842 0 2.579 1.408 2.579 3.47v8.215h5.088v-8.803c0-4.716-2.51-6.91-5.858-6.91-2.745 0-3.95 1.538-4.62 2.586h.034v-2.226H23.54c.067 1.44 0 15.353 0 15.353ZM46.253 6.19h-5.089v22.29h5.089v-4.978l1.272-1.605 3.983 6.583h6.26l-6.695-9.53 5.859-6.484h-6.126s-4.185 5.8-4.553 6.489V6.19Z"
    clip-rule="evenodd" />
  <path fill="#000" fill-rule="evenodd"
    d="M71.376 22.076c.067-.395.167-1.15.167-2.006 0-3.969-2.009-7.998-7.298-7.998-5.657 0-8.268 4.488-8.268 8.557 0 5.034 3.18 8.178 8.737 8.178 2.21 0 4.251-.327 5.925-1.015l-.67-3.37c-1.372.456-2.778.684-4.518.684-2.377 0-4.453-.978-4.62-3.063l10.545.032Zm-10.579-3.452c.134-1.31 1.005-3.243 3.18-3.243 2.31 0 2.846 2.064 2.846 3.243h-6.025ZM84.104 6.19v7.716h-.067c-.737-1.08-2.277-1.8-4.318-1.8-3.917 0-7.365 3.143-7.332 8.514 0 4.978 3.113 8.22 6.997 8.22 2.109 0 4.117-.917 5.121-2.686h.101l.2 2.326h4.52a85.237 85.237 0 0 1-.134-4.781V6.19h-5.088Zm0 15.183c0 .393-.034.787-.1 1.114-.302 1.408-1.507 2.39-2.98 2.39-2.109 0-3.481-1.703-3.481-4.388 0-2.521 1.171-4.552 3.514-4.552 1.574 0 2.679 1.08 2.98 2.423.067.295.067.623.067.917v2.096Z"
    clip-rule="evenodd" />
  <path fill="#fff" fill-rule="evenodd"
    d="M104.522 28.461V13.11h-5.088V28.46h5.088Zm-2.544-17.449c1.774 0 2.879-1.179 2.879-2.652-.033-1.506-1.105-2.653-2.845-2.653-1.741 0-2.88 1.147-2.88 2.653 0 1.473 1.105 2.652 2.813 2.652h.033ZM107.338 28.461h5.088v-8.573c0-.46.034-.918.168-1.246.368-.916 1.205-1.866 2.611-1.866 1.841 0 2.578 1.408 2.578 3.472v8.213h5.088v-8.803c0-4.715-2.511-6.91-5.859-6.91-2.745 0-3.95 1.539-4.619 2.587h.034v-2.227h-5.089c.067 1.441 0 15.353 0 15.353Z"
    clip-rule="evenodd" />
</svg>
