<svg height="28" viewBox="0 0 140 28" fill="none" xmlns="http://www.w3.org/2000/svg">
  <path
    d="M4.587 18.465c0 1.61.356 2.846.821 3.594.61.979 1.52 1.394 2.447 1.394 1.196 0 2.29-.295 4.4-3.19 1.689-2.32 3.68-5.578 5.02-7.62l2.268-3.46c1.575-2.403 3.4-5.074 5.49-6.884C26.741.82 28.583 0 30.435 0c3.112 0 6.076 1.79 8.345 5.147 2.482 3.677 3.687 8.308 3.687 13.087 0 2.841-.564 4.928-1.524 6.578C40.016 26.407 38.208 28 35.167 28v-4.547c2.604 0 3.254-2.375 3.254-5.093 0-3.873-.91-8.171-2.914-11.243-1.422-2.178-3.265-3.51-5.293-3.51-2.193 0-3.958 1.643-5.941 4.57-1.055 1.556-2.137 3.451-3.352 5.59l-1.338 2.353c-2.688 4.73-3.37 5.808-4.713 7.586C12.515 26.82 10.503 28 7.855 28c-3.141 0-5.127-1.35-6.358-3.385C.493 22.957 0 20.782 0 18.303l4.587.162Z"
    fill="#0081FB" />
  <path
    d="M3.617 5.468C5.72 2.25 8.755 0 12.236 0c2.016 0 4.02.592 6.112 2.288 2.29 1.855 4.73 4.909 7.773 9.941l1.091 1.806c2.635 4.357 4.134 6.599 5.011 7.656 1.128 1.357 1.918 1.762 2.945 1.762 2.603 0 3.253-2.375 3.253-5.093l4.047-.126c0 2.841-.565 4.928-1.525 6.578C40.017 26.407 38.21 28 35.169 28c-1.89 0-3.565-.407-5.417-2.142-1.424-1.33-3.088-3.695-4.369-5.82l-3.808-6.316c-1.911-3.17-3.664-5.533-4.679-6.603-1.091-1.151-2.494-2.54-4.733-2.54-1.812 0-3.35 1.261-4.639 3.192L3.617 5.468Z"
    fill="url(#a)" />
  <path
    d="M12.162 4.578c-1.813 0-3.351 1.262-4.64 3.193-1.82 2.728-2.935 6.792-2.935 10.694 0 1.61.356 2.846.821 3.594l-3.91 2.556C.492 22.957 0 20.782 0 18.303c0-4.508 1.246-9.207 3.617-12.835C5.72 2.25 8.755 0 12.235 0l-.073 4.578Z"
    fill="url(#b)" />
  <path
    d="M51.383.885h5.306l9.022 16.203L74.734.884h5.191v26.623h-4.328V7.104l-7.913 14.13h-4.061L55.71 7.103v20.404h-4.328V.885Zm42.105 9.927c-3.104 0-4.974 2.319-5.421 5.19h10.535c-.217-2.958-1.936-5.19-5.114-5.19Zm-9.713 6.827c0-6.043 3.934-10.441 9.788-10.441 5.758 0 9.196 4.342 9.196 10.763v1.18H88.067c.521 3.124 2.61 5.23 5.976 5.23 2.687 0 4.366-.814 5.958-2.302l2.299 2.796c-2.166 1.977-4.922 3.118-8.41 3.118-6.337 0-10.115-4.587-10.115-10.344Zm24.233-6.446h-3.984V7.674h3.984V1.856h4.176v5.818h6.054v3.519h-6.054v8.917c0 3.045.981 4.127 3.391 4.127 1.1 0 1.731-.094 2.663-.248v3.48a12.522 12.522 0 0 1-3.468.476c-4.508 0-6.762-2.446-6.762-7.34v-9.412Zm27.816 3.421c-.839-2.102-2.71-3.65-5.46-3.65-3.574 0-5.861 2.517-5.861 6.618 0 3.997 2.105 6.636 5.69 6.636 2.817 0 4.829-1.627 5.631-3.652v-5.952ZM140 27.508h-4.099V24.73c-1.146 1.635-3.232 3.252-6.609 3.252-5.432 0-9.062-4.514-9.062-10.401 0-5.944 3.717-10.384 9.292-10.384 2.756 0 4.918 1.094 6.379 3.024V7.674H140v19.834Z"
    fill="#192830" />
  <defs>
    <linearGradient id="a" x1="9.009" y1="17.152" x2="38.249" y2="18.64" gradientUnits="userSpaceOnUse">
      <stop stop-color="#0064E1" />
      <stop offset=".4" stop-color="#0064E1" />
      <stop offset=".83" stop-color="#0073EE" />
      <stop offset="1" stop-color="#0082FB" />
    </linearGradient>
    <linearGradient id="b" x1="6.646" y1="20.377" x2="6.646" y2="9.675" gradientUnits="userSpaceOnUse">
      <stop stop-color="#0082FB" />
      <stop offset="1" stop-color="#0064E0" />
    </linearGradient>
  </defs>
</svg>
