<svg width="118" height="32" fill="none" xmlns="http://www.w3.org/2000/svg"><path d="M16.225 29.937c-1.775.313-3.581.407-5.45.657l-5.699-16.75v17.469C3.301 31.5 1.682 31.75 0 32V0h4.734l6.477 18.157V0h5.014v29.937Zm9.81-18.218c1.931 0 4.89-.094 6.665-.094v5c-2.211 0-4.796 0-6.665.094v7.437c2.928-.187 5.855-.437 8.814-.531v4.812l-13.797 1.094V0H34.85v5h-8.814v6.719ZM53.38 5h-5.17v23c-1.682 0-3.364 0-4.983.062V5h-5.17V0H53.38v5Zm8.097 6.375h6.82v5h-6.82v11.344h-4.89V0h13.921v5h-9.031v6.375Zm17.128 11.969c2.834.062 5.7.281 8.471.437v4.938c-4.453-.282-8.907-.563-13.454-.657V0h4.983v23.344Zm12.675 5.718c1.589.094 3.27.188 4.89.375V0h-4.89v29.063ZM118 0l-6.322 15.219L118 32c-1.869-.25-3.737-.594-5.606-.906l-3.581-9.25-3.644 8.5c-1.806-.313-3.55-.407-5.356-.657l6.415-14.656L100.436 0h5.356l3.27 8.406L112.55 0H118Z" fill="#D81F26"/></svg>