<svg width="320" height="30" fill="none" xmlns="http://www.w3.org/2000/svg"><path d="M23.987 3.1c0-2.48-3.303-3.1-5.91-3.1v.372c1.564 0 2.781.372 2.781 1.24 0 .495-.521 1.24-2.086 1.24-1.216 0-3.824-.497-5.736-.992C10.776 1.24 8.691.743 6.953.743c-3.477 0-5.91 1.86-5.91 3.967 0 1.86 1.912 2.48 2.607 2.727l.174-.248c-.348-.248-.87-.496-.87-1.24 0-.495.696-1.363 2.434-1.363 1.565 0 3.65.496 6.432 1.115 2.433.496 5.04.868 6.43.992v3.843l-2.606 1.612v.124l2.607 1.611v5.33c-1.39.62-2.955.745-4.346.745-2.607 0-4.866-.496-6.778-1.984l7.126-2.48V6.943L5.563 9.67c.694-1.611 2.606-2.727 4.519-3.47l-.174-.373C4.693 6.818 0 10.29 0 14.504c0 4.959 5.736 8.678 12.167 8.678 6.953 0 11.472-3.967 11.472-8.058h-.347c-1.043 1.611-2.608 3.1-4.52 3.843v-5.083l2.782-1.611v-.124l-2.782-1.612V6.694c2.608 0 5.215-1.24 5.215-3.595ZM8.865 16.734l-2.086.744c-1.217-1.115-1.912-2.603-1.912-4.71 0-.868 0-1.86.348-2.604l3.65-1.115v7.685Zm18.425 2.852-2.26 1.24.348.247 1.042-.62 3.824 2.48 5.215-2.48-.174-.247-1.39.62-1.739-1.24v-8.43l1.391-.744 2.955 1.736v7.562c0 4.71-1.39 5.454-4.346 6.198v.372c4.867.124 9.387-.992 9.387-7.066v-8.182l1.564-.868-.348-.248-1.39.744-4.346-2.603-4.867 2.603V.496h-.347L25.725 3.47v.248c.695.248 1.738.496 1.738 1.86l-.174 14.008Zm31.808-1.364-4.345 2.355-4.346-2.479v-1.487l8.17-3.967v-.124l-4.172-4.463-9.038 3.47v8.183l-1.738.992.347.247 1.565-.867 5.91 3.099 7.821-4.463-.174-.496Zm-8.69-2.107V10.04l.347-.124 3.824 4.34-4.172 1.859Zm41.89-14.133c0-.371-.174-.743-.348-1.115h-.348c-.521.991-1.216 1.487-2.955 1.487-1.564 0-2.607-.62-3.302-1.115l-5.04 4.09.347.249 1.738-1.116c1.043.62 1.912 1.116 4.346 1.24v10.289L76.48 3.472c-.869-.993-2.086-2.356-4.52-2.356-2.78 0-5.214 1.735-4.866 4.463h.521c.174-.744.696-1.612 1.912-1.612.87 0 1.739.62 2.26 1.24v4.09c-3.129 0-5.215.992-5.215 2.852 0 .992.696 2.48 2.782 2.851v-.248c-.348-.248-.522-.496-.522-.868 0-.62.695-1.115 1.912-1.115h.87v5.206c-3.65 0-6.606 1.488-6.606 3.967 0 2.355 2.781 3.471 5.91 3.347v-.248c-1.912-.124-2.781-.744-2.781-1.611 0-1.116 1.043-1.612 2.433-1.612s2.608.62 3.477 1.364l5.04-3.967-.347-.248-1.217.992c-1.912-1.24-2.955-1.612-5.215-1.86V5.702l13.906 17.356h1.043V5.702c2.607-.123 5.04-1.611 5.04-3.719Zm12.688 16.24-4.345 2.355-4.346-2.479v-1.487l8.17-3.967v-.124l-4.172-4.463-9.038 3.47v8.183l-1.738.992.347.247 1.565-.867 5.91 3.099 7.821-4.463-.174-.496Zm-8.69-2.107V10.04l.347-.124 3.824 4.34-4.171 1.859Zm37.023-6.695-1.217.62-3.302-1.983-3.824 2.48 1.564 1.115v9.297l-4.172-1.86v-7.685l1.391-.62-3.998-2.727-3.824 2.48 1.564 1.115v8.925l-.521.248-3.65-1.86V11.53c0-1.736-1.217-2.231-2.608-2.851-1.216-.62-1.912-.992-1.912-1.86 0-.744 1.043-1.116 1.565-1.363v-.248c-1.391 0-5.041.991-5.041 3.347 0 1.24.869 1.735 1.738 2.355.869.62 1.738 1.116 1.738 2.231v7.19l-1.912.992.348.248 1.738-.992 3.998 2.48 4.346-2.108 4.866 2.108 9.213-3.843v-8.306l2.259-1.24-.347-.248Zm32.33-6.818-1.738 1.116-3.824-2.48-5.736 2.976V1.488h-.522l.174 20.082c-.521 0-2.086-.248-3.302-.496l-.348-16.735c0-1.24-1.217-2.975-4.345-2.975-3.129 0-5.215 1.735-5.215 3.47h.522c.173-.743.695-1.363 1.738-1.363 1.043 0 1.912.496 1.912 2.108v4.834c-3.129.124-5.041 1.364-5.041 2.975 0 .992.695 2.48 2.781 2.48v-.248c-.695-.248-.869-.62-.869-.868 0-.744.869-.992 2.26-.992h.695v7.686c-2.607.62-3.65 1.984-3.65 3.471 0 2.108 2.259 3.595 5.736 3.595 2.433 0 4.519-.247 6.605-.62 1.738-.247 3.998-.62 5.041-.62 1.39 0 1.912.497 1.912 1.116 0 .868-.522 1.24-1.217 1.364V30c2.781-.372 4.519-1.612 4.519-3.471 0-1.86-2.607-2.975-5.388-2.975-1.391 0-4.346.372-6.432.62-2.433.372-4.866.62-5.562.62-1.216 0-2.607-.372-2.607-1.612 0-.992 1.217-1.86 4.172-1.86 1.564 0 3.476.124 5.388.496 2.086.372 3.998.744 5.736.744 2.607 0 4.867-.62 4.867-3.223V4.09l2.086-1.24-.348-.248Zm-7.126 7.562c-.522.372-1.217.744-2.086.744-.869 0-1.738-.372-2.086-.744V4.711l1.738-.868 2.434 1.612v4.71Zm0 3.72c-.348-.249-1.217-.62-2.086-.62-.869 0-1.738.371-2.086.62V10.66c.348.248 1.217.62 2.086.62.869 0 1.738-.372 2.086-.62v3.223Zm0 5.826c0 .992-.87 1.983-2.782 1.983h-1.39V14.38c.348-.248 1.217-.62 2.086-.62.869 0 1.564.372 2.086.62v5.33Zm23.813-8.802-5.563-2.851-8.517 3.47v8.059l-1.738.991.174.248 1.391-.743 5.562 2.975 8.691-3.72V10.91Zm-9.387 7.81V9.793l4.346 2.232v8.801l-4.346-2.107Zm25.899-10.413h-.347c-.522.248-1.043.496-1.565.496-.695 0-1.564-.248-1.912-.62h-.347l-2.955 2.355-2.955-2.355-5.215 2.48.174.247 1.391-.62 1.738 1.364v7.81l-2.26 1.24.348.247 1.043-.62 4.172 2.48 5.388-2.603-.174-.248-1.564.62-2.086-1.24V10.66c.869.62 1.912 1.24 3.129 1.24 2.433.124 3.824-1.612 3.997-3.595Zm20.859 11.9-5.91 2.852-7.996-8.678 5.736-6.322h.348c.695.496 1.738.992 2.955.992 1.216 0 2.086-.496 2.607-.992h.348c-.174 2.48-2.608 3.967-4.346 3.967s-2.607-.62-3.65-.992l-.521.62 8.69 9.173 1.739-.743v.124Zm-19.12-.62-2.26 1.24.348.248 1.043-.62 3.824 2.48 5.214-2.48-.348-.247-1.39.62-1.738-1.24V.496h-.174l-6.258 2.975v.248c.696.248 1.739.372 1.739 1.86v14.008ZM248.561 3.1c0-2.48-3.303-3.099-5.91-3.099v.372c1.564 0 2.781.372 2.781 1.24 0 .495-.522 1.24-2.086 1.24-1.217 0-3.824-.497-5.736-.992-2.26-.496-4.345-.992-6.084-.992-3.476 0-5.909 1.86-5.909 3.967 0 1.86 1.912 2.479 2.607 2.727l.174-.248c-.522-.248-1.043-.496-1.043-1.24 0-.495.695-1.363 2.433-1.363 1.565 0 3.65.496 6.431 1.115 2.434.496 5.041.868 6.432.992v3.843l-2.608 1.612v.124l2.608 1.611v5.33c-1.391.62-2.955.745-4.346.745-2.607 0-4.867-.496-6.779-1.984l7.127-2.48V6.943l-8.691 2.727c.869-1.611 2.781-2.727 4.519-3.595l-.174-.248c-5.214.992-9.907 4.34-9.907 8.554 0 4.959 5.736 8.678 12.167 8.678 6.953 0 11.472-3.967 11.472-8.058h-.348c-1.042 1.612-2.607 3.1-4.519 3.843V13.76l2.781-1.611v-.124l-2.607-1.612V6.694c2.607 0 5.215-1.24 5.215-3.595Zm-15.123 13.636-2.085.744c-1.217-1.115-1.912-2.603-1.912-4.71 0-.868.173-1.86.521-2.604l3.65-1.115-.174 7.685ZM254.644 1.86h-.174l-3.476 2.107v.124l2.955 2.355h.348l3.476-2.107v-.124l-3.129-2.356Zm5.215 18.347-1.391.62-1.738-1.24v-8.554l1.738-.868-.347-.248-1.217.744-3.129-2.603-5.041 2.48.348.371 1.217-.62 1.564 1.364v8.058l-2.26 1.24.174.247 1.217-.62 3.824 2.48 5.215-2.48-.174-.371Zm29.027-.124-1.216.62-1.912-1.24v-8.43l1.738-.992-.348-.248-1.39.868-3.998-2.603-5.215 2.603-3.997-2.603-4.867 2.603-3.129-2.603-5.041 2.48.174.371 1.217-.62 1.738 1.364v8.058l-1.391.992 3.998 2.355 3.824-2.48-1.564-1.115v-8.43l1.564-.744 2.607 1.736v7.438l-1.39.991 3.998 2.356 3.824-2.48-1.565-1.115v-8.182l1.391-.62 2.781 1.736v7.438l-1.217.867 3.998 2.604 5.388-2.604v-.371Zm15.123-1.86-4.346 2.355-4.345-2.479v-1.487l8.169-3.967v-.124l-4.171-4.463-9.039 3.47v8.43l6.084 3.1 7.821-4.463-.173-.372Zm-8.691-2.107V10.04l.347-.124 3.824 4.34-4.171 1.859ZM319.826 15l-3.302-1.86c2.259-1.363 3.128-3.223 3.128-4.462v-.744h-.347c-.348.62-1.043 1.24-2.434 1.24-1.39 0-2.259-.496-3.128-1.24l-7.822 3.1v4.462l2.955 1.611c-2.955 1.86-3.477 3.1-3.477 4.091 0 1.24.869 2.108 2.26 2.48l.174-.248c-.348-.248-.696-.372-.696-.992 0-.372.696-.992 2.086-.992 1.738 0 2.781.868 3.303 1.24L320 19.463V15h-.174Zm-1.912-3.719c-1.217 1.488-3.824 2.975-5.388 3.719l-1.912-1.116V9.545c.695 1.24 2.607 2.232 4.519 2.232 1.217 0 1.912-.124 2.781-.496Zm-2.955 9.917c-.869-1.363-2.955-2.355-5.04-2.355-.522 0-1.912 0-3.303.62.869-.992 3.129-2.728 6.084-3.967l2.085 1.24.174 4.462Z" fill="#000"/></svg>