<svg width="132" height="32" fill="none" xmlns="http://www.w3.org/2000/svg"><path d="M32.176 3.347h8.176c3.033 0 5.01.134 6.725 2.009 1.187 1.339 1.846 2.945 1.846 4.82 0 1.874-.66 3.48-1.978 4.82-1.319 1.339-3.033 2.142-7.385 2.142h-3.956v11.113h-3.428V3.347Zm3.428 10.98h3.956c2.242 0 5.67-.134 5.67-4.285 0-3.883-3.164-3.883-5.01-3.883h-4.616v8.167ZM59.868 28.25c-.264-.803-.264-1.74-.264-2.544-1.582 2.812-3.824 3.08-5.274 3.08-3.956 0-6.066-2.276-6.066-5.088 0-1.34.527-3.615 3.033-5.088 1.846-1.071 4.483-1.071 5.934-1.071.791 0 1.318 0 2.241.134 0-2.143 0-3.08-.659-3.883-.66-.804-1.978-1.071-2.9-1.071-3.166 0-3.43 2.276-3.43 2.945H49.32c.132-.937.263-2.142 1.186-3.213 1.32-1.473 3.693-1.875 5.539-1.875 2.506 0 5.143.804 6.066 2.544.527 1.072.527 1.875.527 2.678l-.132 8.301c0 .268 0 2.544.264 4.285h-2.9v-.134Zm-2.242-8.569c-1.318 0-6.197 0-6.197 3.481 0 1.071.659 2.946 3.56 2.946 1.582 0 2.901-.67 3.692-1.875.66-1.205.791-2.142.791-4.552-.527.134-1.054 0-1.846 0Zm7.78-16.335h3.165v24.904h-3.164V3.347Zm16.88 24.904c-.264-.803-.264-1.74-.264-2.544-1.582 2.812-3.824 3.08-5.275 3.08-3.956 0-6.066-2.276-6.066-5.088 0-1.34.528-3.615 3.033-5.088 1.846-1.071 4.484-1.071 5.934-1.071.792 0 1.319 0 2.242.134 0-2.143 0-3.08-.66-3.883-.659-.804-1.977-1.071-2.9-1.071-3.165 0-3.429 2.276-3.429 2.945h-3.165c.132-.937.264-2.142 1.187-3.213 1.319-1.473 3.692-1.875 5.538-1.875 2.506 0 5.143.804 6.067 2.544.527 1.072.527 1.875.527 2.678l-.132 8.301c0 .268 0 2.544.264 4.285h-2.901v-.134Zm-2.11-8.569c-1.319 0-6.198 0-6.198 3.481 0 1.071.66 2.946 3.56 2.946 1.583 0 2.902-.67 3.693-1.875.66-1.205.791-2.142.791-4.552-.66.134-1.055 0-1.846 0Zm7.78-6.695V10.98h3.165v2.812c.395-.67 1.582-3.08 5.407-3.08 1.582 0 6.197.536 6.197 5.891v11.783h-3.296v-10.98c0-1.07-.132-2.141-.924-2.945-.79-.803-1.977-1.205-3.032-1.205-2.374 0-4.484 1.74-4.484 5.222v9.908h-3.165V12.987h.132Zm15.824-2.008h3.033V7.23l3.165-1.071v4.686h3.824v2.41h-3.824v10.31c0 .803 0 2.276 2.242 2.276.659 0 1.318-.134 1.582-.134v2.544c-.527.134-1.45.268-2.637.268-3.033 0-4.352-.937-4.352-3.75V13.256h-3.033V10.98Zm12.264-7.632h3.824v3.615h-3.824V3.347Zm.264 7.632h3.165v17.272h-3.165V10.979Zm6.198 3.481c0-1.205-.132-2.41-.132-3.48h3.164l.132 3.346c.66-2.41 2.638-3.213 4.088-3.347.923-.134 1.715-.134 2.242-.134v3.214c-.132 0-.396-.134-.659-.134h-.923c-3.825 0-4.616 2.276-4.616 5.221v9.239h-3.165V14.46h-.131ZM12.528 0c-6.594 0-12 5.49-12 12.184 0 6.695 5.406 12.184 12 12.184 6.593 0 12-5.49 12-12.184C24.527 5.49 19.12 0 12.527 0Zm0 20.62c-4.616 0-8.308-3.75-8.308-8.436S7.912 3.75 12.528 3.75c4.615 0 8.307 3.749 8.307 8.435-.132 4.686-3.824 8.435-8.308 8.435Zm10.68 2.677-10.68 4.686-10.682-4.686L0 26.644 12.527 32l12.528-5.356-1.846-3.347Z" fill="#000"/></svg>