<svg height="40" viewBox="0 0 66 40" fill="none" xmlns="http://www.w3.org/2000/svg">
  <path
    d="M11.09 8.092c-1.156 0-2.311.047-3.399.165C2.594 8.81 0 11.847 0 15.472c0 2.983 2.19 5.794 6.29 6.574l4.94.937c1.805.346 2.733.745 2.733 1.717 0 .746-.7 1.527-3.03 1.527-2.103 0-4.94-.313-6.746-.313-1.734 0-3.573.781-3.573 4.163 0 .416.07.937.157 1.353 2.593.295 8.042.764 11.808.364 5.204-.555 7.762-3.382 7.762-7.268 0-3.347-2.085-6.07-6.92-6.955l-4.713-.867c-1.507-.26-2.453-.608-2.453-1.457 0-.797.998-1.457 3.4-1.457 2.364 0 4.432.243 5.763.243 1.735 0 3.54-.729 3.54-4.11 0-.451-.054-.869-.14-1.301-1.85-.225-4.79-.53-7.726-.53h-.003Zm25.897 2.784-7.884 8.534 6.342 9.887c1.174 1.803 2.716 2.722 5.222 2.722 1.646 0 3.013-.38 3.643-.675L36.67 19.947l5.415-5.689 8.882 13.807-5.415 11.292c.544.276 1.648.607 3.032.64 2.383.053 3.68-.849 4.643-2.965L66 8.829c-.525-.277-1.699-.59-2.646-.607-1.646-.034-3.854.295-5.255 3.625l-4.135 9.662L45.853 8.43c-.526-.156-1.806-.38-2.735-.38-2.872-.001-4.466 1.039-6.13 2.826ZM22.402 4.285v27.58c.456.067.929.102 1.472.102 4.1 0 4.924-1.196 4.924-3.278V.157A7.48 7.48 0 0 0 27.255 0c-4.135 0-4.853 2.186-4.853 4.285Z"
    fill="url(#a)" />
  <mask id="c" style="mask-type:alpha" maskUnits="userSpaceOnUse" x="0" y="0" width="66" height="40">
    <path
      d="M11.09 8.092c-1.156 0-2.311.047-3.399.165C2.594 8.81 0 11.847 0 15.472c0 2.983 2.19 5.794 6.29 6.574l4.94.937c1.805.346 2.733.745 2.733 1.717 0 .746-.7 1.527-3.03 1.527-2.103 0-4.94-.313-6.746-.313-1.734 0-3.573.781-3.573 4.163 0 .416.07.937.157 1.353 2.593.295 8.042.764 11.808.364 5.204-.555 7.762-3.382 7.762-7.268 0-3.347-2.085-6.07-6.92-6.955l-4.713-.867c-1.507-.26-2.453-.608-2.453-1.457 0-.797.998-1.457 3.4-1.457 2.364 0 4.432.243 5.763.243 1.735 0 3.54-.729 3.54-4.11 0-.451-.054-.869-.14-1.301-1.85-.225-4.79-.53-7.726-.53h-.003Zm25.897 2.784-7.884 8.534 6.342 9.887c1.174 1.803 2.716 2.722 5.222 2.722 1.646 0 3.013-.38 3.643-.675L36.67 19.947l5.415-5.689 8.882 13.807-5.415 11.292c.544.276 1.648.607 3.032.64 2.383.053 3.68-.849 4.643-2.965L66 8.829c-.525-.277-1.699-.59-2.646-.607-1.646-.034-3.854.295-5.255 3.625l-4.135 9.662L45.853 8.43c-.526-.156-1.806-.38-2.735-.38-2.872-.001-4.466 1.039-6.13 2.826ZM22.402 4.285v27.58c.456.067.929.102 1.472.102 4.1 0 4.924-1.196 4.924-3.278V.157A7.48 7.48 0 0 0 27.255 0c-4.135 0-4.853 2.186-4.853 4.285Z"
      fill="url(#b)" />
  </mask>
  <g mask="url(#c)">
    <path
      d="M5.958 21.963c-2.455-.347-5.3-2.217-6.397-3.193L-4.336-3.306 11.83-5l25.314 2.76 29.074 6.262 3.072 1.93c-1.425 2.293-4.403 7.063-4.906 7.8-.629.921-1.68 1.807-3.554 1.89-1.873.085-3.19.372-3.867.623-.542.201-1.362 1.177-1.705 1.64-.636.382-2.133 1.01-3.025.453-1.602-1.093-2.102-1.222-3.158-1.222-1.057 0-1.879.901-3.719.777-1.213-.082-2.475-.628-2.83-.777-.624-.008-2.601-.347-3.798.647-.531.442-1.06.772-1.883.949-2.622.602-6.003 1.086-7.797 1.186l.105-1.438c-.181.469-.739 1.484-1.52 1.8-.978.396-2.522.265-3.222.297-.7.034-1.3.473-1.921 1.276-.622.803-1.578 1.289-2.567.62-.989-.67-1.6-.925-2.876-.977-1.275-.051-3.494.75-5.082.88-1.587.128-3.998-.048-6.007-.412Z"
      fill="url(#d)" />
  </g>
  <defs>
    <linearGradient id="a" x1="3.288" y1="6.944" x2="57.645" y2="34.175" gradientUnits="userSpaceOnUse">
      <stop stop-color="#FFA733" />
      <stop offset=".268" stop-color="#FD551C" />
      <stop offset=".563" stop-color="#DE01BC" />
      <stop offset="1" stop-color="#1D6AFF" />
    </linearGradient>
    <linearGradient id="b" x1="3.288" y1="6.944" x2="57.645" y2="34.175" gradientUnits="userSpaceOnUse">
      <stop stop-color="#FFA733" />
      <stop offset=".268" stop-color="#FD551C" />
      <stop offset=".563" stop-color="#DE01BC" />
      <stop offset="1" stop-color="#1D6AFF" />
    </linearGradient>
    <linearGradient id="d" x1="32.477" y1="-5.001" x2="32.477" y2="22.787" gradientUnits="userSpaceOnUse">
      <stop stop-color="#fff" stop-opacity=".04" />
      <stop offset="1" stop-color="#fff" stop-opacity=".3" />
    </linearGradient>
  </defs>
</svg>
