<svg width="124" height="30" fill="none" xmlns="http://www.w3.org/2000/svg"><path fill-rule="evenodd" clip-rule="evenodd" d="M32.393 0c.47.001.919.089 1.271.25.3.138.674.37.833.516.159.148.418.541.574.877.169.358.286.835.286 1.159 0 .317-.119.806-.281 1.158-.154.336-.467.77-.695.964a3.927 3.927 0 0 1-.838.533c-.234.099-.75.18-1.15.18-.4 0-.918-.081-1.15-.18a3.9 3.9 0 0 1-.839-.533c-.227-.194-.541-.628-.695-.964-.163-.356-.28-.839-.28-1.158.002-.303.113-.797.249-1.098.136-.303.367-.68.512-.84.146-.159.537-.42.87-.577A2.876 2.876 0 0 1 32.394 0ZM0 1.338l17.62-.009.241.261c.22.238.242.429.242 4.078l-6.6.06v17.32H6.54V5.728H0v-4.39Zm27.458 5.321c.084.026.233.045.333.045.155 0 .182.343.182 4.696l-.939-.041c-.72-.032-1.095.017-1.604.206-.367.135-.939.49-1.272.787-.307.274-.677.73-1.101 1.522a.958.958 0 0 0-.111.446l-.06 8.728h-4.843V7.192l2.15.003c2.058.002 2.16.014 2.425.274.151.15.274.369.272.486-.003.178.114.141.693-.217a9.363 9.363 0 0 1 1.362-.679 7.79 7.79 0 0 1 1.514-.346c.466-.054.915-.078.999-.054Zm20.374.021c.366.024.993.122 1.393.217.4.097 1.189.404 1.755.684.802.398 1.247.727 2.01 1.493.612.615 1.157 1.305 1.45 1.838.258.47.6 1.293.76 1.83.226.76.291 1.272.297 2.317.005.887-.062 1.611-.197 2.135-.111.435-.419 1.231-.682 1.768-.263.537-.712 1.26-.998 1.608-.287.347-.875.916-1.307 1.263-.434.347-1.115.784-1.514.973-.4.19-1.054.427-1.453.529-.4.1-1.082.22-1.514.262a7.637 7.637 0 0 1-1.635-.056 12.47 12.47 0 0 1-1.574-.372c-.4-.132-1.04-.432-2.12-1.097V30H37.66V7.192h2.18c2.019 0 2.198.019 2.422.244.133.134.242.354.242.488 0 .223.058.209.696-.174a8.696 8.696 0 0 1 1.453-.671 9.463 9.463 0 0 1 1.635-.348c.483-.05 1.177-.074 1.544-.05Zm-3.675 5.539a4.4 4.4 0 0 0-.94 1.255c-.29.597-.355.889-.353 1.585 0 .47.08 1.1.179 1.403.097.301.438.846.758 1.21.347.396.822.773 1.185.944.452.21.821.283 1.453.283.653 0 .995-.07 1.484-.304a4.56 4.56 0 0 0 1.09-.77 4.98 4.98 0 0 0 .75-1.067c.234-.48.295-.8.302-1.577.006-.802-.048-1.095-.304-1.646-.17-.37-.524-.882-.787-1.14a4.883 4.883 0 0 0-.96-.723c-.33-.172-.773-.263-1.393-.29-.579-.024-1.084.026-1.393.138-.266.097-.748.412-1.071.699Zm30.255-5.557c.2.018.636.063.969.1.333.036 1.015.201 1.513.366.5.164 1.318.567 1.817.892.5.327.976.686 1.06.798.09.12.109.266.048.356-.058.084-.684.908-1.393 1.83-.71.922-1.344 1.677-1.41 1.677-.067 0-.298-.17-.515-.38a4.455 4.455 0 0 0-.878-.629c-.272-.139-.83-.273-1.271-.307-.534-.04-.982.003-1.393.135-.343.111-.86.422-1.193.719a4.405 4.405 0 0 0-.94 1.255c-.289.597-.354.889-.353 1.585 0 .47.08 1.1.18 1.403.096.301.414.823.704 1.158.296.342.819.76 1.187.947.531.272.82.338 1.505.338.691.001.98-.065 1.574-.355.4-.197.877-.527 1.06-.734.183-.209.4-.375.484-.37.084.005.819.773 1.635 1.708.816.934 1.47 1.746 1.453 1.806-.017.058-.33.362-.696.673a9.762 9.762 0 0 1-1.453.983c-.434.228-1.224.538-1.756.688-.703.198-1.303.273-2.18.276-.666 0-1.538-.071-1.938-.16-.4-.09-1.053-.299-1.453-.464-.4-.164-1.081-.532-1.513-.82-.434-.286-1.105-.871-1.494-1.298-.388-.428-.904-1.136-1.145-1.571a11.695 11.695 0 0 1-.734-1.708c-.24-.741-.298-1.18-.306-2.317-.007-.977.054-1.643.2-2.195.117-.437.4-1.177.63-1.647.23-.47.665-1.17.967-1.555a8.98 8.98 0 0 1 1.246-1.25 11.59 11.59 0 0 1 1.483-.965 9.579 9.579 0 0 1 1.514-.625c.4-.116 1.108-.248 1.574-.293.466-.047 1.011-.068 1.211-.05Zm15.863.014c.333.024.987.121 1.453.219.467.096 1.23.36 1.696.585.466.226 1.198.678 1.626 1.006.428.328 1.019.898 1.313 1.268.294.368.689.945.877 1.28.187.336.455.953.594 1.372.138.42.311 1.188.385 1.708.095.67.096 1.228.006 1.92a13.08 13.08 0 0 1-.371 1.77 9.127 9.127 0 0 1-.703 1.568 11.333 11.333 0 0 1-1.124 1.509 9.067 9.067 0 0 1-1.453 1.246c-.433.283-1.114.653-1.513.823-.4.171-1.054.383-1.453.471-.4.09-1.272.16-1.938.159-.877-.003-1.478-.078-2.18-.276a10.756 10.756 0 0 1-1.756-.69 10.326 10.326 0 0 1-1.453-.971c-.367-.305-.898-.84-1.181-1.19-.284-.35-.703-.994-.933-1.43a9.845 9.845 0 0 1-.666-1.768 8.565 8.565 0 0 1-.25-2.135c0-.772.083-1.484.25-2.134.137-.537.45-1.36.695-1.83.3-.573.785-1.197 1.477-1.9.568-.577 1.331-1.218 1.698-1.428a11.735 11.735 0 0 1 1.574-.7c.5-.177 1.318-.36 1.817-.406.5-.048 1.18-.068 1.513-.046Zm-2.644 5.364c-.256.185-.648.61-.872.946-.224.335-.472.884-.552 1.22a4.71 4.71 0 0 0-.083 1.28c.034.368.178.932.32 1.25.143.319.518.842.834 1.162.397.404.781.654 1.242.81.486.166.893.213 1.513.174.619-.04.996-.14 1.393-.368.299-.173.721-.513.938-.756.217-.244.516-.675.666-.96.227-.433.271-.712.271-1.678s-.044-1.245-.27-1.677a5.625 5.625 0 0 0-.667-.956c-.217-.24-.72-.599-1.12-.795-.568-.28-.885-.356-1.453-.35-.4.005-.945.087-1.21.185a4.723 4.723 0 0 0-.95.514Zm22.383-5.361c.333.024.904.128 1.271.23.366.103.911.315 1.211.472.299.157.702.413 1.244.848l.801-.527c.44-.29 1.154-.635 1.588-.768.503-.154 1.159-.244 1.816-.249.63-.006 1.312.072 1.756.199.4.114 1.047.382 1.437.594.392.212 1 .686 1.351 1.056.234.246.504.606.836 1.188.437.766.617 1.648.621 2.53L124 23.048h-4.844l-.058-9.907a1.005 1.005 0 0 0-.164-.543l-.171-.261a2.442 2.442 0 0 0-.848-.768c-.379-.19-.677-.248-1.127-.214-.452.033-.738.141-1.083.411-.259.201-.568.585-.686.854-.197.443-.217.952-.222 10.428h-4.965l-.002-4.97c-.003-4.506-.024-5.015-.219-5.458-.119-.268-.428-.653-.687-.854-.342-.266-.637-.38-1.083-.416-.49-.04-.721.011-1.158.256-.182.103-.395.274-.64.559-.368.429-.512.999-.515 1.565l-.055 9.318h-4.844V7.192l2.149-.003c2.082-.003 2.158.006 2.407.274.141.154.278.344.302.426.03.097.233.022.591-.219a7.058 7.058 0 0 1 1.211-.615 7.255 7.255 0 0 1 1.393-.335 8.472 8.472 0 0 1 1.332-.041Zm-80.104.613a.1.1 0 0 1 .1-.1h4.38l.246.336c.243.33.247.48.239 15.52H29.91V7.292Z" fill="#047BC1"/><path d="M59.59 16.536a3.873 3.873 0 0 0-.809.452c-.221.166-.549.52-.73.788-.18.268-.38.761-.446 1.096-.081.418-.08.79.003 1.188.066.318.252.798.411 1.066.16.267.513.643.785.833.273.19.677.41.902.49.223.077.642.142.93.142.287 0 .758-.083 1.046-.183.288-.1.754-.388 1.034-.64.28-.253.62-.679.753-.947.178-.358.242-.714.242-1.34 0-.637-.063-.975-.248-1.34a4.213 4.213 0 0 0-.636-.875 3.913 3.913 0 0 0-.912-.637c-.343-.163-.764-.248-1.221-.245-.384.001-.881.07-1.105.152Z" fill="#FCAF17"/></svg>