<svg height="40" viewBox="0 0 168 40" fill="none" xmlns="http://www.w3.org/2000/svg">
  <path
    d="M97.441 21.286c0-3.95-1.703-7.44-7.462-7.44-2.955 0-5.302.836-6.575 1.568l.933 3.17c1.172-.73 3.041-1.332 4.806-1.332 2.916-.004 3.393 1.634 3.393 2.687v.253c-6.364-.01-10.388 2.174-10.388 6.62 0 2.718 2.043 5.266 5.613 5.266 2.179 0 4.02-.873 5.12-2.251h.106s.725 3.011 4.734 1.86c-.204-1.261-.28-2.59-.28-4.206v-6.195Zm-4.748 4.171c0 .32-.027.65-.122.935-.366 1.216-1.63 2.234-3.204 2.234-1.328 0-2.37-.746-2.37-2.31 0-2.392 2.66-3.05 5.696-3.034M0 8.471S4.157 25.36 4.818 28.095c.778 3.198 2.172 4.38 6.196 3.593l2.598-10.473c.657-2.594 1.104-4.455 1.528-7.099h.072c.295 2.67.719 4.505 1.256 7.107 0 0 1.06 4.758 1.61 7.25.536 2.493 2.043 4.065 5.99 3.215L30.253 8.47H25.26l-2.123 10.043c-.562 2.91-1.072 5.202-1.47 7.868h-.072c-.358-2.638-.813-4.836-1.398-7.686L17.998 8.471h-5.21l-2.347 9.963c-.669 3.043-1.295 5.482-1.688 8.064h-.068a292.288 292.288 0 0 0-1.538-8.436S5.753 10.93 5.26 8.472M44.17 21.286c0-3.95-1.707-7.44-7.467-7.44-2.946 0-5.297.836-6.57 1.568l.933 3.17c1.167-.73 3.035-1.332 4.806-1.332 2.915-.004 3.393 1.634 3.393 2.687v.253c-6.364-.01-10.392 2.174-10.392 6.62 0 2.718 2.05 5.266 5.605 5.266 2.199 0 4.023-.873 5.123-2.251h.11s.73 3.011 4.735 1.86c-.206-1.261-.276-2.59-.276-4.206v-6.195Zm-4.753 4.171c0 .32-.026.65-.117.935-.37 1.216-1.635 2.234-3.212 2.234-1.32 0-2.366-.746-2.366-2.31 0-2.392 2.66-3.05 5.695-3.034M46.76 8.471V31.68h4.752V8.47H46.76ZM112.025 8.471v17.124c0 2.363.447 4.011 1.409 5.021.844.886 2.226 1.462 3.871 1.462 1.412 0 2.794-.27 3.447-.505l-.058-3.686a7.662 7.662 0 0 1-1.812.208c-1.623 0-2.158-1.02-2.158-3.142v-6.555h4.139v-4.435h-4.139V8.47M99.742 14.249v17.438h4.913v-8.93c0-.481.031-.896.107-1.28.367-1.884 1.806-3.076 3.879-3.076.579 0 .972.064 1.409.131V13.96a5.245 5.245 0 0 0-1.067-.1c-1.839 0-3.922 1.16-4.802 3.684h-.121V14.25M54.272 14.249v17.438h4.787V21.452c0-.48.053-.971.224-1.415.39-1.037 1.355-2.237 2.905-2.237 1.928 0 2.838 1.615 2.838 3.946v9.941H69.8V21.33c0-.452.064-1.006.197-1.407.383-1.175 1.43-2.122 2.875-2.122 1.948 0 2.89 1.58 2.89 4.329v9.558h4.771V21.405c0-5.402-2.767-7.545-5.909-7.545-1.382 0-2.481.338-3.47.943-.835.509-1.568 1.226-2.225 2.165h-.072c-.756-1.877-2.53-3.108-4.85-3.108-2.973 0-4.323 1.49-5.118 2.75h-.072V14.25"
    fill="#0071CE" />
  <path
    d="M146.574 13.466c.939 0 1.729-.487 1.832-1.112l.931-10.469C149.337.85 148.108 0 146.574 0c-1.542 0-2.763.849-2.763 1.885l.938 10.469c.099.625.886 1.112 1.825 1.112ZM140.863 16.742c.465-.818.438-1.726-.064-2.13l-8.689-6.035c-.904-.523-2.257.1-3.031 1.421-.772 1.32-.616 2.8.27 3.313l9.62 4.428c.615.23 1.42-.196 1.894-1.006M152.283 16.733c.492.81 1.297 1.235 1.896 1.018l9.62-4.44c.894-.524 1.028-1.99.272-3.309-.772-1.32-2.133-1.94-3.035-1.427l-8.691 6.027c-.482.411-.517 1.323-.052 2.14M146.574 26.542c.939 0 1.729.487 1.832 1.112l.931 10.469c0 1.037-1.229 1.877-2.763 1.877-1.542 0-2.763-.84-2.763-1.877l.938-10.468c.099-.626.886-1.113 1.825-1.113ZM152.283 23.276c.492-.812 1.297-1.245 1.896-1.01l9.62 4.433c.894.513 1.028 1.99.272 3.312-.772 1.31-2.133 1.934-3.035 1.42l-8.691-6.035c-.482-.407-.517-1.315-.052-2.12M140.863 23.267c.465.816.438 1.721-.064 2.13l-8.689 6.026c-.904.523-2.257-.102-3.031-1.413-.772-1.319-.616-2.8.27-3.312l9.62-4.433c.615-.233 1.42.196 1.894 1.002ZM166.613 30.513h.12c.162 0 .228.051.247.18.035.143.053.24.088.28h.309c-.026-.03-.062-.108-.08-.288-.035-.156-.115-.243-.229-.274v-.029c.157-.035.247-.139.247-.268a.35.35 0 0 0-.107-.253.84.84 0 0 0-.42-.088c-.193 0-.335.016-.449.043v1.157h.274v-.46Zm.009-.527.14-.019c.164 0 .253.076.253.182 0 .119-.12.174-.272.174h-.121v-.337Zm.175-.786c-.676 0-1.211.524-1.211 1.166 0 .658.535 1.182 1.211 1.182.683 0 1.202-.524 1.202-1.182 0-.642-.519-1.166-1.202-1.166Zm0 .236c.518 0 .904.417.904.93 0 .517-.386.947-.904.938-.519 0-.913-.42-.913-.938 0-.513.394-.93.904-.93"
    fill="#FCB61A" />
</svg>
