<svg width="102" height="40" fill="none" xmlns="http://www.w3.org/2000/svg"><path fill-rule="evenodd" clip-rule="evenodd" d="M3.001 3.657C1.327 1.719-.024.104.001.069.024.033 19.57.003 86.821 0l.183.195c.101.108 3.516 4.743 7.59 10.301C98.666 16.054 102 20.64 102 20.687c0 .048-2.108 3.205-4.686 7.016A7545.75 7545.75 0 0 1 88.984 40l-35.998-.002c-19.8 0-36.015-.03-36.035-.065-.02-.035 2.057-3.869 9.273-16.971l-6.556-.043-1.621-1.873A51767.46 51767.46 0 0 1 3 3.656Zm15.586 9.504a6552.868 6552.868 0 0 0-5.736-6.603l-1.673-1.92 9.312.01 2.205 2.96c1.213 1.627 2.218 2.91 2.232 2.849.016-.061-.305-1.367-.711-2.9-.407-1.535-.74-2.819-.74-2.854-.002-.035 1.623-.065 7.219-.068l2.205 2.91c1.213 1.601 2.234 2.886 2.269 2.856.035-.03-.242-1.252-.614-2.716a189.767 189.767 0 0 0-.79-3.046l5.742.043 1.276 6.48c.702 3.563 1.28 6.527 1.28 6.586.004.084-.884.106-8.341.098l-2.033-2.436c-1.118-1.34-2.06-2.409-2.096-2.376-.035.032.15 1.12.412 2.418.26 1.298.475 2.37.475 2.382-.001.012-1.762.019-7.828.01l-4.065-4.683Zm25.973-.97c-1.66-3.092-3.253-6.056-3.54-6.587l-.52-.965h8.486l3.454 6.458c1.9 3.552 3.476 6.526 3.503 6.608.046.142-.186.15-8.365.107l-3.018-5.621Zm10.22-.87a1661.745 1661.745 0 0 1-3.533-6.608c-.018-.043 1.709-.067 8.22-.031l5.16 9.612 7.06.085.881 1.631c.485.897.883 1.679.886 1.738.006.085-1.565.107-15.171.104L54.78 11.32Zm16.964.741-3.537-6.587-.45-.836 6.462-.001c3.888 0 6.824.035 7.371.09.499.049 1.316.18 1.816.29.5.11 1.22.33 1.6.487.38.157.965.466 1.297.686.333.222.952.763 1.375 1.206a15.539 15.539 0 0 1 1.4 1.747c.347.52.846 1.388 1.107 1.931.26.543.564 1.258.675 1.588.162.487.2.786.2 1.588 0 .897-.02 1.025-.227 1.416-.124.236-.435.616-.692.844-.255.23-.698.526-.984.659a7.218 7.218 0 0 1-1.037.376 12.28 12.28 0 0 1-1.428.224c-.56.055-3.005.081-11.86.042l-3.088-5.75Zm5.794-4.021c-.005.04.762 1.502 1.704 3.249l1.713 3.175c1.351 0 1.73-.043 1.924-.128.161-.072.326-.216.367-.322.043-.112.037-.329-.012-.515-.047-.177-.543-1.181-1.103-2.23-.56-1.05-1.174-2.093-1.366-2.318a2.975 2.975 0 0 0-.865-.665c-.456-.227-.622-.26-1.435-.288-.505-.018-.923.001-.927.042Zm-48.143 21.4c1.558-2.903 3.126-5.828 3.485-6.5l.654-1.224h4.093c3.86 0 4.092.009 4.045.15-.027.083-1.175 2.246-2.551 4.806-1.376 2.561-2.502 4.695-2.502 4.742 0 .056 1.222.094 6.901.129l-1.799 3.39h-7.61c-6.048 0-7.604-.022-7.579-.107.018-.06 1.306-2.483 2.863-5.386Zm13.71 5.45c0-.024 1.582-2.998 3.516-6.608l3.515-6.566h4.182c3.289 0 4.18.023 4.178.108-.001.059-1.57 3.022-6.966 13.066l-4.212.021c-2.317.012-4.213.002-4.213-.021Zm14.487-7.123c1.747-3.257 3.192-5.951 3.213-5.986.02-.036 3.5-.065 7.73-.065 4.231 0 7.692.03 7.69.065 0 .035-.439.875-1.944 3.669l-7.436.047-.498.898c-.273.496-.497.938-.497.985 0 .056 1.191.094 6.716.13l-1.782 3.346-6.869.086-2.173 3.992-8-.001.338-.622c.185-.343 1.766-3.287 3.512-6.544Zm16.82.558c1.58-2.951 3.026-5.644 3.214-5.986l.341-.623h7.909c4.35 0 7.907.03 7.906.065-.001.035-.387.778-1.712 3.24l-8.154.085-.422.73c-.231.4-.404.758-.385.794.021.035 1.691.064 3.713.064 2.021 0 3.675.03 3.675.064 0 .036-.38.771-1.686 3.202l-7.524-.002-.882 1.585 4.138.021c3.243.017 4.138.045 4.136.129-.002.06-.38.812-1.684 3.237l-16.129.003.338-.622 3.209-5.986Z" fill="#000833"/></svg>