<svg height="31" viewBox="0 0 114 31" fill="none" xmlns="http://www.w3.org/2000/svg">
  <path
    d="M0 7.521h6.782l3.95 9.875 4-9.875h6.604l-9.944 23.376H4.746l2.722-6.194L0 7.52ZM28.216 7.128c-5.096 0-8.318 4.466-8.318 8.914 0 5.005 3.532 8.973 8.221 8.973 3.497 0 4.816-2.082 4.816-2.082v1.622h5.916V7.52h-5.916V9.07s-1.471-1.942-4.72-1.942Zm1.258 5.474c2.351 0 3.564 1.818 3.564 3.459 0 1.766-1.3 3.5-3.564 3.5-1.877 0-3.573-1.499-3.573-3.425 0-1.954 1.364-3.534 3.573-3.534ZM40.887 24.555V0h6.187v9.129s1.47-1.999 4.547-1.999c3.765 0 5.971 2.742 5.971 6.66v10.765H51.45v-9.291c0-1.326-.646-2.606-2.11-2.606-1.49 0-2.266 1.3-2.266 2.606v9.291h-6.187ZM68.139 7.129c-5.836 0-9.31 4.337-9.31 8.983 0 5.287 4.206 8.902 9.332 8.902 4.967 0 9.314-3.45 9.314-8.813 0-5.869-4.551-9.072-9.336-9.072Zm.055 5.522c2.062 0 3.488 1.678 3.488 3.467 0 1.526-1.33 3.409-3.488 3.409-1.978 0-3.462-1.551-3.462-3.426 0-1.805 1.234-3.45 3.462-3.45ZM87.783 7.129c-5.835 0-9.31 4.337-9.31 8.983 0 5.287 4.207 8.902 9.332 8.902 4.968 0 9.315-3.45 9.315-8.813 0-5.869-4.552-9.072-9.337-9.072Zm.056 5.522c2.061 0 3.487 1.678 3.487 3.467 0 1.526-1.328 3.409-3.487 3.409-1.978 0-3.462-1.551-3.462-3.426 0-1.805 1.234-3.45 3.462-3.45ZM102.007 24.917c2.269 0 4.108-1.798 4.108-4.015 0-2.218-1.839-4.015-4.108-4.015-2.27 0-4.109 1.797-4.109 4.015 0 2.217 1.84 4.015 4.109 4.015ZM107.463 15.412h-7.397L106.631 0H114l-6.537 15.412Z"
    fill="#6101D1" />
</svg>
