<svg width="800" height="279" viewBox="0 0 800 279" fill="none" xmlns="http://www.w3.org/2000/svg">
<path d="M800 0H0V279H800V0Z" fill="#F6F6F6"/>
<path d="M329.496 200.032C329.064 201.208 328.2 202.744 325.776 202.744C322.368 202.744 321.216 199.624 321.216 196.672C321.216 193.528 322.488 190.648 325.68 190.648C328.056 190.648 329.064 191.944 329.496 193.408H332.616C332.16 190.624 330.024 188.152 325.8 188.152C320.544 188.152 318 192.232 318 196.768C318 201.496 320.496 205.216 325.656 205.216C329.664 205.216 331.92 203.032 332.616 200.032H329.496ZM343.395 188.152C338.283 188.152 335.355 191.896 335.355 196.696C335.355 201.448 338.067 205.24 343.179 205.24C348.507 205.24 351.219 201.232 351.219 196.624C351.219 191.608 348.195 188.152 343.395 188.152ZM343.251 190.72C346.539 190.72 347.979 193.384 347.979 196.672C347.979 199.84 346.707 202.672 343.299 202.672C340.131 202.672 338.571 199.984 338.571 196.624C338.571 193.288 339.987 190.72 343.251 190.72ZM357.79 205V199.408C357.79 196.408 357.766 193.216 357.646 191.608H357.67C358.582 193.504 363.214 201.64 365.158 205H368.854V188.392H365.998V193.864C365.998 196.576 365.998 199.36 366.166 201.232H366.142C365.326 199.432 361.03 192.184 358.846 188.392H354.91V205H357.79ZM373.484 205H376.532V198.088H384.236V195.496H376.532V190.984H384.764V188.392H373.484V205ZM399.044 195.064H391.004V190.984H399.404V188.392H387.956V205H399.476L399.86 202.432H391.004V197.632H399.044V195.064ZM408.892 198.136C411.676 198.136 412.204 199.048 412.204 201.04V201.328C412.204 203.008 412.228 204.28 412.516 205H415.492C415.252 204.256 415.252 202.912 415.252 201.784V201.016C415.252 198.064 414.028 197.152 413.02 196.84C414.364 196.36 415.588 195.112 415.588 192.928C415.588 190.336 413.692 188.392 410.14 188.392H403.108V205H406.18V198.136H408.892ZM406.18 190.912H409.516C411.46 190.912 412.42 191.752 412.42 193.24C412.42 194.8 411.556 195.616 409.396 195.616H406.18V190.912ZM430.519 195.064H422.479V190.984H430.879V188.392H419.431V205H430.951L431.335 202.432H422.479V197.632H430.519V195.064ZM437.463 205V199.408C437.463 196.408 437.439 193.216 437.319 191.608H437.343C438.255 193.504 442.887 201.64 444.831 205H448.527V188.392H445.671V193.864C445.671 196.576 445.671 199.36 445.839 201.232H445.815C444.999 199.432 440.703 192.184 438.519 188.392H434.583V205H437.463ZM463.743 200.032C463.311 201.208 462.447 202.744 460.023 202.744C456.615 202.744 455.463 199.624 455.463 196.672C455.463 193.528 456.735 190.648 459.927 190.648C462.303 190.648 463.311 191.944 463.743 193.408H466.863C466.407 190.624 464.271 188.152 460.047 188.152C454.791 188.152 452.247 192.232 452.247 196.768C452.247 201.496 454.743 205.216 459.903 205.216C463.911 205.216 466.167 203.032 466.863 200.032H463.743ZM481.366 195.064H473.326V190.984H481.726V188.392H470.278V205H481.798L482.182 202.432H473.326V197.632H481.366V195.064Z" fill="#C7C9D1"/>
<path d="M400.355 94C397.703 94 395.159 92.9464 393.284 91.0711C391.409 89.1957 390.355 86.6522 390.355 84C390.355 81.3478 391.409 78.8043 393.284 76.9289C395.159 75.0536 397.703 74 400.355 74C403.007 74 405.551 75.0536 407.426 76.9289C409.301 78.8043 410.355 81.3478 410.355 84C410.355 86.6522 409.301 89.1957 407.426 91.0711C405.551 92.9464 403.007 94 400.355 94Z" stroke="#C7C9D1" stroke-width="3" stroke-miterlimit="10" stroke-linecap="square" stroke-linejoin="round"/>
<path d="M380.355 123V108.921C380.355 106.555 381.409 104.286 383.284 102.613C385.159 100.94 387.703 100 390.355 100H392.855L400.355 108.921L407.855 100H410.355C413.007 100 415.551 100.94 417.426 102.613C419.301 104.286 420.355 106.555 420.355 108.921V123" stroke="#C7C9D1" stroke-width="3" stroke-miterlimit="10" stroke-linecap="square" stroke-linejoin="round"/>
<path d="M434.355 123H366.355V137H434.355V123Z" stroke="#C7C9D1" stroke-width="3" stroke-miterlimit="10" stroke-linecap="square" stroke-linejoin="round"/>
<path d="M426.355 137V157H374.355V137" stroke="#C7C9D1" stroke-width="3" stroke-miterlimit="10" stroke-linecap="square" stroke-linejoin="round"/>
</svg>
