<svg width="82" height="52" viewBox="0 0 82 52" fill="none" xmlns="http://www.w3.org/2000/svg">
<path d="M7.77419 8.07453C7.45161 1.93789 3.22581 0 0 0H82C75.5484 0 71.5242 9.04348 70.6774 13.5652C69.129 21.8335 67.129 25.8385 63.2581 25.8385C58.3548 25.8385 58.7792 20.3478 58.0968 16.795C56.8064 10.077 54.2258 9.04348 51 9.04348C45.3226 9.04348 43.5806 14.95 43.5806 20.3478V41.3416C43.5806 49.3516 39.7097 52 36.4839 52C29.7742 52 28.0968 40.6957 28.0968 33.2671V12.2733C28.0968 4.52174 24.5484 2.58385 22.2903 2.58385C19.1935 2.58385 17.7742 4.84472 17.7742 7.42857C18.0323 15.6969 14.2258 16.795 12.2903 16.795C8.41935 16.795 7.92699 10.9814 7.77419 8.07453Z" fill="#FFE100"/>
</svg>
