<svg width="115" height="31" viewBox="0 0 115 31" fill="none" xmlns="http://www.w3.org/2000/svg">
<path d="M24.9447 24.7163H8.75906L6.43612 30.4668H0L13.0247 0H21.0604L34.085 30.4668H27.2676L24.9447 24.7163ZM22.9261 19.6892L16.833 4.64639L10.7777 19.6892H22.9261Z" fill="#07360C"/>
<path d="M59.6857 30.4668H52.3356L46.4705 23.3074C45.7089 22.3934 45.1757 22.1268 43.8045 22.1268H42.0524V30.4673H36.1118V0H42.053V17.4804H43.7667C45.1757 17.4804 45.7089 17.0614 46.5087 15.9573L51.5736 9.14035H58.238L50.8502 18.8134L50.393 19.3848C50.5454 19.5372 50.7355 19.7274 50.8879 19.918L59.6857 30.4668Z" fill="#07360C"/>
<path d="M114.06 26.7727V30.4669H106.596L106.367 28.1439C104.654 29.9719 102.064 31.0001 98.8649 31.0001C93.6094 31.0001 90.4102 28.2199 90.4102 24.0308C90.4102 19.9176 93.457 17.1374 99.6647 17.1374C101.683 17.1374 103.816 17.3658 105.529 17.7465V13.4809H91.7814V9.13989H111.432V26.7727H114.06ZM105.529 21.5936V21.5177C103.892 21.0987 101.912 20.9845 100.731 20.9845C97.1894 20.9845 95.5138 21.9367 95.5138 23.6882C95.5138 25.6304 97.6084 26.3919 99.703 26.3542C102.863 26.3537 105.529 24.8688 105.529 21.5936Z" fill="#07360C"/>
<path fill-rule="evenodd" clip-rule="evenodd" d="M67.8201 0H61.8789V5.82696H67.8201V0ZM80.9442 0H75.003V9.13981H73.064H67.8206H64.8503H61.88V30.4668H67.8212V13.4814H75.0036V22.4693C75.0036 27.8008 77.7073 31 83.3442 31C85.0197 31 86.886 30.6574 88.5615 30.2384V25.7445C87.4951 26.087 86.2386 26.3159 85.2481 26.3159C82.3537 26.3159 80.9448 24.4879 80.9448 21.0604V13.4814H88.561V9.13981H82.6239H80.9443H80.9442V0Z" fill="#07360C"/>
</svg>
