<svg width="119" height="40" viewBox="0 0 119 40" fill="none" xmlns="http://www.w3.org/2000/svg">
<g clip-path="url(#clip0_2109_29055)">
<path d="M113.006 12.6568L106.324 11.1046L105.131 10.627L74.4629 10.8658V25.6717L113.006 25.7911V12.6568Z" fill="white"/>
<path d="M100.476 24.3582C100.668 23.8497 100.735 23.3026 100.673 22.7625C100.611 22.2225 100.42 21.7052 100.118 21.2537C99.8068 20.8807 99.4254 20.5727 98.9954 20.3474C98.5654 20.122 98.0953 19.9837 97.6118 19.9403L76.8485 19.7015C76.7291 19.7015 76.6098 19.5821 76.4905 19.5821C76.4627 19.5613 76.4401 19.5342 76.4246 19.5031C76.4091 19.472 76.401 19.4378 76.401 19.403C76.401 19.3682 76.4091 19.334 76.4246 19.3029C76.4401 19.2718 76.4627 19.2448 76.4905 19.2239C76.6098 18.9851 76.7291 18.8657 76.9678 18.8657L97.8504 18.6269C99.1762 18.4797 100.439 17.9817 101.508 17.1842C102.578 16.3868 103.416 15.3186 103.936 14.0896L105.13 10.9851C105.13 10.8657 105.249 10.7463 105.13 10.6269C104.481 7.73544 102.906 5.13495 100.646 3.22055C98.3851 1.30616 95.5617 0.182526 92.6046 0.0203903C89.6474 -0.141745 86.7182 0.666483 84.262 2.32226C81.8059 3.97804 79.957 6.39085 78.9964 9.19405C77.7494 8.30286 76.2283 7.88008 74.7005 8.00002C73.2985 8.15644 71.9913 8.7854 70.9938 9.78354C69.9963 10.7817 69.3677 12.0897 69.2114 13.4926C69.1319 14.2106 69.1723 14.9369 69.3307 15.6418C67.0622 15.7046 64.9077 16.6505 63.3254 18.2783C61.7431 19.9061 60.858 22.0874 60.8583 24.3582C60.8388 24.7994 60.8789 25.2412 60.9777 25.6717C60.9831 25.7649 61.0226 25.8528 61.0886 25.9189C61.1546 25.9849 61.2425 26.0244 61.3357 26.0299H99.6404C99.879 26.0299 100.118 25.9105 100.118 25.6717L100.476 24.3582Z" fill="#F48120"/>
<path d="M107.038 10.985H106.441C106.322 10.985 106.203 11.1044 106.083 11.2238L105.248 14.0895C105.056 14.598 104.988 15.1451 105.051 15.6852C105.113 16.2252 105.303 16.7425 105.606 17.1939C105.917 17.5669 106.298 17.8749 106.728 18.1003C107.158 18.3257 107.628 18.464 108.112 18.5074L112.527 18.7462C112.646 18.7462 112.766 18.8656 112.885 18.8656C112.913 18.8864 112.935 18.9135 112.951 18.9446C112.966 18.9757 112.975 19.0099 112.975 19.0447C112.975 19.0794 112.966 19.1137 112.951 19.1448C112.935 19.1759 112.913 19.2029 112.885 19.2238C112.766 19.4626 112.646 19.582 112.408 19.582L107.873 19.8208C106.547 19.968 105.285 20.466 104.215 21.2634C103.146 22.0609 102.308 23.1291 101.787 24.3581L101.549 25.4327C101.429 25.5521 101.549 25.791 101.787 25.791H117.539C117.588 25.7979 117.637 25.7934 117.684 25.7779C117.73 25.7623 117.773 25.7362 117.807 25.7014C117.842 25.6666 117.868 25.6243 117.884 25.5776C117.899 25.531 117.904 25.4814 117.897 25.4327C118.181 24.4211 118.341 23.3786 118.374 22.3283C118.355 19.3257 117.155 16.4515 115.033 14.3283C112.911 12.2051 110.039 11.0039 107.038 10.985" fill="#FAAD3F"/>
<path d="M119.926 32.4776C119.714 32.4776 119.506 32.4146 119.329 32.2965C119.153 32.1784 119.015 32.0106 118.934 31.8142C118.853 31.6178 118.831 31.4018 118.873 31.1933C118.914 30.9848 119.016 30.7934 119.167 30.6431C119.317 30.4928 119.508 30.3904 119.717 30.349C119.925 30.3075 120.141 30.3288 120.337 30.4101C120.533 30.4915 120.701 30.6292 120.819 30.8059C120.937 30.9826 121 31.1904 121 31.403C121.001 31.5442 120.973 31.6842 120.92 31.8149C120.866 31.9455 120.787 32.0642 120.687 32.1641C120.587 32.2641 120.468 32.3432 120.338 32.397C120.207 32.4508 120.067 32.4782 119.926 32.4776ZM119.926 30.5671C119.761 30.5671 119.599 30.6162 119.462 30.708C119.325 30.7998 119.218 30.9304 119.154 31.0831C119.091 31.2358 119.075 31.4039 119.107 31.566C119.139 31.7281 119.219 31.8771 119.335 31.994C119.452 32.1109 119.601 32.1905 119.763 32.2227C119.925 32.255 120.093 32.2384 120.246 32.1752C120.398 32.1119 120.529 32.0048 120.621 31.8673C120.712 31.7299 120.761 31.5683 120.761 31.403C120.764 31.2925 120.744 31.1826 120.703 31.0799C120.662 30.9773 120.601 30.8841 120.523 30.8059C120.445 30.7278 120.351 30.6663 120.249 30.6253C120.146 30.5842 120.037 30.5644 119.926 30.5671M120.403 32H120.165L119.926 31.6418H119.687V32H119.449V30.9253H120.045C120.094 30.9184 120.144 30.9229 120.19 30.9384C120.237 30.954 120.279 30.9801 120.314 31.0149C120.349 31.0497 120.375 31.092 120.39 31.1387C120.406 31.1853 120.41 31.2349 120.403 31.2836C120.403 31.403 120.284 31.5224 120.165 31.6418L120.403 32V32ZM120.045 31.403C120.165 31.403 120.165 31.403 120.165 31.2836C120.165 31.2678 120.162 31.2521 120.156 31.2375C120.15 31.2228 120.142 31.2095 120.131 31.1984C120.119 31.1872 120.106 31.1784 120.091 31.1726C120.077 31.1667 120.061 31.1638 120.045 31.1641H119.687V31.5224H120.045V31.403ZM13.007 30.3283H15.6322V37.4925H20.1667V39.7612H13.007V30.3283ZM22.9113 34.985C22.9114 34.3218 23.0459 33.6655 23.3069 33.0558C23.5678 32.4461 23.9497 31.8957 24.4294 31.4381C24.9092 30.9804 25.4767 30.6249 26.0978 30.3931C26.7188 30.1613 27.3804 30.058 28.0425 30.0895C28.6984 30.06 29.3534 30.1654 29.9669 30.3994C30.5804 30.6334 31.1394 30.991 31.6092 31.4499C32.0791 31.9088 32.4497 32.4594 32.6983 33.0675C32.9469 33.6755 33.068 34.3282 33.0543 34.985C33.0543 35.6483 32.9197 36.3046 32.6588 36.9143C32.3978 37.524 32.0159 38.0743 31.5362 38.532C31.0565 38.9897 30.4889 39.3452 29.8679 39.577C29.2468 39.8088 28.5852 39.9121 27.9232 39.8806C27.2698 39.9 26.6192 39.7875 26.0102 39.5499C25.4012 39.3123 24.8463 38.9544 24.3786 38.4975C23.9108 38.0406 23.5398 37.4941 23.2878 36.8907C23.0357 36.2872 22.9076 35.6391 22.9113 34.985ZM30.4291 34.985C30.4525 34.654 30.4085 34.3217 30.2999 34.0082C30.1913 33.6946 30.0203 33.4064 29.7973 33.1609C29.5742 32.9153 29.3037 32.7176 29.0021 32.5796C28.7004 32.4417 28.374 32.3663 28.0425 32.3582C27.399 32.3896 26.7923 32.6675 26.348 33.1343C25.9037 33.6011 25.6559 34.221 25.6559 34.8656C25.6559 35.5103 25.9037 36.1302 26.348 36.597C26.7923 37.0638 27.399 37.3417 28.0425 37.3731C29.4744 37.6119 30.4291 36.4179 30.4291 34.985ZM36.2762 35.5821V30.3283H38.9015V35.5821C38.9015 36.8955 39.6174 37.6119 40.6914 37.6119C40.9422 37.6328 41.1945 37.5966 41.4294 37.5062C41.6643 37.4157 41.8757 37.2733 42.0479 37.0896C42.22 36.9059 42.3484 36.6856 42.4235 36.4452C42.4985 36.2048 42.5183 35.9506 42.4813 35.7015V30.3283H45.1066V35.5821C45.1066 38.6865 43.3166 40 40.6914 40C37.9468 39.8806 36.2762 38.5671 36.2762 35.5821M49.0445 30.3283H52.7437C56.0849 30.3283 58.1135 32.2388 58.1135 34.985C58.1135 37.7313 56.0849 39.7612 52.7437 39.7612H49.1638V30.3283H49.0445ZM52.7437 37.3731C53.0762 37.4049 53.4117 37.3667 53.7286 37.2612C54.0456 37.1556 54.337 36.9849 54.5842 36.7601C54.8313 36.5353 55.0288 36.2612 55.164 35.9555C55.2991 35.6499 55.3689 35.3193 55.3689 34.985C55.3689 34.6508 55.2991 34.3202 55.164 34.0146C55.0288 33.7089 54.8313 33.4348 54.5842 33.21C54.337 32.9852 54.0456 32.8145 53.7286 32.7089C53.4117 32.6034 53.0762 32.5652 52.7437 32.597H51.6697V37.3731H52.7437ZM61.8127 30.3283H69.3304V32.597H64.4379V34.1492H68.8531V36.2985H64.4379V39.7612H61.8127V30.3283ZM73.0297 30.3283H75.6549V37.4925H80.1894V39.7612H73.0297V30.3283ZM86.9912 30.2089H89.6164L93.6736 39.7612H90.8097L90.0938 38.0895H86.3945L85.6786 39.7612H82.934L86.9912 30.2089ZM89.3778 36.0597L88.3038 33.4328L87.2298 36.0597H89.3778ZM97.0149 30.3283H101.43C101.993 30.2826 102.56 30.3545 103.094 30.5395C103.628 30.7245 104.118 31.0185 104.533 31.403C104.875 31.7718 105.123 32.2176 105.256 32.7027C105.389 33.1878 105.404 33.6979 105.298 34.1898C105.193 34.6817 104.971 35.141 104.651 35.5288C104.33 35.9166 103.922 36.2216 103.459 36.4179L105.726 39.7612H102.743L100.833 36.8955H99.6401V39.7612H97.0149V30.3283ZM101.311 34.8656C102.146 34.8656 102.743 34.388 102.743 33.791C102.743 33.0746 102.146 32.7164 101.311 32.7164H99.6401V34.985H101.311V34.8656ZM109.067 30.3283H116.704V32.4776H111.692V33.9104H116.227V36.0597H111.692V37.4925H116.824V39.7612H109.067V30.3283ZM7.27917 36.1791C7.0992 36.601 6.80014 36.9613 6.41864 37.2158C6.03713 37.4703 5.58974 37.608 5.13124 37.6119C4.48778 37.5805 3.88106 37.3026 3.43676 36.8358C2.99247 36.369 2.74465 35.7491 2.74465 35.1044C2.74465 34.4598 2.99247 33.8399 3.43676 33.3731C3.88106 32.9063 4.48778 32.6284 5.13124 32.597C5.61924 32.6064 6.09386 32.7583 6.49669 33.0341C6.89952 33.3099 7.21298 33.6975 7.3985 34.1492H10.1431C9.90829 33.0055 9.27596 31.982 8.35838 31.2606C7.44081 30.5392 6.2974 30.1666 5.13124 30.2089C4.47161 30.1875 3.81432 30.2977 3.19772 30.5331C2.58111 30.7685 2.01754 31.1245 1.53989 31.5802C1.06225 32.0359 0.680085 32.5823 0.41571 33.1874C0.151336 33.7924 0.0100435 34.4441 7.6855e-05 35.1044C-0.00359627 35.7585 0.124428 36.4066 0.376511 37.0101C0.628595 37.6135 0.999573 38.16 1.46731 38.6169C1.93505 39.0738 2.48997 39.4317 3.09896 39.6693C3.70796 39.907 4.35854 40.0194 5.01191 40C6.15205 40.0077 7.26255 39.6368 8.16948 38.9453C9.0764 38.2539 9.72854 37.281 10.0237 36.1791H7.27917Z" fill="#404041"/>
</g>
<defs>
<clipPath id="clip0_2109_29055">
<rect width="119" height="40" fill="white"/>
</clipPath>
</defs>
</svg>
