<svg width="99" height="40" viewBox="0 0 99 40" fill="none" xmlns="http://www.w3.org/2000/svg">
<g clip-path="url(#clip0_2602_32118)">
<path fill-rule="evenodd" clip-rule="evenodd" d="M99.9857 40H0V0H100V40H99.9857Z" fill="#0058AB"/>
<path fill-rule="evenodd" clip-rule="evenodd" d="M2 20C2 29.8325 22.1163 38 50.0072 38C77.898 38 98 29.8325 98 20C98 10.1675 77.8837 2 50.0072 2C22.1306 2 2 10.1675 2 20Z" fill="#FBD914"/>
<path d="M46.448 26.0047C46.7633 26.4524 47.1073 26.8721 47.5086 27.2499H36.6874C36.6874 26.8301 36.2718 25.9767 35.8131 25.3052C35.3545 24.6336 32.8749 20.9542 32.8749 20.9542V26.0047C32.8749 26.4244 32.8749 26.8301 33.0899 27.2499H24.0747C24.2897 26.8301 24.2897 26.4244 24.2897 26.0047V14.0008C24.2897 13.5811 24.2897 13.1754 24.0747 12.7557H33.0899C32.8749 13.1754 32.8749 13.5811 32.8749 14.0008V19.2473C32.8749 19.2473 35.7558 15.5818 36.4151 14.7283C36.9167 14.0848 37.5331 13.1753 37.5331 12.7557H46.9353C46.2903 13.1754 45.5737 13.9309 44.986 14.6304C44.47 15.246 41.5462 18.7296 41.5462 18.7296C41.5462 18.7296 45.8746 25.1793 46.4479 26.0047H46.448ZM49.2858 14.0008V26.0047C49.2858 26.4244 49.2858 26.8301 49.0708 27.2499H66.4707V23.2206C66.0407 23.4304 65.625 23.4304 65.1951 23.4304H57.8711V21.5277H64.9084V18.4777H57.8711V16.5611H65.1951C65.6251 16.5611 66.0407 16.5611 66.4707 16.757V12.7417H49.0708C49.2858 13.1754 49.2858 13.5811 49.2858 14.0008V14.0008ZM90.5782 26.0047C90.7215 26.4664 90.9652 26.8861 91.2805 27.2499H81.8496C81.8926 26.8301 81.735 26.4244 81.563 26.0047C81.563 26.0047 81.4196 25.6689 81.219 25.1793L81.133 24.9694H75.7009L75.6149 25.1932C75.6149 25.1932 75.4572 25.599 75.3139 26.0187C75.1706 26.4384 75.0129 26.8441 75.0703 27.2638H67.6316C67.9355 26.8968 68.1644 26.4738 68.3053 26.0187L72.7627 14.0148C72.9204 13.5951 73.078 13.1894 73.0207 12.7697H85.5904C85.4758 13.1894 85.7051 13.5951 85.8628 14.0148C86.2354 14.9242 90.2628 25.1932 90.5782 26.0047V26.0047ZM79.9434 21.9055L78.6248 18.5477C78.5101 18.24 78.4098 17.9182 78.3381 17.5964C78.2807 17.9206 78.1944 18.2389 78.0801 18.5477C78.0371 18.6877 77.4781 20.1567 76.8331 21.9055H79.9434ZM19.8035 12.7557H10C10.215 13.1754 10.215 13.5811 10.215 14.0008V26.0047C10.215 26.4244 10.215 26.8301 10 27.2499H19.8035C19.5885 26.8301 19.5885 26.4244 19.5885 26.0047V14.0008C19.5885 13.5811 19.5885 13.1754 19.8035 12.7557V12.7557ZM87.5683 13.9029C87.5253 12.8816 88.3423 12.0282 89.3886 12.0002H89.5176C90.5782 11.9862 91.4525 12.7976 91.4668 13.8329V13.9029C91.4955 14.9522 90.6498 15.8336 89.5606 15.8616C88.4856 15.8896 87.5826 15.0641 87.554 14.0008C87.5683 13.9728 87.5683 13.9308 87.5683 13.9028V13.9029ZM87.9553 13.9029C87.9553 14.7423 88.6576 15.4279 89.5176 15.4279C90.3776 15.4279 91.0798 14.7423 91.0798 13.9029C91.0798 13.0635 90.3775 12.3779 89.5176 12.3779C88.6863 12.3499 87.984 12.9795 87.9553 13.7909V13.9029ZM89.1306 15.0361H88.7866V12.7417H89.6609C90.0766 12.7557 90.3919 13.0774 90.3919 13.4832C90.3919 13.763 90.2342 14.0148 89.9762 14.1547L90.4779 15.0361H90.0909L89.6322 14.2247H89.1306V15.0361V15.0361ZM89.1306 13.9029H89.6036C89.8329 13.9169 90.0336 13.7489 90.0336 13.5251C90.0336 13.3013 89.8759 13.1054 89.6466 13.1054H89.1306V13.9029V13.9029Z" fill="#0058A3"/>
</g>
<defs>
<clipPath id="clip0_2602_32118">
<rect width="99" height="40" fill="white"/>
</clipPath>
</defs>
</svg>
