<svg width="129" height="40" viewBox="0 0 129 40" fill="none" xmlns="http://www.w3.org/2000/svg">
<path d="M94.3096 5.43555C94.3096 4.09079 95.4242 3 96.7992 3H125.51C126.885 3 128 4.09079 128 5.43555V34.5645C128 35.9097 126.885 37 125.51 37H96.7992C95.4242 37 94.3096 35.9097 94.3096 34.5645V5.43555V5.43555Z" fill="#006699"/>
<path fill-rule="evenodd" clip-rule="evenodd" d="M0 31.4795H14.0599V26.8505H5.0881V9.18975H0V31.4795V31.4795Z" fill="black"/>
<path fill-rule="evenodd" clip-rule="evenodd" d="M21.1785 31.4795V16.127H16.0899V31.4795H21.1785V31.4795ZM18.6342 14.0309C20.4087 14.0309 21.5132 12.8519 21.5132 11.3777C21.4801 9.87167 20.4087 8.7259 18.668 8.7259C16.9271 8.7259 15.7891 9.87167 15.7891 11.3777C15.7891 12.8519 16.8933 14.0309 18.601 14.0309H18.6341H18.6342Z" fill="black"/>
<path fill-rule="evenodd" clip-rule="evenodd" d="M23.541 31.4795H28.6296V22.9058C28.6296 22.4469 28.6627 21.9885 28.7973 21.6605C29.1649 20.7442 30.0021 19.7947 31.4079 19.7947C33.2494 19.7947 33.986 21.203 33.986 23.2656V31.4795H39.0741V22.6764C39.0741 17.9606 36.5635 15.7663 33.2156 15.7663C30.4707 15.7663 29.2653 17.3051 28.5957 18.3532H28.6297V16.127H23.5411C23.6079 17.5677 23.5411 31.4795 23.5411 31.4795H23.541Z" fill="black"/>
<path fill-rule="evenodd" clip-rule="evenodd" d="M46.2528 9.18975H41.1641V31.4795H46.2528V26.5021L47.5246 24.8966L51.5084 31.4795H57.7683L51.0733 21.9495L56.9317 15.4656H50.8056C50.8056 15.4656 46.6212 21.2666 46.2528 21.9545V9.18975V9.18975Z" fill="black"/>
<path fill-rule="evenodd" clip-rule="evenodd" d="M71.3758 25.0756C71.4426 24.6813 71.5433 23.9248 71.5433 23.0698C71.5433 19.101 69.5343 15.0722 64.2454 15.0722C58.5876 15.0722 55.9766 19.5594 55.9766 23.6291C55.9766 28.6628 59.1568 31.8066 64.7139 31.8066C66.9235 31.8066 68.9652 31.4795 70.6393 30.7917L69.9695 27.4217C68.5971 27.8782 67.1911 28.1063 65.4505 28.1063C63.0736 28.1063 60.9983 27.1282 60.8306 25.0429L71.3758 25.0747V25.0756ZM60.7975 21.6233C60.9313 20.3131 61.8017 18.3805 63.9777 18.3805C66.287 18.3805 66.823 20.4444 66.823 21.6233H60.7975V21.6233Z" fill="black"/>
<path fill-rule="evenodd" clip-rule="evenodd" d="M84.1039 9.18983V16.9058H84.0371C83.3005 15.8259 81.7602 15.1054 79.7188 15.1054C75.8017 15.1054 72.3538 18.2492 72.387 23.6196C72.387 28.5979 75.5004 31.8398 79.3836 31.8398C81.4926 31.8398 83.5011 30.9226 84.5054 29.154H84.606L84.8069 31.4796H89.3265C89.2594 30.3988 89.192 28.532 89.192 26.6984V9.18983H84.1039V9.18983ZM84.1039 24.3733C84.1039 24.7658 84.0704 25.1592 84.0032 25.4863C83.7024 26.8947 82.4968 27.8769 81.0243 27.8769C78.9151 27.8769 77.5426 26.1742 77.5426 23.4887C77.5426 20.9673 78.7145 18.937 81.0575 18.937C82.6307 18.937 83.7356 20.0174 84.0371 21.3599C84.1039 21.6552 84.1039 21.9827 84.1039 22.2771V24.3733V24.3733Z" fill="black"/>
<path fill-rule="evenodd" clip-rule="evenodd" d="M104.522 31.4614V16.1085H99.4336V31.4614H104.522V31.4614ZM101.978 14.0123C103.752 14.0123 104.857 12.8334 104.857 11.3601C104.824 9.8536 103.752 8.70738 102.012 8.70738C100.271 8.70738 99.1328 9.8536 99.1328 11.3601C99.1328 12.8334 100.237 14.0123 101.945 14.0123H101.978H101.978Z" fill="white"/>
<path fill-rule="evenodd" clip-rule="evenodd" d="M107.338 31.4614H112.426V22.8877C112.426 22.4289 112.46 21.9705 112.594 21.6425C112.962 20.7257 113.799 19.7762 115.205 19.7762C117.046 19.7762 117.783 21.1841 117.783 23.248V31.4614H122.871V22.6583C122.871 17.9426 120.36 15.7483 117.012 15.7483C114.267 15.7483 113.062 17.287 112.393 18.3351H112.427V16.1085H107.338C107.405 17.5491 107.338 31.4614 107.338 31.4614H107.338Z" fill="white"/>
</svg>
