<svg width="142" height="40" viewBox="0 0 142 40" fill="none" xmlns="http://www.w3.org/2000/svg">
<path d="M4.58697 24.4655C4.58697 26.0752 4.94288 27.311 5.40807 28.0587C6.01799 29.0379 6.92771 29.4528 7.85514 29.4528C9.05136 29.4528 10.1457 29.1581 12.2546 26.2628C13.944 23.9422 15.9348 20.6848 17.2742 18.6426L19.5426 15.1829C21.1184 12.7802 22.9422 10.1092 25.0334 8.29866C26.7406 6.82095 28.5821 6 30.4355 6C33.5472 6 36.5111 7.78997 38.7795 11.1471C41.262 14.8238 42.4671 19.4548 42.4671 24.2339C42.4671 27.075 41.903 29.1625 40.943 30.8118C40.0156 32.4068 38.208 34.0003 35.1672 34.0003V29.4528C37.7709 29.4528 38.4206 27.0779 38.4206 24.36C38.4206 20.4868 37.5109 16.1886 35.5069 13.1173C34.0847 10.9389 32.2417 9.60779 30.214 9.60779C28.021 9.60779 26.2562 11.2497 24.2728 14.1773C23.2184 15.7327 22.1359 17.6282 20.9205 19.7671L19.5825 22.12C16.8947 26.8507 16.2139 27.9282 14.87 29.7064C12.5145 32.8202 10.5031 34.0003 7.85514 34.0003C4.71397 34.0003 2.72767 32.6501 1.49748 30.6153C0.493254 28.9573 0 26.7818 0 24.3028L4.58697 24.4655Z" fill="#0081FB"/>
<path d="M3.61719 11.4681C5.72016 8.25028 8.755 6 12.2358 6C14.2517 6 16.2557 6.59226 18.3483 8.2884C20.6374 10.1429 23.0771 13.1965 26.1208 18.2292L27.2121 20.0353C29.8468 24.3922 31.3457 26.6337 32.223 27.6907C33.3512 29.0482 34.1413 29.4528 35.1677 29.4528C37.7713 29.4528 38.4211 27.0779 38.4211 24.36L42.4676 24.2339C42.4676 27.075 41.9034 29.1625 40.9435 30.8118C40.0161 32.4068 38.2085 34.0003 35.1677 34.0003C33.2774 34.0003 31.6027 33.5927 29.7508 31.8585C28.3271 30.5274 26.6628 28.1627 25.3824 26.0371L21.5737 19.7216C19.6627 16.5521 17.9097 14.189 16.8952 13.1188C15.8038 11.968 14.4008 10.5783 12.162 10.5783C10.35 10.5783 8.81112 11.8405 7.52334 13.7712L3.61719 11.4681Z" fill="url(#paint0_linear_2602_32112)"/>
<path d="M12.1615 10.5783C10.3495 10.5783 8.81064 11.8405 7.52286 13.7712C5.70196 16.4994 4.58697 20.5631 4.58697 24.4655C4.58697 26.0752 4.94288 27.311 5.40807 28.0587L1.49748 30.6153C0.493254 28.9573 0 26.7818 0 24.3028C0 19.7949 1.24643 15.0964 3.6167 11.4681C5.71968 8.25028 8.75452 6 12.2354 6L12.1615 10.5783Z" fill="url(#paint1_linear_2602_32112)"/>
<path d="M51.3828 6.88574H56.689L65.7108 23.0878L74.7341 6.88574H79.9251V33.508H75.5966V13.1044L67.6838 27.2336H63.6226L55.7113 13.1044V33.508H51.3828V6.88574ZM93.4881 16.8119C90.3838 16.8119 88.5142 19.1311 88.0667 22.003H98.6023C98.3852 19.0446 96.6662 16.8119 93.4881 16.8119ZM83.7751 23.639C83.7751 17.5962 87.7093 13.1983 93.5634 13.1983C99.3215 13.1983 102.759 17.5405 102.759 23.9615V25.1416H88.0667C88.588 28.2656 90.6762 30.3708 94.0434 30.3708C96.7297 30.3708 98.4088 29.5572 100.001 28.0692L102.3 30.8648C100.134 32.8424 97.378 33.983 93.8898 33.983C87.5528 33.983 83.7751 29.3959 83.7751 23.639V23.639ZM108.008 17.1931H104.024V13.6747H108.008V7.85622H112.184V13.6747H118.238V17.1931H112.184V26.1106C112.184 29.1555 113.165 30.2374 115.575 30.2374C116.675 30.2374 117.306 30.1436 118.238 29.9896V33.4699C117.077 33.7953 115.97 33.9449 114.77 33.9449C110.262 33.9449 108.008 31.4996 108.008 26.6047V17.1931ZM135.824 20.6147C134.985 18.5125 133.114 16.9644 130.364 16.9644C126.79 16.9644 124.503 19.4815 124.503 23.5818C124.503 27.5796 126.608 30.2183 130.193 30.2183C133.01 30.2183 135.022 28.5911 135.824 26.5666V20.6147ZM140 33.508H135.901V30.7314C134.755 32.366 132.669 33.983 129.292 33.983C123.86 33.983 120.23 29.4692 120.23 23.5818C120.23 17.6387 123.947 13.1983 129.522 13.1983C132.278 13.1983 134.44 14.2919 135.901 16.2226V13.6747H140V33.508Z" fill="#192830"/>
<defs>
<linearGradient id="paint0_linear_2602_32112" x1="9.00901" y1="23.152" x2="38.2487" y2="24.6397" gradientUnits="userSpaceOnUse">
<stop stop-color="#0064E1"/>
<stop offset="0.4" stop-color="#0064E1"/>
<stop offset="0.83" stop-color="#0073EE"/>
<stop offset="1" stop-color="#0082FB"/>
</linearGradient>
<linearGradient id="paint1_linear_2602_32112" x1="6.64564" y1="26.3772" x2="6.64564" y2="15.6755" gradientUnits="userSpaceOnUse">
<stop stop-color="#0082FB"/>
<stop offset="1" stop-color="#0064E0"/>
</linearGradient>
</defs>
</svg>
