<svg width="134" height="40" viewBox="0 0 134 40" fill="none" xmlns="http://www.w3.org/2000/svg">
<g clip-path="url(#clip0_2602_32133)">
<path d="M32.1758 7.34728H40.3517C43.3846 7.34728 45.3626 7.48117 47.0769 9.35565C48.2637 10.6946 48.9231 12.3013 48.9231 14.1757C48.9231 16.0502 48.2637 17.6569 46.9451 18.9958C45.6264 20.3347 43.9121 21.1381 39.5604 21.1381H35.6044V32.251H32.1758V7.34728V7.34728ZM35.6044 18.3264H39.5604C41.8022 18.3264 45.2308 18.1925 45.2308 14.0418C45.2308 10.159 42.0659 10.159 40.2198 10.159H35.6044V18.3264ZM59.8681 32.251C59.6044 31.4477 59.6044 30.5105 59.6044 29.7071C58.022 32.5188 55.7802 32.7866 54.3297 32.7866C50.3736 32.7866 48.2637 30.5105 48.2637 27.6987C48.2637 26.3598 48.7912 24.0837 51.2967 22.6109C53.1429 21.5397 55.7802 21.5397 57.2308 21.5397C58.022 21.5397 58.5495 21.5397 59.4725 21.6736C59.4725 19.5314 59.4725 18.5941 58.8132 17.7908C58.1538 16.9874 56.8352 16.7197 55.9121 16.7197C52.7473 16.7197 52.4835 18.9958 52.4835 19.6653H49.3187C49.4506 18.728 49.5824 17.523 50.5055 16.4519C51.8242 14.9791 54.1978 14.5774 56.044 14.5774C58.5495 14.5774 61.1868 15.3808 62.1099 17.1213C62.6374 18.1925 62.6374 18.9958 62.6374 19.7992L62.5055 28.1004C62.5055 28.3682 62.5055 30.6444 62.7692 32.3849H59.8681V32.251ZM57.6264 23.682C56.3077 23.682 51.4286 23.682 51.4286 27.1632C51.4286 28.2343 52.0879 30.1088 54.989 30.1088C56.5714 30.1088 57.8901 29.4393 58.6813 28.2343C59.3407 27.0293 59.4725 26.092 59.4725 23.682C58.9451 23.8159 58.4176 23.682 57.6264 23.682ZM65.4066 7.34728H68.5714V32.251H65.4066V7.34728ZM82.2857 32.251C82.022 31.4477 82.022 30.5105 82.022 29.7071C80.4396 32.5188 78.1978 32.7866 76.7473 32.7866C72.7912 32.7866 70.6813 30.5105 70.6813 27.6987C70.6813 26.3598 71.2088 24.0837 73.7143 22.6109C75.5604 21.5397 78.1978 21.5397 79.6484 21.5397C80.4396 21.5397 80.967 21.5397 81.8901 21.6736C81.8901 19.5314 81.8901 18.5941 81.2308 17.7908C80.5714 16.9874 79.2528 16.7197 78.3297 16.7197C75.1648 16.7197 74.9011 18.9958 74.9011 19.6653H71.7363C71.8681 18.728 72 17.523 72.9231 16.4519C74.2418 14.9791 76.6154 14.5774 78.4615 14.5774C80.967 14.5774 83.6044 15.3808 84.5275 17.1213C85.0549 18.1925 85.0549 18.9958 85.0549 19.7992L84.9231 28.1004C84.9231 28.3682 84.9231 30.6444 85.1868 32.3849H82.2857V32.251ZM80.1758 23.682C78.8571 23.682 73.978 23.682 73.978 27.1632C73.978 28.2343 74.6374 30.1088 77.5385 30.1088C79.1209 30.1088 80.4396 29.4393 81.2308 28.2343C81.8901 27.0293 82.022 26.092 82.022 23.682C81.3626 23.8159 80.967 23.682 80.1758 23.682ZM87.956 16.9874V14.9791H91.1209V17.7908C91.5165 17.1213 92.7033 14.7113 96.5275 14.7113C98.1099 14.7113 102.725 15.2469 102.725 20.6025V32.3849H99.4286V21.4059C99.4286 20.3347 99.2967 19.2636 98.5055 18.4603C97.7143 17.6569 96.5275 17.2552 95.4725 17.2552C93.0989 17.2552 90.989 18.9958 90.989 22.477V32.3849H87.8242V16.9874H87.956ZM103.78 14.9791H106.813V11.2301L109.978 10.159V14.8452H113.802V17.2552H109.978V27.5649C109.978 28.3682 109.978 29.841 112.22 29.841C112.879 29.841 113.538 29.7071 113.802 29.7071V32.251C113.275 32.3849 112.352 32.5188 111.165 32.5188C108.132 32.5188 106.813 31.5816 106.813 28.7699V17.2552H103.78V14.9791ZM116.044 7.34728H119.868V10.9623H116.044V7.34728ZM116.308 14.9791H119.473V32.251H116.308V14.9791ZM122.506 18.4603C122.506 17.2552 122.374 16.0502 122.374 14.9791H125.538L125.67 18.3264C126.33 15.9163 128.308 15.113 129.758 14.9791C130.681 14.8452 131.473 14.8452 132 14.8452V18.0586C131.868 18.0586 131.604 17.9247 131.341 17.9247C131.077 17.9247 130.813 17.9247 130.418 17.9247C126.593 17.9247 125.802 20.2008 125.802 23.1464V32.3849H122.637V18.4603H122.506ZM12.5275 4C5.93407 4 0.527473 9.48954 0.527473 16.1841C0.527473 22.8787 5.93407 28.3682 12.5275 28.3682C19.1209 28.3682 24.5275 22.8787 24.5275 16.1841C24.5275 9.48954 19.1209 4 12.5275 4ZM12.5275 24.6192C7.91209 24.6192 4.21978 20.8703 4.21978 16.1841C4.21978 11.4979 7.91209 7.74895 12.5275 7.74895C17.1429 7.74895 20.8352 11.4979 20.8352 16.1841C20.7033 20.8703 17.011 24.6192 12.5275 24.6192ZM23.2088 27.2971L12.5275 31.9833L1.84615 27.2971L0 30.6444L12.5275 36L25.0549 30.6444L23.2088 27.2971Z" fill="black"/>
</g>
<defs>
<clipPath id="clip0_2602_32133">
<rect width="134" height="40" fill="white"/>
</clipPath>
</defs>
</svg>
