<svg width="125" height="40" viewBox="0 0 125 40" fill="none" xmlns="http://www.w3.org/2000/svg">
<path fill-rule="evenodd" clip-rule="evenodd" d="M32.3926 5.00001C32.8624 5.00123 33.3117 5.08905 33.664 5.25004C33.9632 5.38787 34.3384 5.6196 34.4973 5.76596C34.6559 5.91354 34.9149 6.30749 35.0711 6.6429C35.2396 7.00148 35.3568 7.47836 35.3568 7.80157C35.3568 8.11868 35.2383 8.60776 35.0759 8.96024C34.9221 9.29566 34.6087 9.72986 34.3809 9.92379C34.1533 10.1189 33.7755 10.358 33.543 10.4568C33.3092 10.5556 32.7922 10.6361 32.3926 10.6361C31.993 10.6361 31.4747 10.5556 31.2422 10.4568C31.0085 10.358 30.6319 10.1189 30.4042 9.92379C30.1766 9.72986 29.8629 9.29566 29.7091 8.96024C29.5457 8.6041 29.4282 8.12112 29.4294 7.80157C29.4306 7.4991 29.542 7.00513 29.6777 6.70388C29.8145 6.4014 30.0446 6.02453 30.1899 5.86475C30.3364 5.70498 30.7275 5.44397 31.0606 5.28663C31.4892 5.08295 31.8791 4.99879 32.3926 5.00001ZM0 6.33798L17.6191 6.32944L17.8613 6.59045C18.0817 6.82828 18.1035 7.01855 18.1035 10.6678L11.5039 10.7288V28.0479H6.53905V10.7288H0V6.33798ZM27.458 11.6593C27.5416 11.685 27.6905 11.7045 27.791 11.7045C27.946 11.7045 27.9727 12.0472 27.9727 16.4002L27.0342 16.3587C26.3149 16.327 25.9395 16.3758 25.4297 16.5648C25.0628 16.7002 24.4912 17.0551 24.1582 17.3515C23.8513 17.6258 23.4807 18.0813 23.0567 18.8737C22.9834 19.0107 22.9467 19.1643 22.9457 19.3197L22.8867 28.0479H18.043V12.1923L20.1924 12.1948C22.251 12.1972 22.3539 12.2094 22.6179 12.4692C22.7692 12.6192 22.8916 12.8376 22.8904 12.9547C22.8867 13.1327 23.0042 13.0961 23.583 12.7376C23.9657 12.5009 24.5784 12.196 24.9453 12.0594C25.311 11.9228 25.9928 11.7667 26.459 11.713C26.9252 11.6593 27.3744 11.635 27.458 11.6593ZM47.8321 11.6801C48.1976 11.7045 48.8252 11.8021 49.2246 11.8972C49.6243 11.9936 50.4139 12.3009 50.9804 12.5814C51.782 12.979 52.2266 13.3083 52.9905 14.0743C53.6023 14.689 54.1472 15.3793 54.4401 15.9123C54.698 16.3819 55.0396 17.2051 55.1995 17.7418C55.4259 18.5017 55.4914 19.0139 55.4972 20.0592C55.502 20.9459 55.4355 21.6703 55.2999 22.1936C55.1886 22.629 54.881 23.4254 54.6182 23.9621C54.3555 24.4987 53.9061 25.222 53.6204 25.5696C53.3334 25.9172 52.7449 26.4856 52.3126 26.8331C51.8789 27.1796 51.1983 27.6174 50.7989 27.8064C50.3991 27.9955 49.7452 28.2333 49.3458 28.3346C48.9461 28.4358 48.2644 28.5541 47.8321 28.5968C47.3985 28.6407 46.6634 28.6151 46.1972 28.5407C45.731 28.4663 45.0226 28.2992 44.6232 28.1687C44.2235 28.037 43.5829 27.7369 42.5039 27.0722V35H37.66V12.1923H39.84C41.8586 12.1923 42.0377 12.2107 42.2617 12.4363C42.395 12.5704 42.5039 12.79 42.5039 12.9241C42.5039 13.1473 42.5621 13.1327 43.2003 12.7497C43.5829 12.5192 44.2368 12.2168 44.6534 12.0789C45.0699 11.9399 45.805 11.7838 46.288 11.7313C46.7713 11.6801 47.4653 11.6569 47.8321 11.6801ZM44.1567 17.2186C43.8021 17.5357 43.4301 18.0309 43.2161 18.4736C42.9276 19.0712 42.8622 19.3627 42.8636 20.0592C42.8636 20.5287 42.9448 21.1593 43.0427 21.4618C43.1397 21.763 43.4812 22.3082 43.8008 22.6717C44.1485 23.0681 44.6232 23.4449 44.9863 23.6157C45.4381 23.8267 45.8074 23.8987 46.4394 23.8987C47.0923 23.8987 47.4338 23.8291 47.9229 23.595C48.2727 23.4279 48.7632 23.0815 49.0125 22.8253C49.2623 22.5692 49.6 22.0887 49.7624 21.7581C49.9973 21.2788 50.0576 20.958 50.0652 20.1811C50.071 19.3786 50.0165 19.0859 49.761 18.5346C49.5904 18.165 49.2366 17.6528 48.9738 17.3942C48.7125 17.1356 48.2802 16.8112 48.0137 16.6722C47.6831 16.5002 47.2413 16.4087 46.6213 16.3819C46.0424 16.3575 45.5375 16.4075 45.2285 16.5197C44.962 16.6173 44.48 16.932 44.1567 17.2186ZM74.412 11.6618C74.612 11.6801 75.0477 11.7252 75.3807 11.7618C75.714 11.7984 76.3956 11.9631 76.8944 12.1277C77.3945 12.2924 78.2121 12.6949 78.7109 13.0205C79.211 13.3474 79.6868 13.706 79.7704 13.8182C79.8601 13.9389 79.8796 14.084 79.819 14.1743C79.7608 14.2584 79.1346 15.0817 78.4262 16.0038C77.7168 16.9259 77.0821 17.6808 77.0156 17.6808C76.9492 17.6808 76.7176 17.5101 76.5008 17.3003C76.2843 17.0917 75.8894 16.8088 75.6232 16.6722C75.3506 16.5331 74.7936 16.399 74.3517 16.3648C73.8177 16.3246 73.3696 16.3685 72.9589 16.5002C72.6164 16.6112 72.0991 16.9222 71.7662 17.2186C71.4113 17.5357 71.0397 18.0309 70.8252 18.4736C70.5372 19.0712 70.4717 19.3627 70.4728 20.0592C70.4728 20.5287 70.5539 21.1593 70.6523 21.4618C70.7492 21.763 71.0674 22.285 71.3569 22.6204C71.6525 22.962 72.1755 23.3791 72.5438 23.5669C73.0754 23.8389 73.3635 23.9048 74.0489 23.9048C74.7401 23.906 75.0296 23.8401 75.6232 23.5498C76.0226 23.3534 76.4998 23.0229 76.6827 22.8156C76.8656 22.607 77.0835 22.4412 77.167 22.446C77.2506 22.4509 77.9857 23.2193 78.8017 24.1536C79.6179 25.0878 80.2718 25.9001 80.2547 25.9599C80.2379 26.0184 79.9242 26.3221 79.5587 26.6331C79.1918 26.9453 78.5379 27.3869 78.1056 27.6162C77.672 27.8442 76.8824 28.154 76.3497 28.3041C75.6472 28.5017 75.0467 28.5773 74.1698 28.5797C73.5039 28.5809 72.6321 28.509 72.2324 28.4199C71.8326 28.3297 71.1787 28.1211 70.7793 27.9564C70.3796 27.7918 69.6979 27.4235 69.2656 27.1369C68.832 26.8502 68.1613 26.2648 67.7725 25.8379C67.3837 25.4098 66.8679 24.7024 66.627 24.267C66.3859 23.8303 66.0553 23.062 65.8933 22.5594C65.6535 21.8179 65.5953 21.3788 65.5867 20.2421C65.5796 19.2652 65.6412 18.5992 65.7878 18.0467C65.9039 17.6101 66.1862 16.8698 66.4164 16.4002C66.6462 15.9306 67.0823 15.2305 67.3837 14.8451C67.6865 14.4597 68.2473 13.8962 68.6299 13.595C69.0125 13.2925 69.6798 12.8583 70.1134 12.6302C70.5457 12.4009 71.2274 12.1192 71.6268 12.0045C72.0265 11.8887 72.7349 11.7569 73.2011 11.7118C73.6673 11.6654 74.2123 11.6435 74.412 11.6618ZM90.2754 11.6764C90.6084 11.6996 91.2623 11.7972 91.7285 11.8948C92.1947 11.9911 92.9575 12.2546 93.4237 12.4802C93.8899 12.7058 94.6216 13.1583 95.0501 13.4864C95.4776 13.8145 96.0685 14.3841 96.3627 14.7536C96.657 15.122 97.0519 15.6989 97.2396 16.0343C97.4274 16.3697 97.6949 16.9868 97.8339 17.4064C97.972 17.826 98.1453 18.5943 98.2193 19.1139C98.3135 19.7847 98.3149 20.3421 98.2251 21.0349C98.1549 21.5716 97.9877 22.3668 97.8535 22.8034C97.7178 23.2388 97.4017 23.945 97.1513 24.3719C96.8991 24.7976 96.3932 25.4769 96.0274 25.8806C95.6605 26.2843 95.0066 26.8453 94.5743 27.1271C94.1407 27.4101 93.46 27.7796 93.0606 27.9503C92.6609 28.1211 92.007 28.3333 91.6076 28.4211C91.2078 28.5102 90.3361 28.5809 89.6698 28.5797C88.7933 28.5773 88.1924 28.5017 87.4902 28.3041C86.9576 28.154 86.1666 27.843 85.7344 27.6137C85.3007 27.3832 84.6468 26.9466 84.2813 26.6429C83.9144 26.338 83.3828 25.8026 83.0995 25.4525C82.8159 25.1024 82.397 24.4585 82.1668 24.0231C81.938 23.5864 81.6379 22.7912 81.5009 22.2546C81.3337 21.6045 81.2515 20.8922 81.2515 20.1201C81.2515 19.3481 81.3337 18.6358 81.5009 17.9857C81.6379 17.4491 81.9503 16.6258 82.1959 16.1562C82.4953 15.583 82.9807 14.9586 83.6733 14.256C84.2412 13.6791 85.0041 13.0376 85.3713 12.8278C85.7368 12.6192 86.4465 12.3033 86.9452 12.1277C87.4453 11.9509 88.2627 11.7679 88.7617 11.7216C89.2618 11.674 89.9425 11.6545 90.2754 11.6764ZM87.6307 17.0405C87.3751 17.2247 86.9829 17.6503 86.7589 17.9857C86.5349 18.3211 86.2865 18.87 86.2067 19.2054C86.1266 19.5408 86.0892 20.1165 86.1242 20.486C86.1581 20.8544 86.3023 21.4179 86.4441 21.7362C86.5869 22.0545 86.9624 22.5778 87.2782 22.8985C87.6755 23.3022 88.0595 23.5523 88.5196 23.7084C89.0063 23.8742 89.4132 23.9206 90.0332 23.8816C90.6519 23.8426 91.0287 23.7425 91.4257 23.5144C91.7247 23.3413 92.1474 23.001 92.3642 22.7583C92.5811 22.5143 92.8801 22.0826 93.0301 21.7972C93.2566 21.3654 93.3014 21.0861 93.3014 20.1201C93.3014 19.1542 93.2566 18.8749 93.0301 18.4431C92.8801 18.1577 92.5811 17.7272 92.3642 17.4869C92.1474 17.2466 91.6439 16.888 91.2441 16.6917C90.6762 16.4124 90.359 16.3356 89.7911 16.3416C89.3913 16.3465 88.8463 16.4294 88.5802 16.527C88.3137 16.6246 87.8862 16.8551 87.6307 17.0405ZM110.014 11.6789C110.347 11.7033 110.918 11.8069 111.285 11.9094C111.651 12.0118 112.196 12.2241 112.496 12.3814C112.795 12.5375 113.198 12.7937 113.74 13.2291L114.541 12.7022C114.981 12.4119 115.695 12.0667 116.129 11.9338C116.632 11.7801 117.288 11.6899 117.945 11.685C118.575 11.6789 119.257 11.7569 119.701 11.8838C120.101 11.9984 120.748 12.2655 121.138 12.4778C121.53 12.69 122.138 13.1644 122.489 13.534C122.723 13.7805 122.993 14.1397 123.325 14.7219C123.762 15.4881 123.942 16.3697 123.946 17.2519L124 28.0479H119.156L119.098 18.1407C119.096 17.948 119.04 17.7597 118.934 17.5985L118.763 17.3369C118.567 17.0368 118.218 16.721 117.915 16.5685C117.536 16.3782 117.238 16.3209 116.788 16.355C116.336 16.388 116.05 16.4965 115.705 16.7661C115.446 16.9673 115.137 17.3515 115.019 17.6198C114.822 18.0626 114.802 18.5724 114.797 28.0479H109.832L109.83 23.0778C109.827 18.5724 109.806 18.0626 109.611 17.6198C109.492 17.3515 109.183 16.9673 108.924 16.7661C108.582 16.5002 108.287 16.3868 107.841 16.3502C107.351 16.3099 107.12 16.3611 106.683 16.6063C106.501 16.7089 106.288 16.8799 106.043 17.1647C105.675 17.5938 105.531 18.1639 105.528 18.7295L105.473 28.0479H100.629V12.1923L102.778 12.1887C104.86 12.1862 104.936 12.1948 105.185 12.4631C105.326 12.6168 105.463 12.8071 105.487 12.8888C105.517 12.9863 105.72 12.9107 106.078 12.6704C106.377 12.4692 106.922 12.1923 107.289 12.0545C107.655 11.9179 108.282 11.7679 108.682 11.7203C109.081 11.6728 109.681 11.6545 110.014 11.6789ZM29.9102 12.2923C29.9102 12.2371 29.9549 12.1923 30.0102 12.1923H34.3905L34.6364 12.5278C34.8786 12.8571 34.8834 13.0083 34.8748 28.0479H29.9102V12.2923Z" fill="#047BC1"/>
<path d="M59.5893 21.5361C59.3649 21.6189 59.0021 21.8223 58.7812 21.988C58.5599 22.1536 58.2321 22.508 58.0519 22.776C57.8718 23.044 57.6703 23.5373 57.6053 23.8722C57.5237 24.29 57.5251 24.6627 57.6077 25.0597C57.6738 25.3776 57.8601 25.8575 58.0194 26.1255C58.1797 26.3934 58.5322 26.7686 58.8042 26.9586C59.0765 27.1486 59.481 27.369 59.7057 27.4482C59.9287 27.5262 60.3476 27.5907 60.6361 27.5907C60.9231 27.5907 61.3941 27.5079 61.6825 27.408C61.9699 27.3081 62.4361 27.0195 62.7163 26.7674C62.9965 26.5152 63.3363 26.0889 63.4689 25.821C63.6467 25.4629 63.7107 25.1072 63.7107 24.4812C63.7107 23.8442 63.648 23.5056 63.4631 23.1414C63.3257 22.8735 63.0397 22.4788 62.827 22.2657C62.6129 22.0513 62.2025 21.7651 61.9151 21.6287C61.5722 21.4655 61.1512 21.3814 60.694 21.3838C60.3103 21.3851 59.8126 21.4533 59.5893 21.5361V21.5361Z" fill="#FCAF17"/>
</svg>
