<svg width="4000" height="2000" viewBox="0 0 4000 2000" fill="none" xmlns="http://www.w3.org/2000/svg">
<rect width="4000" height="2000" fill="white"/>
<rect width="4000" height="2000" fill="url(#paint0_linear)"/>
<mask id="mask0" mask-type="alpha" maskUnits="userSpaceOnUse" x="0" y="0" width="4000" height="2000">
<rect width="4000" height="2000" fill="url(#paint1_linear)"/>
</mask>
<g mask="url(#mask0)">
<path d="M2406 537.616L2482.21 584.439V678.085L2406 724.909L2329.79 678.085V584.439L2406 537.616Z" stroke="white" stroke-opacity="0.02" stroke-width="3"/>
<path d="M2494 1023.31L2570.21 1070.13V1163.78L2494 1210.6L2417.79 1163.78V1070.13L2494 1023.31Z" stroke="white" stroke-opacity="0.02" stroke-width="3"/>
<path d="M2406 861.411L2482.21 908.234V1001.88L2406 1048.7L2329.79 1001.88V908.234L2406 861.411Z" stroke="white" stroke-opacity="0.02" stroke-width="3"/>
<path d="M2494 1347.1L2570.21 1393.93V1487.57L2494 1534.4L2417.79 1487.57V1393.93L2494 1347.1Z" stroke="white" stroke-opacity="0.02" stroke-width="3"/>
<path d="M2318 699.513L2394.21 746.336V839.983L2318 886.806L2241.79 839.983V746.336L2318 699.513Z" stroke="white" stroke-opacity="0.02" stroke-width="3"/>
<path d="M2406 1185.21L2482.21 1232.03V1325.67L2406 1372.5L2329.79 1325.67V1232.03L2406 1185.21Z" stroke="white" stroke-opacity="0.02" stroke-width="3"/>
<path d="M1704 537.616L1780.21 584.439V678.085L1704 724.909L1627.79 678.085V584.439L1704 537.616Z" stroke="white" stroke-opacity="0.02" stroke-width="3"/>
<path d="M1792 1023.31L1868.21 1070.13V1163.78L1792 1210.6L1715.79 1163.78V1070.13L1792 1023.31Z" stroke="white" stroke-opacity="0.02" stroke-width="3"/>
<path d="M1704 861.411L1780.21 908.234V1001.88L1704 1048.7L1627.79 1001.88V908.234L1704 861.411Z" stroke="white" stroke-opacity="0.02" stroke-width="3"/>
<path d="M1792 1347.1L1868.21 1393.93V1487.57L1792 1534.4L1715.79 1487.57V1393.93L1792 1347.1Z" stroke="white" stroke-opacity="0.02" stroke-width="3"/>
<path d="M1616 699.513L1692.21 746.336V839.983L1616 886.806L1539.79 839.983V746.336L1616 699.513Z" stroke="white" stroke-opacity="0.02" stroke-width="3"/>
<path d="M1704 1185.21L1780.21 1232.03V1325.67L1704 1372.5L1627.79 1325.67V1232.03L1704 1185.21Z" stroke="white" stroke-opacity="0.02" stroke-width="3"/>
<path d="M2055 537.616L2131.21 584.439V678.085L2055 724.909L1978.79 678.085V584.439L2055 537.616Z" stroke="white" stroke-opacity="0.02" stroke-width="3"/>
<path d="M2143 1023.31L2219.21 1070.13V1163.78L2143 1210.6L2066.79 1163.78V1070.13L2143 1023.31Z" stroke="white" stroke-opacity="0.02" stroke-width="3"/>
<path d="M2055 861.411L2131.21 908.234V1001.88L2055 1048.7L1978.79 1001.88V908.234L2055 861.411Z" stroke="white" stroke-opacity="0.02" stroke-width="3"/>
<path d="M2143 1347.1L2219.21 1393.93V1487.57L2143 1534.4L2066.79 1487.57V1393.93L2143 1347.1Z" stroke="white" stroke-opacity="0.02" stroke-width="3"/>
<path d="M1967 699.513L2043.21 746.336V839.983L1967 886.806L1890.79 839.983V746.336L1967 699.513Z" stroke="white" stroke-opacity="0.02" stroke-width="3"/>
<path d="M2055 1185.21L2131.21 1232.03V1325.67L2055 1372.5L1978.79 1325.67V1232.03L2055 1185.21Z" stroke="white" stroke-opacity="0.02" stroke-width="3"/>
<path d="M1353 537.616L1429.21 584.439V678.085L1353 724.909L1276.79 678.085V584.439L1353 537.616Z" stroke="white" stroke-opacity="0.02" stroke-width="3"/>
<path d="M1441 1023.31L1517.21 1070.13V1163.78L1441 1210.6L1364.79 1163.78V1070.13L1441 1023.31Z" stroke="white" stroke-opacity="0.02" stroke-width="3"/>
<path d="M1353 861.411L1429.21 908.234V1001.88L1353 1048.7L1276.79 1001.88V908.234L1353 861.411Z" stroke="white" stroke-opacity="0.02" stroke-width="3"/>
<path d="M1441 1347.1L1517.21 1393.93V1487.57L1441 1534.4L1364.79 1487.57V1393.93L1441 1347.1Z" stroke="white" stroke-opacity="0.02" stroke-width="3"/>
<path d="M1265 699.513L1341.21 746.336V839.983L1265 886.806L1188.79 839.983V746.336L1265 699.513Z" stroke="white" stroke-opacity="0.02" stroke-width="3"/>
<path d="M1353 1185.21L1429.21 1232.03V1325.67L1353 1372.5L1276.79 1325.67V1232.03L1353 1185.21Z" stroke="white" stroke-opacity="0.03" stroke-width="3"/>
<path d="M2581 537.616L2657.21 584.439V678.085L2581 724.909L2504.79 678.085V584.439L2581 537.616Z" stroke="white" stroke-opacity="0.02" stroke-width="3"/>
<path d="M2669 1023.31L2745.21 1070.13V1163.78L2669 1210.6L2592.79 1163.78V1070.13L2669 1023.31Z" stroke="white" stroke-opacity="0.02" stroke-width="3"/>
<path d="M2581 861.411L2657.21 908.234V1001.88L2581 1048.7L2504.79 1001.88V908.234L2581 861.411Z" stroke="white" stroke-opacity="0.02" stroke-width="3"/>
<path d="M2669 1347.1L2745.21 1393.93V1487.57L2669 1534.4L2592.79 1487.57V1393.93L2669 1347.1Z" stroke="white" stroke-opacity="0.02" stroke-width="3"/>
<path d="M2493 699.513L2569.21 746.336V839.983L2493 886.806L2416.79 839.983V746.336L2493 699.513Z" stroke="white" stroke-opacity="0.02" stroke-width="3"/>
<path d="M2669 699.513L2745.21 746.336V839.983L2669 886.806L2592.79 839.983V746.336L2669 699.513Z" stroke="white" stroke-opacity="0.02" stroke-width="3"/>
<path d="M2581 1185.21L2657.21 1232.03V1325.67L2581 1372.5L2504.79 1325.67V1232.03L2581 1185.21Z" stroke="white" stroke-opacity="0.02" stroke-width="3"/>
<path d="M1879 537.616L1955.21 584.439V678.085L1879 724.909L1802.79 678.085V584.439L1879 537.616Z" stroke="white" stroke-opacity="0.02" stroke-width="3"/>
<path d="M1967 1023.31L2043.21 1070.13V1163.78L1967 1210.6L1890.79 1163.78V1070.13L1967 1023.31Z" stroke="white" stroke-opacity="0.02" stroke-width="3"/>
<path d="M1879 861.411L1955.21 908.234V1001.88L1879 1048.7L1802.79 1001.88V908.234L1879 861.411Z" stroke="white" stroke-opacity="0.02" stroke-width="3"/>
<path d="M1967 1347.1L2043.21 1393.93V1487.57L1967 1534.4L1890.79 1487.57V1393.93L1967 1347.1Z" stroke="white" stroke-opacity="0.02" stroke-width="3"/>
<path d="M1791 699.513L1867.21 746.336V839.983L1791 886.806L1714.79 839.983V746.336L1791 699.513Z" stroke="white" stroke-opacity="0.02" stroke-width="3"/>
<path d="M1879 1185.21L1955.21 1232.03V1325.67L1879 1372.5L1802.79 1325.67V1232.03L1879 1185.21Z" stroke="white" stroke-opacity="0.02" stroke-width="3"/>
<path d="M2230 537.616L2306.21 584.439V678.085L2230 724.909L2153.79 678.085V584.439L2230 537.616Z" stroke="white" stroke-opacity="0.02" stroke-width="3"/>
<path d="M2318 1023.31L2394.21 1070.13V1163.78L2318 1210.6L2241.79 1163.78V1070.13L2318 1023.31Z" stroke="white" stroke-opacity="0.02" stroke-width="3"/>
<path d="M2230 861.411L2306.21 908.234V1001.88L2230 1048.7L2153.79 1001.88V908.234L2230 861.411Z" stroke="white" stroke-opacity="0.02" stroke-width="3"/>
<path d="M2318 1347.1L2394.21 1393.93V1487.57L2318 1534.4L2241.79 1487.57V1393.93L2318 1347.1Z" stroke="white" stroke-opacity="0.02" stroke-width="3"/>
<path d="M2142 699.513L2218.21 746.336V839.983L2142 886.806L2065.79 839.983V746.336L2142 699.513Z" stroke="white" stroke-opacity="0.02" stroke-width="3"/>
<path d="M2230 1185.21L2306.21 1232.03V1325.67L2230 1372.5L2153.79 1325.67V1232.03L2230 1185.21Z" stroke="white" stroke-opacity="0.02" stroke-width="3"/>
<path d="M1528 537.616L1604.21 584.439V678.085L1528 724.909L1451.79 678.085V584.439L1528 537.616Z" stroke="white" stroke-opacity="0.02" stroke-width="3"/>
<path d="M1616 1023.31L1692.21 1070.13V1163.78L1616 1210.6L1539.79 1163.78V1070.13L1616 1023.31Z" stroke="white" stroke-opacity="0.02" stroke-width="3"/>
<path d="M1528 861.411L1604.21 908.234V1001.88L1528 1048.7L1451.79 1001.88V908.234L1528 861.411Z" stroke="white" stroke-opacity="0.02" stroke-width="3"/>
<path d="M1616 1347.1L1692.21 1393.93V1487.57L1616 1534.4L1539.79 1487.57V1393.93L1616 1347.1Z" stroke="white" stroke-opacity="0.02" stroke-width="3"/>
<path d="M1440 699.513L1516.21 746.336V839.983L1440 886.806L1363.79 839.983V746.336L1440 699.513Z" stroke="white" stroke-opacity="0.02" stroke-width="3"/>
<path d="M1528 1185.21L1604.21 1232.03V1325.67L1528 1372.5L1451.79 1325.67V1232.03L1528 1185.21Z" stroke="white" stroke-opacity="0.02" stroke-width="3"/>
</g>
<defs>
<linearGradient id="paint0_linear" x1="-2.9073e-06" y1="1001.71" x2="4000" y2="1001.71" gradientUnits="userSpaceOnUse">
<stop stop-color="#111010"/>
<stop offset="1" stop-color="#424242"/>
</linearGradient>
<linearGradient id="paint1_linear" x1="4000" y1="1035.38" x2="312.446" y2="2111.85" gradientUnits="userSpaceOnUse">
<stop stop-color="#151414"/>
<stop offset="1" stop-color="#292929"/>
</linearGradient>
</defs>
</svg>
