<svg width="247" height="87" viewBox="0 0 247 87" fill="none" xmlns="http://www.w3.org/2000/svg">
<path d="M81.6148 18.7534C80.7993 18.6951 79.7507 19.2194 79.1099 19.8602C75.7894 22.9477 72.0028 25.1031 67.5755 25.8604C67.1094 25.9187 66.3521 25.6857 66.0026 25.3362C63.4394 22.5982 60.5266 20.4428 56.9731 19.1611C56.041 18.8116 55.9245 18.2291 55.8663 17.4135C55.5167 12.9279 56.274 8.6753 58.3712 4.65573C59.5363 2.5003 59.3615 1.80124 57.6139 0.286621C57.0314 0.286621 56.4488 0.286621 55.8663 0.286621C55.2837 1.04393 54.5847 1.68473 54.1186 2.5003C51.7302 7.04417 50.6816 11.9376 51.0894 17.064C51.0894 17.2387 51.0894 17.4135 51.0894 17.8213C44.9144 17.763 39.7297 19.7437 36.584 25.3944C34.2538 24.9284 31.9818 24.3458 29.6516 23.9963C22.8358 22.8895 16.0783 23.0642 9.37901 25.1614C4.95165 26.5012 1.39811 28.8897 0 33.6666C0 34.7152 0 35.822 0 36.8706C1.86415 44.0359 7.16533 47.939 13.3986 50.91C13.3986 51.0847 13.3986 51.2012 13.3403 51.2595C13.2821 51.4925 13.1656 51.7255 13.1073 51.9586C10.1363 59.7064 11.3597 66.7553 16.6608 73.105C17.4182 73.9788 17.5929 74.7944 17.3599 75.843C16.7774 78.6975 16.3113 81.4937 15.787 84.5812C18.6415 83.1248 21.3212 81.8432 23.9427 80.5034C24.8165 80.0373 25.5156 79.9791 26.5059 80.4451C32.0401 82.9501 37.6325 83.2413 43.225 80.7364C45.2057 79.8626 47.0115 78.5227 48.9922 77.4159C49.167 77.6489 49.4582 77.9402 49.6913 78.2314C52.8953 81.785 56.6236 84.5812 61.3422 85.8046C67.8085 87.4939 72.8766 84.4647 74.3913 77.9984C74.6825 76.7168 74.799 75.4352 74.8573 74.0953C75.0321 68.4446 73.9252 63.027 71.7698 57.8423C70.3717 54.4635 68.624 51.2595 67.0512 47.8225C71.8863 42.7543 72.0611 36.8123 69.4979 30.4043C70.1969 30.1713 70.7212 30.0548 71.2455 29.88C75.6729 28.5402 79.5759 26.21 82.7799 22.8312C83.3625 22.2486 83.6538 21.0253 83.479 20.268C83.3042 19.6854 82.3139 18.8116 81.6148 18.7534ZM31.9818 51.6673C35.5354 50.5022 38.6811 48.6963 41.5939 46.2496C42.8755 47.2399 44.0988 48.1137 45.1474 48.9293C44.4483 51.6673 43.7493 54.2887 43.1667 56.9685C42.992 57.8423 42.992 58.7744 42.9337 59.7064C42.8755 60.522 42.5259 60.8715 41.6521 60.9298C37.2248 60.9298 32.5061 57.3762 31.341 53.1236C31.1663 52.3663 31.1663 51.9003 31.9818 51.6673ZM21.8455 47.9972C21.962 43.6281 23.3019 40.0163 26.9719 37.4531C27.3215 37.2201 27.7875 36.9288 28.137 36.9871C32.5061 37.4531 36.817 37.9192 41.3026 38.4435C38.9724 44.2107 28.6031 49.1623 21.8455 47.9972ZM18.1172 28.2489C25.3408 27.7246 32.3314 28.7149 39.0307 31.5112C41.7104 32.618 42.6424 34.0161 42.4677 36.1133C42.4677 36.2298 42.3512 36.4045 42.3512 36.4628C39.1472 35.9968 35.9432 35.4725 32.7391 35.0647C27.8458 34.4821 22.9524 34.5987 18.1172 35.1812C17.3599 35.2977 16.3696 35.0647 15.7288 34.6569C13.9811 33.6083 12.5248 31.6277 11.6509 29.2975C13.8064 28.9479 15.9618 28.4237 18.1172 28.2489ZM9.20424 30.5208C10.5441 32.385 11.8257 34.1909 13.1656 35.9385C10.8936 36.8123 8.44693 37.7444 5.94198 38.7347C3.55354 35.2395 5.0099 31.6859 9.20424 30.5208ZM7.39835 40.7737C10.5441 38.793 18.4085 36.9288 23.4184 36.9871C22.4863 38.6182 21.3795 40.1911 20.6804 41.8805C19.9814 43.6281 19.7483 45.5505 19.2823 47.5312C14.5637 46.7156 10.6024 44.5602 7.39835 40.7737ZM31.8653 77.1246C24.4087 75.2022 19.1658 70.6583 16.8939 63.1435C15.9618 59.9977 16.3113 56.9102 17.5347 53.9392C17.8259 53.2402 17.9424 52.4828 19.0493 52.5994C20.0979 52.7159 20.3309 53.2984 20.5639 54.1722C22.4281 62.6192 27.671 68.0951 35.8266 70.6583C38.2151 71.4156 40.8948 71.4156 43.3998 71.4739C44.7979 71.4739 45.5552 71.8234 45.8465 73.338C41.8851 76.8916 37.1665 78.5227 31.8653 77.1246ZM49.4 68.4446C46.2542 62.2696 47.9436 51.4925 52.7205 47.2982C54.9342 51.2012 56.8566 55.1626 58.0217 59.4734C58.313 60.522 57.4391 62.0366 56.7401 63.2017C55.0507 65.9397 52.4292 67.5126 49.4 68.4446ZM60.4101 80.5034C55.6332 78.4062 52.6623 74.9692 50.4486 70.5418C54.1186 69.202 57.1479 67.163 59.245 63.5512C60.8762 69.2602 61.1674 74.7362 60.4101 80.5034ZM62.6821 81.2024C62.9151 78.581 63.1481 75.9595 63.3229 73.4545C65.2453 74.0954 67.1677 74.6779 69.0901 75.3187C69.3814 75.4352 69.7309 75.9012 69.6726 76.1925C69.2066 80.9694 65.8861 82.1345 62.6821 81.2024ZM69.9639 71.5321C69.9639 71.8817 70.0222 72.2312 70.0222 72.5225C70.0222 72.639 69.9639 72.8138 69.9056 73.2798C68.4493 72.8138 67.1094 72.4642 65.8278 71.8817C63.9637 71.0661 62.7403 69.8428 62.3908 67.5126C61.3422 60.3472 58.7207 53.6479 55.2837 47.2399C54.9924 46.7156 54.7594 46.2496 54.4682 45.7253C56.0993 44.6767 57.7304 44.6767 59.012 46.1913C60.8179 48.2303 62.5656 50.4439 63.9054 52.7741C67.3424 58.5413 69.4979 64.7746 69.9639 71.5321Z" fill="white"/>
<path d="M159.909 52.25C158.686 51.4344 157.229 50.9684 155.715 50.3276C156.006 50.2111 156.356 50.0363 156.647 49.9198C160.841 48.1722 162.938 44.9099 163.055 40.4243C163.171 35.9387 161.54 32.3269 157.404 30.1132C154.783 28.7151 151.928 28.249 148.957 28.249C141.85 28.1908 134.685 28.249 127.578 28.249C127.17 28.249 126.762 28.3073 126.238 28.3073C126.238 28.9481 126.238 29.4724 126.238 29.9967C126.238 37.395 126.238 44.7934 126.18 52.1917C126.18 52.8325 126.063 53.5898 125.714 54.1141C122.393 59.0075 118.199 62.9689 112.898 65.6486C109.053 67.6292 105.033 68.6778 100.664 67.6875C96.4116 66.7554 92.9745 63.1436 92.5668 59.124C93.0328 59.0075 93.4988 58.9493 93.9066 58.8328C97.1106 57.7259 100.431 56.8521 103.402 55.3957C107.829 53.2403 111.733 50.2111 114.063 45.6672C116.393 41.1233 114.762 36.4047 110.043 34.3075C106.606 32.7929 103.111 33.0259 99.7321 34.424C90.1783 38.3271 84.2946 48.7547 85.8092 58.9493C87.1491 67.7457 93.9649 73.8625 102.878 74.0373C109.402 74.212 115.17 71.8818 120.179 67.9205C122.335 66.2311 124.141 64.134 126.121 62.2115C126.121 66.2894 126.121 70.4255 126.121 74.6198C126.588 74.6781 126.879 74.7363 127.17 74.7363C134.627 74.7363 142.083 74.7946 149.598 74.6781C151.812 74.6198 154.084 74.3285 156.181 73.6877C160.958 72.2896 163.987 69.0273 164.628 64.0174C165.21 59.3571 164.22 55.0462 159.909 52.25ZM97.2271 43.3953C99.4991 41.0068 102.062 39.0844 105.558 38.8514C106.198 38.7931 106.956 38.8514 107.596 39.0262C110.101 39.667 111.034 41.5894 109.81 43.8613C107.946 47.4148 104.859 49.6285 101.48 51.4344C98.6252 53.0073 95.596 54.0559 92.0425 54.4054C92.4503 49.9198 94.3144 46.4245 97.2271 43.3953ZM137.19 37.5115C141.035 37.5115 144.763 37.3368 148.491 37.5698C150.705 37.6863 151.87 39.4922 151.812 41.7641C151.754 44.1526 150.355 45.9002 147.967 46.0167C144.413 46.1915 140.86 46.075 137.19 46.075C137.19 43.2205 137.19 40.4243 137.19 37.5115ZM148.899 65.3573C145.287 65.6486 141.675 65.5321 138.005 65.5321C137.714 65.5321 137.248 64.9495 137.248 64.6582C137.19 61.5707 137.19 58.4832 137.19 55.221C141.151 55.221 144.879 55.1045 148.55 55.2792C151.288 55.3957 152.977 57.3764 153.093 59.9979C153.21 62.9689 151.754 65.1243 148.899 65.3573Z" fill="white"/>
<path d="M197.833 29.0644C195.911 28.5984 193.93 28.2488 191.949 28.2488C185.25 28.1323 178.551 28.1906 171.91 28.1906C171.618 28.1906 171.327 28.2488 171.036 28.2488C170.978 28.4819 170.919 28.6566 170.919 28.8896C170.919 43.8611 170.919 58.7743 170.919 73.7458C170.919 74.6779 171.327 74.8526 172.143 74.8526C175.055 74.7944 177.968 74.7944 180.881 74.8526C181.988 74.8526 182.162 74.3866 182.162 73.4545C182.104 69.2602 182.162 65.0658 182.162 60.8132C182.162 60.2889 182.221 59.7647 182.221 59.1239C185.075 59.1239 187.871 59.1239 190.609 59.1239C194.163 59.0656 197.716 58.6578 200.862 56.9102C206.979 53.4731 208.61 47.8807 208.144 41.3562C207.62 35.1229 203.95 30.579 197.833 29.0644ZM192.182 49.3953C188.92 49.7448 185.541 49.4536 182.162 49.4536C182.162 45.6088 182.162 41.7639 182.162 37.7444C185.425 37.7444 188.512 37.6279 191.6 37.8026C194.745 37.9774 196.493 40.0163 196.668 43.2786C196.784 46.5408 195.211 49.0458 192.182 49.3953Z" fill="white"/>
<path d="M247 38.0358C247 34.7153 247 31.5113 247 28.3073C235.873 28.3073 224.863 28.3073 213.795 28.3073C213.795 43.8613 213.795 59.2405 213.795 74.8528C217.057 74.8528 220.261 74.7945 223.465 74.8528C224.572 74.8528 224.863 74.5615 224.863 73.4547C224.805 68.4448 224.863 63.4931 224.863 58.4832C224.863 57.9589 224.863 57.4346 224.863 56.7938C226.378 56.7938 227.776 56.7938 229.116 56.7938C233.776 56.7938 238.437 56.7938 243.097 56.7356C243.505 56.7356 244.32 56.2695 244.32 56.0365C244.437 53.1238 244.379 50.2693 244.379 47.1818C237.854 47.1818 231.446 47.1818 224.98 47.1818C224.98 44.036 224.98 41.065 224.98 37.9193C232.32 38.0358 239.66 38.0358 247 38.0358Z" fill="white"/>
</svg>
