<svg width="92" height="32" viewBox="0 0 92 32" fill="none" xmlns="http://www.w3.org/2000/svg">
<path d="M30.3757 6.87301C30.0721 6.85133 29.6819 7.04646 29.4434 7.28496C28.2075 8.43407 26.7982 9.23629 25.1504 9.51814C24.977 9.53982 24.6951 9.4531 24.565 9.32301C23.6111 8.30398 22.527 7.50177 21.2044 7.02478C20.8575 6.89469 20.8142 6.67788 20.7925 6.37434C20.6624 4.70487 20.9442 3.12212 21.7248 1.62611C22.1584 0.823894 22.0934 0.563717 21.4429 0C21.2261 0 21.0093 0 20.7925 0C20.5757 0.281858 20.3155 0.520354 20.142 0.823894C19.2531 2.51504 18.8628 4.33628 19.0146 6.24425C19.0146 6.30929 19.0146 6.37434 19.0146 6.52611C16.7164 6.50443 14.7867 7.24159 13.6159 9.34469C12.7487 9.17124 11.9031 8.95443 11.0358 8.82434C8.49912 8.41239 5.98407 8.47744 3.49071 9.25797C1.84292 9.75664 0.520354 10.6456 0 12.4235C0 12.8137 0 13.2257 0 13.6159C0.693805 16.2827 2.66681 17.7354 4.98673 18.8412C4.98673 18.9062 4.98673 18.9496 4.96504 18.9712C4.94336 19.058 4.9 19.1447 4.87832 19.2314C3.77257 22.115 4.22788 24.7385 6.20089 27.1018C6.48274 27.427 6.54779 27.7305 6.46106 28.1208C6.24425 29.1832 6.0708 30.2239 5.87566 31.373C6.93805 30.831 7.9354 30.354 8.91106 29.8553C9.23628 29.6819 9.49646 29.6602 9.86504 29.8336C11.9248 30.7659 14.0062 30.8743 16.0876 29.942C16.8248 29.6168 17.4969 29.1181 18.2341 28.7062C18.2991 28.7929 18.4075 28.9013 18.4942 29.0097C19.6867 30.3323 21.0743 31.373 22.8305 31.8283C25.2372 32.4571 27.1235 31.3296 27.6872 28.923C27.7956 28.446 27.8389 27.969 27.8606 27.4704C27.9257 25.3673 27.5137 23.3509 26.7115 21.4212C26.1912 20.1637 25.5407 18.9712 24.9553 17.692C26.7549 15.8058 26.8199 13.5942 25.8659 11.2093C26.1261 11.1226 26.3212 11.0792 26.5164 11.0142C28.1642 10.5155 29.6168 9.64823 30.8093 8.39071C31.0261 8.17389 31.1345 7.71859 31.0695 7.43673C31.0044 7.21991 30.6358 6.89469 30.3757 6.87301ZM11.9031 19.123C13.2257 18.6894 14.3965 18.0173 15.4805 17.1066C15.9575 17.4752 16.4128 17.8004 16.8031 18.104C16.5429 19.123 16.2827 20.0987 16.0659 21.096C16.0009 21.4212 16.0009 21.7681 15.9792 22.115C15.9575 22.4186 15.8274 22.5487 15.5022 22.5704C13.8544 22.5704 12.0982 21.2478 11.6646 19.665C11.5996 19.3832 11.5996 19.2097 11.9031 19.123ZM8.13053 17.7571C8.17389 16.131 8.67257 14.7867 10.0385 13.8327C10.1686 13.746 10.342 13.6376 10.4721 13.6593C12.0982 13.8327 13.7027 14.0062 15.3721 14.2013C14.5049 16.3478 10.6456 18.1907 8.13053 17.7571ZM6.74292 10.4071C9.43142 10.2119 12.0332 10.5805 14.5265 11.6212C15.5239 12.0332 15.8708 12.5535 15.8058 13.3341C15.8058 13.3774 15.7624 13.4425 15.7624 13.4642C14.5699 13.2907 13.3774 13.0956 12.185 12.9438C10.3637 12.727 8.54248 12.7704 6.74292 12.9872C6.46106 13.0305 6.09248 12.9438 5.85398 12.792C5.20354 12.4018 4.6615 11.6646 4.33628 10.7973C5.1385 10.6673 5.94071 10.4721 6.74292 10.4071ZM3.42566 11.2527C3.92434 11.9465 4.40133 12.6186 4.9 13.269C4.05443 13.5942 3.14381 13.9412 2.2115 14.3097C1.32257 13.0089 1.8646 11.6863 3.42566 11.2527ZM2.75354 15.0686C3.92434 14.3314 6.85133 13.6376 8.71593 13.6593C8.36903 14.2664 7.95708 14.8518 7.6969 15.4805C7.43673 16.131 7.35 16.8465 7.17655 17.5836C5.42035 17.2801 3.94602 16.4779 2.75354 15.0686ZM11.8597 28.5978C9.08451 27.8823 7.13319 26.1912 6.28761 23.3943C5.94071 22.2235 6.0708 21.0743 6.52611 19.9686C6.63451 19.7084 6.67788 19.4266 7.08982 19.4699C7.48009 19.5133 7.56681 19.7301 7.65354 20.0553C8.34735 23.1991 10.2987 25.2372 13.3341 26.1912C14.223 26.473 15.2204 26.473 16.1527 26.4947C16.673 26.4947 16.9549 26.6248 17.0633 27.1885C15.5889 28.5111 13.8327 29.1181 11.8597 28.5978ZM18.3858 25.3673C17.215 23.069 17.8438 19.058 19.6217 17.4969C20.4456 18.9496 21.1611 20.4239 21.5947 22.0283C21.7031 22.4186 21.3779 22.9823 21.1177 23.4159C20.4889 24.435 19.5133 25.0204 18.3858 25.3673ZM22.4836 29.8553C20.7058 29.0748 19.6 27.7956 18.7761 26.1478C20.142 25.6491 21.2695 24.8903 22.05 23.546C22.6571 25.6708 22.7655 27.7089 22.4836 29.8553ZM23.3292 30.1155C23.4159 29.1398 23.5027 28.1642 23.5677 27.2319C24.2832 27.4704 24.9987 27.6872 25.7142 27.9257C25.8226 27.969 25.9527 28.1425 25.931 28.2509C25.7575 30.0288 24.5217 30.4624 23.3292 30.1155ZM26.0394 26.5164C26.0394 26.6465 26.0611 26.7766 26.0611 26.885C26.0611 26.9283 26.0394 26.9934 26.0177 27.1668C25.4757 26.9934 24.977 26.8633 24.5 26.6465C23.8062 26.3429 23.3509 25.8876 23.2208 25.0204C22.8305 22.3535 21.8549 19.8602 20.5757 17.4752C20.4673 17.2801 20.3805 17.1066 20.2721 16.9115C20.8792 16.5212 21.4863 16.5212 21.9633 17.085C22.6354 17.8438 23.2858 18.6677 23.7845 19.535C25.0637 21.6814 25.8659 24.0013 26.0394 26.5164Z" fill="#BABABA"/>
<path d="M59.5155 19.3396C59.0601 19.0361 58.5181 18.8626 57.9544 18.6241C58.0628 18.5807 58.1929 18.5157 58.3013 18.4723C59.8624 17.8219 60.6429 16.6077 60.6862 14.9383C60.7296 13.2688 60.1225 11.9246 58.5832 11.1007C57.6075 10.5803 56.5451 10.4069 55.4393 10.4069C52.7942 10.3852 50.1274 10.4069 47.4823 10.4069C47.3305 10.4069 47.1787 10.4285 46.9836 10.4285C46.9836 10.667 46.9836 10.8622 46.9836 11.0573C46.9836 13.8108 46.9836 16.5644 46.9619 19.3179C46.9619 19.5564 46.9185 19.8383 46.7885 20.0334C45.5526 21.8546 43.9916 23.329 42.0185 24.3263C40.5876 25.0635 39.0916 25.4538 37.4655 25.0852C35.8827 24.7383 34.6035 23.394 34.4517 21.898C34.6252 21.8546 34.7986 21.833 34.9504 21.7896C36.1429 21.3777 37.3787 21.0524 38.4845 20.5104C40.1323 19.7082 41.5849 18.5807 42.4522 16.8896C43.3194 15.1984 42.7124 13.4423 40.9562 12.6617C39.677 12.098 38.3761 12.1847 37.1185 12.7051C33.5628 14.1577 31.373 18.0387 31.9367 21.833C32.4354 25.1069 34.9721 27.3834 38.2893 27.4485C40.7177 27.5135 42.8641 26.6462 44.7287 25.1719C45.5309 24.5431 46.2031 23.7626 46.9402 23.0471C46.9402 24.5648 46.9402 26.1042 46.9402 27.6653C47.1137 27.6869 47.2221 27.7086 47.3305 27.7086C50.1057 27.7086 52.8809 27.7303 55.6778 27.6869C56.5017 27.6653 57.3473 27.5569 58.1278 27.3184C59.9057 26.798 61.0332 25.5838 61.2716 23.7192C61.4885 21.9847 61.1199 20.3803 59.5155 19.3396ZM36.1862 16.044C37.0318 15.1551 37.9858 14.4396 39.2867 14.3529C39.5252 14.3312 39.807 14.3529 40.0455 14.4179C40.9778 14.6564 41.3247 15.3719 40.8694 16.2175C40.1756 17.54 39.0265 18.3639 37.769 19.0361C36.7066 19.6215 35.5792 20.0117 34.2566 20.1418C34.4084 18.4723 35.1022 17.1715 36.1862 16.044ZM51.0597 13.8542C52.4907 13.8542 53.8783 13.7892 55.2659 13.8759C56.0898 13.9192 56.5234 14.5914 56.5017 15.4369C56.4801 16.3259 55.9597 16.9763 55.0708 17.0197C53.7482 17.0847 52.4256 17.0414 51.0597 17.0414C51.0597 15.979 51.0597 14.9383 51.0597 13.8542ZM55.4177 24.2179C54.0734 24.3263 52.7292 24.283 51.3632 24.283C51.2548 24.283 51.0814 24.0661 51.0814 23.9577C51.0597 22.8086 51.0597 21.6595 51.0597 20.4454C52.534 20.4454 53.9216 20.402 55.2876 20.467C56.3066 20.5104 56.9354 21.2476 56.9787 22.2232C57.0221 23.329 56.4801 24.1312 55.4177 24.2179Z" fill="#BABABA"/>
<path d="M73.6301 10.7108C72.9146 10.5373 72.1775 10.4072 71.4403 10.4072C68.9469 10.3639 66.4536 10.3855 63.9819 10.3855C63.8735 10.3855 63.7651 10.4072 63.6567 10.4072C63.635 10.494 63.6133 10.559 63.6133 10.6457C63.6133 16.2178 63.6133 21.7683 63.6133 27.3404C63.6133 27.6873 63.7651 27.7524 64.0686 27.7524C65.1527 27.7307 66.2368 27.7307 67.3208 27.7524C67.7328 27.7524 67.7978 27.5789 67.7978 27.232C67.7761 25.671 67.7978 24.1099 67.7978 22.5271C67.7978 22.332 67.8195 22.1369 67.8195 21.8984C68.8819 21.8984 69.9226 21.8984 70.9416 21.8984C72.2642 21.8767 73.5867 21.7249 74.7575 21.0745C77.0341 19.7953 77.6412 17.7139 77.4677 15.2855C77.2726 12.9656 75.9067 11.2745 73.6301 10.7108ZM71.527 18.2776C70.3129 18.4077 69.0553 18.2993 67.7978 18.2993C67.7978 16.8683 67.7978 15.4373 67.7978 13.9413C69.012 13.9413 70.1611 13.8979 71.3102 13.963C72.481 14.028 73.1314 14.7869 73.1965 16.001C73.2398 17.2152 72.6544 18.1475 71.527 18.2776Z" fill="#BABABA"/>
<path d="M91.9293 14.0495C91.9293 12.8137 91.9293 11.6212 91.9293 10.4287C87.7882 10.4287 83.6904 10.4287 79.5709 10.4287C79.5709 16.2177 79.5709 21.9415 79.5709 27.7522C80.7851 27.7522 81.9776 27.7305 83.17 27.7522C83.582 27.7522 83.6904 27.6438 83.6904 27.2318C83.6687 25.3672 83.6904 23.5243 83.6904 21.6597C83.6904 21.4646 83.6904 21.2694 83.6904 21.0309C84.2541 21.0309 84.7745 21.0309 85.2731 21.0309C87.0076 21.0309 88.7422 21.0309 90.4767 21.0092C90.6284 21.0092 90.932 20.8358 90.932 20.7491C90.9753 19.665 90.9537 18.6026 90.9537 17.4535C88.5253 17.4535 86.1404 17.4535 83.7338 17.4535C83.7338 16.2827 83.7338 15.1769 83.7338 14.0061C86.4656 14.0495 89.1975 14.0495 91.9293 14.0495Z" fill="#BABABA"/>
</svg>
