<svg width="20" height="20" viewBox="0 0 20 20" fill="none" xmlns="http://www.w3.org/2000/svg">
<path d="M6.31382 0.153076C7.2723 0.153076 8.06343 0.92899 8.06343 1.90268V3.65229H6.31382C5.35534 3.65229 4.56421 2.87638 4.56421 1.90268C4.56421 0.92899 5.35534 0.153076 6.31382 0.153076Z" fill="#4385F5"/>
<path d="M1.73439 5.72095H6.32902C7.2875 5.72095 8.06341 6.49686 8.06341 7.45534C8.06341 8.41382 7.2875 9.18974 6.32902 9.18974H1.73439C0.775913 9.17452 0 8.39861 0 7.44013C0 6.49686 0.775913 5.72095 1.73439 5.72095Z" fill="#4385F5"/>
<path d="M0.258667 13.2809C0.258667 12.3224 1.03458 11.5312 2.00828 11.5312H3.75788V13.2809C3.75788 14.2393 2.98197 15.0305 2.00828 15.0305C1.04979 15.0153 0.258667 14.2393 0.258667 13.2809Z" fill="#4385F5"/>
<path d="M5.82715 17.8603V13.2656C5.82715 12.3072 6.60306 11.5312 7.56154 11.5312C8.52002 11.5312 9.29594 12.3072 9.29594 13.2656V17.8603C9.29594 18.8187 8.52002 19.5947 7.56154 19.5947C6.60306 19.5947 5.82715 18.8187 5.82715 17.8603Z" fill="#4385F5"/>
<path d="M13.4948 19.4448C12.5364 19.4448 11.7452 18.6689 11.7452 17.6952V15.9456H13.4948C14.4533 15.9456 15.2445 16.7215 15.2445 17.6952C15.2445 18.6536 14.4685 19.4448 13.4948 19.4448Z" fill="#4385F5"/>
<path d="M18.0743 13.875H13.4949C12.5364 13.875 11.7605 13.0991 11.7605 12.1406C11.7605 11.1822 12.5364 10.4062 13.4949 10.4062H18.0895C19.048 10.4062 19.8239 11.1822 19.8239 12.1406C19.8087 13.0991 19.0328 13.875 18.0743 13.875Z" fill="#4385F5"/>
<path d="M19.5499 6.31406C19.5499 7.27254 18.774 8.06367 17.8003 8.06367H16.0507V6.31406C16.0507 5.35558 16.8266 4.56445 17.8003 4.56445C18.7587 4.56445 19.5499 5.35558 19.5499 6.31406Z" fill="#4385F5"/>
<path d="M13.9816 1.73439V6.32902C13.9816 7.2875 13.2057 8.06341 12.2472 8.06341C11.2887 8.06341 10.5128 7.2875 10.5128 6.32902V1.73439C10.528 0.775913 11.3039 0 12.2472 0C13.2057 0 13.9816 0.775913 13.9816 1.73439Z" fill="#4385F5"/>
</svg>
