<svg width="22" height="18" viewBox="0 0 22 18" fill="none" xmlns="http://www.w3.org/2000/svg">
<path d="M21.8344 2.11717C21.0227 2.47824 20.1623 2.70801 19.2532 2.8393C20.1786 2.28129 20.8929 1.39503 21.2175 0.344655C20.3571 0.869845 19.3993 1.23091 18.3766 1.44427C17.5649 0.541601 16.3961 0 15.1299 0C12.6461 0 10.6493 2.03511 10.6493 4.52976C10.6493 4.89082 10.6818 5.23548 10.7468 5.56372C7.02922 5.36678 3.75 3.57785 1.54221 0.820608C1.1526 1.49351 0.925324 2.28129 0.925324 3.11831C0.925324 4.67747 1.72078 6.0725 2.90584 6.8767C2.19156 6.86028 1.47727 6.64693 0.876623 6.31868C0.876623 6.33509 0.876623 6.35151 0.876623 6.36792C0.876623 8.56715 2.43506 10.3889 4.46428 10.8156C4.10714 10.9141 3.7013 10.9633 3.29545 10.9633C3.00325 10.9633 2.72727 10.9469 2.4513 10.8813C3.03571 12.6702 4.67532 13.9832 6.62338 14.0324C5.0974 15.2305 3.16558 15.969 1.07143 15.969C0.698052 15.969 0.357143 15.9526 0 15.9034C1.98052 17.1999 4.33441 17.9385 6.86688 17.9385C15.0974 17.9385 19.5942 11.0454 19.5942 5.07136C19.5942 4.87441 19.5942 4.67747 19.5779 4.48052C20.487 3.84045 21.2338 3.03625 21.8344 2.11717Z" fill="#4385F5"/>
</svg>
