<svg xmlns="http://www.w3.org/2000/svg" fill="#f18900" viewBox="0 0 512 512">
    <path d="M442.5 82.1h-91.4v-66C351.1 8.3 344.8 2 337 2H56.2C26.3 2 2 26.3 2 56.2v386.3C2 479.7 32.3 510 69.5 510h373c37.2 0 67.5-30.3 67.5-67.5V149.6c0-37.2-30.3-67.5-67.5-67.5zM56.2 30.2h266.7v51.9H56.2c-14.3 0-26-11.6-26-25.9s11.7-26 26-26zm425.6 412.3c0 21.7-17.6 39.3-39.3 39.3h-373c-21.7 0-39.3-17.6-39.3-39.3V103.7c7.7 4.2 16.6 6.6 26 6.6h386.3c21.7 0 39.3 17.6 39.3 39.3v292.9z"/>
    <path d="M442.6 135.5H336c-7.2 0-14.1 6.2-14.1 14.1v91.7c0 7.8 6.3 14.1 14.1 14.1h106.6c7.8 0 14.1-6.3 14.1-14.1v-91.6c0-7.9-6.3-14.2-14.1-14.2zm-14.2 91.7H350v-63.4h78.4v63.4zM442.6 294.1h-373c-7.8 0-14.1 6.3-14.1 14.1s6.3 14.1 14.1 14.1h373c7.8 0 14.1-6.3 14.1-14.1s-6.3-14.1-14.1-14.1zM69.6 255.4h186.5c7.8 0 14.1-6.3 14.1-14.1s-6.3-14.1-14.1-14.1H69.6c-7.8 0-14.1 6.3-14.1 14.1s6.3 14.1 14.1 14.1zM442.6 361h-373c-7.8 0-14.1 6.3-14.1 14.1s6.3 14.1 14.1 14.1h373c7.8 0 14.1-6.3 14.1-14.1s-6.3-14.1-14.1-14.1zM442.6 427.9h-373c-7.8 0-14.1 6.3-14.1 14.1s6.3 14.1 14.1 14.1h373c7.8 0 14.1-6.3 14.1-14.1s-6.3-14.1-14.1-14.1zM70 161l26.2 34.4h12.3v-54.9H96.2v35.3l-27-35.3H57.8v54.9H70zM162.5 184.6h-28.2v-11.4h24.6v-10.5h-24.6v-11.3h27.3v-10.9H122v54.9h40.5zM194.7 195.4l12-38.2 12 38.2h9.1l19.2-54.9h-13.3l-10.9 31.6-9.7-31.6h-12.8l-9.8 31.6-10.8-31.6h-13.3l19.2 54.9zM272.9 185.2c-5 0-10.5-2.6-16.4-7.8l-7.3 9c7 6.4 14.8 9.7 23.5 9.7 11.9 0 20.1-6.9 20.1-16.6.4-9.5-6.1-14.5-16.5-17-7.5-2-11.9-3.3-12.1-7.2.4-3.1 2.1-5.3 6.6-5.3 5.1 0 10 1.8 14.8 5.4l6.2-9c-5.6-4.3-12.2-7.1-20.6-7.2-12.2.7-19.3 5.7-19.7 16.3 0 10 5.9 14.6 18.5 17.4 5.4 1.3 10.5 2.8 10.1 6.9.2 3.5-3.8 5.6-7.2 5.4z"/>
</svg>
