<svg width="134" height="48" viewBox="0 0 134 48" fill="none" xmlns="http://www.w3.org/2000/svg">
<g clip-path="url(#clip0_2180_28827)">
<path d="M23.0575 40.9707C29.4609 39.8572 34.7497 38.9358 34.8105 38.9231L34.9209 38.9001L28.8755 31.8218C25.5505 27.9288 22.8301 24.7285 22.8301 24.7101C22.8301 24.6751 29.0725 7.75408 29.1076 7.69388C29.1193 7.67375 33.3675 14.8932 39.4054 25.1943C45.0582 34.8384 49.7186 42.79 49.7619 42.8645L49.8407 43L30.6279 42.9976L11.415 42.9951L23.0575 40.9707ZM96.7365 37.3588C93.8119 37.1743 92.1109 35.535 91.6602 32.4667C91.5403 31.6505 91.5398 31.6293 91.5276 26.3305L91.5157 21.2021H92.81H94.1044L94.1146 26.1626C94.1238 30.6333 94.1295 31.1575 94.1729 31.472C94.3492 32.7484 94.7 33.6067 95.2973 34.2228C95.7754 34.7159 96.335 35.0046 97.1096 35.1578C97.4751 35.2301 98.5148 35.2302 98.848 35.1581C99.6333 34.988 100.263 34.6516 100.818 34.1052C101.451 33.4825 101.919 32.5989 102.146 31.5998L102.222 31.263L102.231 26.2606L102.239 21.2581H103.561H104.882V29.1221V36.9861H103.574H102.266V35.7384C102.266 34.8907 102.257 34.4938 102.237 34.5004C102.221 34.5057 102.153 34.6069 102.088 34.7252C101.637 35.5342 100.886 36.2741 100.063 36.7199C99.077 37.2542 98.0879 37.4441 96.7365 37.3588ZM126.421 37.3461C125.389 37.2697 124.302 36.9204 123.413 36.3794C121.541 35.2392 120.433 33.3597 120.108 30.7732C119.996 29.8782 119.982 28.676 120.076 27.9155C120.285 26.2161 120.964 24.5479 121.93 23.357C122.177 23.0517 122.739 22.4987 123.049 22.2549C123.887 21.5967 124.867 21.1364 125.907 20.9124C126.513 20.7819 127.58 20.7207 128.224 20.7794C129.841 20.927 131.324 21.6766 132.331 22.8564C133.355 24.0552 133.918 25.7302 133.989 27.7927C134.001 28.116 134.003 28.6827 133.995 29.0521L133.981 29.7238L128.316 29.7308L122.651 29.7379V29.9867C122.651 30.7442 122.838 31.607 123.162 32.3411C123.441 32.9741 123.921 33.6654 124.314 33.9999C125.12 34.6858 126.107 35.0963 127.186 35.1951C127.586 35.2318 128.606 35.1932 129.062 35.1242C130.364 34.9273 131.601 34.4249 132.6 33.6876C132.718 33.6008 132.83 33.5198 132.85 33.5074C132.879 33.4894 132.886 33.7161 132.886 34.6689L132.885 35.8526L132.617 36.0156C131.487 36.7037 130.192 37.1456 128.821 37.311C128.412 37.3603 126.91 37.3823 126.421 37.3461ZM131.351 27.3619C131.351 26.093 130.808 24.6835 130.039 23.9576C129.491 23.4396 128.827 23.1231 128.039 23.0029C127.666 22.946 126.88 22.9679 126.487 23.0461C125.655 23.2115 124.968 23.5712 124.368 24.1546C123.737 24.7685 123.263 25.5142 122.966 26.3638C122.859 26.6693 122.734 27.1709 122.695 27.4499L122.676 27.5828H127.014H131.351V27.3619ZM54.5082 36.9511C54.5148 36.9319 56.4385 31.9574 58.783 25.8968L63.0457 14.8775L64.4154 14.8774L65.785 14.8773L65.8986 15.1642C66.2459 16.0408 74.4323 36.9622 74.4323 36.9731C74.4323 36.9802 73.7767 36.986 72.9753 36.9859L71.5182 36.9856L70.3383 33.8934L69.1584 30.8013L64.4076 30.8012L59.6569 30.8011L59.6156 30.9061C59.5929 30.9638 59.0888 32.3552 58.4953 33.998L57.4164 36.985L55.9563 36.9855C54.8005 36.9859 54.4986 36.9788 54.5082 36.9511ZM68.2912 28.4415C68.2912 28.4366 67.4972 26.3177 66.5268 23.7329C64.7112 18.8971 64.6096 18.6061 64.4662 17.8298C64.3989 17.4657 64.3649 17.4556 64.325 17.7878C64.2964 18.0252 64.1727 18.5566 64.0773 18.8513C64.0299 18.9975 63.2123 21.2063 62.2604 23.7598C61.3084 26.3133 60.5296 28.4133 60.5296 28.4265C60.5296 28.4396 62.276 28.4504 64.4104 28.4504C66.5449 28.4504 68.2912 28.4464 68.2912 28.4415ZM75.3137 36.5834V36.1806L80.0469 29.7758L84.7801 23.371L80.4947 23.357L76.2093 23.343L76.2018 22.2725L76.1944 21.2021H82.3927H88.591V21.5636V21.9252L83.8572 28.3649C81.2536 31.9068 79.1235 34.8107 79.1235 34.8179C79.1235 34.8252 81.2281 34.8312 83.8004 34.8312H88.4773V35.9086V36.9861H81.8955H75.3137V36.5834ZM110.047 36.9674C110.036 36.9572 110.028 33.4058 110.028 29.0754V21.2021H111.322H112.615V22.8253C112.615 23.718 112.626 24.4484 112.64 24.4484C112.653 24.4484 112.716 24.3023 112.78 24.1237C113.07 23.3052 113.575 22.5405 114.225 21.9327C114.81 21.3852 115.479 21.0577 116.269 20.9324C116.49 20.8972 116.678 20.8905 117.121 20.9019C117.679 20.9161 117.97 20.9562 118.308 21.0652L118.415 21.0995V22.4213V23.743L118.109 23.5924C117.57 23.3264 117.037 23.2211 116.396 23.2539C115.98 23.2752 115.706 23.3279 115.373 23.451C114.687 23.7042 114.131 24.1513 113.743 24.7615C113.18 25.6448 112.779 26.7803 112.661 27.8239C112.64 28.0112 112.627 29.5364 112.622 32.5433L112.615 36.9861H111.34C110.639 36.9861 110.057 36.9777 110.047 36.9674ZM0 38.8121C0 38.8022 2.84857 33.9347 6.33016 27.9955L12.6603 17.1971L20.0374 11.1032C24.0948 7.7515 27.4254 5.00515 27.4387 5.00014C27.4521 4.99513 27.3987 5.12736 27.3201 5.29399C27.2415 5.46062 23.6368 13.0713 19.3097 22.2065L11.4421 38.8161L5.72104 38.8232C2.57447 38.8271 0 38.8221 0 38.8121Z" fill="#0089D6"/>
</g>
<defs>
<clipPath id="clip0_2180_28827">
<rect width="134" height="48" fill="white"/>
</clipPath>
</defs>
</svg>
