<svg xmlns="http://www.w3.org/2000/svg" width="384" height="202" fill="none" viewBox="0 0 384 202">
  <g clip-path="url(#a)">
    <path fill="#FAFAFA" d="M0 0h384v202H0z" />
    <path fill="#B3B3B3"
      d="M119.959 164.288c4.032 0 6.696-2.76 6.984-6.528h-2.088c-.12 2.808-2.016 4.704-4.896 4.704-3.504 0-5.64-2.736-5.64-6.648v-.672c0-3.912 2.112-6.648 5.64-6.648 2.616 0 4.488 1.608 4.896 4.44h2.064c-.384-3.816-3.072-6.264-6.936-6.264-4.68 0-7.776 3.456-7.776 8.472v.672c0 5.088 3.12 8.472 7.752 8.472Zm17.627 0c4.8 0 7.872-3.432 7.872-8.472v-.672c0-5.064-3.072-8.472-7.872-8.472s-7.896 3.408-7.896 8.472v.672c0 5.04 3.096 8.472 7.896 8.472Zm0-1.824c-3.624 0-5.784-2.64-5.784-6.648v-.672c0-4.008 2.16-6.648 5.784-6.648 3.624 0 5.784 2.64 5.784 6.648v.672c0 4.008-2.16 6.648-5.784 6.648Zm13.47 1.536v-14.352L160.104 164h2.328v-17.04h-2.016v14.064l-8.88-14.064h-2.496V164h2.016Zm17.577 0v-7.632h7.848v-1.776h-7.848v-5.856h8.616v-1.776h-10.632V164h2.016Zm23.303 0v-1.776h-9.288v-6.048h8.448V154.4h-8.448v-5.664h9.168v-1.776h-11.208V164h11.328Zm5.758 0v-6.912h3.648L205.71 164h2.352l-4.44-6.984c2.688-.336 4.392-1.968 4.392-4.776v-.432c0-3.144-2.16-4.848-5.472-4.848h-6.888V164h2.04Zm0-15.264h4.776c2.136 0 3.48.984 3.48 3.072v.432c0 2.088-1.344 3.072-3.48 3.072h-4.776v-6.576ZM222.521 164v-1.776h-9.288v-6.048h8.448V154.4h-8.448v-5.664h9.168v-1.776h-11.208V164h11.328Zm5.733 0v-14.352L237.302 164h2.328v-17.04h-2.016v14.064l-8.88-14.064h-2.496V164h2.016Zm22.69.288c4.032 0 6.696-2.76 6.984-6.528h-2.088c-.12 2.808-2.016 4.704-4.896 4.704-3.504 0-5.64-2.736-5.64-6.648v-.672c0-3.912 2.112-6.648 5.64-6.648 2.616 0 4.488 1.608 4.896 4.44h2.064c-.384-3.816-3.072-6.264-6.936-6.264-4.68 0-7.776 3.456-7.776 8.472v.672c0 5.088 3.12 8.472 7.752 8.472Zm21.683-.288v-1.776h-9.288v-6.048h8.448V154.4h-8.448v-5.664h9.168v-1.776h-11.208V164h11.328Z" />
    <g opacity=".8">
      <path stroke="#B3B3B3" stroke-linecap="square" stroke-linejoin="round" stroke-miterlimit="10" stroke-width="2"
        d="M192 61a11 11 0 0 1 0-22v0a11 11 0 0 1 0 22v0Z" />
      <path stroke="#B3B3B3" stroke-linecap="round" stroke-linejoin="round" stroke-miterlimit="10" stroke-width="2"
        d="M171 83v-6.89c0-2.68 1.106-5.252 3.075-7.149 1.97-1.896 4.64-2.961 7.425-2.961h2.625L192 73.844 199.875 66h2.625c2.785 0 5.455 1.065 7.425 2.961 1.969 1.897 3.075 4.468 3.075 7.15V83" />
      <path stroke="#B3B3B3" stroke-linecap="square" stroke-linejoin="round" stroke-miterlimit="10" stroke-width="2"
        d="M232.773 89h-81.546c-2.316 0-3.759 2.513-2.591 4.513l4.384 7.505a4 4 0 0 0 3.454 1.982h71.052a4 4 0 0 0 3.454-1.982l4.384-7.505c1.168-2-.275-4.513-2.591-4.513Z" />
      <path fill="#FAFAFA"
        d="M213.401 97a3 3 0 0 1 2.951 3.54l-3.513 19.181a4 4 0 0 1-3.935 3.279h-33.808a4 4 0 0 1-3.935-3.279l-3.513-19.181" />
      <path stroke="#B3B3B3" stroke-linecap="square" stroke-linejoin="round" stroke-miterlimit="10" stroke-width="2"
        d="m167.648 100.54 3.513 19.181a4 4 0 0 0 3.935 3.279h33.808a4 4 0 0 0 3.935-3.279l3.513-19.181a3 3 0 0 0-2.951-3.54h-42.802a3 3 0 0 0-2.951 3.54Z" />
    </g>
  </g>
  <defs>
    <clipPath id="a">
      <path fill="#fff" d="M0 4a4 4 0 0 1 4-4h376a4 4 0 0 1 4 4v198H0V4Z" />
    </clipPath>
  </defs>
</svg>
