<svg width="384" height="202" viewBox="0 0 384 202" fill="none" xmlns="http://www.w3.org/2000/svg">
<g clip-path="url(#clip0_13379_119191)">
<rect width="384" height="202" fill="#F6F6F6"/>
<path d="M121.141 157.032C120.709 158.208 119.845 159.744 117.421 159.744C114.013 159.744 112.861 156.624 112.861 153.672C112.861 150.528 114.133 147.648 117.325 147.648C119.701 147.648 120.709 148.944 121.141 150.408H124.261C123.805 147.624 121.669 145.152 117.445 145.152C112.189 145.152 109.645 149.232 109.645 153.768C109.645 158.496 112.141 162.216 117.301 162.216C121.309 162.216 123.565 160.032 124.261 157.032H121.141ZM135.04 145.152C129.928 145.152 127 148.896 127 153.696C127 158.448 129.712 162.24 134.824 162.24C140.152 162.24 142.864 158.232 142.864 153.624C142.864 148.608 139.84 145.152 135.04 145.152ZM134.896 147.72C138.184 147.72 139.624 150.384 139.624 153.672C139.624 156.84 138.352 159.672 134.944 159.672C131.776 159.672 130.216 156.984 130.216 153.624C130.216 150.288 131.632 147.72 134.896 147.72ZM149.435 162V156.408C149.435 153.408 149.411 150.216 149.291 148.608H149.315C150.227 150.504 154.859 158.64 156.803 162H160.499V145.392H157.643V150.864C157.643 153.576 157.643 156.36 157.811 158.232H157.787C156.971 156.432 152.675 149.184 150.491 145.392H146.555V162H149.435ZM165.129 162H168.177V155.088H175.881V152.496H168.177V147.984H176.409V145.392H165.129V162ZM190.689 152.064H182.649V147.984H191.049V145.392H179.601V162H191.121L191.505 159.432H182.649V154.632H190.689V152.064ZM200.537 155.136C203.321 155.136 203.849 156.048 203.849 158.04V158.328C203.849 160.008 203.873 161.28 204.161 162H207.137C206.897 161.256 206.897 159.912 206.897 158.784V158.016C206.897 155.064 205.673 154.152 204.665 153.84C206.009 153.36 207.233 152.112 207.233 149.928C207.233 147.336 205.337 145.392 201.785 145.392H194.753V162H197.825V155.136H200.537ZM197.825 147.912H201.161C203.105 147.912 204.065 148.752 204.065 150.24C204.065 151.8 203.201 152.616 201.041 152.616H197.825V147.912ZM222.164 152.064H214.124V147.984H222.524V145.392H211.076V162H222.596L222.98 159.432H214.124V154.632H222.164V152.064ZM229.108 162V156.408C229.108 153.408 229.084 150.216 228.964 148.608H228.988C229.9 150.504 234.532 158.64 236.476 162H240.172V145.392H237.316V150.864C237.316 153.576 237.316 156.36 237.484 158.232H237.46C236.644 156.432 232.348 149.184 230.164 145.392H226.228V162H229.108ZM255.388 157.032C254.956 158.208 254.092 159.744 251.668 159.744C248.26 159.744 247.108 156.624 247.108 153.672C247.108 150.528 248.38 147.648 251.572 147.648C253.948 147.648 254.956 148.944 255.388 150.408H258.508C258.052 147.624 255.916 145.152 251.692 145.152C246.436 145.152 243.892 149.232 243.892 153.768C243.892 158.496 246.388 162.216 251.548 162.216C255.556 162.216 257.812 160.032 258.508 157.032H255.388ZM273.011 152.064H264.971V147.984H273.371V145.392H261.923V162H273.443L273.827 159.432H264.971V154.632H273.011V152.064Z" fill="#C7C9D1"/>
<path d="M192 51C189.348 51 186.804 49.9464 184.929 48.0711C183.054 46.1957 182 43.6522 182 41C182 38.3478 183.054 35.8043 184.929 33.9289C186.804 32.0536 189.348 31 192 31V31C194.652 31 197.196 32.0536 199.071 33.9289C200.946 35.8043 202 38.3478 202 41C202 43.6522 200.946 46.1957 199.071 48.0711C197.196 49.9464 194.652 51 192 51V51Z" stroke="#C7C9D1" stroke-width="3" stroke-miterlimit="10" stroke-linecap="square" stroke-linejoin="round"/>
<path d="M172 80V65.9212C172 63.5552 173.054 61.286 174.929 59.613C176.804 57.9399 179.348 57 182 57H184.5L192 65.9212L199.5 57H202C204.652 57 207.196 57.9399 209.071 59.613C210.946 61.286 212 63.5552 212 65.9212V80" stroke="#C7C9D1" stroke-width="3" stroke-miterlimit="10" stroke-linecap="square" stroke-linejoin="round"/>
<path d="M226 80H158V94H226V80Z" stroke="#C7C9D1" stroke-width="3" stroke-miterlimit="10" stroke-linecap="square" stroke-linejoin="round"/>
<path d="M218 94V114H166V94" stroke="#C7C9D1" stroke-width="3" stroke-miterlimit="10" stroke-linecap="square" stroke-linejoin="round"/>
</g>
<defs>
<clipPath id="clip0_13379_119191">
<path d="M0 4C0 1.79086 1.79086 0 4 0H380C382.209 0 384 1.79086 384 4V202H0V4Z" fill="white"/>
</clipPath>
</defs>
</svg>
