<svg width="20" height="21" viewBox="0 0 20 21" fill="none" xmlns="http://www.w3.org/2000/svg">
<g clip-path="url(#clip0_3409_43329)">
<path fill-rule="evenodd" clip-rule="evenodd" d="M10 0.749512C4.5 0.749512 0 5.24951 0 10.7495C0 15.1662 2.83333 18.9162 6.83333 20.2495C7.33333 20.3328 7.5 19.9995 7.5 19.7495C7.5 19.4995 7.5 18.9162 7.5 18.0828C4.75 18.6662 4.16667 16.7495 4.16667 16.7495C3.75 15.5828 3.08333 15.2495 3.08333 15.2495C2.08333 14.6662 3.08333 14.6662 3.08333 14.6662C4.08333 14.7495 4.58333 15.6662 4.58333 15.6662C5.5 17.1662 6.91667 16.7495 7.5 16.4995C7.58333 15.8328 7.83333 15.4162 8.16667 15.1662C5.91667 14.9162 3.58333 14.0828 3.58333 10.2495C3.58333 9.16618 4 8.24951 4.58333 7.58284C4.58333 7.24951 4.16667 6.24951 4.75 4.91618C4.75 4.91618 5.58333 4.66618 7.5 5.91618C8.33333 5.66618 9.16667 5.58284 10 5.58284C10.8333 5.58284 11.6667 5.66618 12.5 5.91618C14.4167 4.58284 15.25 4.91618 15.25 4.91618C15.8333 6.33284 15.4167 7.33284 15.3333 7.58284C16 8.24951 16.3333 9.16618 16.3333 10.2495C16.3333 14.0828 14 14.9162 11.75 15.1662C12.0833 15.4995 12.4167 16.0828 12.4167 16.9995C12.4167 18.3328 12.4167 19.4162 12.4167 19.7495C12.4167 19.9995 12.5833 20.3328 13.0833 20.2495C17.0833 18.9162 19.9167 15.1662 19.9167 10.7495C20 5.24951 15.5 0.749512 10 0.749512Z" fill="#212121"/>
</g>
<defs>
<clipPath id="clip0_3409_43329">
<rect width="20" height="20" fill="white" transform="translate(0 0.5)"/>
</clipPath>
</defs>
</svg>
