<svg width="104" height="48" viewBox="0 0 104 48" fill="none" xmlns="http://www.w3.org/2000/svg">
<path d="M12.8085 9H13.7333C16.9441 9.06991 20.1024 10.3632 22.3709 12.6526C21.5333 13.509 20.6783 14.3304 19.8581 15.1867C18.5843 14.0333 17.0488 13.142 15.3736 12.8274C12.8958 12.3031 10.226 12.775 8.14947 14.1906C5.88102 15.6761 4.34546 18.1927 4.01391 20.8841C3.64747 23.5406 4.3978 26.3368 6.12531 28.3991C7.78302 30.4089 10.3132 31.6672 12.9307 31.7546C15.3736 31.8944 17.9212 31.1429 19.7011 29.4302C21.0971 28.2243 21.7427 26.3893 21.9521 24.6066C19.0555 24.6066 16.1588 24.6241 13.2622 24.6066V21.0065H25.4595C26.0876 24.8688 25.1803 29.2205 22.2487 31.9818C20.2944 33.9392 17.5897 35.0926 14.8327 35.3198C12.1629 35.582 9.40584 35.0752 7.03269 33.7819C4.18841 32.2614 1.91996 29.6923 0.803189 26.6689C-0.243786 23.8901 -0.261236 20.7443 0.715941 17.948C1.60587 15.3965 3.31593 13.142 5.51458 11.5691C7.62598 10.0136 10.1911 9.15729 12.8085 9Z" fill="#3780FF"/>
<path d="M82.7773 9.91016H86.5116V34.8668C85.2726 34.8668 84.0163 34.8843 82.7773 34.8493C82.7948 26.5479 82.7773 18.229 82.7773 9.91016Z" fill="#38B137"/>
<path d="M33.765 18.5613C36.0684 18.1244 38.5637 18.6137 40.4657 19.9944C42.1932 21.2177 43.3972 23.1402 43.7636 25.2374C44.2348 27.6666 43.6415 30.3231 42.071 32.2455C40.3784 34.3951 37.6039 35.5486 34.8992 35.3738C32.4214 35.234 30.0134 33.9932 28.5476 31.9659C26.8899 29.7289 26.4885 26.653 27.3959 24.0315C28.3033 21.2177 30.8684 19.0681 33.765 18.5613ZM34.2885 21.8818C33.3462 22.1265 32.4737 22.6683 31.8456 23.4373C30.153 25.4646 30.2576 28.7676 32.1248 30.6551C33.1892 31.7387 34.7945 32.2455 36.2778 31.9484C37.6563 31.7037 38.8603 30.7775 39.5234 29.5541C40.6751 27.4744 40.3435 24.6082 38.5811 22.9829C37.4469 21.9343 35.7892 21.4974 34.2885 21.8818Z" fill="#FA3913"/>
<path d="M52.2634 18.5587C54.8983 18.0518 57.7775 18.7859 59.7493 20.6384C62.96 23.522 63.309 28.9223 60.5694 32.2429C58.9117 34.3401 56.2245 35.4935 53.5722 35.3712C51.042 35.3013 48.5467 34.043 47.046 31.9632C45.3534 29.6738 44.987 26.528 45.9467 23.8541C46.9064 21.1277 49.4192 19.048 52.2634 18.5587ZM52.7869 21.8792C51.8446 22.1239 50.9722 22.6657 50.344 23.4172C48.6688 25.4095 48.7386 28.6602 50.5359 30.5651C51.6004 31.7011 53.2581 32.2603 54.7936 31.9458C56.1547 31.6836 57.3762 30.7748 58.0393 29.5515C59.1735 27.4543 58.8419 24.5881 57.0621 22.9628C55.9278 21.9142 54.2701 21.4947 52.7869 21.8792Z" fill="#FCBD06"/>
<path d="M67.9493 19.5728C69.956 18.3145 72.6258 17.965 74.7896 19.0486C75.4701 19.3457 76.0285 19.8525 76.5694 20.3593C76.5869 19.8874 76.5694 19.3981 76.5869 18.9087C77.756 18.9262 78.9251 18.9087 80.1117 18.9262V34.3406C80.0943 36.665 79.501 39.1292 77.8258 40.8244C75.9936 42.6944 73.1842 43.2712 70.654 42.8867C67.9493 42.4847 65.5936 40.5099 64.5467 38.0107C65.5936 37.5039 66.693 37.1019 67.7748 36.6301C68.3856 38.0631 69.6245 39.2865 71.1775 39.5661C72.7305 39.8458 74.5278 39.4613 75.5399 38.168C76.6218 36.8398 76.6218 35.0222 76.5694 33.3969C75.7668 34.1833 74.8419 34.8824 73.7252 35.1445C71.2997 35.8261 68.6299 34.9872 66.7628 33.3444C64.8782 31.7016 63.7614 29.1675 63.8661 26.6509C63.9185 23.8022 65.5239 21.0584 67.9493 19.5728ZM71.5614 21.8099C70.497 21.9846 69.5024 22.5788 68.8218 23.4002C67.1816 25.3576 67.1816 28.4859 68.8393 30.4084C69.7815 31.5443 71.2997 32.1735 72.7654 32.0162C74.1439 31.8764 75.4178 31.0026 76.0983 29.7967C77.25 27.7519 77.058 24.9731 75.505 23.1905C74.5453 22.0895 73.0097 21.5477 71.5614 21.8099Z" fill="#3780FF"/>
<path d="M91.0012 20.4633C93.0951 18.506 96.3233 17.8419 99.0106 18.873C101.558 19.8342 103.181 22.2634 104.001 24.7626C100.215 26.3355 96.4455 27.8909 92.6589 29.4638C93.1824 30.46 93.9851 31.3688 95.0669 31.7358C96.5851 32.2776 98.3998 32.0853 99.6736 31.0717C100.18 30.6872 100.581 30.1804 100.965 29.691C101.925 30.3377 102.884 30.9668 103.844 31.6134C102.483 33.6582 100.197 35.0913 97.7367 35.3185C95.0146 35.6506 92.118 34.602 90.3555 32.4698C87.4589 29.1143 87.7381 23.4868 91.0012 20.4633ZM92.8683 23.6965C92.275 24.5529 92.0307 25.6015 92.0482 26.6326C94.5784 25.584 97.1085 24.5354 99.6387 23.4693C99.2199 22.4906 98.2079 21.8964 97.1783 21.7391C95.5206 21.442 93.7931 22.3333 92.8683 23.6965Z" fill="#FA3913"/>
</svg>
