<svg width="1209" height="189" viewBox="0 0 1209 189" fill="none" xmlns="http://www.w3.org/2000/svg">
<g clip-path="url(#clip0_262_6171)">
<path fill-rule="evenodd" clip-rule="evenodd" d="M371.954 2.92066C372.916 3.41153 373.296 4.5851 372.804 5.5421C371.834 7.43135 371.308 10.1415 371.105 12.93C370.907 15.6793 371.039 18.2822 371.244 19.8146C371.311 20.3282 371.172 20.8477 370.856 21.2586C370.54 21.6696 370.074 21.9384 369.56 22.006C369.306 22.0395 369.047 22.0225 368.799 21.9561C368.551 21.8896 368.318 21.7751 368.115 21.6189C367.703 21.3034 367.434 20.8377 367.367 20.324C367.127 18.5214 366.989 15.6545 367.206 12.6495C367.42 9.67947 367.994 6.3506 369.324 3.76628C369.562 3.30715 369.972 2.96062 370.464 2.80222C370.957 2.64382 371.492 2.68639 371.954 2.92066Z" fill="#1A1A1A"/>
<path d="M360.61 33.7489C361.785 28.1945 349.851 27.287 343.738 27.5284C319.637 28.044 329.711 42.7599 343.055 44.3996C348.546 45.0761 359.142 40.6912 360.61 33.7489Z" fill="#CFEDFC"/>
<path d="M330.96 30.6157C331.637 30.0588 332.514 29.5556 333.617 29.1245L333.959 30.1991L335.708 32.4059L338.268 34.716L340.237 34.4272L350.072 33.4104L360.41 34.5118C360.086 35.543 359.559 36.5145 358.882 37.4158C355.821 36.8053 348.678 36.6238 344.797 36.6155C343.761 37.8324 343.383 41.9615 343.303 44.4283L343.055 44.4014C341.978 44.2696 340.913 44.053 339.87 43.7538C339.775 41.8254 340.441 39.0678 340.929 37.5354C337.888 37.7004 334.669 39.1957 332.896 40.2373C332.122 39.6263 331.417 38.9319 330.795 38.1665L334.738 36.0091C334.129 35.7018 332.205 32.6803 330.96 30.6157Z" fill="#00ACE6"/>
<path d="M358.566 40.4517L362.111 42.838L346.1 66.4268L342.252 63.8363L339.298 59.4968L337.818 52.3317L340.468 46.0369L346.826 47.9695L358.566 40.4517Z" fill="#FFE100"/>
<path fill-rule="evenodd" clip-rule="evenodd" d="M355.346 24.7709C360.094 14.5718 371.648 17.0716 377.104 20.7469L362.109 42.8384L360.389 41.6792C358.203 44.2037 353.742 46.1136 351.781 46.753C351.981 49.591 354.372 51.7772 355.54 52.5156L350.615 59.7756C344.863 55.9022 343.183 50.3644 343.063 48.0812L340.929 47.9657C337.161 56.4736 343.069 63.0674 346.715 65.5197L340.351 74.8958L341.457 66.093C334.283 59.9715 335.567 50.7192 337.105 46.8602C332.163 45.8826 323.588 38.7422 325.198 32.6702C328.006 22.1041 346.414 22.2794 355.344 24.7688M360.614 33.7118C361.729 28.1884 349.834 27.2871 343.734 27.5284C339.857 27.6109 336.864 28.0606 334.626 28.7659C335.621 31.8452 337.929 33.3777 339.052 33.7737C346.125 32.1732 355.309 32.9116 360.614 33.7118ZM360.168 35.17C356.469 34.6915 350.955 34.5698 348.096 34.576C344.211 37.216 343.713 41.671 344.044 44.4657C349.304 44.5564 357.832 40.9037 360.166 35.1721M342.268 44.2883C341.558 40.2396 343.843 36.4199 345.245 34.8627C338.051 35.137 333.518 37.1706 331.302 38.7649C333.672 41.3472 337.743 43.5561 342.268 44.2904M330.043 37.0964C331.821 36.0136 335.006 35.0194 336.74 34.5739C334.234 32.7074 333.14 30.7583 332.752 29.4981C328.834 31.375 328.388 34.312 330.043 37.0964ZM395.632 18.868C395.24 18.5287 394.73 18.3582 394.213 18.3938C393.696 18.4293 393.213 18.668 392.872 19.0577C391.474 20.6603 389.144 22.1556 386.623 23.3807C384.133 24.5894 381.66 25.4371 380.158 25.8186C379.909 25.8823 379.676 25.9941 379.472 26.1478C379.267 26.3014 379.094 26.4938 378.964 26.7141C378.834 26.9343 378.748 27.1781 378.712 27.4314C378.676 27.6847 378.69 27.9427 378.754 28.1905C378.817 28.4383 378.929 28.6712 379.083 28.8758C379.237 29.0804 379.43 29.2527 379.65 29.383C379.87 29.5132 380.114 29.5988 380.368 29.6348C380.622 29.6709 380.88 29.6566 381.128 29.593C382.895 29.1413 385.618 28.2008 388.337 26.8808C391.024 25.5773 393.91 23.8056 395.824 21.6152C395.993 21.4228 396.122 21.1987 396.204 20.9561C396.286 20.7135 396.319 20.4571 396.301 20.2016C396.283 19.9462 396.215 19.6969 396.1 19.4679C395.985 19.239 395.826 19.0351 395.632 18.868Z" fill="#1A1A1A"/>
<path d="M371.138 40.8376C375.876 37.682 381.167 48.374 383.221 54.1139C391.722 76.5828 374.258 72.7548 367.757 61.0336C365.082 56.2094 365.218 44.7811 371.138 40.8376Z" fill="#CFEDFC"/>
<path d="M385.11 67.0725C385.376 66.2413 385.517 65.243 385.508 64.0633L384.379 64.1458L381.673 63.3517L378.564 61.8461L378.101 59.9197L375.383 50.4529L370.505 41.3057C369.662 41.9925 368.956 42.8402 368.37 43.8013C370.077 46.4 372.91 52.9382 374.361 56.5207C373.618 57.9315 369.908 59.8207 367.639 60.8128L367.757 61.0335C368.287 61.9905 368.892 62.8939 369.549 63.7354C371.38 63.1042 373.702 61.4584 374.947 60.4395C375.926 63.3125 375.732 66.8435 375.422 68.871C376.334 69.3825 377.251 69.7785 378.134 70.0425L378.675 65.5937C379.191 66.0412 382.721 66.6909 385.11 67.0725Z" fill="#00ACE6"/>
<path d="M365.653 45.2221L362.111 42.8379L346.1 66.4267L349.946 69.0172L355.09 70.1309L362.317 68.8274L367.195 64.0342L363.025 58.8759L365.653 45.2221Z" fill="#FFE100"/>
<path fill-rule="evenodd" clip-rule="evenodd" d="M381.466 42.3575C389.197 34.1693 382.562 24.4199 377.106 20.7466L362.111 42.838L363.831 43.9971C362.295 46.9568 362.179 51.7934 362.311 53.8435C359.594 54.716 356.665 53.3217 355.54 52.5153L350.615 59.7753C356.366 63.6466 362.15 63.1371 364.324 62.3946L365.228 64.3251C358.705 70.9788 350.361 67.9758 346.715 65.5214L340.353 74.8955L348.139 70.5931C356.519 74.9408 364.658 70.3085 367.683 67.4478C370.434 71.6511 380.283 76.9167 385.337 73.1671C394.135 66.6351 387.112 49.6855 381.466 42.3575ZM371.167 40.8188C375.897 37.7292 381.171 48.3882 383.221 54.1158C384.588 57.7313 385.285 60.6663 385.461 62.9948C382.22 63.2217 379.933 61.6604 379.144 60.7715C378.002 53.6373 373.89 45.4244 371.167 40.8188ZM369.974 41.7738C371.799 45.016 373.969 50.065 375.028 52.7112C374.016 57.2858 370.052 59.4061 367.323 60.1424C365.28 55.3141 365.505 46.072 369.976 41.7758M368.153 61.7161C372.191 60.8643 374.9 57.3291 375.826 55.4523C378.252 62.2028 378.048 67.1508 377.387 69.7928C374.097 68.5656 370.523 65.6266 368.153 61.7161ZM379.412 70.3353C379.759 68.2893 379.499 64.9728 379.268 63.2052C381.941 64.8263 384.164 65.111 385.481 64.9996C385.195 69.3205 382.622 70.8261 379.412 70.3353ZM432.947 47.623V26.5401H443.172C451.155 26.5401 453.81 26.6185 455.271 26.897C456.303 27.095 457.736 27.524 458.456 27.8519C459.179 28.1819 460.319 28.9656 460.992 29.5906C461.667 30.2196 462.488 31.2921 462.821 31.9769C463.153 32.6616 463.537 33.9321 463.673 34.7984C463.842 35.8442 463.842 36.9103 463.673 37.9561C463.501 38.9374 463.212 39.8945 462.81 40.8065C462.37 41.637 461.795 42.3884 461.107 43.0298C460.508 43.5537 459.443 44.257 458.741 44.5911L457.466 45.1996L458.196 45.3852C458.601 45.4883 459.394 45.7668 459.959 46.004C460.525 46.2453 461.501 46.9115 462.127 47.4869C462.752 48.0623 463.516 48.9245 463.822 49.405C464.127 49.8856 464.55 50.8611 464.763 51.5748C464.98 52.3028 465.151 53.7548 465.151 54.8871C465.151 56.2773 464.992 57.3828 464.639 58.4532C464.358 59.305 463.727 60.5281 463.235 61.1716C462.587 61.9622 461.837 62.6634 461.004 63.2568C460.101 63.8416 459.133 64.3192 458.12 64.6799C457.274 64.9563 455.571 65.2883 454.338 65.4183C453.108 65.5461 447.79 65.6555 442.524 65.6575L432.947 65.6616L432.927 54.6066L432.278 55.4564C431.923 55.9225 430.858 57.0775 429.913 58.0221C428.965 58.9647 427.491 60.2084 426.634 60.7859C425.778 61.3634 424.186 62.2503 423.096 62.7576C422.008 63.2671 420.293 63.9168 419.285 64.2014C418.22 64.5066 416.379 64.781 414.872 64.8614C412.919 64.9645 411.829 64.8965 410.419 64.583C409.193 64.2861 408.001 63.8652 406.86 63.3269C405.931 62.8649 404.618 61.9904 403.943 61.3881C403.268 60.7818 402.203 59.5195 401.577 58.5831C400.952 57.6468 400.178 56.1246 399.856 55.2006C399.471 54.0019 399.19 52.7722 399.017 51.5253C398.879 50.4239 398.836 48.8069 398.92 47.9324C399.005 47.0579 399.288 45.544 399.548 44.5685C399.808 43.5929 400.308 42.2234 400.661 41.5304C401.012 40.8374 401.747 39.6123 402.292 38.812C402.837 38.0076 404.067 36.5886 405.023 35.6523C405.981 34.7159 407.382 33.5836 408.14 33.136C408.895 32.6885 410.204 32.0326 411.046 31.6778C412.403 31.1086 414.246 30.9147 415.344 30.9147C416.443 30.9147 418.282 31.0838 419.494 31.7191C420.214 32.0986 421.284 32.9009 421.874 33.5052C422.628 34.2786 423.061 34.9985 423.336 35.9431C423.608 36.8712 423.676 37.6838 423.563 38.5893C423.474 39.307 423.057 40.5775 422.638 41.4128C422.157 42.3719 421.197 43.6156 420.033 44.7891C418.805 45.9849 417.474 47.0693 416.055 48.0293C414.88 48.7904 413.235 49.7206 412.395 50.098C411.554 50.4755 409.992 51.0591 408.918 51.3974C407.845 51.7315 406.445 52.0842 405.807 52.1811C405.021 52.2966 404.649 52.4699 404.649 52.7153C404.649 52.9154 404.977 53.7631 405.378 54.5984C405.778 55.4358 406.557 56.5825 407.108 57.1476C407.659 57.7128 408.821 58.5068 409.69 58.9131C410.954 59.501 411.707 59.6763 413.416 59.7711C414.925 59.8578 416.106 59.7711 417.407 59.4824C418.422 59.2596 420.22 58.6058 421.403 58.0304C422.836 57.303 424.209 56.4623 425.507 55.5162C426.759 54.548 427.947 53.5008 429.064 52.3812C430.036 51.3615 430.953 50.2902 431.81 49.172L432.947 47.623ZM453.863 35.9905C453.493 35.4756 453.014 35.0482 452.46 34.7386C451.737 34.3776 450.893 34.3137 446.793 34.3137H441.975V41.6046H446.681C451.074 41.6046 451.456 41.5675 452.474 41.056C453.182 40.7013 453.713 40.2125 453.989 39.6597C454.25 39.077 454.395 38.4495 454.417 37.8117C454.417 37.1806 454.216 36.5123 453.863 35.9905ZM419.147 36.7949C418.85 36.4233 418.481 36.116 418.061 35.8915C417.65 35.6811 416.703 35.5285 415.79 35.5285C414.482 35.5285 413.932 35.6729 412.425 36.4175C411.117 37.0651 410.124 37.8117 408.792 39.1565C407.529 40.4352 406.641 41.617 405.919 42.9927C405.341 44.0858 404.715 45.7193 404.525 46.6227C404.335 47.5261 404.236 48.3222 404.304 48.3903C404.372 48.4583 405.277 48.3387 406.315 48.1221C407.617 47.8277 408.893 47.4311 410.132 46.9362C411.193 46.4948 413.022 45.4945 414.197 44.7128C415.371 43.9311 416.833 42.7205 417.448 42.0213C418.061 41.3241 418.782 40.3094 419.046 39.7649C419.312 39.2225 419.529 38.4531 419.529 38.0571C419.529 37.6611 419.358 37.0919 419.147 36.7949ZM454.84 51.0571C454.536 50.6033 453.799 49.9846 453.201 49.6855C452.181 49.1699 451.813 49.139 447.167 49.139H442.216V57.9273L447.278 57.8448C451.844 57.7726 452.437 57.7148 453.316 57.257C453.941 56.9106 454.465 56.4082 454.838 55.7988C455.236 55.1037 455.383 54.4478 455.387 53.365C455.389 52.2265 455.263 51.6903 454.84 51.0571ZM470.395 65.5379L470.271 26.5381H479.633C486.928 26.5381 489.471 26.6206 491.16 26.9093C492.473 27.1362 494.027 27.6106 495.101 28.1159C496.106 28.5882 497.434 29.4771 498.171 30.1701C498.885 30.8425 499.752 31.913 500.097 32.5503C500.441 33.1876 500.908 34.4065 501.131 35.2666C501.381 36.2318 501.531 37.756 501.525 39.274C501.521 40.6683 501.356 42.3306 501.143 43.1309C500.937 43.9023 500.536 44.9954 500.251 45.5605C499.852 46.3089 499.402 47.029 498.903 47.7158C498.449 48.3366 497.339 49.3431 496.434 49.9495C495.53 50.558 494.133 51.2695 493.328 51.5335C492.523 51.7975 491.005 52.1316 489.954 52.276C488.904 52.4204 486.191 52.538 483.922 52.538H479.796L479.666 65.5379H470.395ZM491.193 36.6711C490.857 36.071 490.264 35.4955 489.667 35.1861C488.803 34.7365 488.187 34.588 484.238 34.522L479.787 34.5261V44.519H483.751C485.933 44.519 488.132 44.4014 488.637 44.2611C489.143 44.1209 489.942 43.6733 490.407 43.265C490.999 42.7493 491.375 42.1161 491.649 41.1756C491.901 40.3094 491.988 39.439 491.891 38.7398C491.768 38.0181 491.532 37.3201 491.193 36.6711Z" fill="#1A1A1A"/>
<path d="M507.568 46.3422L507.629 65.5379H516.898L517.028 50.6013L533.246 50.4734L533.38 42.574H517.022V34.7984H535.562V26.5381H507.559C507.551 29.9165 507.543 38.9564 507.568 46.3422Z" fill="#1A1A1A"/>
<path d="M733.743 16.5H558.272C553.712 16.5 550.015 20.1937 550.015 24.75V68.0625C550.015 72.6189 553.712 76.3125 558.272 76.3125H733.743C738.303 76.3125 742 72.6189 742 68.0625V24.75C742 20.1937 738.303 16.5 733.743 16.5Z" fill="#EF6911"/>
<path d="M583.608 37.946C583.458 36.5393 582.824 35.4441 581.707 34.6604C580.598 33.8766 579.157 33.4848 577.384 33.4848C576.137 33.4848 575.067 33.6725 574.174 34.0478C573.282 34.4246 572.6 34.9347 572.126 35.5782C571.654 36.2245 571.412 36.9601 571.4 37.7851C571.4 38.474 571.556 39.07 571.868 39.5733C572.19 40.0793 572.626 40.509 573.175 40.8623C573.723 41.2061 574.33 41.4962 574.998 41.7327C575.664 41.9692 576.335 42.1686 577.012 42.3308L580.109 43.1022C581.356 43.3923 582.555 43.7842 583.705 44.2778C584.867 44.7728 585.904 45.3964 586.818 46.1485C587.736 46.889 588.484 47.8173 589.013 48.871C589.549 49.9353 589.818 51.1817 589.818 52.6103C589.818 54.5436 589.324 56.2458 588.335 57.7171C587.345 59.1787 585.914 60.3227 584.044 61.1491C582.184 61.9658 579.932 62.3742 577.287 62.3742C574.716 62.3742 572.485 61.9768 570.594 61.1821C568.712 60.3873 567.238 59.2275 566.175 57.7026C565.122 56.1764 564.552 54.3174 564.465 52.1256H570.353C570.438 53.2765 570.793 54.2328 571.416 54.9946C572.041 55.7577 572.853 56.327 573.852 56.7023C574.939 57.0905 576.086 57.2819 577.24 57.2675C578.54 57.2675 579.68 57.0736 580.658 56.6858C581.648 56.2898 582.422 55.7419 582.981 55.042C583.541 54.3353 583.826 53.5082 583.835 52.5608C583.824 51.7015 583.572 50.9933 583.078 50.4365C582.582 49.8658 581.889 49.3928 580.997 49.0175C579.993 48.5926 578.958 48.2478 577.9 47.9862L574.143 47.0168C571.422 46.3197 569.272 45.2623 567.692 43.8447C566.122 42.4147 565.336 40.5186 565.336 38.1563C565.336 36.2121 565.864 34.5092 566.918 33.0475C567.982 31.5873 569.427 30.4543 571.255 29.6485C573.083 28.8318 575.152 28.4234 577.465 28.4234C579.808 28.4234 581.862 28.8318 583.625 29.6485C585.4 30.4529 586.793 31.5756 587.803 33.0166C588.813 34.4466 589.334 36.0897 589.366 37.946H583.608ZM610.23 51.4656V37.1251H616.068V61.8751H610.408V57.4758H610.15C609.593 58.8606 608.632 60.0458 607.392 60.8768C606.123 61.7568 604.558 62.1968 602.697 62.1968C601.073 62.1968 599.638 61.8373 598.391 61.1181C597.155 60.3894 596.188 59.3307 595.488 57.9419C594.791 56.5476 594.441 54.8619 594.44 52.8846V37.1251H600.278V51.9813C600.278 53.5488 600.708 54.7952 601.568 55.7206C602.428 56.6446 603.557 57.1066 604.956 57.1066C605.816 57.1066 606.649 56.8969 607.456 56.4775C608.275 56.047 608.961 55.4008 609.439 54.6089C609.966 53.7701 610.23 52.7224 610.23 51.4656ZM621.617 61.8751V37.1251H627.197V41.3326H627.488C628.004 39.9136 628.859 38.8067 630.052 38.012C631.245 37.2076 632.67 36.8047 634.325 36.8033C636.004 36.8033 637.418 37.211 638.567 38.0264C639.728 38.8335 640.544 39.9349 641.018 41.3305H641.276C641.821 39.9639 642.794 38.8104 644.05 38.0429C645.362 37.2179 646.916 36.8047 648.712 36.8033C650.991 36.8033 652.851 37.5232 654.292 38.9628C655.733 40.4024 656.453 42.502 656.453 45.2616V61.8751H650.599V46.165C650.599 44.6278 650.19 43.5051 649.372 42.797C648.555 42.0778 647.555 41.7183 646.373 41.7183C644.965 41.7183 643.863 42.1583 643.068 43.0383C642.282 43.9086 641.889 45.0423 641.889 46.4393V61.8751H636.165V45.9237C636.165 44.645 635.777 43.624 635.002 42.8609C634.24 42.0991 633.24 41.7183 632.003 41.7183C631.163 41.7183 630.4 41.9328 629.713 42.3618C629.013 42.7974 628.444 43.4156 628.068 44.15C627.659 44.9131 627.455 45.8048 627.455 46.825V61.8751H621.617ZM661.922 61.8751V37.1251H667.501V41.3326H667.793C668.309 39.9136 669.163 38.8067 670.356 38.012C671.55 37.2076 672.974 36.8047 674.63 36.8033C676.309 36.8033 677.723 37.211 678.872 38.0264C680.034 38.8335 680.851 39.9349 681.324 41.3305H681.582C682.124 39.9626 683.098 38.8085 684.355 38.0429C685.666 37.2179 687.22 36.8047 689.016 36.8033C691.295 36.8033 693.155 37.5232 694.596 38.9628C696.037 40.4024 696.758 42.502 696.758 45.2616V61.8751H690.903V46.165C690.903 44.6278 690.494 43.5051 689.677 42.797C688.861 42.0778 687.861 41.7183 686.677 41.7183C685.269 41.7183 684.168 42.1583 683.372 43.0383C682.588 43.9086 682.195 45.0423 682.194 46.4393V61.8751H676.469V45.9237C676.469 44.645 676.082 43.624 675.309 42.8609C674.545 42.0991 673.545 41.7183 672.307 41.7183C671.468 41.7183 670.705 41.9328 670.018 42.3618C669.317 42.7974 668.748 43.4156 668.373 44.15C667.964 44.9131 667.76 45.8048 667.76 46.825V61.8751H661.922ZM702.226 61.8751V37.1251H708.064V61.8751H702.226ZM705.162 33.6127C704.277 33.628 703.421 33.2988 702.775 32.6948C702.459 32.4141 702.206 32.069 702.033 31.6827C701.861 31.2965 701.773 30.8779 701.776 30.455C701.776 29.5722 702.109 28.8256 702.775 28.2151C703.416 27.6013 704.274 27.2655 705.162 27.2808C706.097 27.2808 706.893 27.5922 707.548 28.2151C708.215 28.827 708.549 29.5736 708.549 30.455C708.549 31.3253 708.215 32.072 707.548 32.6948C706.904 33.3026 706.047 33.6324 705.162 33.6127ZM725.985 37.1251V41.6378H711.743V37.1251H725.985ZM715.258 31.1954H721.098V54.4315C721.098 55.2153 721.216 55.8168 721.451 56.2362C721.699 56.6446 722.022 56.9237 722.42 57.0736C722.817 57.2235 723.258 57.2991 723.743 57.3005C724.108 57.3005 724.441 57.273 724.742 57.218C725.054 57.163 725.291 57.1148 725.452 57.0736L726.437 61.6317C726.124 61.7403 725.678 61.8593 725.097 61.9885C724.407 62.1315 723.704 62.2075 723 62.2154C721.538 62.2567 720.221 62.036 719.048 61.5533C717.911 61.086 716.939 60.2885 716.26 59.264C715.582 58.2327 715.249 56.9436 715.258 55.3968V31.1954Z" fill="white"/>
<path d="M684.667 91.375H685.581L686.039 92.1381L685.581 92.9054H684.667L684.208 92.1402L684.667 91.375Z" fill="#0101D7"/>
</g>
<path d="M0 186.994V119.683C0 119.683 0.408652 118.623 1.08987 118.623H7.22089C7.22089 118.623 8.31076 119.153 8.31076 119.683V125.381C11.0356 120.876 16.3492 117.563 23.7063 117.563C35.0146 117.563 41.9629 125.116 41.9629 137.836V150.689C41.9629 163.276 35.0145 170.696 23.5701 170.696C16.4854 170.696 11.4444 167.781 8.44703 163.144V187.127C8.44703 187.127 7.90203 188.187 7.35706 188.187H1.08987C1.08987 188.187 0 187.789 0 187.127V186.994ZM21.6627 163.011C28.6111 163.011 33.3796 158.771 33.3796 150.556V137.704C33.3796 129.224 28.7473 124.983 21.6627 124.983C13.8968 124.983 8.58331 130.019 8.58331 137.836V150.424C8.58331 158.639 14.578 163.011 21.6627 163.011ZM55.3148 150.689V137.836C55.3148 125.116 63.0807 117.696 76.4325 117.696C89.7844 117.696 97.5503 125.116 97.5503 137.836V150.689C97.5503 163.276 89.7844 170.696 76.4325 170.696C63.0807 170.696 55.3148 163.409 55.3148 150.689ZM76.4325 163.144C84.4709 163.144 88.967 158.639 88.967 150.689V137.836C88.967 129.754 84.4709 125.248 76.4325 125.248C68.3942 125.248 63.8982 129.754 63.8982 137.836V150.689C63.8982 158.639 68.3942 163.144 76.4325 163.144ZM120.303 168.576L107.36 119.816C107.224 119.021 107.632 118.623 108.45 118.623H115.262C115.262 118.623 116.352 118.888 116.488 119.551L122.347 143.799C123.573 149.364 124.799 155.061 126.025 161.554C127.796 153.074 126.843 154.796 130.249 143.799L137.47 119.551C137.47 119.551 138.151 118.623 138.832 118.623H145.236C145.236 118.623 146.326 119.021 146.598 119.551L153.41 143.931C155.045 150.026 155.318 152.411 157.361 161.554H157.498C158.587 155.856 158.179 156.519 161.312 143.799L167.171 119.551C167.171 119.551 167.716 118.623 168.397 118.623H174.8C175.618 118.623 175.89 119.021 175.754 119.816L162.675 168.576C162.675 168.576 161.994 169.504 161.312 169.504H153.274C153.274 169.504 152.184 169.106 151.911 168.576L146.189 148.966C144.691 143.931 142.783 137.306 141.557 130.151H141.421C140.058 136.511 138.423 142.739 136.652 148.966L131.066 168.576C131.066 168.576 130.385 169.504 129.704 169.504H121.393C121.393 169.504 120.303 169.239 120.031 168.576H120.303ZM185.986 150.689V137.836C185.986 125.116 193.479 117.696 206.559 117.696C219.638 117.696 227.132 125.116 227.132 137.836V145.786C227.132 145.786 226.587 146.846 226.042 146.846H194.433V150.689C194.433 158.904 199.338 163.541 207.376 163.541C213.235 163.541 217.05 161.156 218.957 156.651C219.229 155.989 219.774 155.724 220.456 155.989L225.905 157.711C226.723 157.976 226.859 158.374 226.723 159.036C223.998 166.589 217.458 170.696 207.376 170.696C194.297 170.696 186.122 163.409 186.122 150.689H185.986ZM218.957 140.884V137.306C218.957 129.489 214.597 124.719 206.695 124.719C198.793 124.719 194.297 129.489 194.297 137.306V140.884H218.957ZM241.165 168.431V119.67C241.165 119.67 241.573 118.61 242.255 118.61H248.386C248.386 118.61 249.475 119.14 249.475 119.67V126.958C252.473 121.923 257.514 117.815 265.825 117.815C266.642 117.815 266.915 118.345 266.915 118.875V124.705C266.915 124.705 266.506 125.765 265.825 125.765C257.786 125.765 252.473 128.945 249.748 135.173V168.166C249.748 168.166 249.203 169.226 248.658 169.226H242.391C242.391 169.226 241.301 168.696 241.301 168.166L241.165 168.431ZM274.544 150.689V137.836C274.544 125.116 282.038 117.696 295.117 117.696C308.196 117.696 315.69 125.116 315.69 137.836V145.786C315.69 145.786 315.145 146.846 314.6 146.846H282.991V150.689C282.991 158.904 287.896 163.541 295.935 163.541C301.793 163.541 305.608 161.156 307.515 156.651C307.788 155.989 308.333 155.724 309.014 155.989L314.464 157.711C315.281 157.976 315.417 158.374 315.281 159.036C312.556 166.589 306.017 170.696 295.935 170.696C282.855 170.696 274.681 163.409 274.681 150.689H274.544ZM307.515 140.884V137.306C307.515 129.489 303.155 124.719 295.253 124.719C287.351 124.719 282.855 129.489 282.855 137.306V140.884H307.515ZM328.347 150.278V137.425C328.347 124.838 335.295 117.418 346.604 117.418C353.688 117.418 358.729 120.333 361.727 124.705V100.06C361.727 100.06 362.271 99 362.816 99H369.22C369.22 99 370.31 99.3975 370.31 100.06V168.298C370.31 168.298 369.765 169.358 369.22 169.358H363.089C363.089 169.358 361.999 168.828 361.999 168.298V162.203C359.274 166.973 354.097 170.418 346.604 170.418C335.295 170.418 328.347 162.866 328.347 150.146V150.278ZM348.783 162.998C356.549 162.998 361.727 157.963 361.727 150.146V137.558C361.727 129.343 355.732 124.97 348.783 124.97C341.835 124.97 336.93 129.078 336.93 137.425V150.278C336.93 158.758 341.699 162.998 348.783 162.998ZM421.265 162.733V168.431C421.265 168.431 420.72 169.491 420.175 169.491H414.044C414.044 169.491 412.954 168.961 412.954 168.431V100.193C412.954 100.193 413.363 99.1325 414.044 99.1325H420.311C420.311 99.1325 421.401 99.53 421.401 100.193V125.103C424.399 120.465 430.257 117.55 436.661 117.55C447.969 117.55 454.917 125.103 454.917 137.823V150.676C454.917 163.263 447.969 170.683 436.524 170.683C429.303 170.683 424.262 167.503 421.265 162.733ZM434.481 163.131C441.429 163.131 446.198 158.891 446.198 150.676V137.823C446.198 129.343 441.565 125.103 434.481 125.103C426.715 125.103 421.401 130.138 421.401 137.955V150.543C421.401 158.758 427.396 163.131 434.481 163.131ZM469.495 182.887C475.626 178.779 479.032 175.599 481.621 167.251L462.956 119.948C462.683 119.153 462.956 118.623 463.909 118.623H470.858C470.858 118.623 471.948 119.021 472.084 119.551L480.259 141.679C482.302 147.111 484.21 152.676 485.845 158.639C487.616 152.544 489.25 147.906 491.43 141.679L499.196 119.551C499.196 119.551 499.741 118.623 500.422 118.623H506.962C507.78 118.623 508.188 119.153 507.916 119.948L489.659 168.974C486.389 177.454 481.893 184.344 474.536 188.717C473.991 189.114 473.446 189.114 473.038 188.584L469.086 184.477C469.086 184.477 468.542 183.284 469.223 182.887H469.495Z" fill="#333333"/>
<path d="M554 172.367V108.469H562.099V172.367H554ZM636.488 121.868C634.993 120.179 632.683 118.649 629.558 117.28C626.255 115.848 622.701 115.143 619.121 115.211C614.202 115.211 610.573 116.14 608.236 117.997C607.098 118.886 606.186 120.047 605.575 121.38C604.964 122.713 604.674 124.179 604.73 125.654C604.73 127.934 605.328 129.735 606.523 131.058C607.728 132.372 609.558 133.451 612.014 134.295C614.541 135.14 617.721 136.008 621.553 136.899C625.993 137.866 629.834 139.039 633.077 140.418C636.312 141.797 638.798 143.655 640.538 145.991C642.277 148.271 643.147 151.335 643.147 155.182C643.147 159.263 642.128 162.622 640.09 165.259C638.051 167.905 635.261 169.857 631.718 171.114C628.239 172.381 624.312 173.009 619.936 173C609.971 173 601.301 169.997 593.926 163.992L597.799 157.152C599.113 158.475 600.884 159.798 603.112 161.121C605.377 162.435 607.955 163.542 610.845 164.443C613.78 165.287 616.87 165.709 620.113 165.709C624.679 165.709 628.217 164.898 630.726 163.275C631.926 162.518 632.909 161.444 633.573 160.162C634.237 158.88 634.559 157.438 634.504 155.984C634.548 154.921 634.381 153.86 634.011 152.867C633.642 151.874 633.079 150.971 632.357 150.214C630.578 148.543 628.454 147.315 626.147 146.625C622.832 145.496 619.467 144.533 616.063 143.739C612.354 142.86 608.715 141.688 605.178 140.235C602.56 139.167 600.262 137.4 598.519 135.112C597.079 133.001 596.359 130.27 596.359 126.92C596.359 122.83 597.35 119.377 599.335 116.562C601.31 113.747 604.037 111.617 607.515 110.172C611.271 108.67 615.272 107.934 619.298 108.005C626.882 107.911 634.273 110.481 640.266 115.295L636.488 121.868ZM701.31 172.817C696.807 172.817 692.726 171.916 689.066 170.115C685.466 168.337 682.228 165.862 679.526 162.824C676.915 159.739 674.846 156.205 673.411 152.381C671.997 148.562 671.265 144.508 671.25 140.418C671.25 136.158 672.002 132.105 673.506 128.258C675.064 124.354 677.193 120.906 679.893 117.913C682.603 114.869 685.874 112.418 689.514 110.707C693.175 108.905 697.165 108.005 701.487 108.005C705.98 108.005 710.057 108.938 713.717 110.805C717.377 112.663 720.53 115.15 723.176 118.265C725.812 121.399 727.85 124.88 729.291 128.708C730.731 132.555 731.452 136.486 731.452 140.502C731.456 148.898 728.364 156.978 722.809 163.092C720.115 166.096 716.873 168.517 713.269 170.213C709.511 171.965 705.431 172.854 701.31 172.817ZM679.445 140.418C679.445 143.655 679.952 146.803 680.967 149.862C682.054 152.864 683.553 155.538 685.465 157.884C687.394 160.22 689.705 162.078 692.395 163.458C695.086 164.837 698.085 165.526 701.392 165.526C704.816 165.526 707.878 164.809 710.578 163.373C713.224 161.971 715.554 160.004 717.414 157.603C719.334 155.21 720.775 152.512 721.735 149.51C723.783 143.536 723.749 137.009 721.64 131.058C720.66 128.106 719.132 125.381 717.142 123.036C715.25 120.679 712.885 118.777 710.211 117.463C707.475 116.049 704.449 115.339 701.392 115.394C697.985 115.394 694.928 116.111 692.219 117.547C689.536 118.89 687.17 120.826 685.288 123.219C683.422 125.621 681.981 128.323 680.967 131.326C679.954 134.242 679.439 137.319 679.445 140.418ZM763.631 108.469L784.777 162.205L805.827 108.455H814.375L788.46 172.367H781.08L755.084 108.469H763.631ZM858.826 108.469H865.675L891.767 172.367H882.553L875.568 153.648L862.25 117.828L841.282 172.367H832.653L858.826 108.469ZM921.881 172.367V108.469H929.981V165.175H965.612V172.367H921.881ZM1039.39 165.175V172.367H996.026V108.469H1038.57V115.661H1004.12V136.364H1034.08V143.12H1004.12V165.175H1039.39ZM1080.19 123.402V172.381H1072.1V108.455H1078.93L1117.98 158.419V108.553H1126.08V172.367H1118.7L1080.19 123.402ZM1209 115.661H1186.94V172.381H1178.86V115.661H1156.8V108.455H1209V115.661Z" fill="#0A0B0F"/>
<defs>
<clipPath id="clip0_262_6171">
<rect width="417" height="99" fill="white" transform="translate(325)"/>
</clipPath>
</defs>
</svg>
