<svg width="148" height="48" viewBox="0 0 148 48" fill="none" xmlns="http://www.w3.org/2000/svg">
<path fill-rule="evenodd" clip-rule="evenodd" d="M26.3625 9H8.7875L0 23.7414L8.7875 38.4828H26.3625L35.15 23.7414L26.3625 9ZM21.8439 16.5808H13.3061L9.03817 23.7414L13.3061 30.902H21.8439L26.1118 23.7414L21.8439 16.5808Z" fill="#0078FB"/>
<path d="M15.0133 19.4399H20.1082L22.6557 23.7131L20.1082 27.9863H15.0133L12.4668 23.7131L15.0133 19.4399Z" fill="#737373"/>
<path d="M20.1115 27.9887L17.5964 23.7156L15.0166 27.9887H20.1115Z" fill="#464646"/>
<path d="M20.1115 19.4399H15.0166L17.5974 23.7131L20.1115 19.4399Z" fill="#C7C7C7"/>
<path d="M20.1082 19.4399L17.5941 23.714H22.6686L20.1082 19.4409V19.4399ZM17.5941 23.714L15.0133 19.4409L12.4668 23.714H17.5941Z" fill="#989898"/>
<path d="M26.3614 38.4828L35.1489 23.7415H26.1116L21.8428 30.9021L26.3614 38.4828Z" fill="#0058FB"/>
<path d="M26.3605 38.4827L30.88 30.9028H21.8428L26.3595 38.4827H26.3605Z" fill="#0078FB"/>
<path d="M30.8985 16.5824H21.8428L26.1098 23.7412L30.8976 16.5806L30.8985 16.5824Z" fill="#4CBAFB"/>
<path d="M30.8963 16.5903L26.1094 23.7417H35.1466L30.8963 16.5922V16.5903Z" fill="#9DDAFB"/>
<path d="M17.5742 38.4827L21.8431 30.9028L26.3617 38.4827H17.5742Z" fill="#0069E4"/>
<path d="M0 23.7415H9.03725L4.26887 30.9021H13.3061L17.7054 38.4828H8.7875L4.26887 30.9021L0 23.7415Z" fill="#0101D7"/>
<path fill-rule="evenodd" clip-rule="evenodd" d="M9.03725 23.7436L4.28645 16.582L0 23.7436H9.03725L13.3061 30.9042H4.28553L9.03725 23.7417V23.7436Z" fill="#0035FB"/>
<path d="M21.8405 16.5808L17.7021 9L13.3037 16.5808H21.8415H21.8405Z" fill="#0027FB"/>
<path d="M26.3614 9L21.8428 16.5808H30.8985L26.3623 9H26.3614Z" fill="#37A0FB"/>
<path d="M94.6531 24.5203H95.5707L96.0305 25.285L95.5707 26.0497H94.6531L94.1943 25.285L94.6531 24.5203Z" fill="#0101D7"/>
<path d="M48.0996 28.5649V19.2013H49.3336V28.5649H48.0996ZM60.6667 21.1665C60.4382 20.9196 60.0867 20.6957 59.6112 20.4939C59.1072 20.2858 58.5658 20.1823 58.0202 20.1899C57.271 20.1899 56.7188 20.3263 56.3626 20.599C56.0056 20.8717 55.828 21.2448 55.828 21.7202C55.828 22.0538 55.9186 22.3182 56.1018 22.5117C56.2849 22.7052 56.5634 22.8627 56.938 22.9862C57.3219 23.1096 57.8066 23.2368 58.3912 23.3685C59.0673 23.5095 59.6529 23.6808 60.1459 23.8826C60.6398 24.0853 61.0182 24.358 61.2836 24.7008C61.5491 25.0352 61.6814 25.4839 61.6814 26.0459C61.6814 26.6448 61.526 27.1359 61.2152 27.5228C60.9044 27.9098 60.4789 28.1954 59.9405 28.3797C59.4105 28.5649 58.812 28.6579 58.1442 28.6579C56.6272 28.6579 55.3063 28.2175 54.1824 27.3386L54.7726 26.3361C54.9733 26.5296 55.2425 26.7231 55.581 26.9166C55.9279 27.1101 56.321 27.2722 56.7595 27.4049C57.2081 27.5274 57.678 27.5892 58.1719 27.5892C58.8657 27.5892 59.4059 27.4703 59.7898 27.2335C60.1727 26.9866 60.3651 26.631 60.3651 26.1648C60.3651 25.8128 60.255 25.5318 60.0358 25.3208C59.8258 25.1089 59.5104 24.9339 59.0905 24.7929C58.5854 24.6288 58.073 24.488 57.555 24.3709C56.9898 24.2418 56.4353 24.07 55.8964 23.8568C55.4487 23.6633 55.1102 23.4127 54.8817 23.105C54.6625 22.7973 54.5533 22.3974 54.5533 21.9045C54.5533 21.3066 54.7041 20.8017 55.0057 20.388C55.3063 19.9743 55.7225 19.6629 56.2526 19.4519C56.7826 19.24 57.3811 19.135 58.048 19.135C58.6973 19.135 59.2875 19.2317 59.8166 19.4252C60.3559 19.6187 60.8313 19.8776 61.242 20.2037L60.6667 21.1656V21.1665ZM70.542 28.6312C69.8565 28.6312 69.2349 28.4994 68.6772 28.235C68.1277 27.9766 67.6343 27.6136 67.2249 27.1663C66.8262 26.7151 66.5106 26.1973 66.2925 25.6368C66.0753 25.0773 65.9637 24.4826 65.9632 23.8826C65.9632 23.2589 66.0779 22.6655 66.3055 22.1026C66.5432 21.5314 66.8679 21.0246 67.2795 20.5861C67.6938 20.1416 68.192 19.7828 68.7456 19.5302C69.3158 19.2638 69.939 19.1287 70.5688 19.135C71.2551 19.135 71.8758 19.2713 72.4336 19.544C72.9819 19.8096 73.4712 20.1818 73.8729 20.6386C74.2753 21.0956 74.5851 21.606 74.8053 22.168C75.248 23.3013 75.243 24.5596 74.7914 25.6894C74.564 26.2508 74.2341 26.7653 73.8183 27.2068C73.4075 27.6458 72.9136 27.9996 72.3651 28.2479C71.7927 28.5064 71.1705 28.6372 70.542 28.6312ZM67.211 23.8826C67.211 24.358 67.2878 24.8196 67.4432 25.2683C67.6079 25.7078 67.8363 26.0984 68.1296 26.4421C68.4207 26.784 68.7798 27.0622 69.1841 27.2593C69.5957 27.462 70.0536 27.5634 70.5558 27.5634C71.0766 27.5634 71.5428 27.4574 71.9535 27.2464C72.3651 27.0345 72.712 26.7535 72.996 26.4025C73.2877 26.0511 73.5104 25.6482 73.6527 25.2149C73.8091 24.7754 73.8868 24.3313 73.8868 23.8826C73.8868 23.4081 73.8035 22.9511 73.6398 22.5117C73.4891 22.0802 73.2564 21.6817 72.9544 21.3379C72.6679 20.9905 72.3074 20.711 71.8989 20.5197C71.4817 20.3138 71.0214 20.2096 70.5558 20.2157C70.0341 20.2157 69.5689 20.3217 69.1572 20.5326C68.7456 20.7353 68.3941 21.0117 68.1018 21.3637C67.8161 21.7194 67.5934 22.121 67.4432 22.5513C67.2878 22.9816 67.211 23.4266 67.211 23.8826ZM80.0371 19.2013L83.2589 27.0751L86.4668 19.2013H87.7692L83.8203 28.5649H82.6965L78.7356 19.2013H80.038H80.0371ZM94.542 19.2013H95.5836L99.5592 28.5649H98.156L97.0913 25.822L95.0628 20.5723L91.8688 28.5649H90.5525L94.542 19.2013ZM104.147 28.5649V19.2013H105.381V27.5099H110.81V28.5649H104.147ZM122.051 27.5099V28.5649H115.443V19.2013H121.927V20.2562H116.676V23.2893H121.241V24.2788H116.676V27.5099H122.051ZM128.267 21.3904V28.5649H127.033V19.2013H128.075L134.024 26.5213V19.2142H135.258V28.5658H134.134L128.267 21.3904ZM147.89 20.2562H144.532V28.5649H143.298V20.2562H139.939V19.2013H147.89V20.2562Z" fill="#0A0B0F"/>
</svg>
