<svg width="106" height="37" viewBox="0 0 106 37" fill="none" xmlns="http://www.w3.org/2000/svg">
<path fill-rule="evenodd" clip-rule="evenodd" d="M23.6364 0.106928C24.1204 0.35135 24.312 0.936445 24.0643 1.41377C23.5753 2.35627 23.3107 3.70811 23.2095 5.09761C23.1097 6.46905 23.1762 7.76694 23.2784 8.53081C23.3496 9.06248 22.9704 9.55029 22.4314 9.62036C21.8924 9.69043 21.3977 9.31623 21.3266 8.78455C21.2063 7.88621 21.1367 6.45642 21.2458 4.95796C21.3536 3.47756 21.643 1.81727 22.3116 0.52864C22.5593 0.0513118 23.1524 -0.137495 23.6364 0.106928Z" fill="#1A1A1A"/>
<path d="M17.9279 15.4786C18.5189 12.7085 12.5117 12.2564 9.43416 12.3767C-2.69837 12.6341 2.37299 19.9723 9.09016 20.7904C11.8545 21.1271 17.1891 18.9412 17.9279 15.4786Z" fill="#CFEDFC"/>
<path d="M3.00152 13.9149C3.34206 13.6378 3.78418 13.387 4.33873 13.1719L4.51164 13.7078L5.39178 14.8076L6.68105 15.9606L7.67155 15.8156L12.6226 15.3092L17.8271 15.8584C17.6634 16.3734 17.3984 16.8575 17.0577 17.3061C15.5173 17.0017 11.9211 16.9114 9.96784 16.9078C9.44518 17.5136 9.25598 19.5736 9.2151 20.8038C9.17288 20.7999 9.1312 20.7954 9.09009 20.7904C8.54185 20.7236 8.00457 20.6134 7.48672 20.4672C7.43882 19.5053 7.77515 18.1299 8.01989 17.3664C6.48879 17.4486 4.86925 18.1947 3.97602 18.7145C3.56434 18.3884 3.20739 18.0402 2.91797 17.6812L4.90253 16.6055C4.59621 16.4519 3.62819 14.9452 3.00152 13.9149Z" fill="#00ACE6"/>
<path d="M16.8986 18.8203L18.6824 20.0102L10.6222 31.7738L8.6855 30.4819L7.19797 28.3177L6.45312 24.7445L7.78699 21.6056L10.9884 22.569L16.8986 18.8203Z" fill="#FFE100"/>
<path fill-rule="evenodd" clip-rule="evenodd" d="M15.2758 11.0042C17.6669 5.91806 23.4834 7.16509 26.2304 8.9974L18.6815 20.0147L17.8151 19.4368C16.7151 20.6954 14.4682 21.6481 13.4823 21.9671C13.5824 23.3816 14.7857 24.4723 15.3748 24.8408L12.8947 28.4604C9.99982 26.5294 9.15423 23.7679 9.09329 22.6286L8.01879 22.5711C6.12164 26.8139 9.09654 30.102 10.9313 31.3259L7.72792 36.0012L8.28497 31.6116C4.67388 28.5583 5.31993 23.9449 6.09434 22.0199C3.60654 21.5324 -0.711164 17.9714 0.0999613 14.9451C1.51225 9.67571 10.7796 9.76306 15.2758 11.0042ZM17.9296 15.4647C18.4917 12.7102 12.5033 12.2603 9.43223 12.3803C7.47994 12.4217 5.97311 12.6465 4.84693 12.9979C5.34811 14.5336 6.51025 15.2973 7.07462 15.4955C10.6354 14.6967 15.2589 15.0652 17.9296 15.4647ZM17.705 16.192C15.8425 15.9533 13.0673 15.8918 11.6275 15.8954C9.67225 17.2123 9.42147 19.4331 9.58782 20.8273C12.2362 20.8722 16.5283 19.0513 17.705 16.192ZM8.69484 20.7384C8.33755 18.7188 9.48762 16.8132 10.1934 16.0376C6.57245 16.1739 4.28978 17.1876 3.17462 17.9833C4.36787 19.2712 6.41676 20.3721 8.69484 20.7384ZM2.5405 17.15C3.43562 16.6104 5.0393 16.1139 5.9119 15.8919C4.65035 14.9612 4.0995 13.9896 3.90472 13.3608C1.93141 14.2966 1.70772 15.7616 2.5405 17.15Z" fill="#1A1A1A"/>
<path fill-rule="evenodd" clip-rule="evenodd" d="M35.5569 8.05483C35.1467 7.70286 34.5251 7.74552 34.1684 8.15012C33.4642 8.949 32.2913 9.69496 31.0222 10.3054C29.7695 10.9078 28.5241 11.3307 27.7675 11.5217C27.241 11.6546 26.9235 12.1836 27.0584 12.7031C27.1933 13.2226 27.7295 13.536 28.2561 13.403C29.1458 13.1784 30.5165 12.7093 31.8852 12.051C33.2373 11.4007 34.691 10.517 35.6539 9.42473C36.0105 9.02013 35.9671 8.40681 35.5569 8.05483Z" fill="#1A1A1A"/>
<path d="M23.2275 19.0151C25.6125 17.4417 28.2763 22.7735 29.31 25.6361C33.5891 36.8406 24.7976 34.9318 21.525 29.0864C20.1782 26.6809 20.2462 20.9819 23.2275 19.0151Z" fill="#CFEDFC"/>
<path d="M30.2594 32.1C30.3931 31.6849 30.4642 31.1867 30.4599 30.5988L29.8914 30.6402L28.529 30.2441L26.9642 29.4933L26.7315 28.5324L25.3628 23.8105L22.9067 19.25C22.4834 19.5918 22.1269 20.0148 21.8319 20.4939C22.6923 21.7909 24.1172 25.0499 24.8486 26.8369C24.4735 27.5412 22.6066 28.4821 21.4648 28.978C21.4842 29.0152 21.504 29.0517 21.524 29.0875C21.7911 29.5645 22.095 30.0154 22.4255 30.435C23.348 30.1205 24.5163 29.3 25.1431 28.7914C25.6364 30.2239 25.5382 31.9847 25.3822 32.9963C25.8423 33.2517 26.3028 33.4488 26.7483 33.58L27.0205 31.3621C27.2791 31.5853 29.0569 31.9101 30.2594 32.1Z" fill="#00ACE6"/>
<path d="M20.4651 21.1977L18.6813 20.0078L10.6211 31.7714L12.5578 33.0633L15.1476 33.6187L18.7858 32.9692L21.241 30.5782L19.1418 28.006L20.4651 21.1977Z" fill="#FFE100"/>
<path fill-rule="evenodd" clip-rule="evenodd" d="M28.4238 19.774C32.3164 15.6893 28.976 10.8284 26.229 8.99609L18.6802 20.0134L19.5466 20.5914C18.7728 22.0675 18.7141 24.4798 18.7815 25.5013C17.4137 25.9368 15.9396 25.2416 15.3734 24.8395L12.8934 28.4591C15.7882 30.3901 18.7006 30.1352 19.7949 29.7664L20.2493 30.7288C16.9659 34.0469 12.7648 32.5484 10.93 31.3246L7.72656 35.9999L11.6474 33.8541C15.8647 36.0226 19.9629 33.7119 21.4849 32.2854C22.8704 34.3816 27.8286 37.0079 30.3727 35.1375C34.8023 31.8808 31.2666 23.4281 28.4238 19.774ZM23.2397 19.0063C25.6209 17.4652 28.2757 22.7805 29.3072 25.6371C29.9958 27.44 30.3459 28.9034 30.435 30.0655C28.8039 30.1789 27.6526 29.3995 27.2559 28.9566C26.6802 25.3987 24.6107 21.3028 23.2397 19.0063ZM22.6394 19.483C23.5579 21.0993 24.65 23.6173 25.1831 24.9371C24.6731 27.218 22.6779 28.2752 21.3047 28.6424C20.2756 26.2343 20.3887 21.6258 22.6394 19.483ZM21.721 29.4269C23.7537 29.0014 25.1173 27.2383 25.5838 26.3031C26.8049 29.6692 26.7022 32.137 26.3694 33.4545C24.7134 32.8419 22.9145 31.3762 21.721 29.4269ZM27.3894 33.7246C27.5634 32.7039 27.4327 31.0506 27.3164 30.1689C28.6618 30.9771 29.7809 31.1194 30.4448 31.0635C30.3001 33.2189 29.0055 33.9697 27.3894 33.7246Z" fill="#1A1A1A"/>
<path fill-rule="evenodd" clip-rule="evenodd" d="M54.343 22.3982V11.8828H59.4902C63.5089 11.8828 64.8444 11.9218 65.5809 12.0609C66.1 12.1589 66.8215 12.3732 67.1843 12.5371C67.5474 12.7011 68.1218 13.0913 68.4608 13.4043C68.7999 13.7171 69.2142 14.2526 69.3814 14.5941C69.5486 14.9357 69.7418 15.5685 69.8106 16.0006C69.8953 16.5332 69.8954 17.0405 69.8107 17.5759C69.742 18.0102 69.5465 18.6499 69.3762 18.9974C69.2058 19.3449 68.8197 19.8435 68.5182 20.1055C68.2166 20.3675 67.6808 20.7181 67.3276 20.8845L66.6855 21.1874L67.0539 21.2799C67.2566 21.3309 67.6555 21.4704 67.9406 21.5899C68.2256 21.7095 68.7169 22.0416 69.0324 22.3281C69.3479 22.6146 69.7318 23.045 69.8854 23.2848C70.0392 23.5245 70.2524 24.0115 70.3595 24.3671C70.4688 24.7301 70.554 25.4542 70.554 26.019C70.554 26.7125 70.4743 27.2641 70.2969 27.7972C70.1555 28.2223 69.8377 28.8323 69.5907 29.1528C69.3437 29.4734 68.8378 29.9414 68.4662 30.1928C68.0947 30.4443 67.4416 30.7632 67.015 30.9016C66.5883 31.0398 65.7318 31.2058 65.1114 31.2703C64.4911 31.3348 61.8145 31.3884 59.1633 31.3896L54.343 31.3917L54.3314 25.8783L54.0063 26.3024C53.8273 26.5357 53.2911 27.1114 52.8146 27.5817C52.3381 28.0521 51.5955 28.6724 51.1645 28.9603C50.7335 29.248 49.9321 29.6909 49.3838 29.9443C48.8353 30.1978 47.9721 30.5219 47.4655 30.6647C46.9289 30.8159 46.0014 30.9527 45.2431 30.9925C44.2602 31.0441 43.7114 31.0103 43.0013 30.8543C42.4841 30.7409 41.6782 30.459 41.2105 30.2281C40.7425 29.9971 40.0817 29.5615 39.7418 29.2599C39.4018 28.9584 38.866 28.3292 38.551 27.8616C38.236 27.3941 37.8457 26.6355 37.6837 26.1758C37.5217 25.7162 37.332 24.891 37.2622 24.342C37.1924 23.7929 37.1705 22.9871 37.2133 22.5512C37.2563 22.1152 37.3983 21.3599 37.5291 20.8728C37.6597 20.3857 37.9118 19.7041 38.0892 19.3581C38.2665 19.0122 38.6359 18.4019 38.9103 18.0021C39.1846 17.6022 39.8033 16.8933 40.2853 16.4268C40.7672 15.9603 41.4731 15.3956 41.8538 15.1721C42.2346 14.9485 42.8931 14.6213 43.3171 14.445C44.0002 14.1611 44.9285 14.0639 45.4811 14.0639C46.0338 14.0639 46.9597 14.1489 47.5707 14.4662C47.9324 14.6543 48.4711 15.0545 48.7678 15.3556C49.1476 15.7412 49.3656 16.1012 49.5042 16.5717C49.6408 17.0355 49.6759 17.4397 49.6188 17.8913C49.5734 18.2493 49.3638 18.8829 49.153 19.2992C48.9109 19.7771 48.4274 20.3978 47.8412 20.9831C47.3307 21.4928 46.4294 22.22 45.8384 22.599C45.2476 22.978 44.4187 23.4421 43.9963 23.6304C43.574 23.8186 42.7865 24.1099 42.2461 24.2776C41.7057 24.4452 41.0012 24.6213 40.6802 24.6686C40.2837 24.7272 40.0969 24.8126 40.0969 24.9357C40.0969 25.0352 40.262 25.458 40.4638 25.875C40.6656 26.2923 41.0574 26.8642 41.3347 27.146C41.6119 27.4279 42.1971 27.8239 42.6351 28.0261C43.2706 28.3195 43.6496 28.4061 44.5106 28.4546C45.2705 28.4974 45.8646 28.455 46.5192 28.3113C47.0304 28.1991 47.936 27.8728 48.5317 27.5864C49.1275 27.2999 50.0569 26.736 50.5972 26.333C51.1376 25.9301 51.9437 25.2267 52.3882 24.77C52.8329 24.3133 53.4547 23.5928 53.7698 23.1689L54.343 22.3982ZM64.8715 16.5962C64.7183 16.3697 64.4004 16.0891 64.1654 15.9726C63.8017 15.7923 63.3766 15.7607 61.3125 15.7606L58.887 15.7604V19.3956H61.2558C63.4681 19.3956 63.6608 19.3775 64.1725 19.1229C64.5292 18.9455 64.7956 18.7022 64.9352 18.4262C65.0533 18.1929 65.1501 17.7784 65.1501 17.505C65.1502 17.1897 65.0484 16.8573 64.8715 16.5962ZM47.3966 16.9984C47.2913 16.8498 47.0453 16.6469 46.8502 16.5472C46.6435 16.4418 46.1663 16.3662 45.7074 16.3662C45.0475 16.3662 44.7722 16.4383 44.0126 16.8096C43.3535 17.1319 42.8543 17.5049 42.1847 18.1752C41.5473 18.8133 41.1013 19.4025 40.7366 20.0881C40.4468 20.6329 40.1316 21.4476 40.0359 21.8985C39.9402 22.3493 39.8901 22.7459 39.9244 22.7797C39.9585 22.8135 40.4141 22.7539 40.9366 22.6472C41.459 22.5407 42.3237 22.2739 42.858 22.0544C43.3922 21.835 44.313 21.3363 44.9042 20.9461C45.4953 20.556 46.2319 19.9521 46.5412 19.6041C46.8503 19.2562 47.2124 18.7497 47.3459 18.4788C47.4792 18.2078 47.5884 17.8247 47.5884 17.6273C47.5884 17.4299 47.5022 17.1468 47.3966 16.9984ZM65.3643 24.109C65.2117 23.8825 64.8409 23.5746 64.54 23.4246C64.0263 23.1685 63.8413 23.1519 61.5014 23.1519H59.0098V27.5354L61.5581 27.4944C63.8563 27.4576 64.1547 27.4287 64.5977 27.2006C64.8879 27.051 65.2012 26.7534 65.3633 26.4735C65.5636 26.1272 65.6382 25.8003 65.6397 25.2601C65.6411 24.6925 65.5771 24.425 65.3643 24.109Z" fill="#1A1A1A"/>
<path fill-rule="evenodd" clip-rule="evenodd" d="M73.1944 31.3311L73.1316 11.8828H77.8445C81.5176 11.8828 82.7979 11.9238 83.648 12.0682C84.3084 12.1804 85.0908 12.4176 85.631 12.669C86.1373 12.9047 86.8058 13.3482 87.1766 13.694C87.536 14.0293 87.9725 14.5633 88.1468 14.8805C88.3212 15.1979 88.5553 15.8072 88.6671 16.2349C88.7928 16.7164 88.8684 17.4773 88.8656 18.2342C88.863 18.9293 88.78 19.7581 88.6733 20.1565C88.57 20.5419 88.3679 21.0871 88.224 21.3683C88.0801 21.6495 87.7751 22.1333 87.5462 22.4434C87.3172 22.7536 86.7577 23.2552 86.3028 23.5581C85.8478 23.861 85.144 24.2163 84.7387 24.3475C84.3334 24.4789 83.5695 24.6453 83.0412 24.7174C82.5127 24.7895 81.1459 24.8484 80.0036 24.8484H77.9267L77.8613 31.3311H73.1944ZM83.6642 16.9356C83.4949 16.6364 83.1974 16.3493 82.8965 16.1946C82.461 15.9707 82.1512 15.8978 80.164 15.8642L77.9227 15.8665V20.8496L79.9183 20.8489C81.016 20.8485 82.1228 20.7911 82.3779 20.7212C82.6331 20.6513 83.034 20.4277 83.2687 20.2243C83.5665 19.9663 83.7554 19.6515 83.8935 19.1825C84.0206 18.751 84.0645 18.3162 84.0161 17.9674C83.9746 17.6686 83.8163 17.2044 83.6642 16.9356Z" fill="#1A1A1A"/>
<path d="M91.907 21.7584L91.9387 31.3311H96.6055L96.6705 23.8823L104.834 23.8184L104.901 19.8803H96.6669V16.0027H106.001V11.8828H91.9037C91.8996 13.5677 91.8947 18.0756 91.907 21.7584Z" fill="#1A1A1A"/>
</svg>
