<svg width="128" height="44" viewBox="0 0 128 44" fill="none" xmlns="http://www.w3.org/2000/svg">
<path d="M99.4822 14.7988H93.2424H89.2871C89.2871 14.7988 89.2871 17.3391 89.2871 18.8769V34.2933C89.2871 35.9745 89.2871 38.5222 89.2871 38.5222H94.9576C94.9576 38.5222 94.9576 35.8902 94.9576 34.209V30.5612H99.46C104.989 30.5612 108.237 27.5403 108.237 22.4671C108.231 17.5062 105.125 14.7988 99.4822 14.7988ZM99.1968 25.7127H94.9487V19.6503H99.1939C101.246 19.6503 102.358 20.675 102.358 22.6416C102.358 24.6082 101.191 25.7127 99.1968 25.7127Z" fill="white"/>
<path d="M123.236 19.8218C125.63 19.8218 128.001 19.8218 128.001 19.8218V14.7944C128.001 14.7944 125.715 14.7944 123.208 14.7944H114.972C112.777 14.7944 111.043 14.7944 111.043 14.7944C111.043 14.7944 111.043 16.9917 111.043 18.8725V33.6338C111.043 36.1135 111.043 38.5134 111.043 38.5134H116.681C116.681 38.5134 116.681 36.223 116.681 33.5436V29.3724H122.038C124.203 29.3724 126.583 29.3724 126.583 29.3724V24.4929C126.583 24.4929 124.26 24.4929 122.038 24.4929H116.681V19.8189L123.236 19.8218Z" fill="white"/>
<path d="M84.3256 27.4797C83.4991 26.7685 82.7583 26.4254 81.361 26.1119C82.5305 25.6846 83.0436 25.3992 83.6706 24.8581C84.7529 23.8895 85.3222 22.5218 85.3222 20.7829C85.3222 17.0227 82.6149 14.7988 77.9986 14.7988H70.533C68.1968 14.7988 66.5836 14.7988 66.5836 14.7988C66.5836 14.7988 66.5718 17.3125 66.5718 18.8207V27.6645C65.7236 28.9286 64.7404 30.0967 63.6397 31.1482C61.9141 32.7304 59.7332 34.2874 56.9756 34.8907C55.8364 35.1537 54.6509 35.1421 53.5171 34.8567C51.3745 34.2992 50.1015 32.8753 49.4805 30.8022C49.4051 30.5479 49.4347 30.5153 49.6979 30.4651C50.106 30.3852 50.5185 30.3172 50.9221 30.2226C53.0162 29.727 54.9982 28.8411 56.7641 27.6113C57.9501 26.8113 58.9941 25.8188 59.853 24.6747C60.3694 24.0056 60.726 23.2272 60.8954 22.3991C61.1705 20.8894 60.7091 19.6325 59.5647 18.6359C58.5888 17.7886 57.4162 17.4279 56.1416 17.3909C54.867 17.3539 53.6709 17.6955 52.5368 18.2559C50.7876 19.1194 49.3843 20.394 48.234 21.9525C47.2847 23.2096 46.607 24.6501 46.2437 26.1829C45.9168 27.7415 45.8988 29.3491 46.1905 30.9146C46.3204 31.5252 46.5075 32.1223 46.7494 32.6978C48.0432 35.6936 50.2981 37.4827 53.5141 38.0298C55.0036 38.2671 56.5264 38.1864 57.9825 37.7932C60.7919 37.0776 63.1873 35.6344 65.2204 33.5791C65.5605 33.2361 66.149 32.4125 66.5704 31.7397V34.4101C66.5704 36.4063 66.5822 38.5252 66.5822 38.5252C66.5822 38.5252 68.395 38.5148 70.5597 38.5148H78.3106C83.2699 38.5148 86.1754 36.0928 86.1754 31.9881C86.1768 30.1043 85.5499 28.5635 84.3256 27.4797ZM49.235 27.8257C49.3246 27.0351 49.5341 26.2628 49.856 25.5353C50.6929 23.6574 51.9394 22.1226 53.6872 21.0195C54.3154 20.6094 55.0243 20.3391 55.766 20.2269C55.9435 20.2033 56.1224 20.1914 56.3013 20.1737C56.7774 20.1725 57.2467 20.2866 57.669 20.5064C58.4394 20.9263 58.7041 21.6272 58.3951 22.4523C58.2505 22.8321 58.0513 23.1888 57.8036 23.511C57.0059 24.5477 56.0233 25.428 54.9055 26.1075C53.4231 27.0444 51.7788 27.6963 50.0571 28.0297C49.8812 28.0638 49.7022 28.0904 49.5248 28.117C49.2586 28.1554 49.2025 28.1037 49.235 27.8257ZM72.1536 19.4728H77.1114C78.7379 19.4728 79.6251 20.2713 79.6251 21.6671C79.6251 23.063 78.6847 23.9472 77.1735 23.9472H72.1595L72.1536 19.4728ZM77.3968 33.8068H72.1536V28.5059H77.3672C79.1919 28.5059 80.2742 29.4744 80.2742 31.1275C80.2786 32.8087 79.1963 33.8009 77.4012 33.8009L77.3968 33.8068Z" fill="white"/>
<path d="M31.9239 43.3508C29.4173 43.3508 26.4949 41.7631 24.3316 39.262C23.0058 40.3272 21.4446 41.0501 19.7823 41.3685C19.192 41.4781 18.5932 41.5335 17.9932 41.5339C16.3939 41.5339 14.7947 41.1427 13.2231 40.3709L9.02448 42.5045C8.93531 42.5493 8.83718 42.5726 8.73768 42.5726C8.64396 42.5727 8.55138 42.5519 8.46645 42.5117C8.38153 42.4715 8.30635 42.4129 8.24624 42.34C8.18613 42.2671 8.14255 42.1817 8.11859 42.0899C8.09463 41.998 8.09089 41.9019 8.10761 41.8085L8.94452 37.1219C7.34525 35.3353 6.38039 33.2309 6.15116 31.0249C5.98513 29.3207 6.22878 27.601 6.86125 26.013C3.80772 24.5701 1.47065 22.1069 0.828806 19.6058C0.0483637 16.5611 1.75639 13.9206 5.2865 12.7176C7.18324 12.0691 9.30066 11.7448 11.577 11.7448C13.8474 11.7488 16.1068 12.0641 18.2939 12.6819C18.4148 12.476 18.5462 12.2765 18.6873 12.0842C20.0659 10.2187 22.307 9.13675 24.8487 9.10649C24.7264 6.4706 25.3458 3.85378 26.6346 1.56114C26.867 1.15122 27.2497 0.850946 27.6995 0.725689C28.1492 0.600431 28.6296 0.660326 29.036 0.892327C29.4424 1.12433 29.7419 1.50966 29.8695 1.96446C29.997 2.41926 29.9421 2.90673 29.7169 3.32075C28.3308 5.81317 28.2392 8.13266 28.4481 9.74635C29.4793 10.1293 30.4492 10.6639 31.3268 11.333C31.9839 11.8306 32.5862 12.3984 33.1233 13.0267C35.1991 12.6269 37.1 11.5803 38.5608 10.0328C38.8883 9.69209 39.3358 9.49721 39.805 9.49103C40.2742 9.48484 40.7265 9.66786 41.0626 9.99981C41.3987 10.3318 41.5909 10.7854 41.597 11.2611C41.6031 11.7367 41.4226 12.1953 41.0952 12.536C39.4241 14.2868 37.3317 15.5656 35.0243 16.2465C35.1504 16.5889 35.2572 16.9382 35.3442 17.2928C35.9317 19.7009 35.5169 22.0258 34.1767 23.8395C34.0371 24.0273 33.888 24.2077 33.73 24.3799C34.9305 26.3178 37.5981 31.3113 37.3774 37.069C37.2324 40.8433 35.2152 43.2481 32.1126 43.3465C32.0508 43.3497 31.9868 43.3508 31.9239 43.3508ZM31.6701 39.7581C31.7426 39.7581 31.8141 39.7646 31.8834 39.7646H32.0017C32.6126 39.7451 33.424 39.5257 33.7268 37.9704C33.0754 37.8397 32.4418 37.6304 31.8397 37.3467C31.8351 38.1534 31.7785 38.9589 31.6701 39.7581ZM26.014 35.4412C26.9512 37.0257 28.1784 38.3098 29.4589 39.0501C29.6646 37.2322 29.557 35.2607 29.139 33.1639C28.3028 34.1773 27.228 34.9605 26.014 35.4412ZM10.2272 27.1014C8.55859 30.8617 10.6643 34.2631 13.0557 36.0724C14.6656 37.2949 16.3779 37.9401 18.007 37.9401C18.3887 37.9389 18.7695 37.9027 19.1447 37.832C20.3297 37.6015 21.4348 37.0613 22.3507 36.2648C22.3336 36.2302 22.3176 36.1956 22.3005 36.1567C21.9042 36.2037 21.5055 36.2272 21.1064 36.227C18.7505 36.2221 16.4607 35.4368 14.5857 33.9907C12.3614 32.3351 10.8549 29.8715 10.3817 27.1155L10.2272 27.1014ZM31.6573 34.4198C32.2523 35.0683 33.0743 35.4185 33.827 35.6087C33.6372 32.3392 32.3599 29.3658 31.5752 27.8191C30.2351 25.1765 28.9194 23.7703 28.5132 23.6038C28.3594 23.5386 28.1947 23.5042 28.0281 23.5022H28.0003C28.8387 25.0572 29.5611 26.6736 30.1615 28.3379C30.8796 30.3031 31.3813 32.3428 31.6573 34.4198ZM26.1494 24.9192C25.128 26.4216 24.3519 28.9497 24.6163 31.5923C24.6851 32.1913 24.8229 32.78 25.0268 33.3465C27.5216 32.3619 28.1677 30.4196 28.2882 29.9646C27.7122 28.2265 26.9969 26.5391 26.1494 24.9192ZM16.7106 26.5783C16.9025 27.2365 17.3503 28.1261 18.3599 28.8956C19.1288 29.5014 20.0699 29.8395 21.0435 29.8597C21.1202 28.189 21.4787 26.544 22.1033 24.996C21.9061 24.8663 21.7195 24.7333 21.5382 24.596C21.357 24.4588 21.196 24.328 21.0243 24.1799C19.7321 25.2227 18.273 26.0332 16.7106 26.5761V26.5783ZM12.2881 23.7303C12.367 23.7303 12.4448 23.7303 12.5237 23.7303C13.0422 23.7305 13.5597 23.6827 14.0697 23.5876C16.6456 23.1002 18.8206 21.6324 19.9539 20.2154C18.1821 19.8467 16.3835 19.6262 14.5761 19.5561C14.1774 19.7949 12.496 20.9633 12.2881 23.7303ZM5.71829 20.9493C6.8463 22.0507 8.39867 22.9305 10.0225 23.3844C10.1262 22.044 10.5666 20.7529 11.3019 19.6339C9.23455 19.8112 7.3634 20.2511 5.71829 20.945V20.9493ZM5.46559 16.5243C4.07956 17.2571 4.0998 18.1067 4.25333 18.7076C4.28291 18.8176 4.3185 18.9259 4.35995 19.0319C5.08368 18.7013 5.8281 18.4193 6.5883 18.1877C6.14918 17.6797 5.77219 17.1197 5.46559 16.52V16.5243ZM13.6016 17.2171C14.2541 17.2171 14.9194 17.2387 15.5804 17.282C17.3241 17.3973 19.0568 17.6444 20.7642 18.0213C20.718 17.8496 20.6366 17.6898 20.5254 17.5522C20.3409 17.3155 19.3707 16.7416 17.5518 16.2119C15.5809 15.6463 13.5432 15.3554 11.4949 15.3473C10.2071 15.3392 8.92255 15.4799 7.6662 15.7666C8.06281 16.4432 8.62574 17.1415 9.40618 17.5381C10.7942 17.3192 12.1969 17.2105 13.6016 17.2128V17.2171Z" fill="#1A1A1A"/>
<path d="M28.177 1.29593C28.3741 1.29603 28.5678 1.34846 28.7388 1.44801C28.9097 1.54757 29.052 1.69077 29.1514 1.86337C29.2508 2.03597 29.3039 2.23195 29.3054 2.43182C29.3069 2.63168 29.2568 2.82845 29.16 3.00257C27.5415 5.92084 27.6023 8.61538 27.8752 10.2312C28.9794 10.5968 30.0165 11.1445 30.9447 11.8525C31.6606 12.3941 32.3071 13.0241 32.8692 13.7278C35.2162 13.3644 37.3787 12.2243 39.02 10.4852C39.1232 10.3766 39.2466 10.2897 39.3831 10.2295C39.5196 10.1694 39.6665 10.1372 39.8153 10.1348C39.9641 10.1324 40.1119 10.1598 40.2502 10.2155C40.3885 10.2712 40.5146 10.3541 40.6212 10.4594C40.7278 10.5647 40.8128 10.6903 40.8713 10.829C40.9299 10.9677 40.9608 11.1168 40.9623 11.2676C40.9638 11.4185 40.9358 11.5682 40.8801 11.7081C40.8243 11.848 40.7419 11.9753 40.6374 12.0827C38.8786 13.9371 36.6243 15.2308 34.1508 15.8052C34.3928 16.333 34.5845 16.8832 34.7233 17.448C35.2638 19.6627 34.8885 21.7952 33.6656 23.451C33.4415 23.7542 33.1918 24.037 32.9193 24.2962C34.9994 27.4599 36.925 32.315 36.7437 37.0502C36.6115 40.5024 34.8747 42.6165 32.0984 42.7041C32.0429 42.7041 31.9853 42.7041 31.9288 42.7041C29.4382 42.7041 26.5063 41.0082 24.4176 38.3504C23.0792 39.5668 21.4381 40.3891 19.672 40.7283C19.1198 40.8309 18.5596 40.8826 17.9982 40.8829C16.3989 40.8829 14.79 40.4624 13.2281 39.6431L8.74268 41.9215L9.63612 36.9151C7.99421 35.176 7.01973 33.1483 6.79263 30.9542C6.61751 29.1431 6.93342 27.3179 7.70633 25.6754C4.54511 24.36 2.08758 21.9119 1.4532 19.44C0.753791 16.7152 2.26562 14.4303 5.49614 13.3289C7.45258 12.6621 9.54761 12.3886 11.5851 12.3886C13.966 12.3903 16.3338 12.7472 18.6123 13.4478C18.7811 13.1042 18.9798 12.7765 19.2061 12.4686C20.5367 10.6657 22.6637 9.75027 24.9635 9.75027C25.1554 9.75027 25.3495 9.75676 25.5435 9.76865C25.2684 7.02833 25.8458 4.26941 27.195 1.8785C27.2935 1.70157 27.4366 1.55436 27.6098 1.45199C27.7829 1.34961 27.9798 1.29576 28.1802 1.29593M9.31413 18.2079C10.7314 17.9739 12.1653 17.8585 13.6012 17.8631C14.2857 17.8631 14.9361 17.8879 15.5385 17.9268C17.5095 18.0546 19.4656 18.3577 21.3843 18.8326C21.5229 18.1927 21.4078 17.6372 21.0272 17.1486C20.3299 16.2515 16.1036 14.6962 11.4945 14.6962C9.88329 14.6831 8.27839 14.9014 6.72761 15.3447C7.15408 16.2904 7.96755 17.6145 9.31413 18.21M4.06216 19.8886C5.27049 19.2828 6.54322 18.8194 7.85558 18.5073C6.7958 17.6793 6.14015 16.5228 5.76805 15.6722C3.99286 16.3921 3.27319 17.4653 3.63569 18.8704C3.73233 19.2276 3.87576 19.57 4.06216 19.8886ZM10.6223 24.1936C10.6479 21.4774 11.8133 19.8075 12.7547 18.8974C10.1084 18.972 7.23082 19.4454 4.65174 20.7251C5.90343 22.261 8.104 23.6888 10.6298 24.1838M12.5308 24.3719C13.0887 24.3725 13.6455 24.3208 14.194 24.2173C17.4 23.611 20.0356 21.5866 21.0176 19.7859C18.8314 19.2636 16.599 18.9656 14.354 18.8964L14.3699 18.9288C14.2484 18.9926 11.615 20.416 11.632 24.333C11.9284 24.36 12.2269 24.3751 12.5287 24.3751M34.4919 36.4049C34.4834 30.0171 30.1579 23.5775 28.7527 23.0025C28.5233 22.9066 28.2779 22.8564 28.0298 22.8544C27.6877 22.8599 27.3526 22.9541 27.0564 23.1279C28.0471 24.861 28.8856 26.6791 29.5619 28.5613C30.2851 30.5418 30.7841 32.5992 31.0492 34.694C31.9896 35.8386 33.4759 36.2525 34.4919 36.4028M21.0805 30.5014C21.2773 30.5014 21.4739 30.4884 21.669 30.4625C21.6757 28.4846 22.1007 26.5312 22.9153 24.734C22.2386 24.3331 21.6085 23.8563 21.0368 23.3127C19.5644 24.6115 17.834 25.5746 15.9628 26.1369C16.0694 26.8719 16.4693 28.264 17.979 29.4097C19.1518 30.3025 20.2936 30.5035 21.0805 30.5035M24.6532 34.1568C28.3433 33.0392 28.9339 30.0236 28.9393 29.9901L28.9744 29.9966C28.2763 27.8322 27.3655 25.7443 26.2557 23.7645C24.8259 25.2301 23.6521 28.3635 23.9815 31.6546C24.0847 32.5176 24.311 33.3608 24.6532 34.1578M18.0088 38.5893C18.4289 38.5896 18.8482 38.5512 19.2616 38.4747C20.7273 38.1887 22.0788 37.475 23.1499 36.4211C22.9825 36.1088 22.8247 35.7899 22.6819 35.4613C22.162 35.5509 21.6355 35.5954 21.1082 35.5943C18.8908 35.5885 16.736 34.8488 14.9713 33.4877C12.1715 31.3628 11.1682 28.5299 10.9518 26.5628C10.5871 26.5141 10.2279 26.4482 9.87284 26.3682C7.79699 30.3673 9.64998 34.3027 12.6747 36.5973C14.4137 37.917 16.2358 38.5936 18.0056 38.5936M29.9649 40.0203C30.466 37.1258 30.1025 34.1687 29.4223 31.553C28.8359 32.7095 27.5991 34.2919 25.085 35.0906C26.1683 37.195 27.9349 39.1978 29.9649 40.0203ZM31.8841 40.4138H32.0237C33.4545 40.3684 34.268 39.3654 34.4493 37.436C33.5388 37.3128 32.2594 37.0037 31.1772 36.2028C31.2523 37.5793 31.1704 38.9601 30.933 40.3176C31.2461 40.3822 31.5646 40.4151 31.8841 40.4159M28.177 0C27.7498 0.000152579 27.3304 0.115309 26.9615 0.333699C26.5927 0.55209 26.2876 0.865879 26.0777 1.24297C24.8383 3.4493 24.1893 5.94565 24.1948 8.48461C21.7191 8.68024 19.5559 9.82593 18.1762 11.6936C18.1197 11.7704 18.0643 11.8482 18.0099 11.9293C15.9094 11.3795 13.7492 11.0988 11.5798 11.0938C9.23417 11.0938 7.04531 11.4331 5.08248 12.1022C3.22733 12.7345 1.79333 13.7559 0.932921 15.055C0.0224051 16.432 -0.228176 18.0619 0.210023 19.7686C0.578921 21.2083 1.45003 22.6426 2.72944 23.9179C3.7145 24.8886 4.83759 25.704 6.06125 26.3369C5.54141 27.8633 5.35513 29.486 5.51535 31.0926C5.74778 33.3407 6.68815 35.4808 8.25863 37.3171L7.47815 41.6935C7.43578 41.9305 7.45938 42.1748 7.54625 42.399C7.63311 42.6232 7.77985 42.8184 7.97001 42.9628C8.16017 43.1072 8.38624 43.1951 8.62289 43.2166C8.85954 43.2381 9.09741 43.1924 9.30986 43.0845L13.2313 41.0925C14.7221 41.8005 16.3466 42.1725 17.9928 42.1831C18.6315 42.1829 19.2688 42.1239 19.897 42.0069C21.4639 41.71 22.9483 41.0709 24.247 40.1338C26.4967 42.543 29.3508 44 31.9235 44H32.1367C33.8757 43.9449 35.3481 43.2434 36.3951 41.968C37.3823 40.765 37.9453 39.0822 38.021 37.1042C38.1116 34.748 37.732 32.2502 36.893 29.6821C36.297 27.8558 35.5032 26.102 34.5261 24.453C34.5847 24.3806 34.6401 24.3081 34.6945 24.2368C36.1509 22.2643 36.604 19.7448 35.9739 17.1454C35.9355 16.9887 35.8939 16.8319 35.847 16.6752C38.0116 15.9245 39.9702 14.6653 41.5628 13.0004C42.0086 12.5364 42.2543 11.9119 42.2459 11.2643C42.2375 10.6167 41.9757 9.99899 41.518 9.54707C41.2914 9.32331 41.0236 9.14698 40.7297 9.02816C40.4359 8.90934 40.1218 8.85035 39.8055 8.85457C39.1667 8.86308 38.5574 9.12852 38.1116 9.59247C36.8262 10.9538 35.1764 11.9046 33.365 12.3281C32.8628 11.7776 32.3121 11.2748 31.7199 10.8257C30.9002 10.2011 30.0043 9.68673 29.0544 9.29524C28.8847 7.33046 29.3154 5.36031 30.288 3.65216C30.4949 3.2807 30.602 2.86078 30.5989 2.43424C30.5958 2.0077 30.4824 1.58943 30.2701 1.22115C30.0578 0.852857 29.7541 0.547406 29.3891 0.33523C29.024 0.123054 28.6105 0.0115726 28.1898 0.0118877L28.177 0ZM8.77251 16.2061C9.67379 16.0609 10.5851 15.9886 11.4977 15.99C13.4042 15.9927 15.302 16.2526 17.141 16.7628C16.658 16.7098 16.1505 16.6644 15.6248 16.6298C14.9499 16.5855 14.2708 16.5628 13.6045 16.5628C12.2412 16.5597 10.8795 16.6584 9.53054 16.8579C9.24716 16.6785 8.9917 16.4574 8.77251 16.2018V16.2061ZM4.82765 18.1214C4.8479 17.9182 4.94921 17.6826 5.24667 17.4329C5.33197 17.5734 5.42367 17.7143 5.52176 17.8555C5.2872 17.9398 5.05581 18.0284 4.82765 18.1214ZM13.0265 23.0673C13.3613 21.3704 14.3337 20.5155 14.758 20.2139C16.0732 20.2729 17.3834 20.4137 18.6816 20.6354C17.3369 21.8186 15.7061 22.6181 13.9563 22.9517C13.649 23.0095 13.3385 23.0481 13.0265 23.0673ZM6.97068 21.1661C8.00256 20.8212 9.06313 20.5716 10.1394 20.4203C9.83461 21.0937 9.61742 21.8044 9.49327 22.5345C8.59033 22.2072 7.74021 21.7461 6.97068 21.1661ZM17.5472 26.9573C18.7842 26.4635 19.9517 25.8068 21.0197 25.0042L21.1583 25.1123L21.3257 25.2366C20.8679 26.4984 20.575 27.8157 20.4547 29.1546C19.8338 29.0347 19.2495 28.7685 18.7488 28.3775C18.2442 28.0066 17.8329 27.5204 17.5482 26.9584L17.5472 26.9573ZM25.4262 32.4501C25.3467 32.1476 25.29 31.8394 25.2567 31.5282C25.079 29.7322 25.376 27.9207 26.1171 26.2796C26.6912 27.479 27.1929 28.7128 27.6193 29.9739C27.4477 30.4733 26.905 31.6481 25.4262 32.4501ZM32.2668 34.1179C31.9771 32.0715 31.474 30.0621 30.7657 28.1235C30.5855 27.6231 30.3999 27.1443 30.2144 26.6903C30.5033 27.1648 30.8029 27.702 31.0983 28.2975C32.1517 30.4192 32.8404 32.6209 33.0995 34.6669C32.7963 34.5273 32.5156 34.3422 32.2668 34.1179ZM13.4573 35.5716L13.4424 35.5608C12.066 34.5156 11.0477 33.1494 10.5754 31.7141C10.3123 30.931 10.2174 30.1 10.2972 29.2768C11.0824 31.3544 12.4277 33.1666 14.1797 34.5066C15.9317 35.8466 18.0199 36.6606 20.2062 36.8556C19.8281 37.0127 19.4351 37.13 19.0334 37.2058C18.696 37.2677 18.3538 37.2988 18.0109 37.2988C16.5044 37.2988 14.9723 36.7184 13.4573 35.5694V35.5716ZM26.9551 35.7261C27.593 35.403 28.1883 35 28.7271 34.5264C28.8908 35.6402 28.9521 36.7669 28.9105 37.8922C28.1574 37.273 27.4985 36.5446 26.9551 35.7305V35.7261ZM32.4001 39.0465C32.4235 38.7979 32.4424 38.5457 32.4566 38.2899C32.6176 38.345 32.7765 38.398 32.9342 38.4391C32.7818 38.799 32.5877 38.9644 32.4012 39.0422L32.4001 39.0465Z" fill="#E5E5E5"/>
<path d="M24.3936 36.743C20.9723 30.0742 24.2219 24.563 24.2219 24.563L22.9212 22.7148L22.9159 22.7061L20.8006 21.9614C20.8006 21.9614 16.4996 26.6761 9.22402 25.2266C7.32622 30.2342 7.26548 33.1276 11.6016 38.0281L11.6091 38.0379C17.4731 40.874 20.1886 39.9996 24.3936 36.743Z" fill="#FEE100"/>
<path d="M21.9191 16.4422C20.5213 14.6437 12.2606 12.2377 5.85605 14.421C-2.52411 17.2788 6.01706 26.9382 14.3983 25.3537C19.7356 24.3442 24.3308 19.5431 21.9191 16.4422Z" fill="#D9F1FD"/>
<path d="M12.5475 18.554L12.1946 17.9217C11.8832 18.1171 11.5988 18.3537 11.3491 18.6253C10.5131 18.6948 9.68163 18.8118 8.85852 18.9755L8.91397 18.8317C6.75922 17.9671 5.9873 15.0682 5.97984 15.0391L5.25059 15.2315L4.52129 15.4217C4.55327 15.5449 5.18445 17.9433 7.00015 19.4359C5.64638 19.8392 4.34636 20.4087 3.12891 21.1318L3.89439 22.4461C5.89987 21.2463 8.08983 20.6086 10.2126 20.3071C9.65924 21.4863 9.27325 23.1648 9.54087 25.4789L11.0335 25.3017C10.7222 22.6104 11.4174 21.0021 12.0539 20.1266C16.873 19.8521 20.9234 21.0993 20.9863 21.1199L21.4363 19.6629C21.1804 19.5808 17.3133 18.3843 12.5475 18.554Z" fill="#2BABE2"/>
<path d="M29.1756 21.9477C31.2717 22.8015 35.8765 30.1621 35.6142 37.0038C35.2709 45.9597 23.721 40.3728 22.8595 31.7747C22.3115 26.2981 25.5602 20.4756 29.1756 21.9477Z" fill="#D9F1FD"/>
<path d="M35.0331 38.5753L34.983 37.0503C34.9542 37.0503 32.0041 37.1292 30.568 35.2636L30.4486 35.3588C30.371 34.5123 30.2471 33.6708 30.0775 32.8382C30.2634 32.5183 30.4068 32.1748 30.504 31.8168L29.8057 31.6482C28.6233 26.9671 26.4035 23.5419 26.2521 23.3149L25.0004 24.1634C26.5869 26.7606 27.7544 29.5978 28.4591 32.568C27.8108 33.4327 26.4845 34.5665 23.8457 35.0226L24.0984 36.5272C26.3672 36.1348 27.8471 35.2863 28.8077 34.4152C29.1212 36.5639 29.1276 38.8737 28.5604 41.165L30.02 41.539C30.3611 40.1514 30.5337 38.7268 30.5338 37.2967C32.2525 38.4986 34.3891 38.5775 34.9158 38.5775C34.9798 38.5775 35.0193 38.5764 35.0331 38.5753Z" fill="#2BABE2"/>
<path d="M40.6866 10.3876C40.5802 10.2822 40.4542 10.1991 40.316 10.1431C40.1778 10.0871 40.03 10.0593 39.8811 10.0613C39.7323 10.0633 39.5853 10.0951 39.4486 10.1548C39.3119 10.2145 39.1882 10.301 39.0845 10.4093C37.4403 12.1515 35.2739 13.2935 32.9228 13.6576C32.3596 12.9526 31.712 12.3216 30.9949 11.779C30.065 11.0698 29.026 10.521 27.9198 10.1548C27.6464 8.53608 27.5856 5.83132 29.2069 2.91326C29.3542 2.6482 29.3916 2.33469 29.3109 2.04167C29.2302 1.74866 29.0379 1.50015 28.7764 1.35082C28.515 1.2015 28.2058 1.16357 27.9167 1.2454C27.6277 1.32723 27.3825 1.52213 27.2352 1.78718C25.8836 4.18236 25.3051 6.9462 25.5808 9.69141C23.0558 9.52575 20.674 10.4396 19.23 12.3983C19.0033 12.7068 18.8042 13.035 18.6351 13.3793C15.0506 12.2522 9.91952 11.7552 5.49767 13.2602C2.26138 14.3636 0.746855 16.6525 1.44752 19.3822C2.08302 21.8585 4.54494 24.311 7.7118 25.6287C6.93751 27.2741 6.62099 29.1026 6.79642 30.917C7.02392 33.115 8.00019 35.1463 9.64503 36.8884L8.74994 41.9038L13.2434 39.6213C14.8081 40.4421 16.4198 40.8633 18.022 40.8633C18.5844 40.863 19.1456 40.8112 19.6989 40.7085C21.468 40.3684 23.1119 39.5447 24.4529 38.3264C26.5452 40.9889 29.4825 42.6878 31.9775 42.6878C32.0341 42.6878 32.0918 42.6878 32.1473 42.6878C34.9243 42.6001 36.6685 40.4822 36.801 37.0238C36.9825 32.2834 35.0536 27.4196 32.9698 24.2471C33.2427 23.9874 33.4929 23.7041 33.7174 23.4004C34.9425 21.7416 35.3195 19.6053 34.7769 17.3867C34.6379 16.8208 34.4458 16.2697 34.2034 15.7409C36.6815 15.1653 38.9402 13.8693 40.7026 12.0118C40.8069 11.9041 40.8892 11.7767 40.9448 11.6368C41.0004 11.4968 41.0283 11.3472 41.0268 11.1963C41.0253 11.0455 40.9944 10.8964 40.9361 10.7577C40.8777 10.6189 40.793 10.4931 40.6866 10.3876ZM26.2974 23.7165C27.4092 25.6999 28.3217 27.7915 29.021 29.9598L28.9858 29.9533C28.9804 29.9869 28.3888 33.0078 24.6921 34.1274C24.3493 33.3289 24.1226 32.4842 24.0192 31.6197C23.6934 28.3237 24.8683 25.1848 26.2974 23.7165ZM22.9511 24.691C22.1351 26.4914 21.7093 28.4483 21.7026 30.4297C20.9837 30.5272 19.5269 30.5272 18.0059 29.3729C16.485 28.2187 16.0919 26.8306 15.9862 26.0943C17.8608 25.531 19.5942 24.5661 21.0692 23.265C21.6419 23.8096 22.2732 24.2872 22.9511 24.6889V24.691ZM14.3713 18.8441C16.6203 18.9134 18.8567 19.212 21.0468 19.7352C20.061 21.5423 17.4207 23.5704 14.2111 24.1745C13.3657 24.3308 12.503 24.3672 11.6477 24.2828C11.6306 20.3589 14.2687 18.9328 14.3905 18.869L14.3713 18.8441ZM11.5174 14.6278C16.1347 14.6278 20.3686 16.1859 21.0671 17.0835C21.4484 17.574 21.5637 18.1305 21.4248 18.7715C19.5027 18.2958 17.5431 17.9921 15.5686 17.8642C13.4863 17.7187 11.3944 17.8132 9.33311 18.1457C7.98412 17.5534 7.17134 16.2227 6.74197 15.2753C8.29562 14.8319 9.90338 14.6139 11.5174 14.6278ZM3.6424 18.8073C3.28139 17.3996 4.00234 16.3245 5.77856 15.6033C6.15132 16.4555 6.8082 17.614 7.86987 18.4434C6.55517 18.7561 5.28011 19.2204 4.06963 19.8272C3.88104 19.5084 3.73557 19.1653 3.63708 18.8073H3.6424ZM4.65494 20.6696C7.2429 19.3876 10.1256 18.9134 12.7723 18.8387C11.8324 19.746 10.665 21.4189 10.6362 24.1442C8.10804 23.6386 5.90354 22.2082 4.64962 20.6696H4.65494ZM19.2962 38.4541C17.1333 38.8547 14.8519 38.204 12.6965 36.569C9.66637 34.2703 7.81002 30.3323 9.88957 26.3217C10.2452 26.4018 10.6052 26.4678 10.9705 26.5166C11.1841 28.4872 12.1924 31.3252 14.9972 33.4539C16.7655 34.8173 18.9245 35.5582 21.1461 35.5642C21.6744 35.5653 22.2018 35.5207 22.7226 35.431C22.8657 35.7559 23.0238 36.0807 23.1915 36.3925C22.1175 37.4508 20.7616 38.1674 19.2908 38.4541H19.2962ZM30.0218 39.9982C27.9925 39.1742 26.2184 37.1678 25.1332 35.0596C27.6518 34.2595 28.8908 32.6775 29.4782 31.5157C30.1543 34.136 30.5185 37.0985 30.0165 39.9982H30.0218ZM32.0822 40.3901C31.7159 40.3998 31.3497 40.3675 30.9906 40.2937C31.2283 38.9338 31.3104 37.5506 31.2352 36.1716C32.3193 36.9696 33.601 37.2837 34.5131 37.4071C34.3262 39.3409 33.5113 40.3446 32.0769 40.3901H32.0822ZM34.5537 36.3839C33.5358 36.2334 32.0469 35.8187 31.1049 34.672C30.8393 32.5735 30.3394 30.5125 29.6149 28.5284C28.9373 26.6429 28.0974 24.8215 27.1049 23.0853C27.4016 22.9112 27.7373 22.8169 28.0801 22.8113C28.3286 22.8133 28.5745 22.8637 28.8042 22.9597C30.2088 23.5292 34.5398 29.9804 34.5484 36.3795L34.5537 36.3839Z" fill="#1A1A1A"/>
</svg>
