<svg width="202" height="48" viewBox="0 0 202 48" fill="none" xmlns="http://www.w3.org/2000/svg">
<path fill-rule="evenodd" clip-rule="evenodd" d="M22.7453 1.41646C23.211 1.6541 23.3954 2.22296 23.157 2.68705C22.6865 3.60339 22.4319 4.91772 22.3345 6.26867C22.2385 7.60206 22.3024 8.86394 22.4008 9.60661C22.4693 10.1235 22.1044 10.5978 21.5858 10.6659C21.0671 10.7341 20.5911 10.3702 20.5226 9.85332C20.4069 8.9799 20.3399 7.58978 20.4449 6.1329C20.5486 4.69357 20.8271 3.07934 21.4705 1.82647C21.7088 1.36239 22.2796 1.17882 22.7453 1.41646Z" fill="#1A1A1A"/>
<path d="M17.2499 16.3627C17.8187 13.6695 12.0381 13.23 9.07674 13.3469C-2.59788 13.5972 2.28208 20.7317 8.74573 21.5272C11.4057 21.8546 16.539 19.7293 17.2499 16.3627Z" fill="#CFEDFC"/>
<path d="M2.88704 14.8435C3.21472 14.5741 3.64016 14.3302 4.17378 14.1211L4.34016 14.6422L5.18708 15.7115L6.4277 16.8324L7.38081 16.6914L12.145 16.1991L17.153 16.7331C16.9955 17.2338 16.7405 17.7044 16.4127 18.1406C14.9304 17.8446 11.47 17.7569 9.59043 17.7533C9.0875 18.3424 8.90544 20.3452 8.86611 21.5412C8.82548 21.5374 8.78537 21.5331 8.74581 21.5282C8.21827 21.4633 7.70127 21.3562 7.20296 21.214C7.15687 20.2788 7.4805 18.9415 7.71601 18.1992C6.24269 18.2792 4.68427 19.0045 3.82476 19.5099C3.42862 19.1928 3.08514 18.8543 2.80664 18.5053L4.7163 17.4594C4.42154 17.3101 3.49006 15.8452 2.88704 14.8435Z" fill="#00ACE6"/>
<path d="M16.2602 19.6133L17.9767 20.7701L10.2207 32.2073L8.3571 30.9513L6.92572 28.8472L6.20898 25.3731L7.4925 22.3213L10.573 23.258L16.2602 19.6133Z" fill="#FFE100"/>
<path fill-rule="evenodd" clip-rule="evenodd" d="M14.6992 12.0096C17.0001 7.0646 22.5971 8.27704 25.2404 10.0585L17.9764 20.7702L17.1427 20.2083C16.0842 21.4319 13.9222 22.3582 12.9735 22.6683C13.0698 24.0436 14.2276 25.104 14.7945 25.4623L12.408 28.9815C9.62241 27.1041 8.80873 24.4192 8.75009 23.3115L7.71614 23.2556C5.8906 27.3806 8.75322 30.5776 10.5188 31.7675L7.43625 36.313L7.97228 32.0453C4.49748 29.0767 5.11915 24.5913 5.86433 22.7197C3.47042 22.2457 -0.684323 18.7835 0.0961886 15.8411C1.45518 10.718 10.3727 10.8029 14.6992 12.0096ZM17.2529 16.3464C17.7938 13.6683 12.0314 13.2309 9.07624 13.3475C7.19763 13.3878 5.74768 13.6063 4.664 13.948C5.14627 15.4411 6.26454 16.1836 6.80761 16.3763C10.234 15.5997 14.683 15.958 17.2529 16.3464ZM17.0368 17.0535C15.2446 16.8214 12.5742 16.7616 11.1886 16.7651C9.3072 18.0455 9.06589 20.2047 9.22596 21.5602C11.7744 21.6038 15.9045 19.8334 17.0368 17.0535ZM8.36668 21.4738C8.02287 19.5101 9.12954 17.6575 9.80867 16.9033C6.32439 17.0359 4.12788 18.0215 3.0548 18.7951C4.20302 20.0472 6.17458 21.1176 8.36668 21.4738ZM2.44461 17.9849C3.30596 17.4602 4.84911 16.9776 5.68878 16.7617C4.47484 15.8568 3.94477 14.9122 3.75735 14.3009C1.85852 15.2107 1.64327 16.6351 2.44461 17.9849Z" fill="#1A1A1A"/>
<path fill-rule="evenodd" clip-rule="evenodd" d="M34.2145 9.14783C33.8198 8.80562 33.2216 8.8471 32.8784 9.24047C32.2007 10.0172 31.0721 10.7424 29.8509 11.3359C28.6455 11.9217 27.4471 12.3328 26.7191 12.5185C26.2124 12.6478 25.9069 13.162 26.0367 13.6671C26.1665 14.1722 26.6825 14.4769 27.1892 14.3477C28.0454 14.1292 29.3643 13.6732 30.6813 13.0331C31.9825 12.4008 33.3813 11.5417 34.3078 10.4797C34.651 10.0863 34.6092 9.49004 34.2145 9.14783Z" fill="#1A1A1A"/>
<path d="M22.3502 19.8002C24.6452 18.2704 27.2085 23.4543 28.2032 26.2374C32.3207 37.131 23.8611 35.2752 20.712 29.5921C19.416 27.2533 19.4814 21.7124 22.3502 19.8002Z" fill="#CFEDFC"/>
<path d="M29.1179 32.5208C29.2465 32.1173 29.315 31.6328 29.3108 31.0612L28.7638 31.1015L27.4529 30.7164L25.9471 29.9865L25.7232 29.0522L24.4061 24.4613L22.0428 20.0273C21.6354 20.3596 21.2923 20.7709 21.0085 21.2368C21.8364 22.4977 23.2076 25.6663 23.9113 27.4038C23.5504 28.0885 21.7539 29.0033 20.6553 29.4854C20.6739 29.5216 20.6929 29.5571 20.7122 29.5918C20.9692 30.0557 21.2616 30.494 21.5797 30.902C22.4673 30.5962 23.5915 29.7985 24.1947 29.304C24.6693 30.6967 24.5749 32.4088 24.4247 33.3922C24.8675 33.6405 25.3106 33.8322 25.7393 33.9597L26.0012 31.8033C26.2501 32.0204 27.9608 32.3362 29.1179 32.5208Z" fill="#00ACE6"/>
<path d="M19.6932 21.9264L17.9767 20.7695L10.2207 32.2067L12.0843 33.4627L14.5764 34.0028L18.0773 33.3713L20.4398 31.0466L18.4199 28.5458L19.6932 21.9264Z" fill="#FFE100"/>
<path fill-rule="evenodd" clip-rule="evenodd" d="M27.3526 20.5374C31.0983 16.5661 27.884 11.8401 25.2407 10.0586L17.9767 20.7702L18.8104 21.3321C18.0658 22.7674 18.0093 25.1126 18.0742 26.1059C16.7581 26.5293 15.3395 25.8533 14.7948 25.4624L12.4083 28.9816C15.1939 30.859 17.9963 30.6112 19.0493 30.2526L19.4867 31.1883C16.3272 34.4144 12.2846 32.9575 10.519 31.7676L7.43652 36.3131L11.2094 34.2268C15.2675 36.3352 19.2111 34.0886 20.6756 32.7018C22.0088 34.7398 26.7799 37.2932 29.2279 35.4746C33.4903 32.3083 30.0882 24.0902 27.3526 20.5374ZM22.3642 19.791C24.6555 18.2927 27.2101 23.4606 28.2027 26.2379C28.8653 27.9908 29.2022 29.4136 29.2879 30.5434C27.7184 30.6537 26.6105 29.8958 26.2288 29.4653C25.6748 26.0061 23.6834 22.0238 22.3642 19.791ZM21.7865 20.2545C22.6704 21.826 23.7212 24.2742 24.2342 25.5573C23.7435 27.7749 21.8236 28.8028 20.5022 29.1598C19.5119 26.8185 19.6208 22.3379 21.7865 20.2545ZM20.9028 29.9225C22.8588 29.5088 24.1709 27.7947 24.6198 26.8854C25.7949 30.1581 25.696 32.5574 25.3757 33.8384C23.7823 33.2428 22.0512 31.8177 20.9028 29.9225ZM26.3572 34.101C26.5247 33.1086 26.3989 31.5012 26.287 30.6439C27.5816 31.4297 28.6585 31.5681 29.2973 31.5137C29.1581 33.6094 27.9124 34.3393 26.3572 34.101Z" fill="#1A1A1A"/>
<path fill-rule="evenodd" clip-rule="evenodd" d="M52.2913 23.0908V12.8672H57.2443C61.1113 12.8672 62.3965 12.9051 63.1052 13.0404C63.6046 13.1356 64.2989 13.344 64.648 13.5034C64.9974 13.6628 65.5501 14.0421 65.8764 14.3464C66.2027 14.6506 66.6013 15.1712 66.7622 15.5032C66.923 15.8353 67.109 16.4507 67.1751 16.8708C67.2567 17.3885 67.2568 17.8818 67.1753 18.4023C67.1092 18.8245 66.9211 19.4465 66.7571 19.7844C66.5932 20.1222 66.2217 20.607 65.9316 20.8617C65.6413 21.1164 65.1258 21.4573 64.7859 21.6192L64.168 21.9136L64.5225 22.0036C64.7176 22.0532 65.1015 22.1888 65.3758 22.3049C65.65 22.4212 66.1228 22.7441 66.4264 23.0226C66.73 23.3012 67.0994 23.7197 67.2472 23.9529C67.3952 24.1859 67.6004 24.6594 67.7034 25.0051C67.8085 25.358 67.8905 26.062 67.8905 26.6111C67.8905 27.2854 67.8139 27.8217 67.6431 28.34C67.5071 28.7533 67.2012 29.3464 66.9636 29.658C66.7259 29.9697 66.2391 30.4247 65.8816 30.6692C65.5241 30.9136 64.8956 31.2237 64.4851 31.3583C64.0745 31.4927 63.2503 31.6541 62.6534 31.7168C62.0565 31.7794 59.4808 31.8316 56.9297 31.8328L52.2913 31.8348L52.2803 26.4744L51.9673 26.8867C51.7951 27.1135 51.2792 27.6732 50.8207 28.1305C50.3621 28.5878 49.6476 29.1909 49.2328 29.4708C48.8181 29.7506 48.0469 30.1812 47.5193 30.4275C46.9915 30.674 46.161 30.9891 45.6735 31.1279C45.1571 31.275 44.2646 31.408 43.5349 31.4466C42.5891 31.4968 42.061 31.4639 41.3777 31.3123C40.88 31.202 40.1046 30.928 39.6545 30.7035C39.2042 30.4789 38.5683 30.0554 38.2412 29.7621C37.9141 29.469 37.3985 28.8572 37.0954 28.4026C36.7922 27.9481 36.4167 27.2106 36.2608 26.7636C36.1049 26.3168 35.9224 25.5145 35.8552 24.9807C35.7881 24.4469 35.767 23.6634 35.8082 23.2395C35.8495 22.8156 35.9862 22.0813 36.112 21.6077C36.2378 21.1341 36.4804 20.4714 36.651 20.1351C36.8217 19.7987 37.1771 19.2054 37.4412 18.8167C37.705 18.4279 38.3004 17.7387 38.7642 17.2851C39.2279 16.8315 39.9072 16.2825 40.2736 16.0652C40.6399 15.8478 41.2736 15.5297 41.6816 15.3583C42.3389 15.0823 43.2322 14.9878 43.764 14.9878C44.2958 14.9878 45.1868 15.0704 45.7746 15.3789C46.1227 15.5618 46.6411 15.9509 46.9266 16.2436C47.2921 16.6185 47.5018 16.9685 47.6352 17.426C47.7667 17.8769 47.8004 18.2699 47.7455 18.709C47.7017 19.057 47.5001 19.673 47.2972 20.0778C47.0643 20.5425 46.599 21.1459 46.035 21.7149C45.5438 22.2106 44.6764 22.9176 44.1078 23.2861C43.5393 23.6546 42.7416 24.1058 42.3351 24.2889C41.9288 24.4718 41.171 24.755 40.651 24.9181C40.1311 25.081 39.4531 25.2522 39.1443 25.2982C38.7627 25.3552 38.5829 25.4382 38.5829 25.5579C38.5829 25.6547 38.7418 26.0657 38.936 26.4712C39.1301 26.8768 39.5072 27.4329 39.774 27.7069C40.0408 27.981 40.6039 28.366 41.0254 28.5626C41.6369 28.8478 42.0016 28.9321 42.8301 28.9792C43.5613 29.0208 44.133 28.9795 44.7629 28.8398C45.2548 28.7307 46.1262 28.4136 46.6994 28.135C47.2727 27.8565 48.167 27.3082 48.687 26.9164C49.207 26.5247 49.9826 25.8408 50.4103 25.3968C50.8383 24.9527 51.4366 24.2522 51.7398 23.8401L52.2913 23.0908ZM62.4225 17.4498C62.2751 17.2296 61.9692 16.9568 61.743 16.8435C61.3931 16.6682 60.984 16.6375 58.9978 16.6374L56.6638 16.6371V20.1715H58.9432C61.0721 20.1715 61.2575 20.1539 61.7499 19.9064C62.0931 19.7339 62.3494 19.4974 62.4838 19.229C62.5974 19.0022 62.6906 18.5992 62.6906 18.3334C62.6907 18.0268 62.5928 17.7037 62.4225 17.4498ZM45.6072 17.8408C45.5058 17.6964 45.2691 17.499 45.0813 17.4022C44.8824 17.2997 44.4232 17.2262 43.9817 17.2262C43.3467 17.2262 43.0818 17.2963 42.3509 17.6573C41.7166 17.9707 41.2362 18.3333 40.5919 18.985C39.9786 19.6054 39.5494 20.1782 39.1985 20.8448C38.9196 21.3744 38.6163 22.1666 38.5243 22.605C38.4322 23.0432 38.384 23.4288 38.4169 23.4617C38.4498 23.4946 38.8882 23.4366 39.391 23.3329C39.8937 23.2294 40.7257 22.97 41.2398 22.7566C41.7538 22.5433 42.6399 22.0584 43.2088 21.679C43.7776 21.2998 44.4864 20.7126 44.784 20.3742C45.0815 20.036 45.4299 19.5435 45.5583 19.2801C45.6866 19.0167 45.7917 18.6442 45.7917 18.4523C45.7917 18.2604 45.7087 17.9851 45.6072 17.8408ZM62.8967 24.7541C62.7499 24.5339 62.3931 24.2346 62.1035 24.0887C61.6092 23.8398 61.4312 23.8236 59.1796 23.8236H56.782V28.0855L59.2342 28.0456C61.4456 28.0098 61.7328 27.9818 62.159 27.76C62.4383 27.6146 62.7397 27.3252 62.8958 27.0531C63.0885 26.7164 63.1602 26.3985 63.1617 25.8733C63.163 25.3215 63.1015 25.0614 62.8967 24.7541Z" fill="#1A1A1A"/>
<path fill-rule="evenodd" clip-rule="evenodd" d="M70.4313 31.7759L70.3709 12.8672H74.9058C78.4403 12.8672 79.6724 12.907 80.4903 13.0474C81.1258 13.1565 81.8787 13.3871 82.3985 13.6316C82.8857 13.8607 83.529 14.2919 83.8858 14.6281C84.2316 14.9541 84.6517 15.4733 84.8194 15.7817C84.9872 16.0903 85.2124 16.6827 85.32 17.0985C85.441 17.5667 85.5137 18.3064 85.511 19.0424C85.5086 19.7182 85.4287 20.524 85.326 20.9113C85.2266 21.286 85.0321 21.8161 84.8936 22.0895C84.7552 22.3629 84.4616 22.8333 84.2414 23.1348C84.0211 23.4364 83.4827 23.924 83.045 24.2185C82.6071 24.5131 81.9299 24.8585 81.5399 24.9861C81.1499 25.1138 80.4148 25.2755 79.9065 25.3456C79.3979 25.4157 78.0826 25.473 76.9835 25.473H74.985L74.922 31.7759H70.4313ZM80.5059 17.7798C80.343 17.4889 80.0568 17.2097 79.7672 17.0594C79.3482 16.8417 79.05 16.7708 77.1378 16.7381L74.9811 16.7403V21.5852L76.9015 21.5845C77.9577 21.5842 79.0227 21.5283 79.2682 21.4603C79.5137 21.3924 79.8995 21.175 80.1253 20.9772C80.4119 20.7264 80.5936 20.4203 80.7266 19.9644C80.8489 19.5448 80.8911 19.122 80.8445 18.783C80.8046 18.4924 80.6523 18.0411 80.5059 17.7798Z" fill="#1A1A1A"/>
<path d="M88.4376 22.4688L88.4681 31.7759H92.9588L93.0213 24.5337L100.877 24.4716L100.942 20.6427H93.0179V16.8728H101.999V12.8672H88.4344C88.4305 14.5053 88.4258 18.8882 88.4376 22.4688Z" fill="#1A1A1A"/>
<rect x="109" y="8" width="93" height="29" rx="4" fill="#EF6911"/>
<path d="M125.273 18.3984C125.201 17.7161 124.893 17.1849 124.352 16.8047C123.815 16.4245 123.117 16.2344 122.258 16.2344C121.654 16.2344 121.135 16.3255 120.703 16.5078C120.271 16.6901 119.94 16.9375 119.711 17.25C119.482 17.5625 119.365 17.9193 119.359 18.3203C119.359 18.6536 119.435 18.9427 119.586 19.1875C119.742 19.4323 119.953 19.6406 120.219 19.8125C120.484 19.9792 120.779 20.1198 121.102 20.2344C121.424 20.349 121.75 20.4453 122.078 20.5234L123.578 20.8984C124.182 21.0391 124.763 21.2292 125.32 21.4687C125.883 21.7083 126.385 22.0104 126.828 22.375C127.276 22.7396 127.63 23.1797 127.891 23.6953C128.151 24.2109 128.281 24.8151 128.281 25.5078C128.281 26.4453 128.042 27.2708 127.563 27.9844C127.083 28.6927 126.391 29.2474 125.484 29.6484C124.583 30.0443 123.492 30.2422 122.211 30.2422C120.966 30.2422 119.885 30.0495 118.969 29.6641C118.057 29.2786 117.344 28.7161 116.828 27.9766C116.318 27.237 116.042 26.3359 116 25.2734H118.852C118.893 25.8307 119.065 26.2943 119.367 26.6641C119.669 27.0339 120.063 27.3099 120.547 27.4922C121.036 27.6745 121.583 27.7656 122.188 27.7656C122.818 27.7656 123.37 27.6719 123.844 27.4844C124.323 27.2917 124.698 27.026 124.969 26.6875C125.24 26.3437 125.378 25.9427 125.383 25.4844C125.378 25.0677 125.255 24.724 125.016 24.4531C124.776 24.1771 124.44 23.9479 124.008 23.7656C123.581 23.5781 123.081 23.4115 122.508 23.2656L120.688 22.7969C119.37 22.4583 118.328 21.9453 117.563 21.2578C116.802 20.5651 116.422 19.6458 116.422 18.5C116.422 17.5573 116.677 16.7318 117.188 16.0234C117.703 15.3151 118.404 14.7656 119.289 14.375C120.174 13.9792 121.177 13.7812 122.297 13.7812C123.432 13.7812 124.427 13.9792 125.281 14.375C126.141 14.7656 126.815 15.3099 127.305 16.0078C127.794 16.7005 128.047 17.4974 128.062 18.3984H125.273ZM138.169 24.9531V18H140.997V30H138.255V27.8672H138.13C137.859 28.5391 137.413 29.0885 136.794 29.5156C136.179 29.9427 135.421 30.1563 134.52 30.1563C133.734 30.1563 133.038 29.9818 132.434 29.6328C131.835 29.2786 131.367 28.7656 131.028 28.0938C130.69 27.4167 130.52 26.599 130.52 25.6406V18H133.348V25.2031C133.348 25.9635 133.557 26.5677 133.973 27.0156C134.39 27.4635 134.937 27.6875 135.614 27.6875C136.031 27.6875 136.434 27.5859 136.825 27.3828C137.216 27.1797 137.536 26.8776 137.786 26.4766C138.041 26.0703 138.169 25.5625 138.169 24.9531ZM143.685 30V18H146.388V20.0391H146.529C146.779 19.3516 147.193 18.8151 147.771 18.4297C148.349 18.0391 149.039 17.8438 149.841 17.8438C150.654 17.8438 151.339 18.0417 151.896 18.4375C152.458 18.8281 152.854 19.362 153.083 20.0391H153.208C153.474 19.3724 153.922 18.8411 154.552 18.4453C155.188 18.0443 155.94 17.8438 156.81 17.8438C157.914 17.8438 158.815 18.1927 159.513 18.8906C160.211 19.5885 160.56 20.6068 160.56 21.9453V30H157.724V22.3828C157.724 21.638 157.526 21.0937 157.13 20.75C156.734 20.401 156.25 20.2266 155.677 20.2266C154.995 20.2266 154.461 20.4401 154.076 20.8672C153.695 21.2891 153.505 21.8385 153.505 22.5156V30H150.732V22.2656C150.732 21.6458 150.544 21.151 150.169 20.7812C149.8 20.4115 149.315 20.2266 148.716 20.2266C148.31 20.2266 147.94 20.3307 147.607 20.5391C147.274 20.7422 147.008 21.0312 146.81 21.4062C146.612 21.776 146.513 22.2083 146.513 22.7031V30H143.685ZM163.209 30V18H165.912V20.0391H166.053C166.303 19.3516 166.717 18.8151 167.295 18.4297C167.873 18.0391 168.563 17.8438 169.365 17.8438C170.178 17.8438 170.863 18.0417 171.42 18.4375C171.983 18.8281 172.378 19.362 172.608 20.0391H172.733C172.998 19.3724 173.446 18.8411 174.076 18.4453C174.712 18.0443 175.464 17.8438 176.334 17.8438C177.438 17.8438 178.339 18.1927 179.037 18.8906C179.735 19.5885 180.084 20.6068 180.084 21.9453V30H177.248V22.3828C177.248 21.638 177.05 21.0937 176.654 20.75C176.259 20.401 175.774 20.2266 175.201 20.2266C174.519 20.2266 173.985 20.4401 173.6 20.8672C173.22 21.2891 173.029 21.8385 173.029 22.5156V30H170.256V22.2656C170.256 21.6458 170.069 21.151 169.694 20.7812C169.324 20.4115 168.839 20.2266 168.24 20.2266C167.834 20.2266 167.464 20.3307 167.131 20.5391C166.798 20.7422 166.532 21.0312 166.334 21.4062C166.136 21.776 166.037 22.2083 166.037 22.7031V30H163.209ZM182.733 30V18H185.561V30H182.733ZM184.155 16.2969C183.707 16.2969 183.322 16.1484 182.999 15.8516C182.676 15.5495 182.515 15.1875 182.515 14.7656C182.515 14.3385 182.676 13.9766 182.999 13.6797C183.322 13.3776 183.707 13.2266 184.155 13.2266C184.608 13.2266 184.994 13.3776 185.311 13.6797C185.634 13.9766 185.796 14.3385 185.796 14.7656C185.796 15.1875 185.634 15.5495 185.311 15.8516C184.994 16.1484 184.608 16.2969 184.155 16.2969ZM194.242 18V20.1875H187.343V18H194.242ZM189.046 15.125H191.875V26.3906C191.875 26.7708 191.932 27.0625 192.046 27.2656C192.166 27.4635 192.323 27.599 192.515 27.6719C192.708 27.7448 192.921 27.7812 193.156 27.7812C193.333 27.7812 193.494 27.7682 193.64 27.7422C193.791 27.7161 193.906 27.6927 193.984 27.6719L194.461 29.8828C194.31 29.9349 194.093 29.9922 193.812 30.0547C193.536 30.1172 193.198 30.1536 192.796 30.1641C192.088 30.1849 191.45 30.0781 190.882 29.8437C190.315 29.6042 189.864 29.2344 189.531 28.7344C189.203 28.2344 189.041 27.6094 189.046 26.8594V15.125Z" fill="white"/>
<path d="M111.063 47.5994V42.5194C111.063 42.5194 111.093 42.4394 111.143 42.4394H111.593C111.593 42.4394 111.673 42.4794 111.673 42.5194V42.9494C111.873 42.6094 112.263 42.3594 112.803 42.3594C113.633 42.3594 114.143 42.9294 114.143 43.8894V44.8594C114.143 45.8094 113.633 46.3694 112.793 46.3694C112.273 46.3694 111.903 46.1494 111.683 45.7994V47.6094C111.683 47.6094 111.643 47.6894 111.603 47.6894H111.143C111.143 47.6894 111.063 47.6594 111.063 47.6094V47.5994ZM112.653 45.7894C113.163 45.7894 113.513 45.4694 113.513 44.8494V43.8794C113.513 43.2394 113.173 42.9194 112.653 42.9194C112.083 42.9194 111.693 43.2994 111.693 43.8894V44.8394C111.693 45.4594 112.133 45.7894 112.653 45.7894Z" fill="#333333"/>
<path d="M115.123 44.8591V43.8891C115.123 42.9291 115.693 42.3691 116.673 42.3691C117.653 42.3691 118.223 42.9291 118.223 43.8891V44.8591C118.223 45.8091 117.653 46.3691 116.673 46.3691C115.693 46.3691 115.123 45.8191 115.123 44.8591ZM116.673 45.7991C117.263 45.7991 117.593 45.4591 117.593 44.8591V43.8891C117.593 43.2791 117.263 42.9391 116.673 42.9391C116.083 42.9391 115.753 43.2791 115.753 43.8891V44.8591C115.753 45.4591 116.083 45.7991 116.673 45.7991Z" fill="#333333"/>
<path d="M119.893 46.2095L118.943 42.5295C118.933 42.4695 118.963 42.4395 119.023 42.4395H119.523C119.523 42.4395 119.603 42.4595 119.613 42.5095L120.043 44.3395C120.133 44.7595 120.223 45.1895 120.313 45.6795C120.443 45.0395 120.373 45.1695 120.623 44.3395L121.153 42.5095C121.153 42.5095 121.203 42.4395 121.253 42.4395H121.723C121.723 42.4395 121.803 42.4695 121.823 42.5095L122.323 44.3495C122.443 44.8095 122.463 44.9895 122.613 45.6795H122.623C122.703 45.2495 122.673 45.2995 122.903 44.3395L123.333 42.5095C123.333 42.5095 123.373 42.4395 123.423 42.4395H123.893C123.953 42.4395 123.973 42.4695 123.963 42.5295L123.003 46.2095C123.003 46.2095 122.953 46.2795 122.903 46.2795H122.313C122.313 46.2795 122.233 46.2495 122.213 46.2095L121.793 44.7295C121.683 44.3495 121.543 43.8495 121.453 43.3095H121.443C121.343 43.7895 121.223 44.2595 121.093 44.7295L120.683 46.2095C120.683 46.2095 120.633 46.2795 120.583 46.2795H119.973C119.973 46.2795 119.893 46.2595 119.873 46.2095H119.893Z" fill="#333333"/>
<path d="M124.714 44.8591V43.8891C124.714 42.9291 125.264 42.3691 126.224 42.3691C127.184 42.3691 127.734 42.9291 127.734 43.8891V44.4891C127.734 44.4891 127.694 44.5691 127.654 44.5691H125.334V44.8591C125.334 45.4791 125.694 45.8291 126.284 45.8291C126.714 45.8291 126.994 45.6491 127.134 45.3091C127.154 45.2591 127.194 45.2391 127.244 45.2591L127.644 45.3891C127.704 45.4091 127.714 45.4391 127.704 45.4891C127.504 46.0591 127.024 46.3691 126.284 46.3691C125.324 46.3691 124.724 45.8191 124.724 44.8591H124.714ZM127.134 44.1191V43.8491C127.134 43.2591 126.814 42.8991 126.234 42.8991C125.654 42.8991 125.324 43.2591 125.324 43.8491V44.1191H127.134Z" fill="#333333"/>
<path d="M128.764 46.199V42.519C128.764 42.519 128.794 42.439 128.844 42.439H129.294C129.294 42.439 129.374 42.479 129.374 42.519V43.069C129.594 42.689 129.964 42.379 130.574 42.379C130.634 42.379 130.654 42.419 130.654 42.459V42.899C130.654 42.899 130.624 42.979 130.574 42.979C129.984 42.979 129.594 43.219 129.394 43.689V46.179C129.394 46.179 129.354 46.259 129.314 46.259H128.854C128.854 46.259 128.774 46.219 128.774 46.179L128.764 46.199Z" fill="#333333"/>
<path d="M131.214 44.8591V43.8891C131.214 42.9291 131.764 42.3691 132.724 42.3691C133.684 42.3691 134.234 42.9291 134.234 43.8891V44.4891C134.234 44.4891 134.194 44.5691 134.154 44.5691H131.834V44.8591C131.834 45.4791 132.194 45.8291 132.784 45.8291C133.214 45.8291 133.494 45.6491 133.634 45.3091C133.654 45.2591 133.694 45.2391 133.744 45.2591L134.144 45.3891C134.204 45.4091 134.214 45.4391 134.204 45.4891C134.004 46.0591 133.524 46.3691 132.784 46.3691C131.824 46.3691 131.224 45.8191 131.224 44.8591H131.214ZM133.634 44.1191V43.8491C133.634 43.2591 133.314 42.8991 132.734 42.8991C132.154 42.8991 131.824 43.2591 131.824 43.8491V44.1191H133.634Z" fill="#333333"/>
<path d="M135.163 44.829V43.859C135.163 42.909 135.673 42.349 136.503 42.349C137.023 42.349 137.393 42.569 137.613 42.899V41.039C137.613 41.039 137.653 40.959 137.693 40.959H138.163C138.163 40.959 138.243 40.989 138.243 41.039V46.189C138.243 46.189 138.203 46.269 138.163 46.269H137.713C137.713 46.269 137.633 46.229 137.633 46.189V45.729C137.433 46.089 137.053 46.349 136.503 46.349C135.673 46.349 135.163 45.779 135.163 44.819V44.829ZM136.663 45.789C137.233 45.789 137.613 45.409 137.613 44.819V43.869C137.613 43.249 137.173 42.919 136.663 42.919C136.153 42.919 135.793 43.229 135.793 43.859V44.829C135.793 45.469 136.143 45.789 136.663 45.789Z" fill="#333333"/>
<path d="M141.983 45.7688V46.1987C141.983 46.1987 141.943 46.2788 141.903 46.2788H141.453C141.453 46.2788 141.373 46.2387 141.373 46.1987V41.0488C141.373 41.0488 141.403 40.9688 141.453 40.9688H141.913C141.913 40.9688 141.993 40.9988 141.993 41.0488V42.9288C142.213 42.5788 142.643 42.3588 143.113 42.3588C143.943 42.3588 144.453 42.9288 144.453 43.8888V44.8588C144.453 45.8088 143.943 46.3688 143.103 46.3688C142.573 46.3688 142.203 46.1288 141.983 45.7688ZM142.953 45.7988C143.463 45.7988 143.813 45.4788 143.813 44.8588V43.8888C143.813 43.2488 143.473 42.9288 142.953 42.9288C142.383 42.9288 141.993 43.3088 141.993 43.8988V44.8488C141.993 45.4688 142.433 45.7988 142.953 45.7988Z" fill="#333333"/>
<path d="M145.523 47.2895C145.973 46.9795 146.223 46.7395 146.413 46.1095L145.043 42.5395C145.023 42.4795 145.043 42.4395 145.113 42.4395H145.623C145.623 42.4395 145.703 42.4695 145.713 42.5095L146.313 44.1795C146.463 44.5895 146.603 45.0095 146.723 45.4595C146.853 44.9995 146.973 44.6495 147.133 44.1795L147.703 42.5095C147.703 42.5095 147.743 42.4395 147.793 42.4395H148.273C148.333 42.4395 148.363 42.4795 148.343 42.5395L147.003 46.2395C146.763 46.8795 146.433 47.3995 145.893 47.7295C145.853 47.7595 145.813 47.7595 145.783 47.7195L145.493 47.4095C145.493 47.4095 145.453 47.3195 145.503 47.2895H145.523Z" fill="#333333"/>
<path d="M174.227 44.3027H174.67L174.892 44.6739L174.67 45.0451H174.227L174.005 44.6739L174.227 44.3027Z" fill="#0101D7"/>
<path d="M151.739 46.2642V41.7234H152.335V46.2642H151.739ZM157.809 42.6763C157.699 42.5569 157.529 42.4482 157.299 42.3502C157.07 42.2521 156.814 42.2031 156.531 42.2031C156.169 42.2031 155.902 42.2691 155.73 42.4013C155.558 42.5335 155.472 42.7147 155.472 42.9449C155.472 43.107 155.516 43.2349 155.604 43.3287C155.693 43.4225 155.827 43.4992 156.008 43.5589C156.194 43.6186 156.428 43.6804 156.71 43.7444C157.037 43.8126 157.319 43.8957 157.558 43.9938C157.796 44.0919 157.979 44.2241 158.107 44.3903C158.235 44.5524 158.299 44.7698 158.299 45.0427C158.299 45.3326 158.224 45.5714 158.074 45.759C157.924 45.9466 157.719 46.0852 157.458 46.1747C157.202 46.2642 156.913 46.309 156.591 46.309C155.858 46.309 155.22 46.0958 154.677 45.6695L154.962 45.1834C155.059 45.2772 155.189 45.371 155.353 45.4648C155.52 45.5586 155.71 45.6375 155.922 45.7014C156.138 45.7611 156.366 45.791 156.604 45.791C156.94 45.791 157.2 45.7334 157.385 45.6183C157.571 45.4989 157.663 45.3262 157.663 45.1002C157.663 44.9297 157.61 44.7933 157.505 44.6909C157.403 44.5886 157.251 44.5033 157.048 44.4351C156.845 44.3669 156.597 44.2987 156.306 44.2304C155.988 44.1537 155.721 44.0706 155.505 43.981C155.289 43.8872 155.125 43.7657 155.015 43.6165C154.909 43.4672 154.856 43.2732 154.856 43.0345C154.856 42.7445 154.929 42.4994 155.075 42.299C155.22 42.0986 155.421 41.9472 155.677 41.8449C155.933 41.7426 156.222 41.6914 156.544 41.6914C156.858 41.6914 157.143 41.7383 157.399 41.8321C157.659 41.9259 157.889 42.0517 158.087 42.2094L157.809 42.6763ZM162.579 46.2962C162.248 46.2962 161.947 46.2323 161.678 46.1044C161.409 45.9764 161.175 45.8038 160.976 45.5863C160.782 45.3646 160.632 45.1173 160.526 44.8444C160.42 44.5673 160.367 44.2837 160.367 43.9938C160.367 43.6911 160.422 43.4033 160.533 43.1304C160.648 42.8533 160.804 42.6081 161.003 42.3949C161.206 42.1775 161.442 42.0069 161.711 41.8833C161.98 41.7554 162.274 41.6914 162.592 41.6914C162.923 41.6914 163.223 41.7575 163.492 41.8897C163.762 42.0218 163.993 42.1988 164.188 42.4205C164.382 42.6422 164.532 42.8895 164.638 43.1624C164.744 43.4353 164.797 43.7145 164.797 44.0002C164.797 44.3029 164.741 44.5929 164.631 44.87C164.521 45.1429 164.364 45.388 164.161 45.6055C163.962 45.8187 163.728 45.9871 163.459 46.1108C163.19 46.2344 162.897 46.2962 162.579 46.2962ZM160.97 43.9938C160.97 44.2241 161.007 44.4479 161.082 44.6653C161.162 44.8785 161.272 45.0683 161.413 45.2346C161.555 45.4008 161.725 45.533 161.923 45.6311C162.122 45.7291 162.342 45.7782 162.585 45.7782C162.837 45.7782 163.062 45.727 163.261 45.6247C163.459 45.5224 163.627 45.3859 163.764 45.2154C163.905 45.0448 164.011 44.853 164.082 44.6398C164.157 44.4266 164.194 44.2113 164.194 43.9938C164.194 43.7636 164.154 43.5419 164.075 43.3287C164 43.1155 163.89 42.9257 163.744 42.7595C163.603 42.5889 163.433 42.4567 163.234 42.3629C163.04 42.2649 162.824 42.2158 162.585 42.2158C162.334 42.2158 162.109 42.267 161.91 42.3693C161.711 42.4674 161.541 42.6017 161.4 42.7723C161.263 42.9428 161.157 43.1347 161.082 43.3479C161.007 43.5568 160.97 43.7721 160.97 43.9938ZM167.165 41.7234L168.721 45.5415L170.27 41.7234H170.899L168.992 46.2642H168.449L166.536 41.7234H167.165ZM174.17 41.7234H174.674L176.594 46.2642H175.916L175.402 44.934L174.422 42.3885L172.879 46.2642H172.244L174.17 41.7234ZM178.81 46.2642V41.7234H179.406V45.7526H182.028V46.2642H178.81ZM187.457 45.7526V46.2642H184.266V41.7234H187.397V42.235H184.862V43.706H187.066V44.1857H184.862V45.7526H187.457ZM190.459 42.7851V46.2642H189.864V41.7234H190.367L193.24 45.2729V41.7298H193.836V46.2642H193.293L190.459 42.7851ZM199.938 42.235H198.315V46.2642H197.72V42.235H196.097V41.7234H199.938V42.235Z" fill="#0A0B0F"/>
</svg>
