<svg width="443" height="139" viewBox="0 0 443 139" fill="none" xmlns="http://www.w3.org/2000/svg">
<g clip-path="url(#clip0_247_6187)">
<path fill-rule="evenodd" clip-rule="evenodd" d="M46.9538 2.92066C47.9158 3.41153 48.2956 4.5851 47.8043 5.5421C46.8341 7.43135 46.3076 10.1415 46.1053 12.93C45.9072 15.6793 46.0393 18.2822 46.2437 19.8146C46.3113 20.3282 46.1719 20.8477 45.8562 21.2586C45.5405 21.6696 45.0743 21.9384 44.5602 22.006C44.3056 22.0395 44.047 22.0225 43.799 21.9561C43.551 21.8896 43.3185 21.7751 43.1148 21.6189C42.7035 21.3034 42.4344 20.8377 42.3668 20.324C42.1273 18.5214 41.989 15.6545 42.2058 12.6495C42.4205 9.67947 42.9944 6.3506 44.3238 3.76628C44.5618 3.30715 44.9718 2.96062 45.4645 2.80222C45.9571 2.64382 46.4924 2.68639 46.9538 2.92066Z" fill="#1A1A1A"/>
<path d="M35.6102 33.7489C36.7848 28.1945 24.8507 27.287 18.7382 27.5284C-5.36318 28.044 4.71088 42.7599 18.0549 44.3996C23.5461 45.0761 34.1424 40.6912 35.6102 33.7489Z" fill="#CFEDFC"/>
<path d="M5.95983 30.6157C6.63694 30.0588 7.51429 29.5556 8.61665 29.1245L8.95934 30.1991L10.7078 32.4059L13.2676 34.716L15.237 34.4272L25.0716 33.4104L35.4099 34.5118C35.0858 35.543 34.5594 36.5145 33.8823 37.4158C30.8209 36.8053 23.6782 36.6238 19.7972 36.6155C18.7609 37.8324 18.3831 41.9615 18.3026 44.4283L18.0549 44.4014C16.9777 44.2696 15.9127 44.053 14.8696 43.7538C14.7746 41.8254 15.4414 39.0678 15.9286 37.5354C12.8878 37.7004 9.66948 39.1957 7.89619 40.2373C7.1216 39.6263 6.41683 38.9319 5.79468 38.1665L9.7376 36.0091C9.12861 35.7018 7.20463 32.6803 5.95983 30.6157Z" fill="#00ACE6"/>
<path d="M33.5664 40.4517L37.1109 42.838L21.0998 66.4268L17.2518 63.8363L14.2977 59.4968L12.8176 52.3317L15.4682 46.0369L21.8264 47.9695L33.5664 40.4517Z" fill="#FFE100"/>
<path fill-rule="evenodd" clip-rule="evenodd" d="M30.346 24.7709C35.0941 14.5718 46.6483 17.0716 52.1044 20.7469L37.1089 42.8384L35.3893 41.6792C33.2031 44.2037 28.742 46.1136 26.7809 46.753C26.9811 49.591 29.3717 51.7772 30.5401 52.5156L25.6145 59.7756C19.8632 55.9022 18.1828 50.3644 18.0631 48.0812L15.9286 47.9657C12.1611 56.4736 18.0693 63.0674 21.715 65.5197L15.3505 74.8958L16.457 66.093C9.28341 59.9715 10.5674 50.7192 12.1054 46.8602C7.16331 45.8826 -1.41203 38.7422 0.198171 32.6702C3.0057 22.1041 21.4136 22.2794 30.344 24.7688M35.6143 33.7118C36.729 28.1884 24.8342 27.2871 18.734 27.5284C14.8572 27.6109 11.8639 28.0606 9.62609 28.7659C10.6211 31.8452 12.9291 33.3777 14.0521 33.7737C21.1246 32.1732 30.3089 32.9116 35.6143 33.7118ZM35.1684 35.17C31.469 34.6915 25.9551 34.5698 23.096 34.576C19.2109 37.216 18.7134 41.671 19.0437 44.4657C24.3037 44.5564 32.8315 40.9037 35.1663 35.1721M17.2683 44.2883C16.5582 40.2396 18.8434 36.4199 20.2451 34.8627C13.0509 35.137 8.51753 37.1706 6.30247 38.7649C8.67235 41.3472 12.7433 43.5561 17.2683 44.2904M5.04322 37.0964C6.82063 36.0136 10.0059 35.0194 11.74 34.5739C9.23386 32.7074 8.13975 30.7583 7.75165 29.4981C3.8335 31.375 3.3876 34.312 5.04322 37.0964ZM70.632 18.868C70.2402 18.5287 69.7299 18.3582 69.2127 18.3938C68.6955 18.4293 68.2134 18.668 67.8719 19.0577C66.4743 20.6603 64.1437 22.1556 61.6231 23.3807C59.1335 24.5894 56.6604 25.4371 55.1575 25.8186C54.9095 25.8823 54.6764 25.9941 54.4716 26.1478C54.2668 26.3014 54.0943 26.4938 53.964 26.7141C53.8336 26.9343 53.748 27.1781 53.7119 27.4314C53.6758 27.6847 53.6901 27.9427 53.7538 28.1905C53.8175 28.4383 53.9294 28.6712 54.0832 28.8758C54.237 29.0804 54.4296 29.2527 54.6501 29.383C54.8705 29.5132 55.1145 29.5988 55.368 29.6348C55.6216 29.6709 55.8797 29.6566 56.1278 29.593C57.8949 29.1413 60.6178 28.2008 63.3365 26.8808C66.0243 25.5773 68.9103 23.8056 70.8239 21.6152C70.9929 21.4228 71.1221 21.1987 71.204 20.9561C71.2859 20.7135 71.3189 20.4571 71.301 20.2016C71.2832 19.9462 71.2148 19.6969 71.1 19.4679C70.9852 19.239 70.8261 19.0351 70.632 18.868Z" fill="#1A1A1A"/>
<path d="M46.1383 40.8376C50.876 37.682 56.167 48.374 58.221 54.1139C66.722 76.5828 49.2576 72.7548 42.7569 61.0336C40.0815 56.2094 40.2178 44.7811 46.1383 40.8376Z" fill="#CFEDFC"/>
<path d="M60.1099 67.0725C60.3762 66.2413 60.5166 65.243 60.5084 64.0633L59.3791 64.1458L56.6728 63.3517L53.5639 61.8461L53.1014 59.9197L50.3827 50.4529L45.5046 41.3057C44.6623 41.9925 43.9563 42.8402 43.3701 43.8013C45.0773 46.4 47.9096 52.9382 49.3608 56.5207C48.6177 57.9315 44.908 59.8207 42.6393 60.8128L42.7569 61.0335C43.2875 61.9905 43.8923 62.8939 44.5488 63.7354C46.3799 63.1042 48.7023 61.4584 49.9471 60.4395C50.9256 63.3125 50.7316 66.8435 50.4219 68.871C51.3343 69.3825 52.2509 69.7785 53.1345 70.0425L53.6753 65.5937C54.1914 66.0412 57.7215 66.6909 60.1099 67.0725Z" fill="#00ACE6"/>
<path d="M40.6534 45.2221L37.1109 42.8379L21.0998 66.4267L24.9457 69.0172L30.0901 70.1309L37.3174 68.8274L42.1955 64.0342L38.0255 58.8759L40.6534 45.2221Z" fill="#FFE100"/>
<path fill-rule="evenodd" clip-rule="evenodd" d="M56.4663 42.3575C64.1973 34.1693 57.5625 24.4199 52.1064 20.7466L37.1109 42.838L38.8305 43.9971C37.2946 46.9568 37.179 51.7934 37.3112 53.8435C34.5945 54.716 31.6651 53.3217 30.5401 52.5153L25.6145 59.7753C31.3658 63.6466 37.1501 63.1371 39.3239 62.3946L40.2281 64.3251C33.7047 70.9788 25.3606 67.9758 21.7149 65.5214L15.3526 74.8955L23.1394 70.5931C31.5186 74.9408 39.6583 70.3085 42.6826 67.4478C45.4344 71.6511 55.2834 76.9167 60.337 73.1671C69.1353 66.6351 62.1123 49.6855 56.4663 42.3575ZM46.1672 40.8188C50.8967 37.7292 56.1711 48.3882 58.221 54.1158C59.5876 57.7313 60.2854 60.6663 60.4608 62.9948C57.2198 63.2217 54.9325 61.6604 54.1439 60.7715C53.0023 53.6373 48.8901 45.4244 46.1672 40.8188ZM44.974 41.7738C46.7989 45.016 48.9686 50.065 50.0276 52.7112C49.0161 57.2858 45.0525 59.4061 42.3234 60.1424C40.2797 55.3141 40.5047 46.072 44.9761 41.7758M43.1533 61.7161C47.1912 60.8643 49.8996 57.3291 50.8265 55.4523C53.2521 62.2028 53.0477 67.1508 52.3872 69.7928C49.0966 68.5656 45.5232 65.6266 43.1533 61.7161ZM54.4123 70.3353C54.7591 68.2893 54.499 64.9728 54.2678 63.2052C56.9411 64.8263 59.1644 65.111 60.4815 64.9996C60.1945 69.3205 57.6224 70.8261 54.4123 70.3353ZM107.947 47.623V26.5401H118.172C126.155 26.5401 128.81 26.6185 130.271 26.897C131.303 27.095 132.736 27.524 133.456 27.8519C134.179 28.1819 135.319 28.9656 135.992 29.5906C136.667 30.2196 137.488 31.2921 137.821 31.9769C138.153 32.6616 138.537 33.9321 138.673 34.7984C138.842 35.8442 138.842 36.9103 138.673 37.9561C138.501 38.9374 138.212 39.8945 137.81 40.8065C137.37 41.637 136.795 42.3884 136.107 43.0298C135.508 43.5537 134.443 44.257 133.741 44.5911L132.466 45.1996L133.196 45.3852C133.601 45.4883 134.394 45.7668 134.959 46.004C135.525 46.2453 136.501 46.9115 137.127 47.4869C137.752 48.0623 138.516 48.9245 138.822 49.405C139.127 49.8856 139.55 50.8611 139.763 51.5748C139.98 52.3028 140.151 53.7548 140.151 54.8871C140.151 56.2773 139.992 57.3828 139.639 58.4532C139.358 59.305 138.727 60.5281 138.235 61.1716C137.587 61.9622 136.837 62.6634 136.004 63.2568C135.101 63.8416 134.133 64.3192 133.12 64.6799C132.274 64.9563 130.571 65.2883 129.338 65.4183C128.108 65.5461 122.79 65.6555 117.524 65.6575L107.947 65.6616L107.927 54.6066L107.278 55.4564C106.923 55.9225 105.858 57.0775 104.913 58.0221C103.965 58.9647 102.491 60.2084 101.634 60.7859C100.778 61.3634 99.1861 62.2503 98.0961 62.7576C97.0082 63.2671 95.2927 63.9168 94.2853 64.2014C93.2201 64.5066 91.3787 64.781 89.8717 64.8614C87.9189 64.9645 86.8289 64.8965 85.4189 64.583C84.193 64.2861 83.0005 63.8652 81.86 63.3269C80.931 62.8649 79.6181 61.9904 78.943 61.3881C78.268 60.7818 77.2028 59.5195 76.5773 58.5831C75.9518 57.6468 75.1776 56.1246 74.8556 55.2006C74.4708 54.0019 74.1904 52.7722 74.0175 51.5253C73.8792 50.4239 73.8358 48.8069 73.9205 47.9324C74.0051 47.0579 74.2879 45.544 74.548 44.5685C74.8081 43.5929 75.3077 42.2234 75.6607 41.5304C76.0116 40.8374 76.7466 39.6123 77.2916 38.812C77.8365 38.0076 79.0669 36.5886 80.0227 35.6523C80.9806 34.7159 82.3822 33.5836 83.1399 33.136C83.8954 32.6885 85.2042 32.0326 86.0465 31.6778C87.4028 31.1086 89.2462 30.9147 90.3445 30.9147C91.4427 30.9147 93.282 31.0838 94.4938 31.7191C95.2143 32.0986 96.2836 32.9009 96.874 33.5052C97.6275 34.2786 98.061 34.9985 98.3356 35.9431C98.6081 36.8712 98.6762 37.6838 98.5627 38.5893C98.4739 39.307 98.0569 40.5775 97.6378 41.4128C97.1568 42.3719 96.1969 43.6156 95.0326 44.7891C93.8054 45.9849 92.4742 47.0693 91.0546 48.0293C89.88 48.7904 88.2347 49.7206 87.3945 50.098C86.5543 50.4755 84.9916 51.0591 83.9181 51.3974C82.8447 51.7315 81.445 52.0842 80.8071 52.1811C80.0206 52.2966 79.649 52.4699 79.649 52.7153C79.649 52.9154 79.9773 53.7631 80.3778 54.5984C80.7782 55.4358 81.5565 56.5825 82.1077 57.1476C82.6589 57.7128 83.8211 58.5068 84.6902 58.9131C85.9536 59.501 86.7071 59.6763 88.4164 59.7711C89.9254 59.8578 91.1062 59.7711 92.4068 59.4824C93.4224 59.2596 95.2205 58.6058 96.4034 58.0304C97.8362 57.303 99.2086 56.4623 100.507 55.5162C101.759 54.548 102.947 53.5008 104.064 52.3812C105.036 51.3615 105.953 50.2902 106.81 49.172L107.947 47.623ZM128.863 35.9905C128.493 35.4756 128.014 35.0482 127.46 34.7386C126.737 34.3776 125.893 34.3137 121.793 34.3137H116.975V41.6046H121.681C126.074 41.6046 126.456 41.5675 127.474 41.056C128.182 40.7013 128.713 40.2125 128.989 39.6597C129.25 39.077 129.395 38.4495 129.417 37.8117C129.417 37.1806 129.216 36.5123 128.863 35.9905ZM94.147 36.7949C93.8501 36.4233 93.4807 36.116 93.0612 35.8915C92.6504 35.6811 91.7028 35.5285 90.7904 35.5285C89.4816 35.5285 88.9324 35.6729 87.4255 36.4175C86.1167 37.0651 85.1237 37.8117 83.7922 39.1565C82.5288 40.4352 81.6411 41.617 80.9186 42.9927C80.3406 44.0858 79.7151 45.7193 79.5252 46.6227C79.3353 47.5261 79.2362 48.3222 79.3043 48.3903C79.3724 48.4583 80.2766 48.3387 81.315 48.1221C82.6165 47.8277 83.8928 47.4311 85.132 46.9362C86.193 46.4948 88.0221 45.4945 89.1967 44.7128C90.3713 43.9311 91.8329 42.7205 92.4481 42.0213C93.0612 41.3241 93.7816 40.3094 94.0459 39.7649C94.3122 39.2225 94.5289 38.4531 94.5289 38.0571C94.5289 37.6611 94.3576 37.0919 94.147 36.7949ZM129.84 51.0571C129.536 50.6033 128.799 49.9846 128.201 49.6855C127.181 49.1699 126.813 49.139 122.167 49.139H117.216V57.9273L122.278 57.8448C126.844 57.7726 127.437 57.7148 128.316 57.257C128.941 56.9106 129.465 56.4082 129.838 55.7988C130.236 55.1037 130.383 54.4478 130.387 53.365C130.389 52.2265 130.263 51.6903 129.84 51.0571ZM145.395 65.5379L145.271 26.5381H154.633C161.928 26.5381 164.471 26.6206 166.16 26.9093C167.473 27.1362 169.027 27.6106 170.101 28.1159C171.106 28.5882 172.434 29.4771 173.171 30.1701C173.885 30.8425 174.752 31.913 175.097 32.5503C175.441 33.1876 175.908 34.4065 176.131 35.2666C176.381 36.2318 176.531 37.756 176.525 39.274C176.521 40.6683 176.356 42.3306 176.143 43.1309C175.937 43.9023 175.536 44.9954 175.251 45.5605C174.852 46.3089 174.402 47.029 173.903 47.7158C173.449 48.3366 172.339 49.3431 171.434 49.9495C170.53 50.558 169.133 51.2695 168.328 51.5335C167.523 51.7975 166.005 52.1316 164.954 52.276C163.904 52.4204 161.191 52.538 158.922 52.538H154.796L154.666 65.5379H145.395ZM166.193 36.6711C165.857 36.071 165.264 35.4955 164.667 35.1861C163.803 34.7365 163.187 34.588 159.238 34.522L154.787 34.5261V44.519H158.751C160.933 44.519 163.132 44.4014 163.637 44.2611C164.143 44.1209 164.942 43.6733 165.407 43.265C165.999 42.7493 166.375 42.1161 166.649 41.1756C166.901 40.3094 166.988 39.439 166.891 38.7398C166.768 38.0181 166.532 37.3201 166.193 36.6711Z" fill="#1A1A1A"/>
<path d="M182.568 46.3422L182.629 65.5379H191.898L192.028 50.6013L208.246 50.4734L208.38 42.574H192.022V34.7984H210.562V26.5381H182.559C182.551 29.9165 182.543 38.9564 182.568 46.3422Z" fill="#1A1A1A"/>
<path d="M408.743 16.5H233.272C228.712 16.5 225.015 20.1937 225.015 24.75V68.0625C225.015 72.6189 228.712 76.3125 233.272 76.3125H408.743C413.303 76.3125 417 72.6189 417 68.0625V24.75C417 20.1937 413.303 16.5 408.743 16.5Z" fill="#EF6911"/>
<path d="M258.608 37.946C258.458 36.5393 257.824 35.4441 256.707 34.6604C255.598 33.8766 254.157 33.4848 252.384 33.4848C251.137 33.4848 250.067 33.6725 249.174 34.0478C248.282 34.4246 247.6 34.9347 247.126 35.5782C246.654 36.2245 246.412 36.9601 246.4 37.7851C246.4 38.474 246.556 39.07 246.868 39.5733C247.19 40.0793 247.626 40.509 248.175 40.8623C248.723 41.2061 249.33 41.4962 249.998 41.7327C250.664 41.9692 251.335 42.1686 252.012 42.3308L255.109 43.1022C256.356 43.3923 257.555 43.7842 258.705 44.2778C259.867 44.7728 260.904 45.3964 261.818 46.1485C262.736 46.889 263.484 47.8173 264.013 48.871C264.549 49.9353 264.818 51.1817 264.818 52.6103C264.818 54.5436 264.324 56.2458 263.335 57.7171C262.345 59.1787 260.914 60.3227 259.044 61.1491C257.184 61.9658 254.932 62.3742 252.287 62.3742C249.716 62.3742 247.485 61.9768 245.594 61.1821C243.712 60.3873 242.238 59.2275 241.175 57.7026C240.122 56.1764 239.552 54.3174 239.465 52.1256H245.353C245.438 53.2765 245.793 54.2328 246.416 54.9946C247.041 55.7577 247.853 56.327 248.852 56.7023C249.939 57.0905 251.086 57.2819 252.24 57.2675C253.54 57.2675 254.68 57.0736 255.658 56.6858C256.648 56.2898 257.422 55.7419 257.981 55.042C258.541 54.3353 258.826 53.5082 258.835 52.5608C258.824 51.7015 258.572 50.9933 258.078 50.4365C257.582 49.8658 256.889 49.3928 255.997 49.0175C254.993 48.5926 253.958 48.2478 252.9 47.9862L249.143 47.0168C246.422 46.3197 244.272 45.2623 242.692 43.8447C241.122 42.4147 240.336 40.5186 240.336 38.1563C240.336 36.2121 240.864 34.5092 241.918 33.0475C242.982 31.5873 244.427 30.4543 246.255 29.6485C248.083 28.8318 250.152 28.4234 252.465 28.4234C254.808 28.4234 256.862 28.8318 258.625 29.6485C260.4 30.4529 261.793 31.5756 262.803 33.0166C263.813 34.4466 264.334 36.0897 264.366 37.946H258.608ZM285.23 51.4656V37.1251H291.068V61.8751H285.408V57.4758H285.15C284.593 58.8606 283.632 60.0458 282.392 60.8768C281.123 61.7568 279.558 62.1968 277.697 62.1968C276.073 62.1968 274.638 61.8373 273.391 61.1181C272.155 60.3894 271.188 59.3306 270.488 57.9419C269.791 56.5476 269.441 54.8619 269.44 52.8846V37.1251H275.278V51.9813C275.278 53.5488 275.708 54.7952 276.568 55.7206C277.428 56.6446 278.557 57.1066 279.956 57.1066C280.816 57.1066 281.649 56.8969 282.456 56.4775C283.275 56.047 283.961 55.4008 284.439 54.6089C284.966 53.7701 285.23 52.7224 285.23 51.4656ZM296.617 61.8751V37.1251H302.197V41.3326H302.488C303.004 39.9136 303.859 38.8067 305.052 38.012C306.245 37.2076 307.67 36.8047 309.325 36.8033C311.004 36.8033 312.418 37.211 313.567 38.0264C314.728 38.8335 315.544 39.9349 316.018 41.3305H316.276C316.821 39.9639 317.794 38.8104 319.05 38.0429C320.362 37.2179 321.916 36.8047 323.712 36.8033C325.991 36.8033 327.851 37.5232 329.292 38.9628C330.733 40.4024 331.453 42.502 331.453 45.2616V61.8751H325.599V46.165C325.599 44.6278 325.19 43.5051 324.372 42.797C323.555 42.0778 322.555 41.7183 321.373 41.7183C319.965 41.7183 318.863 42.1583 318.068 43.0383C317.282 43.9086 316.889 45.0423 316.889 46.4393V61.8751H311.165V45.9237C311.165 44.645 310.777 43.624 310.002 42.8609C309.24 42.0991 308.24 41.7183 307.003 41.7183C306.163 41.7183 305.4 41.9328 304.713 42.3618C304.013 42.7974 303.444 43.4156 303.068 44.15C302.659 44.9131 302.455 45.8048 302.455 46.825V61.8751H296.617ZM336.922 61.8751V37.1251H342.501V41.3326H342.793C343.309 39.9136 344.163 38.8067 345.356 38.012C346.55 37.2076 347.974 36.8047 349.63 36.8033C351.309 36.8033 352.723 37.211 353.872 38.0264C355.034 38.8335 355.851 39.9349 356.324 41.3305H356.582C357.124 39.9626 358.098 38.8085 359.355 38.0429C360.666 37.2179 362.22 36.8047 364.016 36.8033C366.295 36.8033 368.155 37.5232 369.596 38.9628C371.037 40.4024 371.758 42.502 371.758 45.2616V61.8751H365.903V46.165C365.903 44.6278 365.494 43.5051 364.677 42.797C363.861 42.0778 362.861 41.7183 361.677 41.7183C360.269 41.7183 359.168 42.1583 358.372 43.0383C357.588 43.9086 357.195 45.0423 357.194 46.4393V61.8751H351.469V45.9237C351.469 44.645 351.082 43.624 350.309 42.8609C349.545 42.0991 348.545 41.7183 347.307 41.7183C346.468 41.7183 345.705 41.9328 345.018 42.3618C344.317 42.7974 343.748 43.4156 343.373 44.15C342.964 44.9131 342.76 45.8048 342.76 46.825V61.8751H336.922ZM377.226 61.8751V37.1251H383.064V61.8751H377.226ZM380.162 33.6127C379.277 33.628 378.421 33.2988 377.775 32.6948C377.459 32.4141 377.206 32.069 377.033 31.6827C376.861 31.2965 376.773 30.8779 376.776 30.455C376.776 29.5722 377.109 28.8256 377.775 28.2151C378.416 27.6013 379.274 27.2655 380.162 27.2808C381.097 27.2808 381.893 27.5922 382.548 28.2151C383.215 28.827 383.549 29.5736 383.549 30.455C383.549 31.3253 383.215 32.072 382.548 32.6948C381.904 33.3026 381.047 33.6324 380.162 33.6127ZM400.985 37.1251V41.6378H386.743V37.1251H400.985ZM390.258 31.1954H396.098V54.4315C396.098 55.2153 396.216 55.8168 396.451 56.2362C396.699 56.6446 397.022 56.9237 397.42 57.0736C397.817 57.2235 398.258 57.2991 398.743 57.3005C399.108 57.3005 399.441 57.273 399.742 57.218C400.054 57.163 400.291 57.1148 400.452 57.0736L401.437 61.6317C401.124 61.7403 400.678 61.8593 400.097 61.9885C399.407 62.1315 398.704 62.2075 398 62.2154C396.538 62.2567 395.221 62.036 394.048 61.5533C392.911 61.086 391.939 60.2885 391.26 59.264C390.582 58.2327 390.249 56.9436 390.258 55.3968V31.1954Z" fill="white"/>
<path d="M359.667 91.375H360.581L361.039 92.1381L360.581 92.9054H359.667L359.208 92.1402L359.667 91.375Z" fill="#0101D7"/>
</g>
<path d="M0 138.265V113.584C0 113.584 0.149624 113.195 0.399047 113.195H2.64387C2.64387 113.195 3.04292 113.39 3.04292 113.584V115.673C4.04061 114.021 5.98612 112.807 8.67988 112.807C12.8203 112.807 15.3644 115.576 15.3644 120.24V124.953C15.3644 129.568 12.8203 132.289 8.62999 132.289C6.036 132.289 4.19027 131.22 3.09281 129.519V138.313C3.09281 138.313 2.89326 138.702 2.69373 138.702H0.399047C0.399047 138.702 0 138.556 0 138.313V138.265ZM7.93161 129.471C10.4757 129.471 12.2217 127.916 12.2217 124.904V120.191C12.2217 117.082 10.5256 115.527 7.93161 115.527C5.0882 115.527 3.14271 117.373 3.14271 120.24V124.855C3.14271 127.868 5.33762 129.471 7.93161 129.471ZM20.2531 124.953V120.24C20.2531 115.576 23.0965 112.855 27.9851 112.855C32.8738 112.855 35.7172 115.576 35.7172 120.24V124.953C35.7172 129.568 32.8738 132.289 27.9851 132.289C23.0965 132.289 20.2531 129.617 20.2531 124.953ZM27.9851 129.519C30.9283 129.519 32.5745 127.868 32.5745 124.953V120.24C32.5745 117.276 30.9283 115.624 27.9851 115.624C25.042 115.624 23.3958 117.276 23.3958 120.24V124.953C23.3958 127.868 25.042 129.519 27.9851 129.519ZM44.0479 131.511L39.3089 113.633C39.259 113.341 39.4087 113.195 39.708 113.195H42.2022C42.2022 113.195 42.6013 113.292 42.6512 113.535L44.7962 122.426C45.2452 124.467 45.6942 126.556 46.1431 128.936C46.7916 125.827 46.4424 126.459 47.6895 122.426L50.3334 113.535C50.3334 113.535 50.5828 113.195 50.8322 113.195H53.1768C53.1768 113.195 53.5759 113.341 53.6756 113.535L56.1699 122.475C56.7685 124.71 56.8682 125.584 57.6165 128.936H57.6664C58.0655 126.847 57.9158 127.09 59.0632 122.426L61.2082 113.535C61.2082 113.535 61.4077 113.195 61.6571 113.195H64.0017C64.301 113.195 64.4008 113.341 64.3509 113.633L59.562 131.511C59.562 131.511 59.3126 131.851 59.0632 131.851H56.12C56.12 131.851 55.7209 131.706 55.6211 131.511L53.526 124.321C52.9773 122.475 52.2789 120.046 51.8299 117.422H51.78C51.2812 119.754 50.6826 122.038 50.0341 124.321L47.9888 131.511C47.9888 131.511 47.7394 131.851 47.49 131.851H44.447C44.447 131.851 44.048 131.754 43.9482 131.511H44.0479ZM68.0972 124.953V120.24C68.0972 115.576 70.8409 112.855 75.6298 112.855C80.4187 112.855 83.1624 115.576 83.1624 120.24V123.155C83.1624 123.155 82.9628 123.544 82.7633 123.544H71.1901V124.953C71.1901 127.965 72.9859 129.665 75.9291 129.665C78.0741 129.665 79.4709 128.791 80.1693 127.139C80.2691 126.896 80.4686 126.799 80.718 126.896L82.7134 127.527C83.0127 127.625 83.0626 127.77 83.0127 128.013C82.015 130.783 79.6205 132.289 75.9291 132.289C71.1402 132.289 68.1471 129.617 68.1471 124.953H68.0972ZM80.1693 121.357V120.046C80.1693 117.179 78.573 115.43 75.6797 115.43C72.7864 115.43 71.1402 117.179 71.1402 120.046V121.357H80.1693ZM88.3005 131.458V113.579C88.3005 113.579 88.4501 113.19 88.6995 113.19H90.9443C90.9443 113.19 91.3434 113.385 91.3434 113.579V116.251C92.4408 114.405 94.2866 112.899 97.3296 112.899C97.6289 112.899 97.7286 113.093 97.7286 113.288V115.425C97.7286 115.425 97.579 115.814 97.3296 115.814C94.3864 115.814 92.4408 116.98 91.4431 119.263V131.361C91.4431 131.361 91.2436 131.749 91.0441 131.749H88.7494C88.7494 131.749 88.3503 131.555 88.3503 131.361L88.3005 131.458ZM100.522 124.953V120.24C100.522 115.576 103.266 112.855 108.055 112.855C112.844 112.855 115.587 115.576 115.587 120.24V123.155C115.587 123.155 115.388 123.544 115.188 123.544H103.615V124.953C103.615 127.965 105.411 129.665 108.354 129.665C110.499 129.665 111.896 128.791 112.594 127.139C112.694 126.896 112.893 126.799 113.143 126.896L115.138 127.527C115.438 127.625 115.487 127.77 115.438 128.013C114.44 130.783 112.045 132.289 108.354 132.289C103.565 132.289 100.572 129.617 100.572 124.953H100.522ZM112.594 121.357V120.046C112.594 117.179 110.998 115.43 108.105 115.43C105.211 115.43 103.565 117.179 103.565 120.046V121.357H112.594ZM120.221 124.802V120.089C120.221 115.474 122.766 112.753 126.906 112.753C129.5 112.753 131.346 113.822 132.443 115.425V106.389C132.443 106.389 132.643 106 132.842 106H135.187C135.187 106 135.586 106.146 135.586 106.389V131.409C135.586 131.409 135.386 131.798 135.187 131.798H132.942C132.942 131.798 132.543 131.604 132.543 131.409V129.174C131.545 130.923 129.65 132.187 126.906 132.187C122.766 132.187 120.221 129.417 120.221 124.753V124.802ZM127.704 129.466C130.548 129.466 132.443 127.62 132.443 124.753V120.138C132.443 117.126 130.248 115.522 127.704 115.522C125.16 115.522 123.364 117.029 123.364 120.089V124.802C123.364 127.911 125.11 129.466 127.704 129.466ZM154.243 129.369V131.458C154.243 131.458 154.043 131.847 153.844 131.847H151.599C151.599 131.847 151.2 131.652 151.2 131.458V106.437C151.2 106.437 151.349 106.049 151.599 106.049H153.893C153.893 106.049 154.293 106.194 154.293 106.437V115.571C155.39 113.871 157.535 112.802 159.88 112.802C164.02 112.802 166.564 115.571 166.564 120.235V124.948C166.564 129.563 164.02 132.284 159.83 132.284C157.186 132.284 155.34 131.118 154.243 129.369ZM159.082 129.515C161.626 129.515 163.372 127.96 163.372 124.948V120.235C163.372 117.126 161.675 115.571 159.082 115.571C156.238 115.571 154.293 117.417 154.293 120.284V124.899C154.293 127.911 156.488 129.515 159.082 129.515ZM171.902 136.758C174.147 135.252 175.394 134.086 176.341 131.026L169.507 113.681C169.408 113.39 169.507 113.195 169.857 113.195H172.401C172.401 113.195 172.8 113.341 172.85 113.535L175.843 121.649C176.591 123.641 177.289 125.681 177.888 127.868C178.536 125.633 179.135 123.932 179.933 121.649L182.777 113.535C182.777 113.535 182.976 113.195 183.226 113.195H185.62C185.919 113.195 186.069 113.39 185.969 113.681L179.285 131.657C178.087 134.766 176.441 137.293 173.748 138.896C173.548 139.042 173.348 139.042 173.199 138.848L171.752 137.341C171.752 137.341 171.553 136.904 171.802 136.758H171.902Z" fill="#333333"/>
<path d="M203 132.766V109.173H205.968V132.766H203ZM233.225 114.12C232.677 113.497 231.83 112.932 230.685 112.426C229.475 111.898 228.173 111.638 226.861 111.662C225.059 111.662 223.729 112.005 222.873 112.691C222.456 113.019 222.121 113.448 221.898 113.94C221.674 114.432 221.568 114.974 221.588 115.518C221.588 116.36 221.807 117.025 222.245 117.514C222.687 117.999 223.357 118.397 224.257 118.709C225.183 119.021 226.348 119.341 227.752 119.67C229.379 120.027 230.786 120.46 231.975 120.97C233.16 121.479 234.071 122.165 234.709 123.028C235.346 123.869 235.665 125.001 235.665 126.421C235.665 127.928 235.291 129.168 234.544 130.142C233.797 131.119 232.775 131.839 231.477 132.304C230.202 132.771 228.763 133.003 227.16 133C223.508 133 220.331 131.891 217.629 129.674L219.048 127.148C219.53 127.637 220.179 128.125 220.995 128.614C221.825 129.099 222.77 129.508 223.829 129.84C224.904 130.152 226.036 130.308 227.225 130.308C228.898 130.308 230.194 130.008 231.113 129.409C231.553 129.13 231.913 128.733 232.157 128.26C232.4 127.786 232.518 127.254 232.498 126.717C232.514 126.325 232.452 125.933 232.317 125.566C232.182 125.2 231.975 124.866 231.711 124.587C231.059 123.97 230.281 123.516 229.435 123.261C228.221 122.845 226.988 122.489 225.741 122.196C224.382 121.871 223.048 121.439 221.752 120.902C220.793 120.508 219.951 119.855 219.312 119.011C218.785 118.231 218.521 117.223 218.521 115.986C218.521 114.476 218.884 113.201 219.611 112.161C220.335 111.122 221.334 110.336 222.609 109.802C223.985 109.248 225.451 108.976 226.926 109.002C229.705 108.967 232.413 109.916 234.609 111.694L233.225 114.12ZM256.976 132.932C255.326 132.932 253.831 132.6 252.49 131.935C251.171 131.278 249.984 130.365 248.994 129.243C248.038 128.104 247.279 126.799 246.754 125.387C246.236 123.977 245.967 122.48 245.962 120.97C245.962 119.397 246.237 117.9 246.788 116.48C247.359 115.039 248.14 113.765 249.129 112.66C250.122 111.536 251.32 110.631 252.654 109.999C253.995 109.334 255.457 109.002 257.041 109.002C258.687 109.002 260.181 109.346 261.522 110.036C262.864 110.722 264.019 111.64 264.988 112.79C265.954 113.947 266.701 115.233 267.229 116.646C267.757 118.066 268.02 119.518 268.02 121.001C268.022 124.101 266.889 127.084 264.854 129.342C263.867 130.451 262.679 131.345 261.358 131.971C259.981 132.618 258.486 132.946 256.976 132.932ZM248.964 120.97C248.964 122.165 249.15 123.327 249.522 124.457C249.92 125.565 250.47 126.553 251.17 127.419C251.877 128.281 252.724 128.967 253.71 129.477C254.696 129.986 255.794 130.241 257.006 130.241C258.261 130.241 259.383 129.976 260.372 129.445C261.342 128.928 262.195 128.201 262.877 127.315C263.581 126.431 264.108 125.435 264.46 124.327C265.211 122.121 265.198 119.711 264.425 117.514C264.066 116.424 263.506 115.417 262.777 114.552C262.084 113.682 261.217 112.979 260.238 112.494C259.235 111.972 258.127 111.71 257.006 111.73C255.758 111.73 254.638 111.995 253.645 112.525C252.662 113.021 251.795 113.736 251.106 114.619C250.422 115.506 249.894 116.504 249.522 117.613C249.151 118.689 248.963 119.825 248.964 120.97ZM279.812 109.173L287.559 129.014L295.272 109.168H298.404L288.909 132.766H286.205L276.68 109.173H279.812ZM314.692 109.173H317.202L326.762 132.766H323.386L320.826 125.855L315.947 112.629L308.264 132.766H305.102L314.692 109.173ZM337.796 132.766V109.173H340.764V130.111H353.82V132.766H337.796ZM380.853 130.111V132.766H364.964V109.173H380.554V111.829H367.931V119.473H378.906V121.967H367.931V130.111H380.853ZM395.801 114.687V132.771H392.838V109.168H395.343L409.648 127.616V109.204H412.616V132.766H409.912L395.801 114.687ZM443 111.829H434.918V132.771H431.956V111.829H423.874V109.168H443V111.829Z" fill="#0A0B0F"/>
<defs>
<clipPath id="clip0_247_6187">
<rect width="417" height="99" fill="white"/>
</clipPath>
</defs>
</svg>
