<svg width="508" height="48" viewBox="0 0 508 48" fill="none" xmlns="http://www.w3.org/2000/svg">
<path fill-rule="evenodd" clip-rule="evenodd" d="M22.7453 1.41646C23.211 1.6541 23.3954 2.22296 23.157 2.68705C22.6865 3.60339 22.4319 4.91772 22.3345 6.26867C22.2385 7.60206 22.3024 8.86394 22.4008 9.60661C22.4693 10.1235 22.1044 10.5978 21.5858 10.6659C21.0671 10.7341 20.5911 10.3702 20.5226 9.85332C20.4069 8.9799 20.3399 7.58978 20.4449 6.1329C20.5486 4.69357 20.8271 3.07934 21.4705 1.82647C21.7088 1.36239 22.2796 1.17882 22.7453 1.41646Z" fill="#1A1A1A"/>
<path d="M17.2499 16.3627C17.8187 13.6695 12.0381 13.23 9.07674 13.3469C-2.59788 13.5972 2.28208 20.7317 8.74573 21.5272C11.4057 21.8546 16.539 19.7293 17.2499 16.3627Z" fill="#CFEDFC"/>
<path d="M2.88704 14.8435C3.21472 14.5741 3.64016 14.3302 4.17378 14.1211L4.34016 14.6422L5.18708 15.7115L6.4277 16.8324L7.38081 16.6914L12.145 16.1991L17.153 16.7331C16.9955 17.2338 16.7405 17.7044 16.4127 18.1406C14.9304 17.8446 11.47 17.7569 9.59043 17.7533C9.0875 18.3424 8.90544 20.3452 8.86611 21.5412C8.82548 21.5374 8.78537 21.5331 8.74581 21.5282C8.21827 21.4633 7.70127 21.3562 7.20296 21.214C7.15687 20.2788 7.4805 18.9415 7.71601 18.1992C6.24269 18.2792 4.68427 19.0045 3.82476 19.5099C3.42862 19.1928 3.08514 18.8543 2.80664 18.5053L4.7163 17.4594C4.42154 17.3101 3.49006 15.8452 2.88704 14.8435Z" fill="#00ACE6"/>
<path d="M16.2602 19.6133L17.9767 20.7701L10.2207 32.2073L8.3571 30.9513L6.92572 28.8472L6.20898 25.3731L7.4925 22.3213L10.573 23.258L16.2602 19.6133Z" fill="#FFE100"/>
<path fill-rule="evenodd" clip-rule="evenodd" d="M14.6992 12.0096C17.0001 7.0646 22.5971 8.27704 25.2404 10.0585L17.9764 20.7702L17.1427 20.2083C16.0842 21.4319 13.9222 22.3582 12.9735 22.6683C13.0698 24.0436 14.2276 25.104 14.7945 25.4623L12.408 28.9815C9.62241 27.1041 8.80873 24.4192 8.75009 23.3115L7.71614 23.2556C5.8906 27.3806 8.75322 30.5776 10.5188 31.7675L7.43625 36.313L7.97228 32.0453C4.49748 29.0767 5.11915 24.5913 5.86433 22.7197C3.47042 22.2457 -0.684323 18.7835 0.0961886 15.8411C1.45518 10.718 10.3727 10.8029 14.6992 12.0096ZM17.2529 16.3464C17.7938 13.6683 12.0314 13.2309 9.07624 13.3475C7.19763 13.3878 5.74768 13.6063 4.664 13.948C5.14627 15.4411 6.26454 16.1836 6.80761 16.3763C10.234 15.5997 14.683 15.958 17.2529 16.3464ZM17.0368 17.0535C15.2446 16.8214 12.5742 16.7616 11.1886 16.7651C9.3072 18.0455 9.06589 20.2047 9.22596 21.5602C11.7744 21.6038 15.9045 19.8334 17.0368 17.0535ZM8.36668 21.4738C8.02287 19.5101 9.12954 17.6575 9.80867 16.9033C6.32439 17.0359 4.12788 18.0215 3.0548 18.7951C4.20302 20.0472 6.17458 21.1176 8.36668 21.4738ZM2.44461 17.9849C3.30596 17.4602 4.84911 16.9776 5.68878 16.7617C4.47484 15.8568 3.94477 14.9122 3.75735 14.3009C1.85852 15.2107 1.64327 16.6351 2.44461 17.9849Z" fill="#1A1A1A"/>
<path fill-rule="evenodd" clip-rule="evenodd" d="M34.2145 9.14783C33.8198 8.80562 33.2216 8.8471 32.8784 9.24047C32.2007 10.0172 31.0721 10.7424 29.8509 11.3359C28.6455 11.9217 27.4471 12.3328 26.7191 12.5185C26.2124 12.6478 25.9069 13.162 26.0367 13.6671C26.1665 14.1722 26.6825 14.4769 27.1892 14.3477C28.0454 14.1292 29.3643 13.6732 30.6813 13.0331C31.9825 12.4008 33.3813 11.5417 34.3078 10.4797C34.651 10.0863 34.6092 9.49004 34.2145 9.14783Z" fill="#1A1A1A"/>
<path d="M22.3502 19.8002C24.6452 18.2704 27.2085 23.4543 28.2032 26.2374C32.3207 37.131 23.8611 35.2752 20.712 29.5921C19.416 27.2533 19.4814 21.7124 22.3502 19.8002Z" fill="#CFEDFC"/>
<path d="M29.1179 32.5208C29.2465 32.1173 29.315 31.6328 29.3108 31.0612L28.7638 31.1015L27.4529 30.7164L25.9471 29.9865L25.7232 29.0522L24.4061 24.4613L22.0428 20.0273C21.6354 20.3596 21.2923 20.7709 21.0085 21.2368C21.8364 22.4977 23.2076 25.6663 23.9113 27.4038C23.5504 28.0885 21.7539 29.0033 20.6553 29.4854C20.6739 29.5216 20.6929 29.5571 20.7122 29.5918C20.9692 30.0557 21.2616 30.494 21.5797 30.902C22.4673 30.5962 23.5915 29.7985 24.1947 29.304C24.6693 30.6967 24.5749 32.4088 24.4247 33.3922C24.8675 33.6405 25.3106 33.8322 25.7393 33.9597L26.0012 31.8033C26.2501 32.0204 27.9608 32.3362 29.1179 32.5208Z" fill="#00ACE6"/>
<path d="M19.6932 21.9264L17.9767 20.7695L10.2207 32.2067L12.0843 33.4627L14.5764 34.0028L18.0773 33.3713L20.4398 31.0466L18.4199 28.5458L19.6932 21.9264Z" fill="#FFE100"/>
<path fill-rule="evenodd" clip-rule="evenodd" d="M27.3526 20.5374C31.0983 16.5661 27.884 11.8401 25.2407 10.0586L17.9767 20.7702L18.8104 21.3321C18.0658 22.7674 18.0093 25.1126 18.0742 26.1059C16.7581 26.5293 15.3395 25.8533 14.7948 25.4624L12.4083 28.9816C15.1939 30.859 17.9963 30.6112 19.0493 30.2526L19.4867 31.1883C16.3272 34.4144 12.2846 32.9575 10.519 31.7676L7.43652 36.3131L11.2094 34.2268C15.2675 36.3352 19.2111 34.0886 20.6756 32.7018C22.0088 34.7398 26.7799 37.2932 29.2279 35.4746C33.4903 32.3083 30.0882 24.0902 27.3526 20.5374ZM22.3642 19.791C24.6555 18.2927 27.2101 23.4606 28.2027 26.2379C28.8653 27.9908 29.2022 29.4136 29.2879 30.5434C27.7184 30.6537 26.6105 29.8958 26.2288 29.4653C25.6748 26.0061 23.6834 22.0238 22.3642 19.791ZM21.7865 20.2545C22.6704 21.826 23.7212 24.2742 24.2342 25.5573C23.7435 27.7749 21.8236 28.8028 20.5022 29.1598C19.5119 26.8185 19.6208 22.3379 21.7865 20.2545ZM20.9028 29.9225C22.8588 29.5088 24.1709 27.7947 24.6198 26.8854C25.7949 30.1581 25.696 32.5574 25.3757 33.8384C23.7823 33.2428 22.0512 31.8177 20.9028 29.9225ZM26.3572 34.101C26.5247 33.1086 26.3989 31.5012 26.287 30.6439C27.5816 31.4297 28.6585 31.5681 29.2973 31.5137C29.1581 33.6094 27.9124 34.3393 26.3572 34.101Z" fill="#1A1A1A"/>
<path fill-rule="evenodd" clip-rule="evenodd" d="M52.2913 23.0908V12.8672H57.2443C61.1113 12.8672 62.3965 12.9051 63.1052 13.0404C63.6046 13.1356 64.2989 13.344 64.648 13.5034C64.9974 13.6628 65.5501 14.0421 65.8764 14.3464C66.2027 14.6506 66.6013 15.1712 66.7622 15.5032C66.923 15.8353 67.109 16.4507 67.1751 16.8708C67.2567 17.3885 67.2568 17.8818 67.1753 18.4023C67.1092 18.8245 66.9211 19.4465 66.7571 19.7844C66.5932 20.1222 66.2217 20.607 65.9316 20.8617C65.6413 21.1164 65.1258 21.4573 64.7859 21.6192L64.168 21.9136L64.5225 22.0036C64.7176 22.0532 65.1015 22.1888 65.3758 22.3049C65.65 22.4212 66.1228 22.7441 66.4264 23.0226C66.73 23.3012 67.0994 23.7197 67.2472 23.9529C67.3952 24.1859 67.6004 24.6594 67.7034 25.0051C67.8085 25.358 67.8905 26.062 67.8905 26.6111C67.8905 27.2854 67.8139 27.8217 67.6431 28.34C67.5071 28.7533 67.2012 29.3464 66.9636 29.658C66.7259 29.9697 66.2391 30.4247 65.8816 30.6692C65.5241 30.9136 64.8956 31.2237 64.4851 31.3583C64.0745 31.4927 63.2503 31.6541 62.6534 31.7168C62.0565 31.7794 59.4808 31.8316 56.9297 31.8328L52.2913 31.8348L52.2803 26.4744L51.9673 26.8867C51.7951 27.1135 51.2792 27.6732 50.8207 28.1305C50.3621 28.5878 49.6476 29.1909 49.2328 29.4708C48.8181 29.7506 48.0469 30.1812 47.5193 30.4275C46.9915 30.674 46.161 30.9891 45.6735 31.1279C45.1571 31.275 44.2646 31.408 43.5349 31.4466C42.5891 31.4968 42.061 31.4639 41.3777 31.3123C40.88 31.202 40.1046 30.928 39.6545 30.7035C39.2042 30.4789 38.5683 30.0554 38.2412 29.7621C37.9141 29.469 37.3985 28.8572 37.0954 28.4026C36.7922 27.9481 36.4167 27.2106 36.2608 26.7636C36.1049 26.3168 35.9224 25.5145 35.8552 24.9807C35.7881 24.4469 35.767 23.6634 35.8082 23.2395C35.8495 22.8156 35.9862 22.0813 36.112 21.6077C36.2378 21.1341 36.4804 20.4714 36.651 20.1351C36.8217 19.7987 37.1771 19.2054 37.4412 18.8167C37.705 18.4279 38.3004 17.7387 38.7642 17.2851C39.2279 16.8315 39.9072 16.2825 40.2736 16.0652C40.6399 15.8478 41.2736 15.5297 41.6816 15.3583C42.3389 15.0823 43.2322 14.9878 43.764 14.9878C44.2958 14.9878 45.1868 15.0704 45.7746 15.3789C46.1227 15.5618 46.6411 15.9509 46.9266 16.2436C47.2921 16.6185 47.5018 16.9685 47.6352 17.426C47.7667 17.8769 47.8004 18.2699 47.7455 18.709C47.7017 19.057 47.5001 19.673 47.2972 20.0778C47.0643 20.5425 46.599 21.1459 46.035 21.7149C45.5438 22.2106 44.6764 22.9176 44.1078 23.2861C43.5393 23.6546 42.7416 24.1058 42.3351 24.2889C41.9288 24.4718 41.171 24.755 40.651 24.9181C40.1311 25.081 39.4531 25.2522 39.1443 25.2982C38.7627 25.3552 38.5829 25.4382 38.5829 25.5579C38.5829 25.6547 38.7418 26.0657 38.936 26.4712C39.1301 26.8768 39.5072 27.4329 39.774 27.7069C40.0408 27.981 40.6039 28.366 41.0254 28.5626C41.6369 28.8478 42.0016 28.9321 42.8301 28.9792C43.5613 29.0208 44.133 28.9795 44.7629 28.8398C45.2548 28.7307 46.1262 28.4136 46.6994 28.135C47.2727 27.8565 48.167 27.3082 48.687 26.9164C49.207 26.5247 49.9826 25.8408 50.4103 25.3968C50.8383 24.9527 51.4366 24.2522 51.7398 23.8401L52.2913 23.0908ZM62.4225 17.4498C62.2751 17.2296 61.9692 16.9568 61.743 16.8435C61.3931 16.6682 60.984 16.6375 58.9978 16.6374L56.6638 16.6371V20.1715H58.9432C61.0721 20.1715 61.2575 20.1539 61.7499 19.9064C62.0931 19.7339 62.3494 19.4974 62.4838 19.229C62.5974 19.0022 62.6906 18.5992 62.6906 18.3334C62.6907 18.0268 62.5928 17.7037 62.4225 17.4498ZM45.6072 17.8408C45.5058 17.6964 45.2691 17.499 45.0813 17.4022C44.8824 17.2997 44.4232 17.2262 43.9817 17.2262C43.3467 17.2262 43.0818 17.2963 42.3509 17.6573C41.7166 17.9707 41.2362 18.3333 40.5919 18.985C39.9786 19.6054 39.5494 20.1782 39.1985 20.8448C38.9196 21.3744 38.6163 22.1666 38.5243 22.605C38.4322 23.0432 38.384 23.4288 38.4169 23.4617C38.4498 23.4946 38.8882 23.4366 39.391 23.3329C39.8937 23.2294 40.7257 22.97 41.2398 22.7566C41.7538 22.5433 42.6399 22.0584 43.2088 21.679C43.7776 21.2998 44.4864 20.7126 44.784 20.3742C45.0815 20.036 45.4299 19.5435 45.5583 19.2801C45.6866 19.0167 45.7917 18.6442 45.7917 18.4523C45.7917 18.2604 45.7087 17.9851 45.6072 17.8408ZM62.8967 24.7541C62.7499 24.5339 62.3931 24.2346 62.1035 24.0887C61.6092 23.8398 61.4312 23.8236 59.1796 23.8236H56.782V28.0855L59.2342 28.0456C61.4456 28.0098 61.7328 27.9818 62.159 27.76C62.4383 27.6146 62.7397 27.3252 62.8958 27.0531C63.0885 26.7164 63.1602 26.3985 63.1617 25.8733C63.163 25.3215 63.1015 25.0614 62.8967 24.7541Z" fill="#1A1A1A"/>
<path fill-rule="evenodd" clip-rule="evenodd" d="M70.4313 31.7759L70.3709 12.8672H74.9058C78.4403 12.8672 79.6724 12.907 80.4903 13.0474C81.1258 13.1565 81.8787 13.3871 82.3985 13.6316C82.8857 13.8607 83.529 14.2919 83.8858 14.6281C84.2316 14.9541 84.6517 15.4733 84.8194 15.7817C84.9872 16.0903 85.2124 16.6827 85.32 17.0985C85.441 17.5667 85.5137 18.3064 85.511 19.0424C85.5086 19.7182 85.4287 20.524 85.326 20.9113C85.2266 21.286 85.0321 21.8161 84.8936 22.0895C84.7552 22.3629 84.4616 22.8333 84.2414 23.1348C84.0211 23.4364 83.4827 23.924 83.045 24.2185C82.6071 24.5131 81.9299 24.8585 81.5399 24.9861C81.1499 25.1138 80.4148 25.2755 79.9065 25.3456C79.3979 25.4157 78.0826 25.473 76.9835 25.473H74.985L74.922 31.7759H70.4313ZM80.5059 17.7798C80.343 17.4889 80.0568 17.2097 79.7672 17.0594C79.3482 16.8417 79.05 16.7708 77.1378 16.7381L74.9811 16.7403V21.5852L76.9015 21.5845C77.9577 21.5842 79.0227 21.5283 79.2682 21.4603C79.5137 21.3924 79.8995 21.175 80.1253 20.9772C80.4119 20.7264 80.5936 20.4203 80.7266 19.9644C80.8489 19.5448 80.8911 19.122 80.8445 18.783C80.8046 18.4924 80.6523 18.0411 80.5059 17.7798Z" fill="#1A1A1A"/>
<path d="M88.4376 22.4688L88.4681 31.7759H92.9588L93.0213 24.5337L100.877 24.4716L100.942 20.6427H93.0179V16.8728H101.999V12.8672H88.4344C88.4305 14.5053 88.4258 18.8882 88.4376 22.4688Z" fill="#1A1A1A"/>
<path d="M198 8H113C110.791 8 109 9.79086 109 12V33C109 35.2091 110.791 37 113 37H198C200.209 37 202 35.2091 202 33V12C202 9.79086 200.209 8 198 8Z" fill="#EF6911"/>
<path d="M125.273 18.3984C125.201 17.7161 124.893 17.1849 124.352 16.8047C123.815 16.4245 123.117 16.2344 122.258 16.2344C121.654 16.2344 121.135 16.3255 120.703 16.5078C120.271 16.6901 119.94 16.9375 119.711 17.25C119.482 17.5625 119.365 17.9193 119.359 18.3203C119.359 18.6536 119.435 18.9427 119.586 19.1875C119.742 19.4323 119.953 19.6406 120.219 19.8125C120.484 19.9792 120.779 20.1198 121.102 20.2344C121.424 20.349 121.75 20.4453 122.078 20.5234L123.578 20.8984C124.182 21.0391 124.763 21.2292 125.32 21.4687C125.883 21.7083 126.385 22.0104 126.828 22.375C127.276 22.7396 127.63 23.1797 127.891 23.6953C128.151 24.2109 128.281 24.8151 128.281 25.5078C128.281 26.4453 128.042 27.2708 127.563 27.9844C127.083 28.6927 126.391 29.2474 125.484 29.6484C124.583 30.0443 123.492 30.2422 122.211 30.2422C120.966 30.2422 119.885 30.0495 118.969 29.6641C118.057 29.2786 117.344 28.7161 116.828 27.9766C116.318 27.237 116.042 26.3359 116 25.2734H118.852C118.893 25.8307 119.065 26.2943 119.367 26.6641C119.669 27.0339 120.063 27.3099 120.547 27.4922C121.036 27.6745 121.583 27.7656 122.188 27.7656C122.818 27.7656 123.37 27.6719 123.844 27.4844C124.323 27.2917 124.698 27.026 124.969 26.6875C125.24 26.3437 125.378 25.9427 125.383 25.4844C125.378 25.0677 125.255 24.724 125.016 24.4531C124.776 24.1771 124.44 23.9479 124.008 23.7656C123.581 23.5781 123.081 23.4115 122.508 23.2656L120.688 22.7969C119.37 22.4583 118.328 21.9453 117.563 21.2578C116.802 20.5651 116.422 19.6458 116.422 18.5C116.422 17.5573 116.677 16.7318 117.188 16.0234C117.703 15.3151 118.404 14.7656 119.289 14.375C120.174 13.9792 121.177 13.7812 122.297 13.7812C123.432 13.7812 124.427 13.9792 125.281 14.375C126.141 14.7656 126.815 15.3099 127.305 16.0078C127.794 16.7005 128.047 17.4974 128.062 18.3984H125.273ZM138.169 24.9531V18H140.997V30H138.255V27.8672H138.13C137.859 28.5391 137.413 29.0885 136.794 29.5156C136.179 29.9427 135.421 30.1563 134.52 30.1563C133.734 30.1563 133.038 29.9818 132.434 29.6328C131.835 29.2786 131.367 28.7656 131.028 28.0938C130.69 27.4167 130.52 26.599 130.52 25.6406V18H133.348V25.2031C133.348 25.9635 133.557 26.5677 133.973 27.0156C134.39 27.4635 134.937 27.6875 135.614 27.6875C136.031 27.6875 136.434 27.5859 136.825 27.3828C137.216 27.1797 137.536 26.8776 137.786 26.4766C138.041 26.0703 138.169 25.5625 138.169 24.9531ZM143.685 30V18H146.388V20.0391H146.529C146.779 19.3516 147.193 18.8151 147.771 18.4297C148.349 18.0391 149.039 17.8438 149.841 17.8438C150.654 17.8438 151.339 18.0417 151.896 18.4375C152.458 18.8281 152.854 19.362 153.083 20.0391H153.208C153.474 19.3724 153.922 18.8411 154.552 18.4453C155.188 18.0443 155.94 17.8438 156.81 17.8438C157.914 17.8438 158.815 18.1927 159.513 18.8906C160.211 19.5885 160.56 20.6068 160.56 21.9453V30H157.724V22.3828C157.724 21.638 157.526 21.0937 157.13 20.75C156.734 20.401 156.25 20.2266 155.677 20.2266C154.995 20.2266 154.461 20.4401 154.076 20.8672C153.695 21.2891 153.505 21.8385 153.505 22.5156V30H150.732V22.2656C150.732 21.6458 150.544 21.151 150.169 20.7812C149.8 20.4115 149.315 20.2266 148.716 20.2266C148.31 20.2266 147.94 20.3307 147.607 20.5391C147.274 20.7422 147.008 21.0312 146.81 21.4062C146.612 21.776 146.513 22.2083 146.513 22.7031V30H143.685ZM163.209 30V18H165.912V20.0391H166.053C166.303 19.3516 166.717 18.8151 167.295 18.4297C167.873 18.0391 168.563 17.8438 169.365 17.8438C170.178 17.8438 170.863 18.0417 171.42 18.4375C171.983 18.8281 172.378 19.362 172.608 20.0391H172.733C172.998 19.3724 173.446 18.8411 174.076 18.4453C174.712 18.0443 175.464 17.8438 176.334 17.8438C177.438 17.8438 178.339 18.1927 179.037 18.8906C179.735 19.5885 180.084 20.6068 180.084 21.9453V30H177.248V22.3828C177.248 21.638 177.05 21.0937 176.654 20.75C176.259 20.401 175.774 20.2266 175.201 20.2266C174.519 20.2266 173.985 20.4401 173.6 20.8672C173.22 21.2891 173.029 21.8385 173.029 22.5156V30H170.256V22.2656C170.256 21.6458 170.069 21.151 169.694 20.7812C169.324 20.4115 168.839 20.2266 168.24 20.2266C167.834 20.2266 167.464 20.3307 167.131 20.5391C166.798 20.7422 166.532 21.0312 166.334 21.4062C166.136 21.776 166.037 22.2083 166.037 22.7031V30H163.209ZM182.733 30V18H185.561V30H182.733ZM184.155 16.2969C183.707 16.2969 183.322 16.1484 182.999 15.8516C182.676 15.5495 182.515 15.1875 182.515 14.7656C182.515 14.3385 182.676 13.9766 182.999 13.6797C183.322 13.3776 183.707 13.2266 184.155 13.2266C184.608 13.2266 184.994 13.3776 185.311 13.6797C185.634 13.9766 185.796 14.3385 185.796 14.7656C185.796 15.1875 185.634 15.5495 185.311 15.8516C184.994 16.1484 184.608 16.2969 184.155 16.2969ZM194.242 18V20.1875H187.343V18H194.242ZM189.046 15.125H191.875V26.3906C191.875 26.7708 191.932 27.0625 192.046 27.2656C192.166 27.4635 192.323 27.599 192.515 27.6719C192.708 27.7448 192.921 27.7812 193.156 27.7812C193.333 27.7812 193.494 27.7682 193.64 27.7422C193.791 27.7161 193.906 27.6927 193.984 27.6719L194.461 29.8828C194.31 29.9349 194.093 29.9922 193.812 30.0547C193.536 30.1172 193.198 30.1536 192.796 30.1641C192.088 30.1849 191.45 30.0781 190.882 29.8437C190.315 29.6042 189.864 29.2344 189.531 28.7344C189.203 28.2344 189.041 27.6094 189.046 26.8594V15.125Z" fill="white"/>
<path d="M214 29.7805V17.3902C214 17.3902 214.068 17.1951 214.182 17.1951H215.205C215.205 17.1951 215.386 17.2927 215.386 17.3902V18.439C215.841 17.6098 216.727 17 217.955 17C219.841 17 221 18.3902 221 20.7317V23.0976C221 25.4146 219.841 26.7805 217.932 26.7805C216.75 26.7805 215.909 26.2439 215.409 25.3902V29.8049C215.409 29.8049 215.318 30 215.227 30H214.182C214.182 30 214 29.9268 214 29.8049V29.7805ZM217.614 25.3658C218.773 25.3658 219.568 24.5854 219.568 23.0732V20.7073C219.568 19.1463 218.795 18.3658 217.614 18.3658C216.318 18.3658 215.432 19.2927 215.432 20.7317V23.0488C215.432 24.561 216.432 25.3658 217.614 25.3658Z" fill="#333333"/>
<path d="M223 23.225V20.8C223 18.4 224.471 17 227 17C229.529 17 231 18.4 231 20.8V23.225C231 25.6 229.529 27 227 27C224.471 27 223 25.625 223 23.225ZM227 25.575C228.523 25.575 229.374 24.725 229.374 23.225V20.8C229.374 19.275 228.523 18.425 227 18.425C225.477 18.425 224.626 19.275 224.626 20.8V23.225C224.626 24.725 225.477 25.575 227 25.575Z" fill="#333333"/>
<path d="M235.273 26.8177L233.005 17.2344C232.981 17.0781 233.052 17 233.196 17H234.39C234.39 17 234.581 17.0521 234.605 17.1823L235.632 21.9479C235.847 23.0417 236.062 24.1615 236.277 25.4375C236.587 23.7708 236.42 24.1094 237.017 21.9479L238.283 17.1823C238.283 17.1823 238.402 17 238.522 17H239.644C239.644 17 239.835 17.0781 239.883 17.1823L241.077 21.974C241.364 23.1719 241.412 23.6406 241.77 25.4375H241.794C241.985 24.3177 241.913 24.4479 242.462 21.9479L243.489 17.1823C243.489 17.1823 243.585 17 243.704 17H244.827C244.97 17 245.018 17.0781 244.994 17.2344L242.701 26.8177C242.701 26.8177 242.582 27 242.462 27H241.053C241.053 27 240.862 26.9219 240.814 26.8177L239.811 22.9635C239.549 21.974 239.214 20.6719 238.999 19.2656H238.975C238.737 20.5156 238.45 21.7396 238.14 22.9635L237.16 26.8177C237.16 26.8177 237.041 27 236.921 27H235.465C235.465 27 235.273 26.9479 235.226 26.8177H235.273Z" fill="#333333"/>
<path d="M246 23.225V20.8C246 18.4 247.457 17 250 17C252.543 17 254 18.4 254 20.8V22.3C254 22.3 253.894 22.5 253.788 22.5H247.642V23.225C247.642 24.775 248.596 25.65 250.159 25.65C251.298 25.65 252.04 25.2 252.411 24.35C252.464 24.225 252.57 24.175 252.702 24.225L253.762 24.55C253.921 24.6 253.947 24.675 253.921 24.8C253.391 26.225 252.119 27 250.159 27C247.616 27 246.026 25.625 246.026 23.225H246ZM252.411 21.375V20.7C252.411 19.225 251.563 18.325 250.026 18.325C248.49 18.325 247.616 19.225 247.616 20.7V21.375H252.411Z" fill="#333333"/>
<path d="M256 25.8608V17.3247C256 17.3247 256.063 17.1392 256.169 17.1392H257.122C257.122 17.1392 257.291 17.232 257.291 17.3247V18.6005C257.757 17.7191 258.54 17 259.831 17C259.958 17 260 17.0928 260 17.1856V18.2062C260 18.2062 259.937 18.3918 259.831 18.3918C258.582 18.3918 257.757 18.9484 257.333 20.0387V25.8144C257.333 25.8144 257.249 26 257.164 26H256.19C256.19 26 256.021 25.9072 256.021 25.8144L256 25.8608Z" fill="#333333"/>
<path d="M261 23.225V20.8C261 18.4 262.457 17 265 17C267.543 17 269 18.4 269 20.8V22.3C269 22.3 268.894 22.5 268.788 22.5H262.642V23.225C262.642 24.775 263.596 25.65 265.159 25.65C266.298 25.65 267.04 25.2 267.411 24.35C267.464 24.225 267.57 24.175 267.702 24.225L268.762 24.55C268.921 24.6 268.947 24.675 268.921 24.8C268.391 26.225 267.119 27 265.159 27C262.616 27 261.026 25.625 261.026 23.225H261ZM267.411 21.375V20.7C267.411 19.225 266.563 18.325 265.026 18.325C263.49 18.325 262.616 19.225 262.616 20.7V21.375H267.411Z" fill="#333333"/>
<path d="M271 23.334V20.9944C271 18.7032 272.159 17.3525 274.045 17.3525C275.227 17.3525 276.068 17.8831 276.568 18.679V14.193C276.568 14.193 276.659 14 276.75 14H277.818C277.818 14 278 14.0724 278 14.193V26.6141C278 26.6141 277.909 26.8071 277.818 26.8071H276.795C276.795 26.8071 276.614 26.7106 276.614 26.6141V25.5046C276.159 26.3729 275.295 27 274.045 27C272.159 27 271 25.6252 271 23.3098V23.334ZM274.409 25.6494C275.705 25.6494 276.568 24.7328 276.568 23.3098V21.0186C276.568 19.5232 275.568 18.7273 274.409 18.7273C273.25 18.7273 272.432 19.475 272.432 20.9944V23.334C272.432 24.8775 273.227 25.6494 274.409 25.6494Z" fill="#333333"/>
<path d="M286.584 25.5556V26.5905C286.584 26.5905 286.481 26.7833 286.377 26.7833H285.208C285.208 26.7833 285 26.6868 285 26.5905V14.1926C285 14.1926 285.078 14 285.208 14H286.403C286.403 14 286.61 14.0722 286.61 14.1926V18.7185C287.182 17.8759 288.299 17.3463 289.519 17.3463C291.675 17.3463 293 18.7185 293 21.0296V23.3648C293 25.6518 291.675 27 289.493 27C288.117 27 287.156 26.4222 286.584 25.5556ZM289.104 25.6278C290.429 25.6278 291.338 24.8574 291.338 23.3648V21.0296C291.338 19.4889 290.455 18.7185 289.104 18.7185C287.623 18.7185 286.61 19.6333 286.61 21.0537V23.3407C286.61 24.8333 287.753 25.6278 289.104 25.6278Z" fill="#333333"/>
<path d="M295.177 28.8707C296.263 28.112 296.867 27.5246 297.325 25.9826L294.018 17.2448C293.969 17.0979 294.018 17 294.187 17H295.418C295.418 17 295.611 17.0734 295.635 17.1713L297.084 21.2588C297.446 22.2623 297.784 23.2903 298.074 24.3917C298.388 23.2658 298.677 22.4091 299.064 21.2588L300.44 17.1713C300.44 17.1713 300.536 17 300.657 17H301.816C301.961 17 302.033 17.0979 301.985 17.2448L298.75 26.3008C298.17 27.8672 297.374 29.14 296.07 29.9477C295.973 30.0211 295.877 30.0211 295.804 29.9232L295.104 29.1644C295.104 29.1644 295.008 28.9442 295.128 28.8707H295.177Z" fill="#333333"/>
<mask id="mask0_269_6233" style="mask-type:luminance" maskUnits="userSpaceOnUse" x="323" y="4" width="185" height="40">
<path d="M507.009 4H323V43.802H507.01L507.009 4Z" fill="white"/>
</mask>
<g mask="url(#mask0_269_6233)">
<path fill-rule="evenodd" clip-rule="evenodd" d="M354.59 4H333.531L322.999 21.7347L333.53 39.4695H354.589L365.119 21.7334L354.59 4ZM349.176 13.1191H338.945L333.83 21.7334L338.945 30.349H349.176L354.291 21.7347L349.176 13.1191Z" fill="#0078FB"/>
<path d="M340.992 16.5591H347.096L350.149 21.7009L347.097 26.8401H340.992L337.939 21.6996L340.992 16.5591Z" fill="#737373"/>
<path d="M347.1 26.8445L344.087 21.7026L340.995 26.8445H347.1Z" fill="#464646"/>
<path d="M347.1 16.5591H340.995L344.087 21.7009L347.1 16.5591Z" fill="#C7C7C7"/>
<path d="M347.097 16.5591L344.084 21.7009H350.165L347.097 16.5591ZM344.084 21.7009L340.992 16.5591L337.939 21.7009H344.084Z" fill="#989898"/>
<path d="M354.587 39.4677L365.116 21.7329H354.288L349.173 30.3472L354.587 39.4677Z" fill="#0058FB"/>
<path d="M354.587 39.4697L360.003 30.3506H349.171L354.587 39.4697Z" fill="#0078FB"/>
<path d="M360.024 13.1221H349.173L354.288 21.7364L360.024 13.1221Z" fill="#4CBAFB"/>
<path d="M360.025 13.1313L354.289 21.7323H365.119L360.025 13.1313Z" fill="#9DDAFB"/>
<path d="M344.06 39.4697L349.175 30.3506L354.59 39.4697H344.06Z" fill="#0069E4"/>
<path d="M323 21.7329H333.831L328.115 30.3472H338.946L344.217 39.469H333.531L328.115 30.3472L323 21.7329Z" fill="#0101D7"/>
<path fill-rule="evenodd" clip-rule="evenodd" d="M333.83 21.7364L328.135 13.1221L323 21.7364H333.83ZM333.83 21.7364L338.945 30.3506H328.134L333.83 21.7364Z" fill="#0035FB"/>
<path d="M349.174 13.1191L344.215 4L338.944 13.1191H349.174Z" fill="#0027FB"/>
<path d="M354.587 4L349.173 13.1191H360.024L354.587 4Z" fill="#37A0FB"/>
<mask id="mask1_269_6233" style="mask-type:luminance" maskUnits="userSpaceOnUse" x="481" y="36" width="23" height="7">
<path d="M503.511 36.0942H481.65V42.0855H503.511V36.0942Z" fill="white"/>
</mask>
<g mask="url(#mask1_269_6233)">
<path d="M486.917 36.6003H488.082V41.8837H486.917V36.6003ZM497.333 38.1228C497.297 38.0801 496.932 37.8263 496.35 37.8263C495.622 37.8263 495.075 38.418 495.075 39.2206C495.075 40.0246 495.585 40.6163 496.35 40.6163C496.896 40.6163 497.261 40.3625 497.333 40.3198V41.7582C497.187 41.7996 496.787 41.9264 496.277 41.9264C494.966 41.9264 493.837 40.9114 493.837 39.1792C493.837 37.614 494.857 36.4307 496.277 36.4307C496.824 36.4307 497.225 36.6003 497.333 36.6003V38.1228ZM485.314 38.1228C485.278 38.0801 484.914 37.8263 484.33 37.8263C483.602 37.8263 483.056 38.418 483.056 39.2206C483.056 40.0246 483.566 40.6163 484.33 40.6163C484.878 40.6163 485.241 40.3625 485.314 40.3198V41.7582C485.169 41.7996 484.768 41.9264 484.258 41.9264C482.984 41.9264 481.818 40.9114 481.818 39.1792C481.818 37.614 482.837 36.4307 484.258 36.4307C484.804 36.4307 485.205 36.6003 485.314 36.6003V38.1228ZM503.343 39.2634C503.343 40.7859 502.323 42.0119 500.939 42.0119C499.555 42.0119 498.535 40.7859 498.535 39.2634C498.535 37.7408 499.555 36.5148 500.939 36.5148C502.36 36.5148 503.343 37.7422 503.343 39.2634ZM500.939 37.869C500.247 37.869 499.737 38.5021 499.737 39.2634C499.737 40.0246 500.247 40.659 500.939 40.659C501.631 40.659 502.141 40.0246 502.141 39.2634C502.141 38.5021 501.631 37.869 500.939 37.869ZM492.417 37.8263C492.417 37.8263 491.907 37.6567 491.506 37.6567C491.032 37.6567 490.777 37.8263 490.777 38.0801C490.777 38.418 491.105 38.5021 491.287 38.5876L491.616 38.7144C492.343 39.0096 492.708 39.6013 492.708 40.237C492.708 41.5458 491.688 42.0119 490.814 42.0119C490.195 42.0119 489.612 41.8837 489.576 41.8837V40.659C489.684 40.7004 490.158 40.87 490.669 40.87C491.251 40.87 491.506 40.659 491.506 40.3625C491.506 40.1088 491.287 39.9391 490.996 39.855C490.918 39.8081 490.831 39.7793 490.741 39.7709C490.085 39.5171 489.576 39.0937 489.576 38.2069C489.576 37.2347 490.231 36.5575 491.287 36.5575C491.833 36.5575 492.38 36.7272 492.417 36.7272V37.8263Z" fill="black"/>
</g>
<path d="M434.191 39.0833V41.8399H433.287V37.1975H434.155V37.9521H434.212C434.317 37.7097 434.491 37.5038 434.713 37.3604C434.943 37.2109 435.232 37.1361 435.581 37.1361C435.897 37.1361 436.174 37.2028 436.412 37.3364C436.653 37.47 436.846 37.6748 436.966 37.9227C437.097 38.1818 437.163 38.5032 437.163 38.887V41.8385H436.258V38.9952C436.258 38.6586 436.171 38.3959 435.995 38.2072C435.82 38.0149 435.579 37.9187 435.273 37.9187C435.078 37.9152 434.885 37.9622 434.713 38.0549C434.55 38.1482 434.416 38.2869 434.33 38.4543C434.233 38.6491 434.186 38.8659 434.191 39.0833ZM440.329 41.932C439.895 41.932 439.515 41.8323 439.19 41.6329C438.863 41.4319 438.601 41.1413 438.434 40.7955C438.249 40.4025 438.157 39.9718 438.167 39.5374C438.167 39.0566 438.256 38.6359 438.434 38.2753C438.614 37.9147 438.866 37.6342 439.19 37.4339C439.515 37.2345 439.895 37.1347 440.329 37.1347C440.764 37.1347 441.144 37.2345 441.47 37.4339C441.793 37.6342 442.045 37.9147 442.226 38.2753C442.404 38.6359 442.493 39.0566 442.493 39.5374C442.493 40.0182 442.404 40.4375 442.226 40.7955C442.059 41.1413 441.797 41.4319 441.47 41.6329C441.145 41.8323 440.765 41.932 440.329 41.932ZM440.333 41.1734C440.586 41.1841 440.835 41.1046 441.034 40.9491C441.224 40.7925 441.366 40.5869 441.446 40.3547C441.535 40.1072 441.58 39.8339 441.581 39.5347C441.583 39.2574 441.537 38.9818 441.446 38.72C441.367 38.485 441.225 38.2764 441.034 38.1177C440.835 37.9613 440.586 37.8808 440.333 37.8907C440.078 37.8815 439.828 37.9618 439.625 38.1177C439.434 38.2757 439.291 38.4838 439.211 38.7187C439.122 38.968 439.078 39.24 439.078 39.5347C439.078 39.833 439.122 40.1063 439.211 40.3547C439.292 40.5872 439.435 40.7929 439.625 40.9491C439.812 41.0986 440.048 41.1734 440.333 41.1734ZM444.368 41.8385L443.002 37.1962H443.937L444.845 40.6045H444.891L445.804 37.1962H446.739L447.644 40.5898H447.689L448.594 37.1962H449.528L448.165 41.8385H447.243L446.299 38.4863H446.23L445.287 41.8385H444.368ZM452.638 43.5788V37.1948H453.52V37.9481H453.597C453.649 37.8519 453.725 37.7402 453.824 37.6129C453.937 37.4753 454.076 37.3618 454.234 37.279C454.409 37.1828 454.641 37.1347 454.928 37.1347C455.304 37.1347 455.639 37.2296 455.932 37.4192C456.226 37.6089 456.457 37.8818 456.624 38.2379C456.793 38.5949 456.878 39.0241 456.878 39.5254C456.878 40.0275 456.795 40.458 456.628 40.8168C456.48 41.1507 456.241 41.4366 455.939 41.6422C455.641 41.8352 455.292 41.9351 454.937 41.9294C454.657 41.9294 454.426 41.8817 454.246 41.7864C454.086 41.7047 453.944 41.5916 453.829 41.4539C453.743 41.3474 453.665 41.2344 453.597 41.116H453.542V43.5788H452.638ZM453.523 39.5174C453.523 39.8432 453.571 40.129 453.666 40.3748C453.76 40.6214 453.896 40.8142 454.076 40.9531C454.267 41.0928 454.499 41.1652 454.736 41.1587C454.979 41.1664 455.218 41.0905 455.413 40.9437C455.601 40.7886 455.744 40.585 455.824 40.3547C455.918 40.1063 455.965 39.8272 455.966 39.5174C455.966 39.2102 455.92 38.9351 455.827 38.692C455.748 38.4637 455.605 38.2629 455.416 38.1137C455.219 37.9674 454.979 37.8929 454.734 37.9027C454.497 37.8946 454.263 37.966 454.071 38.1057C453.883 38.2511 453.742 38.4471 453.662 38.6706C453.569 38.9119 453.523 39.1942 453.523 39.5174ZM459.242 41.9414C458.948 41.9414 458.682 41.8871 458.445 41.7784C458.215 41.6747 458.019 41.508 457.88 41.2976C457.737 41.0667 457.665 40.7986 457.674 40.527C457.664 40.3014 457.717 40.0775 457.825 39.8793C457.923 39.7124 458.064 39.5743 458.232 39.4786C458.404 39.3789 458.596 39.3041 458.807 39.2542C459.018 39.2035 459.234 39.1652 459.454 39.1394L460.131 39.0593C460.263 39.0481 460.391 39.0128 460.509 38.9551C460.588 38.9061 460.627 38.8273 460.627 38.7187V38.6973C460.627 38.4347 460.552 38.2299 460.403 38.083C460.256 37.9387 460.036 37.8666 459.744 37.8666C459.44 37.8666 459.201 37.9343 459.024 38.0696C458.866 38.1821 458.742 38.3354 458.665 38.513L457.816 38.3194C457.916 38.038 458.063 37.8105 458.256 37.6369C458.452 37.4615 458.677 37.3346 458.931 37.2563C459.381 37.1136 459.861 37.0947 460.321 37.2015C460.531 37.2434 460.727 37.3222 460.907 37.4379C461.092 37.5528 461.242 37.717 461.357 37.9307C461.475 38.1417 461.534 38.4164 461.534 38.7548V41.8385H460.651V41.2042H460.615C460.547 41.3326 460.458 41.449 460.352 41.5487C460.234 41.6609 460.084 41.7544 459.902 41.8292C459.691 41.909 459.467 41.9471 459.242 41.9414ZM459.438 41.2162C459.661 41.221 459.881 41.17 460.079 41.0679C460.248 40.9777 460.389 40.8439 460.488 40.6806C460.581 40.5244 460.63 40.3457 460.63 40.1638V39.5654C460.575 39.6094 460.511 39.6404 460.443 39.6563C460.352 39.683 460.248 39.7061 460.131 39.7257L459.79 39.7764L459.512 39.8125C459.348 39.8323 459.187 39.8699 459.031 39.9247C458.898 39.969 458.779 40.0473 458.686 40.1517C458.597 40.2604 458.552 40.3986 458.559 40.539C458.559 40.7616 458.642 40.9308 458.807 41.0466C458.995 41.1661 459.215 41.2253 459.438 41.2162ZM462.737 41.8385V37.1962H463.611V37.9334H463.659C463.737 37.6916 463.894 37.4835 464.106 37.3431C464.322 37.1979 464.577 37.1219 464.838 37.1254C464.966 37.1264 465.094 37.1335 465.221 37.1468V38.0122C465.158 37.9964 465.094 37.9852 465.029 37.9788C464.936 37.9647 464.843 37.9576 464.75 37.9574C464.551 37.9551 464.355 38.0019 464.179 38.0937C464.015 38.1811 463.878 38.3121 463.783 38.4723C463.688 38.6324 463.639 38.8156 463.641 39.0018V41.8385H462.737ZM468.445 37.1962V37.9214H465.909V37.1962H468.445ZM466.59 36.0837H467.493V40.4749C467.493 40.6503 467.519 40.7826 467.572 40.8716C467.624 40.958 467.692 41.0172 467.775 41.0492C467.863 41.0803 467.956 41.0957 468.05 41.0946C468.113 41.0943 468.177 41.0893 468.24 41.0799L468.366 41.0559L468.529 41.8025C468.477 41.823 468.402 41.843 468.306 41.8626C468.187 41.8873 468.065 41.8994 467.943 41.8986C467.715 41.9042 467.488 41.8609 467.278 41.7718C467.076 41.6851 466.903 41.5424 466.78 41.3604C466.646 41.1526 466.58 40.9087 466.59 40.6619V36.0837ZM473.654 41.9334C473.218 41.9334 472.837 41.8332 472.513 41.6329C472.187 41.4317 471.925 41.1411 471.759 40.7955C471.572 40.4027 471.48 39.972 471.489 39.5374C471.489 39.0566 471.579 38.6359 471.759 38.2753C471.937 37.9147 472.188 37.6342 472.513 37.4339C472.838 37.2336 473.218 37.1338 473.654 37.1347C474.089 37.1356 474.469 37.2353 474.793 37.4339C475.117 37.6342 475.369 37.9147 475.549 38.2753C475.729 38.6359 475.818 39.0566 475.817 39.5374C475.817 40.0182 475.728 40.4375 475.549 40.7955C475.382 41.1413 475.12 41.4319 474.793 41.6329C474.469 41.8323 474.089 41.9334 473.654 41.9334ZM473.656 41.1721C473.909 41.1827 474.158 41.1032 474.358 40.9477C474.547 40.7912 474.689 40.5856 474.769 40.3534C474.859 40.1059 474.904 39.8325 474.904 39.5334C474.904 39.2369 474.859 38.9653 474.769 38.7187C474.69 38.4836 474.548 38.2751 474.358 38.1164C474.158 37.9599 473.91 37.8794 473.656 37.8893C473.401 37.8802 473.151 37.9605 472.949 38.1164C472.758 38.2744 472.614 38.4825 472.535 38.7174C472.446 38.9667 472.402 39.2387 472.402 39.5334C472.402 39.8317 472.446 40.105 472.535 40.3534C472.615 40.5859 472.759 40.7915 472.949 40.9477C473.152 41.1017 473.402 41.1809 473.656 41.1721ZM479.036 37.1935V37.92H476.412V37.1948L479.036 37.1935ZM477.132 41.8372V36.6553C477.122 36.4014 477.188 36.1504 477.321 35.9341C477.446 35.745 477.621 35.595 477.827 35.5014C478.037 35.4052 478.264 35.3571 478.51 35.3571C478.692 35.3571 478.846 35.3718 478.975 35.4012C479.105 35.4297 479.2 35.4564 479.262 35.4813L479.051 36.2119L478.888 36.1691C478.809 36.1497 478.728 36.1408 478.646 36.1424C478.426 36.1424 478.269 36.1967 478.175 36.3054C478.081 36.4149 478.035 36.572 478.036 36.7768V41.8372H477.132ZM384.399 28.8183L384.402 28.8196L384.41 28.8236L384.442 28.8396L384.547 28.8877C384.628 28.9238 384.733 28.9679 384.828 28.9946C386.27 29.6303 387.836 29.9468 389.494 29.9709H389.496C390.505 29.9709 391.397 29.7972 392.171 29.474L392.175 29.4727C392.944 29.1255 393.55 28.6727 393.984 28.0624C394.414 27.4533 394.644 26.7669 394.644 26.0056C394.644 25.0801 394.393 24.3362 393.926 23.7886L393.923 23.7859C393.463 23.2657 392.886 22.8617 392.24 22.6066C391.6 22.3355 390.77 22.0925 389.755 21.8507H389.751C389.121 21.7265 388.501 21.5591 387.894 21.3499C387.495 21.2128 387.129 20.9951 386.818 20.7102C386.549 20.4609 386.415 20.127 386.417 19.7085C386.417 19.0995 386.695 18.6 387.295 18.2447H387.297C387.888 17.8801 388.696 17.6905 389.688 17.6905C390.73 17.6905 391.747 17.8801 392.745 18.2114C392.849 18.2469 392.955 18.278 393.062 18.3048L393.087 18.3102L393.094 18.3129L393.246 18.3503L393.303 18.2073L393.907 16.7356L393.952 16.6261L393.868 16.5419L393.866 16.5392L393.863 16.5379L393.859 16.5339L393.851 16.5272L393.837 16.5179L393.816 16.5045L393.753 16.4765C393.642 16.4326 393.529 16.3926 393.415 16.3563C392.236 15.9129 390.937 15.6938 389.496 15.6938C388.418 15.6938 387.474 15.8648 386.695 16.2414C385.92 16.5913 385.313 17.0948 384.907 17.7306C384.502 18.3545 384.291 19.0839 384.299 19.8274C384.299 20.7075 384.551 21.4527 385.046 21.999C385.521 22.5252 386.099 22.9272 386.778 23.1796C387.439 23.4485 388.291 23.7156 389.331 23.9809L389.334 23.9823C389.948 24.1311 390.555 24.3072 391.153 24.5098C391.571 24.6487 391.908 24.8303 392.173 25.0747C392.428 25.3085 392.55 25.5756 392.55 25.9081C392.55 26.5892 392.292 27.0861 391.781 27.4213C391.256 27.7632 390.447 27.9488 389.327 27.9488C388.043 27.9573 386.772 27.6933 385.597 27.1742C385.489 27.1131 385.377 27.0595 385.262 27.014L385.231 27.0006L385.223 26.9979L385.062 26.9338L384.992 27.0887L384.316 28.5846L384.246 28.7408L384.399 28.8183Z" fill="black"/>
<path d="M384.479 28.658L384.399 28.8183M384.399 28.8183L384.403 28.8196L384.411 28.8236L384.443 28.8396L384.549 28.8877C384.629 28.9238 384.734 28.9679 384.829 28.9946C386.272 29.6303 387.837 29.9468 389.496 29.9709C390.505 29.9709 391.399 29.7972 392.172 29.474L392.176 29.4727C392.945 29.1255 393.552 28.6727 393.986 28.0624C394.416 27.4533 394.645 26.7669 394.645 26.0056C394.645 25.0801 394.394 24.3362 393.927 23.7886L393.924 23.7859C393.464 23.2657 392.888 22.8617 392.241 22.6066C391.602 22.3355 390.771 22.0925 389.756 21.8507H389.752C389.123 21.7265 388.502 21.5591 387.896 21.3499C387.497 21.2128 387.13 20.9951 386.819 20.7102C386.55 20.4609 386.417 20.127 386.419 19.7085C386.419 19.0995 386.696 18.6 387.296 18.2447H387.299C387.889 17.8801 388.697 17.6905 389.689 17.6905C390.731 17.6905 391.749 17.8801 392.746 18.2114C392.851 18.2469 392.956 18.278 393.063 18.3048L393.088 18.3102L393.095 18.3129M384.399 28.8183L384.246 28.7408L384.316 28.5846L384.992 27.0887L385.063 26.9338L385.221 26.9966M393.095 18.3129L393.14 18.1392M393.095 18.3129L393.247 18.3503L393.305 18.2073L393.908 16.7356L393.954 16.6261L393.87 16.5419M393.87 16.5419L393.744 16.6688M393.87 16.5419L393.867 16.5392L393.864 16.5379L393.86 16.5339L393.852 16.5272L393.839 16.5179L393.817 16.5045L393.755 16.4765C393.643 16.4326 393.531 16.3926 393.417 16.3563C392.237 15.9129 390.938 15.6938 389.497 15.6938C388.419 15.6938 387.475 15.8648 386.696 16.2414C385.922 16.5913 385.314 17.0948 384.908 17.7306C384.504 18.3545 384.292 19.0839 384.3 19.8274C384.3 20.7075 384.553 21.4527 385.047 21.999C385.522 22.5252 386.101 22.9272 386.779 23.1796C387.441 23.4485 388.292 23.7156 389.333 23.9809L389.335 23.9823C389.949 24.1311 390.556 24.3072 391.154 24.5098C391.572 24.6487 391.909 24.8303 392.175 25.0747C392.43 25.3085 392.551 25.5756 392.551 25.9081C392.551 26.5892 392.294 27.0861 391.782 27.4213C391.257 27.7632 390.448 27.9488 389.329 27.9488C388.044 27.9573 386.773 27.6933 385.598 27.1742C385.491 27.1131 385.379 27.0595 385.263 27.014L385.233 27.0006L385.225 26.9979H385.222L385.155 27.1622" stroke="black" stroke-width="0.267"/>
<path d="M398.824 22.8177V22.823C398.85 24.1986 399.145 25.4327 399.714 26.4984C400.273 27.5517 401.115 28.4282 402.145 29.0293C403.19 29.6517 404.43 29.9468 405.807 29.9468C407.184 29.9468 408.398 29.6517 409.442 29.0293C410.482 28.4401 411.327 27.5606 411.874 26.4984C412.468 25.4086 412.763 24.1986 412.788 22.823V22.8137C412.739 21.4407 412.444 20.2307 411.875 19.1436V19.1409C411.316 18.0881 410.474 17.2121 409.445 16.6114C408.399 15.989 407.184 15.6938 405.807 15.6938C404.431 15.6938 403.19 15.9877 402.145 16.6114C401.116 17.2138 400.275 18.0894 399.714 19.1409C399.144 20.208 398.848 21.442 398.824 22.8163V22.8177ZM410.087 25.4407L410.086 25.4447C409.723 26.2069 409.142 26.8439 408.416 27.2744C407.675 27.7151 406.814 27.9488 405.807 27.9488C404.797 27.9488 403.914 27.7151 403.2 27.2771C402.488 26.8256 401.91 26.1914 401.526 25.4407C401.131 24.6741 400.943 23.7859 400.943 22.8203C400.943 21.8534 401.131 20.9666 401.526 20.2C401.902 19.4449 402.481 18.8094 403.198 18.3649C403.913 17.9255 404.797 17.6905 405.807 17.6905C406.814 17.6905 407.674 17.9242 408.415 18.3636C409.136 18.8311 409.692 19.432 410.087 20.2C410.482 20.9666 410.671 21.8534 410.671 22.8203C410.671 23.7859 410.482 24.6741 410.087 25.4407ZM415.939 15.766H415.672L415.774 16.0117L421.467 29.7398L421.513 29.8493H423.803L423.849 29.7398L429.518 16.0117L429.619 15.766H427.326L427.281 15.8768L422.647 27.432L417.985 15.8768L417.941 15.766H415.939ZM433.57 29.7398L438.207 18.6494L442.843 29.7398L442.889 29.8493H445.183L445.078 29.6009L439.263 15.8741L439.218 15.766H437.22L437.173 15.8741L431.36 29.6022L431.254 29.8493H433.526L433.57 29.7398ZM449.729 29.5755V29.7532H459.084V27.635H451.847L451.823 15.9436V15.766H449.729V29.5755ZM463.732 15.8621H463.553V29.5742H463.732V29.7291H473.391V27.7311H465.671V23.7939H472.691V21.7973H465.671V17.8588H473.391V15.8621H463.732Z" fill="black" stroke="black" stroke-width="0.267"/>
<path d="M478.848 29.6718V29.8495H480.942V29.6718L480.965 19.7834L489.409 29.7867L489.463 29.8495H491.003V15.7661H488.884V25.8775L480.418 15.8289L480.365 15.7661H478.848V29.6718Z" fill="black"/>
<path d="M479.027 15.7661H480.365L480.418 15.8289L488.884 25.8775V15.7661H491.003V29.8495H489.463L489.409 29.7867L480.965 19.7834L480.942 29.6718V29.8495H478.848V15.7661H479.027ZM479.027 15.7661V15.9437" stroke="black" stroke-width="0.267"/>
<path d="M499.789 29.6705V29.8495H501.907V17.883H506.685V15.885H495.037V17.883H499.789V29.6705ZM379.263 15.9437V15.7661H377.144V29.8495H379.263V15.9437Z" fill="black" stroke="black" stroke-width="0.267"/>
<path d="M438.955 24.4844L439.653 25.6663L438.955 26.8723H437.602L436.902 25.6663L437.602 24.4844H438.955Z" fill="#0000D8"/>
</g>
</svg>