<svg width="202" height="48" viewBox="0 0 202 48" fill="none" xmlns="http://www.w3.org/2000/svg">
<path fill-rule="evenodd" clip-rule="evenodd" d="M22.7453 3.41548C23.211 3.65313 23.3954 4.22199 23.157 4.68607C22.6865 5.60241 22.4319 6.91674 22.3345 8.26769C22.2385 9.60109 22.3024 10.863 22.4008 11.6056C22.4693 12.1226 22.1044 12.5968 21.5858 12.665C21.0671 12.7331 20.5911 12.3693 20.5226 11.8523C20.4069 10.9789 20.3399 9.58881 20.4449 8.13192C20.5486 6.6926 20.8271 5.07837 21.4705 3.8255C21.7088 3.36141 22.2796 3.17784 22.7453 3.41548Z" fill="#1A1A1A"/>
<path d="M17.2499 18.3626C17.8187 15.6694 12.0381 15.2299 9.07674 15.3468C-2.59788 15.5971 2.28208 22.7316 8.74573 23.5271C11.4057 23.8544 16.539 21.7291 17.2499 18.3626Z" fill="#CFEDFC"/>
<path d="M2.88704 16.8417C3.21472 16.5723 3.64016 16.3284 4.17378 16.1193L4.34016 16.6403L5.18708 17.7096L6.4277 18.8306L7.38081 18.6896L12.145 18.1973L17.153 18.7313C16.9955 19.232 16.7405 19.7026 16.4127 20.1388C14.9304 19.8428 11.47 19.7551 9.59043 19.7515C9.0875 20.3406 8.90544 22.3434 8.86611 23.5394C8.82548 23.5356 8.78537 23.5313 8.74581 23.5264C8.21827 23.4615 7.70127 23.3543 7.20296 23.2121C7.15687 22.277 7.4805 20.9397 7.71601 20.1974C6.24269 20.2773 4.68427 21.0027 3.82476 21.5081C3.42862 21.191 3.08514 20.8525 2.80664 20.5034L4.7163 19.4576C4.42154 19.3083 3.49006 17.8434 2.88704 16.8417Z" fill="#00ACE6"/>
<path d="M16.2602 21.6123L17.9767 22.7692L10.2207 34.2064L8.3571 32.9503L6.92572 30.8462L6.20898 27.3721L7.4925 24.3203L10.573 25.257L16.2602 21.6123Z" fill="#FFE100"/>
<path fill-rule="evenodd" clip-rule="evenodd" d="M14.6992 14.0082C17.0001 9.06314 22.5971 10.2756 25.2404 12.057L17.9764 22.7687L17.1427 22.2068C16.0842 23.4305 13.9222 24.3567 12.9735 24.6668C13.0698 26.0421 14.2276 27.1026 14.7945 27.4609L12.408 30.98C9.62241 29.1026 8.80873 26.4178 8.75009 25.31L7.71614 25.2541C5.8906 29.3792 8.75322 32.5761 10.5188 33.766L7.43625 38.3115L7.97228 34.0438C4.49748 31.0752 5.11915 26.5898 5.86433 24.7182C3.47042 24.2443 -0.684323 20.7821 0.0961886 17.8397C1.45518 12.7165 10.3727 12.8015 14.6992 14.0082ZM17.2529 18.3449C17.7938 15.6668 12.0314 15.2294 9.07624 15.346C7.19763 15.3863 5.74768 15.6048 4.664 15.9465C5.14627 17.4396 6.26454 18.1821 6.80761 18.3748C10.234 17.5982 14.683 17.9565 17.2529 18.3449ZM17.0368 19.052C15.2446 18.82 12.5742 18.7601 11.1886 18.7637C9.3072 20.044 9.06589 22.2032 9.22596 23.5587C11.7744 23.6023 15.9045 21.8319 17.0368 19.052ZM8.36668 23.4723C8.02287 21.5087 9.12954 19.656 9.80867 18.9019C6.32439 19.0344 4.12788 20.02 3.0548 20.7936C4.20302 22.0458 6.17458 23.1161 8.36668 23.4723ZM2.44461 19.9835C3.30596 19.4588 4.84911 18.9761 5.68878 18.7602C4.47484 17.8553 3.94477 16.9107 3.75735 16.2994C1.85852 17.2092 1.64327 18.6336 2.44461 19.9835Z" fill="#1A1A1A"/>
<path fill-rule="evenodd" clip-rule="evenodd" d="M34.2145 11.146C33.8198 10.8038 33.2216 10.8453 32.8784 11.2386C32.2007 12.0154 31.0721 12.7406 29.8509 13.3341C28.6455 13.9199 27.4471 14.3309 26.7191 14.5167C26.2124 14.6459 25.9069 15.1602 26.0367 15.6653C26.1665 16.1704 26.6825 16.4751 27.1892 16.3458C28.0454 16.1274 29.3643 15.6713 30.6813 15.0313C31.9825 14.399 33.3813 13.5399 34.3078 12.4779C34.651 12.0845 34.6092 11.4882 34.2145 11.146Z" fill="#1A1A1A"/>
<path d="M22.3502 21.7997C24.6452 20.27 27.2085 25.4538 28.2032 28.237C32.3207 39.1305 23.8611 37.2747 20.712 31.5916C19.416 29.2528 19.4814 23.7119 22.3502 21.7997Z" fill="#CFEDFC"/>
<path d="M29.1179 34.5192C29.2465 34.1157 29.315 33.6312 29.3108 33.0596L28.7638 33.0999L27.4529 32.7149L25.9471 31.9849L25.7232 31.0506L24.4061 26.4597L22.0428 22.0258C21.6354 22.358 21.2923 22.7693 21.0085 23.2352C21.8364 24.4961 23.2076 27.6647 23.9113 29.4022C23.5504 30.087 21.7539 31.0017 20.6553 31.4838C20.6739 31.52 20.6929 31.5555 20.7122 31.5903C20.9692 32.0541 21.2616 32.4925 21.5797 32.9005C22.4673 32.5946 23.5915 31.7969 24.1947 31.3024C24.6693 32.6952 24.5749 34.4072 24.4247 35.3907C24.8675 35.639 25.3106 35.8306 25.7393 35.9581L26.0012 33.8018C26.2501 34.0188 27.9608 34.3346 29.1179 34.5192Z" fill="#00ACE6"/>
<path d="M19.6932 23.9248L17.9767 22.7679L10.2207 34.2051L12.0843 35.4611L14.5764 36.0012L18.0773 35.3697L20.4398 33.045L18.4199 30.5442L19.6932 23.9248Z" fill="#FFE100"/>
<path fill-rule="evenodd" clip-rule="evenodd" d="M27.3526 22.5355C31.0983 18.5642 27.884 13.8381 25.2407 12.0566L17.9767 22.7683L18.8104 23.3302C18.0658 24.7654 18.0093 27.1107 18.0742 28.1039C16.7581 28.5273 15.3395 27.8514 14.7948 27.4605L12.4083 30.9796C15.1939 32.857 17.9963 32.6092 19.0493 32.2507L19.4867 33.1864C16.3272 36.4124 12.2846 34.9555 10.519 33.7656L7.43652 38.3112L11.2094 36.2249C15.2675 38.3332 19.2111 36.0866 20.6756 34.6998C22.0088 36.7378 26.7799 39.2912 29.2279 37.4727C33.4903 34.3063 30.0882 26.0883 27.3526 22.5355ZM22.3642 21.7891C24.6555 20.2907 27.2101 25.4586 28.2027 28.2359C28.8653 29.9888 29.2022 31.4116 29.2879 32.5415C27.7184 32.6517 26.6105 31.8939 26.2288 31.4633C25.6748 28.0042 23.6834 24.0218 22.3642 21.7891ZM21.7865 22.2526C22.6704 23.8241 23.7212 26.2722 24.2342 27.5553C23.7435 29.773 21.8236 30.8008 20.5022 31.1578C19.5119 28.8165 19.6208 24.336 21.7865 22.2526ZM20.9028 31.9206C22.8588 31.5069 24.1709 29.7927 24.6198 28.8834C25.7949 32.1561 25.696 34.5554 25.3757 35.8364C23.7823 35.2408 22.0512 33.8158 20.9028 31.9206ZM26.3572 36.099C26.5247 35.1067 26.3989 33.4992 26.287 32.642C27.5816 33.4278 28.6585 33.5662 29.2973 33.5117C29.1581 35.6074 27.9124 36.3373 26.3572 36.099Z" fill="#1A1A1A"/>
<path fill-rule="evenodd" clip-rule="evenodd" d="M52.2913 25.0896V14.866H57.2443C61.1113 14.866 62.3965 14.9039 63.1052 15.0391C63.6046 15.1343 64.2989 15.3428 64.648 15.5021C64.9974 15.6615 65.5501 16.0409 65.8764 16.3452C66.2027 16.6494 66.6013 17.17 66.7622 17.502C66.923 17.8341 67.109 18.4494 67.1751 18.8695C67.2567 19.3873 67.2568 19.8806 67.1753 20.4011C67.1092 20.8233 66.9211 21.4452 66.7571 21.7831C66.5932 22.121 66.2217 22.6058 65.9316 22.8605C65.6413 23.1152 65.1258 23.4561 64.7859 23.6179L64.168 23.9124L64.5225 24.0023C64.7176 24.0519 65.1015 24.1875 65.3758 24.3037C65.65 24.42 66.1228 24.7429 66.4264 25.0214C66.73 25.3 67.0994 25.7185 67.2472 25.9516C67.3952 26.1847 67.6004 26.6582 67.7034 27.0038C67.8085 27.3568 67.8905 28.0608 67.8905 28.6099C67.8905 29.2842 67.8139 29.8205 67.6431 30.3388C67.5071 30.7521 67.2012 31.3452 66.9636 31.6568C66.7259 31.9685 66.2391 32.4235 65.8816 32.6679C65.5241 32.9124 64.8956 33.2225 64.4851 33.357C64.0745 33.4914 63.2503 33.6529 62.6534 33.7155C62.0565 33.7782 59.4808 33.8304 56.9297 33.8316L52.2913 33.8336L52.2803 28.4732L51.9673 28.8855C51.7951 29.1123 51.2792 29.672 50.8207 30.1293C50.3621 30.5866 49.6476 31.1897 49.2328 31.4696C48.8181 31.7494 48.0469 32.18 47.5193 32.4263C46.9915 32.6728 46.161 32.9879 45.6735 33.1267C45.1571 33.2737 44.2646 33.4067 43.5349 33.4454C42.5891 33.4956 42.061 33.4627 41.3777 33.3111C40.88 33.2008 40.1046 32.9268 39.6545 32.7022C39.2042 32.4777 38.5683 32.0542 38.2412 31.7609C37.9141 31.4678 37.3985 30.856 37.0954 30.4014C36.7922 29.9469 36.4167 29.2094 36.2608 28.7624C36.1049 28.3155 35.9224 27.5132 35.8552 26.9794C35.7881 26.4456 35.767 25.6622 35.8082 25.2383C35.8495 24.8144 35.9862 24.0801 36.112 23.6065C36.2378 23.1329 36.4804 22.4702 36.651 22.1338C36.8217 21.7975 37.1771 21.2042 37.4412 20.8154C37.705 20.4267 38.3004 19.7375 38.7642 19.2839C39.2279 18.8303 39.9072 18.2813 40.2736 18.064C40.6399 17.8466 41.2736 17.5285 41.6816 17.3571C42.3389 17.0811 43.2322 16.9866 43.764 16.9866C44.2958 16.9866 45.1868 17.0691 45.7746 17.3777C46.1227 17.5606 46.6411 17.9497 46.9266 18.2424C47.2921 18.6173 47.5018 18.9673 47.6352 19.4248C47.7667 19.8756 47.8004 20.2687 47.7455 20.7077C47.7017 21.0558 47.5001 21.6718 47.2972 22.0766C47.0643 22.5412 46.599 23.1447 46.035 23.7137C45.5438 24.2094 44.6764 24.9163 44.1078 25.2848C43.5393 25.6533 42.7416 26.1046 42.3351 26.2876C41.9288 26.4706 41.171 26.7538 40.651 26.9169C40.1311 27.0798 39.4531 27.251 39.1443 27.297C38.7627 27.354 38.5829 27.437 38.5829 27.5567C38.5829 27.6534 38.7418 28.0645 38.936 28.47C39.1301 28.8756 39.5072 29.4317 39.774 29.7057C40.0408 29.9797 40.6039 30.3647 41.0254 30.5614C41.6369 30.8466 42.0016 30.9308 42.8301 30.9779C43.5613 31.0195 44.133 30.9783 44.7629 30.8386C45.2548 30.7295 46.1262 30.4123 46.6994 30.1338C47.2727 29.8553 48.167 29.307 48.687 28.9152C49.207 28.5235 49.9826 27.8396 50.4103 27.3955C50.8383 26.9515 51.4366 26.251 51.7398 25.8389L52.2913 25.0896ZM62.4225 19.4486C62.2751 19.2284 61.9692 18.9555 61.743 18.8423C61.3931 18.667 60.984 18.6363 58.9978 18.6362L56.6638 18.6359V22.1703H58.9432C61.0721 22.1703 61.2575 22.1527 61.7499 21.9052C62.0931 21.7327 62.3494 21.4962 62.4838 21.2278C62.5974 21.001 62.6906 20.598 62.6906 20.3322C62.6907 20.0256 62.5928 19.7025 62.4225 19.4486ZM45.6072 19.8396C45.5058 19.6952 45.2691 19.4978 45.0813 19.401C44.8824 19.2985 44.4232 19.225 43.9817 19.225C43.3467 19.225 43.0818 19.2951 42.3509 19.656C41.7166 19.9694 41.2362 20.3321 40.5919 20.9838C39.9786 21.6042 39.5494 22.177 39.1985 22.8436C38.9196 23.3732 38.6163 24.1654 38.5243 24.6038C38.4322 25.042 38.384 25.4276 38.4169 25.4605C38.4498 25.4934 38.8882 25.4354 39.391 25.3317C39.8937 25.2282 40.7257 24.9687 41.2398 24.7554C41.7538 24.542 42.6399 24.0571 43.2088 23.6778C43.7776 23.2985 44.4864 22.7114 44.784 22.373C45.0815 22.0348 45.4299 21.5423 45.5583 21.2789C45.6866 21.0155 45.7917 20.6429 45.7917 20.451C45.7917 20.2591 45.7087 19.9839 45.6072 19.8396ZM62.8967 26.7529C62.7499 26.5327 62.3931 26.2333 62.1035 26.0875C61.6092 25.8385 61.4312 25.8224 59.1796 25.8224H56.782V30.0842L59.2342 30.0444C61.4456 30.0086 61.7328 29.9805 62.159 29.7587C62.4383 29.6133 62.7397 29.324 62.8958 29.0519C63.0885 28.7151 63.1602 28.3973 63.1617 27.8721C63.163 27.3203 63.1015 27.0601 62.8967 26.7529Z" fill="#1A1A1A"/>
<path fill-rule="evenodd" clip-rule="evenodd" d="M70.4313 33.7747L70.3709 14.866H74.9058C78.4403 14.866 79.6724 14.9058 80.4903 15.0462C81.1258 15.1553 81.8787 15.3859 82.3985 15.6303C82.8857 15.8595 83.529 16.2907 83.8858 16.6269C84.2316 16.9529 84.6517 17.4721 84.8194 17.7805C84.9872 18.089 85.2124 18.6815 85.32 19.0973C85.441 19.5654 85.5137 20.3052 85.511 21.0412C85.5086 21.7169 85.4287 22.5227 85.326 22.9101C85.2266 23.2848 85.0321 23.8149 84.8936 24.0882C84.7552 24.3617 84.4616 24.8321 84.2414 25.1336C84.0211 25.4352 83.4827 25.9228 83.045 26.2173C82.6071 26.5118 81.9299 26.8573 81.5399 26.9848C81.1499 27.1126 80.4148 27.2743 79.9065 27.3444C79.3979 27.4145 78.0826 27.4718 76.9835 27.4718H74.985L74.922 33.7747H70.4313ZM80.5059 19.7786C80.343 19.4877 80.0568 19.2085 79.7672 19.0582C79.3482 18.8405 79.05 18.7696 77.1378 18.7369L74.9811 18.7391V23.584L76.9015 23.5833C77.9577 23.5829 79.0227 23.5271 79.2682 23.4591C79.5137 23.3911 79.8995 23.1738 80.1253 22.976C80.4119 22.7251 80.5936 22.4191 80.7266 21.9631C80.8489 21.5436 80.8911 21.1208 80.8445 20.7818C80.8046 20.4912 80.6523 20.0399 80.5059 19.7786Z" fill="#1A1A1A"/>
<path d="M88.4376 24.4676L88.4681 33.7747H92.9588L93.0213 26.5325L100.877 26.4704L100.942 22.6415H93.0179V18.8715H101.999V14.866H88.4344C88.4305 16.5041 88.4258 20.8869 88.4376 24.4676Z" fill="#1A1A1A"/>
<rect x="109" y="10" width="93" height="29" rx="4" fill="#EF6911"/>
<path d="M125.273 20.3984C125.201 19.7161 124.893 19.1849 124.352 18.8047C123.815 18.4245 123.117 18.2344 122.258 18.2344C121.654 18.2344 121.135 18.3255 120.703 18.5078C120.271 18.6901 119.94 18.9375 119.711 19.25C119.482 19.5625 119.365 19.9193 119.359 20.3203C119.359 20.6536 119.435 20.9427 119.586 21.1875C119.742 21.4323 119.953 21.6406 120.219 21.8125C120.484 21.9792 120.779 22.1198 121.102 22.2344C121.424 22.349 121.75 22.4453 122.078 22.5234L123.578 22.8984C124.182 23.0391 124.763 23.2292 125.32 23.4687C125.883 23.7083 126.385 24.0104 126.828 24.375C127.276 24.7396 127.63 25.1797 127.891 25.6953C128.151 26.2109 128.281 26.8151 128.281 27.5078C128.281 28.4453 128.042 29.2708 127.563 29.9844C127.083 30.6927 126.391 31.2474 125.484 31.6484C124.583 32.0443 123.492 32.2422 122.211 32.2422C120.966 32.2422 119.885 32.0495 118.969 31.6641C118.057 31.2786 117.344 30.7161 116.828 29.9766C116.318 29.237 116.042 28.3359 116 27.2734H118.852C118.893 27.8307 119.065 28.2943 119.367 28.6641C119.669 29.0339 120.063 29.3099 120.547 29.4922C121.036 29.6745 121.583 29.7656 122.188 29.7656C122.818 29.7656 123.37 29.6719 123.844 29.4844C124.323 29.2917 124.698 29.026 124.969 28.6875C125.24 28.3437 125.378 27.9427 125.383 27.4844C125.378 27.0677 125.255 26.724 125.016 26.4531C124.776 26.1771 124.44 25.9479 124.008 25.7656C123.581 25.5781 123.081 25.4115 122.508 25.2656L120.688 24.7969C119.37 24.4583 118.328 23.9453 117.563 23.2578C116.802 22.5651 116.422 21.6458 116.422 20.5C116.422 19.5573 116.677 18.7318 117.188 18.0234C117.703 17.3151 118.404 16.7656 119.289 16.375C120.174 15.9792 121.177 15.7812 122.297 15.7812C123.432 15.7812 124.427 15.9792 125.281 16.375C126.141 16.7656 126.815 17.3099 127.305 18.0078C127.794 18.7005 128.047 19.4974 128.062 20.3984H125.273ZM138.169 26.9531V20H140.997V32H138.255V29.8672H138.13C137.859 30.5391 137.413 31.0885 136.794 31.5156C136.179 31.9427 135.421 32.1563 134.52 32.1563C133.734 32.1563 133.038 31.9818 132.434 31.6328C131.835 31.2786 131.367 30.7656 131.028 30.0938C130.69 29.4167 130.52 28.599 130.52 27.6406V20H133.348V27.2031C133.348 27.9635 133.557 28.5677 133.973 29.0156C134.39 29.4635 134.937 29.6875 135.614 29.6875C136.031 29.6875 136.434 29.5859 136.825 29.3828C137.216 29.1797 137.536 28.8776 137.786 28.4766C138.041 28.0703 138.169 27.5625 138.169 26.9531ZM143.685 32V20H146.388V22.0391H146.529C146.779 21.3516 147.193 20.8151 147.771 20.4297C148.349 20.0391 149.039 19.8438 149.841 19.8438C150.654 19.8438 151.339 20.0417 151.896 20.4375C152.458 20.8281 152.854 21.362 153.083 22.0391H153.208C153.474 21.3724 153.922 20.8411 154.552 20.4453C155.188 20.0443 155.94 19.8438 156.81 19.8438C157.914 19.8438 158.815 20.1927 159.513 20.8906C160.211 21.5885 160.56 22.6068 160.56 23.9453V32H157.724V24.3828C157.724 23.638 157.526 23.0937 157.13 22.75C156.734 22.401 156.25 22.2266 155.677 22.2266C154.995 22.2266 154.461 22.4401 154.076 22.8672C153.695 23.2891 153.505 23.8385 153.505 24.5156V32H150.732V24.2656C150.732 23.6458 150.544 23.151 150.169 22.7812C149.8 22.4115 149.315 22.2266 148.716 22.2266C148.31 22.2266 147.94 22.3307 147.607 22.5391C147.274 22.7422 147.008 23.0312 146.81 23.4062C146.612 23.776 146.513 24.2083 146.513 24.7031V32H143.685ZM163.209 32V20H165.912V22.0391H166.053C166.303 21.3516 166.717 20.8151 167.295 20.4297C167.873 20.0391 168.563 19.8438 169.365 19.8438C170.178 19.8438 170.863 20.0417 171.42 20.4375C171.983 20.8281 172.378 21.362 172.608 22.0391H172.733C172.998 21.3724 173.446 20.8411 174.076 20.4453C174.712 20.0443 175.464 19.8438 176.334 19.8438C177.438 19.8438 178.339 20.1927 179.037 20.8906C179.735 21.5885 180.084 22.6068 180.084 23.9453V32H177.248V24.3828C177.248 23.638 177.05 23.0937 176.654 22.75C176.259 22.401 175.774 22.2266 175.201 22.2266C174.519 22.2266 173.985 22.4401 173.6 22.8672C173.22 23.2891 173.029 23.8385 173.029 24.5156V32H170.256V24.2656C170.256 23.6458 170.069 23.151 169.694 22.7812C169.324 22.4115 168.839 22.2266 168.24 22.2266C167.834 22.2266 167.464 22.3307 167.131 22.5391C166.798 22.7422 166.532 23.0312 166.334 23.4062C166.136 23.776 166.037 24.2083 166.037 24.7031V32H163.209ZM182.733 32V20H185.561V32H182.733ZM184.155 18.2969C183.707 18.2969 183.322 18.1484 182.999 17.8516C182.676 17.5495 182.515 17.1875 182.515 16.7656C182.515 16.3385 182.676 15.9766 182.999 15.6797C183.322 15.3776 183.707 15.2266 184.155 15.2266C184.608 15.2266 184.994 15.3776 185.311 15.6797C185.634 15.9766 185.796 16.3385 185.796 16.7656C185.796 17.1875 185.634 17.5495 185.311 17.8516C184.994 18.1484 184.608 18.2969 184.155 18.2969ZM194.242 20V22.1875H187.343V20H194.242ZM189.046 17.125H191.875V28.3906C191.875 28.7708 191.932 29.0625 192.046 29.2656C192.166 29.4635 192.323 29.599 192.515 29.6719C192.708 29.7448 192.921 29.7812 193.156 29.7812C193.333 29.7812 193.494 29.7682 193.64 29.7422C193.791 29.7161 193.906 29.6927 193.984 29.6719L194.461 31.8828C194.31 31.9349 194.093 31.9922 193.812 32.0547C193.536 32.1172 193.198 32.1536 192.796 32.1641C192.088 32.1849 191.45 32.0781 190.882 31.8437C190.315 31.6042 189.864 31.2344 189.531 30.7344C189.203 30.2344 189.041 29.6094 189.046 28.8594V17.125Z" fill="white"/>
</svg>
