<svg width="481" height="48" viewBox="0 0 481 48" fill="none" xmlns="http://www.w3.org/2000/svg">
<path fill-rule="evenodd" clip-rule="evenodd" d="M22.7453 1.41646C23.211 1.6541 23.3954 2.22296 23.157 2.68705C22.6865 3.60339 22.4319 4.91772 22.3345 6.26867C22.2385 7.60206 22.3024 8.86394 22.4008 9.60661C22.4693 10.1235 22.1044 10.5978 21.5858 10.6659C21.0671 10.7341 20.5911 10.3702 20.5226 9.85332C20.4069 8.9799 20.3399 7.58978 20.4449 6.1329C20.5486 4.69357 20.8271 3.07934 21.4705 1.82647C21.7088 1.36239 22.2796 1.17882 22.7453 1.41646Z" fill="#1A1A1A"/>
<path d="M17.2499 16.3627C17.8187 13.6695 12.0381 13.23 9.07674 13.3469C-2.59788 13.5972 2.28208 20.7317 8.74573 21.5272C11.4057 21.8546 16.539 19.7293 17.2499 16.3627Z" fill="#CFEDFC"/>
<path d="M2.88704 14.8435C3.21472 14.5741 3.64016 14.3302 4.17378 14.1211L4.34016 14.6422L5.18708 15.7115L6.4277 16.8324L7.38081 16.6914L12.145 16.1991L17.153 16.7331C16.9955 17.2338 16.7405 17.7044 16.4127 18.1406C14.9304 17.8446 11.47 17.7569 9.59043 17.7533C9.0875 18.3424 8.90544 20.3452 8.86611 21.5412C8.82548 21.5374 8.78537 21.5331 8.74581 21.5282C8.21827 21.4633 7.70127 21.3562 7.20296 21.214C7.15687 20.2788 7.4805 18.9415 7.71601 18.1992C6.24269 18.2792 4.68427 19.0045 3.82476 19.5099C3.42862 19.1928 3.08514 18.8543 2.80664 18.5053L4.7163 17.4594C4.42154 17.3101 3.49006 15.8452 2.88704 14.8435Z" fill="#00ACE6"/>
<path d="M16.2602 19.6133L17.9767 20.7701L10.2207 32.2073L8.3571 30.9513L6.92572 28.8472L6.20898 25.3731L7.4925 22.3213L10.573 23.258L16.2602 19.6133Z" fill="#FFE100"/>
<path fill-rule="evenodd" clip-rule="evenodd" d="M14.6992 12.0096C17.0001 7.0646 22.5971 8.27704 25.2404 10.0585L17.9764 20.7702L17.1427 20.2083C16.0842 21.4319 13.9222 22.3582 12.9735 22.6683C13.0698 24.0436 14.2276 25.104 14.7945 25.4623L12.408 28.9815C9.62241 27.1041 8.80873 24.4192 8.75009 23.3115L7.71614 23.2556C5.8906 27.3806 8.75322 30.5776 10.5188 31.7675L7.43625 36.313L7.97228 32.0453C4.49748 29.0767 5.11915 24.5913 5.86433 22.7197C3.47042 22.2457 -0.684323 18.7835 0.0961886 15.8411C1.45518 10.718 10.3727 10.8029 14.6992 12.0096ZM17.2529 16.3464C17.7938 13.6683 12.0314 13.2309 9.07624 13.3475C7.19763 13.3878 5.74768 13.6063 4.664 13.948C5.14627 15.4411 6.26454 16.1836 6.80761 16.3763C10.234 15.5997 14.683 15.958 17.2529 16.3464ZM17.0368 17.0535C15.2446 16.8214 12.5742 16.7616 11.1886 16.7651C9.3072 18.0455 9.06589 20.2047 9.22596 21.5602C11.7744 21.6038 15.9045 19.8334 17.0368 17.0535ZM8.36668 21.4738C8.02287 19.5101 9.12954 17.6575 9.80867 16.9033C6.32439 17.0359 4.12788 18.0215 3.0548 18.7951C4.20302 20.0472 6.17458 21.1176 8.36668 21.4738ZM2.44461 17.9849C3.30596 17.4602 4.84911 16.9776 5.68878 16.7617C4.47484 15.8568 3.94477 14.9122 3.75735 14.3009C1.85852 15.2107 1.64327 16.6351 2.44461 17.9849Z" fill="#1A1A1A"/>
<path fill-rule="evenodd" clip-rule="evenodd" d="M34.2145 9.14783C33.8198 8.80562 33.2216 8.8471 32.8784 9.24047C32.2007 10.0172 31.0721 10.7424 29.8509 11.3359C28.6455 11.9217 27.4471 12.3328 26.7191 12.5185C26.2124 12.6478 25.9069 13.162 26.0367 13.6671C26.1665 14.1722 26.6825 14.4769 27.1892 14.3477C28.0454 14.1292 29.3643 13.6732 30.6813 13.0331C31.9825 12.4008 33.3813 11.5417 34.3078 10.4797C34.651 10.0863 34.6092 9.49004 34.2145 9.14783Z" fill="#1A1A1A"/>
<path d="M22.3502 19.8002C24.6452 18.2704 27.2085 23.4543 28.2032 26.2374C32.3207 37.131 23.8611 35.2752 20.712 29.5921C19.416 27.2533 19.4814 21.7124 22.3502 19.8002Z" fill="#CFEDFC"/>
<path d="M29.1179 32.5208C29.2465 32.1173 29.315 31.6328 29.3108 31.0612L28.7638 31.1015L27.4529 30.7164L25.9471 29.9865L25.7232 29.0522L24.4061 24.4613L22.0428 20.0273C21.6354 20.3596 21.2923 20.7709 21.0085 21.2368C21.8364 22.4977 23.2076 25.6663 23.9113 27.4038C23.5504 28.0885 21.7539 29.0033 20.6553 29.4854C20.6739 29.5216 20.6929 29.5571 20.7122 29.5918C20.9692 30.0557 21.2616 30.494 21.5797 30.902C22.4673 30.5962 23.5915 29.7985 24.1947 29.304C24.6693 30.6967 24.5749 32.4088 24.4247 33.3922C24.8675 33.6405 25.3106 33.8322 25.7393 33.9597L26.0012 31.8033C26.2501 32.0204 27.9608 32.3362 29.1179 32.5208Z" fill="#00ACE6"/>
<path d="M19.6932 21.9264L17.9767 20.7695L10.2207 32.2067L12.0843 33.4627L14.5764 34.0028L18.0773 33.3713L20.4398 31.0466L18.4199 28.5458L19.6932 21.9264Z" fill="#FFE100"/>
<path fill-rule="evenodd" clip-rule="evenodd" d="M27.3526 20.5374C31.0983 16.5661 27.884 11.8401 25.2407 10.0586L17.9767 20.7702L18.8104 21.3321C18.0658 22.7674 18.0093 25.1126 18.0742 26.1059C16.7581 26.5293 15.3395 25.8533 14.7948 25.4624L12.4083 28.9816C15.1939 30.859 17.9963 30.6112 19.0493 30.2526L19.4867 31.1883C16.3272 34.4144 12.2846 32.9575 10.519 31.7676L7.43652 36.3131L11.2094 34.2268C15.2675 36.3352 19.2111 34.0886 20.6756 32.7018C22.0088 34.7398 26.7799 37.2932 29.2279 35.4746C33.4903 32.3083 30.0882 24.0902 27.3526 20.5374ZM22.3642 19.791C24.6555 18.2927 27.2101 23.4606 28.2027 26.2379C28.8653 27.9908 29.2022 29.4136 29.2879 30.5434C27.7184 30.6537 26.6105 29.8958 26.2288 29.4653C25.6748 26.0061 23.6834 22.0238 22.3642 19.791ZM21.7865 20.2545C22.6704 21.826 23.7212 24.2742 24.2342 25.5573C23.7435 27.7749 21.8236 28.8028 20.5022 29.1598C19.5119 26.8185 19.6208 22.3379 21.7865 20.2545ZM20.9028 29.9225C22.8588 29.5088 24.1709 27.7947 24.6198 26.8854C25.7949 30.1581 25.696 32.5574 25.3757 33.8384C23.7823 33.2428 22.0512 31.8177 20.9028 29.9225ZM26.3572 34.101C26.5247 33.1086 26.3989 31.5012 26.287 30.6439C27.5816 31.4297 28.6585 31.5681 29.2973 31.5137C29.1581 33.6094 27.9124 34.3393 26.3572 34.101Z" fill="#1A1A1A"/>
<path fill-rule="evenodd" clip-rule="evenodd" d="M52.2913 23.0908V12.8672H57.2443C61.1113 12.8672 62.3965 12.9051 63.1052 13.0404C63.6046 13.1356 64.2989 13.344 64.648 13.5034C64.9974 13.6628 65.5501 14.0421 65.8764 14.3464C66.2027 14.6506 66.6013 15.1712 66.7622 15.5032C66.923 15.8353 67.109 16.4507 67.1751 16.8708C67.2567 17.3885 67.2568 17.8818 67.1753 18.4023C67.1092 18.8245 66.9211 19.4465 66.7571 19.7844C66.5932 20.1222 66.2217 20.607 65.9316 20.8617C65.6413 21.1164 65.1258 21.4573 64.7859 21.6192L64.168 21.9136L64.5225 22.0036C64.7176 22.0532 65.1015 22.1888 65.3758 22.3049C65.65 22.4212 66.1228 22.7441 66.4264 23.0226C66.73 23.3012 67.0994 23.7197 67.2472 23.9529C67.3952 24.1859 67.6004 24.6594 67.7034 25.0051C67.8085 25.358 67.8905 26.062 67.8905 26.6111C67.8905 27.2854 67.8139 27.8217 67.6431 28.34C67.5071 28.7533 67.2012 29.3464 66.9636 29.658C66.7259 29.9697 66.2391 30.4247 65.8816 30.6692C65.5241 30.9136 64.8956 31.2237 64.4851 31.3583C64.0745 31.4927 63.2503 31.6541 62.6534 31.7168C62.0565 31.7794 59.4808 31.8316 56.9297 31.8328L52.2913 31.8348L52.2803 26.4744L51.9673 26.8867C51.7951 27.1135 51.2792 27.6732 50.8207 28.1305C50.3621 28.5878 49.6476 29.1909 49.2328 29.4708C48.8181 29.7506 48.0469 30.1812 47.5193 30.4275C46.9915 30.674 46.161 30.9891 45.6735 31.1279C45.1571 31.275 44.2646 31.408 43.5349 31.4466C42.5891 31.4968 42.061 31.4639 41.3777 31.3123C40.88 31.202 40.1046 30.928 39.6545 30.7035C39.2042 30.4789 38.5683 30.0554 38.2412 29.7621C37.9141 29.469 37.3985 28.8572 37.0954 28.4026C36.7922 27.9481 36.4167 27.2106 36.2608 26.7636C36.1049 26.3168 35.9224 25.5145 35.8552 24.9807C35.7881 24.4469 35.767 23.6634 35.8082 23.2395C35.8495 22.8156 35.9862 22.0813 36.112 21.6077C36.2378 21.1341 36.4804 20.4714 36.651 20.1351C36.8217 19.7987 37.1771 19.2054 37.4412 18.8167C37.705 18.4279 38.3004 17.7387 38.7642 17.2851C39.2279 16.8315 39.9072 16.2825 40.2736 16.0652C40.6399 15.8478 41.2736 15.5297 41.6816 15.3583C42.3389 15.0823 43.2322 14.9878 43.764 14.9878C44.2958 14.9878 45.1868 15.0704 45.7746 15.3789C46.1227 15.5618 46.6411 15.9509 46.9266 16.2436C47.2921 16.6185 47.5018 16.9685 47.6352 17.426C47.7667 17.8769 47.8004 18.2699 47.7455 18.709C47.7017 19.057 47.5001 19.673 47.2972 20.0778C47.0643 20.5425 46.599 21.1459 46.035 21.7149C45.5438 22.2106 44.6764 22.9176 44.1078 23.2861C43.5393 23.6546 42.7416 24.1058 42.3351 24.2889C41.9288 24.4718 41.171 24.755 40.651 24.9181C40.1311 25.081 39.4531 25.2522 39.1443 25.2982C38.7627 25.3552 38.5829 25.4382 38.5829 25.5579C38.5829 25.6547 38.7418 26.0657 38.936 26.4712C39.1301 26.8768 39.5072 27.4329 39.774 27.7069C40.0408 27.981 40.6039 28.366 41.0254 28.5626C41.6369 28.8478 42.0016 28.9321 42.8301 28.9792C43.5613 29.0208 44.133 28.9795 44.7629 28.8398C45.2548 28.7307 46.1262 28.4136 46.6994 28.135C47.2727 27.8565 48.167 27.3082 48.687 26.9164C49.207 26.5247 49.9826 25.8408 50.4103 25.3968C50.8383 24.9527 51.4366 24.2522 51.7398 23.8401L52.2913 23.0908ZM62.4225 17.4498C62.2751 17.2296 61.9692 16.9568 61.743 16.8435C61.3931 16.6682 60.984 16.6375 58.9978 16.6374L56.6638 16.6371V20.1715H58.9432C61.0721 20.1715 61.2575 20.1539 61.7499 19.9064C62.0931 19.7339 62.3494 19.4974 62.4838 19.229C62.5974 19.0022 62.6906 18.5992 62.6906 18.3334C62.6907 18.0268 62.5928 17.7037 62.4225 17.4498ZM45.6072 17.8408C45.5058 17.6964 45.2691 17.499 45.0813 17.4022C44.8824 17.2997 44.4232 17.2262 43.9817 17.2262C43.3467 17.2262 43.0818 17.2963 42.3509 17.6573C41.7166 17.9707 41.2362 18.3333 40.5919 18.985C39.9786 19.6054 39.5494 20.1782 39.1985 20.8448C38.9196 21.3744 38.6163 22.1666 38.5243 22.605C38.4322 23.0432 38.384 23.4288 38.4169 23.4617C38.4498 23.4946 38.8882 23.4366 39.391 23.3329C39.8937 23.2294 40.7257 22.97 41.2398 22.7566C41.7538 22.5433 42.6399 22.0584 43.2088 21.679C43.7776 21.2998 44.4864 20.7126 44.784 20.3742C45.0815 20.036 45.4299 19.5435 45.5583 19.2801C45.6866 19.0167 45.7917 18.6442 45.7917 18.4523C45.7917 18.2604 45.7087 17.9851 45.6072 17.8408ZM62.8967 24.7541C62.7499 24.5339 62.3931 24.2346 62.1035 24.0887C61.6092 23.8398 61.4312 23.8236 59.1796 23.8236H56.782V28.0855L59.2342 28.0456C61.4456 28.0098 61.7328 27.9818 62.159 27.76C62.4383 27.6146 62.7397 27.3252 62.8958 27.0531C63.0885 26.7164 63.1602 26.3985 63.1617 25.8733C63.163 25.3215 63.1015 25.0614 62.8967 24.7541Z" fill="#1A1A1A"/>
<path fill-rule="evenodd" clip-rule="evenodd" d="M70.4313 31.7759L70.3709 12.8672H74.9058C78.4403 12.8672 79.6724 12.907 80.4903 13.0474C81.1258 13.1565 81.8787 13.3871 82.3985 13.6316C82.8857 13.8607 83.529 14.2919 83.8858 14.6281C84.2316 14.9541 84.6517 15.4733 84.8194 15.7817C84.9872 16.0903 85.2124 16.6827 85.32 17.0985C85.441 17.5667 85.5137 18.3064 85.511 19.0424C85.5086 19.7182 85.4287 20.524 85.326 20.9113C85.2266 21.286 85.0321 21.8161 84.8936 22.0895C84.7552 22.3629 84.4616 22.8333 84.2414 23.1348C84.0211 23.4364 83.4827 23.924 83.045 24.2185C82.6071 24.5131 81.9299 24.8585 81.5399 24.9861C81.1499 25.1138 80.4148 25.2755 79.9065 25.3456C79.3979 25.4157 78.0826 25.473 76.9835 25.473H74.985L74.922 31.7759H70.4313ZM80.5059 17.7798C80.343 17.4889 80.0568 17.2097 79.7672 17.0594C79.3482 16.8417 79.05 16.7708 77.1378 16.7381L74.9811 16.7403V21.5852L76.9015 21.5845C77.9577 21.5842 79.0227 21.5283 79.2682 21.4603C79.5137 21.3924 79.8995 21.175 80.1253 20.9772C80.4119 20.7264 80.5936 20.4203 80.7266 19.9644C80.8489 19.5448 80.8911 19.122 80.8445 18.783C80.8046 18.4924 80.6523 18.0411 80.5059 17.7798Z" fill="#1A1A1A"/>
<path d="M88.4376 22.4688L88.4681 31.7759H92.9588L93.0213 24.5337L100.877 24.4716L100.942 20.6427H93.0179V16.8728H101.999V12.8672H88.4344C88.4305 14.5053 88.4258 18.8882 88.4376 22.4688Z" fill="#1A1A1A"/>
<path d="M198 8H113C110.791 8 109 9.79086 109 12V33C109 35.2091 110.791 37 113 37H198C200.209 37 202 35.2091 202 33V12C202 9.79086 200.209 8 198 8Z" fill="#EF6911"/>
<path d="M125.273 18.3984C125.201 17.7161 124.893 17.1849 124.352 16.8047C123.815 16.4245 123.117 16.2344 122.258 16.2344C121.654 16.2344 121.135 16.3255 120.703 16.5078C120.271 16.6901 119.94 16.9375 119.711 17.25C119.482 17.5625 119.365 17.9193 119.359 18.3203C119.359 18.6536 119.435 18.9427 119.586 19.1875C119.742 19.4323 119.953 19.6406 120.219 19.8125C120.484 19.9792 120.779 20.1198 121.102 20.2344C121.424 20.349 121.75 20.4453 122.078 20.5234L123.578 20.8984C124.182 21.0391 124.763 21.2292 125.32 21.4687C125.883 21.7083 126.385 22.0104 126.828 22.375C127.276 22.7396 127.63 23.1797 127.891 23.6953C128.151 24.2109 128.281 24.8151 128.281 25.5078C128.281 26.4453 128.042 27.2708 127.563 27.9844C127.083 28.6927 126.391 29.2474 125.484 29.6484C124.583 30.0443 123.492 30.2422 122.211 30.2422C120.966 30.2422 119.885 30.0495 118.969 29.6641C118.057 29.2786 117.344 28.7161 116.828 27.9766C116.318 27.237 116.042 26.3359 116 25.2734H118.852C118.893 25.8307 119.065 26.2943 119.367 26.6641C119.669 27.0339 120.063 27.3099 120.547 27.4922C121.036 27.6745 121.583 27.7656 122.188 27.7656C122.818 27.7656 123.37 27.6719 123.844 27.4844C124.323 27.2917 124.698 27.026 124.969 26.6875C125.24 26.3437 125.378 25.9427 125.383 25.4844C125.378 25.0677 125.255 24.724 125.016 24.4531C124.776 24.1771 124.44 23.9479 124.008 23.7656C123.581 23.5781 123.081 23.4115 122.508 23.2656L120.688 22.7969C119.37 22.4583 118.328 21.9453 117.563 21.2578C116.802 20.5651 116.422 19.6458 116.422 18.5C116.422 17.5573 116.677 16.7318 117.188 16.0234C117.703 15.3151 118.404 14.7656 119.289 14.375C120.174 13.9792 121.177 13.7812 122.297 13.7812C123.432 13.7812 124.427 13.9792 125.281 14.375C126.141 14.7656 126.815 15.3099 127.305 16.0078C127.794 16.7005 128.047 17.4974 128.062 18.3984H125.273ZM138.169 24.9531V18H140.997V30H138.255V27.8672H138.13C137.859 28.5391 137.413 29.0885 136.794 29.5156C136.179 29.9427 135.421 30.1563 134.52 30.1563C133.734 30.1563 133.038 29.9818 132.434 29.6328C131.835 29.2786 131.367 28.7656 131.028 28.0938C130.69 27.4167 130.52 26.599 130.52 25.6406V18H133.348V25.2031C133.348 25.9635 133.557 26.5677 133.973 27.0156C134.39 27.4635 134.937 27.6875 135.614 27.6875C136.031 27.6875 136.434 27.5859 136.825 27.3828C137.216 27.1797 137.536 26.8776 137.786 26.4766C138.041 26.0703 138.169 25.5625 138.169 24.9531ZM143.685 30V18H146.388V20.0391H146.529C146.779 19.3516 147.193 18.8151 147.771 18.4297C148.349 18.0391 149.039 17.8438 149.841 17.8438C150.654 17.8438 151.339 18.0417 151.896 18.4375C152.458 18.8281 152.854 19.362 153.083 20.0391H153.208C153.474 19.3724 153.922 18.8411 154.552 18.4453C155.188 18.0443 155.94 17.8438 156.81 17.8438C157.914 17.8438 158.815 18.1927 159.513 18.8906C160.211 19.5885 160.56 20.6068 160.56 21.9453V30H157.724V22.3828C157.724 21.638 157.526 21.0937 157.13 20.75C156.734 20.401 156.25 20.2266 155.677 20.2266C154.995 20.2266 154.461 20.4401 154.076 20.8672C153.695 21.2891 153.505 21.8385 153.505 22.5156V30H150.732V22.2656C150.732 21.6458 150.544 21.151 150.169 20.7812C149.8 20.4115 149.315 20.2266 148.716 20.2266C148.31 20.2266 147.94 20.3307 147.607 20.5391C147.274 20.7422 147.008 21.0312 146.81 21.4062C146.612 21.776 146.513 22.2083 146.513 22.7031V30H143.685ZM163.209 30V18H165.912V20.0391H166.053C166.303 19.3516 166.717 18.8151 167.295 18.4297C167.873 18.0391 168.563 17.8438 169.365 17.8438C170.178 17.8438 170.863 18.0417 171.42 18.4375C171.983 18.8281 172.378 19.362 172.608 20.0391H172.733C172.998 19.3724 173.446 18.8411 174.076 18.4453C174.712 18.0443 175.464 17.8438 176.334 17.8438C177.438 17.8438 178.339 18.1927 179.037 18.8906C179.735 19.5885 180.084 20.6068 180.084 21.9453V30H177.248V22.3828C177.248 21.638 177.05 21.0937 176.654 20.75C176.259 20.401 175.774 20.2266 175.201 20.2266C174.519 20.2266 173.985 20.4401 173.6 20.8672C173.22 21.2891 173.029 21.8385 173.029 22.5156V30H170.256V22.2656C170.256 21.6458 170.069 21.151 169.694 20.7812C169.324 20.4115 168.839 20.2266 168.24 20.2266C167.834 20.2266 167.464 20.3307 167.131 20.5391C166.798 20.7422 166.532 21.0312 166.334 21.4062C166.136 21.776 166.037 22.2083 166.037 22.7031V30H163.209ZM182.733 30V18H185.561V30H182.733ZM184.155 16.2969C183.707 16.2969 183.322 16.1484 182.999 15.8516C182.676 15.5495 182.515 15.1875 182.515 14.7656C182.515 14.3385 182.676 13.9766 182.999 13.6797C183.322 13.3776 183.707 13.2266 184.155 13.2266C184.608 13.2266 184.994 13.3776 185.311 13.6797C185.634 13.9766 185.796 14.3385 185.796 14.7656C185.796 15.1875 185.634 15.5495 185.311 15.8516C184.994 16.1484 184.608 16.2969 184.155 16.2969ZM194.242 18V20.1875H187.343V18H194.242ZM189.046 15.125H191.875V26.3906C191.875 26.7708 191.932 27.0625 192.046 27.2656C192.166 27.4635 192.323 27.599 192.515 27.6719C192.708 27.7448 192.921 27.7812 193.156 27.7812C193.333 27.7812 193.494 27.7682 193.64 27.7422C193.791 27.7161 193.906 27.6927 193.984 27.6719L194.461 29.8828C194.31 29.9349 194.093 29.9922 193.812 30.0547C193.536 30.1172 193.198 30.1536 192.796 30.1641C192.088 30.1849 191.45 30.0781 190.882 29.8437C190.315 29.6042 189.864 29.2344 189.531 28.7344C189.203 28.2344 189.041 27.6094 189.046 26.8594V15.125Z" fill="white"/>
<path d="M218 31.7298V16.4803C218 16.4803 218.088 16.2401 218.234 16.2401H219.549C219.549 16.2401 219.782 16.3602 219.782 16.4803V17.7711C220.367 16.7505 221.506 16 223.084 16C225.51 16 227 17.7111 227 20.5929V23.5047C227 26.3565 225.51 28.0375 223.055 28.0375C221.536 28.0375 220.455 27.3771 219.812 26.3265V31.7599C219.812 31.7599 219.695 32 219.578 32H218.234C218.234 32 218 31.9099 218 31.7599V31.7298ZM222.646 26.2964C224.136 26.2964 225.159 25.3358 225.159 23.4747V20.5628C225.159 18.6416 224.166 17.681 222.646 17.681C220.981 17.681 219.841 18.8218 219.841 20.5929V23.4447C219.841 25.3058 221.127 26.2964 222.646 26.2964Z" fill="#333333"/>
<path d="M230 23.47V20.56C230 17.68 231.655 16 234.5 16C237.345 16 239 17.68 239 20.56V23.47C239 26.32 237.345 28 234.5 28C231.655 28 230 26.35 230 23.47ZM234.5 26.29C236.213 26.29 237.171 25.27 237.171 23.47V20.56C237.171 18.73 236.213 17.71 234.5 17.71C232.787 17.71 231.829 18.73 231.829 20.56V23.47C231.829 25.27 232.787 26.29 234.5 26.29Z" fill="#333333"/>
<path d="M243.842 27.7813L241.006 16.2813C240.976 16.0938 241.065 16 241.244 16H242.737C242.737 16 242.976 16.0625 243.006 16.2187L244.29 21.9375C244.558 23.25 244.827 24.5938 245.096 26.125C245.484 24.125 245.275 24.5313 246.021 21.9375L247.604 16.2187C247.604 16.2187 247.753 16 247.902 16H249.305C249.305 16 249.544 16.0937 249.604 16.2187L251.097 21.9687C251.455 23.4062 251.514 23.9688 251.962 26.125H251.992C252.231 24.7813 252.141 24.9375 252.828 21.9375L254.112 16.2187C254.112 16.2187 254.231 16 254.381 16H255.784C255.963 16 256.023 16.0938 255.993 16.2813L253.127 27.7813C253.127 27.7813 252.977 28 252.828 28H251.067C251.067 28 250.828 27.9063 250.768 27.7813L249.514 23.1563C249.186 21.9688 248.768 20.4063 248.499 18.7188H248.469C248.171 20.2188 247.813 21.6875 247.424 23.1563L246.2 27.7813C246.2 27.7813 246.051 28 245.902 28H244.081C244.081 28 243.842 27.9375 243.782 27.7813H243.842Z" fill="#333333"/>
<path d="M258 23.47V20.56C258 17.68 259.639 16 262.5 16C265.361 16 267 17.68 267 20.56V22.36C267 22.36 266.881 22.6 266.762 22.6H259.848V23.47C259.848 25.33 260.921 26.38 262.679 26.38C263.96 26.38 264.795 25.84 265.212 24.82C265.272 24.67 265.391 24.61 265.54 24.67L266.732 25.06C266.911 25.12 266.94 25.21 266.911 25.36C266.315 27.07 264.884 28 262.679 28C259.818 28 258.03 26.35 258.03 23.47H258ZM265.212 21.25V20.44C265.212 18.67 264.258 17.59 262.53 17.59C260.801 17.59 259.818 18.67 259.818 20.44V21.25H265.212Z" fill="#333333"/>
<path d="M270 26.8299V16.3969C270 16.3969 270.079 16.1701 270.212 16.1701H271.402C271.402 16.1701 271.614 16.2835 271.614 16.3969V17.9562C272.196 16.8789 273.175 16 274.788 16C274.947 16 275 16.1134 275 16.2268V17.4742C275 17.4742 274.921 17.701 274.788 17.701C273.228 17.701 272.196 18.3814 271.667 19.7139V26.7732C271.667 26.7732 271.561 27 271.455 27H270.238C270.238 27 270.026 26.8866 270.026 26.7732L270 26.8299Z" fill="#333333"/>
<path d="M277 23.47V20.56C277 17.68 278.639 16 281.5 16C284.361 16 286 17.68 286 20.56V22.36C286 22.36 285.881 22.6 285.762 22.6H278.848V23.47C278.848 25.33 279.921 26.38 281.679 26.38C282.96 26.38 283.795 25.84 284.212 24.82C284.272 24.67 284.391 24.61 284.54 24.67L285.732 25.06C285.911 25.12 285.94 25.21 285.911 25.36C285.315 27.07 283.884 28 281.679 28C278.818 28 277.03 26.35 277.03 23.47H277ZM284.212 21.25V20.44C284.212 18.67 283.258 17.59 281.53 17.59C279.801 17.59 278.818 18.67 278.818 20.44V21.25H284.212Z" fill="#333333"/>
<path d="M288 23.4879V20.6085C288 17.7885 289.49 16.1262 291.916 16.1262C293.435 16.1262 294.516 16.7792 295.159 17.7588V12.2375C295.159 12.2375 295.276 12 295.393 12H296.766C296.766 12 297 12.0891 297 12.2375V27.525C297 27.525 296.883 27.7625 296.766 27.7625H295.451C295.451 27.7625 295.218 27.6438 295.218 27.525V26.1596C294.633 27.2282 293.523 28 291.916 28C289.49 28 288 26.308 288 23.4583V23.4879ZM292.383 26.3377C294.049 26.3377 295.159 25.2097 295.159 23.4583V20.6382C295.159 18.7978 293.873 17.8182 292.383 17.8182C290.893 17.8182 289.841 18.7384 289.841 20.6085V23.4879C289.841 25.3878 290.864 26.3377 292.383 26.3377Z" fill="#333333"/>
<path d="M307.782 26.2222V27.496C307.782 27.496 307.666 27.7333 307.549 27.7333H306.234C306.234 27.7333 306 27.6145 306 27.496V12.237C306 12.237 306.088 12 306.234 12H307.578C307.578 12 307.812 12.0889 307.812 12.237V17.8074C308.455 16.7704 309.711 16.1185 311.084 16.1185C313.51 16.1185 315 17.8074 315 20.6519V23.5259C315 26.3407 313.51 28 311.055 28C309.506 28 308.425 27.2889 307.782 26.2222ZM310.617 26.3111C312.107 26.3111 313.13 25.363 313.13 23.5259V20.6519C313.13 18.7556 312.136 17.8074 310.617 17.8074C308.951 17.8074 307.812 18.9333 307.812 20.6815V23.4963C307.812 25.3333 309.097 26.3111 310.617 26.3111Z" fill="#333333"/>
<path d="M318.471 30.6101C319.829 29.6763 320.583 28.9533 321.157 27.0555L317.022 16.3012C316.962 16.1205 317.022 16 317.233 16H318.773C318.773 16 319.014 16.0904 319.044 16.2109L320.855 21.2416C321.308 22.4767 321.73 23.7419 322.092 25.0974C322.485 23.7117 322.847 22.6574 323.33 21.2416L325.05 16.2109C325.05 16.2109 325.171 16 325.322 16H326.77C326.951 16 327.042 16.1205 326.981 16.3012L322.937 27.4471C322.213 29.375 321.217 30.9415 319.587 31.9356C319.467 32.026 319.346 32.026 319.255 31.9055L318.38 30.9716C318.38 30.9716 318.26 30.7005 318.41 30.6101H318.471Z" fill="#333333"/>
<mask id="mask0_269_6232" style="mask-type:luminance" maskUnits="userSpaceOnUse" x="343" y="7" width="138" height="30">
<path d="M480.778 7H343V36.802H480.779L480.778 7Z" fill="white"/>
</mask>
<g mask="url(#mask0_269_6232)">
<path fill-rule="evenodd" clip-rule="evenodd" d="M366.653 7H350.885L342.999 20.279L350.884 33.558H366.652L374.537 20.278L366.653 7ZM362.599 13.828H354.939L351.109 20.278L354.939 26.729H362.599L366.429 20.279L362.599 13.828Z" fill="#0078FB"/>
<path d="M356.472 16.4038H361.042L363.328 20.2538L361.043 24.1018H356.472L354.186 20.2528L356.472 16.4038Z" fill="#737373"/>
<path d="M361.045 24.1049L358.789 20.2549L356.474 24.1049H361.045Z" fill="#464646"/>
<path d="M361.045 16.4038H356.474L358.789 20.2538L361.045 16.4038Z" fill="#C7C7C7"/>
<path d="M361.043 16.4038L358.787 20.2538H363.34L361.043 16.4038ZM358.787 20.2538L356.472 16.4038L354.186 20.2538H358.787Z" fill="#989898"/>
<path d="M366.651 33.5568L374.535 20.2778H366.427L362.597 26.7278L366.651 33.5568Z" fill="#0058FB"/>
<path d="M366.651 33.558L370.706 26.73H362.596L366.651 33.558Z" fill="#0078FB"/>
<path d="M370.722 13.8301H362.597L366.427 20.2801L370.722 13.8301Z" fill="#4CBAFB"/>
<path d="M370.723 13.8369L366.428 20.2769H374.537L370.723 13.8369Z" fill="#9DDAFB"/>
<path d="M358.769 33.558L362.599 26.73L366.653 33.558H358.769Z" fill="#0069E4"/>
<path d="M343 20.2778H351.11L346.83 26.7278H354.94L358.886 33.5578H350.885L346.83 26.7278L343 20.2778Z" fill="#0101D7"/>
<path fill-rule="evenodd" clip-rule="evenodd" d="M351.109 20.2801L346.845 13.8301L343 20.2801H351.109ZM351.109 20.2801L354.939 26.7301H346.844L351.109 20.2801Z" fill="#0035FB"/>
<path d="M362.598 13.828L358.885 7L354.938 13.828H362.598Z" fill="#0027FB"/>
<path d="M366.651 7L362.597 13.828H370.722L366.651 7Z" fill="#37A0FB"/>
<mask id="mask1_269_6232" style="mask-type:luminance" maskUnits="userSpaceOnUse" x="461" y="31" width="18" height="5">
<path d="M478.159 31.0308H461.79V35.5168H478.159V31.0308Z" fill="white"/>
</mask>
<g mask="url(#mask1_269_6232)">
<path d="M465.734 31.4097H466.606V35.3657H465.734V31.4097ZM473.533 32.5497C473.506 32.5177 473.233 32.3277 472.797 32.3277C472.252 32.3277 471.842 32.7707 471.842 33.3717C471.842 33.9737 472.224 34.4167 472.797 34.4167C473.206 34.4167 473.479 34.2267 473.533 34.1947V35.2717C473.424 35.3027 473.124 35.3977 472.742 35.3977C471.761 35.3977 470.915 34.6377 470.915 33.3407C470.915 32.1687 471.679 31.2827 472.742 31.2827C473.152 31.2827 473.452 31.4097 473.533 31.4097V32.5497ZM464.534 32.5497C464.507 32.5177 464.234 32.3277 463.797 32.3277C463.252 32.3277 462.843 32.7707 462.843 33.3717C462.843 33.9737 463.225 34.4167 463.797 34.4167C464.207 34.4167 464.479 34.2267 464.534 34.1947V35.2717C464.425 35.3027 464.125 35.3977 463.743 35.3977C462.789 35.3977 461.916 34.6377 461.916 33.3407C461.916 32.1687 462.679 31.2827 463.743 31.2827C464.152 31.2827 464.452 31.4097 464.534 31.4097V32.5497ZM478.033 33.4037C478.033 34.5437 477.269 35.4617 476.233 35.4617C475.197 35.4617 474.433 34.5437 474.433 33.4037C474.433 32.2637 475.197 31.3457 476.233 31.3457C477.297 31.3457 478.033 32.2647 478.033 33.4037ZM476.233 32.3597C475.715 32.3597 475.333 32.8337 475.333 33.4037C475.333 33.9737 475.715 34.4487 476.233 34.4487C476.751 34.4487 477.133 33.9737 477.133 33.4037C477.133 32.8337 476.751 32.3597 476.233 32.3597ZM469.852 32.3277C469.852 32.3277 469.47 32.2007 469.17 32.2007C468.815 32.2007 468.624 32.3277 468.624 32.5177C468.624 32.7707 468.87 32.8337 469.006 32.8977L469.252 32.9927C469.797 33.2137 470.07 33.6567 470.07 34.1327C470.07 35.1127 469.306 35.4617 468.652 35.4617C468.188 35.4617 467.752 35.3657 467.725 35.3657V34.4487C467.806 34.4797 468.161 34.6067 468.543 34.6067C468.979 34.6067 469.17 34.4487 469.17 34.2267C469.17 34.0367 469.006 33.9097 468.788 33.8467C468.73 33.8116 468.665 33.79 468.597 33.7837C468.106 33.5937 467.725 33.2767 467.725 32.6127C467.725 31.8847 468.215 31.3777 469.006 31.3777C469.415 31.3777 469.824 31.5047 469.852 31.5047V32.3277Z" fill="black"/>
</g>
<path d="M426.255 33.2689V35.3329H425.578V31.8569H426.228V32.4219H426.271C426.349 32.2404 426.48 32.0862 426.646 31.9789C426.818 31.8669 427.035 31.8109 427.296 31.8109C427.533 31.8109 427.74 31.8609 427.918 31.9609C428.098 32.0609 428.243 32.2142 428.333 32.3999C428.431 32.5939 428.48 32.8345 428.48 33.1219V35.3319H427.803V33.2029C427.803 32.9509 427.737 32.7542 427.606 32.6129C427.475 32.4689 427.294 32.3969 427.065 32.3969C426.919 32.3943 426.775 32.4294 426.646 32.4989C426.523 32.5687 426.424 32.6726 426.359 32.7979C426.287 32.9437 426.251 33.1061 426.255 33.2689ZM430.851 35.4019C430.526 35.4019 430.241 35.3272 429.998 35.1779C429.753 35.0274 429.557 34.8098 429.432 34.5509C429.293 34.2566 429.225 33.9341 429.232 33.6089C429.232 33.2489 429.299 32.9339 429.432 32.6639C429.567 32.3939 429.755 32.1839 429.998 32.0339C430.241 31.8845 430.526 31.8099 430.851 31.8099C431.176 31.8099 431.461 31.8845 431.705 32.0339C431.947 32.1839 432.136 32.3939 432.271 32.6639C432.404 32.9339 432.471 33.2489 432.471 33.6089C432.471 33.9689 432.404 34.2829 432.271 34.5509C432.146 34.8098 431.95 35.0274 431.705 35.1779C431.462 35.3272 431.177 35.4019 430.851 35.4019ZM430.854 34.8339C431.043 34.8418 431.229 34.7823 431.379 34.6659C431.521 34.5487 431.627 34.3947 431.687 34.2209C431.754 34.0355 431.787 33.8309 431.788 33.6069C431.79 33.3992 431.756 33.1928 431.687 32.9969C431.628 32.8209 431.522 32.6647 431.379 32.5459C431.23 32.4287 431.044 32.3685 430.854 32.3759C430.663 32.369 430.475 32.4291 430.324 32.5459C430.181 32.6642 430.074 32.82 430.014 32.9959C429.947 33.1825 429.914 33.3862 429.914 33.6069C429.914 33.8302 429.947 34.0349 430.014 34.2209C430.074 34.3949 430.182 34.5489 430.324 34.6659C430.464 34.7779 430.641 34.8339 430.854 34.8339ZM433.875 35.3319L432.852 31.8559H433.552L434.232 34.4079H434.267L434.95 31.8559H435.65L436.328 34.3969H436.362L437.039 31.8559H437.739L436.718 35.3319H436.028L435.321 32.8219H435.269L434.563 35.3319H433.875ZM440.067 36.6349V31.8549H440.728V32.4189H440.785C440.824 32.3469 440.881 32.2632 440.955 32.1679C441.04 32.0649 441.144 31.9799 441.262 31.9179C441.393 31.8459 441.567 31.8099 441.782 31.8099C442.063 31.8099 442.314 31.8809 442.534 32.0229C442.754 32.1649 442.927 32.3692 443.052 32.6359C443.179 32.9032 443.242 33.2245 443.242 33.5999C443.242 33.9759 443.18 34.2982 443.055 34.5669C442.944 34.8169 442.765 35.0309 442.539 35.1849C442.316 35.3293 442.055 35.4042 441.789 35.3999C441.579 35.3999 441.406 35.3642 441.271 35.2929C441.151 35.2317 441.045 35.147 440.959 35.0439C440.895 34.9641 440.836 34.8795 440.785 34.7909H440.744V36.6349H440.067ZM440.73 33.5939C440.73 33.8379 440.766 34.0519 440.837 34.2359C440.907 34.4205 441.009 34.5649 441.144 34.6689C441.287 34.7735 441.461 34.8277 441.638 34.8229C441.82 34.8286 441.999 34.7718 442.145 34.6619C442.286 34.5458 442.393 34.3932 442.453 34.2209C442.523 34.0349 442.558 33.8259 442.559 33.5939C442.559 33.3639 442.524 33.1579 442.455 32.9759C442.396 32.8049 442.289 32.6546 442.147 32.5429C442 32.4333 441.82 32.3776 441.637 32.3849C441.459 32.3788 441.284 32.4323 441.14 32.5369C441 32.6458 440.894 32.7925 440.834 32.9599C440.765 33.1405 440.73 33.3519 440.73 33.5939ZM445.012 35.4089C444.792 35.4089 444.593 35.3682 444.415 35.2869C444.243 35.2092 444.096 35.0844 443.992 34.9269C443.885 34.754 443.831 34.5532 443.838 34.3499C443.831 34.1809 443.87 34.0132 443.951 33.8649C444.025 33.7399 444.13 33.6365 444.256 33.5649C444.385 33.4902 444.528 33.4342 444.686 33.3969C444.845 33.3589 445.006 33.3302 445.171 33.3109L445.678 33.2509C445.776 33.2425 445.872 33.2161 445.961 33.1729C446.02 33.1362 446.049 33.0772 446.049 32.9959V32.9799C446.049 32.7832 445.993 32.6299 445.881 32.5199C445.771 32.4119 445.607 32.3579 445.388 32.3579C445.161 32.3579 444.981 32.4085 444.849 32.5099C444.731 32.5941 444.638 32.7088 444.58 32.8419L443.944 32.6969C444.019 32.4862 444.129 32.3159 444.274 32.1859C444.421 32.0545 444.589 31.9595 444.779 31.9009C445.116 31.794 445.476 31.7799 445.82 31.8599C445.977 31.8912 446.124 31.9502 446.259 32.0369C446.397 32.1229 446.509 32.2459 446.596 32.4059C446.684 32.5639 446.728 32.7695 446.728 33.0229V35.3319H446.067V34.8569H446.04C445.989 34.953 445.922 35.0402 445.843 35.1149C445.755 35.1989 445.643 35.2689 445.506 35.3249C445.348 35.3846 445.181 35.4132 445.012 35.4089ZM445.159 34.8659C445.326 34.8695 445.491 34.8313 445.639 34.7549C445.765 34.6873 445.871 34.5871 445.945 34.4649C446.015 34.3479 446.051 34.2141 446.051 34.0779V33.6299C446.01 33.6627 445.962 33.686 445.911 33.6979C445.843 33.7179 445.765 33.7352 445.678 33.7499L445.422 33.7879L445.214 33.8149C445.091 33.8297 444.971 33.8579 444.854 33.8989C444.755 33.932 444.666 33.9906 444.596 34.0689C444.529 34.1502 444.495 34.2537 444.501 34.3589C444.501 34.5255 444.563 34.6522 444.686 34.7389C444.827 34.8284 444.992 34.8727 445.159 34.8659ZM447.629 35.3319V31.8559H448.283V32.4079H448.319C448.377 32.2268 448.496 32.071 448.654 31.9659C448.816 31.8571 449.007 31.8003 449.202 31.8029C449.298 31.8036 449.394 31.8089 449.489 31.8189V32.4669C449.442 32.455 449.394 32.4467 449.345 32.4419C449.276 32.4313 449.206 32.426 449.136 32.4259C448.987 32.4241 448.841 32.4591 448.709 32.5279C448.586 32.5933 448.483 32.6914 448.412 32.8113C448.341 32.9313 448.304 33.0685 448.306 33.2079V35.3319H447.629ZM451.903 31.8559V32.3989H450.004V31.8559H451.903ZM450.514 31.0229H451.19V34.3109C451.19 34.4422 451.21 34.5412 451.249 34.6079C451.288 34.6725 451.339 34.7169 451.401 34.7409C451.467 34.7641 451.537 34.7757 451.607 34.7749C451.655 34.7746 451.702 34.7709 451.749 34.7639L451.844 34.7459L451.966 35.3049C451.927 35.3202 451.871 35.3352 451.799 35.3499C451.71 35.3684 451.618 35.3774 451.527 35.3769C451.356 35.381 451.186 35.3486 451.029 35.2819C450.878 35.217 450.748 35.1101 450.656 34.9739C450.556 34.8183 450.506 34.6356 450.514 34.4509V31.0229ZM455.803 35.4029C455.476 35.4029 455.192 35.3279 454.949 35.1779C454.705 35.0272 454.508 34.8096 454.384 34.5509C454.245 34.2568 454.175 33.9343 454.182 33.6089C454.182 33.2489 454.249 32.9339 454.384 32.6639C454.517 32.3939 454.706 32.1839 454.949 32.0339C455.192 31.8839 455.477 31.8092 455.803 31.8099C456.129 31.8105 456.413 31.8852 456.656 32.0339C456.899 32.1839 457.087 32.3939 457.222 32.6639C457.357 32.9339 457.424 33.2489 457.423 33.6089C457.423 33.9689 457.356 34.2829 457.222 34.5509C457.097 34.8098 456.901 35.0274 456.656 35.1779C456.413 35.3272 456.129 35.4029 455.803 35.4029ZM455.805 34.8329C455.994 34.8408 456.18 34.7813 456.33 34.6649C456.472 34.5477 456.578 34.3937 456.638 34.2199C456.705 34.0345 456.739 33.8299 456.739 33.6059C456.739 33.3839 456.705 33.1805 456.638 32.9959C456.579 32.8199 456.473 32.6637 456.33 32.5449C456.181 32.4277 455.995 32.3675 455.805 32.3749C455.614 32.368 455.426 32.4281 455.275 32.5449C455.132 32.6632 455.025 32.819 454.965 32.9949C454.899 33.1815 454.866 33.3852 454.866 33.6059C454.866 33.8292 454.899 34.0339 454.965 34.2199C455.025 34.3939 455.133 34.5479 455.275 34.6649C455.427 34.7801 455.614 34.8395 455.805 34.8329ZM459.833 31.8539V32.3979H457.868V31.8549L459.833 31.8539ZM458.407 35.3309V31.4509C458.4 31.2608 458.449 31.0728 458.549 30.9109C458.642 30.7693 458.774 30.657 458.928 30.5869C459.085 30.5149 459.255 30.4789 459.439 30.4789C459.575 30.4789 459.691 30.4899 459.787 30.5119C459.884 30.5332 459.956 30.5532 460.002 30.5719L459.844 31.1189L459.722 31.0869C459.663 31.0723 459.602 31.0656 459.541 31.0669C459.376 31.0669 459.259 31.1075 459.188 31.1889C459.118 31.2709 459.083 31.3885 459.084 31.5419V35.3309H458.407ZM388.973 25.5829L388.975 25.5839L388.981 25.5869L389.005 25.5989L389.084 25.6349C389.144 25.6619 389.223 25.6949 389.294 25.7149C390.374 26.1909 391.546 26.4279 392.788 26.4459H392.789C393.545 26.4459 394.213 26.3159 394.792 26.0739L394.795 26.0729C395.371 25.8129 395.825 25.4739 396.15 25.0169C396.472 24.5609 396.644 24.0469 396.644 23.4769C396.644 22.7839 396.456 22.2269 396.106 21.8169L396.104 21.8149C395.759 21.4254 395.328 21.1228 394.844 20.9319C394.365 20.7289 393.743 20.5469 392.983 20.3659H392.98C392.509 20.2728 392.044 20.1475 391.59 19.9909C391.291 19.8882 391.017 19.7252 390.784 19.5119C390.583 19.3252 390.483 19.0752 390.484 18.7619C390.484 18.3059 390.692 17.9319 391.141 17.6659H391.143C391.585 17.3929 392.19 17.2509 392.933 17.2509C393.713 17.2509 394.475 17.3929 395.222 17.6409C395.3 17.6674 395.379 17.6908 395.459 17.7109L395.478 17.7149L395.483 17.7169L395.597 17.7449L395.64 17.6379L396.092 16.5359L396.126 16.4539L396.063 16.3909L396.061 16.3889L396.059 16.3879L396.056 16.3849L396.05 16.3799L396.04 16.3729L396.024 16.3629L395.977 16.3419C395.894 16.309 395.809 16.279 395.724 16.2519C394.841 15.9199 393.868 15.7559 392.789 15.7559C391.982 15.7559 391.275 15.8839 390.692 16.1659C390.112 16.4279 389.657 16.8049 389.353 17.2809C389.05 17.748 388.892 18.2942 388.898 18.8509C388.898 19.5099 389.087 20.0679 389.457 20.4769C389.813 20.8709 390.246 21.1719 390.754 21.3609C391.249 21.5622 391.887 21.7622 392.666 21.9609L392.668 21.9619C393.128 22.0733 393.582 22.2051 394.03 22.3569C394.343 22.4609 394.595 22.5969 394.794 22.7799C394.985 22.9549 395.076 23.1549 395.076 23.4039C395.076 23.9139 394.883 24.2859 394.5 24.5369C394.107 24.7929 393.501 24.9319 392.663 24.9319C391.701 24.9382 390.75 24.7405 389.87 24.3519C389.789 24.3061 389.705 24.266 389.619 24.2319L389.596 24.2219L389.59 24.2199L389.469 24.1719L389.417 24.2879L388.911 25.4079L388.858 25.5249L388.973 25.5829Z" fill="black"/>
<path d="M389.033 25.4629L388.973 25.5829M388.973 25.5829L388.976 25.5839L388.982 25.5869L389.006 25.5989L389.085 25.6349C389.145 25.6619 389.224 25.6949 389.295 25.7149C390.375 26.1909 391.547 26.4279 392.789 26.4459C393.545 26.4459 394.214 26.3159 394.793 26.0739L394.796 26.0729C395.372 25.8129 395.826 25.4739 396.151 25.0169C396.473 24.5609 396.645 24.0469 396.645 23.4769C396.645 22.7839 396.457 22.2269 396.107 21.8169L396.105 21.8149C395.76 21.4254 395.329 21.1228 394.845 20.9319C394.366 20.7289 393.744 20.5469 392.984 20.3659H392.981C392.51 20.2728 392.045 20.1475 391.591 19.9909C391.292 19.8882 391.018 19.7252 390.785 19.5119C390.584 19.3252 390.484 19.0752 390.485 18.7619C390.485 18.3059 390.693 17.9319 391.142 17.6659H391.144C391.586 17.3929 392.191 17.2509 392.934 17.2509C393.714 17.2509 394.476 17.3929 395.223 17.6409C395.301 17.6674 395.38 17.6908 395.46 17.7109L395.479 17.7149L395.484 17.7169M388.973 25.5829L388.858 25.5249L388.911 25.4079L389.417 24.2879L389.47 24.1719L389.588 24.2189M395.484 17.7169L395.518 17.5869M395.484 17.7169L395.598 17.7449L395.641 17.6379L396.093 16.5359L396.127 16.4539L396.064 16.3909M396.064 16.3909L395.97 16.4859M396.064 16.3909L396.062 16.3889L396.06 16.3879L396.057 16.3849L396.051 16.3799L396.041 16.3729L396.025 16.3629L395.978 16.3419C395.895 16.309 395.81 16.279 395.725 16.2519C394.842 15.9199 393.869 15.7559 392.79 15.7559C391.983 15.7559 391.276 15.8839 390.693 16.1659C390.113 16.4279 389.658 16.8049 389.354 17.2809C389.051 17.748 388.893 18.2942 388.899 18.8509C388.899 19.5099 389.088 20.0679 389.458 20.4769C389.814 20.8709 390.247 21.1719 390.755 21.3609C391.25 21.5622 391.888 21.7622 392.667 21.9609L392.669 21.9619C393.129 22.0733 393.583 22.2051 394.031 22.3569C394.344 22.4609 394.596 22.5969 394.795 22.7799C394.986 22.9549 395.077 23.1549 395.077 23.4039C395.077 23.9139 394.884 24.2859 394.501 24.5369C394.108 24.7929 393.502 24.9319 392.664 24.9319C391.702 24.9382 390.751 24.7405 389.871 24.3519C389.79 24.3061 389.706 24.266 389.62 24.2319L389.597 24.2219L389.591 24.2199H389.589L389.539 24.3429" stroke="black" stroke-width="0.267"/>
<path d="M399.774 21.0899V21.0939C399.793 22.1239 400.014 23.0479 400.44 23.8459C400.859 24.6345 401.489 25.2908 402.26 25.7409C403.043 26.2069 403.971 26.4279 405.002 26.4279C406.033 26.4279 406.942 26.2069 407.724 25.7409C408.502 25.2997 409.135 24.6412 409.545 23.8459C409.99 23.0299 410.211 22.1239 410.229 21.0939V21.0869C410.193 20.0589 409.972 19.1529 409.546 18.3389V18.3369C409.127 17.5486 408.497 16.8927 407.726 16.4429C406.943 15.9769 406.033 15.7559 405.002 15.7559C403.972 15.7559 403.043 15.9759 402.26 16.4429C401.49 16.8939 400.86 17.5495 400.44 18.3369C400.013 19.1359 399.792 20.0599 399.774 21.0889V21.0899ZM408.207 23.0539L408.206 23.0569C407.935 23.6276 407.5 24.1045 406.956 24.4269C406.401 24.7569 405.756 24.9319 405.002 24.9319C404.246 24.9319 403.585 24.7569 403.05 24.4289C402.517 24.0908 402.084 23.616 401.797 23.0539C401.501 22.4799 401.36 21.8149 401.36 21.0919C401.36 20.3679 401.501 19.7039 401.797 19.1299C402.079 18.5645 402.512 18.0887 403.049 17.7559C403.584 17.4269 404.246 17.2509 405.002 17.2509C405.756 17.2509 406.4 17.4259 406.955 17.7549C407.495 18.1049 407.911 18.5549 408.207 19.1299C408.503 19.7039 408.644 20.3679 408.644 21.0919C408.644 21.8149 408.503 22.4799 408.207 23.0539ZM412.589 15.8099H412.389L412.465 15.9939L416.728 26.2729L416.762 26.3549H418.477L418.511 26.2729L422.756 15.9939L422.832 15.8099H421.115L421.081 15.8929L417.611 24.5449L414.121 15.8929L414.088 15.8099H412.589ZM425.79 26.2729L429.262 17.9689L432.733 26.2729L432.768 26.3549H434.485L434.407 26.1689L430.053 15.8909L430.019 15.8099H428.523L428.488 15.8909L424.135 26.1699L424.056 26.3549H425.757L425.79 26.2729ZM437.889 26.1499V26.2829H444.894V24.6969H439.475L439.457 15.9429V15.8099H437.889V26.1499ZM448.374 15.8819H448.24V26.1489H448.374V26.2649H455.606V24.7689H449.826V21.8209H455.082V20.3259H449.826V17.3769H455.606V15.8819H448.374Z" fill="black" stroke="black" stroke-width="0.267"/>
<path d="M459.692 26.2221V26.3551H461.26V26.2221L461.277 18.8181L467.6 26.3081L467.64 26.3551H468.793V15.8101H467.207V23.3811L460.868 15.8571L460.828 15.8101H459.692V26.2221Z" fill="black"/>
<path d="M459.826 15.8101H460.828L460.868 15.8571L467.207 23.3811V15.8101H468.793V26.3551H467.64L467.6 26.3081L461.277 18.8181L461.26 26.2221V26.3551H459.692V15.8101H459.826ZM459.826 15.8101V15.9431" stroke="black" stroke-width="0.267"/>
<path d="M475.372 26.2211V26.3551H476.958V17.3951H480.535V15.8991H471.814V17.3951H475.372V26.2211ZM385.127 15.9431V15.8101H383.541V26.3551H385.127V15.9431Z" fill="black" stroke="black" stroke-width="0.267"/>
<path d="M429.822 22.3379L430.345 23.2229L429.822 24.1259H428.809L428.285 23.2229L428.809 22.3379H429.822Z" fill="#0000D8"/>
</g>
</svg>
