<svg xmlns="http://www.w3.org/2000/svg" width="384" height="202" fill="none" viewBox="0 0 384 202">
  <g clip-path="url(#a)">
    <path fill="#FAFAFA" d="M0 0h384v202H0z" />
    <path fill="#B3B3B3"
      d="M147.076 164v-14.568L152.548 164h1.896l5.448-14.568V164h2.04v-17.04h-3.072l-5.352 14.52-5.352-14.52h-3.12V164h2.04Zm30.357 0v-1.776h-9.288v-6.048h8.448V154.4h-8.448v-5.664h9.168v-1.776h-11.208V164h11.328Zm15.046 0v-1.776h-9.288v-6.048h8.448V154.4h-8.448v-5.664h9.168v-1.776h-11.208V164h11.328Zm9.721 0v-15.264h5.256v-1.776h-12.528v1.776h5.232V164h2.04Zm14.846.288c4.368 0 6.6-2.544 6.6-6.72V146.96h-2.04v10.536c0 3.288-1.584 4.968-4.56 4.968-3 0-4.608-1.656-4.608-4.944v-10.56h-2.04v10.632c0 4.2 2.28 6.696 6.648 6.696Zm12.736-.288v-6.912h4.608c3.312 0 5.472-1.68 5.472-4.848v-.432c0-3.144-2.16-4.848-5.472-4.848h-6.648V164h2.04Zm0-15.264h4.536c2.136 0 3.48.984 3.48 3.072v.432c0 2.088-1.344 3.072-3.48 3.072h-4.536v-6.576Z" />
    <g stroke="#B3B3B3" stroke-linejoin="round" stroke-width="2" opacity=".8">
      <path
        d="M154.408 46a4 4 0 0 1 4-4H210a4 4 0 0 1 4 4v51a4 4 0 0 1-4 4h-69l12.492-19.926c.599-.955.916-2.06.916-3.187V46Z" />
      <path stroke-linecap="round" stroke-miterlimit="10" d="M167 55h33M167 66h34M167 77h33M167 88h20" />
      <path stroke-linecap="round"
        d="M221.143 56h3.449a4 4 0 0 1 4 4v31.887c0 1.128.317 2.232.916 3.187L242 115h-69a4 4 0 0 1-4-4v-3.375" />
    </g>
  </g>
  <defs>
    <clipPath id="a">
      <path fill="#fff" d="M0 4a4 4 0 0 1 4-4h376a4 4 0 0 1 4 4v198H0V4Z" />
    </clipPath>
  </defs>
</svg>
