<svg width="384" height="202" viewBox="0 0 384 202" fill="none" xmlns="http://www.w3.org/2000/svg">
<g clip-path="url(#clip0_13379_119174)">
<rect width="384" height="202" fill="#F6F6F6"/>
<path d="M157.184 162H160.184V145.392H155.72C154.136 149.928 152 156.24 151.616 158.232H151.568C151.064 155.88 149.312 150.024 147.8 145.392H143.168V162H146.048V155.832C146.048 152.976 145.976 149.472 145.832 147.528H145.928C146.672 150.672 148.76 157.56 150.032 162H152.72C154.424 156.792 156.44 150.72 157.184 147.576H157.304C157.232 149.4 157.184 152.568 157.184 155.472V162ZM175.924 152.064H167.884V147.984H176.284V145.392H164.836V162H176.356L176.74 159.432H167.884V154.632H175.924V152.064ZM191.075 152.064H183.035V147.984H191.435V145.392H179.987V162H191.507L191.891 159.432H183.035V154.632H191.075V152.064ZM199.108 162H202.228V147.984H207.364V145.392H193.972V147.984H199.108V162ZM210.381 145.392V155.256C210.381 160.656 213.525 162.216 217.173 162.216C220.797 162.216 224.013 160.752 224.013 155.16V145.392H220.893V155.328C220.893 158.616 219.429 159.744 217.221 159.744C215.325 159.744 213.501 158.76 213.501 155.328V145.392H210.381ZM228.443 162H231.563V155.592H235.019C238.283 155.592 240.875 153.912 240.875 150.432C240.875 147.312 238.547 145.392 235.115 145.392H228.443V162ZM231.563 147.912H234.779C236.435 147.912 237.731 148.68 237.731 150.504C237.731 152.28 236.555 153.072 234.683 153.072H231.563V147.912Z" fill="#C7C9D1"/>
<path d="M154.408 44C154.408 41.7909 156.199 40 158.408 40H210C212.209 40 214 41.7909 214 44V96C214 98.2091 212.209 100 210 100H154.408H141L153.516 79.6978C154.099 78.7512 154.408 77.6612 154.408 76.5492V44Z" stroke="#C7C9D1" stroke-width="3" stroke-linejoin="round"/>
<path d="M169 55L199 55" stroke="#C7C9D1" stroke-width="3" stroke-miterlimit="10" stroke-linecap="round" stroke-linejoin="round"/>
<path d="M169 70L199 70" stroke="#C7C9D1" stroke-width="3" stroke-miterlimit="10" stroke-linecap="round" stroke-linejoin="round"/>
<path d="M169 85L187 85" stroke="#C7C9D1" stroke-width="3" stroke-miterlimit="10" stroke-linecap="round" stroke-linejoin="round"/>
<path d="M222.143 55H225.592C227.801 55 229.592 56.7909 229.592 59V91.5492C229.592 92.6612 229.901 93.7512 230.484 94.6978L243 115H229.592H174C171.791 115 170 113.209 170 111V107.5" stroke="#C7C9D1" stroke-width="3" stroke-linecap="round" stroke-linejoin="round"/>
</g>
<defs>
<clipPath id="clip0_13379_119174">
<path d="M0 4C0 1.79086 1.79086 0 4 0H380C382.209 0 384 1.79086 384 4V202H0V4Z" fill="white"/>
</clipPath>
</defs>
</svg>
