<svg width="120" height="48" viewBox="0 0 120 48" fill="none" xmlns="http://www.w3.org/2000/svg">
<g clip-path="url(#clip0_2045_30517)">
<path d="M3.93173 27.8278C3.93173 29.2075 4.2368 30.2668 4.63554 30.9076C5.15834 31.747 5.9381 32.1026 6.73306 32.1026C7.75839 32.1026 8.69639 31.8501 10.504 29.3683C11.9522 27.3792 13.6585 24.5871 14.8066 22.8367L16.751 19.8712C18.1017 17.8116 19.665 15.5222 21.4574 13.9703C22.9207 12.7037 24.4993 12 26.0879 12C28.755 12 31.2956 13.5343 33.24 16.4118C35.3678 19.5633 36.4008 23.5328 36.4008 27.6292C36.4008 30.0645 35.9172 31.8538 35.0944 33.2675C34.2995 34.6346 32.7501 36.0005 30.1437 36.0005V32.1026C32.3754 32.1026 32.9324 30.067 32.9324 27.7373C32.9324 24.4174 32.1526 20.7332 30.4348 18.1007C29.2158 16.2334 27.636 15.0924 25.898 15.0924C24.0182 15.0924 22.5055 16.4998 20.8055 19.0092C19.9017 20.3424 18.9738 21.9671 17.932 23.8005L16.7852 25.8173C14.4813 29.8722 13.8978 30.7958 12.7458 32.32C10.7268 34.989 9.00272 36.0005 6.73306 36.0005C4.04059 36.0005 2.33802 34.8432 1.28357 33.0991C0.422794 31.6779 0 29.8132 0 27.6883L3.93173 27.8278Z" fill="#0081FB"/>
<path d="M3.10156 16.687C4.90413 13.9288 7.50545 12 10.4891 12C12.2169 12 13.9347 12.5077 15.7284 13.9615C17.6905 15.5511 19.7817 18.1685 22.3906 22.4823L23.326 24.0304C25.5843 27.7649 26.8692 29.6862 27.6211 30.5922C28.5882 31.7558 29.2654 32.1026 30.1452 32.1026C32.3769 32.1026 32.9338 30.067 32.9338 27.7373L36.4023 27.6292C36.4023 30.0645 35.9187 31.8538 35.0959 33.2675C34.301 34.6346 32.7516 36.0005 30.1452 36.0005C28.5249 36.0005 27.0894 35.6512 25.502 34.1647C24.2818 33.0237 22.8551 30.9968 21.7577 29.1748L18.493 23.7615C16.855 21.0448 15.3525 19.0192 14.4828 18.1019C13.5474 17.1155 12.3448 15.9243 10.4258 15.9243C8.87257 15.9243 7.55356 17.0062 6.44973 18.6611L3.10156 16.687Z" fill="url(#paint0_linear_2045_30517)"/>
<path d="M10.4243 15.9243C8.87108 15.9243 7.55206 17.0062 6.44824 18.6611C4.88745 20.9996 3.93173 24.4828 3.93173 27.8278C3.93173 29.2075 4.2368 30.2668 4.63554 30.9076L1.28357 33.0991C0.422794 31.6779 0 29.8132 0 27.6883C0 23.8243 1.06838 19.797 3.10007 16.687C4.90264 13.9288 7.50396 12 10.4876 12L10.4243 15.9243Z" fill="url(#paint1_linear_2045_30517)"/>
<path d="M44.043 12.7617H48.5912L56.3242 26.6493L64.0586 12.7617H68.5081V35.5811H64.7978V18.0921L58.0154 30.2029H54.5343L47.7532 18.0921V35.5811H44.043V12.7617ZM80.1336 21.27C77.4728 21.27 75.8702 23.2579 75.4867 25.7195H84.5173C84.3312 23.1837 82.8577 21.27 80.1336 21.27ZM71.8081 27.1218C71.8081 21.9422 75.1803 18.1725 80.1982 18.1725C85.1337 18.1725 88.0806 21.8945 88.0806 27.3983V28.4098H75.4867C75.9335 31.0876 77.7234 32.892 80.6096 32.892C82.9122 32.892 84.3514 32.1946 85.716 30.9192L87.6869 33.3155C85.8299 35.0106 83.4679 35.9882 80.4779 35.9882C75.0462 35.9882 71.8081 32.0564 71.8081 27.1218V27.1218ZM92.5795 21.5967H89.1642V18.5809H92.5795V13.5936H96.1593V18.5809H101.348V21.5967H96.1593V29.2404C96.1593 31.8503 96.9998 32.7776 99.0657 32.7776C100.009 32.7776 100.549 32.6972 101.348 32.5653V35.5484C100.353 35.8273 99.4036 35.9555 98.3758 35.9555C94.5111 35.9555 92.5795 33.8596 92.5795 29.6639V21.5967ZM116.422 24.5295C115.703 22.7276 114.099 21.4006 111.742 21.4006C108.679 21.4006 106.718 23.5582 106.718 27.0728C106.718 30.4995 108.523 32.7613 111.595 32.7613C114.01 32.7613 115.734 31.3665 116.422 29.6312V24.5295ZM120.002 35.5811H116.488V33.2011C115.505 34.6022 113.718 35.9882 110.823 35.9882C106.167 35.9882 103.056 32.1192 103.056 27.0728C103.056 21.9787 106.242 18.1725 111.02 18.1725C113.382 18.1725 115.236 19.1099 116.488 20.7648V18.5809H120.002V35.5811Z" fill="#192830"/>
</g>
<defs>
<linearGradient id="paint0_linear_2045_30517" x1="7.72318" y1="26.7019" x2="32.7861" y2="27.977" gradientUnits="userSpaceOnUse">
<stop stop-color="#0064E1"/>
<stop offset="0.4" stop-color="#0064E1"/>
<stop offset="0.83" stop-color="#0073EE"/>
<stop offset="1" stop-color="#0082FB"/>
</linearGradient>
<linearGradient id="paint1_linear_2045_30517" x1="5.69633" y1="29.4663" x2="5.69633" y2="20.2934" gradientUnits="userSpaceOnUse">
<stop stop-color="#0082FB"/>
<stop offset="1" stop-color="#0064E0"/>
</linearGradient>
<clipPath id="clip0_2045_30517">
<rect width="120" height="48" fill="white"/>
</clipPath>
</defs>
</svg>
