<svg width="109" height="48" viewBox="0 0 109 48" fill="none" xmlns="http://www.w3.org/2000/svg">
<path d="M14.9878 37.1952C13.3481 37.4689 11.6796 37.5509 9.9536 37.7695L4.68902 23.1133V38.3985C3.04934 38.5625 1.55346 38.7813 0 39V11H4.37277L10.3563 26.887V11H14.9878V37.1952ZM24.0496 21.2539C25.8333 21.2539 28.5662 21.1719 30.2059 21.1719V25.5468C28.1633 25.5468 25.7757 25.5468 24.0496 25.6288V32.1367C26.7539 31.9727 29.458 31.7538 32.1908 31.6717V35.8824L19.4467 36.8397V11H32.1908V15.375H24.0496V21.2539ZM49.3074 15.3751H44.532V35.5001C42.9786 35.5001 41.4251 35.5001 39.9294 35.5546V15.3751H35.1541V11H49.3076L49.3074 15.3751ZM56.7869 20.9532H63.0871V25.3281H56.7869V35.254H52.2701V11H65.1295V15.375H56.7869V20.9532ZM72.609 31.4258C75.2269 31.4803 77.8734 31.672 80.4338 31.8085V36.1289C76.3201 35.8826 72.2063 35.6369 68.0063 35.5546V11H72.609V31.4258ZM84.3174 36.4297C85.7845 36.5118 87.338 36.5939 88.8338 36.7577V11H84.3174V36.4297ZM109 11L103.16 24.3164L109 39C107.274 38.7813 105.548 38.4805 103.822 38.207L100.514 30.1134L97.1481 37.5509C95.4792 37.2773 93.8683 37.1952 92.2001 36.9765L98.1261 24.1522L92.7752 11H97.723L100.744 18.3555L103.966 11H109Z" fill="#D81F26"/>
</svg>
