<svg xmlns="http://www.w3.org/2000/svg" width="384" height="202" fill="none" viewBox="0 0 384 202">
  <g clip-path="url(#a)">
    <path fill="#FAFAFA" d="M0 0h384v202H0z" />
    <path fill="#B3B3B3"
      d="m144.607 164 3.984-14.328L152.575 164h2.352l4.632-17.04h-2.064l-3.72 14.424-3.984-14.424h-2.352l-3.984 14.448-3.792-14.448h-2.136l4.656 17.04h2.424Zm29.214 0v-1.776h-9.288v-6.048h8.448V154.4h-8.448v-5.664h9.168v-1.776h-11.208V164h11.328Zm10.774 0c3.288 0 5.688-1.608 5.688-4.704v-.36c0-1.872-1.08-3.408-2.832-3.96 1.296-.6 2.04-1.848 2.04-3.36v-.216c0-3.12-2.16-4.44-5.448-4.44h-6.504V164h7.056Zm-5.04-15.288h4.416c2.136 0 3.432.672 3.432 2.712v.216c0 1.68-1.056 2.736-3.312 2.736h-4.536v-5.664Zm0 7.392h5.208c2.232 0 3.432.984 3.432 2.832v.336c0 2.064-1.536 2.976-3.672 2.976h-4.968v-6.144ZM195.846 164v-17.04h-2.04V164h2.04Zm6.3 0v-14.352L211.194 164h2.328v-17.04h-2.016v14.064l-8.88-14.064h-2.496V164h2.016Zm29.818 0-6.648-17.04h-2.208L216.46 164h2.064l1.776-4.656h7.728l1.776 4.656h2.16Zm-7.8-14.784 3.192 8.376h-6.384l3.192-8.376ZM236.926 164v-6.912h3.648l4.368 6.912h2.352l-4.44-6.984c2.688-.336 4.392-1.968 4.392-4.776v-.432c0-3.144-2.16-4.848-5.472-4.848h-6.888V164h2.04Zm0-15.264h4.776c2.136 0 3.48.984 3.48 3.072v.432c0 2.088-1.344 3.072-3.48 3.072h-4.776v-6.576Z" />
    <g stroke="#B3B3B3" stroke-linejoin="round" stroke-width="2" opacity=".8">
      <rect width="84" height="60" x="150" y="45" stroke-linecap="round" stroke-miterlimit="10" rx="4" />
      <path stroke-linecap="square" stroke-miterlimit="10" d="M182 72a9 9 0 0 1 0-18v0a9 9 0 0 1 0 18v0Z" />
      <path stroke-linecap="round" stroke-miterlimit="10"
        d="M164 90v-1c0-6.627 5.373-12 12-12h12c6.627 0 12 5.373 12 12v1M185 105v15M199 105v15M175 120h34M150 96h84" />
      <path fill="#FAFAFA"
        d="M205.018 38a4 4 0 0 1 4-4H239a4 4 0 0 1 4 4v21a4 4 0 0 1-4 4h-40l5.091-8.059c.606-.959.927-2.07.927-3.204V38Z" />
      <path stroke-linecap="round" stroke-miterlimit="10" d="M213 44h22M213 53h12" />
    </g>
  </g>
  <defs>
    <clipPath id="a">
      <path fill="#fff" d="M0 4a4 4 0 0 1 4-4h376a4 4 0 0 1 4 4v198H0V4Z" />
    </clipPath>
  </defs>
</svg>
