<svg width="384" height="202" viewBox="0 0 384 202" fill="none" xmlns="http://www.w3.org/2000/svg">
<g clip-path="url(#clip0_13379_117840)">
<rect width="384" height="202" fill="#F6F6F9"/>
<path d="M143.451 162C144.387 158.496 146.115 152.28 146.667 149.472H146.691C147.219 152.04 148.923 158.28 149.835 162H153.075L157.707 145.392H154.659C153.963 148.272 152.091 155.184 151.563 158.568H151.539C151.059 155.88 149.163 148.776 148.275 145.392H145.419C144.411 149.496 142.563 155.976 142.011 158.712H141.987C141.747 156.864 140.667 152.28 139.203 145.392H135.891L140.187 162H143.451ZM171.59 152.064H163.55V147.984H171.95V145.392H160.502V162H172.022L172.406 159.432H163.55V154.632H171.59V152.064ZM175.654 162H182.83C186.214 162 188.518 160.008 188.518 157.056C188.518 154.8 186.934 153.624 185.806 153.216C186.982 152.736 188.014 151.512 188.014 149.616C188.014 147.408 186.454 145.392 182.614 145.392H175.654V162ZM178.726 152.064V147.84H182.374C183.958 147.84 184.918 148.608 184.918 149.928C184.918 151.248 184.15 152.064 182.206 152.064H178.726ZM178.726 154.512H182.086C184.342 154.512 185.326 155.496 185.326 156.984C185.326 158.688 184.246 159.552 182.254 159.552H178.726V154.512ZM191.978 145.392V162H195.098V145.392H191.978ZM202.603 162V156.408C202.603 153.408 202.579 150.216 202.459 148.608H202.483C203.395 150.504 208.027 158.64 209.971 162H213.667V145.392H210.811V150.864C210.811 153.576 210.811 156.36 210.979 158.232H210.955C210.139 156.432 205.843 149.184 203.659 145.392H199.723V162H202.603ZM227.323 157.776L228.835 162H232.123L226.147 145.392H222.259L216.523 162H219.595L221.059 157.776H227.323ZM221.755 155.184C222.811 151.944 223.675 149.28 224.083 147.72H224.107C224.515 149.136 225.307 151.392 226.603 155.184H221.755ZM240.662 155.136C243.446 155.136 243.974 156.048 243.974 158.04V158.328C243.974 160.008 243.998 161.28 244.286 162H247.262C247.022 161.256 247.022 159.912 247.022 158.784V158.016C247.022 155.064 245.798 154.152 244.79 153.84C246.134 153.36 247.358 152.112 247.358 149.928C247.358 147.336 245.462 145.392 241.91 145.392H234.878V162H237.95V155.136H240.662ZM237.95 147.912H241.286C243.23 147.912 244.19 148.752 244.19 150.24C244.19 151.8 243.326 152.616 241.166 152.616H237.95V147.912Z" fill="#C7C9D1"/>
<rect x="150" y="40" width="84" height="60" rx="4" stroke="#C7C9D1" stroke-width="3"/>
<circle cx="192" cy="70" r="19" stroke="#C7C9D1" stroke-width="3"/>
<path d="M187 78.0842V61.9158C187 61.5202 187.438 61.2813 187.77 61.4952L200.346 69.5794C200.652 69.7762 200.652 70.2238 200.346 70.4206L187.77 78.5048C187.438 78.7187 187 78.4797 187 78.0842Z" fill="#C7C9D1"/>
<path d="M185 100V115" stroke="#C7C9D1" stroke-width="3" stroke-miterlimit="10" stroke-linecap="round" stroke-linejoin="round"/>
<path d="M199 100V115" stroke="#C7C9D1" stroke-width="3" stroke-miterlimit="10" stroke-linecap="round" stroke-linejoin="round"/>
<path d="M175.5 115H208.5" stroke="#C7C9D1" stroke-width="3" stroke-miterlimit="10" stroke-linecap="round" stroke-linejoin="round"/>
</g>
<defs>
<clipPath id="clip0_13379_117840">
<path d="M0 4C0 1.79086 1.79086 0 4 0H380C382.209 0 384 1.79086 384 4V202H0V4Z" fill="white"/>
</clipPath>
</defs>
</svg>
