<svg width="28" height="28" viewBox="0 0 28 28" fill="none" xmlns="http://www.w3.org/2000/svg">
<path d="M10.5 23H17.5" stroke="currentColor" stroke-width="1.2" stroke-linecap="round" stroke-linejoin="round"/>
<path d="M14 20.5L14 15" stroke="currentColor" stroke-width="1.2" stroke-linecap="round" stroke-linejoin="round"/>
<path d="M11.5 12.25L14 14.75L16.5 12.25" stroke="currentColor" stroke-width="1.2" stroke-linecap="round" stroke-linejoin="round"/>
<path d="M10.0131 17.7544L10.3553 17.2616L10.0131 17.7544ZM17.9869 17.7545L17.6447 17.2616L17.9869 17.7545ZM20.4 12C20.4 14.1796 19.311 16.1049 17.6447 17.2616L18.329 18.2473C20.3045 16.8761 21.6 14.5894 21.6 12H20.4ZM14 5.6C17.5346 5.6 20.4 8.46538 20.4 12H21.6C21.6 7.80264 18.1974 4.4 14 4.4V5.6ZM7.6 12C7.6 8.46538 10.4654 5.6 14 5.6V4.4C9.80264 4.4 6.4 7.80264 6.4 12H7.6ZM10.3553 17.2616C8.68899 16.1049 7.6 14.1796 7.6 12H6.4C6.4 14.5894 7.69551 16.8761 9.671 18.2473L10.3553 17.2616ZM11.1 19.5V18.6403H9.9V19.5H11.1ZM16.5 19.9H11.5V21.1H16.5V19.9ZM16.9 18.6403V19.5H18.1V18.6403H16.9ZM9.9 19.5C9.9 20.3837 10.6163 21.1 11.5 21.1V19.9C11.2791 19.9 11.1 19.7209 11.1 19.5H9.9ZM9.671 18.2473C9.8255 18.3546 9.9 18.5062 9.9 18.6403H11.1C11.1 18.0605 10.7873 17.5614 10.3553 17.2616L9.671 18.2473ZM16.5 21.1C17.3837 21.1 18.1 20.3837 18.1 19.5H16.9C16.9 19.7209 16.7209 19.9 16.5 19.9V21.1ZM17.6447 17.2616C17.2127 17.5614 16.9 18.0605 16.9 18.6403H18.1C18.1 18.5062 18.1745 18.3546 18.329 18.2473L17.6447 17.2616Z" fill="currentColor"/>
</svg>
