<svg width="28" height="28" viewBox="0 0 28 28" fill="none" xmlns="http://www.w3.org/2000/svg">
<path d="M16.6 14C16.6 12.5641 15.4359 11.4 14 11.4C12.5641 11.4 11.4 12.5641 11.4 14C11.4 15.4359 12.5641 16.6 14 16.6C15.4359 16.6 16.6 15.4359 16.6 14Z" stroke="currentColor" stroke-width="1.2" stroke-linecap="round" stroke-linejoin="round"/>
<path d="M11.4012 6.10974C11.2131 5.89009 10.8951 5.83586 10.6448 5.98075L8.75391 7.07553C8.50444 7.21998 8.39294 7.52142 8.48838 7.79344L9.17799 9.75882C8.62751 10.3939 8.20687 11.1314 7.93993 11.929L5.88887 12.3156C5.60535 12.369 5.4 12.6167 5.4 12.9052L5.4 15.0948C5.4 15.3834 5.60549 15.6311 5.88913 15.6845L7.9458 16.0711C8.21265 16.8684 8.63306 17.6056 9.1832 18.2405L8.48883 20.2053C8.39261 20.4776 8.504 20.7798 8.75391 20.9245L10.6448 22.0192C10.8951 22.1641 11.2131 22.1099 11.4012 21.8903L12.7614 20.3018C13.166 20.3878 13.5784 20.4337 13.9926 20.4388L14.0074 20.4388C14.4216 20.4337 14.834 20.3878 15.2386 20.3018L16.5988 21.8903C16.7869 22.1099 17.1049 22.1641 17.3552 22.0192L19.2461 20.9245C19.4955 20.7801 19.607 20.4788 19.5117 20.2069L18.8233 18.2414C19.3739 17.6062 19.7946 16.8687 20.0615 16.0709L22.1112 15.6844C22.3947 15.6309 22.6 15.3833 22.6 15.0948L22.6 12.9052C22.6 12.6166 22.3945 12.3689 22.1109 12.3155L20.0542 11.9289C19.7872 11.1312 19.3665 10.3937 18.816 9.75865L19.5045 7.79312C19.5997 7.52117 19.4882 7.21991 19.2388 7.07553L17.3479 5.98075C17.0972 5.8356 16.7786 5.8903 16.5907 6.11076L15.2377 7.69797C14.8333 7.61216 14.4213 7.56629 14.0074 7.5612L13.9926 7.5612C13.5784 7.56629 13.166 7.61223 12.7614 7.69816L11.4012 6.10974Z" stroke="currentColor" stroke-width="1.2" stroke-linecap="round" stroke-linejoin="round"/>
</svg>
