<svg width="28" height="28" viewBox="0 0 28 28" fill="none" xmlns="http://www.w3.org/2000/svg">
<path d="M11.8696 16.2002L13.8844 21.2018C14.0416 21.595 14.0366 22.0345 13.8706 22.424C13.7045 22.8136 13.3908 23.1214 12.9982 23.2802C12.6047 23.4381 12.1646 23.4334 11.7746 23.2672C11.3846 23.1009 11.0765 22.7866 10.918 22.3934L8.40039 16.2002" stroke="currentColor" stroke-width="1.2" stroke-linecap="round" stroke-linejoin="round"/>
<path d="M12.8 9H8.6C7.64522 9 6.72955 9.37928 6.05442 10.0544C5.37928 10.7295 5 11.6452 5 12.6V12.6C5 13.5548 5.37928 14.4705 6.05442 15.1456C6.72955 15.8207 7.64522 16.2 8.6 16.2H12.8L19.4 19.2V6L12.8 9Z" stroke="currentColor" stroke-width="1.2" stroke-linecap="round" stroke-linejoin="round"/>
<path d="M21.5 11.0674C22.0304 11.0674 22.5391 11.2781 22.9142 11.6532C23.2893 12.0282 23.5 12.5369 23.5 13.0674C23.5 13.5978 23.2893 14.1065 22.9142 14.4816C22.5391 14.8567 22.0304 15.0674 21.5 15.0674" stroke="currentColor" stroke-width="1.2" stroke-linecap="round" stroke-linejoin="round"/>
</svg>
