<svg width="56" height="56" viewBox="0 0 56 56" fill="none" xmlns="http://www.w3.org/2000/svg">
<path fill-rule="evenodd" clip-rule="evenodd" d="M28 56C43.464 56 56 43.464 56 28C56 12.536 43.464 0 28 0C12.536 0 0 12.536 0 28C0 43.464 12.536 56 28 56ZM21 13C19.8954 13 19 13.8954 19 15V22H24.3551C25.1924 22 25.9916 22.3499 26.5595 22.9652L30.9101 27.6783C31.0994 27.8834 31.3658 28 31.6449 28H37V15C37 13.8954 36.1046 13 35 13H21ZM31.6449 30H37H39C40.1046 30 41 30.8954 41 32V38C41 39.1046 40.1046 40 39 40H17C15.8954 40 15 39.1046 15 38V26C15 24.8954 15.8954 24 17 24H19H24.3551C24.6342 24 24.9006 24.1166 25.0899 24.3217L29.4405 29.0348C30.0084 29.6501 30.8076 30 31.6449 30Z" fill="#00ACE5"/>
</svg>
