<svg width="56" height="56" viewBox="0 0 56 56" fill="none" xmlns="http://www.w3.org/2000/svg">
<circle cx="28" cy="28" r="28" fill="#5CCC6F"/>
<path fill-rule="evenodd" clip-rule="evenodd" d="M39.9442 24.7554C39.5595 24.979 39.373 25.4292 39.4554 25.8665C39.5858 26.5579 39.6594 27.2691 39.6594 28C39.6594 28.731 39.5854 29.4445 39.4562 30.1388C39.3752 30.5745 39.562 31.0221 39.9452 31.2448L42.5033 32.7313C42.979 33.0077 43.1421 33.6164 42.8683 34.0936L40.6834 37.9014C40.4075 38.3822 39.7931 38.5468 39.3138 38.2684L36.7777 36.7953C36.3895 36.5698 35.9015 36.6341 35.5605 36.9261C34.4895 37.8433 33.2527 38.5678 31.8997 39.0507C31.479 39.2008 31.1812 39.5891 31.1812 40.0357V43C31.1812 43.5523 30.7334 44 30.1812 44H25.8209C25.2686 44 24.8209 43.5523 24.8209 43V40.0344C24.8209 39.5874 24.5225 39.1989 24.1014 39.0489C22.7488 38.5674 21.5116 37.8433 20.4418 36.9255C20.1007 36.6328 19.612 36.568 19.2233 36.7938L16.6883 38.2663C16.2089 38.5447 15.5945 38.3801 15.3186 37.8992L13.1338 34.0914C12.86 33.6143 13.0231 33.0055 13.4987 32.7291L16.0536 31.2446C16.4383 31.021 16.6248 30.5708 16.5424 30.1335C16.4121 29.4414 16.3384 28.7294 16.3384 28C16.3384 27.2691 16.412 26.5579 16.5424 25.8665C16.6248 25.4292 16.4383 24.979 16.0536 24.7554L13.4987 23.2709C13.0231 22.9945 12.86 22.3857 13.1338 21.9086L15.3185 18.101C15.5945 17.6201 16.209 17.4555 16.6883 17.734L19.2217 19.2063C19.6101 19.432 20.0986 19.3675 20.4397 19.0751C21.5109 18.1569 22.7486 17.4323 24.1005 16.9495C24.5211 16.7993 24.8188 16.4111 24.8188 15.9645V13C24.8188 12.4477 25.2665 12 25.8188 12H30.179C30.7313 12 31.179 12.4477 31.179 13V15.9656C31.179 16.4126 31.4774 16.8011 31.8985 16.9511C33.2511 17.4326 34.4882 18.1567 35.558 19.0744C35.8992 19.3671 36.388 19.4319 36.7767 19.206L39.3095 17.734C39.7888 17.4555 40.4034 17.6201 40.6793 18.101L42.864 21.9086C43.1378 22.3857 42.9748 22.9945 42.4991 23.2709L39.9442 24.7554ZM33.2941 28.0003C33.2941 30.9458 30.9211 33.3337 27.9938 33.3337C25.0666 33.3337 22.6936 30.9458 22.6936 28.0003C22.6936 25.0548 25.0666 22.667 27.9938 22.667C30.9211 22.667 33.2941 25.0548 33.2941 28.0003Z" fill="white"/>
</svg>
