<svg width="56" height="56" viewBox="0 0 56 56" fill="none" xmlns="http://www.w3.org/2000/svg">
<circle cx="28" cy="28" r="28" fill="#F46666"/>
<rect x="15" y="17" width="24" height="24" rx="2" fill="white"/>
<path d="M25.5578 24.3884L25.5574 24.3888C25.3499 24.5965 25.2054 24.8587 25.1407 25.1451L25.1407 25.1451L25.1398 25.1488L24.037 30.1119C24.037 30.1119 24.037 30.1119 24.037 30.1119C23.9865 30.3388 23.9877 30.5741 24.0404 30.8005C24.0932 31.0269 24.1961 31.2385 24.3416 31.4198C24.4871 31.601 24.6715 31.7473 24.8811 31.8477C25.0908 31.9481 25.3203 32.0002 25.5527 32L25.5551 32C25.6636 31.9997 25.7719 31.9882 25.8781 31.9658L25.8781 31.9658L25.8885 31.9635L30.8515 30.8606L30.8552 30.8598C31.1416 30.795 31.4038 30.6505 31.6115 30.443L31.6119 30.4426L43 19.0542C43.7811 18.2732 43.7811 17.0069 43 16.2258L39.7744 13L39.0672 13.7071L39.7744 13C38.9933 12.219 37.727 12.219 36.9459 13L25.5578 24.3884Z" fill="white" stroke="#F46666" stroke-width="2"/>
</svg>
