<svg width="34" height="34" viewBox="0 0 34 34" fill="none" xmlns="http://www.w3.org/2000/svg">
<circle cx="17" cy="17" r="16.5" fill="white" stroke="#E6E6E6"/>
<path fill-rule="evenodd" clip-rule="evenodd" d="M12.6325 23.8571V13.8334H9.20212V23.8571H12.6325ZM25 23.8571V18.1089C25 15.03 23.3078 13.5977 21.0511 13.5977C19.2315 13.5977 18.4165 14.5698 17.9601 15.2526V13.8334H14.5306C14.5761 14.7738 14.5306 23.8571 14.5306 23.8571H17.9601V18.2592C17.9601 17.9595 17.9822 17.66 18.0731 17.4459C18.3206 16.8475 18.8854 16.2275 19.8329 16.2275C21.0733 16.2275 21.5703 17.1471 21.5703 18.494V23.8571H25ZM10.9405 9C9.76681 9 9 9.74957 9 10.732C9 11.6938 9.74348 12.464 10.8951 12.464H10.9172C12.1133 12.464 12.8579 11.6938 12.8579 10.732C12.8357 9.74957 12.1134 9 10.9405 9Z" fill="#1A1A1A"/>
</svg>
