<svg width="34" height="34" viewBox="0 0 34 34" fill="none" xmlns="http://www.w3.org/2000/svg">
<circle cx="17" cy="17" r="16.5" fill="white" stroke="#E6E6E6"/>
<path fill-rule="evenodd" clip-rule="evenodd" d="M14.3786 23.8569C20.8519 23.8569 24.3914 18.5793 24.3914 14.0056C24.3914 13.8548 24.3914 13.704 24.3841 13.5603C25.0701 13.0721 25.6685 12.4618 26.1429 11.7653C25.5153 12.0381 24.8365 12.2249 24.1213 12.311C24.8511 11.8802 25.4058 11.2052 25.6685 10.3939C24.9898 10.7888 24.2381 11.076 23.4353 11.2339C22.7931 10.559 21.8809 10.1426 20.8665 10.1426C18.9252 10.1426 17.3489 11.6935 17.3489 13.6035C17.3489 13.8763 17.3781 14.142 17.4437 14.3933C14.5173 14.2497 11.9265 12.8711 10.1896 10.7744C9.89034 11.2842 9.7152 11.8802 9.7152 12.512C9.7152 13.7111 10.3355 14.7738 11.2843 15.3913C10.7077 15.377 10.1677 15.219 9.69332 14.9605V15.0036C9.69332 16.6838 10.9047 18.0767 12.5176 18.3999C12.2257 18.4788 11.9119 18.5219 11.5908 18.5219C11.3645 18.5219 11.1456 18.5004 10.9267 18.4573C11.3718 19.8359 12.6709 20.834 14.2107 20.8627C13.0066 21.789 11.4886 22.3419 9.83926 22.3419C9.55463 22.3419 9.27731 22.3275 9 22.2916C10.5399 23.2824 12.3935 23.8569 14.3786 23.8569Z" fill="#1A1A1A"/>
</svg>
