<svg width="40" height="40" viewBox="0 0 40 40" fill="none" xmlns="http://www.w3.org/2000/svg">
<circle cx="20" cy="20" r="19.375" stroke="white" stroke-opacity="0.15" stroke-width="1.25"/>
<path d="M30.5851 19.02L20.9797 9.41489C20.4269 8.8617 19.5297 8.8617 18.9762 9.41489L16.9815 11.4095L19.5118 13.9398C20.0998 13.7412 20.7741 13.8744 21.2428 14.3432C21.7137 14.8149 21.846 15.4949 21.6425 16.0848L24.081 18.5234C24.671 18.3202 25.3517 18.4516 25.8229 18.9236C26.4814 19.5819 26.4814 20.6488 25.8229 21.3076C25.1642 21.9664 24.0973 21.9664 23.4382 21.3076C22.9429 20.8117 22.8205 20.0842 23.0713 19.474L20.7972 17.1999L20.7969 23.1844C20.9618 23.2659 21.1123 23.3736 21.2428 23.5032C21.9013 24.1615 21.9013 25.2285 21.2428 25.8878C20.5841 26.5462 19.5166 26.5462 18.8589 25.8878C18.2003 25.2285 18.2003 24.1616 18.8589 23.5033C19.0167 23.3454 19.2042 23.2204 19.4107 23.1354V17.0951C19.2039 17.0107 19.0163 16.8856 18.8589 16.7272C18.3599 16.2289 18.2399 15.4968 18.4956 14.8841L16.0013 12.3896L9.41508 18.9755C8.86164 19.5292 8.86164 20.4265 9.41508 20.9798L19.0207 30.585C19.5737 31.1383 20.4707 31.1383 21.0244 30.585L30.5851 21.0244C31.1383 20.471 31.1384 19.5732 30.5851 19.02Z" fill="currentColor"/>
</svg>
