<svg width="40" height="40" viewBox="0 0 40 40" fill="none" xmlns="http://www.w3.org/2000/svg">
<circle cx="20" cy="20" r="19.375" stroke="white" stroke-opacity="0.15" stroke-width="1.25"/>
<path d="M29.9804 26.5757C29.7161 24.9186 26.5902 26.1967 26.3969 24.3803C26.1238 21.8034 30.0264 16.2507 29.7188 14.0952C29.4424 12.1548 28.1102 11.7479 26.9511 11.728C25.8251 11.7081 25.5277 11.884 25.1472 12.1017C24.9275 12.2264 24.6119 12.474 24.1739 12.0652C23.8826 11.7931 23.6906 11.6026 23.3824 11.3617C23.2256 11.2383 22.9756 11.0836 22.5572 11.0233C22.1381 10.9629 21.5961 11.0233 21.2514 11.1679C20.906 11.3133 20.6356 11.5674 20.3518 11.809C20.0686 12.0506 19.3501 12.841 18.6803 12.549C18.3897 12.4229 17.4063 11.9404 16.6959 11.6391C15.3252 11.0571 13.3483 12.0001 12.6366 13.2425C11.5782 15.0894 9.48698 22.3496 9.16999 23.3072C8.45964 25.4574 10.0703 27.2101 12.2412 27.1086C13.159 27.0661 13.77 26.7369 14.3499 25.7016C14.6852 25.1037 17.8334 17.0325 18.0673 16.6449C18.2369 16.3642 18.8033 15.9939 19.2839 16.2355C19.7638 16.477 19.8597 16.9814 19.7888 17.4566C19.6739 18.2251 17.4536 23.1486 17.3684 23.7061C17.2238 24.6531 17.682 25.18 18.6837 25.2318C19.3704 25.2676 20.0544 25.0254 20.5978 24.02C20.9019 23.4579 24.403 16.5746 24.7126 16.1147C25.0532 15.6103 25.3269 15.4444 25.6737 15.4623C25.9427 15.4756 26.3732 15.5433 26.2657 16.335C26.1603 17.1115 23.3446 22.1618 23.0499 23.3988C22.6545 25.0519 23.5791 26.7263 25.1019 27.4596C26.0731 27.9268 30.3231 28.7272 29.9804 26.5763" fill="currentColor"/>
</svg>
