<svg width="40" height="40" viewBox="0 0 40 40" fill="none" xmlns="http://www.w3.org/2000/svg">
<circle cx="20" cy="20" r="19.375" stroke="white" stroke-opacity="0.15" stroke-width="1.25"/>
<path d="M31.25 18.4559C31.25 16.8382 29.9844 15.6618 28.5781 15.6618C27.875 15.6618 27.3125 15.9559 26.8906 16.25C25.2031 15.2206 23.0938 14.4853 20.8438 14.3382L21.9687 10.5147L25.2031 11.25C25.3438 12.4265 26.3281 13.4559 27.4531 13.4559C28.7188 13.4559 29.7031 12.4265 29.7031 11.1029C29.7031 9.77941 28.7188 8.75 27.4531 8.75C26.6094 8.75 25.7656 9.33824 25.4844 10.0735L21.6875 9.04412C21.4062 9.04412 21.125 9.19118 20.9844 9.48529L19.5781 14.3382C17.1875 14.3382 14.9375 15.0735 13.1094 16.1029C12.6875 15.8088 12.125 15.5147 11.4219 15.5147C10.0156 15.5147 8.75 16.8382 8.75 18.4559C8.75 19.4853 9.17188 20.2206 9.875 20.8088C9.875 21.1029 9.875 21.25 9.875 21.5441C9.875 23.4559 11 25.3676 12.9688 26.6912C14.7969 28.0147 17.3281 28.75 20 28.75C22.6719 28.75 25.2031 28.0147 27.0312 26.6912C29 25.3676 30.125 23.6029 30.125 21.5441C30.125 21.3971 30.125 21.1029 30.125 20.9559C30.6875 20.2206 31.25 19.3382 31.25 18.4559ZM15.0781 20.0735C15.0781 19.1912 15.7812 18.4559 16.625 18.4559C17.4688 18.4559 18.1719 19.1912 18.1719 20.0735C18.1719 20.9559 17.4688 21.6912 16.625 21.6912C15.7812 21.6912 15.0781 20.9559 15.0781 20.0735ZM23.6563 24.7794C22.8125 25.6618 21.6875 25.9559 20 25.9559C18.3125 25.9559 17.0469 25.5147 16.3438 24.7794C16.0625 24.4853 16.0625 24.1912 16.3438 23.8971C16.625 23.6029 16.9062 23.6029 17.1875 23.8971C17.75 24.4853 18.5938 24.7794 20 24.7794C21.4062 24.7794 22.25 24.4853 22.8125 23.8971C23.0938 23.6029 23.375 23.6029 23.6563 23.8971C23.9375 24.1912 23.9375 24.6324 23.6563 24.7794ZM23.375 21.6912C22.5312 21.6912 21.8281 20.9559 21.8281 20.0735C21.8281 19.1912 22.5312 18.4559 23.375 18.4559C24.2187 18.4559 24.9219 19.1912 24.9219 20.0735C24.9219 20.9559 24.2187 21.6912 23.375 21.6912Z" fill="currentColor"/>
</svg>
