<svg width="40" height="40" viewBox="0 0 40 40" fill="none" xmlns="http://www.w3.org/2000/svg">
<circle cx="20" cy="20" r="19.375" stroke="white" stroke-opacity="0.15" stroke-width="1.25"/>
<path d="M17.332 10C16.8016 10 16.2929 10.2107 15.9178 10.5858C15.5427 10.9609 15.332 11.4696 15.332 12C15.332 12.5304 15.5427 13.0391 15.9178 13.4142C16.2929 13.7893 16.8016 14 17.332 14H19.3319V12C19.3319 11.4696 19.1212 10.9609 18.7462 10.5858C18.3711 10.2107 17.8624 10 17.332 10" fill="currentColor"/>
<path d="M17.3336 15.332H11.9999C11.4695 15.332 10.9608 15.5427 10.5858 15.9178C10.2107 16.2929 10 16.8016 10 17.332C10 17.8625 10.2107 18.3712 10.5858 18.7462C10.9608 19.1213 11.4695 19.332 11.9999 19.332H17.3336C17.864 19.332 18.3727 19.1213 18.7477 18.7462C19.1228 18.3712 19.3335 17.8625 19.3335 17.332C19.3335 16.8016 19.1228 16.2929 18.7477 15.9178C18.3727 15.5427 17.864 15.332 17.3336 15.332Z" fill="currentColor"/>
<path d="M29.9999 17.332C29.9999 16.8016 29.7892 16.2929 29.4141 15.9178C29.0391 15.5427 28.5304 15.332 27.9999 15.332C27.4695 15.332 26.9608 15.5427 26.5858 15.9178C26.2107 16.2929 26 16.8016 26 17.332V19.332H27.9999C28.5304 19.332 29.0391 19.1213 29.4141 18.7462C29.7892 18.3712 29.9999 17.8625 29.9999 17.332Z" fill="currentColor"/>
<path d="M24.6679 17.3338V12C24.6679 11.4696 24.4572 10.9609 24.0821 10.5858C23.707 10.2107 23.1983 10 22.6679 10C22.1375 10 21.6288 10.2107 21.2537 10.5858C20.8787 10.9609 20.668 11.4696 20.668 12V17.3325C20.668 17.8629 20.8787 18.3716 21.2537 18.7467C21.6288 19.1218 22.1375 19.3325 22.6679 19.3325C23.1983 19.3325 23.707 19.1218 24.0821 18.7467C24.4572 18.3716 24.6679 17.8629 24.6679 17.3325" fill="currentColor"/>
<path d="M22.6679 30.001C23.1983 30.001 23.707 29.7903 24.0821 29.4152C24.4572 29.0401 24.6679 28.5314 24.6679 28.001C24.6679 27.4705 24.4572 26.9618 24.0821 26.5868C23.707 26.2117 23.1983 26.001 22.6679 26.001H20.668V28.001C20.668 28.5314 20.8787 29.0401 21.2537 29.4152C21.6288 29.7903 22.1375 30.001 22.6679 30.001Z" fill="currentColor"/>
<path d="M22.6679 24.6641H28.0015C28.532 24.6641 29.0406 24.4534 29.4157 24.0783C29.7908 23.7032 30.0015 23.1945 30.0015 22.6641C30.0015 22.1336 29.7908 21.6249 29.4157 21.2498C29.0406 20.8748 28.532 20.6641 28.0015 20.6641H22.6679C22.1375 20.6641 21.6288 20.8748 21.2537 21.2498C20.8787 21.6249 20.668 22.1336 20.668 22.6641C20.668 23.1945 20.8787 23.7032 21.2537 24.0783C21.6288 24.4534 22.1375 24.6641 22.6679 24.6641Z" fill="currentColor"/>
<path d="M10 22.6641C10 23.1945 10.2107 23.7032 10.5858 24.0783C10.9608 24.4534 11.4695 24.6641 11.9999 24.6641C12.5304 24.6641 13.0391 24.4534 13.4141 24.0783C13.7892 23.7032 13.9999 23.1945 13.9999 22.6641V20.6641H11.9999C11.4695 20.6641 10.9608 20.8748 10.5858 21.2498C10.2107 21.6249 10 22.1336 10 22.6641" fill="currentColor"/>
<path d="M15.332 22.6641V27.9978C15.332 28.5283 15.5427 29.037 15.9178 29.412C16.2929 29.7871 16.8016 29.9978 17.332 29.9978C17.8624 29.9978 18.3711 29.7871 18.7462 29.412C19.1212 29.037 19.3319 28.5283 19.3319 27.9978V22.6641C19.3319 22.1336 19.1212 21.6249 18.7462 21.2498C18.3711 20.8748 17.8624 20.6641 17.332 20.6641C16.8016 20.6641 16.2929 20.8748 15.9178 21.2498C15.5427 21.6249 15.332 22.1336 15.332 22.6641Z" fill="currentColor"/>
</svg>
