<svg width="40" height="40" viewBox="0 0 40 40" fill="none" xmlns="http://www.w3.org/2000/svg">
<circle cx="20" cy="20" r="19.375" stroke="white" stroke-opacity="0.15" stroke-width="1.25"/>
<path d="M30 13.8462C29.25 14.2154 28.5 14.3385 27.625 14.4615C28.5 13.9692 29.125 13.2308 29.375 12.2462C28.625 12.7385 27.75 12.9846 26.75 13.2308C26 12.4923 24.875 12 23.75 12C21.625 12 19.75 13.8462 19.75 16.0615C19.75 16.4308 19.75 16.6769 19.875 16.9231C16.5 16.8 13.375 15.2 11.375 12.7385C11 13.3538 10.875 13.9692 10.875 14.8308C10.875 16.1846 11.625 17.4154 12.75 18.1538C12.125 18.1538 11.5 17.9077 10.875 17.6615C10.875 19.6308 12.25 21.2308 14.125 21.6C13.75 21.7231 13.375 21.7231 13 21.7231C12.75 21.7231 12.5 21.7231 12.25 21.6C12.75 23.2 14.25 24.4308 16.125 24.4308C14.75 25.5385 13 26.1538 11 26.1538C10.625 26.1538 10.375 26.1538 10 26.1538C11.875 27.2615 14 28 16.25 28C23.75 28 27.875 21.8462 27.875 16.5538C27.875 16.4308 27.875 16.1846 27.875 16.0615C28.75 15.4462 29.5 14.7077 30 13.8462Z" fill="currentColor"/>
</svg>
