<svg width="32" height="32" viewBox="0 0 32 32" fill="none" xmlns="http://www.w3.org/2000/svg">
<path d="M30.7004 10.0019C30.7004 10.0019 30.4073 7.93454 29.5078 7.02416C28.367 5.82928 27.0883 5.82336 26.5019 5.75341C22.3038 5.44995 16.0065 5.44995 16.0065 5.44995H15.9935C15.9935 5.44995 9.6963 5.44995 5.49809 5.75341C4.91165 5.82336 3.63339 5.82928 2.49219 7.02416C1.59272 7.93454 1.30002 10.0019 1.30002 10.0019C1.30002 10.0019 1 12.4296 1 14.8573V17.1333C1 19.5609 1.30003 21.9887 1.30003 21.9887C1.30003 21.9887 1.59273 24.056 2.49219 24.9664C3.6334 26.1613 5.13244 26.1235 5.80011 26.2487C8.20017 26.4789 16 26.5501 16 26.5501C16 26.5501 22.3038 26.5406 26.5019 26.2371C27.0883 26.1672 28.367 26.1613 29.5078 24.9664C30.4073 24.056 30.7004 21.9887 30.7004 21.9887C30.7004 21.9887 31 19.5609 31 17.1333V14.8573C31 12.4296 30.7004 10.0019 30.7004 10.0019Z" fill="#DC2217"/>
<path d="M12.9037 19.8914L12.9023 11.4622L21.0085 15.6914L12.9037 19.8914Z" fill="white"/>
</svg>
