<svg xmlns="http://www.w3.org/2000/svg" width="56" height="56" fill="none">
  <path fill="#5CCC6F" fill-rule="evenodd"
    d="M28 56c15.464 0 28-12.536 28-28S43.464 0 28 0 0 12.536 0 28s12.536 28 28 28Zm-8.4-42.5h19.2c.664 0 1.2.541 1.2 1.208v26.584c0 .667-.536 1.208-1.2 1.208H20.2c-2.316 0-4.2-1.897-4.2-4.23V17.126c0-1.999 1.615-3.625 3.6-3.625ZM34 15.917h-7.2v10.875l3.6-2.417 3.6 2.417V15.917ZM20.2 40.083h17.4v-3.625H20.2c-.992 0-1.8.814-1.8 1.813 0 1 .808 1.812 1.8 1.812Z"
    clip-rule="evenodd" />
</svg>
