<svg width="36" height="36" viewBox="0 0 36 36" fill="none" xmlns="http://www.w3.org/2000/svg">
<path d="M18 0C27.9411 0 36 8.05887 36 18C36 27.9411 27.9411 36 18 36C8.05887 36 0 27.9411 0 18C0 8.05887 8.05887 0 18 0ZM10.8516 19.8516C10.7827 19.9209 10.7325 20.0072 10.707 20.1016L9.01953 26.2891C8.99342 26.3847 8.99311 26.4862 9.01855 26.582C9.04403 26.6778 9.09499 26.7649 9.16504 26.835C9.23507 26.905 9.32229 26.955 9.41797 26.9805C9.51383 27.0059 9.61526 27.0056 9.71094 26.9795L15.8984 25.292C15.9925 25.2665 16.0783 25.2171 16.1475 25.1484L23.9883 17.3076L18.6924 12.0117L10.8516 19.8516ZM22.4043 9C21.9568 9 21.5274 9.17779 21.2109 9.49414L19.8867 10.8184L25.1816 16.1133L26.5059 14.7891C26.8221 14.4727 26.9999 14.044 27 13.5967C27 13.1492 26.8222 12.7198 26.5059 12.4033L23.5967 9.49414C23.2803 9.17795 22.8516 9.0001 22.4043 9Z" fill="#1F2129"/>
</svg>
