<svg xmlns="http://www.w3.org/2000/svg" width="56" height="56" fill="none">
  <path fill="#00ACE5" d="M56 28c0 15.464-12.536 28-28 28S0 43.464 0 28 12.536 0 28 0s28 12.536 28 28Z" />
  <path fill="#fff"
    d="M32.598 19.607a.408.408 0 0 1-.265-.38v-6.18c0-.072.06-.131.132-.131h1.3a1.458 1.458 0 0 0 0-2.916h-11.53a1.458 1.458 0 0 0 0 2.916h1.232c.11 0 .2.09.2.2v6.111c0 .17-.107.32-.265.38a13.031 13.031 0 0 0-6.615 5.634 13.224 13.224 0 0 0-1.6 8.857 13.149 13.149 0 0 0 4.434 7.813A12.929 12.929 0 0 0 28 45c3.067 0 6.035-1.094 8.38-3.09a13.148 13.148 0 0 0 4.433-7.812 13.223 13.223 0 0 0-1.6-8.857 13.031 13.031 0 0 0-6.615-5.634ZM28 31.867a10.017 10.017 0 0 1-10.01.178.198.198 0 0 1-.101-.173v-.005a10.252 10.252 0 0 1 2.47-6.675 10.086 10.086 0 0 1 5.346-3.252c.484-.113.85-.53.85-1.026v-7.798c0-.11.09-.2.2-.2h2.49c.11 0 .2.09.2.2v7.798c0 .496.366.913.85 1.026 2.05.48 3.91 1.598 5.308 3.206a10.246 10.246 0 0 1 2.498 6.252c.007.154-.16.253-.296.181a10.014 10.014 0 0 0-9.805.288Z" />
</svg>
