<svg xmlns="http://www.w3.org/2000/svg" width="60" height="60" fill="none">
  <rect width="60" height="60" fill="#F6F6F6" rx="7.529" />
  <path fill="#E83030" stroke="#141A1F" stroke-width="1.705"
    d="m26.633 35.963-3.387-5.961 3.387-5.961h6.752L36.772 30l-3.387 5.962h-6.752Z" />
  <path fill="#6B91C7" stroke="#141A1F" stroke-width="1.705"
    d="m26.633 50.385-3.387-5.961 3.387-5.962h6.752l3.387 5.962-3.387 5.96h-6.752Z" />
  <path fill="#F9C31F" stroke="#141A1F" stroke-width="1.705"
    d="m26.633 21.537-3.387-5.961 3.387-5.961h6.752l3.387 5.96-3.387 5.962h-6.752Z" />
  <path fill="#795AA5" stroke="#141A1F" stroke-width="1.705"
    d="m39.145 43.173-3.387-5.961 3.387-5.961h6.751l3.388 5.961-3.388 5.961h-6.75Z" />
  <path fill="#F17423" stroke="#141A1F" stroke-width="1.705"
    d="m39.145 28.747-3.387-5.961 3.387-5.961h6.751l3.388 5.96-3.388 5.962h-6.75Z" />
  <path fill="#97C639" stroke="#141A1F" stroke-width="1.705"
    d="m14.104 43.17-3.387-5.96 3.387-5.961h6.751l3.387 5.96-3.387 5.962h-6.751Z" />
  <path fill="#C9DB70" stroke="#141A1F" stroke-width="1.705"
    d="m14.104 28.747-3.387-5.961 3.387-5.961h6.751l3.387 5.96-3.387 5.962h-6.751Z" />
</svg>
