<svg xmlns="http://www.w3.org/2000/svg" width="60" height="60" fill="none">
  <rect width="60" height="60" fill="#F6F6F6" rx="7.529" />
  <mask id="b" width="40" height="37" x="13" y="9" maskUnits="userSpaceOnUse" style="mask-type:alpha">
    <path fill="url(#a)" d="M13 9h40v37H13z" />
  </mask>
  <g mask="url(#b)">
    <path fill="#020204"
      d="M31.521 9.297c-1.375 0-2.755.276-4.002.966-1.325.729-2.412 1.896-3.079 3.275-.67 1.378-.93 2.85-.972 4.472-.075 3.08.07 6.311.296 9.24.06.89.17 1.41.057 2.327-.371 1.946-2.035 3.254-2.925 4.963-.979 1.885-1.391 4.015-2.13 6.013-.676 1.826-1.625 3.54-2.264 5.38-.896 2.571-1.165 5.398-.573 8.062.451 2.03 1.394 3.933 2.663 5.563-.183.337-.362.682-.55 1.017-.589 1.038-1.309 2.025-1.643 3.176-.168.575-.234 1.189-.126 1.78.107.59.4 1.155.86 1.53.3.244.664.404 1.038.493.373.086.76.108 1.146.1 1.46-.032 2.877-.485 4.289-.864a50.206 50.206 0 0 1 2.528-.605c3.012-.631 6.373-.378 9.168.035.946.148 1.886.337 2.817.57 1.458.36 2.909.82 4.408.864.394.012.793-.007 1.178-.093.386-.09.76-.249 1.066-.5.461-.375.755-.942.862-1.533.108-.59.041-1.207-.128-1.784-.34-1.153-1.066-2.135-1.667-3.17-.238-.41-.458-.827-.694-1.237 1.81-2.08 3.269-4.484 4.112-7.126.92-2.884 1.09-5.99.702-8.998-.388-3.007-1.32-5.924-2.547-8.685-1.54-3.46-2.836-4.712-3.776-7.752-1.013-3.287-.176-7.176-.93-10.156a10.535 10.535 0 0 0-1.25-2.867c-.646-1.038-1.467-1.966-2.441-2.689-1.554-1.153-3.507-1.767-5.493-1.767Z" />
    <path fill="#FDFDFB"
      d="M26.063 26.644c-.206.265-.34.584-.422.912-.08.328-.11.668-.123 1.008-.026.677.015 1.367-.161 2.02-.188.7-.607 1.306-1.018 1.895-.713 1.022-1.432 2.072-1.783 3.275a5.943 5.943 0 0 0-.209 2.255 24.211 24.211 0 0 0-2.058 3.793c-.867 2.009-1.46 4.147-1.67 6.332-.256 2.674.079 5.427 1.113 7.897.745 1.79 1.859 3.423 3.296 4.698.729.647 1.54 1.198 2.407 1.634 3.005 1.512 6.719 1.515 9.674-.096 1.545-.842 2.85-2.072 4.105-3.317.757-.75 1.511-1.52 2.089-2.42 1.112-1.736 1.499-3.846 1.74-5.907.42-3.6.433-7.408-1.112-10.673a11.768 11.768 0 0 0-2.09-3.06 16.978 16.978 0 0 0-1.321-4.552c-.47-1.043-1.04-2.035-1.477-3.09-.178-.433-.334-.879-.531-1.303-.2-.424-.443-.832-.777-1.158a3.154 3.154 0 0 0-1.21-.72 5.085 5.085 0 0 0-1.39-.244c-.942-.049-1.884.078-2.826.038-.75-.03-1.497-.164-2.247-.12a3.391 3.391 0 0 0-1.096.237c-.348.143-.67.366-.903.666Z" />
    <mask id="c" width="34" height="59" x="15" y="9" maskUnits="userSpaceOnUse" style="mask-type:luminance">
      <path fill="#fff"
        d="M31.517 9.297c-1.375 0-2.755.276-4.002.966-1.325.729-2.412 1.896-3.079 3.275-.67 1.378-.93 2.85-.972 4.472-.075 3.08.07 6.311.296 9.24.06.89.17 1.41.057 2.327-.371 1.946-2.035 3.254-2.925 4.963-.979 1.885-1.391 4.015-2.13 6.013-.676 1.826-1.625 3.54-2.264 5.38-.897 2.571-1.165 5.398-.573 8.062.451 2.03 1.393 3.933 2.663 5.563-.183.337-.362.682-.55 1.017-.589 1.038-1.309 2.025-1.643 3.176-.168.575-.234 1.189-.126 1.78.107.59.4 1.155.86 1.53.3.244.664.404 1.038.493.373.086.76.108 1.146.1 1.46-.032 2.877-.485 4.289-.864a50.228 50.228 0 0 1 2.528-.605c3.012-.631 6.373-.378 9.168.035.946.148 1.886.337 2.817.57 1.458.36 2.909.82 4.408.864.394.012.793-.007 1.178-.093.386-.09.76-.249 1.066-.5.461-.375.755-.942.862-1.533.108-.59.041-1.207-.128-1.784-.34-1.153-1.066-2.135-1.667-3.17-.238-.41-.458-.827-.694-1.237 1.81-2.08 3.269-4.484 4.112-7.126.92-2.884 1.09-5.99.702-8.998-.388-3.007-1.32-5.924-2.547-8.685-1.54-3.46-2.836-4.712-3.776-7.752-1.013-3.287-.176-7.176-.93-10.156a10.535 10.535 0 0 0-1.25-2.867c-.646-1.038-1.467-1.966-2.441-2.689-1.554-1.153-3.507-1.767-5.493-1.767Z" />
    </mask>
    <g filter="url(#d)" mask="url(#c)" opacity=".25">
      <path fill="url(#e)"
        d="M22.745 36.298c.2.307-.126 1.369 4.553.689 0 0-.823.091-1.632.284-1.259.43-2.355.911-3.203 1.55-.837.632-1.45 1.455-2.219 2.16 0 0 1.245-2.325 1.554-3.026.312-.7-.05-.668.195-1.7.245-1.031.846-2.023.846-2.023s-.49 1.459-.094 2.066Z" />
    </g>
    <mask id="f" width="34" height="59" x="15" y="9" maskUnits="userSpaceOnUse" style="mask-type:luminance">
      <path fill="#fff"
        d="M31.517 9.297c-1.375 0-2.755.276-4.002.966-1.325.729-2.412 1.896-3.079 3.275-.67 1.378-.93 2.85-.972 4.472-.075 3.08.07 6.311.296 9.24.06.89.17 1.41.057 2.327-.371 1.946-2.035 3.254-2.925 4.963-.979 1.885-1.391 4.015-2.13 6.013-.676 1.826-1.625 3.54-2.264 5.38-.897 2.571-1.165 5.398-.573 8.062.451 2.03 1.393 3.933 2.663 5.563-.183.337-.362.682-.55 1.017-.589 1.038-1.309 2.025-1.643 3.176-.168.575-.234 1.189-.126 1.78.107.59.4 1.155.86 1.53.3.244.664.404 1.038.493.373.086.76.108 1.146.1 1.46-.032 2.877-.485 4.289-.864a50.228 50.228 0 0 1 2.528-.605c3.012-.631 6.373-.378 9.168.035.946.148 1.886.337 2.817.57 1.458.36 2.909.82 4.408.864.394.012.793-.007 1.178-.093.386-.09.76-.249 1.066-.5.461-.375.755-.942.862-1.533.108-.59.041-1.207-.128-1.784-.34-1.153-1.066-2.135-1.667-3.17-.238-.41-.458-.827-.694-1.237 1.81-2.08 3.269-4.484 4.112-7.126.92-2.884 1.09-5.99.702-8.998-.388-3.007-1.32-5.924-2.547-8.685-1.54-3.46-2.836-4.712-3.776-7.752-1.013-3.287-.176-7.176-.93-10.156a10.535 10.535 0 0 0-1.25-2.867c-.646-1.038-1.467-1.966-2.441-2.689-1.554-1.153-3.507-1.767-5.493-1.767Z" />
    </mask>
    <g filter="url(#g)" mask="url(#f)" opacity=".42">
      <path fill="url(#h)"
        d="M37.783 36.018c-.953.68-1.513.6-2.668.732-1.158.133-4.287.084-4.287.084s.452-.007 1.458.183c1.004.192 3.051.375 4.204.823 1.156.45 1.575.579 2.277 1.031.997.645 1.73 1.655 2.684 2.363 0 0 .046-.938-.34-1.638-.384-.701-1.42-1.805-1.725-2.837-.303-1.031-.45-3.057-.45-3.057s-.202 1.639-1.153 2.316Z" />
    </g>
    <mask id="i" width="34" height="59" x="15" y="9" maskUnits="userSpaceOnUse" style="mask-type:luminance">
      <path fill="#fff"
        d="M31.517 9.297c-1.375 0-2.755.276-4.002.966-1.325.729-2.412 1.896-3.079 3.275-.67 1.378-.93 2.85-.972 4.472-.075 3.08.07 6.311.296 9.24.06.89.17 1.41.057 2.327-.371 1.946-2.035 3.254-2.925 4.963-.979 1.885-1.391 4.015-2.13 6.013-.676 1.826-1.625 3.54-2.264 5.38-.897 2.571-1.165 5.398-.573 8.062.451 2.03 1.393 3.933 2.663 5.563-.183.337-.362.682-.55 1.017-.589 1.038-1.309 2.025-1.643 3.176-.168.575-.234 1.189-.126 1.78.107.59.4 1.155.86 1.53.3.244.664.404 1.038.493.373.086.76.108 1.146.1 1.46-.032 2.877-.485 4.289-.864a50.228 50.228 0 0 1 2.528-.605c3.012-.631 6.373-.378 9.168.035.946.148 1.886.337 2.817.57 1.458.36 2.909.82 4.408.864.394.012.793-.007 1.178-.093.386-.09.76-.249 1.066-.5.461-.375.755-.942.862-1.533.108-.59.041-1.207-.128-1.784-.34-1.153-1.066-2.135-1.667-3.17-.238-.41-.458-.827-.694-1.237 1.81-2.08 3.269-4.484 4.112-7.126.92-2.884 1.09-5.99.702-8.998-.388-3.007-1.32-5.924-2.547-8.685-1.54-3.46-2.836-4.712-3.776-7.752-1.013-3.287-.176-7.176-.93-10.156a10.535 10.535 0 0 0-1.25-2.867c-.646-1.038-1.467-1.966-2.441-2.689-1.554-1.153-3.507-1.767-5.493-1.767Z" />
    </mask>
    <g filter="url(#j)" mask="url(#i)" opacity=".2">
      <path fill="url(#k)"
        d="M28.819 34.57a14.17 14.17 0 0 1-.138.877 2.65 2.65 0 0 1-.11.422.957.957 0 0 1-.234.363 1.233 1.233 0 0 1-.32.2c-.445.206-.92.344-1.404.407.193.015.385.033.58.055.122.014.243.028.36.058.12.033.236.08.335.152a.942.942 0 0 1 .257.315c.126.239.167.515.19.79.03.346.032.698.007 1.045.023-.232.07-.464.142-.684.13-.404.337-.779.616-1.09.113-.122.234-.237.367-.333.41-.296.933-.425 1.43-.354a2.193 2.193 0 0 1-1.42-.453 1.872 1.872 0 0 1-.51-.586 1.673 1.673 0 0 1-.148-1.184Z" />
    </g>
    <mask id="l" width="34" height="59" x="15" y="9" maskUnits="userSpaceOnUse" style="mask-type:luminance">
      <path fill="#fff"
        d="M31.517 9.297c-1.375 0-2.755.276-4.002.966-1.325.729-2.412 1.896-3.079 3.275-.67 1.378-.93 2.85-.972 4.472-.075 3.08.07 6.311.296 9.24.06.89.17 1.41.057 2.327-.371 1.946-2.035 3.254-2.925 4.963-.979 1.885-1.391 4.015-2.13 6.013-.676 1.826-1.625 3.54-2.264 5.38-.897 2.571-1.165 5.398-.573 8.062.451 2.03 1.393 3.933 2.663 5.563-.183.337-.362.682-.55 1.017-.589 1.038-1.309 2.025-1.643 3.176-.168.575-.234 1.189-.126 1.78.107.59.4 1.155.86 1.53.3.244.664.404 1.038.493.373.086.76.108 1.146.1 1.46-.032 2.877-.485 4.289-.864a50.228 50.228 0 0 1 2.528-.605c3.012-.631 6.373-.378 9.168.035.946.148 1.886.337 2.817.57 1.458.36 2.909.82 4.408.864.394.012.793-.007 1.178-.093.386-.09.76-.249 1.066-.5.461-.375.755-.942.862-1.533.108-.59.041-1.207-.128-1.784-.34-1.153-1.066-2.135-1.667-3.17-.238-.41-.458-.827-.694-1.237 1.81-2.08 3.269-4.484 4.112-7.126.92-2.884 1.09-5.99.702-8.998-.388-3.007-1.32-5.924-2.547-8.685-1.54-3.46-2.836-4.712-3.776-7.752-1.013-3.287-.176-7.176-.93-10.156a10.535 10.535 0 0 0-1.25-2.867c-.646-1.038-1.467-1.966-2.441-2.689-1.554-1.153-3.507-1.767-5.493-1.767Z" />
    </mask>
    <g filter="url(#m)" mask="url(#l)" opacity=".11">
      <path fill="#000"
        d="M27.6 41.445a18.04 18.04 0 0 0-.498 2.886c-.126 1.376-.096 2.762-.17 4.142-.06 1.17-.194 2.354.005 3.51a6.02 6.02 0 0 0 .504 1.59 5.48 5.48 0 0 0 .083-.58c.085-.938-.069-1.878-.122-2.815-.091-1.646.131-3.292.223-4.937a30.83 30.83 0 0 0-.026-3.796Z" />
    </g>
    <mask id="n" width="34" height="59" x="15" y="9" maskUnits="userSpaceOnUse" style="mask-type:luminance">
      <path fill="#fff"
        d="M31.517 9.297c-1.375 0-2.755.276-4.002.966-1.325.729-2.412 1.896-3.079 3.275-.67 1.378-.93 2.85-.972 4.472-.075 3.08.07 6.311.296 9.24.06.89.17 1.41.057 2.327-.371 1.946-2.035 3.254-2.925 4.963-.979 1.885-1.391 4.015-2.13 6.013-.676 1.826-1.625 3.54-2.264 5.38-.897 2.571-1.165 5.398-.573 8.062.451 2.03 1.393 3.933 2.663 5.563-.183.337-.362.682-.55 1.017-.589 1.038-1.309 2.025-1.643 3.176-.168.575-.234 1.189-.126 1.78.107.59.4 1.155.86 1.53.3.244.664.404 1.038.493.373.086.76.108 1.146.1 1.46-.032 2.877-.485 4.289-.864a50.228 50.228 0 0 1 2.528-.605c3.012-.631 6.373-.378 9.168.035.946.148 1.886.337 2.817.57 1.458.36 2.909.82 4.408.864.394.012.793-.007 1.178-.093.386-.09.76-.249 1.066-.5.461-.375.755-.942.862-1.533.108-.59.041-1.207-.128-1.784-.34-1.153-1.066-2.135-1.667-3.17-.238-.41-.458-.827-.694-1.237 1.81-2.08 3.269-4.484 4.112-7.126.92-2.884 1.09-5.99.702-8.998-.388-3.007-1.32-5.924-2.547-8.685-1.54-3.46-2.836-4.712-3.776-7.752-1.013-3.287-.176-7.176-.93-10.156a10.535 10.535 0 0 0-1.25-2.867c-.646-1.038-1.467-1.966-2.441-2.689-1.554-1.153-3.507-1.767-5.493-1.767Z" />
    </mask>
    <g filter="url(#o)" mask="url(#n)" opacity=".75">
      <path fill="#7C7C7C"
        d="M43.7 40.06c.236-.037 1.682 1.222 1.485 1.69-.197.467-.57.186-.837.188-.266.005-.992.342-1.114.13-.123-.214.321-.711.553-1.128.188-.336-.321-.842-.087-.88Z" />
    </g>
    <mask id="p" width="34" height="59" x="15" y="9" maskUnits="userSpaceOnUse" style="mask-type:luminance">
      <path fill="#fff"
        d="M31.517 9.297c-1.375 0-2.755.276-4.002.966-1.325.729-2.412 1.896-3.079 3.275-.67 1.378-.93 2.85-.972 4.472-.075 3.08.07 6.311.296 9.24.06.89.17 1.41.057 2.327-.371 1.946-2.035 3.254-2.925 4.963-.979 1.885-1.391 4.015-2.13 6.013-.676 1.826-1.625 3.54-2.264 5.38-.897 2.571-1.165 5.398-.573 8.062.451 2.03 1.393 3.933 2.663 5.563-.183.337-.362.682-.55 1.017-.589 1.038-1.309 2.025-1.643 3.176-.168.575-.234 1.189-.126 1.78.107.59.4 1.155.86 1.53.3.244.664.404 1.038.493.373.086.76.108 1.146.1 1.46-.032 2.877-.485 4.289-.864a50.228 50.228 0 0 1 2.528-.605c3.012-.631 6.373-.378 9.168.035.946.148 1.886.337 2.817.57 1.458.36 2.909.82 4.408.864.394.012.793-.007 1.178-.093.386-.09.76-.249 1.066-.5.461-.375.755-.942.862-1.533.108-.59.041-1.207-.128-1.784-.34-1.153-1.066-2.135-1.667-3.17-.238-.41-.458-.827-.694-1.237 1.81-2.08 3.269-4.484 4.112-7.126.92-2.884 1.09-5.99.702-8.998-.388-3.007-1.32-5.924-2.547-8.685-1.54-3.46-2.836-4.712-3.776-7.752-1.013-3.287-.176-7.176-.93-10.156a10.535 10.535 0 0 0-1.25-2.867c-.646-1.038-1.467-1.966-2.441-2.689-1.554-1.153-3.507-1.767-5.493-1.767Z" />
    </mask>
    <g filter="url(#q)" mask="url(#p)">
      <path fill="#7C7C7C"
        d="M34.86 11.904c-.507.365-.287.822-.07 1.28.218.46-.478 1.779-.485 1.835-.007.056 1.37-.668 1.746-1.142.445-.555 1.566.755 1.504.556.003-.356-2.189-2.893-2.696-2.53Z" />
    </g>
    <mask id="r" width="34" height="59" x="15" y="9" maskUnits="userSpaceOnUse" style="mask-type:luminance">
      <path fill="#fff"
        d="M31.517 9.297c-1.375 0-2.755.276-4.002.966-1.325.729-2.412 1.896-3.079 3.275-.67 1.378-.93 2.85-.972 4.472-.075 3.08.07 6.311.296 9.24.06.89.17 1.41.057 2.327-.371 1.946-2.035 3.254-2.925 4.963-.979 1.885-1.391 4.015-2.13 6.013-.676 1.826-1.625 3.54-2.264 5.38-.897 2.571-1.165 5.398-.573 8.062.451 2.03 1.393 3.933 2.663 5.563-.183.337-.362.682-.55 1.017-.589 1.038-1.309 2.025-1.643 3.176-.168.575-.234 1.189-.126 1.78.107.59.4 1.155.86 1.53.3.244.664.404 1.038.493.373.086.76.108 1.146.1 1.46-.032 2.877-.485 4.289-.864a50.228 50.228 0 0 1 2.528-.605c3.012-.631 6.373-.378 9.168.035.946.148 1.886.337 2.817.57 1.458.36 2.909.82 4.408.864.394.012.793-.007 1.178-.093.386-.09.76-.249 1.066-.5.461-.375.755-.942.862-1.533.108-.59.041-1.207-.128-1.784-.34-1.153-1.066-2.135-1.667-3.17-.238-.41-.458-.827-.694-1.237 1.81-2.08 3.269-4.484 4.112-7.126.92-2.884 1.09-5.99.702-8.998-.388-3.007-1.32-5.924-2.547-8.685-1.54-3.46-2.836-4.712-3.776-7.752-1.013-3.287-.176-7.176-.93-10.156a10.535 10.535 0 0 0-1.25-2.867c-.646-1.038-1.467-1.966-2.441-2.689-1.554-1.153-3.507-1.767-5.493-1.767Z" />
    </mask>
    <g filter="url(#s)" mask="url(#r)">
      <path fill="#838384"
        d="M38.7 27.26c-.426.4.202.997.498 1.698.186.436.697 1.052 1.192.954.374-.075.603-.624.569-1.008-.07-.746-.684-.921-1.13-1.177-.354-.201-.828-.745-1.128-.466Z" />
    </g>
    <path fill="#020204"
      d="M21.676 32.952c-1.398 1.623-2.835 3.196-3.624 4.951-.392.891-.575 1.86-.843 2.797-.303 1.064-.716 2.096-1.179 3.1-.429.925-.9 1.83-1.37 2.733-.345.658-.693 1.329-.812 2.065a4.304 4.304 0 0 0 .105 1.751c.145.57.376 1.114.64 1.636 1.118 2.24 2.799 4.166 4.789 5.643a16.935 16.935 0 0 0 2.883 1.723c.55.255 1.128.485 1.733.495a2.05 2.05 0 0 0 .885-.17c.275-.123.523-.323.688-.583.202-.319.27-.715.23-1.092a2.667 2.667 0 0 0-.379-1.062c-.472-.793-1.217-1.367-1.935-1.934a65.31 65.31 0 0 1-4.481-3.887c-.404-.387-.81-.783-1.091-1.27-.276-.474-.425-1.013-.525-1.555-.278-1.484-.207-3.045.286-4.47.195-.558.45-1.09.697-1.625.426-.926.83-1.87 1.392-2.72.699-1.056 1.634-1.952 2.202-3.087.482-.958.677-2.034.862-3.094.147-.83.424-1.641.567-2.47-.278.538-1.172 1.422-1.72 2.125Z" />
    <mask id="t" width="13" height="30" x="13" y="30" maskUnits="userSpaceOnUse" style="mask-type:luminance">
      <path fill="#fff"
        d="M21.678 32.952c-1.398 1.623-2.835 3.196-3.624 4.951-.392.891-.575 1.86-.843 2.797-.303 1.064-.716 2.096-1.179 3.1-.428.925-.9 1.83-1.37 2.733-.344.658-.693 1.329-.812 2.065a4.304 4.304 0 0 0 .106 1.751c.144.57.375 1.114.64 1.636 1.118 2.24 2.798 4.166 4.788 5.643a16.935 16.935 0 0 0 2.884 1.723c.55.255 1.127.485 1.733.495a2.05 2.05 0 0 0 .884-.17c.276-.123.523-.323.688-.583.202-.319.27-.715.23-1.092a2.667 2.667 0 0 0-.379-1.062c-.472-.793-1.217-1.367-1.934-1.934a65.31 65.31 0 0 1-4.482-3.887c-.404-.387-.81-.783-1.091-1.27-.275-.474-.424-1.013-.525-1.555-.278-1.484-.207-3.045.286-4.47.195-.558.45-1.09.697-1.625.427-.926.83-1.87 1.392-2.72.699-1.056 1.634-1.952 2.203-3.087.481-.958.676-2.034.862-3.094.146-.83.424-1.641.566-2.47-.278.538-1.172 1.422-1.72 2.125Z" />
    </mask>
    <g filter="url(#u)" mask="url(#t)" opacity=".95">
      <path fill="#7C7C7C"
        d="M20.068 38.858c-.458.431-.855.93-1.176 1.48-.527.9-.837 1.912-1.222 2.885-.284.724-.616 1.453-.655 2.234-.02.401.036.802.05 1.203.014.4-.023.818-.215 1.167-.16.293-.429.523-.738.635.42.143.79.42 1.054.781.22.305.362.659.552.98.156.263.347.506.583.696.234.192.516.328.811.366.41.054.837-.084 1.14-.37a27.913 27.913 0 0 1 1.017-10.87c.067-.221.136-.444.154-.674.016-.232-.027-.475-.165-.658a.673.673 0 0 0-.635-.274.69.69 0 0 0-.555.42Z" />
    </g>
    <path fill="#020204"
      d="M44.32 39.097c1.202.99 1.965 2.482 2.201 4.041.184 1.215.064 2.464-.204 3.662-.268 1.2-.68 2.358-1.093 3.516-.163.46-.328.926-.392 1.412-.067.487-.025 1 .204 1.432.263.495.754.835 1.281.994.52.16 1.082.155 1.61.021.527-.134 1.414-.307 1.843-.65 1.088-.864 1.347-2.367 1.606-3.684.269-1.377.138-2.818-.098-4.209-.323-1.896-.867-3.748-1.557-5.537a19.435 19.435 0 0 0-1.934-3.741c-.761-1.146-1.839-2.04-2.637-3.16-.277-.39-.61-.792-.88-1.186-.587-.849-.454-.69-.818-1.24-.264-.399-.681-.535-1.119-.708-.44-.174-.93-.225-1.384-.096-.596.17-1.085.654-1.344 1.228-.259.577-.305 1.238-.204 1.864.13.806.49 1.556.899 2.26.458.794.99 1.56 1.685 2.151.724.617 1.6 1.025 2.336 1.63Z" />
    <mask id="v" width="13" height="26" x="39" y="29" maskUnits="userSpaceOnUse" style="mask-type:luminance">
      <path fill="#fff"
        d="M44.325 39.097c1.2.99 1.964 2.482 2.2 4.041.184 1.215.064 2.464-.204 3.662-.268 1.2-.68 2.358-1.093 3.516-.163.46-.328.926-.392 1.412-.067.487-.026 1 .204 1.432.263.495.754.835 1.281.994.52.16 1.082.155 1.61.021.527-.134 1.414-.307 1.843-.65 1.088-.864 1.347-2.367 1.606-3.684.269-1.377.138-2.818-.098-4.209-.323-1.896-.867-3.748-1.557-5.537a19.44 19.44 0 0 0-1.934-3.741c-.761-1.146-1.839-2.04-2.637-3.16-.277-.39-.61-.792-.88-1.186-.587-.849-.454-.69-.818-1.24-.264-.399-.681-.535-1.119-.708-.44-.174-.93-.225-1.385-.096-.596.17-1.084.654-1.343 1.228-.259.577-.305 1.238-.204 1.864.13.806.49 1.556.899 2.26.458.794.99 1.56 1.685 2.151.724.617 1.6 1.025 2.336 1.63Z" />
    </mask>
    <g filter="url(#w)" mask="url(#v)">
      <path fill="#838384"
        d="M41.494 37.19c.096.094.197.19.3.28.739.616 1.13 1.308 1.88 1.912 1.224.99 2.465 2.696 2.705 4.255.188 1.217-.06 1.878-.362 3.31-.303 1.435-1.16 3.465-1.625 4.848-.184.551.376.324.302.905a3.484 3.484 0 0 0-.007.86c.005-.054.007-.112.014-.166.09-.792.326-1.554.585-2.302.497-1.437 1.068-2.849 1.462-4.325.395-1.475.351-2.537.145-3.805-.26-1.597-1.167-3.069-2.45-4.042-.91-.686-1.981-1.127-2.949-1.73Z" />
    </g>
    <path fill="url(#x)"
      d="M26.361 18.27c-.35.02-.688.186-.944.432-.26.246-.44.57-.553.91-.222.684-.172 1.425-.121 2.144.046.65.094 1.313.332 1.918.12.305.287.588.509.823.222.232.504.412.814.49.289.075.6.06.885-.03.286-.095.545-.261.76-.474.312-.312.521-.72.643-1.149.121-.429.155-.88.148-1.327a5.716 5.716 0 0 0-.25-1.648 3.762 3.762 0 0 0-.825-1.432 2.31 2.31 0 0 0-.63-.483 1.545 1.545 0 0 0-.768-.174Z" />
    <path fill="#020204"
      d="M25.512 21.25c-.074.456-.076.931.075 1.363.101.286.268.546.47.769.13.145.282.276.456.363a.842.842 0 0 0 .569.075.834.834 0 0 0 .438-.302c.112-.143.188-.315.24-.49.159-.518.133-1.083-.025-1.601-.112-.378-.302-.741-.596-.994a1.174 1.174 0 0 0-.486-.26.825.825 0 0 0-.54.044.944.944 0 0 0-.425.436 2.063 2.063 0 0 0-.176.598Z" />
    <mask id="y" width="3" height="4" x="25" y="20" maskUnits="userSpaceOnUse" style="mask-type:luminance">
      <path fill="#fff"
        d="M25.51 21.25c-.074.456-.076.931.075 1.363.101.286.268.546.47.769.13.145.282.276.456.363a.842.842 0 0 0 .569.075.834.834 0 0 0 .438-.302c.112-.143.188-.315.24-.49.159-.518.133-1.083-.025-1.601-.112-.378-.302-.741-.596-.994a1.173 1.173 0 0 0-.486-.26.825.825 0 0 0-.54.044.943.943 0 0 0-.425.436 2.06 2.06 0 0 0-.176.598Z" />
    </mask>
    <g filter="url(#z)" mask="url(#y)">
      <path fill="url(#A)"
        d="M26.448 20.922c.048.13.209.176.298.28.085.098.174.203.222.327.09.237-.09.589.099.758.057.051.176.053.234 0 .227-.211.176-.636.087-.936a1.134 1.134 0 0 0-.53-.656c-.114-.061-.286-.11-.385-.026-.062.056-.055.174-.025.253Z" />
    </g>
    <mask id="B" width="5" height="8" x="24" y="18" maskUnits="userSpaceOnUse" style="mask-type:luminance">
      <path fill="#fff"
        d="M26.359 18.271c-.35.02-.688.186-.944.432-.26.246-.44.57-.553.91-.222.684-.172 1.425-.121 2.144.046.65.094 1.313.332 1.918.12.305.287.588.509.823.222.232.504.412.814.49.289.075.6.06.885-.03.286-.095.545-.261.76-.474.312-.312.521-.72.642-1.15.122-.428.156-.878.15-1.326a5.716 5.716 0 0 0-.25-1.648 3.764 3.764 0 0 0-.826-1.432 2.314 2.314 0 0 0-.63-.483 1.546 1.546 0 0 0-.768-.174Z" />
    </mask>
    <g mask="url(#B)">
      <path fill="url(#C)"
        d="M25.601 19.72c.532-.324 1.176-.399 1.793-.34.614.06 1.208.244 1.804.41.438.122.88.235 1.29.431.409.197.79.488 1.016.891.037.064.067.132.106.195a.616.616 0 0 0 .142.166c.057.045.13.075.201.07a.223.223 0 0 0 .104-.03.193.193 0 0 0 .075-.08.256.256 0 0 0 .023-.124.611.611 0 0 0-.023-.127c-.149-.555-.502-1.026-.768-1.535-.16-.305-.293-.623-.454-.928-.557-1.043-1.471-1.862-2.51-2.394-1.038-.532-2.198-.787-3.358-.855-1.343-.082-2.689.082-4.014.32-.575.104-1.16.226-1.666.519a2.244 2.244 0 0 0-.67.567 1.716 1.716 0 0 0-.355.807c-.04.286.002.579.1.848.097.27.248.516.427.739.353.447.81.794 1.229 1.179.42.382.807.806 1.277 1.123.233.16.488.29.758.368.27.077.56.098.835.04.284-.059.55-.202.781-.385.232-.18.431-.398.622-.623.38-.453.736-.948 1.235-1.252Z" />
    </g>
    <g filter="url(#D)">
      <path fill="url(#E)"
        d="M27.809 17.87a4.8 4.8 0 0 1 1.112 1.678c-.11-.682-.282-1.233-.718-1.678a3.353 3.353 0 0 0-.912-.638c-.303-.138-.635-.225-.828-.227-.19-.005-.236 0-.275.002-.041.003-.07.003.053.019.124.014.401.091.7.227.297.136.6.361.868.617Z" />
    </g>
    <path fill="url(#F)"
      d="M32.588 18.271c-.548.387-1.008.924-1.233 1.566-.284.809-.177 1.714.099 2.525.28.832.75 1.625 1.457 2.124.353.25.764.422 1.19.473a2.15 2.15 0 0 0 1.254-.222c.463-.249.819-.682 1.039-1.168.22-.487.314-1.024.343-1.561.037-.68-.027-1.374-.247-2.018-.239-.701-.67-1.348-1.28-1.752a2.458 2.458 0 0 0-1.008-.391 2.11 2.11 0 0 0-1.07.122 2.75 2.75 0 0 0-.544.302Z" />
    <path fill="#020204"
      d="M33.859 19.968a1.256 1.256 0 0 0-.585.2 1.532 1.532 0 0 0-.44.44c-.236.35-.34.776-.355 1.2-.012.317.023.638.126.938.103.3.275.579.516.78.245.21.554.333.873.35.319.014.64-.08.9-.265.21-.148.377-.352.496-.582.12-.227.193-.48.225-.738a2.325 2.325 0 0 0-.214-1.334 1.832 1.832 0 0 0-.972-.9 1.364 1.364 0 0 0-.57-.09Z" />
    <mask id="G" width="4" height="5" x="32" y="19" maskUnits="userSpaceOnUse" style="mask-type:luminance">
      <path fill="#fff"
        d="M33.863 19.968a1.256 1.256 0 0 0-.585.2 1.532 1.532 0 0 0-.44.44c-.236.35-.34.776-.355 1.2-.012.317.023.638.126.938.103.3.275.579.515.78.246.21.555.333.874.35.319.014.64-.08.9-.265.21-.148.377-.352.496-.582.12-.227.192-.48.224-.738a2.324 2.324 0 0 0-.213-1.334 1.833 1.833 0 0 0-.972-.9 1.364 1.364 0 0 0-.57-.09Z" />
    </mask>
    <g filter="url(#H)" mask="url(#G)">
      <path fill="url(#I)"
        d="M35.136 21.806c.23-.234-.163-.856-.47-1.111-.222-.183-.866-.378-.839-.176.028.2.319.457.511.654.24.242.688.746.798.633Z" />
    </g>
    <mask id="J" width="6" height="8" x="31" y="17" maskUnits="userSpaceOnUse" style="mask-type:luminance">
      <path fill="#fff"
        d="M32.588 18.271c-.548.387-1.008.924-1.233 1.566-.284.809-.177 1.714.098 2.525.28.832.75 1.625 1.458 2.124.353.25.764.422 1.19.473a2.15 2.15 0 0 0 1.254-.222c.463-.249.819-.682 1.039-1.168.22-.487.314-1.024.343-1.561.037-.68-.027-1.374-.247-2.018-.239-.701-.67-1.348-1.28-1.752a2.457 2.457 0 0 0-1.008-.391 2.11 2.11 0 0 0-1.07.122 2.755 2.755 0 0 0-.544.302Z" />
    </mask>
    <g mask="url(#J)">
      <path fill="url(#K)"
        d="M30.516 20.318c.472-.401 1.02-.706 1.604-.891 1.204-.38 2.568-.23 3.631.462.367.236.695.532 1.037.809.339.274.701.532 1.111.68.223.079.459.126.693.1.21-.021.415-.103.589-.225.174-.124.32-.288.43-.474.22-.37.292-.82.253-1.251-.076-.865-.553-1.627-.951-2.394-.127-.239-.246-.483-.397-.705-.46-.687-1.199-1.14-1.971-1.405-.773-.264-1.59-.36-2.398-.464-.362-.047-.727-.096-1.087-.051-.415.051-.805.222-1.21.328-.193.051-.388.087-.578.143-.19.056-.378.133-.534.26-.225.185-.367.464-.429.753-.062.29-.048.59-.002.883.09.586.305 1.156.284 1.75-.014.405-.14.806-.124 1.211.005.12.028.364.049.48Z" />
    </g>
    <g filter="url(#L)">
      <path fill="url(#M)"
        d="M34.498 16.606a2.05 2.05 0 0 0-.246.399c.424.094.828.272 1.19.518.702.476 1.233 1.17 1.607 1.943.087-.098.165-.204.234-.32-.376-.807-.917-1.536-1.642-2.029a3.504 3.504 0 0 0-1.143-.51Z" />
    </g>
    <mask id="N" width="34" height="59" x="15" y="9" maskUnits="userSpaceOnUse" style="mask-type:luminance">
      <path fill="#fff"
        d="M31.515 9.297c-1.375 0-2.755.276-4.002.966-1.325.729-2.412 1.896-3.079 3.275-.669 1.378-.93 2.85-.972 4.472-.075 3.08.07 6.311.296 9.24.06.89.17 1.41.057 2.327-.371 1.946-2.035 3.254-2.925 4.963-.979 1.885-1.391 4.015-2.13 6.013-.676 1.826-1.625 3.54-2.264 5.38-.896 2.571-1.165 5.398-.573 8.062.451 2.03 1.394 3.933 2.664 5.563-.184.337-.363.682-.55 1.017-.59 1.038-1.31 2.025-1.644 3.176-.168.575-.234 1.189-.126 1.78.107.59.4 1.155.86 1.53.3.244.664.404 1.038.493.373.086.76.108 1.146.1 1.46-.032 2.877-.485 4.289-.864a50.206 50.206 0 0 1 2.528-.605c3.013-.631 6.373-.378 9.168.035.946.148 1.886.337 2.817.57 1.458.36 2.909.82 4.408.864.394.012.793-.007 1.178-.093.386-.09.76-.249 1.066-.5.461-.375.755-.942.862-1.533.108-.59.042-1.207-.128-1.784-.34-1.153-1.066-2.135-1.667-3.17-.238-.41-.458-.827-.694-1.237 1.81-2.08 3.269-4.484 4.112-7.126.92-2.884 1.09-5.99.702-8.998-.388-3.007-1.32-5.924-2.547-8.685-1.54-3.46-2.836-4.712-3.776-7.752-1.013-3.287-.176-7.176-.93-10.156a10.537 10.537 0 0 0-1.25-2.867c-.646-1.038-1.467-1.966-2.441-2.689-1.554-1.153-3.507-1.767-5.493-1.767Z" />
    </mask>
    <g filter="url(#O)" mask="url(#N)">
      <path fill="#000" fill-opacity=".259"
        d="M25.597 30.238c.337.998 1.013 1.85 1.816 2.513.265.222.547.426.861.57.312.145.658.227 1 .196.335-.028.653-.164.947-.333.293-.168.564-.372.848-.555.486-.317 1.006-.572 1.513-.854.607-.34 1.199-.726 1.71-1.204.236-.219.454-.458.713-.645.259-.19.57-.326.887-.303.238.017.46.12.695.171a.955.955 0 0 0 .355.02.54.54 0 0 0 .314-.158.57.57 0 0 0 .14-.412.997.997 0 0 0-.124-.425c-.135-.265-.341-.492-.433-.776-.083-.253-.067-.525-.06-.79.007-.267.002-.544-.117-.78a1.005 1.005 0 0 0-.42-.415 1.461 1.461 0 0 0-.568-.164c-.394-.038-.788.042-1.185.063-.522.03-1.05-.035-1.575-.005-.653.042-1.295.235-1.95.237-.748.002-1.495-.248-2.233-.129-.319.052-.622.169-.924.272-.305.105-.62.197-.94.192-.364-.007-.718-.136-1.082-.162-.181-.013-.367 0-.539.066a.759.759 0 0 0-.408.352.749.749 0 0 0-.075.307c-.005.108.009.213.034.319.05.206.144.4.22.598.275.72.335 1.505.58 2.234Z" />
    </g>
    <mask id="P" width="34" height="59" x="15" y="9" maskUnits="userSpaceOnUse" style="mask-type:luminance">
      <path fill="#fff"
        d="M31.515 9.297c-1.375 0-2.755.276-4.002.966-1.325.729-2.412 1.896-3.079 3.275-.669 1.378-.93 2.85-.972 4.472-.075 3.08.07 6.311.296 9.24.06.89.17 1.41.057 2.327-.371 1.946-2.035 3.254-2.925 4.963-.979 1.885-1.391 4.015-2.13 6.013-.676 1.826-1.625 3.54-2.264 5.38-.896 2.571-1.165 5.398-.573 8.062.451 2.03 1.394 3.933 2.664 5.563-.184.337-.363.682-.55 1.017-.59 1.038-1.31 2.025-1.644 3.176-.168.575-.234 1.189-.126 1.78.107.59.4 1.155.86 1.53.3.244.664.404 1.038.493.373.086.76.108 1.146.1 1.46-.032 2.877-.485 4.289-.864a50.206 50.206 0 0 1 2.528-.605c3.013-.631 6.373-.378 9.168.035.946.148 1.886.337 2.817.57 1.458.36 2.909.82 4.408.864.394.012.793-.007 1.178-.093.386-.09.76-.249 1.066-.5.461-.375.755-.942.862-1.533.108-.59.042-1.207-.128-1.784-.34-1.153-1.066-2.135-1.667-3.17-.238-.41-.458-.827-.694-1.237 1.81-2.08 3.269-4.484 4.112-7.126.92-2.884 1.09-5.99.702-8.998-.388-3.007-1.32-5.924-2.547-8.685-1.54-3.46-2.836-4.712-3.776-7.752-1.013-3.287-.176-7.176-.93-10.156a10.537 10.537 0 0 0-1.25-2.867c-.646-1.038-1.467-1.966-2.441-2.689-1.554-1.153-3.507-1.767-5.493-1.767Z" />
    </mask>
    <g filter="url(#Q)" mask="url(#P)" opacity=".3">
      <path fill="#000"
        d="M24.66 27.394c.652.413 1.24.921 1.732 1.498.456.537.844 1.146 1.442 1.543.42.28.926.438 1.44.487.603.056 1.212-.035 1.795-.197a6.472 6.472 0 0 0 1.536-.635c.91-.527 1.668-1.301 2.67-1.648.218-.077.445-.131.656-.225.21-.091.41-.232.51-.43.097-.191.093-.41.125-.618.034-.225.11-.44.151-.663.041-.223.046-.46-.055-.664a.903.903 0 0 0-.415-.389 1.5 1.5 0 0 0-.575-.131c-.395-.019-.787.077-1.183.11-.523.045-1.05-.019-1.575-.002-.653.018-1.298.157-1.95.187-.746.033-1.489-.08-2.234-.103a4.724 4.724 0 0 0-.965.047c-.318.051-.63.152-.898.321-.262.162-.475.384-.713.574-.12.096-.248.183-.385.251-.14.066-.294.113-.45.12-.08.002-.162-.003-.24.01a.515.515 0 0 0-.337.194.461.461 0 0 0-.083.363Z" />
    </g>
    <path fill="url(#R)"
      d="M28.017 23.018c.35-.401.589-.891.924-1.304.167-.206.362-.396.589-.53a1.28 1.28 0 0 1 .754-.185c.291.026.564.174.777.378.213.204.371.462.497.731.122.26.218.535.392.76.186.239.445.4.681.59.117.094.232.195.324.315.093.12.165.258.197.407a.885.885 0 0 1-.037.458c-.053.145-.14.276-.25.384-.218.216-.516.333-.816.375-.6.087-1.208-.096-1.816-.08-.612.02-1.212.24-1.827.218-.304-.011-.616-.089-.868-.267a1.164 1.164 0 0 1-.317-.34.976.976 0 0 1-.133-.445c-.004-.15.03-.3.09-.436.057-.138.14-.263.231-.38.186-.232.413-.424.608-.65Z" />
    <path fill="url(#S)"
      d="M24.688 26.89a.637.637 0 0 0 .064.171.78.78 0 0 0 .213.223c.082.063.172.115.259.169.46.297.837.713 1.171 1.153.447.59.844 1.245 1.442 1.674.422.305.926.476 1.44.53.603.06 1.213-.038 1.795-.213a6.185 6.185 0 0 0 1.536-.692c.91-.572 1.669-1.411 2.67-1.789.218-.082.445-.14.656-.241.21-.103.41-.253.511-.47.096-.205.092-.445.124-.672.034-.241.11-.476.151-.717.041-.242.046-.5-.055-.722a.92.92 0 0 0-.415-.42 1.36 1.36 0 0 0-.575-.145c-.394-.019-.786.084-1.183.122-.523.049-1.05-.021-1.575-.005-.653.021-1.297.171-1.95.204-.746.035-1.488-.082-2.233-.113a4.453 4.453 0 0 0-.968.047c-.318.054-.63.167-.896.354-.26.183-.465.432-.704.643a1.8 1.8 0 0 1-.39.272.957.957 0 0 1-.453.11c-.08-.003-.166-.014-.241.01a.356.356 0 0 0-.129.081.78.78 0 0 0-.093.122 1.964 1.964 0 0 0-.172.314Z" />
    <mask id="T" width="13" height="7" x="24" y="24" maskUnits="userSpaceOnUse" style="mask-type:luminance">
      <path fill="#fff"
        d="M24.688 26.89a.64.64 0 0 0 .064.171.78.78 0 0 0 .213.223c.082.063.172.115.259.169.46.297.837.713 1.171 1.153.447.59.844 1.245 1.442 1.674.422.305.926.476 1.44.53.603.06 1.212-.038 1.795-.213a6.187 6.187 0 0 0 1.536-.692c.91-.572 1.669-1.411 2.67-1.789.218-.082.445-.14.656-.241.21-.103.41-.253.511-.47.096-.205.092-.445.124-.672.034-.241.11-.476.151-.717.041-.242.046-.5-.055-.722a.921.921 0 0 0-.415-.42 1.359 1.359 0 0 0-.575-.145c-.394-.019-.786.084-1.183.122-.523.049-1.05-.021-1.575-.005-.653.021-1.297.171-1.95.204-.746.035-1.488-.082-2.233-.113a4.451 4.451 0 0 0-.968.047c-.318.054-.63.167-.896.354-.26.183-.466.432-.704.643-.12.105-.247.201-.39.272a.958.958 0 0 1-.453.11c-.08-.003-.166-.014-.241.01a.356.356 0 0 0-.129.081.78.78 0 0 0-.094.122 1.964 1.964 0 0 0-.172.314Z" />
    </mask>
    <g filter="url(#U)" mask="url(#T)">
      <path fill="#D9B30D"
        d="M27.612 27.713a1.38 1.38 0 0 0 .128.963c.156.291.422.516.731.622.39.133.83.068 1.195-.127.213-.112.405-.272.527-.483a.9.9 0 0 0 .121-.342.805.805 0 0 0-.036-.361.81.81 0 0 0-.227-.321c-.101-.087-.218-.15-.344-.192a3.431 3.431 0 0 0-.896-.16c-.463-.01-1.124.08-1.2.401Z" />
    </g>
    <mask id="V" width="13" height="7" x="24" y="24" maskUnits="userSpaceOnUse" style="mask-type:luminance">
      <path fill="#fff"
        d="M24.695 26.89a.64.64 0 0 0 .064.171.78.78 0 0 0 .214.223c.082.063.172.115.259.169.46.297.836.713 1.171 1.153.447.59.844 1.245 1.442 1.674.422.305.926.476 1.44.53.602.06 1.212-.038 1.795-.213a6.187 6.187 0 0 0 1.535-.692c.91-.572 1.67-1.411 2.671-1.789.218-.082.445-.14.656-.241.21-.103.41-.253.51-.47.097-.205.093-.445.125-.672.034-.241.11-.476.151-.717.041-.242.046-.5-.055-.722a.92.92 0 0 0-.415-.42 1.359 1.359 0 0 0-.575-.145c-.395-.019-.787.084-1.183.122-.523.049-1.05-.021-1.575-.005-.653.021-1.298.171-1.95.204-.746.035-1.489-.082-2.234-.113a4.452 4.452 0 0 0-.967.047c-.319.054-.63.167-.896.354-.26.183-.466.432-.704.643-.12.105-.248.201-.39.272a.957.957 0 0 1-.454.11c-.08-.003-.165-.014-.24.01a.356.356 0 0 0-.129.081.786.786 0 0 0-.094.122 1.98 1.98 0 0 0-.172.314Z" />
    </mask>
    <g filter="url(#W)" mask="url(#V)">
      <path fill="#604405"
        d="M26.337 25.205c-.265.16-.52.336-.77.516-.13.096-.263.197-.332.345a.83.83 0 0 0-.062.335c0 .117.007.232-.01.347-.008.077-.029.154-.031.232-.003.04 0 .08.009.117.011.038.03.075.055.103.034.038.08.061.128.075.048.014.096.021.147.033.232.056.433.202.61.366.176.162.337.347.522.5.5.416 1.163.59 1.81.6.645.011 1.285-.127 1.915-.273.496-.115.99-.232 1.465-.412a6.424 6.424 0 0 0 2-1.217c.267-.237.517-.497.818-.69.263-.17.559-.283.83-.445a.512.512 0 0 0 .068-.046.247.247 0 0 0 .055-.066.212.212 0 0 0 .007-.145.42.42 0 0 0-.07-.13 1.078 1.078 0 0 0-.113-.117c-.282-.246-.663-.335-1.034-.365-.37-.028-.743-.007-1.107-.07-.344-.06-.67-.19-1.002-.298a6.89 6.89 0 0 0-3.629-.202c-.8.171-1.575.48-2.279.907Z" />
    </g>
    <path fill="url(#X)"
      d="M26.25 24.288a4.8 4.8 0 0 0-1.016.947 2.274 2.274 0 0 0-.4.69c-.066.201-.089.412-.13.62-.016.078-.034.156-.032.235 0 .038.005.078.016.117a.274.274 0 0 0 .057.101.338.338 0 0 0 .17.087c.064.012.128.014.193.021.286.035.55.176.788.345.239.166.459.363.704.52.539.35 1.183.504 1.822.53.638.026 1.275-.073 1.903-.202.498-.1.993-.222 1.465-.412.724-.293 1.378-.741 1.999-1.217.284-.216.564-.438.818-.69a4.49 4.49 0 0 1 .261-.252.945.945 0 0 1 .31-.183c.174-.056.362-.04.543-.01.136.024.27.054.408.05a.66.66 0 0 0 .202-.043.395.395 0 0 0 .255-.377.535.535 0 0 0-.074-.265c-.092-.16-.25-.267-.415-.342-.227-.103-.472-.152-.713-.213-.74-.183-1.46-.453-2.14-.8-.34-.17-.67-.36-1.002-.544-.344-.187-.693-.368-1.064-.485-.835-.258-1.742-.173-2.565.12-.913.323-1.738.9-2.364 1.652Z" />
    <mask id="Y" width="13" height="7" x="24" y="22" maskUnits="userSpaceOnUse" style="mask-type:luminance">
      <path fill="#fff"
        d="M26.251 24.288c-.38.263-.724.584-1.015.947a2.27 2.27 0 0 0-.4.69c-.066.201-.089.412-.13.62-.016.078-.034.156-.032.235 0 .038.005.078.016.117a.272.272 0 0 0 .057.101.337.337 0 0 0 .17.087c.064.012.128.014.193.021.286.035.55.176.788.345.239.166.459.363.704.52.539.35 1.183.504 1.822.53.638.026 1.275-.073 1.903-.202a8.36 8.36 0 0 0 1.465-.412c.724-.293 1.378-.741 1.999-1.217.284-.216.564-.438.818-.69a4.46 4.46 0 0 1 .261-.252.945.945 0 0 1 .31-.183c.174-.056.362-.04.543-.01.136.024.27.054.408.05a.66.66 0 0 0 .202-.043.396.396 0 0 0 .255-.377.534.534 0 0 0-.074-.265c-.092-.16-.25-.267-.415-.342-.227-.103-.472-.152-.713-.213-.74-.183-1.46-.453-2.14-.8-.34-.17-.67-.36-1.003-.544-.343-.187-.692-.368-1.063-.485-.835-.258-1.742-.173-2.565.12-.913.323-1.738.9-2.364 1.652Z" />
    </mask>
    <g filter="url(#Z)" mask="url(#Y)">
      <path fill="#F6DA4A"
        d="M32.098 24.476a.376.376 0 0 0-.179-.12.468.468 0 0 0-.213-.01c-.142.026-.27.104-.39.188-.337.237-.635.53-.896.854-.344.429-.628.923-.725 1.47a1.04 1.04 0 0 0-.016.278.42.42 0 0 0 .113.251.365.365 0 0 0 .21.106c.08.011.163 0 .24-.026.15-.052.276-.162.398-.27.658-.604 1.254-1.326 1.492-2.199a1.05 1.05 0 0 0 .044-.267.42.42 0 0 0-.078-.255Z" />
    </g>
    <g filter="url(#aa)" opacity=".8">
      <path fill="url(#ab)"
        d="M28.263 23.142c-.177-.059-.466.258-.372.42.026.044.106.1.16.07.081-.045.148-.209.235-.272.057-.042.045-.197-.023-.218Z" />
    </g>
    <g filter="url(#ac)" opacity=".8">
      <path fill="url(#ad)"
        d="M30.518 23.227c.046.15.282.124.42.197.119.063.215.201.35.206.129.002.33-.047.346-.178.021-.171-.224-.282-.382-.345-.204-.08-.466-.122-.656-.014-.044.026-.092.084-.078.134Z" />
    </g>
    <mask id="ae" width="13" height="9" x="24" y="22" maskUnits="userSpaceOnUse" style="mask-type:luminance">
      <path fill="#fff"
        d="M24.691 26.89a.64.64 0 0 0 .065.171.78.78 0 0 0 .213.223c.082.063.172.115.259.169.46.297.836.713 1.171 1.153.447.59.844 1.245 1.442 1.674.422.305.926.476 1.44.53.603.06 1.212-.038 1.795-.213a6.187 6.187 0 0 0 1.536-.692c.91-.572 1.668-1.411 2.67-1.789.218-.082.445-.14.656-.241.21-.103.41-.253.511-.47.096-.205.092-.445.124-.672.034-.241.11-.476.151-.717.041-.242.046-.5-.055-.722a.92.92 0 0 0-.415-.42 1.359 1.359 0 0 0-.575-.145c-.395-.019-.787.084-1.183.122-.523.049-1.05-.021-1.575-.005-.653.021-1.297.171-1.95.204-.746.035-1.488-.082-2.234-.113a4.451 4.451 0 0 0-.967.047c-.319.054-.63.167-.896.354-.26.183-.466.432-.704.643-.12.105-.248.201-.39.272a.958.958 0 0 1-.454.11c-.08-.003-.165-.014-.24.01a.356.356 0 0 0-.129.081.78.78 0 0 0-.094.122 1.972 1.972 0 0 0-.172.314Z" />
      <path fill="#fff"
        d="M26.25 24.288a4.8 4.8 0 0 0-1.016.947 2.274 2.274 0 0 0-.4.69c-.066.201-.089.412-.13.62-.016.078-.034.156-.032.235 0 .038.005.078.016.117a.274.274 0 0 0 .057.101.338.338 0 0 0 .17.087c.064.012.128.014.193.021.286.035.55.176.788.345.239.166.459.363.704.52.539.35 1.183.504 1.822.53.638.026 1.275-.073 1.903-.202.498-.1.993-.222 1.465-.412.724-.293 1.378-.741 1.999-1.217.284-.216.564-.438.818-.69a4.49 4.49 0 0 1 .261-.252.945.945 0 0 1 .31-.183c.174-.056.362-.04.543-.01.136.024.27.054.408.05a.66.66 0 0 0 .202-.043.395.395 0 0 0 .255-.377.535.535 0 0 0-.074-.265c-.092-.16-.25-.267-.415-.342-.227-.103-.472-.152-.713-.213-.74-.183-1.46-.453-2.14-.8-.34-.17-.67-.36-1.002-.544-.344-.187-.693-.368-1.064-.485-.835-.258-1.742-.173-2.565.12-.913.323-1.738.9-2.364 1.652Z" />
    </mask>
    <g filter="url(#af)" mask="url(#ae)">
      <path fill="url(#ag)"
        d="M36.641 25.507a.913.913 0 0 1-.222.505.579.579 0 0 1-.422.208.45.45 0 0 1-.376-.209.756.756 0 0 1-.11-.504.946.946 0 0 1 .073-.274.866.866 0 0 1 .148-.232.674.674 0 0 1 .201-.155.498.498 0 0 1 .222-.054c.074 0 .146.018.21.054a.49.49 0 0 1 .167.155.66.66 0 0 1 .097.232c.018.087.023.18.012.274Z" />
    </g>
  </g>
  <path fill="#A00"
    d="M12.422 51c-.504 0-.997-.075-1.477-.225a4.302 4.302 0 0 1-1.326-.683c-.397-.3-.73-.681-.996-1.142l1.45-.744c.237.455.572.787 1.005.994.44.208.89.312 1.353.312.61 0 1.118-.11 1.521-.329.404-.213.7-.533.89-.96.196-.427.29-.957.285-1.592v-2.552h.187v-6.835h1.405v9.404c0 .254-.009.5-.026.736-.012.236-.042.47-.09.7-.124.664-.37 1.209-.738 1.636a3.268 3.268 0 0 1-1.423.96c-.582.213-1.255.32-2.02.32Zm-.116-4.153c-.895 0-1.663-.216-2.304-.648a4.335 4.335 0 0 1-1.486-1.774C8.172 43.68 8 42.842 8 41.907c0-.934.172-1.773.516-2.517.35-.744.845-1.33 1.486-1.756.64-.433 1.406-.65 2.295-.65.908 0 1.67.214 2.287.64.617.428 1.082 1.013 1.397 1.757.32.744.48 1.586.48 2.526 0 .929-.16 1.768-.48 2.518-.315.744-.78 1.335-1.397 1.774-.617.432-1.376.648-2.278.648Zm.196-1.41c.647 0 1.177-.15 1.593-.45.415-.305.72-.724.916-1.254.202-.537.303-1.145.303-1.826 0-.692-.101-1.3-.303-1.825-.196-.53-.498-.943-.907-1.237-.41-.3-.929-.45-1.557-.45-.653 0-1.193.156-1.62.467a2.796 2.796 0 0 0-.943 1.263 4.984 4.984 0 0 0-.302 1.782c0 .664.103 1.264.311 1.8.208.53.519.951.934 1.263.421.311.946.467 1.575.467ZM19.382 35.592V34h1.583v1.592h-1.583Zm0 10.996v-9.344h1.583v9.344h-1.583ZM29 46.588c-.57.11-1.133.153-1.69.13a3.84 3.84 0 0 1-1.477-.32 2.098 2.098 0 0 1-.988-.935 2.702 2.702 0 0 1-.311-1.116c-.012-.38-.018-.81-.018-1.289v-8.41H26.1v8.34c0 .382.002.707.008.978.012.271.075.505.187.701.214.37.552.586 1.014.649.47.063 1.033.046 1.691-.052v1.324Zm-6.433-8.072v-1.272H29v1.272h-6.433Z" />
  <defs>
    <filter id="d" width="9.614" height="9.309" x="18.964" y="32.952" color-interpolation-filters="sRGB"
      filterUnits="userSpaceOnUse">
      <feFlood flood-opacity="0" result="BackgroundImageFix" />
      <feBlend in="SourceGraphic" in2="BackgroundImageFix" result="shape" />
      <feGaussianBlur result="effect1_foregroundBlur_2733_41764" stdDeviation=".64" />
    </filter>
    <filter id="g" width="14.545" height="11.452" x="28.868" y="31.742" color-interpolation-filters="sRGB"
      filterUnits="userSpaceOnUse">
      <feFlood flood-opacity="0" result="BackgroundImageFix" />
      <feBlend in="SourceGraphic" in2="BackgroundImageFix" result="shape" />
      <feGaussianBlur result="effect1_foregroundBlur_2733_41764" stdDeviation=".98" />
    </filter>
    <filter id="j" width="7.004" height="7.404" x="25.253" y="33.21" color-interpolation-filters="sRGB"
      filterUnits="userSpaceOnUse">
      <feFlood flood-opacity="0" result="BackgroundImageFix" />
      <feBlend in="SourceGraphic" in2="BackgroundImageFix" result="shape" />
      <feGaussianBlur result="effect1_foregroundBlur_2733_41764" stdDeviation=".68" />
    </filter>
    <filter id="m" width="5.839" height="17.127" x="24.332" y="38.945" color-interpolation-filters="sRGB"
      filterUnits="userSpaceOnUse">
      <feFlood flood-opacity="0" result="BackgroundImageFix" />
      <feBlend in="SourceGraphic" in2="BackgroundImageFix" result="shape" />
      <feGaussianBlur result="effect1_foregroundBlur_2733_41764" stdDeviation="1.25" />
    </filter>
    <filter id="o" width="9.111" height="9.198" x="39.653" y="36.5" color-interpolation-filters="sRGB"
      filterUnits="userSpaceOnUse">
      <feFlood flood-opacity="0" result="BackgroundImageFix" />
      <feBlend in="SourceGraphic" in2="BackgroundImageFix" result="shape" />
      <feGaussianBlur result="effect1_foregroundBlur_2733_41764" stdDeviation="1.78" />
    </filter>
    <filter id="q" width="10.173" height="10.074" x="30.845" y="8.408" color-interpolation-filters="sRGB"
      filterUnits="userSpaceOnUse">
      <feFlood flood-opacity="0" result="BackgroundImageFix" />
      <feBlend in="SourceGraphic" in2="BackgroundImageFix" result="shape" />
      <feGaussianBlur result="effect1_foregroundBlur_2733_41764" stdDeviation="1.73" />
    </filter>
    <filter id="s" width="5.525" height="5.86" x="36.997" y="25.623" color-interpolation-filters="sRGB"
      filterUnits="userSpaceOnUse">
      <feFlood flood-opacity="0" result="BackgroundImageFix" />
      <feBlend in="SourceGraphic" in2="BackgroundImageFix" result="shape" />
      <feGaussianBlur result="effect1_foregroundBlur_2733_41764" stdDeviation=".78" />
    </filter>
    <filter id="u" width="9.235" height="16.783" x="14.152" y="36.473" color-interpolation-filters="sRGB"
      filterUnits="userSpaceOnUse">
      <feFlood flood-opacity="0" result="BackgroundImageFix" />
      <feBlend in="SourceGraphic" in2="BackgroundImageFix" result="shape" />
      <feGaussianBlur result="effect1_foregroundBlur_2733_41764" stdDeviation=".98" />
    </filter>
    <filter id="w" width="10.313" height="21.13" x="39.114" y="34.81" color-interpolation-filters="sRGB"
      filterUnits="userSpaceOnUse">
      <feFlood flood-opacity="0" result="BackgroundImageFix" />
      <feBlend in="SourceGraphic" in2="BackgroundImageFix" result="shape" />
      <feGaussianBlur result="effect1_foregroundBlur_2733_41764" stdDeviation="1.19" />
    </filter>
    <filter id="z" width="2.797" height="3.462" x="25.546" y="19.744" color-interpolation-filters="sRGB"
      filterUnits="userSpaceOnUse">
      <feFlood flood-opacity="0" result="BackgroundImageFix" />
      <feBlend in="SourceGraphic" in2="BackgroundImageFix" result="shape" />
      <feGaussianBlur result="effect1_foregroundBlur_2733_41764" stdDeviation=".44" />
    </filter>
    <filter id="D" width="3.248" height="3.026" x="25.912" y="16.763" color-interpolation-filters="sRGB"
      filterUnits="userSpaceOnUse">
      <feFlood flood-opacity="0" result="BackgroundImageFix" />
      <feBlend in="SourceGraphic" in2="BackgroundImageFix" result="shape" />
      <feGaussianBlur result="effect1_foregroundBlur_2733_41764" stdDeviation=".12" />
    </filter>
    <filter id="H" width="3.179" height="3.189" x="32.926" y="19.534" color-interpolation-filters="sRGB"
      filterUnits="userSpaceOnUse">
      <feFlood flood-opacity="0" result="BackgroundImageFix" />
      <feBlend in="SourceGraphic" in2="BackgroundImageFix" result="shape" />
      <feGaussianBlur result="effect1_foregroundBlur_2733_41764" stdDeviation=".45" />
    </filter>
    <filter id="L" width="3.551" height="3.38" x="33.992" y="16.346" color-interpolation-filters="sRGB"
      filterUnits="userSpaceOnUse">
      <feFlood flood-opacity="0" result="BackgroundImageFix" />
      <feBlend in="SourceGraphic" in2="BackgroundImageFix" result="shape" />
      <feGaussianBlur result="effect1_foregroundBlur_2733_41764" stdDeviation=".13" />
    </filter>
    <filter id="O" width="19.635" height="14.64" x="21.262" y="22.384" color-interpolation-filters="sRGB"
      filterUnits="userSpaceOnUse">
      <feFlood flood-opacity="0" result="BackgroundImageFix" />
      <feBlend in="SourceGraphic" in2="BackgroundImageFix" result="shape" />
      <feGaussianBlur result="effect1_foregroundBlur_2733_41764" stdDeviation="1.75" />
    </filter>
    <filter id="Q" width="15.294" height="8.819" x="23.05" y="23.719" color-interpolation-filters="sRGB"
      filterUnits="userSpaceOnUse">
      <feFlood flood-opacity="0" result="BackgroundImageFix" />
      <feBlend in="SourceGraphic" in2="BackgroundImageFix" result="shape" />
      <feGaussianBlur result="effect1_foregroundBlur_2733_41764" stdDeviation=".8" />
    </filter>
    <filter id="U" width="5.824" height="5.137" x="26.036" y="25.771" color-interpolation-filters="sRGB"
      filterUnits="userSpaceOnUse">
      <feFlood flood-opacity="0" result="BackgroundImageFix" />
      <feBlend in="SourceGraphic" in2="BackgroundImageFix" result="shape" />
      <feGaussianBlur result="effect1_foregroundBlur_2733_41764" stdDeviation=".77" />
    </filter>
    <filter id="W" width="13.05" height="7.231" x="23.831" y="22.844" color-interpolation-filters="sRGB"
      filterUnits="userSpaceOnUse">
      <feFlood flood-opacity="0" result="BackgroundImageFix" />
      <feBlend in="SourceGraphic" in2="BackgroundImageFix" result="shape" />
      <feGaussianBlur result="effect1_foregroundBlur_2733_41764" stdDeviation=".65" />
    </filter>
    <filter id="Z" width="5.42" height="6.078" x="28.216" y="22.879" color-interpolation-filters="sRGB"
      filterUnits="userSpaceOnUse">
      <feFlood flood-opacity="0" result="BackgroundImageFix" />
      <feBlend in="SourceGraphic" in2="BackgroundImageFix" result="shape" />
      <feGaussianBlur result="effect1_foregroundBlur_2733_41764" stdDeviation=".73" />
    </filter>
    <filter id="aa" width=".849" height=".906" x="27.673" y="22.935" color-interpolation-filters="sRGB"
      filterUnits="userSpaceOnUse">
      <feFlood flood-opacity="0" result="BackgroundImageFix" />
      <feBlend in="SourceGraphic" in2="BackgroundImageFix" result="shape" />
      <feGaussianBlur result="effect1_foregroundBlur_2733_41764" stdDeviation=".1" />
    </filter>
    <filter id="ac" width="1.52" height="1.002" x="30.316" y="22.828" color-interpolation-filters="sRGB"
      filterUnits="userSpaceOnUse">
      <feFlood flood-opacity="0" result="BackgroundImageFix" />
      <feBlend in="SourceGraphic" in2="BackgroundImageFix" result="shape" />
      <feGaussianBlur result="effect1_foregroundBlur_2733_41764" stdDeviation=".1" />
    </filter>
    <filter id="af" width="2.061" height="2.348" x="35.046" y="24.332" color-interpolation-filters="sRGB"
      filterUnits="userSpaceOnUse">
      <feFlood flood-opacity="0" result="BackgroundImageFix" />
      <feBlend in="SourceGraphic" in2="BackgroundImageFix" result="shape" />
      <feGaussianBlur result="effect1_foregroundBlur_2733_41764" stdDeviation=".23" />
    </filter>
    <radialGradient id="e" cx="0" cy="0" r="1" gradientTransform="matrix(4.35551 0 0 4.21964 21.028 37.707)"
      gradientUnits="userSpaceOnUse">
      <stop />
      <stop offset="1" stop-opacity=".25" />
    </radialGradient>
    <radialGradient id="h" cx="0" cy="0" r="1" gradientTransform="matrix(5.41 0 0 4.21964 35.825 40.147)"
      gradientUnits="userSpaceOnUse">
      <stop />
      <stop offset="1" stop-opacity=".25" />
    </radialGradient>
    <radialGradient id="k" cx="0" cy="0" r="1" gradientTransform="matrix(2.14337 0 0 2.34424 28.599 39.18)"
      gradientUnits="userSpaceOnUse">
      <stop />
      <stop offset="1" stop-opacity=".25" />
    </radialGradient>
    <radialGradient id="x" cx="0" cy="0" r="1" gradientTransform="matrix(2.34727 -.02514 .03936 3.67556 26.829 21.348)"
      gradientUnits="userSpaceOnUse">
      <stop stop-color="#FEFEFC" />
      <stop offset=".75" stop-color="#FEFEFC" />
      <stop offset="1" stop-color="#D4D4D4" />
    </radialGradient>
    <radialGradient id="C" cx="0" cy="0" r="1" gradientTransform="matrix(1.4137 -.23804 .22446 1.33305 26.461 19.551)"
      gradientUnits="userSpaceOnUse">
      <stop stop-color="#C8C8C8" />
      <stop offset="1" stop-color="#797978" />
    </radialGradient>
    <radialGradient id="F" cx="0" cy="0" r="1" gradientTransform="matrix(3.12526 -.10044 .11807 3.6738 34.067 21.35)"
      gradientUnits="userSpaceOnUse">
      <stop stop-color="#FEFEFC" />
      <stop offset=".75" stop-color="#FEFEFC" />
      <stop offset="1" stop-color="#D4D4D4" />
    </radialGradient>
    <radialGradient id="R" cx="0" cy="0" r="1" gradientTransform="rotate(-36.612 50.045 -32.72) scale(2.64313 2.41431)"
      gradientUnits="userSpaceOnUse">
      <stop stop-color="#020204" />
      <stop offset=".73" stop-color="#020204" />
      <stop offset="1" stop-color="#5C5C5C" />
    </radialGradient>
    <radialGradient id="S" cx="0" cy="0" r="1" gradientTransform="rotate(-22.855 80.024 -66.644) scale(6.24444 4.45569)"
      gradientUnits="userSpaceOnUse">
      <stop stop-color="#D2940A" />
      <stop offset=".75" stop-color="#D89C08" />
      <stop offset=".87" stop-color="#B67E07" />
      <stop offset="1" stop-color="#946106" />
    </radialGradient>
    <radialGradient id="ab" cx="0" cy="0" r="1" gradientTransform="matrix(.3026 0 0 .33288 28.123 23.334)"
      gradientUnits="userSpaceOnUse">
      <stop stop-color="#3A2903" />
      <stop offset=".55" stop-color="#735208" />
      <stop offset="1" stop-color="#AC8C04" />
    </radialGradient>
    <radialGradient id="ad" cx="0" cy="0" r="1" gradientTransform="matrix(.63728 0 0 .37977 30.997 23.292)"
      gradientUnits="userSpaceOnUse">
      <stop stop-color="#3A2903" />
      <stop offset=".55" stop-color="#735208" />
      <stop offset="1" stop-color="#AC8C04" />
    </radialGradient>
    <linearGradient id="a" x1="40.836" x2="30.521" y1="6.034" y2="45.824" gradientUnits="userSpaceOnUse">
      <stop offset=".641" stop-color="#D9D9D9" />
      <stop offset=".886" stop-color="#D9D9D9" stop-opacity="0" />
    </linearGradient>
    <linearGradient id="A" x1="26.322" x2="27.515" y1="20.231" y2="22.315" gradientUnits="userSpaceOnUse">
      <stop stop-color="#757574" stop-opacity="0" />
      <stop offset=".25" stop-color="#757574" />
      <stop offset=".5" stop-color="#757574" />
      <stop offset="1" stop-color="#757574" stop-opacity="0" />
    </linearGradient>
    <linearGradient id="E" x1="26.163" x2="28.716" y1="16.918" y2="19.468" gradientUnits="userSpaceOnUse">
      <stop stop-color="#646464" stop-opacity="0" />
      <stop offset=".31" stop-color="#646464" stop-opacity=".58" />
      <stop offset=".47" stop-color="#646464" />
      <stop offset=".73" stop-color="#646464" stop-opacity=".26" />
      <stop offset="1" stop-color="#646464" stop-opacity="0" />
    </linearGradient>
    <linearGradient id="I" x1="34.026" x2="35.389" y1="20.374" y2="21.952" gradientUnits="userSpaceOnUse">
      <stop stop-color="#949494" stop-opacity=".39" />
      <stop offset=".5" stop-color="#949494" />
      <stop offset="1" stop-color="#949494" stop-opacity=".39" />
    </linearGradient>
    <linearGradient id="K" x1="32.886" x2="37.156" y1="17.791" y2="20.234" gradientUnits="userSpaceOnUse">
      <stop stop-color="#747474" />
      <stop offset=".13" stop-color="#8C8C8C" />
      <stop offset=".25" stop-color="#A4A4A4" />
      <stop offset=".5" stop-color="#D4D4D4" />
      <stop offset=".62" stop-color="#D4D4D4" />
      <stop offset="1" stop-color="#7C7C7C" />
    </linearGradient>
    <linearGradient id="M" x1="34.321" x2="37.191" y1="16.695" y2="19.346" gradientUnits="userSpaceOnUse">
      <stop stop-color="#646464" stop-opacity="0" />
      <stop offset=".31" stop-color="#646464" stop-opacity=".58" />
      <stop offset=".47" stop-color="#646464" />
      <stop offset=".73" stop-color="#646464" stop-opacity=".26" />
      <stop offset="1" stop-color="#646464" stop-opacity="0" />
    </linearGradient>
    <linearGradient id="X" x1="24.908" x2="36.068" y1="25.533" y2="25.448" gradientUnits="userSpaceOnUse">
      <stop stop-color="#AD780A" />
      <stop offset=".12" stop-color="#D89E08" />
      <stop offset=".25" stop-color="#EDB80B" />
      <stop offset=".39" stop-color="#EBC80D" />
      <stop offset=".53" stop-color="#F5D838" />
      <stop offset=".77" stop-color="#F6D811" />
      <stop offset="1" stop-color="#F5CD31" />
    </linearGradient>
    <linearGradient id="ag" x1="36.061" x2="36.061" y1="25.118" y2="25.962" gradientUnits="userSpaceOnUse">
      <stop stop-color="#F5CE2D" />
      <stop offset="1" stop-color="#D79B08" />
    </linearGradient>
  </defs>
</svg>
