<svg xmlns="http://www.w3.org/2000/svg" width="60" height="60" fill="none">
  <rect width="60" height="60" fill="#F6F6F6" rx="7.529" />
  <g clip-path="url(#a)">
    <path fill="#020204"
      d="M29.816 7c-1.056 0-2.115.212-3.072.74a5.722 5.722 0 0 0-2.363 2.51c-.513 1.057-.714 2.185-.745 3.429-.059 2.361.052 4.837.226 7.082.046.682.13 1.081.044 1.784-.285 1.491-1.562 2.494-2.244 3.804-.752 1.444-1.068 3.078-1.635 4.609-.519 1.4-1.247 2.713-1.738 4.124-.688 1.97-.894 4.138-.44 6.179.347 1.556 1.07 3.015 2.045 4.264-.141.259-.278.523-.423.78-.452.796-1.004 1.552-1.261 2.435-.129.44-.18.91-.097 1.363.083.453.308.886.66 1.174.23.187.51.309.797.377.287.067.584.083.88.077 1.12-.025 2.207-.372 3.291-.663a38.44 38.44 0 0 1 1.94-.463c2.312-.484 4.891-.29 7.036.027.726.113 1.448.259 2.162.436 1.119.277 2.232.63 3.383.663.303.01.609-.005.904-.072a2 2 0 0 0 .818-.382c.354-.288.58-.723.662-1.175.082-.453.031-.926-.099-1.368-.26-.884-.818-1.637-1.279-2.43-.183-.314-.352-.634-.533-.948 1.39-1.594 2.509-3.437 3.156-5.462.706-2.21.836-4.591.539-6.897-.298-2.305-1.014-4.54-1.955-6.657-1.182-2.652-2.176-3.612-2.897-5.942-.778-2.52-.136-5.5-.715-7.785a8.072 8.072 0 0 0-.958-2.197 7.47 7.47 0 0 0-1.874-2.061C32.838 7.47 31.339 7 29.816 7Z" />
    <path fill="#FDFDFB"
      d="M25.625 20.296c-.158.203-.26.448-.324.7a3.924 3.924 0 0 0-.095.772c-.019.52.013 1.048-.123 1.549-.144.535-.466 1-.78 1.452-.548.783-1.1 1.588-1.37 2.51a4.548 4.548 0 0 0-.16 1.729c-.61.916-1.14 1.892-1.58 2.907-.664 1.54-1.12 3.179-1.28 4.853-.197 2.05.06 4.16.853 6.054.572 1.371 1.427 2.623 2.53 3.6a8.63 8.63 0 0 0 1.847 1.253c2.306 1.16 5.156 1.161 7.424-.073 1.186-.645 2.187-1.589 3.151-2.543.58-.575 1.16-1.164 1.603-1.854.853-1.332 1.15-2.949 1.335-4.528.322-2.76.333-5.678-.853-8.182a9.017 9.017 0 0 0-1.605-2.345 13.002 13.002 0 0 0-1.013-3.489c-.36-.8-.799-1.56-1.133-2.368-.137-.333-.257-.674-.408-1-.153-.325-.34-.637-.597-.887a2.42 2.42 0 0 0-.928-.552 3.91 3.91 0 0 0-1.067-.187c-.723-.037-1.446.06-2.169.03-.575-.024-1.148-.127-1.724-.092-.287.017-.573.07-.84.181-.268.11-.514.28-.694.51Z" />
    <mask id="b" width="26" height="45" x="17" y="7" maskUnits="userSpaceOnUse" style="mask-type:luminance">
      <path fill="#fff"
        d="M29.816 7c-1.056 0-2.115.212-3.072.74a5.722 5.722 0 0 0-2.363 2.51c-.513 1.057-.714 2.185-.745 3.429-.059 2.361.052 4.837.226 7.082.046.682.13 1.081.044 1.784-.285 1.491-1.562 2.494-2.244 3.804-.752 1.444-1.068 3.078-1.635 4.609-.519 1.4-1.247 2.713-1.738 4.124-.688 1.97-.894 4.138-.44 6.179.347 1.556 1.07 3.015 2.045 4.264-.141.259-.278.523-.423.78-.452.796-1.004 1.552-1.261 2.435-.129.44-.18.91-.097 1.363.083.453.308.886.66 1.174.23.187.51.309.797.377.287.067.584.083.88.077 1.12-.025 2.207-.372 3.291-.663a38.44 38.44 0 0 1 1.94-.463c2.312-.484 4.891-.29 7.036.027.726.113 1.448.259 2.162.436 1.119.277 2.232.63 3.383.663.303.01.609-.005.904-.072a2 2 0 0 0 .818-.382c.354-.288.58-.723.662-1.175.082-.453.031-.926-.099-1.368-.26-.884-.818-1.637-1.279-2.43-.183-.314-.352-.634-.533-.948 1.39-1.594 2.509-3.437 3.156-5.462.706-2.21.836-4.591.539-6.897-.298-2.305-1.014-4.54-1.955-6.657-1.182-2.652-2.176-3.612-2.897-5.942-.778-2.52-.136-5.5-.715-7.785a8.072 8.072 0 0 0-.958-2.197 7.47 7.47 0 0 0-1.874-2.061C32.838 7.47 31.339 7 29.816 7Z" />
    </mask>
    <g filter="url(#c)" mask="url(#b)" opacity=".25">
      <path fill="url(#d)"
        d="M23.081 27.696c.153.236-.096 1.05 3.494.529 0 0-.631.07-1.252.217-.966.33-1.807.699-2.458 1.188-.642.485-1.114 1.116-1.703 1.657 0 0 .955-1.783 1.193-2.32.239-.537-.039-.512.15-1.303.188-.79.649-1.55.649-1.55s-.377 1.117-.073 1.582Z" />
    </g>
    <mask id="e" width="26" height="45" x="17" y="7" maskUnits="userSpaceOnUse" style="mask-type:luminance">
      <path fill="#fff"
        d="M29.816 7c-1.056 0-2.115.212-3.072.74a5.722 5.722 0 0 0-2.363 2.51c-.513 1.057-.714 2.185-.745 3.429-.059 2.361.052 4.837.226 7.082.046.682.13 1.081.044 1.784-.285 1.491-1.562 2.494-2.244 3.804-.752 1.444-1.068 3.078-1.635 4.609-.519 1.4-1.247 2.713-1.738 4.124-.688 1.97-.894 4.138-.44 6.179.347 1.556 1.07 3.015 2.045 4.264-.141.259-.278.523-.423.78-.452.796-1.004 1.552-1.261 2.435-.129.44-.18.91-.097 1.363.083.453.308.886.66 1.174.23.187.51.309.797.377.287.067.584.083.88.077 1.12-.025 2.207-.372 3.291-.663a38.44 38.44 0 0 1 1.94-.463c2.312-.484 4.891-.29 7.036.027.726.113 1.448.259 2.162.436 1.119.277 2.232.63 3.383.663.303.01.609-.005.904-.072a2 2 0 0 0 .818-.382c.354-.288.58-.723.662-1.175.082-.453.031-.926-.099-1.368-.26-.884-.818-1.637-1.279-2.43-.183-.314-.352-.634-.533-.948 1.39-1.594 2.509-3.437 3.156-5.462.706-2.21.836-4.591.539-6.897-.298-2.305-1.014-4.54-1.955-6.657-1.182-2.652-2.176-3.612-2.897-5.942-.778-2.52-.136-5.5-.715-7.785a8.072 8.072 0 0 0-.958-2.197 7.47 7.47 0 0 0-1.874-2.061C32.838 7.47 31.339 7 29.816 7Z" />
    </mask>
    <g filter="url(#f)" mask="url(#e)" opacity=".42">
      <path fill="url(#g)"
        d="M34.623 27.482c-.732.521-1.161.46-2.048.561-.889.102-3.29.065-3.29.065s.347-.006 1.119.14c.77.147 2.341.287 3.226.63.887.346 1.209.444 1.747.791.766.494 1.329 1.269 2.06 1.811 0 0 .036-.718-.26-1.256-.295-.537-1.09-1.383-1.325-2.174-.232-.79-.344-2.343-.344-2.343s-.155 1.256-.885 1.775Z" />
    </g>
    <mask id="h" width="26" height="45" x="17" y="7" maskUnits="userSpaceOnUse" style="mask-type:luminance">
      <path fill="#fff"
        d="M29.816 7c-1.056 0-2.115.212-3.072.74a5.722 5.722 0 0 0-2.363 2.51c-.513 1.057-.714 2.185-.745 3.429-.059 2.361.052 4.837.226 7.082.046.682.13 1.081.044 1.784-.285 1.491-1.562 2.494-2.244 3.804-.752 1.444-1.068 3.078-1.635 4.609-.519 1.4-1.247 2.713-1.738 4.124-.688 1.97-.894 4.138-.44 6.179.347 1.556 1.07 3.015 2.045 4.264-.141.259-.278.523-.423.78-.452.796-1.004 1.552-1.261 2.435-.129.44-.18.91-.097 1.363.083.453.308.886.66 1.174.23.187.51.309.797.377.287.067.584.083.88.077 1.12-.025 2.207-.372 3.291-.663a38.44 38.44 0 0 1 1.94-.463c2.312-.484 4.891-.29 7.036.027.726.113 1.448.259 2.162.436 1.119.277 2.232.63 3.383.663.303.01.609-.005.904-.072a2 2 0 0 0 .818-.382c.354-.288.58-.723.662-1.175.082-.453.031-.926-.099-1.368-.26-.884-.818-1.637-1.279-2.43-.183-.314-.352-.634-.533-.948 1.39-1.594 2.509-3.437 3.156-5.462.706-2.21.836-4.591.539-6.897-.298-2.305-1.014-4.54-1.955-6.657-1.182-2.652-2.176-3.612-2.897-5.942-.778-2.52-.136-5.5-.715-7.785a8.072 8.072 0 0 0-.958-2.197 7.47 7.47 0 0 0-1.874-2.061C32.838 7.47 31.339 7 29.816 7Z" />
    </mask>
    <g filter="url(#i)" mask="url(#h)" opacity=".2">
      <path fill="url(#j)"
        d="M27.743 26.372c-.028.225-.063.45-.105.672-.022.11-.046.22-.085.323a.734.734 0 0 1-.18.28.948.948 0 0 1-.246.152 3.71 3.71 0 0 1-1.076.312c.147.011.295.026.445.042.093.01.186.021.276.045a.78.78 0 0 1 .257.116.72.72 0 0 1 .197.241c.097.184.128.396.146.606.023.266.024.535.005.801a2.53 2.53 0 0 1 .11-.524c.1-.31.258-.597.473-.836a1.533 1.533 0 0 1 1.38-.526 1.684 1.684 0 0 1-1.092-.347 1.435 1.435 0 0 1-.39-.45 1.28 1.28 0 0 1-.115-.907Z" />
    </g>
    <mask id="k" width="26" height="45" x="17" y="7" maskUnits="userSpaceOnUse" style="mask-type:luminance">
      <path fill="#fff"
        d="M29.816 7c-1.056 0-2.115.212-3.072.74a5.722 5.722 0 0 0-2.363 2.51c-.513 1.057-.714 2.185-.745 3.429-.059 2.361.052 4.837.226 7.082.046.682.13 1.081.044 1.784-.285 1.491-1.562 2.494-2.244 3.804-.752 1.444-1.068 3.078-1.635 4.609-.519 1.4-1.247 2.713-1.738 4.124-.688 1.97-.894 4.138-.44 6.179.347 1.556 1.07 3.015 2.045 4.264-.141.259-.278.523-.423.78-.452.796-1.004 1.552-1.261 2.435-.129.44-.18.91-.097 1.363.083.453.308.886.66 1.174.23.187.51.309.797.377.287.067.584.083.88.077 1.12-.025 2.207-.372 3.291-.663a38.44 38.44 0 0 1 1.94-.463c2.312-.484 4.891-.29 7.036.027.726.113 1.448.259 2.162.436 1.119.277 2.232.63 3.383.663.303.01.609-.005.904-.072a2 2 0 0 0 .818-.382c.354-.288.58-.723.662-1.175.082-.453.031-.926-.099-1.368-.26-.884-.818-1.637-1.279-2.43-.183-.314-.352-.634-.533-.948 1.39-1.594 2.509-3.437 3.156-5.462.706-2.21.836-4.591.539-6.897-.298-2.305-1.014-4.54-1.955-6.657-1.182-2.652-2.176-3.612-2.897-5.942-.778-2.52-.136-5.5-.715-7.785a8.072 8.072 0 0 0-.958-2.197 7.47 7.47 0 0 0-1.874-2.061C32.838 7.47 31.339 7 29.816 7Z" />
    </mask>
    <g filter="url(#l)" mask="url(#k)" opacity=".11">
      <path fill="#000"
        d="M26.807 31.643a13.796 13.796 0 0 0-.381 2.212c-.097 1.054-.074 2.116-.13 3.175-.046.896-.15 1.804.003 2.69.072.422.202.833.387 1.218.028-.148.051-.295.063-.444.066-.719-.052-1.44-.093-2.158-.07-1.261.1-2.523.17-3.784a23.59 23.59 0 0 0-.019-2.91Z" />
    </g>
    <mask id="m" width="26" height="45" x="17" y="7" maskUnits="userSpaceOnUse" style="mask-type:luminance">
      <path fill="#fff"
        d="M29.816 7c-1.056 0-2.115.212-3.072.74a5.722 5.722 0 0 0-2.363 2.51c-.513 1.057-.714 2.185-.745 3.429-.059 2.361.052 4.837.226 7.082.046.682.13 1.081.044 1.784-.285 1.491-1.562 2.494-2.244 3.804-.752 1.444-1.068 3.078-1.635 4.609-.519 1.4-1.247 2.713-1.738 4.124-.688 1.97-.894 4.138-.44 6.179.347 1.556 1.07 3.015 2.045 4.264-.141.259-.278.523-.423.78-.452.796-1.004 1.552-1.261 2.435-.129.44-.18.91-.097 1.363.083.453.308.886.66 1.174.23.187.51.309.797.377.287.067.584.083.88.077 1.12-.025 2.207-.372 3.291-.663a38.44 38.44 0 0 1 1.94-.463c2.312-.484 4.891-.29 7.036.027.726.113 1.448.259 2.162.436 1.119.277 2.232.63 3.383.663.303.01.609-.005.904-.072a2 2 0 0 0 .818-.382c.354-.288.58-.723.662-1.175.082-.453.031-.926-.099-1.368-.26-.884-.818-1.637-1.279-2.43-.183-.314-.352-.634-.533-.948 1.39-1.594 2.509-3.437 3.156-5.462.706-2.21.836-4.591.539-6.897-.298-2.305-1.014-4.54-1.955-6.657-1.182-2.652-2.176-3.612-2.897-5.942-.778-2.52-.136-5.5-.715-7.785a8.072 8.072 0 0 0-.958-2.197 7.47 7.47 0 0 0-1.874-2.061C32.838 7.47 31.339 7 29.816 7Z" />
    </mask>
    <g filter="url(#n)" mask="url(#m)" opacity=".75">
      <path fill="#7C7C7C"
        d="M39.163 30.58c.18-.028 1.29.937 1.14 1.296-.152.358-.439.142-.643.144-.204.004-.761.262-.855.099-.095-.164.247-.545.424-.864.145-.257-.246-.645-.066-.674Z" />
    </g>
    <mask id="o" width="26" height="45" x="17" y="7" maskUnits="userSpaceOnUse" style="mask-type:luminance">
      <path fill="#fff"
        d="M29.816 7c-1.056 0-2.115.212-3.072.74a5.722 5.722 0 0 0-2.363 2.51c-.513 1.057-.714 2.185-.745 3.429-.059 2.361.052 4.837.226 7.082.046.682.13 1.081.044 1.784-.285 1.491-1.562 2.494-2.244 3.804-.752 1.444-1.068 3.078-1.635 4.609-.519 1.4-1.247 2.713-1.738 4.124-.688 1.97-.894 4.138-.44 6.179.347 1.556 1.07 3.015 2.045 4.264-.141.259-.278.523-.423.78-.452.796-1.004 1.552-1.261 2.435-.129.44-.18.91-.097 1.363.083.453.308.886.66 1.174.23.187.51.309.797.377.287.067.584.083.88.077 1.12-.025 2.207-.372 3.291-.663a38.44 38.44 0 0 1 1.94-.463c2.312-.484 4.891-.29 7.036.027.726.113 1.448.259 2.162.436 1.119.277 2.232.63 3.383.663.303.01.609-.005.904-.072a2 2 0 0 0 .818-.382c.354-.288.58-.723.662-1.175.082-.453.031-.926-.099-1.368-.26-.884-.818-1.637-1.279-2.43-.183-.314-.352-.634-.533-.948 1.39-1.594 2.509-3.437 3.156-5.462.706-2.21.836-4.591.539-6.897-.298-2.305-1.014-4.54-1.955-6.657-1.182-2.652-2.176-3.612-2.897-5.942-.778-2.52-.136-5.5-.715-7.785a8.072 8.072 0 0 0-.958-2.197 7.47 7.47 0 0 0-1.874-2.061C32.838 7.47 31.339 7 29.816 7Z" />
    </mask>
    <g filter="url(#p)" mask="url(#o)">
      <path fill="#7C7C7C"
        d="M32.379 8.998c-.389.28-.22.63-.053.981.167.352-.368 1.364-.373 1.407-.005.043 1.052-.512 1.34-.875.342-.426 1.202.579 1.155.426.001-.273-1.68-2.218-2.07-1.94Z" />
    </g>
    <mask id="q" width="26" height="45" x="17" y="7" maskUnits="userSpaceOnUse" style="mask-type:luminance">
      <path fill="#fff"
        d="M29.816 7c-1.056 0-2.115.212-3.072.74a5.722 5.722 0 0 0-2.363 2.51c-.513 1.057-.714 2.185-.745 3.429-.059 2.361.052 4.837.226 7.082.046.682.13 1.081.044 1.784-.285 1.491-1.562 2.494-2.244 3.804-.752 1.444-1.068 3.078-1.635 4.609-.519 1.4-1.247 2.713-1.738 4.124-.688 1.97-.894 4.138-.44 6.179.347 1.556 1.07 3.015 2.045 4.264-.141.259-.278.523-.423.78-.452.796-1.004 1.552-1.261 2.435-.129.44-.18.91-.097 1.363.083.453.308.886.66 1.174.23.187.51.309.797.377.287.067.584.083.88.077 1.12-.025 2.207-.372 3.291-.663a38.44 38.44 0 0 1 1.94-.463c2.312-.484 4.891-.29 7.036.027.726.113 1.448.259 2.162.436 1.119.277 2.232.63 3.383.663.303.01.609-.005.904-.072a2 2 0 0 0 .818-.382c.354-.288.58-.723.662-1.175.082-.453.031-.926-.099-1.368-.26-.884-.818-1.637-1.279-2.43-.183-.314-.352-.634-.533-.948 1.39-1.594 2.509-3.437 3.156-5.462.706-2.21.836-4.591.539-6.897-.298-2.305-1.014-4.54-1.955-6.657-1.182-2.652-2.176-3.612-2.897-5.942-.778-2.52-.136-5.5-.715-7.785a8.072 8.072 0 0 0-.958-2.197 7.47 7.47 0 0 0-1.874-2.061C32.838 7.47 31.339 7 29.816 7Z" />
    </mask>
    <g filter="url(#r)" mask="url(#q)">
      <path fill="#838384"
        d="M35.325 20.769c-.327.305.155.763.382 1.3.142.335.535.808.915.732.286-.057.462-.478.436-.773-.053-.571-.524-.706-.867-.902-.271-.154-.635-.571-.866-.357Z" />
    </g>
    <path fill="#020204"
      d="M22.257 25.133c-1.073 1.243-2.176 2.449-2.782 3.795-.3.682-.441 1.425-.647 2.143a16.365 16.365 0 0 1-.904 2.376c-.33.71-.692 1.403-1.052 2.095-.264.505-.532 1.019-.623 1.583-.072.446-.032.906.08 1.342.112.437.29.854.492 1.255.858 1.715 2.148 3.193 3.675 4.325.693.512 1.434.956 2.213 1.32.422.196.866.372 1.33.38.232.005.466-.035.68-.13.21-.095.4-.248.527-.447.155-.245.207-.548.176-.838a2.043 2.043 0 0 0-.29-.814c-.363-.607-.935-1.047-1.485-1.482a50.133 50.133 0 0 1-3.44-2.98c-.31-.296-.62-.6-.837-.973-.211-.363-.326-.776-.403-1.192-.213-1.137-.158-2.334.22-3.426.15-.428.345-.836.535-1.245.327-.71.637-1.434 1.068-2.085.536-.81 1.254-1.497 1.69-2.366.37-.735.52-1.56.662-2.372.112-.636.325-1.258.434-1.894-.213.413-.899 1.09-1.32 1.63Z" />
    <mask id="s" width="10" height="23" x="16" y="23" maskUnits="userSpaceOnUse" style="mask-type:luminance">
      <path fill="#fff"
        d="M22.257 25.133c-1.073 1.243-2.176 2.449-2.782 3.795-.3.682-.441 1.425-.647 2.143a16.365 16.365 0 0 1-.904 2.376c-.33.71-.692 1.403-1.052 2.095-.264.505-.532 1.019-.623 1.583-.072.446-.032.906.08 1.342.112.437.29.854.492 1.255.858 1.715 2.148 3.193 3.675 4.325.693.512 1.434.956 2.213 1.32.422.196.866.372 1.33.38.232.005.466-.035.68-.13.21-.095.4-.248.527-.447.155-.245.207-.548.176-.838a2.043 2.043 0 0 0-.29-.814c-.363-.607-.935-1.047-1.485-1.482a50.133 50.133 0 0 1-3.44-2.98c-.31-.296-.62-.6-.837-.973-.211-.363-.326-.776-.403-1.192-.213-1.137-.158-2.334.22-3.426.15-.428.345-.836.535-1.245.327-.71.637-1.434 1.068-2.085.536-.81 1.254-1.497 1.69-2.366.37-.735.52-1.56.662-2.372.112-.636.325-1.258.434-1.894-.213.413-.899 1.09-1.32 1.63Z" />
    </mask>
    <g filter="url(#t)" mask="url(#s)" opacity=".95">
      <path fill="#7C7C7C"
        d="M21.02 29.66c-.351.33-.655.712-.902 1.133-.404.69-.642 1.466-.937 2.212-.219.555-.474 1.114-.504 1.712-.015.308.029.615.04.922.01.307-.018.627-.166.895a1.07 1.07 0 0 1-.567.487c.322.11.607.322.81.598.168.234.278.505.424.751.12.202.265.389.447.534.179.147.395.252.622.28.315.042.642-.064.875-.284a21.372 21.372 0 0 1 .78-8.332c.052-.169.105-.34.119-.515a.754.754 0 0 0-.127-.505.527.527 0 0 0-.913.111Z" />
    </g>
    <path fill="#020204"
      d="M39.636 29.842c.921.758 1.507 1.903 1.689 3.098.14.93.049 1.888-.157 2.806-.206.92-.523 1.808-.84 2.696-.124.352-.25.71-.3 1.081-.051.374-.02.768.157 1.098.202.38.578.64.983.762.4.122.83.119 1.235.017.405-.103 1.086-.236 1.414-.498.836-.663 1.035-1.815 1.234-2.825.206-1.055.105-2.16-.076-3.225a22.145 22.145 0 0 0-1.194-4.245c-.391-1.01-.89-1.973-1.485-2.867-.584-.88-1.411-1.564-2.023-2.423-.213-.298-.468-.607-.676-.909-.45-.65-.348-.528-.628-.95-.202-.306-.523-.41-.859-.543a1.674 1.674 0 0 0-1.062-.074c-.458.131-.832.502-1.031.942-.199.442-.234.949-.157 1.428.1.619.377 1.194.69 1.733.352.609.76 1.196 1.293 1.65.556.472 1.228.784 1.793 1.248Z" />
    <mask id="u" width="11" height="20" x="35" y="22" maskUnits="userSpaceOnUse" style="mask-type:luminance">
      <path fill="#fff"
        d="M39.636 29.842c.921.758 1.507 1.903 1.689 3.098.14.93.049 1.888-.157 2.806-.206.92-.523 1.808-.84 2.696-.124.352-.25.71-.3 1.081-.051.374-.02.768.157 1.098.202.38.578.64.983.762.4.122.83.119 1.235.017.405-.103 1.086-.236 1.414-.498.836-.663 1.035-1.815 1.234-2.825.206-1.055.105-2.16-.076-3.225a22.145 22.145 0 0 0-1.194-4.245c-.391-1.01-.89-1.973-1.485-2.867-.584-.88-1.411-1.564-2.023-2.423-.213-.298-.468-.607-.676-.909-.45-.65-.348-.528-.628-.95-.202-.306-.523-.41-.859-.543a1.674 1.674 0 0 0-1.062-.074c-.458.131-.832.502-1.031.942-.199.442-.234.949-.157 1.428.1.619.377 1.194.69 1.733.352.609.76 1.196 1.293 1.65.556.472 1.228.784 1.793 1.248Z" />
    </mask>
    <g filter="url(#v)" mask="url(#u)">
      <path fill="#838384"
        d="M37.465 28.38c.074.073.151.146.23.215.567.472.868 1.002 1.443 1.466.94.758 1.891 2.066 2.076 3.261.144.933-.046 1.44-.278 2.537-.232 1.1-.89 2.656-1.248 3.716-.14.423.29.248.233.694-.028.22-.032.44-.005.66.003-.042.005-.087.01-.128.069-.608.25-1.192.449-1.765.381-1.101.82-2.183 1.122-3.315.303-1.13.27-1.944.11-2.916a4.93 4.93 0 0 0-1.88-3.098c-.698-.527-1.52-.864-2.262-1.326Z" />
    </g>
    <path fill="url(#w)"
      d="M17.154 38.504c.243-.102.515-.122.772-.073.259.048.503.163.72.312.434.302.756.74 1.064 1.175.71.996 1.39 2.013 2.01 3.07.5.858.96 1.744 1.54 2.547.378.527.804 1.014 1.184 1.537.38.524.716 1.092.885 1.721a3.52 3.52 0 0 1-.246 2.47 3.23 3.23 0 0 1-1.179 1.293c-.5.307-1.026.444-1.61.444-.927 0-1.833-.509-2.695-.86-1.756-.715-3.662-.937-5.473-1.494-.556-.171-1.103-.374-1.662-.53-.25-.07-.502-.132-.737-.241-.236-.108-.456-.272-.586-.498-.1-.176-.141-.383-.141-.586 0-.204.05-.406.118-.596.135-.383.355-.73.503-1.109.241-.618.285-1.3.252-1.964-.032-.663-.138-1.322-.182-1.986a3.421 3.421 0 0 1 .028-.889c.055-.291.178-.577.388-.782.193-.19.448-.303.712-.359.262-.056.533-.057.8-.052.268.005.537.021.805-.002.267-.021.536-.083.768-.22.222-.128.403-.32.553-.53.15-.211.27-.441.396-.67.123-.226.251-.452.415-.653.162-.202.362-.376.598-.475Z" />
    <mask id="x" width="15" height="15" x="11" y="38" maskUnits="userSpaceOnUse" style="mask-type:luminance">
      <path fill="#fff"
        d="M17.154 38.504c.243-.102.515-.122.772-.073.259.048.503.163.72.312.434.302.756.74 1.064 1.175.71.996 1.39 2.013 2.01 3.07.5.858.96 1.744 1.54 2.547.378.527.804 1.014 1.184 1.537.38.524.716 1.092.885 1.721a3.52 3.52 0 0 1-.246 2.47 3.23 3.23 0 0 1-1.179 1.293c-.5.307-1.026.444-1.61.444-.927 0-1.833-.509-2.695-.86-1.756-.715-3.662-.937-5.473-1.494-.556-.171-1.103-.374-1.662-.53-.25-.07-.502-.132-.737-.241-.236-.108-.456-.272-.586-.498-.1-.176-.141-.383-.141-.586 0-.204.05-.406.118-.596.135-.383.355-.73.503-1.109.241-.618.285-1.3.252-1.964-.032-.663-.138-1.322-.182-1.986a3.421 3.421 0 0 1 .028-.889c.055-.291.178-.577.388-.782.193-.19.448-.303.712-.359.262-.056.533-.057.8-.052.268.005.537.021.805-.002.267-.021.536-.083.768-.22.222-.128.403-.32.553-.53.15-.211.27-.441.396-.67.123-.226.251-.452.415-.653.162-.202.362-.376.598-.475Z" />
    </mask>
    <g filter="url(#y)" mask="url(#x)">
      <path fill="#D99A03"
        d="M17.537 38.93c.22-.09.47-.1.7-.047.232.054.449.17.635.318.377.297.637.714.889 1.125.601.996 1.189 2.004 1.745 3.03.422.774.823 1.563 1.34 2.273.343.47.736.904 1.086 1.369.35.465.661.972.816 1.538.2.728.12 1.535-.225 2.203-.25.482-.63.891-1.09 1.165-.46.273-.998.41-1.53.384-.848-.04-1.623-.473-2.422-.765-1.532-.568-3.191-.646-4.764-1.088-.563-.156-1.112-.364-1.677-.51-.251-.065-.506-.118-.744-.22-.237-.103-.46-.261-.59-.49a1.106 1.106 0 0 1-.13-.566c.008-.196.055-.39.124-.573.137-.366.352-.697.489-1.064.21-.553.236-1.162.197-1.753-.039-.592-.14-1.18-.176-1.77a3.135 3.135 0 0 1 .035-.793c.053-.26.164-.512.349-.699.2-.203.475-.312.754-.357.278-.043.561-.024.841.002.282.025.563.057.845.04.281-.017.566-.087.798-.249.211-.145.37-.36.491-.587.122-.229.208-.475.301-.716a3.39 3.39 0 0 1 .336-.699c.144-.213.34-.402.577-.501Z" />
    </g>
    <mask id="z" width="15" height="15" x="11" y="38" maskUnits="userSpaceOnUse" style="mask-type:luminance">
      <path fill="#fff"
        d="M17.154 38.504c.243-.102.515-.122.772-.073.259.048.503.163.72.312.434.302.756.74 1.064 1.175.71.996 1.39 2.013 2.01 3.07.5.858.96 1.744 1.54 2.547.378.527.804 1.014 1.184 1.537.38.524.716 1.092.885 1.721a3.52 3.52 0 0 1-.246 2.47 3.23 3.23 0 0 1-1.179 1.293c-.5.307-1.026.444-1.61.444-.927 0-1.833-.509-2.695-.86-1.756-.715-3.662-.937-5.473-1.494-.556-.171-1.103-.374-1.662-.53-.25-.07-.502-.132-.737-.241-.236-.108-.456-.272-.586-.498-.1-.176-.141-.383-.141-.586 0-.204.05-.406.118-.596.135-.383.355-.73.503-1.109.241-.618.285-1.3.252-1.964-.032-.663-.138-1.322-.182-1.986a3.421 3.421 0 0 1 .028-.889c.055-.291.178-.577.388-.782.193-.19.448-.303.712-.359.262-.056.533-.057.8-.052.268.005.537.021.805-.002.267-.021.536-.083.768-.22.222-.128.403-.32.553-.53.15-.211.27-.441.396-.67.123-.226.251-.452.415-.653.162-.202.362-.376.598-.475Z" />
    </mask>
    <g filter="url(#A)" mask="url(#z)">
      <path fill="#F5BD0C"
        d="M17.332 38.368a1.08 1.08 0 0 1 .7-.08c.234.048.452.165.637.317.367.306.603.742.821 1.17.5.981.968 1.984 1.566 2.91.436.67.938 1.293 1.377 1.961.597.904 1.082 1.9 1.283 2.965.134.719.13 1.493-.208 2.139a2.348 2.348 0 0 1-1.011.991c-.426.22-.917.308-1.394.264-.75-.066-1.432-.443-2.139-.707-1.254-.466-2.61-.579-3.902-.931-.543-.148-1.078-.34-1.629-.457-.245-.052-.492-.09-.725-.18-.232-.09-.452-.238-.572-.457a.943.943 0 0 1-.098-.51c.012-.175.063-.346.13-.51.136-.323.334-.621.438-.955.155-.494.092-1.028-.024-1.533-.115-.503-.282-.997-.333-1.511a2.09 2.09 0 0 1 .03-.687 1.21 1.21 0 0 1 .318-.6c.212-.206.507-.31.803-.34.293-.028.589.011.881.054.292.044.588.09.881.076.296-.013.597-.092.827-.277.229-.183.373-.454.456-.735.083-.282.109-.575.142-.866.034-.29.076-.585.187-.857.11-.271.297-.52.558-.654Z" />
    </g>
    <mask id="B" width="15" height="15" x="11" y="38" maskUnits="userSpaceOnUse" style="mask-type:luminance">
      <path fill="#fff"
        d="M17.154 38.504c.243-.102.515-.122.772-.073.259.048.503.163.72.312.434.302.756.74 1.064 1.175.71.996 1.39 2.013 2.01 3.07.5.858.96 1.744 1.54 2.547.378.527.804 1.014 1.184 1.537.38.524.716 1.092.885 1.721a3.52 3.52 0 0 1-.246 2.47 3.23 3.23 0 0 1-1.179 1.293c-.5.307-1.026.444-1.61.444-.927 0-1.833-.509-2.695-.86-1.756-.715-3.662-.937-5.473-1.494-.556-.171-1.103-.374-1.662-.53-.25-.07-.502-.132-.737-.241-.236-.108-.456-.272-.586-.498-.1-.176-.141-.383-.141-.586 0-.204.05-.406.118-.596.135-.383.355-.73.503-1.109.241-.618.285-1.3.252-1.964-.032-.663-.138-1.322-.182-1.986a3.421 3.421 0 0 1 .028-.889c.055-.291.178-.577.388-.782.193-.19.448-.303.712-.359.262-.056.533-.057.8-.052.268.005.537.021.805-.002.267-.021.536-.083.768-.22.222-.128.403-.32.553-.53.15-.211.27-.441.396-.67.123-.226.251-.452.415-.653.162-.202.362-.376.598-.475Z" />
    </mask>
    <g filter="url(#C)" mask="url(#B)">
      <path fill="url(#D)"
        d="M20.008 40.818c.396.73.637 1.567 1.029 2.304.36.677.77 1.375 1.137 1.998.163.279.543.706.927 1.37.348.6.7 1.439.897 1.72-.113-.33-.345-1.216-.623-1.846-.259-.59-.561-.926-.746-1.244-.366-.623-.762-1.186-1.138-1.78-.52-.822-.915-1.74-1.483-2.522Z" />
    </g>
    <mask id="E" width="26" height="45" x="17" y="7" maskUnits="userSpaceOnUse" style="mask-type:luminance">
      <path fill="#fff"
        d="M29.816 7c-1.056 0-2.115.212-3.072.74a5.722 5.722 0 0 0-2.363 2.51c-.513 1.057-.714 2.185-.745 3.429-.059 2.361.052 4.837.226 7.082.046.682.13 1.081.044 1.784-.285 1.491-1.562 2.494-2.244 3.804-.752 1.444-1.068 3.078-1.635 4.609-.519 1.4-1.247 2.713-1.738 4.124-.688 1.97-.894 4.138-.44 6.179.347 1.556 1.07 3.015 2.045 4.264-.141.259-.278.523-.423.78-.452.796-1.004 1.552-1.261 2.435-.129.44-.18.91-.097 1.363.083.453.308.886.66 1.174.23.187.51.309.797.377.287.067.584.083.88.077 1.12-.025 2.207-.372 3.291-.663a38.44 38.44 0 0 1 1.94-.463c2.312-.484 4.891-.29 7.036.027.726.113 1.448.259 2.162.436 1.119.277 2.232.63 3.383.663.303.01.609-.005.904-.072a2 2 0 0 0 .818-.382c.354-.288.58-.723.662-1.175.082-.453.031-.926-.099-1.368-.26-.884-.818-1.637-1.279-2.43-.183-.314-.352-.634-.533-.948 1.39-1.594 2.509-3.437 3.156-5.462.706-2.21.836-4.591.539-6.897-.298-2.305-1.014-4.54-1.955-6.657-1.182-2.652-2.176-3.612-2.897-5.942-.778-2.52-.136-5.5-.715-7.785a8.072 8.072 0 0 0-.958-2.197 7.47 7.47 0 0 0-1.874-2.061C32.838 7.47 31.339 7 29.816 7Z" />
    </mask>
    <g filter="url(#F)" mask="url(#E)" opacity=".2">
      <path fill="url(#G)"
        d="M45.958 45.742c-.07.24-.18.471-.319.683-.307.466-.756.818-1.203 1.141-.762.552-1.557 1.059-2.267 1.686-.475.42-.91.893-1.311 1.389-.343.424-.667.87-1.06 1.247-.395.38-.86.69-1.36.857a3.236 3.236 0 0 1-1.843.04c-.411-.108-.814-.295-1.07-.635-.255-.34-.337-.798-.367-1.247-.053-.794.04-1.605.125-2.411.07-.67.135-1.34.162-2.01a20.787 20.787 0 0 0-.192-3.602c-.028-.2-.056-.399-.04-.602a.976.976 0 0 1 .223-.575.936.936 0 0 1 .49-.273c.18-.043.363-.045.544-.05.428-.011.855-.038 1.276.001.265.024.526.074.79.1.441.042.9.02 1.344-.112.476-.144.93-.412 1.416-.485.199-.03.398-.027.591.002.197.026.394.082.545.206.116.094.2.221.266.358.099.204.158.43.194.661.03.205.042.415.093.613.084.325.278.602.508.826.232.225.502.403.773.579.269.174.54.347.826.49.136.069.275.13.403.207.13.08.25.174.336.3.116.17.162.395.127.616Z" />
    </g>
    <path fill="url(#H)"
      d="M48.554 47.056c-.397.482-.95.8-1.5 1.087-.938.487-1.911.917-2.792 1.504-.592.394-1.137.855-1.647 1.353-.436.426-.85.88-1.339 1.242-.494.365-1.064.629-1.668.72a3.363 3.363 0 0 1-.503.038c-.57 0-1.14-.14-1.664-.374-.475-.21-.932-.514-1.207-.963-.274-.453-.338-1.004-.338-1.538-.001-.94.17-1.87.33-2.798a35.6 35.6 0 0 0 .342-2.32c.15-1.412.148-2.84.05-4.26-.018-.237-.037-.476-.002-.711.035-.236.13-.471.306-.626a.973.973 0 0 1 .598-.219c.215-.012.43.022.642.054.502.076 1.008.133 1.5.266.309.083.611.194.92.28.517.142 1.057.21 1.586.148.572-.069 1.128-.288 1.703-.273.236.005.47.05.695.123.229.074.456.18.624.356.129.133.219.3.285.475.1.258.155.535.178.812.02.246.016.496.062.738.075.398.281.762.535 1.073.255.313.56.577.863.837.305.261.61.52.936.748.153.108.312.208.458.325.146.119.28.255.37.42a.996.996 0 0 1 .082.757c-.08.257-.225.507-.405.726Z" />
    <mask id="I" width="14" height="14" x="35" y="39" maskUnits="userSpaceOnUse" style="mask-type:luminance">
      <path fill="#fff"
        d="M48.554 47.056c-.397.482-.95.8-1.5 1.087-.938.487-1.911.917-2.792 1.504-.592.394-1.137.855-1.647 1.353-.436.426-.85.88-1.339 1.242-.494.365-1.064.629-1.668.72a3.363 3.363 0 0 1-.503.038c-.57 0-1.14-.14-1.664-.374-.475-.21-.932-.514-1.207-.963-.274-.453-.338-1.004-.338-1.538-.001-.94.17-1.87.33-2.798a35.6 35.6 0 0 0 .342-2.32c.15-1.412.148-2.84.05-4.26-.018-.237-.037-.476-.002-.711.035-.236.13-.471.306-.626a.973.973 0 0 1 .598-.219c.215-.012.43.022.642.054.502.076 1.008.133 1.5.266.309.083.611.194.92.28.517.142 1.057.21 1.586.148.572-.069 1.128-.288 1.703-.273.236.005.47.05.695.123.229.074.456.18.624.356.129.133.219.3.285.475.1.258.155.535.178.812.02.246.016.496.062.738.075.398.281.762.535 1.073.255.313.56.577.863.837.305.261.61.52.936.748.153.108.312.208.458.325.146.119.28.255.37.42a.996.996 0 0 1 .082.757c-.08.257-.225.507-.405.726Z" />
    </mask>
    <g filter="url(#J)" mask="url(#I)">
      <path fill="#CD8907"
        d="M48.507 45.834a2.347 2.347 0 0 1-.39.66c-.364.434-.867.72-1.369.977-.858.439-1.745.823-2.55 1.351-.54.354-1.039.77-1.505 1.219-.398.382-.776.792-1.223 1.116a3.496 3.496 0 0 1-1.521.646c-.669.101-1.358-.028-1.98-.3-.432-.19-.851-.46-1.103-.868-.25-.406-.307-.902-.307-1.381-.004-.847.153-1.684.3-2.516.123-.692.24-1.385.313-2.084.134-1.273.129-2.556.045-3.831-.015-.214-.03-.43.001-.642.032-.212.118-.422.276-.562a.885.885 0 0 1 .548-.198c.195-.01.39.022.585.05.46.069.92.12 1.37.24.282.075.559.175.84.25.471.13.966.191 1.45.134.522-.061 1.029-.259 1.553-.246.216.005.43.046.635.111.21.067.417.162.572.32.116.12.195.271.26.428.094.231.157.48.16.731.006.262-.049.525-.015.785.028.21.116.41.228.59.111.18.247.343.382.505.26.314.52.634.848.875.371.274.813.436 1.196.691.115.078.225.164.306.277.138.19.173.45.095.672Z" />
    </g>
    <mask id="K" width="14" height="14" x="35" y="39" maskUnits="userSpaceOnUse" style="mask-type:luminance">
      <path fill="#fff"
        d="M48.554 47.056c-.397.482-.95.8-1.5 1.087-.938.487-1.911.917-2.792 1.504-.592.394-1.137.855-1.647 1.353-.436.426-.85.88-1.339 1.242-.494.365-1.064.629-1.668.72a3.363 3.363 0 0 1-.503.038c-.57 0-1.14-.14-1.664-.374-.475-.21-.932-.514-1.207-.963-.274-.453-.338-1.004-.338-1.538-.001-.94.17-1.87.33-2.798a35.6 35.6 0 0 0 .342-2.32c.15-1.412.148-2.84.05-4.26-.018-.237-.037-.476-.002-.711.035-.236.13-.471.306-.626a.973.973 0 0 1 .598-.219c.215-.012.43.022.642.054.502.076 1.008.133 1.5.266.309.083.611.194.92.28.517.142 1.057.21 1.586.148.572-.069 1.128-.288 1.703-.273.236.005.47.05.695.123.229.074.456.18.624.356.129.133.219.3.285.475.1.258.155.535.178.812.02.246.016.496.062.738.075.398.281.762.535 1.073.255.313.56.577.863.837.305.261.61.52.936.748.153.108.312.208.458.325.146.119.28.255.37.42a.996.996 0 0 1 .082.757c-.08.257-.225.507-.405.726Z" />
    </mask>
    <g filter="url(#L)" mask="url(#K)">
      <path fill="#F5C021"
        d="M48.456 45.563a2.934 2.934 0 0 1-.401.666c-.373.464-.878.782-1.408.987-.874.337-1.828.382-2.684.767-.523.234-.994.586-1.471.92-.384.268-.778.528-1.2.715-.479.214-.985.333-1.495.417a4.6 4.6 0 0 1-.98.074 2.076 2.076 0 0 1-.945-.268 1.342 1.342 0 0 1-.533-.557c-.128-.268-.151-.582-.15-.888.01-.808.18-1.61.175-2.42-.006-.706-.143-1.402-.182-2.106-.075-1.355.21-2.731-.042-4.06-.038-.213-.093-.425-.091-.643a.973.973 0 0 1 .054-.318.62.62 0 0 1 .178-.255.554.554 0 0 1 .23-.1.765.765 0 0 1 .248.002c.164.026.32.091.48.14.458.14.942.136 1.408.242.292.065.574.175.864.254.484.136.99.194 1.488.134.535-.064 1.058-.262 1.596-.248.222.006.44.047.653.112.212.064.425.156.587.323.114.12.199.273.266.431.1.232.169.484.167.739-.002.133-.021.264-.034.397a1.29 1.29 0 0 0 .016.395c.032.13.097.247.171.353.074.106.158.2.236.305.214.29.37.627.536.952.167.326.356.647.621.883.361.318.827.445 1.23.699.118.073.23.16.313.278a.75.75 0 0 1 .129.325.82.82 0 0 1-.03.353Z" />
    </g>
    <mask id="M" width="14" height="14" x="35" y="39" maskUnits="userSpaceOnUse" style="mask-type:luminance">
      <path fill="#fff"
        d="M48.554 47.056c-.397.482-.95.8-1.5 1.087-.938.487-1.911.917-2.792 1.504-.592.394-1.137.855-1.647 1.353-.436.426-.85.88-1.339 1.242-.494.365-1.064.629-1.668.72a3.363 3.363 0 0 1-.503.038c-.57 0-1.14-.14-1.664-.374-.475-.21-.932-.514-1.207-.963-.274-.453-.338-1.004-.338-1.538-.001-.94.17-1.87.33-2.798a35.6 35.6 0 0 0 .342-2.32c.15-1.412.148-2.84.05-4.26-.018-.237-.037-.476-.002-.711.035-.236.13-.471.306-.626a.973.973 0 0 1 .598-.219c.215-.012.43.022.642.054.502.076 1.008.133 1.5.266.309.083.611.194.92.28.517.142 1.057.21 1.586.148.572-.069 1.128-.288 1.703-.273.236.005.47.05.695.123.229.074.456.18.624.356.129.133.219.3.285.475.1.258.155.535.178.812.02.246.016.496.062.738.075.398.281.762.535 1.073.255.313.56.577.863.837.305.261.61.52.936.748.153.108.312.208.458.325.146.119.28.255.37.42a.996.996 0 0 1 .082.757c-.08.257-.225.507-.405.726Z" />
    </mask>
    <g filter="url(#N)" mask="url(#M)">
      <path fill="url(#O)"
        d="M37.051 39.628c.496-.137.919.248 1.28.537.232.203.57.153.854.162.474-.016.943.08 1.416.021.933-.08 1.846-.314 2.782-.354.447-.028.95-.055 1.335.21.157.112.387.58.54.405-.063-.492-.42-.969-.899-1.1-.376-.06-.756.045-1.136.01-1.124-.026-2.243-.24-3.37-.179-.785.007-1.568-.03-2.353-.06-.308-.066-.417.213-.584.32.044.035.06.046.135.028Z" />
    </g>
    <mask id="P" width="14" height="14" x="35" y="39" maskUnits="userSpaceOnUse" style="mask-type:luminance">
      <path fill="#fff"
        d="M48.555 47.056c-.398.482-.95.8-1.501 1.087-.938.487-1.91.917-2.792 1.504-.591.394-1.136.855-1.647 1.353-.436.426-.85.88-1.339 1.242-.494.365-1.064.629-1.667.72a3.363 3.363 0 0 1-.503.038c-.57 0-1.14-.14-1.665-.374-.475-.21-.932-.514-1.207-.963-.274-.453-.337-1.004-.337-1.538-.002-.94.169-1.87.329-2.798a35.6 35.6 0 0 0 .343-2.32c.15-1.412.148-2.84.049-4.26-.018-.237-.037-.476-.002-.711.035-.236.13-.471.306-.626a.973.973 0 0 1 .599-.219c.214-.012.429.022.642.054.501.076 1.008.133 1.498.266.31.083.613.194.92.28.518.142 1.058.21 1.587.148.572-.069 1.128-.288 1.703-.273.236.005.47.05.695.123.229.074.456.18.625.356.128.133.218.3.285.475.1.258.155.535.178.812.019.246.015.496.061.738.076.398.282.762.535 1.073.255.313.56.577.864.837.304.261.608.52.936.748.153.108.311.208.457.325.146.119.28.255.371.42a.997.997 0 0 1 .081.757c-.079.257-.225.507-.404.726Z" />
    </mask>
    <g filter="url(#Q)" mask="url(#P)" opacity=".35">
      <path fill="url(#R)"
        d="M43.631 40.711a.805.805 0 0 0-.413-.372 1.368 1.368 0 0 0-.551-.097c-.375.004-.748.102-1.122.07-.315-.029-.614-.15-.922-.226-.319-.08-.656-.11-.971-.022a1.432 1.432 0 0 0-.822.627c-.165.266-.243.58-.267.895-.025.315.001.629.033.943.021.227.048.453.1.674.055.221.138.437.268.622.188.266.468.456.769.57a2.099 2.099 0 0 0 1.535-.027 4.27 4.27 0 0 0 2.39-2.86c.031-.132.056-.267.056-.404a.841.841 0 0 0-.083-.393Z" />
    </g>
    <mask id="S" width="14" height="14" x="35" y="39" maskUnits="userSpaceOnUse" style="mask-type:luminance">
      <path fill="#fff"
        d="M48.555 47.056c-.398.482-.95.8-1.501 1.087-.938.487-1.91.917-2.792 1.504-.591.394-1.136.855-1.647 1.353-.436.426-.85.88-1.339 1.242-.494.365-1.064.629-1.667.72a3.363 3.363 0 0 1-.503.038c-.57 0-1.14-.14-1.665-.374-.475-.21-.932-.514-1.207-.963-.274-.453-.337-1.004-.337-1.538-.002-.94.169-1.87.329-2.798a35.6 35.6 0 0 0 .343-2.32c.15-1.412.148-2.84.049-4.26-.018-.237-.037-.476-.002-.711.035-.236.13-.471.306-.626a.973.973 0 0 1 .599-.219c.214-.012.429.022.642.054.501.076 1.008.133 1.498.266.31.083.613.194.92.28.518.142 1.058.21 1.587.148.572-.069 1.128-.288 1.703-.273.236.005.47.05.695.123.229.074.456.18.625.356.128.133.218.3.285.475.1.258.155.535.178.812.019.246.015.496.061.738.076.398.282.762.535 1.073.255.313.56.577.864.837.304.261.608.52.936.748.153.108.311.208.457.325.146.119.28.255.371.42a.997.997 0 0 1 .081.757c-.079.257-.225.507-.404.726Z" />
    </mask>
    <g filter="url(#T)" mask="url(#S)" opacity=".35">
      <path fill="url(#U)"
        d="M43.631 40.223c-.084-.124-.24-.216-.413-.27a1.862 1.862 0 0 0-.551-.07c-.375.004-.748.076-1.122.05-.315-.02-.614-.107-.922-.161-.319-.058-.656-.081-.971-.016-.338.066-.636.233-.822.453-.165.192-.243.42-.267.646-.025.227.001.455.033.681.021.164.048.33.1.49.055.16.138.315.268.448.188.193.468.33.769.412a2.84 2.84 0 0 0 1.535-.02c.859-.275 1.585-.769 2.027-1.376.16-.22.283-.451.362-.69a.947.947 0 0 0 .057-.291.47.47 0 0 0-.083-.286Z" />
    </g>
    <path fill="#020204"
      d="M44.347 39.114a1.141 1.141 0 0 0-.303-.444 1.623 1.623 0 0 0-.452-.288c-.327-.142-.684-.195-1.036-.262-.33-.063-.658-.14-.989-.198-.345-.059-.7-.098-1.041-.02a1.766 1.766 0 0 0-.8.437 2.33 2.33 0 0 0-.527.757c-.223.501-.294 1.064-.252 1.612.032.407.134.828.396 1.135.213.25.514.406.824.5a2.74 2.74 0 0 0 1.646-.024 4.356 4.356 0 0 0 2.173-1.669c.172-.257.32-.535.387-.837.051-.23.053-.478-.026-.7Z" />
    <mask id="V" width="7" height="6" x="38" y="37" maskUnits="userSpaceOnUse" style="mask-type:luminance">
      <path fill="#fff"
        d="M44.347 39.114a1.141 1.141 0 0 0-.303-.444 1.623 1.623 0 0 0-.452-.288c-.327-.142-.684-.195-1.036-.262-.33-.063-.658-.14-.989-.198-.345-.059-.7-.098-1.041-.02a1.766 1.766 0 0 0-.8.437 2.33 2.33 0 0 0-.527.757c-.223.501-.294 1.064-.252 1.612.032.407.134.828.396 1.135.213.25.514.406.824.5a2.74 2.74 0 0 0 1.646-.024 4.356 4.356 0 0 0 2.173-1.669c.172-.257.32-.535.387-.837.051-.23.053-.478-.026-.7Z" />
    </mask>
    <g filter="url(#W)" mask="url(#V)">
      <path fill="url(#X)"
        d="M40.712 37.74a1.891 1.891 0 0 0-1.525.934 1.963 1.963 0 0 0-.252 1.108c.012-.27.08-.533.21-.769.215-.4.61-.702 1.051-.785.271-.05.55-.02.823.014.264.035.528.07.787.126.4.09.797.227 1.133.466.077.055.151.118.213.194.061.073.109.16.128.255a.626.626 0 0 1-.08.411 1.538 1.538 0 0 1-.261.334 5.22 5.22 0 0 1-.252.238c.389-.078.781-.185 1.105-.415.136-.1.26-.216.341-.363a.713.713 0 0 0 .076-.495.752.752 0 0 0-.162-.3 1.449 1.449 0 0 0-.255-.222 3 3 0 0 0-1.374-.538 15.73 15.73 0 0 0-.953-.149 4.067 4.067 0 0 0-.753-.045Z" />
    </g>
    <mask id="Y" width="7" height="6" x="38" y="37" maskUnits="userSpaceOnUse" style="mask-type:luminance">
      <path fill="#fff"
        d="M44.347 39.114a1.141 1.141 0 0 0-.303-.444 1.623 1.623 0 0 0-.452-.288c-.327-.142-.684-.195-1.036-.262-.33-.063-.658-.14-.989-.198-.345-.059-.7-.098-1.041-.02a1.766 1.766 0 0 0-.8.437 2.33 2.33 0 0 0-.527.757c-.223.501-.294 1.064-.252 1.612.032.407.134.828.396 1.135.213.25.514.406.824.5a2.74 2.74 0 0 0 1.646-.024 4.356 4.356 0 0 0 2.173-1.669c.172-.257.32-.535.387-.837.051-.23.053-.478-.026-.7Z" />
    </mask>
    <g filter="url(#Z)" mask="url(#Y)">
      <path fill="url(#aa)"
        d="M40.712 37.74a1.891 1.891 0 0 0-1.525.934 1.963 1.963 0 0 0-.252 1.108c.012-.27.08-.533.21-.769.215-.4.61-.702 1.051-.785.271-.05.55-.02.823.014.264.035.528.07.787.126.4.09.797.227 1.133.466.077.055.151.118.213.194.061.073.109.16.128.255a.626.626 0 0 1-.08.411 1.538 1.538 0 0 1-.261.334 5.22 5.22 0 0 1-.252.238c.389-.078.781-.185 1.105-.415.136-.1.26-.216.341-.363a.713.713 0 0 0 .076-.495.752.752 0 0 0-.162-.3 1.449 1.449 0 0 0-.255-.222 3 3 0 0 0-1.374-.538 15.73 15.73 0 0 0-.953-.149 4.067 4.067 0 0 0-.753-.045Z" />
    </g>
    <path fill="url(#ab)"
      d="M25.858 13.878c-.27.015-.528.142-.725.331a1.687 1.687 0 0 0-.424.697c-.171.525-.132 1.093-.094 1.644.036.498.073 1.007.256 1.47.091.234.22.451.39.63s.387.317.625.376c.221.058.46.047.679-.023.22-.072.418-.2.584-.363.239-.239.4-.552.492-.88.094-.33.12-.674.115-1.017a4.378 4.378 0 0 0-.192-1.264 2.882 2.882 0 0 0-.633-1.097 1.773 1.773 0 0 0-.484-.37 1.187 1.187 0 0 0-.59-.134Z" />
    <path fill="#020204"
      d="M25.206 16.162c-.057.348-.059.713.058 1.044.077.219.205.419.36.59.1.11.217.211.35.278.136.066.29.093.437.057a.64.64 0 0 0 .336-.232c.086-.11.144-.24.184-.375.122-.397.102-.83-.019-1.227-.086-.29-.232-.568-.457-.762a.9.9 0 0 0-.373-.2.634.634 0 0 0-.416.034.724.724 0 0 0-.325.335c-.072.142-.11.3-.136.458Z" />
    <mask id="ac" width="3" height="4" x="25" y="15" maskUnits="userSpaceOnUse" style="mask-type:luminance">
      <path fill="#fff"
        d="M25.206 16.162c-.057.348-.059.713.058 1.044.077.219.205.419.36.59.1.11.217.211.35.278.136.066.29.093.437.057a.64.64 0 0 0 .336-.232c.086-.11.144-.24.184-.375.122-.397.102-.83-.019-1.227-.086-.29-.232-.568-.457-.762a.9.9 0 0 0-.373-.2.634.634 0 0 0-.416.034.724.724 0 0 0-.325.335c-.072.142-.11.3-.136.458Z" />
    </mask>
    <g filter="url(#ad)" mask="url(#ac)">
      <path fill="url(#ae)"
        d="M25.925 15.91c.037.099.16.135.23.214a.904.904 0 0 1 .17.252c.068.181-.069.45.075.58.044.04.136.041.18 0 .174-.162.135-.487.067-.717a.87.87 0 0 0-.407-.503c-.088-.047-.22-.085-.295-.02-.048.043-.042.133-.02.194Z" />
    </g>
    <mask id="af" width="4" height="7" x="24" y="13" maskUnits="userSpaceOnUse" style="mask-type:luminance">
      <path fill="#fff"
        d="M25.858 13.878c-.27.015-.528.142-.725.331a1.687 1.687 0 0 0-.424.697c-.171.525-.132 1.093-.094 1.644.036.498.073 1.007.256 1.47.091.234.22.451.39.63s.387.317.625.376c.221.058.46.047.679-.023.22-.072.418-.2.584-.363.239-.239.4-.552.492-.88.094-.33.12-.674.115-1.017a4.378 4.378 0 0 0-.192-1.264 2.882 2.882 0 0 0-.633-1.097 1.773 1.773 0 0 0-.484-.37 1.187 1.187 0 0 0-.59-.134Z" />
    </mask>
    <g mask="url(#af)">
      <path fill="url(#ag)"
        d="M25.276 14.989c.408-.248.902-.306 1.376-.26.471.046.927.186 1.384.314.336.093.676.18.99.33.314.151.606.374.78.683.028.049.05.1.08.15.03.048.066.093.11.127s.1.058.155.054a.17.17 0 0 0 .079-.023.15.15 0 0 0 .058-.062.198.198 0 0 0 .018-.095.473.473 0 0 0-.018-.097c-.114-.426-.385-.787-.59-1.177-.122-.233-.225-.478-.348-.711-.427-.8-1.13-1.427-1.926-1.835-.797-.408-1.687-.604-2.577-.656-1.031-.063-2.064.063-3.08.246-.442.08-.891.173-1.28.397a1.723 1.723 0 0 0-.514.435c-.14.178-.239.392-.272.619-.03.219.002.443.077.65.074.207.19.395.327.566.271.343.621.61.943.904.322.293.62.618.98.86.18.123.375.223.583.283.207.059.429.075.64.03.218-.045.422-.154.6-.294.178-.139.33-.306.477-.479.292-.346.564-.725.948-.959Z" />
    </g>
    <g filter="url(#ah)">
      <path fill="url(#ai)"
        d="M26.969 13.57c.38.364.661.813.853 1.287-.085-.522-.217-.945-.55-1.286a2.575 2.575 0 0 0-.701-.489c-.232-.106-.487-.172-.635-.174-.146-.004-.181 0-.211.002-.032.001-.055.001.04.014.095.01.308.07.537.174.229.104.46.277.667.473Z" />
    </g>
    <path fill="url(#aj)"
      d="M30.636 13.878c-.42.296-.774.708-.947 1.2-.218.62-.135 1.314.076 1.936.214.637.575 1.245 1.119 1.628.27.192.585.323.913.363.329.04.668-.017.962-.171.355-.19.628-.523.797-.895.169-.374.241-.785.264-1.197a4.109 4.109 0 0 0-.19-1.547c-.183-.537-.514-1.033-.982-1.342a1.889 1.889 0 0 0-.774-.3 1.622 1.622 0 0 0-.821.093c-.148.06-.285.14-.417.232Z" />
    <path fill="#020204"
      d="M31.608 15.18a.965.965 0 0 0-.449.152 1.176 1.176 0 0 0-.338.338c-.18.267-.26.594-.272.92-.01.242.017.488.096.718.08.23.212.444.396.599.188.16.426.255.67.267.245.011.491-.06.692-.203.16-.113.288-.27.38-.445.091-.174.148-.369.172-.566a1.78 1.78 0 0 0-.163-1.023 1.405 1.405 0 0 0-.746-.69c-.141-.052-.29-.079-.438-.068Z" />
    <mask id="ak" width="3" height="4" x="30" y="15" maskUnits="userSpaceOnUse" style="mask-type:luminance">
      <path fill="#fff"
        d="M31.608 15.18a.965.965 0 0 0-.449.152 1.176 1.176 0 0 0-.338.338c-.18.267-.26.594-.272.92-.01.242.017.488.096.718.08.23.212.444.396.599.188.16.426.255.67.267.245.011.491-.06.692-.203.16-.113.288-.27.38-.445.091-.174.148-.369.172-.566a1.78 1.78 0 0 0-.163-1.023 1.405 1.405 0 0 0-.746-.69c-.141-.052-.29-.079-.438-.068Z" />
    </mask>
    <g filter="url(#al)" mask="url(#ak)">
      <path fill="url(#am)"
        d="M32.587 16.588c.176-.18-.125-.656-.36-.852-.17-.14-.665-.289-.644-.134.02.152.244.35.392.501.185.185.528.571.612.485Z" />
    </g>
    <mask id="an" width="5" height="7" x="29" y="13" maskUnits="userSpaceOnUse" style="mask-type:luminance">
      <path fill="#fff"
        d="M30.636 13.878c-.42.296-.774.708-.947 1.2-.218.62-.135 1.314.076 1.936.214.637.575 1.245 1.119 1.628.27.192.585.323.913.363.329.04.668-.017.962-.171.355-.19.628-.523.797-.895.169-.374.241-.785.264-1.197a4.109 4.109 0 0 0-.19-1.547c-.183-.537-.514-1.033-.982-1.342a1.889 1.889 0 0 0-.774-.3 1.622 1.622 0 0 0-.821.093c-.148.06-.285.14-.417.232Z" />
    </mask>
    <g mask="url(#an)">
      <path fill="url(#ao)"
        d="M29.044 15.447c.363-.308.783-.541 1.232-.683.923-.291 1.97-.176 2.786.354.282.181.533.408.795.62.26.21.539.407.854.52.17.062.352.098.53.078a.966.966 0 0 0 .453-.172c.134-.096.246-.222.33-.364.17-.283.224-.628.194-.959-.058-.663-.424-1.247-.73-1.835-.096-.183-.188-.37-.304-.54-.354-.527-.92-.874-1.513-1.077-.593-.203-1.22-.276-1.84-.356-.278-.035-.558-.073-.834-.04-.319.04-.618.172-.929.252-.148.04-.297.067-.443.11-.146.043-.29.102-.41.2a1.023 1.023 0 0 0-.33.576 1.865 1.865 0 0 0-.001.678c.069.449.234.886.218 1.34-.01.311-.107.618-.095.93.004.09.021.278.037.367Z" />
    </g>
    <g filter="url(#ap)">
      <path fill="url(#aq)"
        d="M32.1 12.602a1.57 1.57 0 0 0-.188.306c.326.072.635.208.913.397.539.365.947.897 1.233 1.49a1.56 1.56 0 0 0 .18-.246c-.288-.619-.704-1.177-1.26-1.555a2.69 2.69 0 0 0-.878-.392Z" />
    </g>
    <mask id="ar" width="26" height="45" x="17" y="7" maskUnits="userSpaceOnUse" style="mask-type:luminance">
      <path fill="#fff"
        d="M29.816 7c-1.056 0-2.115.212-3.072.74a5.722 5.722 0 0 0-2.363 2.51c-.513 1.057-.714 2.185-.745 3.429-.059 2.361.052 4.837.226 7.082.046.682.13 1.081.044 1.784-.285 1.491-1.562 2.494-2.244 3.804-.752 1.444-1.068 3.078-1.635 4.609-.519 1.4-1.247 2.713-1.738 4.124-.688 1.97-.894 4.138-.44 6.179.347 1.556 1.07 3.015 2.045 4.264-.141.259-.278.523-.423.78-.452.796-1.004 1.552-1.261 2.435-.129.44-.18.91-.097 1.363.083.453.308.886.66 1.174.23.187.51.309.797.377.287.067.584.083.88.077 1.12-.025 2.207-.372 3.291-.663a38.44 38.44 0 0 1 1.94-.463c2.312-.484 4.891-.29 7.036.027.726.113 1.448.259 2.162.436 1.119.277 2.232.63 3.383.663.303.01.609-.005.904-.072a2 2 0 0 0 .818-.382c.354-.288.58-.723.662-1.175.082-.453.031-.926-.099-1.368-.26-.884-.818-1.637-1.279-2.43-.183-.314-.352-.634-.533-.948 1.39-1.594 2.509-3.437 3.156-5.462.706-2.21.836-4.591.539-6.897-.298-2.305-1.014-4.54-1.955-6.657-1.182-2.652-2.176-3.612-2.897-5.942-.778-2.52-.136-5.5-.715-7.785a8.072 8.072 0 0 0-.958-2.197 7.47 7.47 0 0 0-1.874-2.061C32.838 7.47 31.339 7 29.816 7Z" />
    </mask>
    <g filter="url(#as)" mask="url(#ar)">
      <path fill="#000" fill-opacity=".259"
        d="M25.272 23.052c.258.765.777 1.418 1.393 1.926.204.171.42.327.662.437.239.111.504.174.767.15.256-.02.501-.125.726-.254.225-.13.433-.286.651-.426.373-.243.772-.439 1.161-.654.466-.26.92-.557 1.313-.924.18-.167.348-.35.547-.494.199-.145.438-.25.68-.232.184.013.354.092.534.131.09.02.18.03.272.015a.415.415 0 0 0 .241-.12.435.435 0 0 0 .108-.317.763.763 0 0 0-.095-.325c-.104-.203-.262-.377-.333-.595-.063-.194-.05-.402-.046-.605.006-.205.002-.417-.09-.599a.77.77 0 0 0-.321-.318 1.123 1.123 0 0 0-.437-.126c-.302-.028-.605.033-.91.049-.4.023-.805-.027-1.208-.004-.501.033-.994.18-1.497.182-.573.002-1.147-.19-1.713-.099-.245.04-.477.13-.71.208-.233.081-.474.151-.72.148-.28-.006-.551-.104-.831-.124a.952.952 0 0 0-.413.05.582.582 0 0 0-.314.27.572.572 0 0 0-.058.235.881.881 0 0 0 .027.244c.038.159.11.308.169.459.21.551.256 1.153.445 1.712Z" />
    </g>
    <mask id="at" width="26" height="45" x="17" y="7" maskUnits="userSpaceOnUse" style="mask-type:luminance">
      <path fill="#fff"
        d="M29.816 7c-1.056 0-2.115.212-3.072.74a5.722 5.722 0 0 0-2.363 2.51c-.513 1.057-.714 2.185-.745 3.429-.059 2.361.052 4.837.226 7.082.046.682.13 1.081.044 1.784-.285 1.491-1.562 2.494-2.244 3.804-.752 1.444-1.068 3.078-1.635 4.609-.519 1.4-1.247 2.713-1.738 4.124-.688 1.97-.894 4.138-.44 6.179.347 1.556 1.07 3.015 2.045 4.264-.141.259-.278.523-.423.78-.452.796-1.004 1.552-1.261 2.435-.129.44-.18.91-.097 1.363.083.453.308.886.66 1.174.23.187.51.309.797.377.287.067.584.083.88.077 1.12-.025 2.207-.372 3.291-.663a38.44 38.44 0 0 1 1.94-.463c2.312-.484 4.891-.29 7.036.027.726.113 1.448.259 2.162.436 1.119.277 2.232.63 3.383.663.303.01.609-.005.904-.072a2 2 0 0 0 .818-.382c.354-.288.58-.723.662-1.175.082-.453.031-.926-.099-1.368-.26-.884-.818-1.637-1.279-2.43-.183-.314-.352-.634-.533-.948 1.39-1.594 2.509-3.437 3.156-5.462.706-2.21.836-4.591.539-6.897-.298-2.305-1.014-4.54-1.955-6.657-1.182-2.652-2.176-3.612-2.897-5.942-.778-2.52-.136-5.5-.715-7.785a8.072 8.072 0 0 0-.958-2.197 7.47 7.47 0 0 0-1.874-2.061C32.838 7.47 31.339 7 29.816 7Z" />
    </mask>
    <g filter="url(#au)" mask="url(#at)" opacity=".3">
      <path fill="#000"
        d="M24.552 20.872c.501.316.951.706 1.33 1.148.35.411.647.878 1.106 1.182.322.216.711.336 1.105.374.463.043.93-.027 1.378-.151a4.968 4.968 0 0 0 1.178-.487c.699-.404 1.281-.997 2.05-1.263.167-.06.341-.1.503-.173.162-.07.315-.178.392-.329.074-.147.07-.314.095-.474.027-.173.085-.338.116-.509.032-.17.035-.352-.042-.508a.692.692 0 0 0-.318-.298 1.151 1.151 0 0 0-.442-.1c-.303-.015-.603.058-.908.084-.4.034-.805-.015-1.208-.002-.502.014-.996.12-1.497.143-.572.026-1.142-.06-1.714-.079a3.64 3.64 0 0 0-.74.036 1.85 1.85 0 0 0-.69.246c-.2.125-.364.295-.547.44-.092.075-.19.14-.296.193a.918.918 0 0 1-.345.092c-.061.002-.125-.002-.184.007a.395.395 0 0 0-.259.149.354.354 0 0 0-.063.279Z" />
    </g>
    <path fill="url(#av)"
      d="M27.127 17.517c.269-.307.452-.683.709-.999.128-.158.278-.304.452-.406a.984.984 0 0 1 .579-.142c.223.02.432.133.596.29.164.156.285.353.382.56.093.2.167.41.3.582.143.183.342.307.523.453.09.072.178.15.248.24a.77.77 0 0 1 .151.313.678.678 0 0 1-.028.35.794.794 0 0 1-.191.296 1.102 1.102 0 0 1-.627.287c-.46.066-.927-.074-1.393-.061-.47.014-.93.183-1.402.167a1.237 1.237 0 0 1-.667-.205.894.894 0 0 1-.243-.26.747.747 0 0 1-.102-.342.777.777 0 0 1 .069-.334c.044-.106.107-.201.177-.291.143-.178.317-.325.467-.498Z" />
    <path fill="url(#aw)"
      d="M24.57 20.486c.01.046.027.09.05.13.04.07.1.125.163.172.063.048.132.087.199.129.354.228.642.546.899.884.343.453.647.954 1.106 1.283.324.233.711.365 1.105.406.463.047.93-.029 1.378-.163a4.747 4.747 0 0 0 1.178-.53c.699-.44 1.281-1.082 2.05-1.372.167-.063.341-.107.503-.185.162-.079.315-.194.392-.36.074-.157.07-.34.095-.515.027-.185.085-.365.116-.55.032-.185.036-.382-.042-.553a.706.706 0 0 0-.318-.322 1.044 1.044 0 0 0-.442-.111c-.302-.015-.603.065-.908.093-.4.038-.805-.016-1.208-.003-.502.016-.996.13-1.497.156-.572.027-1.142-.063-1.714-.086a3.42 3.42 0 0 0-.742.036 1.676 1.676 0 0 0-.688.271c-.199.14-.357.33-.54.492-.092.081-.19.155-.3.209a.733.733 0 0 1-.348.084c-.061-.002-.126-.01-.184.008a.272.272 0 0 0-.099.062.596.596 0 0 0-.072.094 1.509 1.509 0 0 0-.132.24Z" />
    <mask id="ax" width="10" height="6" x="24" y="18" maskUnits="userSpaceOnUse" style="mask-type:luminance">
      <path fill="#fff"
        d="M24.57 20.486c.01.046.027.09.05.13.04.07.1.125.163.172.063.048.132.087.199.129.354.228.642.546.899.884.343.453.647.954 1.106 1.283.324.233.711.365 1.105.406.463.047.93-.029 1.378-.163a4.747 4.747 0 0 0 1.178-.53c.699-.44 1.281-1.082 2.05-1.372.167-.063.341-.107.503-.185.162-.079.315-.194.392-.36.074-.157.07-.34.095-.515.027-.185.085-.365.116-.55.032-.185.036-.382-.042-.553a.706.706 0 0 0-.318-.322 1.044 1.044 0 0 0-.442-.111c-.302-.015-.603.065-.908.093-.4.038-.805-.016-1.208-.003-.502.016-.996.13-1.497.156-.572.027-1.142-.063-1.714-.086a3.42 3.42 0 0 0-.742.036 1.676 1.676 0 0 0-.688.271c-.199.14-.357.33-.54.492-.092.081-.19.155-.3.209a.733.733 0 0 1-.348.084c-.061-.002-.126-.01-.184.008a.272.272 0 0 0-.099.062.596.596 0 0 0-.072.094 1.509 1.509 0 0 0-.132.24Z" />
    </mask>
    <g filter="url(#ay)" mask="url(#ax)">
      <path fill="#D9B30D"
        d="M26.814 21.116c-.058.247-.023.516.099.739.12.223.323.395.561.476.3.102.637.052.917-.097a.99.99 0 0 0 .404-.37.688.688 0 0 0 .093-.262.617.617 0 0 0-.028-.277.62.62 0 0 0-.174-.246.783.783 0 0 0-.264-.148 2.636 2.636 0 0 0-.688-.122c-.355-.007-.862.061-.92.307Z" />
    </g>
    <mask id="az" width="10" height="6" x="24" y="18" maskUnits="userSpaceOnUse" style="mask-type:luminance">
      <path fill="#fff"
        d="M24.574 20.486c.01.046.026.09.05.13.04.07.1.125.163.172.063.048.132.087.199.129.353.228.642.546.899.884.343.453.647.954 1.106 1.283.324.233.711.365 1.105.406.463.047.93-.029 1.378-.163a4.747 4.747 0 0 0 1.178-.53c.699-.44 1.281-1.082 2.05-1.372.167-.063.341-.107.503-.185.162-.079.315-.194.392-.36.074-.157.07-.34.095-.515.027-.185.085-.365.116-.55.032-.185.036-.382-.042-.553a.706.706 0 0 0-.318-.322 1.044 1.044 0 0 0-.442-.111c-.302-.015-.603.065-.908.093-.4.038-.805-.016-1.208-.003-.502.016-.996.13-1.497.156-.572.027-1.142-.063-1.714-.086a3.42 3.42 0 0 0-.742.036 1.676 1.676 0 0 0-.688.271c-.199.14-.357.33-.54.492-.092.081-.19.155-.3.209a.733.733 0 0 1-.348.084c-.061-.002-.126-.01-.184.008a.272.272 0 0 0-.099.062.602.602 0 0 0-.072.094 1.509 1.509 0 0 0-.132.24Z" />
    </mask>
    <g filter="url(#aA)" mask="url(#az)">
      <path fill="#604405"
        d="M25.836 19.194a8.34 8.34 0 0 0-.591.395c-.1.074-.203.151-.255.264a.636.636 0 0 0-.048.257c0 .09.006.178-.007.266-.007.06-.023.119-.024.178a.215.215 0 0 0 .05.169.213.213 0 0 0 .097.057c.037.011.074.017.113.025.178.044.332.155.468.28.135.125.259.267.401.384.384.32.892.452 1.388.46.496.009.987-.098 1.47-.209.38-.088.76-.178 1.125-.316a4.932 4.932 0 0 0 1.534-.933c.206-.181.398-.38.628-.528.202-.131.43-.217.637-.341a.397.397 0 0 0 .053-.036.188.188 0 0 0 .042-.05.161.161 0 0 0 .005-.112.32.32 0 0 0-.054-.099.828.828 0 0 0-.087-.09c-.216-.188-.508-.257-.793-.28-.283-.022-.57-.005-.85-.054-.264-.045-.513-.146-.769-.228a5.296 5.296 0 0 0-2.785-.155 5.68 5.68 0 0 0-1.748.696Z" />
    </g>
    <path fill="url(#aB)"
      d="M25.769 18.491a3.682 3.682 0 0 0-.78.726c-.126.16-.242.334-.306.528-.05.155-.068.316-.1.476-.012.06-.026.119-.024.18 0 .029.003.06.012.09a.211.211 0 0 0 .044.077.26.26 0 0 0 .13.067c.05.009.099.01.148.016.22.027.422.135.605.264.183.128.352.279.54.399.414.268.908.386 1.399.406.489.02.978-.056 1.46-.155.382-.077.762-.17 1.124-.316.556-.224 1.057-.568 1.534-.932a6.36 6.36 0 0 0 .628-.529c.065-.066.13-.133.2-.194.071-.06.15-.111.238-.14a.883.883 0 0 1 .417-.007c.104.018.208.041.313.038a.505.505 0 0 0 .155-.033.303.303 0 0 0 .196-.289.41.41 0 0 0-.057-.203.679.679 0 0 0-.318-.262c-.174-.08-.363-.117-.547-.164a7.69 7.69 0 0 1-1.643-.613c-.26-.13-.514-.276-.77-.416a4.652 4.652 0 0 0-.816-.372c-.64-.198-1.337-.133-1.968.091-.7.248-1.334.69-1.814 1.267Z" />
    <mask id="aC" width="10" height="5" x="24" y="17" maskUnits="userSpaceOnUse" style="mask-type:luminance">
      <path fill="#fff"
        d="M25.769 18.491a3.682 3.682 0 0 0-.78.726c-.126.16-.242.334-.306.528-.05.155-.068.316-.1.476-.012.06-.026.119-.024.18 0 .029.003.06.012.09a.211.211 0 0 0 .044.077.26.26 0 0 0 .13.067c.05.009.099.01.148.016.22.027.422.135.605.264.183.128.352.279.54.399.414.268.908.386 1.399.406.489.02.978-.056 1.46-.155.382-.077.762-.17 1.124-.316.556-.224 1.057-.568 1.534-.932a6.36 6.36 0 0 0 .628-.529c.065-.066.13-.133.2-.194.071-.06.15-.111.238-.14a.883.883 0 0 1 .417-.007c.104.018.208.041.313.038a.505.505 0 0 0 .155-.033.303.303 0 0 0 .196-.289.41.41 0 0 0-.057-.203.679.679 0 0 0-.318-.262c-.174-.08-.363-.117-.547-.164a7.69 7.69 0 0 1-1.643-.613c-.26-.13-.514-.276-.77-.416a4.652 4.652 0 0 0-.816-.372c-.64-.198-1.337-.133-1.968.091-.7.248-1.334.69-1.814 1.267Z" />
    </mask>
    <g filter="url(#aD)" mask="url(#aC)">
      <path fill="#F6DA4A"
        d="M30.257 18.634a.288.288 0 0 0-.137-.091.359.359 0 0 0-.164-.008.772.772 0 0 0-.299.144 3.423 3.423 0 0 0-.688.654c-.264.329-.482.708-.556 1.127-.012.07-.019.143-.012.214a.322.322 0 0 0 .086.192.28.28 0 0 0 .162.08c.062.01.125 0 .183-.019a.946.946 0 0 0 .306-.207c.505-.463.963-1.017 1.145-1.685a.804.804 0 0 0 .034-.205c0-.07-.018-.14-.06-.196Z" />
    </g>
    <g filter="url(#aE)" opacity=".8">
      <path fill="url(#aF)"
        d="M27.315 17.613c-.136-.045-.358.198-.285.322.019.034.08.077.123.053.061-.034.112-.16.18-.208.043-.032.034-.15-.018-.167Z" />
    </g>
    <g filter="url(#aG)" opacity=".8">
      <path fill="url(#aH)"
        d="M29.045 17.677c.035.116.216.096.322.151.091.049.165.155.269.159.098.001.253-.036.265-.137.016-.131-.172-.216-.293-.264-.157-.061-.358-.094-.503-.01-.034.019-.07.064-.06.101Z" />
    </g>
    <mask id="aI" width="10" height="7" x="24" y="17" maskUnits="userSpaceOnUse" style="mask-type:luminance">
      <path fill="#fff"
        d="M24.574 20.486c.01.046.026.09.05.13.04.07.1.125.163.172.063.048.132.087.199.129.353.228.642.546.899.884.343.453.647.954 1.106 1.283.324.233.711.365 1.105.406.463.047.93-.029 1.378-.163a4.747 4.747 0 0 0 1.178-.53c.699-.44 1.281-1.082 2.05-1.372.167-.063.341-.107.503-.185.162-.079.315-.194.392-.36.074-.157.07-.34.095-.515.027-.185.085-.365.116-.55.032-.185.036-.382-.042-.553a.706.706 0 0 0-.318-.322 1.044 1.044 0 0 0-.442-.111c-.302-.015-.603.065-.908.093-.4.038-.805-.016-1.208-.003-.502.016-.996.13-1.497.156-.572.027-1.142-.063-1.714-.086a3.42 3.42 0 0 0-.742.036 1.676 1.676 0 0 0-.688.271c-.199.14-.357.33-.54.492-.092.081-.19.155-.3.209a.733.733 0 0 1-.348.084c-.061-.002-.126-.01-.184.008a.272.272 0 0 0-.099.062.602.602 0 0 0-.072.094 1.509 1.509 0 0 0-.132.24Z" />
      <path fill="#fff"
        d="M25.769 18.491a3.682 3.682 0 0 0-.78.726c-.126.16-.242.334-.306.528-.05.155-.068.316-.1.476-.012.06-.026.119-.024.18 0 .029.003.06.012.09a.211.211 0 0 0 .044.077.26.26 0 0 0 .13.067c.05.009.099.01.148.016.22.027.422.135.605.264.183.128.352.279.54.399.414.268.908.386 1.399.406.489.02.978-.056 1.46-.155.382-.077.762-.17 1.124-.316.556-.224 1.057-.568 1.534-.932a6.36 6.36 0 0 0 .628-.529c.065-.066.13-.133.2-.194.071-.06.15-.111.238-.14a.883.883 0 0 1 .417-.007c.104.018.208.041.313.038a.505.505 0 0 0 .155-.033.303.303 0 0 0 .196-.289.41.41 0 0 0-.057-.203.679.679 0 0 0-.318-.262c-.174-.08-.363-.117-.547-.164a7.69 7.69 0 0 1-1.643-.613c-.26-.13-.514-.276-.77-.416a4.652 4.652 0 0 0-.816-.372c-.64-.198-1.337-.133-1.968.091-.7.248-1.334.69-1.814 1.267Z" />
    </mask>
    <g filter="url(#aJ)" mask="url(#aI)">
      <path fill="url(#aK)"
        d="M33.744 19.425a.7.7 0 0 1-.17.387.445.445 0 0 1-.324.16.346.346 0 0 1-.288-.16.58.58 0 0 1-.085-.387.72.72 0 0 1 .17-.388.518.518 0 0 1 .154-.119.383.383 0 0 1 .17-.041.33.33 0 0 1 .161.042c.05.027.093.067.128.118.035.051.06.112.074.178a.657.657 0 0 1 .01.21Z" />
    </g>
  </g>
  <defs>
    <filter id="c" width="7.973" height="7.733" x="19.882" y="24.833" color-interpolation-filters="sRGB"
      filterUnits="userSpaceOnUse">
      <feFlood flood-opacity="0" result="BackgroundImageFix" />
      <feBlend in="SourceGraphic" in2="BackgroundImageFix" result="shape" />
      <feGaussianBlur result="effect1_foregroundBlur_2733_41939" stdDeviation=".64" />
    </filter>
    <filter id="f" width="12.074" height="9.693" x="27.325" y="23.747" color-interpolation-filters="sRGB"
      filterUnits="userSpaceOnUse">
      <feFlood flood-opacity="0" result="BackgroundImageFix" />
      <feBlend in="SourceGraphic" in2="BackgroundImageFix" result="shape" />
      <feGaussianBlur result="effect1_foregroundBlur_2733_41939" stdDeviation=".98" />
    </filter>
    <filter id="i" width="6.008" height="6.31" x="24.691" y="25.012" color-interpolation-filters="sRGB"
      filterUnits="userSpaceOnUse">
      <feFlood flood-opacity="0" result="BackgroundImageFix" />
      <feBlend in="SourceGraphic" in2="BackgroundImageFix" result="shape" />
      <feGaussianBlur result="effect1_foregroundBlur_2733_41939" stdDeviation=".68" />
    </filter>
    <filter id="l" width="5.644" height="14.295" x="23.718" y="29.143" color-interpolation-filters="sRGB"
      filterUnits="userSpaceOnUse">
      <feFlood flood-opacity="0" result="BackgroundImageFix" />
      <feBlend in="SourceGraphic" in2="BackgroundImageFix" result="shape" />
      <feGaussianBlur result="effect1_foregroundBlur_2733_41939" stdDeviation="1.25" />
    </filter>
    <filter id="n" width="8.648" height="8.713" x="35.229" y="27.02" color-interpolation-filters="sRGB"
      filterUnits="userSpaceOnUse">
      <feFlood flood-opacity="0" result="BackgroundImageFix" />
      <feBlend in="SourceGraphic" in2="BackgroundImageFix" result="shape" />
      <feGaussianBlur result="effect1_foregroundBlur_2733_41939" stdDeviation="1.78" />
    </filter>
    <filter id="p" width="9.417" height="9.338" x="28.493" y="5.511" color-interpolation-filters="sRGB"
      filterUnits="userSpaceOnUse">
      <feFlood flood-opacity="0" result="BackgroundImageFix" />
      <feBlend in="SourceGraphic" in2="BackgroundImageFix" result="shape" />
      <feGaussianBlur result="effect1_foregroundBlur_2733_41939" stdDeviation="1.73" />
    </filter>
    <filter id="r" width="4.966" height="5.22" x="33.655" y="19.149" color-interpolation-filters="sRGB"
      filterUnits="userSpaceOnUse">
      <feFlood flood-opacity="0" result="BackgroundImageFix" />
      <feBlend in="SourceGraphic" in2="BackgroundImageFix" result="shape" />
      <feGaussianBlur result="effect1_foregroundBlur_2733_41939" stdDeviation=".78" />
    </filter>
    <filter id="t" width="7.999" height="13.78" x="16.024" y="27.373" color-interpolation-filters="sRGB"
      filterUnits="userSpaceOnUse">
      <feFlood flood-opacity="0" result="BackgroundImageFix" />
      <feBlend in="SourceGraphic" in2="BackgroundImageFix" result="shape" />
      <feGaussianBlur result="effect1_foregroundBlur_2733_41939" stdDeviation=".98" />
    </filter>
    <filter id="v" width="9.022" height="17.308" x="35.085" y="26.001" color-interpolation-filters="sRGB"
      filterUnits="userSpaceOnUse">
      <feFlood flood-opacity="0" result="BackgroundImageFix" />
      <feBlend in="SourceGraphic" in2="BackgroundImageFix" result="shape" />
      <feGaussianBlur result="effect1_foregroundBlur_2733_41939" stdDeviation="1.19" />
    </filter>
    <filter id="y" width="26.8" height="26.96" x="4.816" y="32.091" color-interpolation-filters="sRGB"
      filterUnits="userSpaceOnUse">
      <feFlood flood-opacity="0" result="BackgroundImageFix" />
      <feBlend in="SourceGraphic" in2="BackgroundImageFix" result="shape" />
      <feGaussianBlur result="effect1_foregroundBlur_2733_41939" stdDeviation="3.38" />
    </filter>
    <filter id="A" width="20.163" height="21.154" x="7.835" y="34.063" color-interpolation-filters="sRGB"
      filterUnits="userSpaceOnUse">
      <feFlood flood-opacity="0" result="BackgroundImageFix" />
      <feBlend in="SourceGraphic" in2="BackgroundImageFix" result="shape" />
      <feGaussianBlur result="effect1_foregroundBlur_2733_41939" stdDeviation="2.1" />
    </filter>
    <filter id="C" width="5.27" height="8.673" x="19.368" y="40.178" color-interpolation-filters="sRGB"
      filterUnits="userSpaceOnUse">
      <feFlood flood-opacity="0" result="BackgroundImageFix" />
      <feBlend in="SourceGraphic" in2="BackgroundImageFix" result="shape" />
      <feGaussianBlur result="effect1_foregroundBlur_2733_41939" stdDeviation=".32" />
    </filter>
    <filter id="F" width="18.627" height="19.837" x="31.242" y="36.962" color-interpolation-filters="sRGB"
      filterUnits="userSpaceOnUse">
      <feFlood flood-opacity="0" result="BackgroundImageFix" />
      <feBlend in="SourceGraphic" in2="BackgroundImageFix" result="shape" />
      <feGaussianBlur result="effect1_foregroundBlur_2733_41939" stdDeviation="1.95" />
    </filter>
    <filter id="J" width="28.469" height="28.898" x="28.319" y="31.179" color-interpolation-filters="sRGB"
      filterUnits="userSpaceOnUse">
      <feFlood flood-opacity="0" result="BackgroundImageFix" />
      <feBlend in="SourceGraphic" in2="BackgroundImageFix" result="shape" />
      <feGaussianBlur result="effect1_foregroundBlur_2733_41939" stdDeviation="4.12" />
    </filter>
    <filter id="L" width="23.924" height="24.109" x="30.809" y="32.244" color-interpolation-filters="sRGB"
      filterUnits="userSpaceOnUse">
      <feFlood flood-opacity="0" result="BackgroundImageFix" />
      <feBlend in="SourceGraphic" in2="BackgroundImageFix" result="shape" />
      <feGaussianBlur result="effect1_foregroundBlur_2733_41939" stdDeviation="3.12" />
    </filter>
    <filter id="N" width="9.982" height="3.019" x="36.096" y="38.45" color-interpolation-filters="sRGB"
      filterUnits="userSpaceOnUse">
      <feFlood flood-opacity="0" result="BackgroundImageFix" />
      <feBlend in="SourceGraphic" in2="BackgroundImageFix" result="shape" />
      <feGaussianBlur result="effect1_foregroundBlur_2733_41939" stdDeviation=".41" />
    </filter>
    <filter id="Q" width="14.961" height="14.317" x="33.653" y="35.111" color-interpolation-filters="sRGB"
      filterUnits="userSpaceOnUse">
      <feFlood flood-opacity="0" result="BackgroundImageFix" />
      <feBlend in="SourceGraphic" in2="BackgroundImageFix" result="shape" />
      <feGaussianBlur result="effect1_foregroundBlur_2733_41939" stdDeviation="2.45" />
    </filter>
    <filter id="T" width="9.641" height="7.746" x="36.313" y="37.477" color-interpolation-filters="sRGB"
      filterUnits="userSpaceOnUse">
      <feFlood flood-opacity="0" result="BackgroundImageFix" />
      <feBlend in="SourceGraphic" in2="BackgroundImageFix" result="shape" />
      <feGaussianBlur result="effect1_foregroundBlur_2733_41939" stdDeviation="1.12" />
    </filter>
    <filter id="W" width="8.815" height="6.05" x="37.17" y="35.975" color-interpolation-filters="sRGB"
      filterUnits="userSpaceOnUse">
      <feFlood flood-opacity="0" result="BackgroundImageFix" />
      <feBlend in="SourceGraphic" in2="BackgroundImageFix" result="shape" />
      <feGaussianBlur result="effect1_foregroundBlur_2733_41939" stdDeviation=".88" />
    </filter>
    <filter id="Z" width="8.815" height="6.05" x="37.17" y="35.975" color-interpolation-filters="sRGB"
      filterUnits="userSpaceOnUse">
      <feFlood flood-opacity="0" result="BackgroundImageFix" />
      <feBlend in="SourceGraphic" in2="BackgroundImageFix" result="shape" />
      <feGaussianBlur result="effect1_foregroundBlur_2733_41939" stdDeviation=".88" />
    </filter>
    <filter id="ad" width="2.556" height="3.065" x="25.028" y="14.802" color-interpolation-filters="sRGB"
      filterUnits="userSpaceOnUse">
      <feFlood flood-opacity="0" result="BackgroundImageFix" />
      <feBlend in="SourceGraphic" in2="BackgroundImageFix" result="shape" />
      <feGaussianBlur result="effect1_foregroundBlur_2733_41939" stdDeviation=".44" />
    </filter>
    <filter id="ah" width="2.605" height="2.431" x="25.457" y="12.666" color-interpolation-filters="sRGB"
      filterUnits="userSpaceOnUse">
      <feFlood flood-opacity="0" result="BackgroundImageFix" />
      <feBlend in="SourceGraphic" in2="BackgroundImageFix" result="shape" />
      <feGaussianBlur result="effect1_foregroundBlur_2733_41939" stdDeviation=".12" />
    </filter>
    <filter id="al" width="2.858" height="2.864" x="30.682" y="14.636" color-interpolation-filters="sRGB"
      filterUnits="userSpaceOnUse">
      <feFlood flood-opacity="0" result="BackgroundImageFix" />
      <feBlend in="SourceGraphic" in2="BackgroundImageFix" result="shape" />
      <feGaussianBlur result="effect1_foregroundBlur_2733_41939" stdDeviation=".45" />
    </filter>
    <filter id="ap" width="2.846" height="2.712" x="31.652" y="12.342" color-interpolation-filters="sRGB"
      filterUnits="userSpaceOnUse">
      <feFlood flood-opacity="0" result="BackgroundImageFix" />
      <feBlend in="SourceGraphic" in2="BackgroundImageFix" result="shape" />
      <feGaussianBlur result="effect1_foregroundBlur_2733_41939" stdDeviation=".13" />
    </filter>
    <filter id="as" width="16.697" height="12.855" x="21.131" y="16.215" color-interpolation-filters="sRGB"
      filterUnits="userSpaceOnUse">
      <feFlood flood-opacity="0" result="BackgroundImageFix" />
      <feBlend in="SourceGraphic" in2="BackgroundImageFix" result="shape" />
      <feGaussianBlur result="effect1_foregroundBlur_2733_41939" stdDeviation="1.75" />
    </filter>
    <filter id="au" width="12.482" height="7.508" x="22.945" y="17.681" color-interpolation-filters="sRGB"
      filterUnits="userSpaceOnUse">
      <feFlood flood-opacity="0" result="BackgroundImageFix" />
      <feBlend in="SourceGraphic" in2="BackgroundImageFix" result="shape" />
      <feGaussianBlur result="effect1_foregroundBlur_2733_41939" stdDeviation=".8" />
    </filter>
    <filter id="ay" width="5.186" height="4.656" x="25.247" y="19.269" color-interpolation-filters="sRGB"
      filterUnits="userSpaceOnUse">
      <feFlood flood-opacity="0" result="BackgroundImageFix" />
      <feBlend in="SourceGraphic" in2="BackgroundImageFix" result="shape" />
      <feGaussianBlur result="effect1_foregroundBlur_2733_41939" stdDeviation=".77" />
    </filter>
    <filter id="aA" width="10.62" height="6.149" x="23.61" y="17.08" color-interpolation-filters="sRGB"
      filterUnits="userSpaceOnUse">
      <feFlood flood-opacity="0" result="BackgroundImageFix" />
      <feBlend in="SourceGraphic" in2="BackgroundImageFix" result="shape" />
      <feGaussianBlur result="effect1_foregroundBlur_2733_41939" stdDeviation=".65" />
    </filter>
    <filter id="aD" width="4.839" height="5.341" x="26.938" y="17.069" color-interpolation-filters="sRGB"
      filterUnits="userSpaceOnUse">
      <feFlood flood-opacity="0" result="BackgroundImageFix" />
      <feBlend in="SourceGraphic" in2="BackgroundImageFix" result="shape" />
      <feGaussianBlur result="effect1_foregroundBlur_2733_41939" stdDeviation=".73" />
    </filter>
    <filter id="aE" width=".745" height=".788" x="26.816" y="17.407" color-interpolation-filters="sRGB"
      filterUnits="userSpaceOnUse">
      <feFlood flood-opacity="0" result="BackgroundImageFix" />
      <feBlend in="SourceGraphic" in2="BackgroundImageFix" result="shape" />
      <feGaussianBlur result="effect1_foregroundBlur_2733_41939" stdDeviation=".1" />
    </filter>
    <filter id="aG" width="1.26" height=".861" x="28.843" y="17.325" color-interpolation-filters="sRGB"
      filterUnits="userSpaceOnUse">
      <feFlood flood-opacity="0" result="BackgroundImageFix" />
      <feBlend in="SourceGraphic" in2="BackgroundImageFix" result="shape" />
      <feGaussianBlur result="effect1_foregroundBlur_2733_41939" stdDeviation=".1" />
    </filter>
    <filter id="aJ" width="1.796" height="2.015" x="32.413" y="18.417" color-interpolation-filters="sRGB"
      filterUnits="userSpaceOnUse">
      <feFlood flood-opacity="0" result="BackgroundImageFix" />
      <feBlend in="SourceGraphic" in2="BackgroundImageFix" result="shape" />
      <feGaussianBlur result="effect1_foregroundBlur_2733_41939" stdDeviation=".23" />
    </filter>
    <radialGradient id="d" cx="0" cy="0" r="1" gradientTransform="matrix(3.34259 0 0 3.23438 21.764 28.776)"
      gradientUnits="userSpaceOnUse">
      <stop />
      <stop offset="1" stop-opacity=".25" />
    </radialGradient>
    <radialGradient id="g" cx="0" cy="0" r="1" gradientTransform="matrix(4.15185 0 0 3.23438 33.12 30.647)"
      gradientUnits="userSpaceOnUse">
      <stop />
      <stop offset="1" stop-opacity=".25" />
    </radialGradient>
    <radialGradient id="j" cx="0" cy="0" r="1" gradientTransform="matrix(1.64491 0 0 1.79688 27.574 29.905)"
      gradientUnits="userSpaceOnUse">
      <stop />
      <stop offset="1" stop-opacity=".25" />
    </radialGradient>
    <radialGradient id="R" cx="0" cy="0" r="1" gradientTransform="matrix(3.34085 .91432 -.97759 3.57203 40.855 41.954)"
      gradientUnits="userSpaceOnUse">
      <stop stop-color="#110800" />
      <stop offset=".59" stop-color="#A65A00" stop-opacity=".8" />
      <stop offset="1" stop-color="#FF921E" stop-opacity="0" />
    </radialGradient>
    <radialGradient id="U" cx="0" cy="0" r="1" gradientTransform="matrix(3.46968 -.14977 .11515 2.66757 40.855 41.121)"
      gradientUnits="userSpaceOnUse">
      <stop stop-color="#110800" />
      <stop offset=".59" stop-color="#A65A00" stop-opacity=".8" />
      <stop offset="1" stop-color="#FF921E" stop-opacity="0" />
    </radialGradient>
    <radialGradient id="X" cx="0" cy="0" r="1" gradientTransform="matrix(1.12128 .49797 -.23331 .52535 43.484 38.737)"
      gradientUnits="userSpaceOnUse">
      <stop stop-color="#7C7C7C" />
      <stop offset="1" stop-color="#7C7C7C" stop-opacity=".33" />
    </radialGradient>
    <radialGradient id="ab" cx="0" cy="0" r="1" gradientTransform="matrix(1.80139 -.01927 .03013 2.81733 26.216 16.238)"
      gradientUnits="userSpaceOnUse">
      <stop stop-color="#FEFEFC" />
      <stop offset=".75" stop-color="#FEFEFC" />
      <stop offset="1" stop-color="#D4D4D4" />
    </radialGradient>
    <radialGradient id="ag" cx="0" cy="0" r="1" gradientTransform="matrix(1.08492 -.18246 .17185 1.02186 25.936 14.86)"
      gradientUnits="userSpaceOnUse">
      <stop stop-color="#C8C8C8" />
      <stop offset="1" stop-color="#797978" />
    </radialGradient>
    <radialGradient id="aj" cx="0" cy="0" r="1" gradientTransform="matrix(2.39844 -.07699 .09039 2.81599 31.77 16.237)"
      gradientUnits="userSpaceOnUse">
      <stop stop-color="#FEFEFC" />
      <stop offset=".75" stop-color="#FEFEFC" />
      <stop offset="1" stop-color="#D4D4D4" />
    </radialGradient>
    <radialGradient id="av" cx="0" cy="0" r="1"
      gradientTransform="rotate(-36.578 41.022 -33.728) scale(2.02756 1.85138)" gradientUnits="userSpaceOnUse">
      <stop stop-color="#020204" />
      <stop offset=".73" stop-color="#020204" />
      <stop offset="1" stop-color="#5C5C5C" />
    </radialGradient>
    <radialGradient id="aw" cx="0" cy="0" r="1" gradientTransform="rotate(-22.83 63.91 -65.216) scale(4.79135 3.41594)"
      gradientUnits="userSpaceOnUse">
      <stop stop-color="#D2940A" />
      <stop offset=".75" stop-color="#D89C08" />
      <stop offset=".87" stop-color="#B67E07" />
      <stop offset="1" stop-color="#946106" />
    </radialGradient>
    <radialGradient id="aF" cx="0" cy="0" r="1" gradientTransform="matrix(.23222 0 0 .25516 27.207 17.76)"
      gradientUnits="userSpaceOnUse">
      <stop stop-color="#3A2903" />
      <stop offset=".55" stop-color="#735208" />
      <stop offset="1" stop-color="#AC8C04" />
    </radialGradient>
    <radialGradient id="aH" cx="0" cy="0" r="1" gradientTransform="matrix(.48907 0 0 .2911 29.412 17.728)"
      gradientUnits="userSpaceOnUse">
      <stop stop-color="#3A2903" />
      <stop offset=".55" stop-color="#735208" />
      <stop offset="1" stop-color="#AC8C04" />
    </radialGradient>
    <linearGradient id="w" x1="15.078" x2="22.542" y1="41.681" y2="53.942" gradientUnits="userSpaceOnUse">
      <stop stop-color="#B98309" />
      <stop offset="1" stop-color="#382605" />
    </linearGradient>
    <linearGradient id="D" x1="22.342" x2="24.695" y1="44.883" y2="49.222" gradientUnits="userSpaceOnUse">
      <stop stop-color="#EBC40C" />
      <stop offset="1" stop-color="#EBC40C" stop-opacity="0" />
    </linearGradient>
    <linearGradient id="G" x1="36.85" x2="37.45" y1="45.087" y2="49.354" gradientUnits="userSpaceOnUse">
      <stop />
      <stop offset="1" stop-opacity="0" />
    </linearGradient>
    <linearGradient id="H" x1="37.652" x2="45.168" y1="52.465" y2="40.535" gradientUnits="userSpaceOnUse">
      <stop stop-color="#3E2A06" />
      <stop offset="1" stop-color="#AD780A" />
    </linearGradient>
    <linearGradient id="O" x1="39.643" x2="39.419" y1="39.464" y2="41.434" gradientUnits="userSpaceOnUse">
      <stop stop-color="#F3CD0C" />
      <stop offset="1" stop-color="#F3CD0C" stop-opacity="0" />
    </linearGradient>
    <linearGradient id="aa" x1="40.149" x2="40.602" y1="38.19" y2="38.171" gradientUnits="userSpaceOnUse">
      <stop stop-color="#7C7C7C" />
      <stop offset="1" stop-color="#7C7C7C" stop-opacity=".33" />
    </linearGradient>
    <linearGradient id="ae" x1="25.829" x2="26.742" y1="15.38" y2="16.979" gradientUnits="userSpaceOnUse">
      <stop stop-color="#757574" stop-opacity="0" />
      <stop offset=".25" stop-color="#757574" />
      <stop offset=".5" stop-color="#757574" />
      <stop offset="1" stop-color="#757574" stop-opacity="0" />
    </linearGradient>
    <linearGradient id="ai" x1="25.705" x2="27.663" y1="12.841" y2="14.798" gradientUnits="userSpaceOnUse">
      <stop stop-color="#646464" stop-opacity="0" />
      <stop offset=".31" stop-color="#646464" stop-opacity=".58" />
      <stop offset=".47" stop-color="#646464" />
      <stop offset=".73" stop-color="#646464" stop-opacity=".26" />
      <stop offset="1" stop-color="#646464" stop-opacity="0" />
    </linearGradient>
    <linearGradient id="am" x1="31.736" x2="32.78" y1="15.49" y2="16.701" gradientUnits="userSpaceOnUse">
      <stop stop-color="#949494" stop-opacity=".39" />
      <stop offset=".5" stop-color="#949494" />
      <stop offset="1" stop-color="#949494" stop-opacity=".39" />
    </linearGradient>
    <linearGradient id="ao" x1="30.863" x2="34.138" y1="13.509" y2="15.386" gradientUnits="userSpaceOnUse">
      <stop stop-color="#747474" />
      <stop offset=".13" stop-color="#8C8C8C" />
      <stop offset=".25" stop-color="#A4A4A4" />
      <stop offset=".5" stop-color="#D4D4D4" />
      <stop offset=".62" stop-color="#D4D4D4" />
      <stop offset="1" stop-color="#7C7C7C" />
    </linearGradient>
    <linearGradient id="aq" x1="31.965" x2="34.165" y1="12.671" y2="14.705" gradientUnits="userSpaceOnUse">
      <stop stop-color="#646464" stop-opacity="0" />
      <stop offset=".31" stop-color="#646464" stop-opacity=".58" />
      <stop offset=".47" stop-color="#646464" />
      <stop offset=".73" stop-color="#646464" stop-opacity=".26" />
      <stop offset="1" stop-color="#646464" stop-opacity="0" />
    </linearGradient>
    <linearGradient id="aB" x1="24.74" x2="33.304" y1="19.445" y2="19.38" gradientUnits="userSpaceOnUse">
      <stop stop-color="#AD780A" />
      <stop offset=".12" stop-color="#D89E08" />
      <stop offset=".25" stop-color="#EDB80B" />
      <stop offset=".39" stop-color="#EBC80D" />
      <stop offset=".53" stop-color="#F5D838" />
      <stop offset=".77" stop-color="#F6D811" />
      <stop offset="1" stop-color="#F5CD31" />
    </linearGradient>
    <linearGradient id="aK" x1="33.299" x2="33.299" y1="19.127" y2="19.774" gradientUnits="userSpaceOnUse">
      <stop stop-color="#F5CE2D" />
      <stop offset="1" stop-color="#D79B08" />
    </linearGradient>
    <clipPath id="a">
      <path fill="#fff" d="M11 7h38v46H11z" />
    </clipPath>
  </defs>
</svg>
