<svg xmlns="http://www.w3.org/2000/svg" width="60" height="60" fill="none">
  <rect width="60" height="60" fill="#EB5528" rx="7.529" />
  <path fill="#fff"
    d="M51 28.828c0-2.513-2.067-4.552-4.613-4.552-1.255 0-2.362.473-3.174 1.274-3.137-2.221-7.492-3.678-12.29-3.86l2.103-9.724 6.828 1.42c.074 1.712 1.513 3.096 3.285 3.096 1.808 0 3.285-1.456 3.285-3.24 0-1.785-1.477-3.242-3.285-3.242a3.195 3.195 0 0 0-2.916 1.82l-7.64-1.601a.93.93 0 0 0-.627.109c-.184.109-.295.291-.369.51L29.262 21.69c-4.909.146-9.3 1.566-12.475 3.86a4.689 4.689 0 0 0-3.174-1.274C11.067 24.276 9 26.315 9 28.828c0 1.857 1.107 3.423 2.731 4.151-.074.437-.11.91-.11 1.384C11.62 41.355 19.85 47 30.036 47s18.416-5.645 18.416-12.637c0-.473-.037-.91-.11-1.347C49.856 32.287 51 30.685 51 28.828Zm-31.555 3.24c0-1.783 1.476-3.24 3.284-3.24 1.809 0 3.285 1.457 3.285 3.24 0 1.785-1.476 3.242-3.285 3.242-1.808 0-3.284-1.457-3.284-3.241Zm18.342 8.559c-2.251 2.221-6.532 2.367-7.787 2.367s-5.573-.182-7.787-2.367a.85.85 0 0 1 0-1.202.877.877 0 0 1 1.218 0c1.402 1.384 4.428 1.894 6.606 1.894 2.177 0 5.167-.51 6.606-1.894a.877.877 0 0 1 1.218 0c.259.364.259.874-.074 1.202Zm-.59-5.317c-1.809 0-3.285-1.457-3.285-3.241 0-1.785 1.476-3.241 3.285-3.241 1.808 0 3.284 1.457 3.284 3.24 0 1.785-1.476 3.242-3.284 3.242Z" />
</svg>
