<svg xmlns="http://www.w3.org/2000/svg" width="60" height="60" fill="none">
  <rect width="60" height="60" fill="#F48023" rx="7.529" />
  <path fill="#fff" d="M42.4 47.163v-11.51h3.803V51H12V35.653h3.803v11.51H42.4Z" />
  <path fill="#fff"
    d="M19.61 43.326h19.013V39.49H19.61v3.836ZM36.65 8l-3.05 2.29 11.347 15.392 3.051-2.29L36.651 8Zm-9.431 9.075 14.61 12.276 2.434-2.948-14.61-12.276-2.434 2.948Zm-4.77 8.53 17.236 8.1 1.606-3.478-17.237-8.099-1.605 3.478Zm-2.462 8.99 18.607 3.945.783-3.755-18.608-3.945-.782 3.754Z" />
</svg>
