<svg xmlns="http://www.w3.org/2000/svg" width="60" height="60" fill="none">
  <path fill="#000" fill-rule="evenodd"
    d="M7.53 0A7.53 7.53 0 0 0 0 7.53v44.94A7.53 7.53 0 0 0 7.53 60h44.94A7.53 7.53 0 0 0 60 52.47V7.53A7.53 7.53 0 0 0 52.47 0H7.53Zm18.706 8.353c-9.876 0-17.882 8.006-17.882 17.882v7.53c0 9.876 8.006 17.882 17.882 17.882h7.53c9.875 0 17.882-8.006 17.882-17.882v-7.53c0-9.876-8.007-17.882-17.883-17.882h-7.53Z"
    clip-rule="evenodd" />
  <path fill="#000"
    d="M29.529.706C14.195.706 1.764 13.137 1.764 28.471c0 15.333 12.431 27.765 27.765 27.765 15.333 0 27.764-12.432 27.764-27.765C57.293 13.137 44.862.706 29.53.706Zm16.37 21.305c-1.58 3.567-6.408 14.867-9.63 22.232-.005.003-.844-.002-.847-.003l-5.081-11.969c-2.014 3.95-4.245 8.056-6.154 11.963-.01.02-.923.01-.924-.003-2.917-6.81-5.941-13.573-8.874-20.377-.679-1.663-3.06-4.338-4.69-4.323 0-.193-.009-.624-.011-.885l10.045-.001-.008.87c-1.18.054-3.218.807-2.69 2.109 1.416 3.057 6.429 14.899 7.784 17.905.945-1.85 3.585-6.782 4.672-8.867-.852-1.749-3.668-8.277-4.512-9.921-.637-1.072-2.235-1.203-3.465-1.222 0-.274.014-.486.009-.862l8.83.027v.802c-1.196.033-2.328.478-1.815 1.62 1.188 2.466 1.882 4.222 2.972 6.502.348-.668 2.133-4.33 2.984-6.263.514-1.285-.254-1.766-2.404-1.824.028-.211.01-.635.028-.838l7.626.008.004.796c-1.402.054-2.853.8-3.61 1.96l-3.672 7.615c.403 1.007 3.933 8.85 4.305 9.72l7.592-17.523c-.54-1.418-2.264-1.735-2.937-1.75.004-.227.005-.572.006-.86l7.926.023.011.04-.013.792c-1.739.052-2.814.982-3.458 2.507Z" />
</svg>
