<svg width="44" height="44" viewBox="0 0 44 44" fill="none" xmlns="http://www.w3.org/2000/svg">
<g clip-path="url(#clip0_2173_4827)">
<path d="M22 44C34.1503 44 44 34.1503 44 22C44 9.84974 34.1503 0 22 0C9.84974 0 0 9.84974 0 22C0 34.1503 9.84974 44 22 44Z" fill="#4A8CFF"/>
<path d="M7.88428 15.1124V25.4511C7.8897 26.5725 8.34011 27.6458 9.13651 28.4352C9.93292 29.2247 11.0102 29.6656 12.1315 29.6611H27.2018C27.4055 29.6621 27.6013 29.5823 27.7463 29.4391C27.8912 29.2959 27.9734 29.1011 27.9749 28.8974V18.5587C27.9695 17.4373 27.5191 16.364 26.7226 15.5746C25.9262 14.7852 24.849 14.3442 23.7276 14.3487H8.66201C8.56074 14.3476 8.46025 14.3665 8.36631 14.4043C8.27236 14.4421 8.1868 14.4981 8.11455 14.5691C8.04229 14.64 7.98475 14.7246 7.94524 14.8178C7.90572 14.911 7.88501 15.0112 7.88428 15.1124ZM28.9342 19.1455L35.1561 14.6002C35.6963 14.1522 36.1154 14.2649 36.1154 15.0752V28.9346C36.1154 29.8567 35.6032 29.745 35.1561 29.4087L28.9342 24.8737V19.1455Z" fill="white"/>
</g>
<defs>
<clipPath id="clip0_2173_4827">
<rect width="44" height="44" fill="white"/>
</clipPath>
</defs>
</svg>
