<svg width="28" height="32" viewBox="0 0 28 32" fill="none" xmlns="http://www.w3.org/2000/svg">
<path d="M28 7.65217V24.3478L14 32L0 24.3478V7.65217L14 0L28 7.65217Z" fill="currentColor"/>
<path d="M23.1417 15.1536L14.8461 6.85832C14.3687 6.38056 13.5938 6.38056 13.1158 6.85832L11.3932 8.58097L13.5784 10.7662C14.0862 10.5946 14.6685 10.7097 15.0733 11.1145C15.48 11.5219 15.5943 12.1092 15.4186 12.6187L17.5245 14.7248C18.034 14.5492 18.6219 14.6628 19.0289 15.0704C19.5976 15.6389 19.5976 16.5604 19.0289 17.1293C18.46 17.6982 17.5386 17.6982 16.9694 17.1293C16.5416 16.701 16.4359 16.0727 16.6525 15.5457L14.6885 13.5817L14.6882 18.7502C14.8306 18.8206 14.9607 18.9135 15.0733 19.0255C15.642 19.594 15.642 20.5156 15.0733 21.0849C14.5044 21.6536 13.5825 21.6536 13.0145 21.0849C12.4457 20.5156 12.4457 19.5941 13.0145 19.0256C13.1508 18.8892 13.3127 18.7812 13.491 18.7079V13.4912C13.3125 13.4183 13.1504 13.3103 13.0145 13.1735C12.5836 12.7432 12.4799 12.1109 12.7007 11.5818L10.5466 9.42737L4.85848 15.1152C4.38051 15.5934 4.38051 16.3684 4.85848 16.8462L13.1542 25.1416C13.6318 25.6195 14.4065 25.6195 14.8847 25.1416L23.1416 16.8847C23.6195 16.4067 23.6195 15.6314 23.1417 15.1536Z" fill="white"/>
</svg>
