<svg width="28" height="32" viewBox="0 0 28 32" fill="none" xmlns="http://www.w3.org/2000/svg">
<path d="M28 7.65217V24.3478L14 32L0 24.3478V7.65217L14 0L28 7.65217Z" fill="currentColor"/>
<path d="M22.5 15.7794C22.5 14.5662 21.5438 13.6838 20.4813 13.6838C19.95 13.6838 19.525 13.9044 19.2062 14.125C17.9312 13.3529 16.3375 12.8015 14.6375 12.6912L15.4875 9.82353L17.9312 10.375C18.0375 11.2574 18.7812 12.0294 19.6313 12.0294C20.5875 12.0294 21.3312 11.2574 21.3312 10.2647C21.3312 9.27206 20.5875 8.5 19.6313 8.5C18.9938 8.5 18.3562 8.94118 18.1437 9.49265L15.275 8.72059C15.0625 8.72059 14.85 8.83088 14.7437 9.05147L13.6812 12.6912C11.875 12.6912 10.175 13.2426 8.79375 14.0147C8.475 13.7941 8.05 13.5735 7.51875 13.5735C6.45625 13.5735 5.5 14.5662 5.5 15.7794C5.5 16.5515 5.81875 17.1029 6.35 17.5441C6.35 17.7647 6.35 17.875 6.35 18.0956C6.35 19.5294 7.2 20.9632 8.6875 21.9559C10.0687 22.9485 11.9812 23.5 14 23.5C16.0188 23.5 17.9312 22.9485 19.3125 21.9559C20.8 20.9632 21.65 19.6397 21.65 18.0956C21.65 17.9853 21.65 17.7647 21.65 17.6544C22.075 17.1029 22.5 16.4412 22.5 15.7794ZM10.2812 16.9926C10.2812 16.3309 10.8125 15.7794 11.45 15.7794C12.0875 15.7794 12.6187 16.3309 12.6187 16.9926C12.6187 17.6544 12.0875 18.2059 11.45 18.2059C10.8125 18.2059 10.2812 17.6544 10.2812 16.9926ZM16.7625 20.5221C16.125 21.1838 15.275 21.4044 14 21.4044C12.725 21.4044 11.7688 21.0735 11.2375 20.5221C11.025 20.3015 11.025 20.0809 11.2375 19.8603C11.45 19.6397 11.6625 19.6397 11.875 19.8603C12.3 20.3015 12.9375 20.5221 14 20.5221C15.0625 20.5221 15.7 20.3015 16.125 19.8603C16.3375 19.6397 16.55 19.6397 16.7625 19.8603C16.975 20.0809 16.975 20.4118 16.7625 20.5221ZM16.55 18.2059C15.9125 18.2059 15.3813 17.6544 15.3813 16.9926C15.3813 16.3309 15.9125 15.7794 16.55 15.7794C17.1875 15.7794 17.7188 16.3309 17.7188 16.9926C17.7188 17.6544 17.1875 18.2059 16.55 18.2059Z" fill="white"/>
</svg>
