<svg width="28" height="32" viewBox="0 0 28 32" fill="none" xmlns="http://www.w3.org/2000/svg">
<path d="M28 7.65217V24.3478L14 32L0 24.3478V7.65217L14 0L28 7.65217Z" fill="currentColor"/>
<path d="M11.8671 8C11.4427 8 11.0358 8.16857 10.7357 8.46863C10.4357 8.76869 10.2671 9.17565 10.2671 9.6C10.2671 10.0243 10.4357 10.4313 10.7357 10.7314C11.0358 11.0314 11.4427 11.2 11.8671 11.2H13.4671V9.6C13.4671 9.17565 13.2985 8.76869 12.9985 8.46863C12.6984 8.16857 12.2914 8 11.8671 8" fill="white"/>
<path d="M11.867 12.2671H7.6C7.17565 12.2671 6.76869 12.4357 6.46863 12.7357C6.16857 13.0358 6 13.4427 6 13.8671C6 14.2914 6.16857 14.6984 6.46863 14.9985C6.76869 15.2985 7.17565 15.4671 7.6 15.4671H11.867C12.2913 15.4671 12.6983 15.2985 12.9984 14.9985C13.2984 14.6984 13.467 14.2914 13.467 13.8671C13.467 13.4427 13.2984 13.0358 12.9984 12.7357C12.6983 12.4357 12.2913 12.2671 11.867 12.2671Z" fill="white"/>
<path d="M22 13.8671C22 13.4427 21.8315 13.0358 21.5314 12.7357C21.2314 12.4357 20.8244 12.2671 20.4 12.2671C19.9757 12.2671 19.5687 12.4357 19.2687 12.7357C18.9686 13.0358 18.8 13.4427 18.8 13.8671V15.4671H20.4C20.8244 15.4671 21.2314 15.2985 21.5314 14.9985C21.8315 14.6984 22 14.2914 22 13.8671Z" fill="white"/>
<path d="M17.733 13.867V9.6C17.733 9.17565 17.5644 8.76869 17.2643 8.46863C16.9643 8.16857 16.5573 8 16.133 8C15.7086 8 15.3016 8.16857 15.0016 8.46863C14.7015 8.76869 14.533 9.17565 14.533 9.6V13.866C14.533 14.2903 14.7015 14.6973 15.0016 14.9974C15.3016 15.2974 15.7086 15.466 16.133 15.466C16.5573 15.466 16.9643 15.2974 17.2643 14.9974C17.5644 14.6973 17.733 14.2903 17.733 13.866" fill="white"/>
<path d="M16.133 23.9998C16.5573 23.9998 16.9643 23.8312 17.2643 23.5312C17.5644 23.2311 17.733 22.8242 17.733 22.3998C17.733 21.9755 17.5644 21.5685 17.2643 21.2684C16.9643 20.9684 16.5573 20.7998 16.133 20.7998H14.533V22.3998C14.533 22.8242 14.7015 23.2311 15.0016 23.5312C15.3016 23.8312 15.7086 23.9998 16.133 23.9998Z" fill="white"/>
<path d="M16.133 19.7332H20.4C20.8243 19.7332 21.2313 19.5646 21.5313 19.2646C21.8314 18.9645 22 18.5575 22 18.1332C22 17.7089 21.8314 17.3019 21.5313 17.0018C21.2313 16.7018 20.8243 16.5332 20.4 16.5332H16.133C15.7086 16.5332 15.3016 16.7018 15.0016 17.0018C14.7015 17.3019 14.533 17.7089 14.533 18.1332C14.533 18.5575 14.7015 18.9645 15.0016 19.2646C15.3016 19.5646 15.7086 19.7332 16.133 19.7332Z" fill="white"/>
<path d="M6 18.1332C6 18.5575 6.16857 18.9645 6.46863 19.2646C6.76869 19.5646 7.17565 19.7332 7.6 19.7332C8.02435 19.7332 8.43131 19.5646 8.73137 19.2646C9.03143 18.9645 9.2 18.5575 9.2 18.1332V16.5332H7.6C7.17565 16.5332 6.76869 16.7018 6.46863 17.0018C6.16857 17.3019 6 17.7089 6 18.1332" fill="white"/>
<path d="M10.2671 18.1332V22.4002C10.2671 22.8245 10.4357 23.2315 10.7357 23.5316C11.0358 23.8316 11.4427 24.0002 11.8671 24.0002C12.2914 24.0002 12.6984 23.8316 12.9985 23.5316C13.2985 23.2315 13.4671 22.8245 13.4671 22.4002V18.1332C13.4671 17.7089 13.2985 17.3019 12.9985 17.0018C12.6984 16.7018 12.2914 16.5332 11.8671 16.5332C11.4427 16.5332 11.0358 16.7018 10.7357 17.0018C10.4357 17.3019 10.2671 17.7089 10.2671 18.1332Z" fill="white"/>
</svg>
