<svg width="28" height="32" viewBox="0 0 28 32" fill="none" xmlns="http://www.w3.org/2000/svg">
<path d="M28 7.65217V24.3478L14 32L0 24.3478V7.65217L14 0L28 7.65217Z" fill="currentColor"/>
<path fill-rule="evenodd" clip-rule="evenodd" d="M18.9865 15.4916L18.5333 17.1009L9.46625 15.4916L9.8628 13.7227L18.9865 15.4916ZM19.2131 15.063L10.7136 11.3088L11.5067 9.70062L20.0061 13.4538L19.2131 15.063ZM20.2327 13.0252L13.0928 7.34036H13.0362L14.2269 6L21.4234 11.6849L20.2327 13.0252ZM18.5333 19.2458H9.46625V17.6376H18.5333V19.2458ZM20.233 16.0283V20.855H7.76702V16.0283H5.5V23H22.5V16.0283H20.233Z" fill="white"/>
</svg>
