<svg width="28" height="32" viewBox="0 0 28 32" fill="none" xmlns="http://www.w3.org/2000/svg">
<path d="M28 7.65217V24.3478L14 32L0 24.3478V7.65217L14 0L28 7.65217Z" fill="currentColor"/>
<path d="M22 11C21.4 11.3 20.8 11.4 20.1 11.5C20.8 11.1 21.3 10.5 21.5 9.7C20.9 10.1 20.2 10.3 19.4 10.5C18.8 9.9 17.9 9.5 17 9.5C15.3 9.5 13.8 11 13.8 12.8C13.8 13.1 13.8 13.3 13.9 13.5C11.2 13.4 8.7 12.1 7.1 10.1C6.8 10.6 6.7 11.1 6.7 11.8C6.7 12.9 7.3 13.9 8.2 14.5C7.7 14.5 7.2 14.3 6.7 14.1C6.7 15.7 7.8 17 9.3 17.3C9 17.4 8.7 17.4 8.4 17.4C8.2 17.4 8 17.4 7.8 17.3C8.2 18.6 9.4 19.6 10.9 19.6C9.8 20.5 8.4 21 6.8 21C6.5 21 6.3 21 6 21C7.5 21.9 9.2 22.5 11 22.5C17 22.5 20.3 17.5 20.3 13.2C20.3 13.1 20.3 12.9 20.3 12.8C21 12.3 21.6 11.7 22 11Z" fill="white"/>
</svg>
