<?xml version="1.0" encoding="utf-8"?>
<!-- Generator: Adobe Illustrator 28.1.0, SVG Export Plug-In . SVG Version: 6.00 Build 0)  -->
<svg version="1.1" id="Layer_1" xmlns="http://www.w3.org/2000/svg" xmlns:xlink="http://www.w3.org/1999/xlink" x="0px" y="0px"
	 viewBox="0 0 205 221.9" style="enable-background:new 0 0 205 221.9;" xml:space="preserve">
<style type="text/css">
	.st0{fill:#1C252C;}
	.st1{fill:#F6A61C;}
</style>
<g>
	<g>
		<polygon class="st0" points="102.5,88.8 76.9,88.8 115.3,155.3 128.1,133.1 		"/>
		<polygon class="st0" points="25.6,133.1 0,177.5 51.2,177.5 		"/>
		<polygon class="st0" points="38.4,111 76.9,177.5 102.5,177.5 51.2,88.8 		"/>
		<polygon class="st0" points="179.4,44.4 128.1,44.4 179.4,133.1 205,88.8 		"/>
		<g>
			<path class="st1" d="M102.5,88.8l25.6-44.4L102.5,0H51.2L25.6,44.4l25.6,44.4 M76.9,88.8L64.1,66.6l12.8-22.2l25.6,44.4"/>
		</g>
		<g>
			<polyline class="st1" points="128.1,133.1 153.7,177.5 128.1,177.5 115.3,155.3 102.5,177.5 128.1,221.9 179.4,221.9 205,177.5 
				179.4,133.1 128.1,133.1 			"/>
		</g>
	</g>
</g>
</svg>
