<?xml version="1.0" encoding="utf-8"?>
<!-- Generator: Adobe Illustrator 27.1.1, SVG Export Plug-In . SVG Version: 6.00 Build 0)  -->
<svg version="1.1" id="Layer_1" xmlns="http://www.w3.org/2000/svg" xmlns:xlink="http://www.w3.org/1999/xlink" x="0px" y="0px"
	 viewBox="0 0 1000 1000" style="enable-background:new 0 0 1000 1000;" xml:space="preserve">
<style type="text/css">
	.st0{fill:#FFFFFF;}
	.st1{fill:#1B242C;}
	.st2{fill:#0AB89B;}
</style>
<rect x="0" class="st0" width="1000" height="1000"/>
<g>
	<g>
		<path class="st1" d="M697.7,271.6c-62.3-61.3-140.4-92-234.4-92H339.8v116.3h112.6c59.8,0,108.6,19.1,146.5,57.2
			c37.8,38.2,56.8,87.1,56.8,146.9c0,59.2-18.9,108-56.8,146.5c-37.9,38.4-86.7,57.7-146.5,57.7H339.8v116.3h123.6
			c94,0,172.1-30.7,234.4-92s93.4-137.5,93.4-228.4C791.1,409.1,760,332.9,697.7,271.6z"/>
		<g>
			<path class="st2" d="M339.8,295.8H208.9c28,62.4,43.7,131.4,43.7,204.2c0,72.7-15.7,141.8-43.7,204.2h130.9
				c28-62.4,43.7-131.4,43.7-204.2C383.5,427.3,367.8,358.2,339.8,295.8z"/>
		</g>
	</g>
</g>
</svg>
