<svg width="560" height="185.00000000000003" xmlns="http://www.w3.org/2000/svg">
 <title>Keploy Logo</title>
 <defs>
  <linearGradient y2="100%" x2="0%" y1="0%" x1="0%" id="linearGradient-1">
   <stop stop-color="#FAD961" offset="0%"/>
   <stop stop-color="#F76B1C" offset="100%"/>
  </linearGradient>
  <linearGradient y2="100%" x2="0%" y1="0%" x1="0%" id="linearGradient-2">
   <stop stop-color="#FAD961" offset="0%"/>
   <stop stop-color="#F76B1C" offset="100%"/>
  </linearGradient>
 </defs>
 <g>
  <title>Layer 1</title>
  <g fill-rule="evenodd" fill="none" id="Material-Design-Stickersheet">
   <g fill-rule="nonzero" id="Group-42">
    <g id="Group">
     <g id="svg_1" transform="rotate(-180 71.7784 33.4275) translate(69.4451 31.465) scale(-1 1) translate(-69.4451 -31.465) translate(29.7533 0)">
      <path d="m77.05025,1.96244c-13.22535,20.5033 -55.00461,80.63411 -76.53836,57.85859c-5.33553,-5.64253 -2.71573,-13.10085 4.11097,-21.06858c21.11279,-4.9236 48.57852,-18.08587 72.42739,-36.79001" fill="url(#linearGradient-1)" id="Path"/>
     </g>
     <g id="svg_2" transform="rotate(-180 81.3333 105.949) translate(79 103.987) scale(-1 1) translate(-79 -103.987) translate(0 26.974)">
      <path d="m135.63318,65.26555c-1.7027,-1.84599 -5.54787,-1.15849 -8.58883,1.53398c-3.0347,2.69453 -4.11328,6.37829 -2.41058,8.22449c1.7027,1.8464 5.54789,1.16322 8.58466,-1.53131c3.03885,-2.69699 4.11743,-6.38055 2.41475,-8.22716zm19.27199,-17.79728c-0.02095,0.09593 -0.02933,0.1937 -0.05235,0.29209c-16.74205,75.14706 -146.27777,133.16093 -156.74421,97.38933c-7.8169,-26.71622 90.65358,-42.25915 90.65358,-42.25915c2.06461,-0.35269 3.63766,-2.11631 3.63766,-4.24165c0,-2.20135 -1.68887,-3.9964 -3.86301,-4.25521c-57.61982,2.28597 -67.9338,-32.49681 -67.9338,-32.49681c-10.94437,-34.7649 22.95412,-59.93443 22.95412,-59.93443c-16.34146,64.43059 54.05759,37.53769 54.05759,37.53769c58.04858,-19.45203 60.08637,-3.96743 57.29043,7.96814" fill="url(#linearGradient-2)" id="Shape"/>
     </g>
    </g>
    <g stroke-width="1.92115" stroke="#FFFFFF" fill="#FF914D" id="text-logo-path-group">
     <g id="text-logo-path-0">
      <path id="Shape" d="m179.33342,140.49794l0,0l0,-64.7779c0.92754,-0.15272 2.38507,-0.38179 4.37262,-0.68722c1.97652,-0.29453 3.87573,-0.44178 5.69766,-0.44178l0,0c1.89922,0 3.57761,0.14725 5.03514,0.44178c1.45755,0.30543 2.67767,0.82356 3.66042,1.55441c0.99377,0.74175 1.74463,1.76167 2.25256,3.05973c0.50793,1.29807 0.7619,3.00519 0.7619,5.12137l0,0l0,19.53645l25.83823,-29.30468c5.62036,0 9.65067,1.04173 12.09088,3.12518c2.45132,2.07254 3.67696,4.54869 3.67696,7.42844l0,0c0,2.11618 -0.54655,4.11237 -1.63971,5.98856c-1.09312,1.87621 -2.83221,4.01421 -5.21729,6.41398l0,0l-15.51947,15.33138c2.0538,2.2798 4.22356,4.64686 6.50925,7.10119c2.28569,2.46524 4.52168,4.86503 6.70799,7.19936c2.18629,2.33434 4.3008,4.55959 6.34357,6.67577c2.04272,2.11617 3.80943,3.95419 5.30008,5.51405l0,0c0,1.79985 -0.33124,3.39789 -0.99377,4.79411c-0.67354,1.39624 -1.57346,2.58524 -2.69974,3.56697c-1.13728,0.98174 -2.40161,1.71257 -3.79286,2.19252c-1.40233,0.47997 -2.88745,0.71996 -4.4554,0.71996l0,0c-3.40092,0 -6.1835,-0.83994 -8.34773,-2.51979c-2.16423,-1.67986 -4.2346,-3.65967 -6.21111,-5.93947l0,0l-17.47394,-20.12548l0,27.14486c-0.92754,0.23997 -2.38507,0.47997 -4.37262,0.71992c-1.97652,0.23999 -3.91438,0.35997 -5.8136,0.35997l0,0c-1.89922,0 -3.57761,-0.1418 -5.03514,-0.42542c-1.45755,-0.2836 -2.68321,-0.79083 -3.67699,-1.52168c-0.98273,-0.74174 -1.72806,-1.76164 -2.23599,-3.05972c-0.50793,-1.29805 -0.7619,-3.02701 -0.7619,-5.18681zm69.63054,-21.09085l0,0c0,-5.38863 0.89992,-10.03002 2.69974,-13.92423c1.7998,-3.8942 4.14622,-7.09028 7.03918,-9.58823c2.89301,-2.49796 6.20007,-4.33598 9.92123,-5.51407c3.72113,-1.17808 7.51959,-1.76712 11.39532,-1.76712l0,0c4.40573,0 8.40845,0.64905 12.00815,1.94711c3.5997,1.29807 6.70248,3.09246 9.30838,5.38316c2.61694,2.30162 4.64865,5.05048 6.09518,8.24655c1.45752,3.19608 2.18628,6.67033 2.18628,10.42272l0,0c0,2.79248 -0.78949,4.91956 -2.36847,6.38125c-1.56799,1.46169 -3.77084,2.41071 -6.60864,2.84702l0,0l-30.62491,4.54868c0.92752,2.71611 2.78809,4.74503 5.5817,6.08673c2.79364,1.34169 6.02893,2.01253 9.70593,2.01253l0,0c3.38986,0 6.59204,-0.43086 9.60648,-1.2926c3.0145,-0.86172 5.47131,-1.87074 7.37054,-3.02699l0,0c1.33606,0.7963 2.45685,1.93619 3.36227,3.41969c0.91647,1.4726 1.37473,3.02701 1.37473,4.66322l0,0c0,3.67604 -1.73911,6.41397 -5.21735,8.21382l0,0c-2.67215,1.39624 -5.65347,2.34525 -8.94397,2.84702c-3.30157,0.50177 -6.40436,0.75267 -9.30841,0.75267l0,0c-4.90265,0 -9.44641,-0.68176 -13.63132,-2.04527c-4.18491,-1.35262 -7.82324,-3.37607 -10.91498,-6.07037c-3.09175,-2.70522 -5.53754,-6.1031 -7.33734,-10.19365c-1.79982,-4.09055 -2.69974,-8.87374 -2.69974,-14.34962zm19.52765,-4.79412l0,0l21.23373,-3.4197c-0.24295,-1.63622 -1.1539,-3.27244 -2.73291,-4.90866c-1.57898,-1.63622 -3.90332,-2.45433 -6.97299,-2.45433l0,0c-1.97653,0 -3.68253,0.32726 -5.11798,0.98174c-1.43546,0.6654 -2.61142,1.50533 -3.52789,2.51978c-0.90546,1.01447 -1.59003,2.15436 -2.0538,3.4197c-0.46378,1.25443 -0.73984,2.5416 -0.82816,3.86148zm51.26239,47.51579l0,0l0,-58.90388c0,-2.19253 0.48584,-3.98692 1.45752,-5.38316c0.97168,-1.40715 2.28571,-2.68885 3.94199,-3.84512l0,0c2.53964,-1.63622 5.71423,-2.94519 9.52371,-3.92692c3.79843,-0.97083 8.06064,-1.45625 12.78662,-1.45625l0,0c4.97992,0 9.60098,0.62723 13.86319,1.88165c4.27322,1.25444 7.9447,3.20155 11.01437,5.84131c3.06967,2.63976 5.47681,5.93402 7.22144,9.88277c1.73361,3.95964 2.6004,8.67742 2.6004,14.1533l0,0c0,5.22498 -0.74533,9.80639 -2.23599,13.74422c-1.50174,3.93784 -3.61624,7.23209 -6.34363,9.88277c-2.72739,2.66158 -6.02338,4.65231 -9.88809,5.9722c-3.86469,1.31987 -8.16,1.97983 -12.88599,1.97983l0,0c-3.55551,0 -6.85153,-0.53995 -9.88809,-1.61987l0,0l0,20.37094c-0.80606,0.23997 -2.1311,0.50723 -3.9751,0.80176c-1.84402,0.30542 -3.71564,0.45813 -5.61484,0.45813l0,0c-1.81091,0 -3.44513,-0.13089 -4.90265,-0.39268c-1.45755,-0.2618 -2.68323,-0.76358 -3.677,-1.50533c-0.99377,-0.73085 -1.73907,-1.72894 -2.23596,-2.99429c-0.50793,-1.25443 -0.7619,-2.90155 -0.7619,-4.94138zm21.05151,-55.36964l0,27.03031c1.00482,0.47997 2.0759,0.87811 3.21323,1.19446c1.12625,0.31633 2.35745,0.47449 3.69351,0.47449l0,0c8.53546,0 12.80319,-5.02864 12.80319,-15.08591l0,0c0,-5.2359 -1.0545,-9.12466 -3.16351,-11.66624c-2.09799,-2.53069 -5.15109,-3.79604 -9.15933,-3.79604l0,0c-1.56796,0 -2.97028,0.1909 -4.207,0.57268c-1.23669,0.37088 -2.29672,0.7963 -3.18008,1.27626zm52.04083,34.52421l0,0l0,-71.19189c0.92755,-0.16362 2.26913,-0.39269 4.02481,-0.68721c1.76669,-0.29452 3.55551,-0.44178 5.36639,-0.44178l0,0c1.82193,0 3.46167,0.12544 4.91922,0.37633c1.45752,0.2618 2.68317,0.75266 3.67694,1.4726c0.98276,0.71993 1.75018,1.71803 2.30228,2.99428c0.54105,1.27625 0.81158,2.9343 0.81158,4.97411l0,0l0,71.19188c-0.92755,0.15271 -2.28018,0.37088 -4.05792,0.65448c-1.77777,0.28362 -3.57761,0.42543 -5.39954,0.42543l0,0c-1.82193,0 -3.46164,-0.12 -4.91922,-0.35999c-1.45752,-0.23997 -2.67767,-0.73083 -3.6604,-1.47258c-0.99377,-0.74176 -1.75568,-1.73985 -2.28568,-2.99429c-0.51898,-1.26534 -0.77847,-2.91248 -0.77847,-4.94138zm31.71808,-21.04176l0,0c0,-4.8323 0.78949,-9.20646 2.3685,-13.12248c1.57901,-3.91602 3.80399,-7.23754 6.6749,-9.96457c2.87091,-2.73795 6.28839,-4.84867 10.25247,-6.33217c3.95303,-1.4726 8.38086,-2.20891 13.28348,-2.20891l0,0c4.8916,0 9.32495,0.75813 13.30008,2.27435c3.98615,1.51624 7.40366,3.64331 10.25247,6.38125c2.84882,2.73795 5.06274,6.06492 6.64175,9.98094c1.57901,3.90511 2.3685,8.23564 2.3685,12.99158l0,0c0,5.07228 -0.78949,9.59914 -2.3685,13.5806c-1.57901,3.97057 -3.79294,7.30299 -6.64175,9.99731c-2.84882,2.7052 -6.26633,4.75594 -10.25247,6.15218c-3.97513,1.39624 -8.40848,2.09436 -13.30008,2.09436l0,0c-4.90262,0 -9.33044,-0.74176 -13.28348,-2.22525c-3.96408,-1.4726 -7.38156,-3.57787 -10.25247,-6.31583c-2.87091,-2.73793 -5.09589,-6.07582 -6.6749,-10.01364c-1.57901,-3.92694 -2.3685,-8.35016 -2.3685,-13.26973zm21.6478,0l0,0c0,4.99591 0.97171,8.82466 2.9151,11.48624c1.94339,2.65068 4.65417,3.97601 8.13242,3.97601l0,0c3.47821,0 6.14484,-1.34714 7.99991,-4.04146c1.86609,-2.69431 2.79913,-6.50122 2.79913,-11.42079l0,0c0,-4.90866 -0.94962,-8.69379 -2.84882,-11.35536c-1.91028,-2.65067 -4.599,-3.97602 -8.06619,-3.97602l0,0c-3.47821,0 -6.17245,1.32535 -8.0827,3.97602c-1.89923,2.66158 -2.84885,6.4467 -2.84885,11.35536zm48.16522,-26.71947l0,0c1.17044,-1.15626 2.72742,-2.16525 4.67084,-3.02701c1.94345,-0.86174 4.06906,-1.29261 6.37692,-1.29261l0,0c2.90411,0 5.30579,0.59995 7.20505,1.79984c1.89923,1.1999 3.31812,3.43606 4.25665,6.7085l0,0l9.75562,33.73883l0.54657,0c1.01587,-2.79248 1.98755,-5.83038 2.91504,-9.11372c0.92755,-3.27245 1.84961,-6.64305 2.76605,-10.11184c0.90546,-3.4797 1.75018,-6.95939 2.53418,-10.43908c0.79498,-3.46879 1.49615,-6.88303 2.10345,-10.24274l0,0c2.99237,-1.55986 6.2442,-2.33979 9.75555,-2.33979l0,0c2.9151,0 5.32227,0.62177 7.2215,1.86529c1.89923,1.23262 2.84882,3.3488 2.84882,6.34853l0,0c0,2.19254 -0.28156,4.7505 -0.84473,7.67387c-0.56311,2.91247 -1.31946,6.00492 -2.2691,9.27735c-0.94958,3.28336 -2.07593,6.65942 -3.37885,10.1282c-1.29193,3.47969 -2.64453,6.89392 -4.05792,10.24272c-1.41339,3.3597 -2.85992,6.52852 -4.33948,9.50642c-1.46863,2.97792 -2.9151,5.66133 -4.33954,8.0502l0,0c-2.29675,4.0033 -4.44989,7.27026 -6.45953,9.80096c-1.9986,2.5416 -3.90887,4.53232 -5.73083,5.97218c-1.81085,1.42897 -3.62726,2.40526 -5.44916,2.92885c-1.82196,0.52359 -3.72119,0.78537 -5.69769,0.78537l0,0c-3.47824,0 -6.29953,-1.0199 -8.46378,-3.05972c-2.16428,-2.03983 -3.45068,-4.69594 -3.85934,-7.96838l0,0c2.67224,-2.03983 5.33344,-4.30872 7.98358,-6.80667c2.65015,-2.49796 5.04626,-5.045 7.18835,-7.64113l0,0c-1.42438,-0.39272 -2.94263,-1.35808 -4.55481,-2.89612c-1.61215,-1.53806 -3.37335,-4.38509 -5.28369,-8.54106l0,0c-0.92749,-2.03983 -1.90475,-4.32509 -2.9317,-6.85576c-1.03799,-2.54159 -2.10904,-5.44861 -3.21332,-8.72105c-1.11526,-3.28334 -2.2691,-7.03028 -3.4617,-11.24082c-1.19254,-4.21054 -2.45691,-9.05375 -3.793,-14.52963z"/>
     </g>
    </g>
   </g>
  </g>
 </g>
</svg>