<?xml version="1.0" encoding="utf-8"?>
<!-- Generator: Adobe Illustrator 26.0.2, SVG Export Plug-In . SVG Version: 6.00 Build 0)  -->
<svg version="1.1" id="Layer_1" xmlns="http://www.w3.org/2000/svg" xmlns:xlink="http://www.w3.org/1999/xlink" x="0px" y="0px"
	 viewBox="0 0 100 100" style="enable-background:new 0 0 100 100;" xml:space="preserve">
<style type="text/css">
	.st0{fill:url(#SVGID_1_);}
	.st1{fill:#FFFFFF;}
	.st2{opacity:0.6;}
	.st3{opacity:0.5;}
	.st4{opacity:0.4;}
</style>
<g>
	<g>
		<g>
			<radialGradient id="SVGID_1_" cx="14.7758" cy="-2.9771" r="91.627" gradientUnits="userSpaceOnUse">
				<stop  offset="0" style="stop-color:#3C3FA6"/>
				<stop  offset="1" style="stop-color:#3B0340"/>
			</radialGradient>
			<path class="st0" d="M50,99c-13.3,0-25.4-5.3-34.2-13.9C6.7,76.2,1,63.7,1,50C1,22.9,22.9,1,50,1c13.7,0,26.2,5.7,35.1,14.8
				C93.7,24.6,99,36.7,99,50C99,77.1,77.1,99,50,99z"/>
		</g>
		<g>
			<circle class="st1" cx="37.5" cy="81.9" r="5"/>
		</g>
		<path class="st1" d="M48.6,91.9l18.8-43.3c-2.5-0.1-5-0.7-7.2-2L33.2,68.2l1.4-1.8l20-25.1c-1.5-2.4-2.3-5.1-2.3-7.9L9,52.2
			l47.6-29.9l0,0c0.1-0.1,0.2-0.2,0.2-0.2c6.1-6.1,15.9-6.1,22,0l0.1,0.1c6,6.1,6,15.9-0.1,21.9c-0.1,0.1-0.2,0.2-0.2,0.2l0,0
			L48.6,91.9z"/>
		<g class="st2">
			<circle class="st1" cx="50.3" cy="14.7" r="3.1"/>
		</g>
		<g class="st3">
			<circle class="st1" cx="27.7" cy="58" r="1.7"/>
		</g>
		<g>
			<circle class="st1" cx="77.4" cy="69.3" r="1.7"/>
		</g>
		<g>
			<circle class="st1" cx="16.3" cy="36.6" r="1.7"/>
		</g>
		<g class="st4">
			<circle class="st1" cx="63.7" cy="85.9" r="2.2"/>
		</g>
		<g>
			<circle class="st1" cx="29.4" cy="19.6" r="4.8"/>
		</g>
		<g class="st3">
			<circle class="st1" cx="88" cy="50" r="4.8"/>
		</g>
	</g>
</g>
</svg>
