<svg width="119" height="81" viewBox="0 0 119 81" fill="none" xmlns="http://www.w3.org/2000/svg">
<g clip-path="url(#clip0_2602_32122)">
<path d="M6.68567 54.5439H4.06152V61.7475H6.68567V54.5439Z" fill="black"/>
<path d="M113.851 59.5059H4.40918V61.7492H113.851V59.5059Z" fill="black"/>
<path d="M113.856 48.8223H111.386V60.1936H113.856V48.8223Z" fill="black"/>
<path d="M4.05566 39.5233C4.05566 33.2665 8.42512 29.1729 14.4473 29.1729C20.6217 29.1729 24.9541 33.495 24.9541 39.4842C24.9541 45.4734 20.5867 49.6391 14.8795 49.6391C11.1748 49.6391 8.14933 47.9062 6.69216 44.9548V57.4313H4.05566V39.5233ZM22.2785 39.406C22.2785 34.9192 19.1296 31.6138 14.4864 31.6138C9.80202 31.6138 6.69216 34.9192 6.69216 39.406C6.69216 43.8928 9.80203 47.1981 14.4967 47.1981C19.1296 47.1981 22.2785 43.8928 22.2785 39.406Z" fill="black"/>
<path d="M27.2363 39.5233C27.2363 33.462 31.5584 29.1729 37.7041 29.1729C43.8497 29.1729 48.1348 33.3838 48.1348 39.5233V49.1266H45.6938V44.325C44.3169 47.7888 41.0898 49.6391 37.311 49.6391C31.8404 49.6391 27.2363 45.743 27.2363 39.5233ZM45.4983 39.406C45.4983 34.9192 42.3493 31.6138 37.7041 31.6138C33.0588 31.6138 29.9119 34.9192 29.9119 39.406C29.9119 43.8928 33.0609 47.1981 37.7041 47.1981C42.3473 47.1981 45.4983 43.8928 45.4983 39.406Z" fill="black"/>
<path d="M51.9902 37.4775C51.9902 31.8896 55.3368 29.1729 60.1776 29.1729C65.0183 29.1729 68.3237 31.8896 68.3237 37.5166V37.7533H65.7263V37.4775C65.7263 33.4229 63.483 31.6138 60.1693 31.6138C56.8228 31.6138 54.6123 33.4229 54.6123 37.4775V49.1266H51.9902V37.4775Z" fill="black"/>
<path d="M70.1328 39.406C70.1328 33.5032 74.4549 29.1729 80.6026 29.1729C85.641 29.1729 89.4527 32.0851 90.5991 36.4155H87.9235C86.8594 33.5032 84.1447 31.6138 80.6026 31.6138C75.9574 31.6138 72.8105 34.9192 72.8105 39.406C72.8105 43.8928 75.9574 47.1981 80.6026 47.1981C84.1447 47.1981 86.8594 45.3088 87.9235 42.3965H90.5991C89.4568 46.7186 85.641 49.6391 80.6026 49.6391C74.4632 49.6391 70.1328 45.3088 70.1328 39.406Z" fill="black"/>
<path d="M92.96 39.5233C92.96 33.462 97.2821 29.1729 103.428 29.1729C109.573 29.1729 113.858 33.3838 113.858 39.5233V49.1266H111.417V44.325C110.041 47.7888 106.813 49.6391 103.035 49.6391C97.564 49.6391 92.96 45.743 92.96 39.5233ZM111.22 39.406C111.22 34.9192 108.073 31.6138 103.428 31.6138C98.7825 31.6138 95.6356 34.9192 95.6356 39.406C95.6356 43.8928 98.7845 47.1981 103.428 47.1981C108.071 47.1981 111.23 43.8928 111.23 39.406H111.22Z" fill="black"/>
</g>
<defs>
<clipPath id="clip0_2602_32122">
<rect width="110" height="32.8481" fill="white" transform="translate(4 29)"/>
</clipPath>
</defs>
</svg>
