<svg width="263" height="382" xmlns="http://www.w3.org/2000/svg" xmlns:undefined="http://sodipodi.sourceforge.net/DTD/sodipodi-0.dtd" xml:space="preserve" version="1.1">
 <metadata id="metadata8">image/svg+xml</metadata>
 <defs id="defs6">
  <linearGradient id="linearGradient294" spreadMethod="pad" y2="0" x2="0.5" y1="1" x1="0.5">
   <stop stop-color="#a5509f" id="stop288" offset="0"/>
   <stop stop-color="#dd2276" id="stop290" offset="1"/>
   <stop stop-color="#dd2276" id="stop292" offset="1"/>
  </linearGradient>
 </defs>
 <g>
  <title>Layer 1</title>
  <g transform="matrix(1.33333, 0, 0, -1.33333, 0, 1280)" id="g276">
   <g id="g278">
    <g id="g284">
     <g id="g286">
      <path fill="url(#linearGradient294)" id="path296" d="m85.46097,958.32205l0,-74.662l37.973,0c10.582,0 19.239,-8.658 19.239,-19.24l0,0c0,-10.581 -8.657,-19.239 -19.239,-19.239l0,0l-37.973,0l0,-37.974c0,-10.581 -8.659,-19.239 -19.241,-19.239l0,0c-10.582,0 -19.239,8.658 -19.239,19.239l0,0l0,37.974l-37.973,0c-3.24,0 -6.252,0.886 -8.938,2.316l0,0l0,-122.066c0,-7.033 1.309,-13.662 3.918,-19.886l0,0c2.612,-6.224 6.228,-11.601 10.849,-16.121l0,0c4.623,-4.522 9.943,-8.084 15.969,-10.697l0,0c6.028,-2.61 12.554,-3.918 19.588,-3.918l0,0c6.826,0 13.305,1.308 19.434,3.918l0,0c6.126,2.613 11.5,6.175 16.121,10.697l0,0c4.62,4.52 8.288,9.897 10.999,16.121l0,0c2.712,6.224 4.069,12.853 4.069,19.886l0,0l0,36.444c13.659,0.197 26.314,2.961 37.968,8.287l0,0c11.649,5.319 21.795,12.453 30.436,21.395l0,0c8.634,8.935 15.367,19.332 20.189,31.186l0,0c4.82,11.852 7.23,24.507 7.23,37.969l0,0c0,13.658 -2.712,26.465 -8.136,38.42l0,0c-5.424,11.95 -12.656,22.398 -21.696,31.338l0,0c-9.038,8.936 -19.487,15.971 -31.338,21.094l0,0c-11.855,5.123 -24.211,7.684 -37.063,7.684l0,0c-4.474,0 -8.851,-0.328 -13.146,-0.926m-55.861,-29.056c-8.837,-9.144 -15.917,-19.64 -21.243,-31.492l0,0c-2.237,-4.983 -3.994,-10.041 -5.326,-15.166l0,0c1.894,0.627 3.879,1.052 5.977,1.052l0,0l37.973,0l0,59.825c-6.302,-4.114 -12.139,-8.799 -17.381,-14.219"/>
     </g>
    </g>
   </g>
  </g>
 </g>
</svg>