<svg height="1024" viewBox="0 0 1024 1024" width="1024" xmlns="http://www.w3.org/2000/svg" xmlns:xlink="http://www.w3.org/1999/xlink"><radialGradient id="a" cx="49.423625%" cy="92.662782%" gradientTransform="matrix(0 -.73561 1 0 -.432392 1.290193)" r="195.066755%"><stop offset="0" stop-color="#ffb90c"/><stop offset=".38390924" stop-color="#f9243a"/><stop offset=".505405" stop-color="#f9243a"/><stop offset=".7398091" stop-color="#b51424"/><stop offset="1" stop-color="#b51424"/></radialGradient><g fill="none" transform="matrix(1 0 0 -1 149 990)"><path d="m65.3646667 571.739321.0845804-.040453c-45.9353324-65.698899-70.77388758-147.221009-64.40618909-234.821352 12.98913829-178.69807 158.14940399-323.1178507 337.01678599-335.2857894 81.358525-5.53060675 157.440439 15.7906068 220.396678 55.8693925l-77.154575 104.6368459c-43.785479-25.576037-81.934276-32.507409-117.815411-31.941971-128.989393 0-233.929548 104.876244-233.929548 233.791004 0 128.918685 104.940155 233.791005 233.929548 233.791005 128.997247 0 233.941328-104.87232 233.941328-233.791005-.015104-59.312134-16.034034-108.269476-66.797399-164.278945l77.140378-104.5351094c73.166004 66.4436594 119.161751 162.2312324 119.161751 268.8140544 0 94.084618-35.797764 179.809022-94.516523 244.324818v.003925l-98.818343 139.847067-104.99634-130.919002 6.101874 29.359613c24.749746 119.028801-1.039131 242.980506-71.208872 342.289916l-298.1297233-417.130316z" fill="url(#a)" transform="translate(-.000091 .685815)"/><path d="m171.862466 343.697728c-94.7663336 0-171.86744006-77.050126-171.86744006-171.762771 0-94.7166696 77.10110646-171.7667946 171.86744006-171.7667946 94.770362 0 171.879522 77.050125 171.879522 171.7667946 0 94.712645-77.10916 171.762771-171.879522 171.762771" fill="#3ec1d3" transform="translate(191.624272 192.716764)"/><path d="m22.8397982 0h-22.16812879c0 78.2496309 63.70920459 141.920035 142.00651959 141.920035v-22.154628c-66.0774563 0-119.8383908-53.7281929-119.8383908-119.765407" fill="#fff" transform="translate(220.809355 364.647295)"/></g></svg>