<svg width="782" height="449" viewBox="0 0 782 449" fill="none" xmlns="http://www.w3.org/2000/svg">
<g clip-path="url(#clip0_1480_6733)">
<path d="M133.333 43.1793L266.667 121.812V272.239L133.333 350.872L0 272.239" stroke="url(#paint0_linear_1480_6733)" stroke-width="2"/>
<path d="M533.333 121.812L666.667 43.1795V-107.248L533.333 -185.88L400 -107.248V43.1795L533.333 121.812Z" stroke="url(#paint1_linear_1480_6733)" stroke-width="2"/>
<path d="M266.333 121.812L399.667 43.1795V-107.248L266.333 -185.88L133 -107.248V43.1795L266.333 121.812Z" stroke="url(#paint2_linear_1480_6733)" stroke-width="2"/>
<path d="M800 121.812L933.333 43.1793V-107.248L800 -185.881L666.667 -107.248V43.1793L800 121.812Z" stroke="url(#paint3_linear_1480_6733)" stroke-width="2"/>
<path d="M666.665 350.872L799.999 272.24V121.812L666.665 43.1797L533.332 121.812V272.24L666.665 350.872Z" stroke="#E6E6E6" stroke-width="2"/>
<path d="M533.333 579.932L666.666 501.3V350.873L533.333 272.24L400 350.873V501.3L533.333 579.932Z" stroke="url(#paint4_linear_1480_6733)" stroke-width="2"/>
<path d="M266.669 579.932L400.002 501.3V350.873L266.669 272.24L133.335 350.873V501.3L266.669 579.932Z" stroke="url(#paint5_linear_1480_6733)" stroke-width="2"/>
<path d="M800 579.932L933.333 501.3V350.873L800 272.24L666.667 350.873V501.3L800 579.932Z" stroke="url(#paint6_linear_1480_6733)" stroke-width="2"/>
<path d="M400 350.872L533.334 272.239V121.812L400 43.1793L266.667 121.812V272.239L400 350.872Z" stroke="#E6E6E6" stroke-width="2"/>
<g filter="url(#filter0_i_1480_6733)">
<path d="M261.755 68.3786C265.001 66.5049 268.999 66.5049 272.245 68.3786L309.387 89.8225C312.632 91.6963 314.631 95.1592 314.631 98.9067V141.794C314.631 145.542 312.632 149.005 309.387 150.879L272.245 172.323C268.999 174.196 265.001 174.196 261.755 172.323L224.613 150.879C221.368 149.005 219.369 145.542 219.369 141.794V98.9067C219.369 95.1592 221.368 91.6963 224.613 89.8225L261.755 68.3786Z" fill="#4A8CFF"/>
</g>
<path d="M240.28 107.243V127.216C240.29 129.383 241.16 131.456 242.699 132.981C244.238 134.507 246.319 135.358 248.485 135.35H277.6C277.993 135.352 278.372 135.197 278.652 134.921C278.932 134.644 279.091 134.268 279.093 133.874V113.901C279.083 111.734 278.213 109.661 276.674 108.136C275.136 106.61 273.054 105.759 270.888 105.767H241.782C241.587 105.765 241.393 105.802 241.211 105.875C241.03 105.948 240.864 106.056 240.725 106.193C240.585 106.33 240.474 106.493 240.398 106.673C240.321 106.854 240.281 107.047 240.28 107.243V107.243ZM280.947 115.034L292.967 106.253C294.011 105.388 294.82 105.605 294.82 107.171V133.946C294.82 135.728 293.831 135.512 292.967 134.862L280.947 126.101V115.034Z" fill="white"/>
<g filter="url(#filter1_i_1480_6733)">
<path d="M129.637 296.87C132.337 295.311 135.663 295.311 138.363 296.87L177.268 319.331C179.968 320.89 181.631 323.771 181.631 326.889V371.812C181.631 374.93 179.968 377.811 177.268 379.37L138.363 401.831C135.663 403.39 132.337 403.39 129.637 401.831L90.7319 379.37C88.0319 377.811 86.3686 374.93 86.3686 371.812V326.889C86.3686 323.771 88.0319 320.89 90.7319 319.331L129.637 296.87Z" fill="#0AC285"/>
</g>
<path d="M160.833 339.991L160.817 339.974L151.879 331.016C149.533 328.658 146.399 327.344 143.14 327.351C142.91 327.418 142.149 327.181 141.994 328.067C141.732 330.115 140.788 332.001 139.327 333.398C137.867 334.795 135.982 335.613 134.002 335.709C132.021 335.613 130.136 334.795 128.675 333.399C127.214 332.002 126.27 330.115 126.008 328.067C125.854 327.183 125.091 327.418 124.862 327.351C121.603 327.344 118.47 328.659 116.125 331.016L107.171 339.991C106.741 340.439 106.5 341.046 106.5 341.68C106.5 342.313 106.741 342.92 107.171 343.368L112.497 348.918C112.893 349.339 113.426 349.59 113.991 349.622C114.556 349.655 115.112 349.466 115.55 349.092L118.403 346.793C118.573 346.655 118.777 346.571 118.991 346.549C119.205 346.527 119.421 346.568 119.614 346.667C119.807 346.767 119.969 346.921 120.081 347.112C120.194 347.303 120.252 347.524 120.25 347.748V370.337C120.25 370.971 120.492 371.578 120.922 372.026C121.352 372.474 121.934 372.726 122.542 372.726H145.461C146.069 372.726 146.652 372.474 147.082 372.026C147.512 371.578 147.753 370.971 147.753 370.337V347.738C147.751 347.514 147.81 347.294 147.922 347.103C148.035 346.912 148.197 346.757 148.39 346.658C148.582 346.558 148.798 346.517 149.012 346.539C149.226 346.561 149.43 346.646 149.6 346.783L152.422 349.054C152.861 349.435 153.421 349.631 153.991 349.604C154.562 349.577 155.102 349.329 155.507 348.909L160.833 343.358C161.26 342.911 161.5 342.306 161.5 341.675C161.5 341.044 161.26 340.439 160.833 339.991V339.991Z" fill="white"/>
<g filter="url(#filter2_i_1480_6733)">
<path d="M527.584 198.087C530.941 196.174 535.059 196.174 538.416 198.087L595.896 230.853C599.309 232.799 601.416 236.426 601.416 240.354V305.646C601.416 309.575 599.309 313.201 595.896 315.147L538.416 347.913C535.059 349.826 530.941 349.826 527.584 347.913L470.104 315.147C466.691 313.201 464.584 309.575 464.584 305.646V240.354C464.584 236.426 466.691 232.799 470.104 230.853L527.584 198.087Z" fill="#FFE100"/>
</g>
<path d="M510.819 306.957L550.986 248.511" stroke="#191919" stroke-width="0.1367" stroke-linecap="round"/>
<path fill-rule="evenodd" clip-rule="evenodd" d="M545.368 229.232C546.419 229.761 546.836 231.029 546.297 232.063C545.235 234.105 544.66 237.035 544.44 240.045C544.223 243.017 544.367 245.829 544.59 247.484C544.744 248.636 543.92 249.693 542.749 249.845C541.578 249.997 540.503 249.186 540.348 248.034C540.087 246.087 539.935 242.989 540.172 239.743C540.407 236.535 541.036 232.938 542.489 230.145C543.027 229.111 544.316 228.702 545.368 229.232Z" fill="#1A1A1A"/>
<path d="M533.224 262.496C534.529 256.399 521.268 255.404 514.474 255.669C487.692 256.235 498.887 272.386 513.715 274.187C519.817 274.928 531.593 270.117 533.224 262.496Z" fill="#CFEDFC"/>
<path d="M500.516 259.149C501.256 258.549 502.217 258.006 503.422 257.54L503.798 258.701L505.71 261.084L508.512 263.582L510.665 263.268L521.424 262.171L532.734 263.361C532.379 264.477 531.803 265.525 531.062 266.497C527.715 265.838 519.9 265.642 515.655 265.634C514.519 266.947 514.108 271.41 514.019 274.076C513.927 274.067 513.837 274.058 513.747 274.047C512.556 273.902 511.388 273.663 510.263 273.347C510.159 271.263 510.89 268.282 511.422 266.628C508.094 266.806 504.575 268.423 502.634 269.549C501.739 268.842 500.963 268.088 500.334 267.31L504.647 264.979C503.982 264.646 501.878 261.382 500.516 259.149Z" fill="#00ACE6"/>
<path d="M530.717 269.785L534.593 272.363L517.077 297.851L512.868 295.052L509.636 290.363L508.017 282.621L510.916 275.819L517.873 277.907L530.717 269.785Z" fill="#FFE100"/>
<path fill-rule="evenodd" clip-rule="evenodd" d="M571.264 246.453C570.373 245.691 569.022 245.783 568.247 246.66C566.716 248.391 564.167 250.007 561.409 251.33C558.687 252.635 555.981 253.551 554.337 253.965C553.192 254.253 552.502 255.399 552.795 256.525C553.089 257.651 554.254 258.33 555.398 258.042C557.332 257.555 560.31 256.538 563.285 255.112C566.223 253.703 569.382 251.788 571.475 249.422C572.25 248.545 572.156 247.216 571.264 246.453Z" fill="#1A1A1A"/>
<path d="M544.382 270.211C549.594 266.783 555.415 278.4 557.674 284.637C567.025 309.05 547.813 304.891 540.661 292.155C537.718 286.914 537.867 274.496 544.382 270.211Z" fill="#CFEDFC"/>
<path d="M559.755 298.534C560.046 297.631 560.202 296.547 560.192 295.267L558.951 295.357L555.978 294.496L552.562 292.862L552.054 290.771L549.067 280.495L543.706 270.57C542.782 271.314 542.004 272.234 541.36 273.277C543.238 276.099 546.348 283.192 547.945 287.081C547.126 288.614 543.051 290.661 540.559 291.74C540.601 291.821 540.644 291.901 540.688 291.978C541.271 293.017 541.934 293.998 542.656 294.911C544.669 294.226 547.219 292.441 548.588 291.334C549.664 294.452 549.45 298.284 549.109 300.485C550.114 301.041 551.119 301.47 552.091 301.755L552.685 296.928C553.25 297.414 557.13 298.121 559.755 298.534Z" fill="#00ACE6"/>
<path d="M538.471 274.942L534.594 272.364L517.078 297.853L521.287 300.652L526.915 301.855L534.821 300.448L540.157 295.267L535.595 289.694L538.471 274.942Z" fill="#FFE100"/>
<path fill-rule="evenodd" clip-rule="evenodd" d="M550.988 248.486C545.012 244.522 532.389 241.834 527.197 252.845C517.426 250.155 497.286 249.966 494.217 261.383C492.455 267.941 501.838 275.657 507.244 276.713C505.561 280.884 504.157 290.88 512.005 297.496L510.793 306.994L510.789 307L510.793 306.998L510.793 307L510.795 306.997L519.301 302.346C528.465 307.044 537.372 302.038 540.679 298.947C543.69 303.489 554.465 309.179 559.994 305.126C569.62 298.07 561.936 279.755 555.758 271.838C564.218 262.987 556.958 252.455 550.989 248.485L550.988 248.486ZM534.599 272.367L534.598 272.368L532.715 271.116C530.324 273.843 525.442 275.907 523.299 276.598C523.516 279.651 526.111 282.008 527.396 282.815L527.398 282.813C528.628 283.685 531.832 285.191 534.804 284.247C534.658 282.034 534.785 276.807 536.467 273.609L534.599 272.367ZM522.023 290.666L522.022 290.668C515.731 286.484 513.894 280.5 513.761 278.032L511.426 277.907C507.308 287.089 513.752 294.207 517.74 296.866L517.742 296.865C521.729 299.517 530.859 302.764 537.994 295.574L537.006 293.489C534.63 294.287 528.309 294.839 522.023 290.666ZM514.498 255.826C521.172 255.566 534.185 256.541 532.964 262.509C527.16 261.644 517.112 260.845 509.374 262.576C508.148 262.147 505.622 260.492 504.533 257.164C506.981 256.403 510.255 255.916 514.498 255.826ZM519.268 263.443C522.397 263.435 528.428 263.568 532.476 264.085C529.919 270.281 520.591 274.226 514.836 274.129C514.474 271.108 515.019 266.296 519.268 263.443ZM516.152 263.751C514.618 265.431 512.119 269.56 512.895 273.936C507.945 273.142 503.492 270.757 500.899 267.967C503.322 266.243 508.283 264.046 516.152 263.751ZM506.847 263.435C504.951 263.916 501.466 264.992 499.521 266.161C497.711 263.153 498.197 259.978 502.486 257.951C502.909 259.313 504.106 261.418 506.847 263.435ZM557.678 284.542C555.436 278.352 549.667 266.835 544.493 270.174C547.472 275.15 551.969 284.025 553.22 291.734C554.082 292.694 556.584 294.383 560.129 294.137C559.935 291.619 559.175 288.448 557.678 284.542ZM548.716 283.025C547.557 280.165 545.184 274.709 543.188 271.207C538.297 275.85 538.051 285.836 540.287 291.053C543.272 290.258 547.608 287.967 548.716 283.025ZM549.587 285.985C548.573 288.011 545.61 291.831 541.192 292.753C543.786 296.977 547.695 300.153 551.294 301.48C552.017 298.625 552.24 293.278 549.587 285.985ZM553.352 294.361C553.604 296.271 553.889 299.854 553.51 302.065C557.023 302.596 559.836 300.97 560.15 296.299C558.707 296.42 556.276 296.112 553.352 294.361Z" fill="#1A1A1A"/>
</g>
<defs>
<filter id="filter0_i_1480_6733" x="219.369" y="66.9733" width="103.13" height="111.999" filterUnits="userSpaceOnUse" color-interpolation-filters="sRGB">
<feFlood flood-opacity="0" result="BackgroundImageFix"/>
<feBlend mode="normal" in="SourceGraphic" in2="BackgroundImageFix" result="shape"/>
<feColorMatrix in="SourceAlpha" type="matrix" values="0 0 0 0 0 0 0 0 0 0 0 0 0 0 0 0 0 0 127 0" result="hardAlpha"/>
<feOffset dx="9.1783" dy="5.24474"/>
<feGaussianBlur stdDeviation="3.93356"/>
<feComposite in2="hardAlpha" operator="arithmetic" k2="-1" k3="1"/>
<feColorMatrix type="matrix" values="0 0 0 0 0 0 0 0 0 0 0 0 0 0 0 0 0 0 0.1 0"/>
<feBlend mode="normal" in2="shape" result="effect1_innerShadow_1480_6733"/>
</filter>
<filter id="filter1_i_1480_6733" x="86.3687" y="295.701" width="101.808" height="111.663" filterUnits="userSpaceOnUse" color-interpolation-filters="sRGB">
<feFlood flood-opacity="0" result="BackgroundImageFix"/>
<feBlend mode="normal" in="SourceGraphic" in2="BackgroundImageFix" result="shape"/>
<feColorMatrix in="SourceAlpha" type="matrix" values="0 0 0 0 0 0 0 0 0 0 0 0 0 0 0 0 0 0 127 0" result="hardAlpha"/>
<feOffset dx="7.63584" dy="4.36334"/>
<feGaussianBlur stdDeviation="3.2725"/>
<feComposite in2="hardAlpha" operator="arithmetic" k2="-1" k3="1"/>
<feColorMatrix type="matrix" values="0 0 0 0 0 0 0 0 0 0 0 0 0 0 0 0 0 0 0.1 0"/>
<feBlend mode="normal" in2="shape" result="effect1_innerShadow_1480_6733"/>
</filter>
<filter id="filter2_i_1480_6733" x="464.584" y="196.652" width="145.034" height="158.164" filterUnits="userSpaceOnUse" color-interpolation-filters="sRGB">
<feFlood flood-opacity="0" result="BackgroundImageFix"/>
<feBlend mode="normal" in="SourceGraphic" in2="BackgroundImageFix" result="shape"/>
<feColorMatrix in="SourceAlpha" type="matrix" values="0 0 0 0 0 0 0 0 0 0 0 0 0 0 0 0 0 0 127 0" result="hardAlpha"/>
<feOffset dx="9.56897" dy="5.46798"/>
<feGaussianBlur stdDeviation="4.10099"/>
<feComposite in2="hardAlpha" operator="arithmetic" k2="-1" k3="1"/>
<feColorMatrix type="matrix" values="0 0 0 0 0 0 0 0 0 0 0 0 0 0 0 0 0 0 0.1 0"/>
<feBlend mode="normal" in2="shape" result="effect1_innerShadow_1480_6733"/>
</filter>
<linearGradient id="paint0_linear_1480_6733" x1="267" y1="269.851" x2="43" y2="115" gradientUnits="userSpaceOnUse">
<stop stop-color="#E6E6E6"/>
<stop offset="1" stop-color="#E6E6E6" stop-opacity="0"/>
</linearGradient>
<linearGradient id="paint1_linear_1480_6733" x1="533.333" y1="44.5" x2="533.333" y2="14" gradientUnits="userSpaceOnUse">
<stop stop-color="#E6E6E6"/>
<stop offset="0.0001" stop-color="#E6E6E6"/>
<stop offset="1" stop-color="#E5E5E5" stop-opacity="0"/>
</linearGradient>
<linearGradient id="paint2_linear_1480_6733" x1="266.333" y1="44.5" x2="266.333" y2="14" gradientUnits="userSpaceOnUse">
<stop stop-color="#E6E6E6"/>
<stop offset="0.0001" stop-color="#E6E6E6"/>
<stop offset="1" stop-color="#E5E5E5" stop-opacity="0"/>
</linearGradient>
<linearGradient id="paint3_linear_1480_6733" x1="800" y1="44.4998" x2="800" y2="13.9998" gradientUnits="userSpaceOnUse">
<stop stop-color="#E6E6E6"/>
<stop offset="0.0001" stop-color="#E6E6E6"/>
<stop offset="1" stop-color="#E5E5E5" stop-opacity="0"/>
</linearGradient>
<linearGradient id="paint4_linear_1480_6733" x1="533.333" y1="272.35" x2="533.332" y2="443.85" gradientUnits="userSpaceOnUse">
<stop offset="0.438082" stop-color="#E6E6E6"/>
<stop offset="1" stop-color="#F2F2F2" stop-opacity="0"/>
<stop offset="1" stop-color="#E5E5E5" stop-opacity="0"/>
</linearGradient>
<linearGradient id="paint5_linear_1480_6733" x1="266.668" y1="272.35" x2="266.668" y2="443.85" gradientUnits="userSpaceOnUse">
<stop offset="0.452424" stop-color="#E6E6E6"/>
<stop offset="1" stop-color="#F2F2F2" stop-opacity="0"/>
<stop offset="1" stop-color="#E5E5E5" stop-opacity="0"/>
</linearGradient>
<linearGradient id="paint6_linear_1480_6733" x1="799.999" y1="272.35" x2="799.999" y2="443.85" gradientUnits="userSpaceOnUse">
<stop offset="0.459873" stop-color="#E6E6E6"/>
<stop offset="1" stop-color="#F2F2F2" stop-opacity="0"/>
<stop offset="1" stop-color="#E5E5E5" stop-opacity="0"/>
</linearGradient>
<clipPath id="clip0_1480_6733">
<rect width="782" height="449" fill="white"/>
</clipPath>
</defs>
</svg>
