<svg width="782" height="449" viewBox="0 0 782 449" fill="none" xmlns="http://www.w3.org/2000/svg">
<g clip-path="url(#clip0_2194_4916)">
<path d="M133.333 43.1792L266.667 121.812V272.239L133.333 350.872L0 272.239" stroke="url(#paint0_linear_2194_4916)" stroke-width="2"/>
<path d="M533.333 121.812L666.667 43.1795V-107.248L533.333 -185.88L400 -107.248V43.1795L533.333 121.812Z" stroke="url(#paint1_linear_2194_4916)" stroke-width="2"/>
<path d="M266.333 121.812L399.667 43.1795V-107.248L266.333 -185.88L133 -107.248V43.1795L266.333 121.812Z" stroke="url(#paint2_linear_2194_4916)" stroke-width="2"/>
<path d="M800 121.812L933.333 43.1793V-107.248L800 -185.881L666.667 -107.248V43.1793L800 121.812Z" stroke="url(#paint3_linear_2194_4916)" stroke-width="2"/>
<path d="M533.333 579.932L666.666 501.3V350.873L533.333 272.24L400 350.873V501.3L533.333 579.932Z" stroke="url(#paint4_linear_2194_4916)" stroke-width="2"/>
<path d="M266.669 579.932L400.002 501.3V350.873L266.669 272.24L133.335 350.873V501.3L266.669 579.932Z" stroke="url(#paint5_linear_2194_4916)" stroke-width="2"/>
<path d="M800 579.932L933.333 501.3V350.873L800 272.24L666.667 350.873V501.3L800 579.932Z" stroke="url(#paint6_linear_2194_4916)" stroke-width="2"/>
<path d="M400 350.872L533.334 272.239V121.812L400 43.1792L266.667 121.812V272.239L400 350.872Z" stroke="#F2F2F2" stroke-width="2"/>
<g filter="url(#filter0_i_2194_4916)">
<path d="M264.755 74.3786C268.001 72.5049 271.999 72.5049 275.245 74.3786L305.458 91.8225C308.704 93.6963 310.703 97.1592 310.703 100.907V135.794C310.703 139.542 308.704 143.005 305.458 144.879L275.245 162.323C271.999 164.196 268.001 164.196 264.755 162.323L234.542 144.879C231.296 143.005 229.297 139.542 229.297 135.794V100.907C229.297 97.1592 231.296 93.6963 234.542 91.8225L264.755 74.3786Z" fill="#4A8CFF"/>
</g>
<path d="M247.167 107.149V124.218C247.175 126.069 247.919 127.841 249.234 129.144C250.549 130.447 252.327 131.175 254.178 131.168H279.058C279.395 131.17 279.718 131.038 279.957 130.801C280.196 130.565 280.332 130.243 280.335 129.907V112.839C280.326 110.987 279.582 109.216 278.267 107.912C276.952 106.609 275.174 105.881 273.323 105.888H248.45C248.283 105.887 248.117 105.918 247.962 105.98C247.807 106.043 247.666 106.135 247.547 106.252C247.427 106.369 247.332 106.509 247.267 106.663C247.202 106.817 247.168 106.982 247.167 107.149ZM281.918 113.807L292.19 106.304C293.082 105.564 293.774 105.75 293.774 107.088V129.969C293.774 131.491 292.928 131.306 292.19 130.751L281.918 123.264V113.807Z" fill="white"/>
<g filter="url(#filter1_i_2194_4916)">
<path d="M130.637 305.87C133.337 304.311 136.663 304.311 139.363 305.87L168.742 322.831C171.442 324.39 173.105 327.271 173.105 330.389V364.312C173.105 367.43 171.442 370.311 168.742 371.87L139.363 388.831C136.663 390.39 133.337 390.39 130.637 388.831L101.258 371.87C98.5582 370.311 96.8949 367.43 96.8949 364.312V330.389C96.8949 327.271 98.5582 324.39 101.258 322.831L130.637 305.87Z" fill="#0AC285"/>
</g>
<path d="M156.466 339.863L156.454 339.85L149.303 332.683C147.426 330.797 144.919 329.745 142.312 329.751C142.128 329.804 141.519 329.615 141.395 330.324C141.185 331.962 140.43 333.471 139.262 334.588C138.093 335.706 136.586 336.36 135.001 336.437C133.417 336.361 131.909 335.706 130.74 334.589C129.571 333.472 128.816 331.962 128.606 330.324C128.483 329.617 127.873 329.804 127.689 329.751C125.082 329.746 122.576 330.797 120.7 332.683L113.536 339.863C113.193 340.221 113 340.707 113 341.214C113 341.72 113.193 342.206 113.536 342.565L117.797 347.005C118.114 347.341 118.541 347.542 118.993 347.568C119.444 347.594 119.889 347.443 120.24 347.144L122.522 345.304C122.659 345.194 122.822 345.127 122.993 345.109C123.164 345.091 123.337 345.124 123.491 345.204C123.645 345.284 123.775 345.407 123.865 345.56C123.955 345.713 124.002 345.889 124 346.068V364.14C124 364.647 124.193 365.133 124.537 365.491C124.881 365.849 125.347 366.051 125.834 366.051H144.169C144.655 366.051 145.122 365.849 145.465 365.491C145.809 365.133 146.002 364.647 146.002 364.14V346.061C146.001 345.881 146.048 345.705 146.138 345.552C146.228 345.399 146.357 345.276 146.512 345.196C146.666 345.117 146.838 345.084 147.01 345.101C147.181 345.119 147.344 345.187 147.48 345.297L149.737 347.113C150.089 347.418 150.536 347.575 150.993 347.553C151.449 347.532 151.882 347.333 152.205 346.997L156.466 342.557C156.808 342.199 157 341.715 157 341.21C157 340.705 156.808 340.221 156.466 339.863Z" fill="white"/>
<g filter="url(#filter2_i_2194_4916)">
<path d="M527.595 212.424C530.946 210.518 535.054 210.518 538.405 212.424L584.627 238.706C588.046 240.65 590.158 244.28 590.158 248.213V300.489C590.158 304.421 588.046 308.051 584.627 309.995L538.405 336.277C535.054 338.183 530.946 338.183 527.595 336.277L481.373 309.995C477.954 308.051 475.842 304.421 475.842 300.489V248.213C475.842 244.28 477.954 240.65 481.373 238.706L527.595 212.424Z" fill="#FFE100"/>
</g>
<path d="M514.52 303.312L548.092 253.932" stroke="#191919" stroke-width="0.1367" stroke-linecap="round"/>
<path fill-rule="evenodd" clip-rule="evenodd" d="M543.396 237.643C544.275 238.09 544.623 239.161 544.173 240.035C543.285 241.761 542.804 244.235 542.62 246.779C542.439 249.29 542.56 251.666 542.745 253.064C542.875 254.037 542.186 254.93 541.207 255.059C540.228 255.187 539.329 254.502 539.2 253.529C538.982 251.884 538.855 249.267 539.053 246.523C539.249 243.813 539.775 240.774 540.989 238.415C541.439 237.541 542.517 237.195 543.396 237.643Z" fill="#1A1A1A"/>
<path d="M533.246 265.747C534.336 260.596 523.253 259.755 517.574 259.979C495.189 260.458 504.546 274.103 516.94 275.625C522.04 276.251 531.883 272.186 533.246 265.747Z" fill="#CFEDFC"/>
<path d="M505.908 262.92C506.527 262.413 507.33 261.954 508.337 261.56L508.651 262.541L510.25 264.554L512.592 266.665L514.391 266.399L523.384 265.472L532.837 266.478C532.54 267.421 532.058 268.307 531.439 269.128C528.641 268.571 522.109 268.406 518.562 268.399C517.612 269.508 517.269 273.279 517.194 275.531C517.118 275.524 517.042 275.516 516.967 275.507C515.971 275.384 514.996 275.183 514.055 274.915C513.968 273.154 514.579 270.636 515.023 269.238C512.242 269.389 509.301 270.755 507.678 271.706C506.93 271.109 506.282 270.472 505.756 269.815L509.361 267.845C508.805 267.564 507.046 264.806 505.908 262.92Z" fill="#00ACE6"/>
<path d="M531.15 271.905L534.39 274.084L519.75 295.619L516.232 293.254L513.53 289.292L512.177 282.751L514.6 277.004L520.415 278.768L531.15 271.905Z" fill="#FFE100"/>
<path fill-rule="evenodd" clip-rule="evenodd" d="M565.041 252.193C564.296 251.549 563.167 251.627 562.519 252.368C561.24 253.83 559.109 255.196 556.804 256.313C554.529 257.416 552.266 258.19 550.892 258.54C549.936 258.783 549.359 259.752 549.604 260.703C549.849 261.654 550.823 262.227 551.78 261.984C553.396 261.573 555.885 260.714 558.371 259.509C560.828 258.318 563.468 256.701 565.217 254.701C565.865 253.96 565.786 252.838 565.041 252.193Z" fill="#1A1A1A"/>
<path d="M542.572 272.266C546.928 269.37 551.793 279.185 553.682 284.454C561.497 305.08 545.44 301.566 539.462 290.806C537.002 286.378 537.126 275.887 542.572 272.266Z" fill="#CFEDFC"/>
<path d="M555.421 296.196C555.664 295.433 555.794 294.516 555.786 293.436L554.749 293.512L552.264 292.784L549.409 291.403L548.985 289.636L546.488 280.954L542.007 272.569C541.235 273.197 540.584 273.975 540.046 274.856C541.616 277.241 544.215 283.233 545.549 286.519C544.865 287.814 541.459 289.544 539.376 290.455C539.412 290.524 539.448 290.591 539.484 290.657C539.972 291.534 540.526 292.363 541.129 293.135C542.812 292.556 544.943 291.047 546.087 290.112C546.987 292.746 546.808 295.984 546.523 297.844C547.362 298.313 548.202 298.676 549.015 298.917L549.512 294.839C549.983 295.249 553.227 295.847 555.421 296.196Z" fill="#00ACE6"/>
<path d="M537.631 276.263L534.391 274.085L519.75 295.62L523.268 297.985L527.972 299.002L534.581 297.813L539.04 293.436L535.227 288.727L537.631 276.263Z" fill="#FFE100"/>
<path fill-rule="evenodd" clip-rule="evenodd" d="M548.093 253.911C543.098 250.561 532.547 248.29 528.208 257.593C520.041 255.321 503.208 255.161 500.643 264.807C499.17 270.348 507.012 276.867 511.531 277.759C510.124 281.283 508.951 289.729 515.51 295.318L514.498 303.343L514.494 303.348L514.497 303.346L514.497 303.348L514.499 303.345L521.608 299.416C529.269 303.386 536.712 299.155 539.477 296.544C541.994 300.382 550.999 305.189 555.62 301.765C563.666 295.803 557.244 280.33 552.081 273.64C559.151 266.162 553.084 257.264 548.094 253.909L548.093 253.911ZM534.395 274.087L534.394 274.088L532.82 273.03C530.822 275.334 526.741 277.078 524.95 277.662C525.131 280.242 527.3 282.233 528.375 282.915L528.376 282.913C529.404 283.649 532.082 284.922 534.566 284.125C534.444 282.255 534.551 277.839 535.956 275.136L534.395 274.087ZM523.884 289.548L523.883 289.549C518.625 286.014 517.089 280.959 516.978 278.873L515.027 278.768C511.585 286.525 516.971 292.539 520.304 294.787L520.305 294.785C523.638 297.026 531.269 299.769 537.233 293.695L536.407 291.933C534.421 292.607 529.138 293.074 523.884 289.548ZM517.594 260.112C523.172 259.893 534.049 260.716 533.028 265.759C528.177 265.027 519.779 264.353 513.312 265.815C512.286 265.452 510.176 264.054 509.265 261.243C511.311 260.599 514.048 260.188 517.594 260.112ZM521.581 266.547C524.197 266.541 529.237 266.653 532.62 267.09C530.483 272.324 522.687 275.658 517.876 275.576C517.574 273.024 518.03 268.958 521.581 266.547ZM518.976 266.807C517.694 268.227 515.606 271.716 516.255 275.413C512.117 274.743 508.395 272.727 506.228 270.369C508.253 268.913 512.399 267.057 518.976 266.807ZM511.2 266.541C509.615 266.947 506.702 267.856 505.076 268.844C503.563 266.302 503.97 263.62 507.554 261.907C507.908 263.058 508.908 264.837 511.2 266.541ZM553.685 284.373C551.811 279.144 546.989 269.413 542.664 272.235C545.154 276.439 548.914 283.937 549.959 290.45C550.68 291.261 552.771 292.688 555.734 292.48C555.572 290.353 554.936 287.674 553.685 284.373ZM546.194 283.092C545.226 280.676 543.242 276.066 541.574 273.107C537.486 277.03 537.28 285.467 539.15 289.875C541.644 289.203 545.268 287.267 546.194 283.092ZM546.922 285.593C546.075 287.305 543.598 290.532 539.906 291.311C542.074 294.88 545.341 297.563 548.349 298.684C548.953 296.272 549.14 291.755 546.922 285.593ZM550.069 292.67C550.28 294.284 550.518 297.31 550.202 299.179C553.137 299.628 555.488 298.253 555.751 294.307C554.545 294.41 552.513 294.149 550.069 292.67Z" fill="#1A1A1A"/>
</g>
<defs>
<filter id="filter0_i_2194_4916" x="229.297" y="72.9733" width="89.2734" height="95.9994" filterUnits="userSpaceOnUse" color-interpolation-filters="sRGB">
<feFlood flood-opacity="0" result="BackgroundImageFix"/>
<feBlend mode="normal" in="SourceGraphic" in2="BackgroundImageFix" result="shape"/>
<feColorMatrix in="SourceAlpha" type="matrix" values="0 0 0 0 0 0 0 0 0 0 0 0 0 0 0 0 0 0 127 0" result="hardAlpha"/>
<feOffset dx="9.1783" dy="5.24474"/>
<feGaussianBlur stdDeviation="3.93356"/>
<feComposite in2="hardAlpha" operator="arithmetic" k2="-1" k3="1"/>
<feColorMatrix type="matrix" values="0 0 0 0 0 0 0 0 0 0 0 0 0 0 0 0 0 0 0.1 0"/>
<feBlend mode="normal" in2="shape" result="effect1_innerShadow_2194_4916"/>
</filter>
<filter id="filter1_i_2194_4916" x="96.895" y="304.701" width="82.755" height="89.6634" filterUnits="userSpaceOnUse" color-interpolation-filters="sRGB">
<feFlood flood-opacity="0" result="BackgroundImageFix"/>
<feBlend mode="normal" in="SourceGraphic" in2="BackgroundImageFix" result="shape"/>
<feColorMatrix in="SourceAlpha" type="matrix" values="0 0 0 0 0 0 0 0 0 0 0 0 0 0 0 0 0 0 127 0" result="hardAlpha"/>
<feOffset dx="7.63584" dy="4.36334"/>
<feGaussianBlur stdDeviation="3.2725"/>
<feComposite in2="hardAlpha" operator="arithmetic" k2="-1" k3="1"/>
<feColorMatrix type="matrix" values="0 0 0 0 0 0 0 0 0 0 0 0 0 0 0 0 0 0 0.1 0"/>
<feBlend mode="normal" in2="shape" result="effect1_innerShadow_2194_4916"/>
</filter>
<filter id="filter2_i_2194_4916" x="475.842" y="210.995" width="122.517" height="132.179" filterUnits="userSpaceOnUse" color-interpolation-filters="sRGB">
<feFlood flood-opacity="0" result="BackgroundImageFix"/>
<feBlend mode="normal" in="SourceGraphic" in2="BackgroundImageFix" result="shape"/>
<feColorMatrix in="SourceAlpha" type="matrix" values="0 0 0 0 0 0 0 0 0 0 0 0 0 0 0 0 0 0 127 0" result="hardAlpha"/>
<feOffset dx="9.56897" dy="5.46798"/>
<feGaussianBlur stdDeviation="4.10099"/>
<feComposite in2="hardAlpha" operator="arithmetic" k2="-1" k3="1"/>
<feColorMatrix type="matrix" values="0 0 0 0 0 0 0 0 0 0 0 0 0 0 0 0 0 0 0.1 0"/>
<feBlend mode="normal" in2="shape" result="effect1_innerShadow_2194_4916"/>
</filter>
<linearGradient id="paint0_linear_2194_4916" x1="267" y1="269.851" x2="119" y2="125.351" gradientUnits="userSpaceOnUse">
<stop stop-color="#F2F2F2"/>
<stop offset="0.461277" stop-color="#F2F2F2"/>
<stop offset="1" stop-color="#F2F2F2" stop-opacity="0"/>
</linearGradient>
<linearGradient id="paint1_linear_2194_4916" x1="533.333" y1="121.812" x2="533.333" y2="-31.6494" gradientUnits="userSpaceOnUse">
<stop stop-color="#F2F2F2"/>
<stop offset="1" stop-color="#F2F2F2" stop-opacity="0"/>
</linearGradient>
<linearGradient id="paint2_linear_2194_4916" x1="266.333" y1="121.812" x2="266.333" y2="-31.6494" gradientUnits="userSpaceOnUse">
<stop stop-color="#F2F2F2"/>
<stop offset="1" stop-color="#F2F2F2" stop-opacity="0"/>
</linearGradient>
<linearGradient id="paint3_linear_2194_4916" x1="800" y1="121.812" x2="800" y2="-31.6497" gradientUnits="userSpaceOnUse">
<stop stop-color="#F2F2F2"/>
<stop offset="1" stop-color="#F2F2F2" stop-opacity="0"/>
</linearGradient>
<linearGradient id="paint4_linear_2194_4916" x1="533.333" y1="272.35" x2="533.332" y2="443.85" gradientUnits="userSpaceOnUse">
<stop stop-color="#F2F2F2"/>
<stop offset="1" stop-color="#F2F2F2" stop-opacity="0"/>
</linearGradient>
<linearGradient id="paint5_linear_2194_4916" x1="266.668" y1="272.35" x2="266.668" y2="443.85" gradientUnits="userSpaceOnUse">
<stop stop-color="#F2F2F2"/>
<stop offset="1" stop-color="#F2F2F2" stop-opacity="0"/>
</linearGradient>
<linearGradient id="paint6_linear_2194_4916" x1="799.999" y1="272.35" x2="799.999" y2="443.85" gradientUnits="userSpaceOnUse">
<stop stop-color="#F2F2F2"/>
<stop offset="1" stop-color="#F2F2F2" stop-opacity="0"/>
</linearGradient>
<clipPath id="clip0_2194_4916">
<rect width="782" height="449" fill="white"/>
</clipPath>
</defs>
</svg>
