<svg width="18" height="14" viewBox="0 0 18 14" fill="none" xmlns="http://www.w3.org/2000/svg">
<path fill-rule="evenodd" clip-rule="evenodd" d="M5.6475 14C12.4445 14 16.1609 8.61254 16.1609 3.94346C16.1609 3.78953 16.1609 3.63561 16.1533 3.48897C16.8736 2.99057 17.5019 2.36751 18 1.65653C17.341 1.93506 16.6283 2.12566 15.8774 2.21358C16.6437 1.77378 17.2261 1.08478 17.5019 0.256546C16.7893 0.659673 16 0.952835 15.1571 1.11411C14.4827 0.425108 13.5249 0 12.4598 0C10.4215 0 8.7663 1.58324 8.7663 3.53299C8.7663 3.81151 8.79696 4.08269 8.8659 4.33924C5.79312 4.19266 3.07278 2.78533 1.24908 0.64498C0.934861 1.16542 0.750961 1.77378 0.750961 2.41882C0.750961 3.64289 1.40232 4.72773 2.3985 5.35808C1.7931 5.34344 1.22604 5.18217 0.727981 4.91833V4.9623C0.727981 6.67748 1.99998 8.09945 3.69348 8.42934C3.387 8.50992 3.05748 8.55394 2.72034 8.55394C2.48274 8.55394 2.25288 8.53196 2.02302 8.48794C2.49042 9.89527 3.8544 10.9142 5.47128 10.9434C4.2069 11.889 2.61306 12.4534 0.881219 12.4534C0.582359 12.4534 0.29118 12.4387 0 12.4021C1.61688 13.4136 3.56322 14 5.6475 14Z" fill="currentColor"/>
</svg>
